
<svg id="master-artboard" viewBox="0 0 1111.7705078125 704.17431640625" version="1.1" xmlns="http://www.w3.org/2000/svg" x="0px" y="0px" style="enable-background:new 0 0 1400 980" width="1111.7705078125px" height="704.17431640625px"><defs><style id="ee-google-fonts">@import url(https://fonts.googleapis.com/css?family=Rubik:300,300italic,400,400italic,500,500italic,700,700italic,900,900italic);</style><clipPath clipPathUnits="userSpaceOnUse" id="clipPath23"><path d="M 0,841.89 H 595.28 V 0 H 0 Z" id="path21"></path></clipPath><linearGradient x1="0" y1="0" x2="1" y2="0" gradientUnits="userSpaceOnUse" gradientTransform="matrix(0,-30.825211,-30.825211,0,302.53516,451.44775)" spreadMethod="pad" id="linearGradient97"><stop style="stop-opacity:1;stop-color:#00a0df" offset="0" id="stop93"></stop><stop style="stop-opacity:1;stop-color:#0069b4" offset="1" id="stop95"></stop></linearGradient><clipPath clipPathUnits="userSpaceOnUse" id="clipPath107"><path d="M 0,841.89 H 595.28 V 0 H 0 Z" id="path105"></path></clipPath></defs><rect id="ee-background" x="0" y="0" width="1111.7705078125" height="704.17431640625" style="fill:rgb(5, 10, 45);fill-opacity:0;pointer-events:none"></rect>








































<g transform="matrix(3.0456275939941406, 0, 0, 3.0456275939941406, -663.7120971679688, -1279.2463626861572)"><g id="g15" transform="matrix(1.3333333,0,0,-1.3333333,0,1122.52)"><g id="g17"><g id="g19" clip-path="url(#clipPath23)"><g id="g25" transform="translate(282.2373,383.5537)"><path d="m 0,0 c 0.298,0.809 0.541,1.738 0.679,2.84 0.674,5.303 -1.183,14.701 -13.88,29.66 -0.336,0.439 -32.039,41.598 6.13,87.57 -7.437,-2.988 -14.431,-7.167 -20.752,-12.476 -15.654,-13.121 -25.232,-31.566 -26.991,-51.924 -0.498,-5.689 -0.364,-11.302 0.357,-16.819 l 0.228,0.087 C -38.061,19.186 -19.916,6.176 0,0" style="fill:#f09814;fill-opacity:1;fill-rule:nonzero;stroke:none" id="path27"></path></g><g id="g29" transform="translate(279.5474,379.5615)"><path d="m 0,0 c 0.058,0.047 0.679,0.523 1.388,1.498 -17.35,5.969 -35.454,17.697 -52.705,38.43 2.029,-11.891 6.886,-23.145 14.304,-32.948 l 0.1,0.127 C -36.7,6.945 -13.555,-10.211 0,0" style="fill:#f09814;fill-opacity:1;fill-rule:nonzero;stroke:none" id="path31"></path></g><g id="g33" transform="translate(272.2451,418.6602)"><path d="M 0,0 C 6.149,-7.232 10.398,-13.881 12.756,-19.897 V 88.149 C 10.398,87.554 8.059,86.855 5.769,86.026 -31.819,42.052 -1.217,1.594 0,0" style="fill:#f09814;fill-opacity:1;fill-rule:nonzero;stroke:none" id="path35"></path></g><g id="g37" transform="translate(285.001,379.7275)"><path d="m 0,0 c -1.408,-2.389 -2.978,-3.494 -3.031,-3.529 -12.541,-9.436 -29.404,1.326 -36.586,6.787 10.26,-12.026 23.661,-20.44 38.663,-24.375 0.261,0.408 0.582,0.908 0.954,1.492 z" style="fill:#f09814;fill-opacity:1;fill-rule:nonzero;stroke:none" id="path39"></path></g><g id="g41" transform="translate(287.0146,385.6807)"><path d="m 0,0 c -0.165,-1.213 -0.436,-2.307 -0.778,-3.27 3.109,-0.82 6.253,-1.476 9.445,-1.957 11.817,26.608 25.475,73.781 8.832,128.635 -6.644,0.076 -13.188,-0.695 -19.513,-2.279 V 13.082 C -0.141,8.306 0.535,3.938 0,0" style="fill:#f09814;fill-opacity:1;fill-rule:nonzero;stroke:none" id="path43"></path></g><g id="g45" transform="translate(359.5703,436.9438)"><path d="m 0,0 c -6.357,-28.369 -32.729,-41.587 -35.041,-42.718 -8.422,-4.481 -12.482,-9.903 -13.663,-14.862 4.485,0.022 9.063,0.352 13.703,0.979 23.872,3.223 42.098,13.787 46.885,16.809 4.607,8.818 7.472,18.564 8.368,28.794 2.704,31.116 -13.72,59.573 -39.5,73.735 C -2.447,39.821 4.557,20.248 0,0" style="fill:#f09814;fill-opacity:1;fill-rule:nonzero;stroke:none" id="path47"></path></g><g id="g49" transform="translate(285.001,379.7275)"><path d="m 0,0 v -19.625 c 2.02,3.227 5.519,9.187 9.339,17.412 C 6.266,-1.645 3.16,-0.898 0.014,0.021 0.014,0.016 0,0.004 0,0" style="fill:#f09814;fill-opacity:1;fill-rule:nonzero;stroke:none" id="path51"></path></g><g id="g53" transform="translate(306.4648,373.9658)"><path d="m 0,0 c -0.111,0.672 -0.188,1.354 -0.213,2.047 -2.622,0.154 -5.272,0.43 -7.966,0.83 -4.08,-9.207 -7.878,-15.789 -9.998,-19.217 2.859,-0.572 5.757,-0.996 8.685,-1.26 8.773,-0.748 17.441,-0.025 25.718,2.096 C 10.906,-13.68 1.602,-9.291 0,0" style="fill:#f09814;fill-opacity:1;fill-rule:nonzero;stroke:none" id="path55"></path></g><g id="g57" transform="translate(310.4844,375.835)"><path d="m 0,0 c 0.02,-0.447 0.045,-0.885 0.104,-1.309 1.082,-8.375 12.45,-13.72 15.635,-15.056 9.619,2.961 18.634,7.853 26.577,14.537 C 47.891,2.834 52.674,8.176 56.628,14.033 45.818,8.32 24.949,-0.531 0,0" style="fill:#f09814;fill-opacity:1;fill-rule:nonzero;stroke:none" id="path59"></path></g><g id="g61" transform="translate(299.6299,379.9365)"><path d="m 0,0 c 2.237,-0.24 4.505,-0.414 6.792,-0.506 0.951,6.35 5.513,13.151 15.828,18.263 l 0.133,0.115 0.144,0.055 c 0.301,0.141 27.397,13.436 33.917,40.437 4.596,18.895 -1.743,40.017 -18.84,62.816 -8.318,4.139 -17.539,6.822 -27.347,7.684 -1.296,0.108 -2.585,0.191 -3.882,0.237 C 23.912,74.281 11.476,27.225 0,0" style="fill:#f09814;fill-opacity:1;fill-rule:nonzero;stroke:none" id="path63"></path></g><g id="g65" transform="translate(285.001,379.7568)"><path d="m 0,0 v -0.029 c 0,0.004 0.014,0.015 0.014,0.021 z" style="fill:#f09814;fill-opacity:1;fill-rule:nonzero;stroke:none" id="path67"></path></g><g id="g69" transform="translate(326.3965,357.3662)"><path d="m 0,0 0.011,0.016 c 0,0 -0.011,-0.012 -0.022,-0.012 z" style="fill:#f09814;fill-opacity:1;fill-rule:nonzero;stroke:none" id="path71"></path></g><g id="g73" transform="translate(185.9956,490.5298)"><path d="m 0,0 c 19.361,-15.935 19.723,-31.424 19.723,-31.424 0,-0.255 -8.125,-46.499 -8.236,-47.099 -3.616,-15.25 -32.923,-42.01 -32.923,-42.01 9.918,3.385 78.119,27.238 107.724,27.791 2.933,-1.246 6.086,-2.229 9.434,-2.871 2.684,-0.537 5.468,-0.866 8.281,-0.998 3.909,-0.176 9.765,0.571 17.867,2.307 3.513,0.185 6.048,-0.18 6.902,-0.606 7.288,-3.683 17.971,-8.332 27.582,-9.689 4.925,-0.981 10.705,-1.701 17.625,-0.412 0,0 4.544,1.054 6.585,1.822 2.604,0.996 7.61,2.865 7.61,2.865 9.308,3.052 22.064,4.02 32.596,0.711 -14.099,8.564 -16.593,13.742 -14.099,25.351 2.422,11.204 -4.762,17.517 -4.762,17.517 16.495,37.437 46.911,40.296 46.911,40.296 -38.455,13.16 -58.637,4.629 -70.452,-0.447 -16.168,-6.948 -5.728,0.738 -5.728,0.738 -18.79,-6.501 -44.602,-20.712 -44.602,-20.712 0,0 -20.034,12.924 -41.427,10.463 11.337,-6.168 7.648,-8.891 -1.116,-4.618 0,0 -47.018,22.145 -85.495,31.025" style="fill:#231916;fill-opacity:1;fill-rule:nonzero;stroke:none" id="path75"></path></g><g id="g77" transform="translate(399.918,473.9463)"><path d="M 0,0 H 0.022 Z" style="fill:#231916;fill-opacity:1;fill-rule:nonzero;stroke:none" id="path79"></path></g></g></g><g id="g81"><g id="g83"><g id="g89"><g id="g91"><path d="m 212.931,459.889 c 0,0 -7.049,-42.268 -8.27,-49.592 v 0 c -1.949,-11.737 -15.594,-23.878 -18.455,-26.302 v 0 c 14.15,4.836 57.591,18.838 86.934,19.022 v 0 c 2.842,-1.309 6.013,-2.331 9.455,-3.01 v 0 c 2.386,-0.462 4.89,-0.77 7.504,-0.891 v 0 c 4.162,-0.195 11.009,1.004 16.955,2.283 v 0 c 2.294,0.149 7.195,0.264 9.991,-1.16 v 0 c 6.482,-3.268 16.987,-7.96 26.11,-9.185 v 0 c 6.574,-1.334 13.51,-1.797 22.155,1.348 v 0 c 8.801,3.233 15.92,9.591 19.77,17.719 v 0 c 4.002,8.455 2.512,14.481 -2.682,19.702 v 0 c -4.121,4.136 -9.595,5.883 -15.008,7.707 v 0 c -0.456,0.153 -6.223,2.232 -6.543,6.489 v 0 c -0.409,5.141 8.433,6.717 11.012,7.161 v 0 c 7.01,1.191 11.509,-1.632 16.005,-4.507 v 0 c 5.836,8.532 20.741,25.523 30.999,27.584 v 0 c -1.887,0.387 -7.001,1.592 -16.491,2.007 v 0 c -8.543,0.542 -18.388,-0.97 -27.244,-3.625 v 0 c -8.621,-2.587 -18.545,-7.034 -25.971,-13.122 v 0 c 0,0 -12.951,-10.431 -11.337,-26.116 v 0 c 0.765,-15.021 25.02,-14.755 20.37,-26.812 v 0 c -2.261,-5.811 -9.075,-6.572 -13.319,-6.043 v 0 c 0,0 -11.368,0.529 -12.822,9.941 v 0 c 0.837,11.711 2.194,28.926 2.845,37.208 v 0 c 0.023,0.007 0.042,0.031 0.042,0.031 v 0 c 0,9.227 12.856,17.249 12.856,17.249 v 0 c -27.887,-11.431 -31.685,-16.32 -31.685,-16.32 v 0 l -3.452,-41.823 c -2.321,1.151 -4.439,1.974 -4.439,5.571 v 0 l 1.76,17.325 -20.516,1.494 c 0,0 5.233,-2.428 4.484,-8.392 v 0 c 0,0 -1.58,-10.899 -2.022,-13.148 v 0 c -4.087,-0.079 -7.221,1.108 -9.334,3.534 v 0 c -3.893,4.457 -3.391,11.796 -2.736,15.778 v 0 c 0.867,5.298 3.102,9.433 6.474,11.997 v 0 c 3.167,2.39 7.213,3.319 12.012,2.733 v 0 c 6.649,-0.793 11.859,-6.874 11.859,-6.874 v 0 c 0,0 3.08,8.783 0.827,12.812 v 0 c -2.253,4.026 -26.401,10.548 -26.401,10.548 v 0 c 0,0 9.597,-3.947 2.518,-6.191 v 0 c -6.241,-0.916 -12.013,-3.203 -16.734,-6.768 v 0 c -3.313,-2.507 -5.954,-5.537 -7.899,-8.976 v 0 c -1.465,-0.721 -3.871,-1.639 -5.632,-0.95 v 0 l -17.748,3.022 1.752,16.078 14.674,-4.724 c 6.035,-2.953 3.908,-5.737 3.908,-5.737 v 0 l 9.694,8.463 c 0,0 -39.809,18.313 -66.885,25.476 v 0 c 0,0 12.527,-8.813 10.66,-20.014 m 25.074,-29.882 12.584,-0.962 c 5.695,-0.177 7.581,-2.998 8.196,-4.942 v 0 c -0.031,-3.443 0.609,-6.611 1.873,-9.429 v 0 c -1.138,-2.378 -3.634,-5.279 -9.063,-5.279 v 0 l -15.853,-0.24 z" style="fill:url(#linearGradient97);stroke:none" id="path99"></path></g></g></g></g><g id="g101"><g id="g103" clip-path="url(#clipPath107)"><g id="g109" transform="translate(207.6792,477.0864)"><path d="m 0,0 c 23.67,-7.005 53.889,-19.895 60.099,-22.706 -4.38,-2.76 -7.342,-6.815 -7.342,-6.815 -0.619,3.98 -5.933,5.682 -5.933,5.682 l -14.655,4.754 -2.03,-18.637 18.76,-3.198 c 0,0 5.351,-1.053 7.852,2.796 1.863,3.312 3.539,4.949 6.702,7.333 4.469,3.389 10.075,5.651 16.19,6.538 3.628,0.429 3.262,3.156 3.262,3.156 0,0.995 -1.032,2.034 -2.698,2.968 16.262,-4.394 22.592,-9.979 22.592,-9.979 l -0.959,-9.751 c 0,0 -4.427,4.812 -11.027,5.686 -5.132,0.614 -9.463,-0.392 -12.889,-2.977 -3.618,-2.734 -6.01,-7.14 -6.929,-12.741 -0.68,-4.19 -1.197,-11.941 3.016,-16.775 2.345,-2.689 5.795,-4.024 10.254,-3.942 l 0.964,0.019 0.182,0.941 c 0.449,2.267 1.973,12.778 2.04,13.231 0.044,0.349 0.066,0.688 0.066,1.021 0,2.518 -0.698,4.632 -2.195,6.051 5.463,-0.318 13.95,-1.024 15.661,-1.131 -0.217,-2.138 -1.481,-15.248 -1.481,-15.248 0,-3.479 2.815,-5.149 6.162,-6.774 0,0 3.825,40.383 3.909,41.428 1.552,1.116 7.406,5.695 23.779,12.913 -4.052,-3.541 -6.862,-7.517 -7.288,-13.203 l -2.872,-38.507 c 0,-8.845 12.956,-9.803 13.893,-9.868 5.501,-0.663 12.204,0.778 14.53,6.814 2.715,7.002 -2.533,10.447 -8.162,13.786 -5.56,3.279 -11.312,6.67 -11.647,13.503 -1.46,14.869 11.389,25.005 11.514,25.111 6.149,5.263 14.613,9.968 24.47,12.936 9.377,2.809 18.901,4.073 26.831,3.574 h 0.02 c 5.037,-0.22 8.801,-0.676 11.524,-1.088 -7.554,-2.898 -19.344,-13.363 -26.225,-24.838 -5.758,3.536 -10.238,4.758 -16.012,4.24 -2.782,-0.26 -11.505,-2.157 -12.817,-9.215 -0.846,-4.485 5.165,-6.543 8.826,-7.986 3.106,-1.229 10.17,-3.424 13.928,-7.206 5.223,-5.249 5.979,-10.911 2.459,-18.347 -3.742,-7.885 -10.517,-13.972 -19.111,-17.113 -8.798,-3.193 -15.805,-2.447 -21.496,-1.303 l -0.043,0.002 -0.037,0.01 c -8.766,1.179 -18.836,5.583 -25.726,9.068 -3.006,1.53 -7.94,1.461 -10.619,1.287 l -0.082,-0.007 -0.085,-0.014 c -7.575,-1.63 -13.333,-2.412 -16.653,-2.26 -2.485,0.129 -4.95,0.412 -7.324,0.878 -3.323,0.657 -6.41,1.632 -9.18,2.92 l -0.243,0.116 h -0.264 c -26.532,-0.169 -64.822,-11.685 -82.023,-17.318 5.249,5.139 13.23,14.233 14.73,23.193 l 8.264,49.595 C 8.043,-9.095 0,0 0,0 m 103.16,-44.457 1.872,17.087 c -14.388,11.336 -33.037,12.34 -33.037,12.34 9.407,-3.991 8.532,-6.057 8.532,-6.067 -0.014,-0.102 -0.134,-0.696 -1.376,-0.82 -12.654,-1.101 -21.136,-8.894 -23.559,-13.509 -2.152,-3.876 -6.081,-3.185 -6.081,-3.185 0,0 -14.801,2.535 -16.749,2.868 0.184,1.747 1.221,11.276 1.466,13.495 2.279,-0.733 11.855,-3.708 11.855,-3.708 6.302,-1.96 5.841,-9.45 5.841,-9.45 5.231,8.991 13.349,12.888 13.349,12.888 -0.399,0.191 -44.536,20.398 -73.056,27.273 0,0 11.073,-11.048 10.44,-21.76 l -8.258,-49.59 c 0,0 -3.555,-16.621 -21.428,-29.684 12.844,4.397 62.86,20.754 92.265,21.018 2.867,-1.307 6.045,-2.317 9.448,-2.987 2.49,-0.48 5.076,-0.793 7.677,-0.912 3.56,-0.165 9.334,0.608 17.165,2.285 2,0.118 6.748,0.26 9.304,-1.033 7.045,-3.562 17.351,-8.078 26.427,-9.304 6.022,-1.213 12.753,-1.998 22.554,1.4 9.631,3.365 17.242,9.872 21.439,18.328 4.162,8.373 3.191,15.081 -3.051,21.067 -4.361,4.179 -13.563,7.189 -15.502,7.931 -2.558,0.98 -7.57,2.017 -6.634,5.868 0.977,4.048 6.634,6.094 10.588,6.146 7.387,0.085 11.883,-2.477 16.258,-6.729 6.133,13.75 24.865,28.469 33.605,30.223 -8.039,2.678 -19.751,3.361 -19.751,3.361 -8.207,0.202 -18.023,-0.791 -27.657,-3.687 -5.972,-1.795 -16.564,-5.908 -25.223,-13.335 -0.528,-0.404 -13.984,-10.997 -12.391,-27.176 0.397,-8.084 6.982,-11.983 12.793,-15.407 6.237,-3.68 8.97,-5.996 7.109,-10.85 -2.385,-6.144 -10.462,-5.481 -12.058,-5.274 h -0.042 -0.052 c -0.417,0.012 -11.673,0.703 -11.673,7.774 0.836,11.498 2.838,38.122 2.838,38.122 0,0 0.725,9.34 14.755,19.541 -24.514,-9.355 -35.888,-17.924 -35.888,-17.924 0,0 -3.041,-35.069 -3.33,-38.64 -2.159,0.893 -2.154,3.415 -2.159,5.368 0.016,0.193 1.827,14.874 1.827,14.874 l -23.837,1.18 c 0.237,-0.068 5.35,-3.96 5.35,-8.325 0,-0.235 -0.01,-0.48 -0.043,-0.723 -0.016,-0.074 -1.257,-8.645 -1.832,-12.067 -3.229,0.127 -5.747,1.129 -7.442,3.075 -2.26,2.595 -2.889,6.336 -2.889,9.684 0,1.935 0.21,3.747 0.436,5.127 0.816,4.978 2.895,8.872 6.015,11.23 2.904,2.2 6.662,3.046 11.151,2.504 0,0 10.993,-1.823 12.639,-9.911" style="fill:#ffffff;fill-opacity:1;fill-rule:nonzero;stroke:none" id="path111"></path></g><g id="g113" transform="translate(239.0728,428.7432)"><path d="m 0,0 c 1.903,-0.158 11.419,-0.886 11.419,-0.886 4.762,-0.163 6.485,-2.217 7.096,-3.969 0.011,-3.286 0.614,-6.344 1.754,-9.125 -1.494,-2.756 -4.088,-4.17 -7.747,-4.17 0,0 -12.257,-0.186 -14.517,-0.219 C -1.756,-16.156 -0.209,-1.919 0,0 m -2.253,1.405 -2.411,-22.2 17.2,0.264 -0.014,-0.015 c 6.038,0 8.843,3.235 10.142,5.954 l 0.243,0.493 -0.233,0.505 c -1.202,2.674 -1.796,5.682 -1.759,8.942 v 0.196 l -0.064,0.176 c -0.663,2.069 -2.745,5.562 -9.298,5.774 0.053,0 -12.528,0.96 -12.528,0.96 l -1.151,0.097 z" style="fill:#ffffff;fill-opacity:1;fill-rule:nonzero;stroke:none" id="path115"></path></g><g id="g117" transform="translate(257.8081,424.1987)"><path d="m 0,0 c 0,0 -1.789,-13.606 12.054,-16.475 0,0 -8.561,2.519 -9.875,16.367" style="fill:#ffffff;fill-opacity:1;fill-rule:nonzero;stroke:none" id="path119"></path></g><g id="g121" transform="translate(338.6064,403.0313)"><path d="m 0,0 c 0,0 -12.669,4.394 -15.989,10.401 0,0 2.698,-9.228 15.783,-12.761 z" style="fill:#ffffff;fill-opacity:1;fill-rule:nonzero;stroke:none" id="path123"></path></g><g id="g125" transform="translate(340.9893,472.0508)"><path d="m 0,0 c 1.741,0 3.447,1.416 3.795,3.164 l 7.448,40.183 c 0.357,1.734 -0.771,3.152 -2.36,3.152 h -81.904 c -1.89,0 -3.587,-1.418 -3.954,-3.152 L -85.156,3.164 C -85.521,1.416 -84.386,0 -82.646,0 Z" style="fill:#044196;fill-opacity:1;fill-rule:nonzero;stroke:none" id="path127"></path></g><g id="g129" transform="translate(294.0557,502.0098)"><path d="m 0,0 -3.181,-15.483 c 0,0 -2.159,-8.905 9.576,-8.905 0,0 10.31,-0.356 13.162,7.849 l 0.94,4.584 h -8.045 l -0.745,-3.642 c 0,0 -0.79,-3.041 -4.094,-2.817 0,0 -3.423,-0.35 -2.669,2.463 L 8.208,0 c 0,0 0.09,2.643 3.785,2.931 0,0 3.345,0 2.988,-2.575 L 14.16,-3.635 h 8.042 l 0.819,3.991 c 0,0 1.583,8.562 -9.862,8.326 C 13.159,8.682 2.176,8.214 0,0" style="fill:#ffffff;fill-opacity:1;fill-rule:nonzero;stroke:none" id="path131"></path></g><g id="g133" transform="translate(318.5488,502.0098)"><path d="m 0,0 -3.18,-15.483 c 0,0 -2.163,-8.905 9.569,-8.905 0,0 10.31,-0.356 13.168,7.849 l 0.937,4.584 h -8.051 l -0.736,-3.642 c 0,0 -0.802,-3.041 -4.096,-2.817 0,0 -3.421,-0.35 -2.682,2.463 L 8.203,0 c 0,0 0.089,2.643 3.784,2.931 0,0 3.349,0 2.988,-2.575 l -0.811,-3.991 h 8.04 l 0.811,3.991 c 0,0 1.588,8.562 -9.854,8.326 C 13.161,8.682 2.178,8.214 0,0" style="fill:#ffffff;fill-opacity:1;fill-rule:nonzero;stroke:none" id="path135"></path></g><g id="g137" transform="translate(305.1699,518.4438)"><path d="m 0,0 h -9.316 l -16.436,-17.917 2.616,11.678 -8.494,0.009 -7.269,-33.765 h 8.492 l 1.965,9.421 2.192,2.532 2.924,-11.953 h 8.42 l -4.882,18.376 z" style="fill:#ffffff;fill-opacity:1;fill-rule:nonzero;stroke:none" id="path139"></path></g><g id="g141" transform="translate(311.3086,525.146)"><path d="m 0,0 h -9.338 l -6.117,-6.702 h 9.301 z" style="fill:#e52020;fill-opacity:1;fill-rule:nonzero;stroke:none" id="path143"></path></g><g id="g145" transform="translate(259.9722,422.3101)"><path d="M 0,0 C 0,0 -0.439,10.617 6.336,19.6 L 5.597,21.804 3.096,19.012 C -0.145,14 -2.322,13.585 -2.5,2.431 Z" style="fill:#ffffff;fill-opacity:1;fill-rule:nonzero;stroke:none" id="path147"></path></g><g id="g149" transform="translate(264.395,443.519)"><path d="m 0,0 c 0,0 -8.298,-8.298 -6.729,-21.986 l 1.913,0.382 c 0,0 -0.922,13.41 7.022,20.923 z" style="fill:#ffffff;fill-opacity:1;fill-rule:nonzero;stroke:none" id="path151"></path></g><g id="g153" transform="translate(259.5327,441.6606)"><path d="m 0,0 c 0,0 -4.374,-4.77 -4.664,-17.338 l 2.547,-0.247 c 0,0 -0.189,9.146 5.007,17.139 z" style="fill:#231916;fill-opacity:1;fill-rule:nonzero;stroke:none" id="path155"></path></g><g id="g157" transform="translate(258.0615,439.2539)"><path d="m 0,0 c 0,0 -2.438,-4.445 -3.225,-13.576 0,0 -0.309,1.494 -2.618,2.058 0,0 1.474,7.002 3.238,10.977 0,0 1.448,-0.171 2.605,0.541" style="fill:#ffffff;fill-opacity:1;fill-rule:nonzero;stroke:none" id="path159"></path></g><g id="g161" transform="translate(252.7144,436.7842)"><path d="m 0,0 c 0,0 1.532,-0.327 2.376,0.08 0,0 -1.126,-2.819 -1.624,-7.249 0,0 -0.501,0.622 -2.565,0.69 z" style="fill:#0081c4;fill-opacity:1;fill-rule:nonzero;stroke:none" id="path163"></path></g><g id="g165" transform="translate(364.7783,318.4463)"><path d="M 0,0 C 1.527,0 2.775,1.266 2.775,2.803 2.775,4.406 1.582,5.65 0.093,5.65 -1.437,5.65 -2.692,4.428 -2.692,2.803 -2.692,1.285 -1.437,0 0,0 m 0.093,8.738 c 3.388,0 6.275,-2.67 6.275,-5.935 0,-3.176 -2.887,-5.883 -6.275,-5.883 -3.371,0 -6.293,2.707 -6.293,5.883 0,3.265 2.922,5.935 6.293,5.935 m -1.823,5.955 h -5.979 v 9.52 H -4.04 V 17.836 H 7.507 V 14.693 H 1.744 v -2.539 h 9.562 v -3.14 h -22.641 v 3.14 h 9.605 z" style="fill:#231916;fill-opacity:1;fill-rule:nonzero;stroke:none" id="path167"></path></g><g id="g169" transform="translate(393.0742,330.2373)"><path d="m 0,0 v 8.4 h -10.61 v 3.258 H 3.688 V -0.334 M 2.619,0.855 H 7.643 V -2.324 H -1.47 v -11.424 h -3.712 v 11.424 h -9.275 v 3.179 h 13.603" style="fill:#231916;fill-opacity:1;fill-rule:nonzero;stroke:none" id="path171"></path></g><g id="g173" transform="translate(418.4707,332.0557)"><path d="m 0,0 v -3.084 c -2.558,-0.207 -8.279,-0.711 -9.911,-0.711 l -4.84,-0.021 V 9.826 H -3.787 V 6.563 h -7.403 v -7.204 l 1.706,0.03 C -7.425,-0.586 -3.278,-0.24 0,0 m -10.523,-6.578 h 3.556 v -5.565 H 3.325 v -3.236 H -10.523 Z M 3.349,4.014 H 6.741 V 0.756 H 3.349 v -13.953 h -3.53 V 9.84 h 3.53 z" style="fill:#231916;fill-opacity:1;fill-rule:nonzero;stroke:none" id="path175"></path></g><g id="g177" transform="translate(420.1807,341.8955)"><path d="m 0,0 h 0.862 v -1.793 c 0,0 0.195,1.272 -0.862,1.793" style="fill:#231916;fill-opacity:1;fill-rule:nonzero;stroke:none" id="path179"></path></g><path d="m 277.477,325.687 h 21.707 v -3.256 h -21.707 z m 20.148,6.687 -1.714,-2.768 c -1.463,0.381 -3.492,1.194 -4.801,2.127 -1.202,0.909 -2.249,1.954 -2.779,2.862 -0.457,-0.815 -1.361,-1.699 -2.461,-2.514 -1.363,-1.047 -3.53,-1.949 -5.204,-2.418 l -1.74,2.647 c 2.272,0.847 4.867,2.13 5.955,3.654 0.932,1.299 1.5,2.83 1.5,4.73 v 1.692 h 3.786 v -1.692 c 0,-2.095 0.674,-3.748 1.77,-5.027 1.178,-1.367 3.47,-2.51 5.688,-3.293" style="fill:#231916;fill-opacity:1;fill-rule:nonzero;stroke:none" id="path181"></path><path d="m 248.151,341.896 h 3.55 v -24.795 h -3.55 z m -6.067,-6.87 c 0,2.125 -1.34,3.875 -3.023,3.875 -1.71,0 -3.021,-1.75 -3.021,-3.875 0,-2.066 1.311,-3.879 3.021,-3.879 1.683,0 3.023,1.813 3.023,3.879 m -9.6,0 c 0,3.961 2.916,7.219 6.577,7.219 3.693,0 6.603,-3.258 6.603,-7.219 0,-3.964 -2.91,-7.226 -6.603,-7.226 -3.661,0 -6.577,3.262 -6.577,7.226" style="fill:#231916;fill-opacity:1;fill-rule:nonzero;stroke:none" id="path183"></path><path d="m 270.611,341.896 h 3.494 v -24.795 h -3.494 z m -10.268,-2.893 h -4.349 v 2.914 h 12.328 v -2.914 h -4.457 c 0.11,-1.674 0.448,-4.701 1.085,-5.908 0.743,-1.426 2.425,-3.155 4.605,-4.467 l -1.915,-2.279 c -0.978,0.517 -2.006,1.242 -2.928,2.07 -1.025,0.898 -1.92,1.855 -2.56,2.682 -0.491,-0.745 -1.393,-1.723 -2.362,-2.633 -1.086,-1.008 -2.291,-1.91 -3.215,-2.42 l -2.074,2.24 c 1.946,1.24 4.073,3.281 4.915,4.936 0.719,1.314 0.897,4.257 0.927,5.779" style="fill:#231916;fill-opacity:1;fill-rule:nonzero;stroke:none" id="path185"></path><g id="g187" transform="translate(255.8071,341.8955)"><path d="M 0,0 H 0.857 L 1.21,-0.566 0.857,-1.793 c 0,0 0.194,1.272 -0.857,1.793" style="fill:#231916;fill-opacity:1;fill-rule:nonzero;stroke:none" id="path189"></path></g><path d="m 302.804,325.532 h 21.703 v -3.338 h -21.703 z m 12.93,13.362 h -4.376 l 0.061,-5.893 h 4.241 z m 3.346,0 -0.088,-5.893 h 2.998 l 0.123,-3.082 h -16.859 l -0.134,3.082 h 2.929 l -0.045,5.893 h -2.611 v 3.214 h 16.264 v -3.214 z" style="fill:#231916;fill-opacity:1;fill-rule:nonzero;stroke:none" id="path191"></path><g id="g193" transform="translate(337.6416,327.9287)"><path d="M 0,0 H -6.269 V 8.686 H 5.727 v 2.265 H -6.269 v 3.213 H 9.463 v -8.6 H -2.561 V 3.24 H 9.975 V 0 H 3.741 v -2.531 h 9.577 V -5.773 H -9.686 v 3.242 H 0 Z" style="fill:#231916;fill-opacity:1;fill-rule:nonzero;stroke:none" id="path195"></path></g><g id="g197" transform="translate(186.9966,317.8096)"></g><g id="g199" transform="translate(195.5176,329.9443)"><path d="m 0,0 c 0,-2.332 0.304,-4.197 0.919,-5.584 0.701,-1.607 1.76,-2.414 3.173,-2.414 1.334,0 2.347,0.707 3.042,2.111 0.546,1.084 0.813,2.336 0.813,3.764 h 4.631 c 0,-3.176 -0.886,-5.738 -2.651,-7.678 -1.569,-1.762 -3.445,-2.638 -5.622,-2.638 -2.593,0 -4.696,1.066 -6.323,3.195 -1.74,2.271 -2.612,5.353 -2.612,9.23 0,3.266 0.61,6.02 1.835,8.262 1.568,2.85 3.899,4.277 6.988,4.277 2.689,0 4.738,-0.857 6.15,-2.58 1.286,-1.57 1.936,-3.664 1.936,-6.283 H 7.748 C 7.748,4.889 7.433,5.947 6.82,6.832 6.123,7.789 5.246,8.266 4.198,8.266 2.765,8.266 1.684,7.369 0.95,5.582 0.316,4.082 0,2.223 0,0" style="fill:#231916;fill-opacity:1;fill-rule:nonzero;stroke:none" id="path201"></path></g><g id="g203" transform="translate(216.0591,329.9443)"><path d="m 0,0 c 0,-2.332 0.309,-4.197 0.931,-5.584 0.694,-1.607 1.75,-2.414 3.166,-2.414 1.336,0 2.35,0.707 3.043,2.111 0.545,1.084 0.811,2.336 0.811,3.764 h 4.628 c 0,-3.176 -0.881,-5.738 -2.654,-7.678 -1.564,-1.762 -3.437,-2.638 -5.612,-2.638 -2.587,0 -4.696,1.066 -6.321,3.195 -1.747,2.271 -2.619,5.353 -2.619,9.23 0,3.266 0.612,6.02 1.845,8.262 1.562,2.85 3.886,4.277 6.982,4.277 2.693,0 4.743,-0.857 6.147,-2.58 1.289,-1.57 1.932,-3.664 1.932,-6.283 H 7.754 C 7.754,4.889 7.442,5.947 6.83,6.832 6.132,7.789 5.259,8.266 4.206,8.266 2.774,8.266 1.689,7.369 0.951,5.582 0.325,4.082 0,2.223 0,0" style="fill:#231916;fill-opacity:1;fill-rule:nonzero;stroke:none" id="path205"></path></g><g id="g207" transform="translate(184.2622,342.2021)"><path d="m 0,0 h 5.081 l -6.182,-10.875 6.182,-13.359 h -5.204 l -5.295,12.418 H -5.477 V -24.234 H -10.1 V 0 h 4.623 v -10.369 h 0.059 z" style="fill:#231916;fill-opacity:1;fill-rule:nonzero;stroke:none" id="path209"></path></g><g id="g211" transform="translate(178.0317,308.9854)"><path d="M 0,0 -1.802,-3.684 0.31,-8.566 h -1.272 l -1.487,3.683 -0.355,-0.945 V -8.566 H -3.87 V 0 h 1.066 V -3.299 L -1.301,0 Z" style="fill:#231916;fill-opacity:1;fill-rule:nonzero;stroke:none" id="path213"></path></g><g id="g215" transform="translate(187.6758,305.8955)"><path d="m 0,0 h -1.079 v 1.102 c 0,0.294 -0.074,0.537 -0.223,0.718 -0.169,0.211 -0.416,0.317 -0.739,0.317 -0.312,0 -0.554,-0.119 -0.723,-0.356 -0.174,-0.242 -0.261,-0.58 -0.261,-1.013 v -3.971 c 0,-0.414 0.087,-0.746 0.261,-0.994 0.18,-0.258 0.421,-0.387 0.723,-0.387 0.303,0 0.539,0.127 0.708,0.377 0.17,0.256 0.254,0.617 0.254,1.082 v 0.787 H 0 v -0.344 c 0,-0.933 -0.132,-1.631 -0.394,-2.097 -0.317,-0.584 -0.861,-0.875 -1.631,-0.875 -0.806,0 -1.368,0.289 -1.685,0.865 -0.263,0.48 -0.393,1.266 -0.393,2.353 v 2.502 c 0,1.024 0.13,1.786 0.393,2.284 0.323,0.611 0.867,0.916 1.631,0.916 0.755,0 1.304,-0.248 1.648,-0.746 C -0.144,2.113 0,1.543 0,0.807 Z" style="fill:#231916;fill-opacity:1;fill-rule:nonzero;stroke:none" id="path217"></path></g><g id="g219" transform="translate(197.3398,305.8955)"><path d="m 0,0 h -1.079 v 1.102 c 0,0.294 -0.074,0.537 -0.222,0.718 -0.17,0.211 -0.416,0.317 -0.739,0.317 -0.313,0 -0.554,-0.119 -0.723,-0.356 -0.175,-0.242 -0.262,-0.58 -0.262,-1.013 v -3.971 c 0,-0.414 0.087,-0.746 0.262,-0.994 0.18,-0.258 0.421,-0.387 0.723,-0.387 0.303,0 0.538,0.127 0.708,0.377 0.169,0.256 0.253,0.617 0.253,1.082 v 0.787 H 0 v -0.344 c 0,-0.933 -0.131,-1.631 -0.392,-2.097 -0.318,-0.584 -0.862,-0.875 -1.632,-0.875 -0.806,0 -1.368,0.289 -1.687,0.865 -0.261,0.48 -0.392,1.266 -0.392,2.353 v 2.502 c 0,1.024 0.131,1.786 0.392,2.284 0.324,0.611 0.868,0.916 1.632,0.916 0.755,0 1.305,-0.248 1.648,-0.746 C -0.144,2.113 0,1.543 0,0.807 Z" style="fill:#231916;fill-opacity:1;fill-rule:nonzero;stroke:none" id="path221"></path></g><g id="g223" transform="translate(210.2061,308.9814)"><path d="M 0,0 H 2.951 V -1.123 H 1.079 V -3.598 H 2.835 V -4.67 H 1.079 V -7.42 H 3.012 V -8.563 H 0 Z" style="fill:#231916;fill-opacity:1;fill-rule:nonzero;stroke:none" id="path225"></path></g><g id="g227" transform="translate(222.752,305.835)"><path d="m 0,0 h -1.079 v 0.77 0.109 c 0,0.418 -0.04,0.713 -0.122,0.885 -0.149,0.289 -0.448,0.433 -0.9,0.433 -0.302,0 -0.54,-0.148 -0.714,-0.443 C -2.959,1.51 -3.031,1.234 -3.031,0.926 v -4.137 c 0,-0.381 0.087,-0.693 0.262,-0.935 0.175,-0.25 0.401,-0.377 0.678,-0.377 0.319,0 0.558,0.132 0.716,0.394 0.149,0.238 0.225,0.57 0.225,0.998 v 1.033 h -0.794 v 1.141 h 1.872 v -4.459 h -0.986 l -0.131,0.434 c -0.175,-0.192 -0.35,-0.336 -0.524,-0.434 -0.21,-0.119 -0.444,-0.178 -0.701,-0.178 -0.678,0 -1.144,0.289 -1.395,0.865 -0.2,0.461 -0.3,1.213 -0.3,2.256 v 2.539 c 0,1.071 0.113,1.846 0.339,2.325 0.297,0.623 0.841,0.935 1.631,0.935 0.738,0 1.288,-0.265 1.647,-0.795 C -0.164,2.039 0,1.316 0,0.365 Z" style="fill:#231916;fill-opacity:1;fill-rule:nonzero;stroke:none" id="path229"></path></g><path d="m 229.412,300.419 h -1.105 v 8.566 h 1.105 z" style="fill:#231916;fill-opacity:1;fill-rule:nonzero;stroke:none" id="path231"></path><g id="g233" transform="translate(238.6963,306.3955)"><path d="m 0,0 h -1.105 v 0.768 c 0,0.341 -0.043,0.576 -0.13,0.701 -0.114,0.162 -0.336,0.244 -0.665,0.244 -0.356,0 -0.595,-0.09 -0.72,-0.266 -0.087,-0.138 -0.13,-0.384 -0.13,-0.738 0,-0.184 0.004,-0.316 0.015,-0.395 0.02,-0.111 0.059,-0.212 0.115,-0.304 0.061,-0.092 0.162,-0.194 0.301,-0.305 0.113,-0.1 0.298,-0.24 0.554,-0.424 l 0.347,-0.246 c 0.36,-0.262 0.609,-0.453 0.748,-0.572 0.211,-0.182 0.369,-0.361 0.477,-0.531 0.119,-0.19 0.203,-0.42 0.255,-0.688 0.05,-0.264 0.077,-0.609 0.077,-1.035 0,-0.814 -0.155,-1.404 -0.463,-1.773 -0.323,-0.395 -0.852,-0.59 -1.587,-0.59 -0.724,0 -1.232,0.177 -1.524,0.531 -0.24,0.279 -0.361,0.732 -0.361,1.348 v 1.152 h 1.091 v -0.926 c 0,-0.361 0.043,-0.611 0.131,-0.748 0.119,-0.191 0.349,-0.287 0.694,-0.287 0.359,0 0.609,0.107 0.747,0.316 0.113,0.164 0.17,0.414 0.17,0.748 0,0.415 -0.08,0.749 -0.239,1.006 -0.19,0.301 -0.583,0.676 -1.179,1.121 -0.579,0.44 -0.952,0.782 -1.115,1.026 -0.231,0.347 -0.346,0.836 -0.346,1.465 0,0.724 0.154,1.265 0.463,1.625 0.319,0.363 0.796,0.543 1.435,0.543 0.657,0 1.154,-0.12 1.488,-0.356 C -0.152,2.195 0,1.893 0,1.508 Z" style="fill:#231916;fill-opacity:1;fill-rule:nonzero;stroke:none" id="path235"></path></g><g id="g237" transform="translate(252.7363,304.9873)"><path d="m 0,0 h 0.825 c 0.19,0 0.342,0.063 0.455,0.188 0.133,0.144 0.2,0.365 0.2,0.658 V 2.068 C 1.48,2.357 1.413,2.57 1.28,2.707 1.172,2.826 1.03,2.885 0.855,2.885 H 0 Z M -1.078,3.994 H 1.05 c 0.503,0 0.881,-0.133 1.134,-0.402 0.266,-0.289 0.4,-0.733 0.4,-1.328 V 0.846 C 2.584,0.137 2.465,-0.369 2.229,-0.668 1.993,-0.971 1.597,-1.123 1.042,-1.123 H 0 v -3.445 h -1.078 z" style="fill:#231916;fill-opacity:1;fill-rule:nonzero;stroke:none" id="path239"></path></g><g id="g241" transform="translate(261.7642,305.4912)"><path d="M 0,0 H 0.177 C 0.577,0 0.844,0.004 0.978,0.012 1.177,0.023 1.324,0.047 1.417,0.08 1.509,0.119 1.57,0.184 1.601,0.268 1.627,0.338 1.64,0.461 1.64,0.631 V 1.773 C 1.64,1.957 1.625,2.086 1.593,2.158 1.563,2.242 1.496,2.305 1.394,2.346 1.296,2.385 1.134,2.406 0.909,2.414 0.754,2.42 0.452,2.424 0,2.424 Z m -1.078,3.498 h 1.656 c 0.735,0 1.267,-0.09 1.595,-0.268 0.381,-0.209 0.57,-0.576 0.57,-1.101 V 0.967 C 2.743,0.482 2.693,0.137 2.59,-0.066 2.456,-0.33 2.189,-0.508 1.788,-0.598 2.019,-0.717 2.201,-0.846 2.335,-0.982 2.464,-1.113 2.558,-1.266 2.62,-1.436 2.676,-1.578 2.713,-1.762 2.728,-1.977 2.739,-2.109 2.743,-2.332 2.743,-2.646 V -2.814 -5.068 H 1.649 v 2.992 0.049 c 0,0.222 -0.01,0.379 -0.03,0.463 C 1.593,-1.432 1.534,-1.33 1.441,-1.258 1.338,-1.188 1.176,-1.135 0.956,-1.1 0.729,-1.068 0.411,-1.053 0,-1.053 v -4.015 h -1.078 z" style="fill:#231916;fill-opacity:1;fill-rule:nonzero;stroke:none" id="path243"></path></g><g id="g245" transform="translate(272.8457,306.7881)"><path d="M 0,0 C 0,0.334 -0.074,0.613 -0.223,0.836 -0.392,1.1 -0.627,1.23 -0.931,1.23 -1.249,1.23 -1.492,1.094 -1.662,0.818 -1.799,0.596 -1.87,0.322 -1.87,0 v -4.006 c 0,-0.361 0.067,-0.67 0.201,-0.926 0.163,-0.328 0.41,-0.492 0.738,-0.492 0.349,0 0.6,0.164 0.755,0.492 C -0.059,-4.688 0,-4.367 0,-3.967 Z M 1.072,-3.611 C 1.067,-4.451 0.964,-5.09 0.765,-5.531 0.45,-6.199 -0.116,-6.533 -0.938,-6.533 c -0.832,0 -1.401,0.334 -1.709,1.002 -0.201,0.427 -0.301,1.066 -0.301,1.92 v 3.16 c -0.005,0.799 0.096,1.412 0.301,1.84 0.308,0.658 0.877,0.984 1.709,0.984 0.816,0 1.384,-0.326 1.703,-0.984 0.204,-0.434 0.307,-1.047 0.307,-1.84 z" style="fill:#231916;fill-opacity:1;fill-rule:nonzero;stroke:none" id="path247"></path></g><g id="g249" transform="translate(287.8047,301.5322)"><path d="m 0,0 0.294,0.01 c 0.411,0 0.69,0.008 0.834,0.019 0.217,0.02 0.376,0.063 0.48,0.129 0.114,0.065 0.19,0.174 0.231,0.324 0.042,0.131 0.063,0.338 0.063,0.622 V 1.91 C 1.902,2.172 1.881,2.367 1.839,2.492 1.793,2.629 1.708,2.729 1.585,2.787 1.466,2.846 1.278,2.881 1.021,2.895 0.855,2.908 0.532,2.916 0.046,2.916 H 0 Z m 0,3.928 c 0.103,0.013 0.214,0.019 0.332,0.019 h 0.5 c 0.231,0 0.401,0.018 0.509,0.049 0.128,0.033 0.221,0.098 0.278,0.19 0.056,0.089 0.094,0.232 0.115,0.421 0.015,0.151 0.025,0.405 0.03,0.76 0,0.274 -0.02,0.475 -0.061,0.6 C 1.663,6.111 1.588,6.215 1.479,6.283 1.371,6.34 1.208,6.379 0.986,6.4 0.837,6.412 0.553,6.42 0.131,6.42 H 0 Z M -1.078,7.453 H 1.098 C 1.792,7.453 2.259,7.334 2.501,7.098 2.732,6.863 2.849,6.41 2.849,5.74 V 5.021 C 2.849,4.521 2.788,4.176 2.67,3.979 2.552,3.781 2.308,3.627 1.938,3.516 2.339,3.404 2.614,3.209 2.764,2.934 2.912,2.678 2.986,2.266 2.986,1.693 V 0.887 C 2.986,0.059 2.853,-0.486 2.585,-0.748 2.343,-0.99 1.863,-1.113 1.143,-1.113 h -2.221 z" style="fill:#231916;fill-opacity:1;fill-rule:nonzero;stroke:none" id="path251"></path></g><g id="g253" transform="translate(297.7036,303.7881)"><path d="M 0,0 H 1.094 L 0.556,3.674 Z M 1.357,5.197 2.714,-3.369 H 1.627 L 1.28,-1.174 h -1.465 l -0.338,-2.195 h -1.094 l 1.355,8.566 z" style="fill:#231916;fill-opacity:1;fill-rule:nonzero;stroke:none" id="path255"></path></g><g id="g257" transform="translate(309.4199,306.3955)"><path d="m 0,0 h -1.104 v 0.768 c 0,0.341 -0.043,0.576 -0.132,0.701 C -1.35,1.631 -1.569,1.713 -1.9,1.713 -2.256,1.713 -2.496,1.623 -2.618,1.447 -2.706,1.309 -2.75,1.063 -2.75,0.709 c 0,-0.184 0.004,-0.316 0.016,-0.395 0.019,-0.111 0.058,-0.212 0.115,-0.304 0.061,-0.092 0.162,-0.194 0.301,-0.305 0.112,-0.1 0.297,-0.24 0.554,-0.424 l 0.346,-0.246 c 0.36,-0.262 0.609,-0.453 0.747,-0.572 0.212,-0.182 0.371,-0.361 0.48,-0.531 0.117,-0.19 0.202,-0.42 0.253,-0.688 0.051,-0.264 0.077,-0.609 0.077,-1.035 0,-0.814 -0.155,-1.404 -0.462,-1.773 -0.323,-0.395 -0.854,-0.59 -1.587,-0.59 -0.724,0 -1.232,0.177 -1.525,0.531 -0.24,0.279 -0.36,0.732 -0.36,1.348 v 1.152 h 1.092 v -0.926 c 0,-0.361 0.043,-0.611 0.131,-0.748 0.117,-0.191 0.349,-0.287 0.692,-0.287 0.36,0 0.609,0.107 0.747,0.316 0.113,0.164 0.17,0.414 0.17,0.748 0,0.415 -0.079,0.749 -0.238,1.006 -0.19,0.301 -0.583,0.676 -1.18,1.121 -0.578,0.44 -0.951,0.782 -1.115,1.026 -0.23,0.347 -0.346,0.836 -0.346,1.465 0,0.724 0.154,1.265 0.463,1.625 0.319,0.363 0.798,0.543 1.435,0.543 0.658,0 1.155,-0.12 1.49,-0.356 C -0.152,2.195 0,1.893 0,1.508 Z" style="fill:#231916;fill-opacity:1;fill-rule:nonzero;stroke:none" id="path259"></path></g><g id="g261" transform="translate(318.834,308.9854)"><path d="m 0,0 -1.805,-3.684 2.113,-4.882 h -1.272 l -1.487,3.683 -0.355,-0.945 V -8.566 H -3.871 V 0 h 1.065 V -3.299 L -1.303,0 Z" style="fill:#231916;fill-opacity:1;fill-rule:nonzero;stroke:none" id="path263"></path></g><g id="g265" transform="translate(324.3145,308.9814)"><path d="M 0,0 H 2.951 V -1.123 H 1.08 V -3.598 H 2.837 V -4.67 H 1.08 V -7.42 H 3.014 V -8.563 H 0 Z" style="fill:#231916;fill-opacity:1;fill-rule:nonzero;stroke:none" id="path267"></path></g><g id="g269" transform="translate(336.1641,308.9814)"><path d="m 0,0 v -1.109 h -1.472 v -7.454 h -1.103 v 7.454 H -3.8 L -3.8,0 Z" style="fill:#231916;fill-opacity:1;fill-rule:nonzero;stroke:none" id="path271"></path></g><g id="g273" transform="translate(349.8584,301.5322)"><path d="m 0,0 0.294,0.01 c 0.412,0 0.69,0.008 0.835,0.019 0.216,0.02 0.376,0.063 0.477,0.129 C 1.722,0.223 1.798,0.332 1.84,0.482 1.881,0.613 1.901,0.82 1.901,1.104 V 1.91 C 1.901,2.172 1.881,2.367 1.84,2.492 1.793,2.629 1.708,2.729 1.585,2.787 1.465,2.846 1.277,2.881 1.02,2.895 0.855,2.908 0.53,2.916 0.046,2.916 H 0 Z m 0,3.928 c 0.103,0.013 0.214,0.019 0.331,0.019 h 0.502 c 0.23,0 0.399,0.018 0.507,0.049 0.129,0.033 0.222,0.098 0.278,0.19 0.057,0.089 0.095,0.232 0.115,0.421 0.015,0.151 0.026,0.405 0.032,0.76 0,0.274 -0.021,0.475 -0.062,0.6 C 1.662,6.111 1.587,6.215 1.479,6.283 1.371,6.34 1.207,6.379 0.986,6.4 0.837,6.412 0.553,6.42 0.132,6.42 H 0 Z M -1.077,7.453 H 1.097 C 1.791,7.453 2.258,7.334 2.501,7.098 2.731,6.863 2.848,6.41 2.848,5.74 V 5.021 C 2.848,4.521 2.789,4.176 2.67,3.979 2.552,3.781 2.308,3.627 1.938,3.516 2.338,3.404 2.613,3.209 2.763,2.934 2.912,2.678 2.986,2.266 2.986,1.693 V 0.887 C 2.986,0.059 2.854,-0.486 2.585,-0.748 2.343,-0.99 1.862,-1.113 1.143,-1.113 h -2.22 z" style="fill:#231916;fill-opacity:1;fill-rule:nonzero;stroke:none" id="path275"></path></g><g id="g277" transform="translate(359.7568,303.7881)"><path d="M 0,0 H 1.095 L 0.556,3.674 Z M 1.356,5.197 2.713,-3.369 H 1.626 l -0.347,2.195 h -1.463 l -0.339,-2.195 h -1.094 l 1.356,8.566 z" style="fill:#231916;fill-opacity:1;fill-rule:nonzero;stroke:none" id="path279"></path></g><g id="g281" transform="translate(368.7871,308.9893)"><path d="M 0,0 V -7.414 H 1.688 V -8.57 H -1.105 V 0 Z" style="fill:#231916;fill-opacity:1;fill-rule:nonzero;stroke:none" id="path283"></path></g><g id="g285" transform="translate(376.8027,308.9893)"><path d="M 0,0 V -7.414 H 1.688 V -8.57 H -1.104 V 0 Z" style="fill:#231916;fill-opacity:1;fill-rule:nonzero;stroke:none" id="path287"></path></g><g id="g289" transform="translate(395.2559,305.8955)"><path d="m 0,0 h -1.079 v 1.102 c 0,0.294 -0.074,0.537 -0.223,0.718 -0.169,0.211 -0.416,0.317 -0.738,0.317 -0.313,0 -0.554,-0.119 -0.723,-0.356 -0.175,-0.242 -0.261,-0.58 -0.261,-1.013 v -3.971 c 0,-0.414 0.086,-0.746 0.261,-0.994 0.179,-0.258 0.42,-0.387 0.723,-0.387 0.303,0 0.539,0.127 0.707,0.377 0.17,0.256 0.254,0.617 0.254,1.082 v 0.787 H 0 v -0.344 c 0,-0.933 -0.132,-1.631 -0.393,-2.097 -0.318,-0.584 -0.862,-0.875 -1.632,-0.875 -0.806,0 -1.369,0.289 -1.686,0.865 -0.262,0.48 -0.393,1.266 -0.393,2.353 v 2.502 c 0,1.024 0.131,1.786 0.393,2.284 0.324,0.611 0.867,0.916 1.632,0.916 0.755,0 1.304,-0.248 1.647,-0.746 C -0.144,2.113 0,1.543 0,0.807 Z" style="fill:#231916;fill-opacity:1;fill-rule:nonzero;stroke:none" id="path291"></path></g><g id="g293" transform="translate(401.8447,308.9893)"><path d="M 0,0 V -7.414 H 1.688 V -8.57 H -1.104 V 0 Z" style="fill:#231916;fill-opacity:1;fill-rule:nonzero;stroke:none" id="path295"></path></g><g id="g297" transform="translate(412.9043,308.9971)"><path d="M 0,0 V -5.809 C 0,-6.301 -0.016,-6.678 -0.045,-6.941 -0.086,-7.33 -0.168,-7.645 -0.284,-7.887 -0.425,-8.164 -0.622,-8.375 -0.879,-8.52 -1.166,-8.678 -1.54,-8.756 -1.997,-8.756 c -0.464,0 -0.838,0.078 -1.127,0.236 -0.267,0.145 -0.47,0.356 -0.608,0.633 -0.125,0.242 -0.206,0.557 -0.248,0.946 -0.03,0.275 -0.045,0.652 -0.045,1.132 V 0 h 1.102 v -6.381 c 0,-0.447 0.044,-0.746 0.133,-0.896 0.123,-0.203 0.388,-0.305 0.793,-0.305 0.39,0 0.644,0.102 0.762,0.305 0.088,0.144 0.131,0.445 0.131,0.896 l 0,6.381 z" style="fill:#231916;fill-opacity:1;fill-rule:nonzero;stroke:none" id="path299"></path></g><g id="g301" transform="translate(419.5967,301.5322)"><path d="m 0,0 0.294,0.01 c 0.411,0 0.689,0.008 0.835,0.019 0.216,0.02 0.375,0.063 0.478,0.129 C 1.721,0.223 1.798,0.332 1.838,0.482 1.88,0.613 1.901,0.82 1.901,1.104 V 1.91 C 1.901,2.172 1.88,2.367 1.838,2.492 1.793,2.629 1.708,2.729 1.585,2.787 1.466,2.846 1.277,2.881 1.021,2.895 0.854,2.908 0.53,2.916 0.047,2.916 H 0 Z m 0,3.928 c 0.103,0.013 0.213,0.019 0.331,0.019 h 0.502 c 0.23,0 0.399,0.018 0.507,0.049 0.128,0.033 0.222,0.098 0.278,0.19 0.056,0.089 0.095,0.232 0.115,0.421 0.016,0.151 0.026,0.405 0.031,0.76 0,0.274 -0.021,0.475 -0.061,0.6 C 1.661,6.111 1.587,6.215 1.479,6.283 1.371,6.34 1.207,6.379 0.985,6.4 0.837,6.412 0.553,6.42 0.131,6.42 H 0 Z M -1.079,7.453 H 1.097 C 1.79,7.453 2.258,7.334 2.5,7.098 2.731,6.863 2.848,6.41 2.848,5.74 V 5.021 C 2.848,4.521 2.788,4.176 2.67,3.979 2.552,3.781 2.307,3.627 1.937,3.516 2.338,3.404 2.612,3.209 2.763,2.934 2.911,2.678 2.985,2.266 2.985,1.693 V 0.887 c 0,-0.828 -0.132,-1.373 -0.4,-1.635 C 2.343,-0.99 1.862,-1.113 1.143,-1.113 h -2.222 z" style="fill:#231916;fill-opacity:1;fill-rule:nonzero;stroke:none" id="path303"></path></g></g></g></g></g></svg>