


<svg version="1.1" id="Layer_1" xmlns="http://www.w3.org/2000/svg" xmlns:xlink="http://www.w3.org/1999/xlink" x="0px" y="0px" width="1525.438px" height="1124.742px" viewBox="0 0 1525.438 1124.742" enable-background="new 0 0 1525.438 1124.742" xml:space="preserve">
<path fill="#E1002A" stroke="#FFFFFF" stroke-width="82.1379" stroke-linejoin="round" d="M1303.265,562.4
	c0,287.928-232.634,521.272-519.484,521.272c-286.835,0-519.469-233.345-519.469-521.272c0-287.979,232.634-521.331,519.469-521.331
	C1070.631,41.069,1303.265,274.42,1303.265,562.4z"></path>
<path fill="#FFFFFF" stroke="#FFFFFF" stroke-width="82.1379" stroke-linejoin="round" d="M779.542,206.926
	c-196.358,0-355.43,159.167-355.43,355.474c0,196.271,159.071,355.423,355.43,355.423c196.275,0,355.451-159.152,355.451-355.423
	C1134.993,366.093,975.817,206.926,779.542,206.926z"></path>
<g>
	<path fill="#FFFFFF" stroke="#FFFFFF" stroke-width="82.1379" stroke-linejoin="round" d="M459.626,288.346
		c2.865,2.3,4.881,4.938,5.951,7.928c1.172,2.983,1.327,6.193,0.586,9.425c-0.777,3.283-2.346,6.538-4.793,9.659
		c-0.638,0.895-1.612,1.847-2.631,3.049c-1.136,1.165-2.777,2.578-4.99,4.222c-2.206,1.642-4.749,3.21-7.623,4.572l-11.433-8.897
		c3.093-1.04,5.966-2.125,8.502-3.459c2.594-1.319,4.786-3.121,6.646-5.496c1.62-2.146,2.338-3.885,2.052-5.123
		c-0.351-1.238-0.784-2.146-1.517-2.704c-1.216-0.967-2.683-1.229-4.449-0.835c-1.692,0.455-3.847,1.334-6.441,2.697
		c-2.836,1.473-5.533,2.595-8.164,3.357c-2.682,0.747-5.379,0.908-8.156,0.527c-2.734-0.396-5.431-1.613-8.018-3.635
		c-2.5-1.95-4.39-4.324-5.563-7.021c-1.187-2.623-1.429-5.577-0.842-8.882c0.586-3.21,2.103-6.464,4.646-9.755
		c1.854-2.337,3.811-4.338,5.826-5.9c2.096-1.641,3.913-2.826,5.613-3.671c1.613-0.782,2.829-1.268,3.459-1.466l11.058,8.553
		c-2.74,0.66-5.43,1.612-8.215,2.881c-2.727,1.273-4.991,3.1-6.889,5.532c-1.172,1.562-1.759,3.005-1.664,4.222
		c0.154,1.253,0.741,2.227,1.664,3.004c0.923,0.689,2.008,0.982,3.18,0.762c1.305-0.175,3.122-0.762,5.467-1.883
		c4.192-1.897,7.769-3.298,10.597-4.206c2.836-0.894,5.57-1.21,8.215-0.946C454.342,285.113,456.973,286.315,459.626,288.346z"></path>
	<path fill="#FFFFFF" stroke="#FFFFFF" stroke-width="82.1379" stroke-linejoin="round" d="M507.693,263.325l-28.281,28.566
		l-42.08-41.661l27.752-28.083l8.501,8.311l-16.511,16.672l7.769,7.726l15.682-15.933l8.539,8.377l-15.771,15.879l8.933,8.896
		l17.009-17.117L507.693,263.325z"></path>
	<path fill="#FFFFFF" stroke="#FFFFFF" stroke-width="82.1379" stroke-linejoin="round" d="M540.43,199.774
		c3.415,4.411,5.511,9.16,6.543,14.231c1.034,5.042,0.536,10.128-1.421,15.008c-1.956,4.882-5.474,9.374-10.634,13.353
		c-5.239,3.958-10.553,6.201-15.888,6.771c-5.379,0.506-10.304-0.41-14.914-2.755c-4.58-2.345-8.479-5.636-11.717-9.834
		c-3.225-4.267-5.372-8.839-6.464-13.925c-1.055-4.932-0.579-9.98,1.334-15.037c1.905-4.984,5.481-9.484,10.714-13.484
		c3.906-2.99,7.856-5.043,11.909-6.121c4.052-1.047,7.958-1.209,11.571-0.527c3.672,0.711,7.138,2.148,10.407,4.273
		C535.109,193.875,537.981,196.579,540.43,199.774z M527.377,209.754c-1.268-1.766-2.777-3.195-4.346-4.308
		c-1.612-1.063-3.275-1.833-5.034-2.171c-1.796-0.336-3.569-0.293-5.365,0.133c-1.81,0.461-3.627,1.378-5.43,2.696
		c-3.474,2.595-5.27,5.796-5.569,9.505c-0.191,3.716,1.077,7.41,3.81,10.971c2.785,3.578,6.017,5.761,9.615,6.507
		c3.672,0.689,7.241-0.226,10.612-2.783c2.294-1.862,3.972-3.862,4.793-6.171c0.879-2.244,1.026-4.633,0.439-7.153
		C530.418,214.562,529.246,212.114,527.377,209.754z"></path>
	<path fill="#FFFFFF" stroke="#FFFFFF" stroke-width="82.1379" stroke-linejoin="round" d="M600.779,170.057
		c2.426,4.448,3.759,8.678,3.958,12.633c0.19,3.922-0.491,7.505-1.957,10.62c-1.523,3.231-3.43,5.937-5.914,8.311
		c-2.456,2.315-5.035,4.243-7.878,5.774c-4.001,2.161-8.2,3.488-12.751,4.03c-4.631,0.476-9.131-0.38-13.572-2.623
		c-4.543-2.243-8.325-6.259-11.389-12.042l-15.492-28.762l14.07-7.594l13.279,24.652c1.876,3.475,3.84,6.084,5.935,7.813
		c2.097,1.788,4.237,2.74,6.391,2.924c2.14,0.199,4.295-0.285,6.493-1.501c2.052-1.077,3.576-2.595,4.698-4.501
		c1.07-1.846,1.37-4.162,1.114-6.888c-0.329-2.712-1.399-5.761-3.269-9.204l-13.33-24.779l14.173-7.613L600.779,170.057z"></path>
	<path fill="#FFFFFF" stroke="#FFFFFF" stroke-width="82.1379" stroke-linejoin="round" d="M661.751,175.604L623.783,189.5
		l-20.329-55.595l15.052-5.504l15.493,42.248l22.865-8.397L661.751,175.604z"></path>
	<path fill="#FFFFFF" stroke="#FFFFFF" stroke-width="82.1379" stroke-linejoin="round" d="M727.268,144.276
		c0.683,3.627,0.389,6.99-0.813,9.898c-1.29,2.955-3.247,5.424-5.98,7.33c-2.742,1.979-6.067,3.246-10.018,3.906
		c-1.019,0.189-2.338,0.345-4.009,0.483c-1.612,0.153-3.767,0.08-6.501-0.206c-2.674-0.277-5.621-0.813-8.684-1.691l-2.492-14.319
		c2.968,1.377,5.848,2.403,8.633,3.194c2.741,0.748,5.629,0.895,8.604,0.381c2.652-0.462,4.294-1.23,4.938-2.396
		c0.586-1.122,0.836-2.126,0.682-3.013c-0.183-1.561-1.172-2.785-2.697-3.605c-1.605-0.888-3.715-1.642-6.53-2.33
		c-3.092-0.828-5.92-1.906-8.324-3.107c-2.478-1.188-4.573-2.895-6.332-5.027c-1.811-2.155-2.99-4.822-3.518-8.076
		c-0.586-3.195-0.336-6.111,0.63-8.896c0.938-2.785,2.639-5.167,5.321-7.152c2.543-2.009,5.855-3.357,9.967-4.091
		c2.99-0.534,5.716-0.644,8.311-0.481c2.624,0.24,4.785,0.614,6.501,1.083c1.794,0.528,2.975,0.908,3.715,1.291l2.345,13.651
		c-2.448-1.326-5.086-2.477-7.973-3.318c-2.888-0.91-5.819-1.115-8.838-0.646c-1.957,0.396-3.328,1.069-4.061,2.037
		c-0.674,0.968-0.924,2.125-0.732,3.327c0.197,1.172,0.783,2.119,1.817,2.799c1.019,0.652,2.785,1.408,5.276,2.272
		c4.382,1.407,7.958,2.712,10.641,3.979c2.733,1.268,4.939,2.879,6.698,4.844C725.546,138.405,726.777,141.043,727.268,144.276z"></path>
	<path fill="#FFFFFF" stroke="#FFFFFF" stroke-width="82.1379" stroke-linejoin="round" d="M795.474,157.913l-19.537,0.734
		l-21.399-26.926l1.078,27.629l-16.13,0.615l-2.155-59.141l16.078-0.586l0.924,26.427l18.372-27.115l17.39-0.66l-18.761,28.405
		L795.474,157.913z"></path>
	<path fill="#FFFFFF" stroke="#FFFFFF" stroke-width="82.1379" stroke-linejoin="round" d="M881.085,170.46l-19.312-3.431
		l-15.191-30.867l-4.896,27.32l-15.764-2.764l10.355-58.275l15.771,2.734l-4.589,26.081l23.604-22.718l17.201,3.057l-24.434,23.817
		L881.085,170.46z"></path>
	<path fill="#FFFFFF" stroke="#FFFFFF" stroke-width="82.1379" stroke-linejoin="round" d="M939.514,190.649l-13.536-4.719
		l-15.228-40.195l-10.817,31.137l-15.104-5.226l19.501-55.908l13.44,4.669l15.199,40.012l10.803-30.917l15.234,5.254
		L939.514,190.649z"></path>
	<path fill="#FFFFFF" stroke="#FFFFFF" stroke-width="82.1379" stroke-linejoin="round" d="M964.526,203.481l-14.423-7.027
		l26.147-53.103l14.416,7.065L964.526,203.481z"></path>
	<path fill="#FFFFFF" stroke="#FFFFFF" stroke-width="82.1379" stroke-linejoin="round" d="M1018.625,231.081
		c-1.231-0.198-2.258-0.426-3.122-0.586c-0.945-0.176-1.678-0.396-2.506-0.543c-0.733-0.191-1.855-0.506-3.225-0.938
		c-2.485-0.747-4.749-1.647-6.984-2.667c-2.207-1.012-4.412-2.213-6.706-3.723c-4.587-2.881-8.253-6.426-10.934-10.736
		c-2.683-4.301-4.009-9.125-3.812-14.525c0.146-5.4,1.949-10.889,5.512-16.583c2.344-3.636,5.195-6.794,8.655-9.646
		c3.421-2.711,7.034-4.396,10.89-4.945c3.188-0.5,6.016-0.529,8.713-0.111c2.684,0.354,5.086,1.049,7.27,2.039
		c2.199,0.908,4.5,2.16,6.874,3.678c3.972,2.47,7.036,4.888,9.25,7.197c2.153,2.27,4.404,4.91,6.793,8.002l-7.482,11.792
		c-1.209-2.61-2.69-5.064-4.331-7.409c-1.766-2.316-4.266-4.574-7.738-6.729c-3.855-2.469-7.57-3.635-10.942-3.444
		c-3.399,0.133-6.259,1.07-8.641,2.771c-2.351,1.692-4.198,3.677-5.577,5.796c-1.619,2.537-2.535,5.174-2.828,7.967
		c-0.293,2.807,0.234,5.539,1.561,8.207c1.371,2.631,3.475,4.896,6.553,6.823c1.699,1.091,3.773,1.985,6.061,2.674l3.707-5.862
		l-6.053-3.854l6.347-10.114l17.94,11.389L1018.625,231.081z"></path>
	<path fill="#FFFFFF" stroke="#FFFFFF" stroke-width="82.1379" stroke-linejoin="round" d="M1066.545,277.315l-12.019-10.589
		l15.243-17.368l-18.226-15.917l-15.192,17.382l-12.069-10.604l39.046-44.549l12.048,10.646l-14.342,16.307l18.219,15.94
		l14.269-16.351l12.063,10.553L1066.545,277.315z"></path>
	<path fill="#FFFFFF" stroke="#FFFFFF" stroke-width="82.1379" stroke-linejoin="round" d="M1139.639,293.901l-12.604-14.906
		l-34.201,28.916l-10.355-12.244l34.202-28.94l-12.576-14.905l10.949-9.309l35.63,42.052L1139.639,293.901z"></path>
	<path fill="#FFFFFF" stroke="#FFFFFF" stroke-width="82.1379" stroke-linejoin="round" d="M1142.52,348.592
		c-3.122,2.002-6.245,3.07-9.483,3.123c-3.122,0.072-6.142-0.814-9.029-2.566c-2.887-1.766-5.429-4.302-7.621-7.555
		c-0.541-0.975-1.274-2.148-2.008-3.605c-0.777-1.379-1.554-3.371-2.389-5.967c-0.836-2.609-1.467-5.511-1.862-8.691l12.086-7.973
		c0,3.334,0.08,6.361,0.52,9.197c0.454,2.881,1.474,5.504,3.034,8.01c1.561,2.286,2.888,3.488,4.258,3.612
		c1.252,0.126,2.221-0.052,3.012-0.549c1.29-0.851,2.066-2.142,2.258-3.942c0.146-1.759,0-4.061-0.543-6.904
		c-0.425-3.209-0.542-6.192-0.425-8.918c0.08-2.684,0.82-5.32,2.037-7.791c1.274-2.478,3.326-4.66,6.112-6.441
		c2.594-1.803,5.415-2.74,8.346-3.005c2.896-0.233,5.863,0.462,8.714,2.03c2.933,1.59,5.468,4.127,7.711,7.613
		c1.612,2.5,2.887,4.941,3.708,7.425c0.894,2.477,1.422,4.632,1.619,6.39c0.257,1.855,0.286,3.079,0.286,3.885l-11.564,7.578
		c0.233-2.793,0.19-5.645-0.118-8.662c-0.38-2.961-1.304-5.762-2.924-8.305c-1.18-1.691-2.345-2.645-3.554-2.908
		c-1.144-0.322-2.258-0.073-3.371,0.557c-0.982,0.66-1.568,1.592-1.825,2.844c-0.189,1.23-0.189,3.129,0.059,5.753
		c0.477,4.61,0.667,8.347,0.587,11.351c-0.11,2.991-0.74,5.658-1.76,8.032C1147.26,344.626,1145.259,346.752,1142.52,348.592z"></path>
</g>
<g>
	<g>
		<path fill="#FFFFFF" stroke="#FFFFFF" stroke-width="82.1379" stroke-linejoin="round" d="M450.523,868.407
			c-3.869,3.283-8.017,4.69-12.311,4.184c-4.338-0.477-8.354-2.924-11.96-7.189l-19.699-23.691l45.567-37.838l16.489,19.832
			c2.089,2.564,3.709,5.025,4.735,7.4c1.069,2.331,1.568,4.472,1.568,6.449c0,1.986-0.396,3.768-1.173,5.365
			c-0.835,1.692-2.066,3.158-3.562,4.411c-1.715,1.394-3.43,2.36-5.379,2.998c-1.92,0.542-3.664,0.776-5.321,0.681
			c-1.67-0.139-3.048-0.483-4.111-1.084c1.063,3.84,1.318,7.233,0.674,10.23C455.309,863.225,453.499,865.959,450.523,868.407z
			 M440.792,855.553c3.964-3.239,3.766-7.389-0.47-12.475l-4.104-5.084l-11.726,9.658l4.185,5.071
			C432.892,857.817,436.944,858.749,440.792,855.553z M458.153,837.817c2.191-1.802,3.128-3.707,2.732-5.605
			c-0.292-1.914-1.656-4.273-3.949-7.072l-2.111-2.572l-10.985,9.088l2.184,2.674c2.308,2.83,4.397,4.61,6.156,5.248
			C453.998,840.235,455.962,839.65,458.153,837.817z"></path>
		<path fill="#FFFFFF" stroke="#FFFFFF" stroke-width="82.1379" stroke-linejoin="round" d="M490.229,928.368l-12.106-11.08
			l4.8-11.814l-17.054-15.551l-11.396,5.893l-12.158-11.096l57.309-27.892l13.206,12.004L490.229,928.368z M487.173,895.397
			l8.743-21.23l-20.373,10.627L487.173,895.397z"></path>
		<path fill="#FFFFFF" stroke="#FFFFFF" stroke-width="82.1379" stroke-linejoin="round" d="M538.041,940.417
			c-2.141,3.063-4.683,5.152-7.622,6.449c-3.042,1.216-6.119,1.561-9.498,0.938c-3.254-0.645-6.581-2.037-9.806-4.295
			c-0.828-0.645-1.993-1.451-3.225-2.47c-1.173-1.077-2.682-2.704-4.397-4.771c-1.803-2.118-3.422-4.572-4.983-7.379l8.398-11.822
			c1.07,3.021,2.404,5.82,3.855,8.304c1.422,2.528,3.319,4.654,5.775,6.325c2.228,1.627,4.001,2.197,5.276,1.816
			c1.216-0.3,2.096-0.857,2.587-1.598c0.938-1.312,1.129-2.785,0.623-4.471c-0.527-1.699-1.554-3.833-3.019-6.303
			c-1.612-2.807-2.887-5.488-3.708-8.09c-0.895-2.602-1.225-5.262-0.982-8.047c0.292-2.791,1.376-5.555,3.275-8.236
			c1.854-2.616,4.038-4.602,6.699-5.863c2.631-1.305,5.621-1.759,8.845-1.349c3.225,0.44,6.596,1.87,10.011,4.272
			c2.448,1.708,4.485,3.548,6.156,5.504c1.766,1.994,3.079,3.789,3.914,5.394c0.872,1.598,1.407,2.763,1.7,3.503l-8.003,11.33
			c-0.732-2.631-1.905-5.328-3.327-8.003c-1.362-2.675-3.327-4.896-5.804-6.639c-1.678-1.136-3.092-1.644-4.294-1.452
			c-1.291,0.176-2.272,0.756-2.946,1.773c-0.63,1.012-0.879,2.052-0.63,3.284c0.249,1.245,1.026,2.975,2.147,5.378
			c2.146,4.074,3.715,7.549,4.741,10.377c1.012,2.777,1.451,5.49,1.312,8.12C540.928,935.051,539.945,937.711,538.041,940.417z"></path>
		<path fill="#FFFFFF" stroke="#FFFFFF" stroke-width="82.1379" stroke-linejoin="round" d="M589.486,988.432l-17.354-9.184
			l-5.028-33.98l-12.957,24.418l-14.202-7.52l27.702-52.295l14.21,7.519l-12.466,23.422l29.468-14.409l15.485,8.18l-30.486,15.213
			L589.486,988.432z"></path>
		<path fill="#FFFFFF" stroke="#FFFFFF" stroke-width="82.1379" stroke-linejoin="round" d="M636.674,1005.852l-37.661-14.005
			l20.769-55.514l37.024,13.771l-4.148,11.19l-21.978-8.179l-3.819,10.165l20.96,7.774l-4.156,11.146l-20.952-7.752l-4.413,11.799
			l22.543,8.464L636.674,1005.852z"></path>
		<path fill="#FFFFFF" stroke="#FFFFFF" stroke-width="82.1379" stroke-linejoin="round" d="M712.802,978.458l-19.047-4.324
			l-9.863,43.736l-15.699-3.539l9.923-43.715l-19.01-4.33l3.173-13.984l53.696,12.137L712.802,978.458z"></path>
		<path fill="#FFFFFF" stroke="#FFFFFF" stroke-width="82.1379" stroke-linejoin="round" d="M766.849,1011.458
			c-0.542,5.064-2.447,8.97-5.805,11.783c-3.385,2.771-7.825,3.863-13.454,3.365l-30.633-2.573l4.991-58.935l25.642,2.154
			c3.283,0.287,6.163,0.879,8.56,1.795c2.433,0.902,4.339,2.053,5.708,3.481c1.372,1.364,2.382,2.895,3.034,4.589
			c0.58,1.758,0.835,3.619,0.58,5.62c-0.133,2.176-0.675,4.133-1.562,5.915c-0.975,1.758-2.053,3.194-3.276,4.213
			c-1.209,1.106-2.491,1.847-3.664,2.235c3.481,1.898,6.068,4.104,7.783,6.713C766.395,1004.349,767.135,1007.631,766.849,1011.458z
			 M750.813,1009.37c0.455-5.064-2.638-7.879-9.277-8.377l-6.5-0.572l-1.275,15.068l6.5,0.57
			C746.901,1016.573,750.331,1014.367,750.813,1009.37z M750.287,984.59c0.241-2.836-0.447-4.821-2.008-5.861
			c-1.672-1.07-4.207-1.773-7.886-2.08l-3.357-0.301l-1.172,14.164l3.474,0.265c3.605,0.323,6.332,0.073,8.01-0.726
			C749.063,989.282,750.045,987.42,750.287,984.59z"></path>
		<path fill="#FFFFFF" stroke="#FFFFFF" stroke-width="82.1379" stroke-linejoin="round" d="M837.341,1025.294l-16.423,0.88
			l-4.97-11.778l-23.113,1.253l-3.708,12.239l-16.474,0.864l20.329-60.386l17.733-0.925L837.341,1025.294z M811.735,1004.305
			l-8.934-21.113l-6.735,21.985L811.735,1004.305z"></path>
		<path fill="#FFFFFF" stroke="#FFFFFF" stroke-width="82.1379" stroke-linejoin="round" d="M887.182,1015.723l-39.721,7.475
			l-10.904-58.246l15.741-2.888l8.303,44.213l23.949-4.463L887.182,1015.723z"></path>
		<path fill="#FFFFFF" stroke="#FFFFFF" stroke-width="82.1379" stroke-linejoin="round" d="M937.952,1000.569l-38.599,11.929
			l-17.463-56.53l15.309-4.749l13.346,43.011l23.261-7.219L937.952,1000.569z"></path>
		<path fill="#FFFFFF" stroke="#FFFFFF" stroke-width="82.1379" stroke-linejoin="round" d="M1009.047,962.885
			c-1.364,2.16-2.983,4.074-4.654,5.805c-1.714,1.729-3.518,3.261-5.511,4.615c-1.914,1.334-3.965,2.566-6.258,3.715
			c-4.156,2.105-8.165,3.321-12.115,3.717c-3.906,0.396-7.73-0.072-11.38-1.327c-3.622-1.238-6.948-3.261-9.835-5.942
			c-2.873-2.77-5.276-6.076-7.27-10.084c-2.302-4.5-3.62-8.831-3.877-13c-0.33-4.105,0.196-7.944,1.634-11.492
			c1.422-3.59,3.511-6.727,6.186-9.49c2.739-2.704,5.921-4.945,9.54-6.778c5.373-2.741,12.151-4.456,20.33-5.232l7.064,13.997
			c-3.122-0.396-6.141-0.623-8.984-0.527c-2.873,0.073-5.863,0.923-8.934,2.506c-2.792,1.406-5.02,3.298-6.845,5.716
			c-1.81,2.448-2.836,5.159-3.181,8.136c-0.337,3.033,0.301,5.994,1.751,9.057c1.379,2.697,3.255,4.793,5.688,6.347
			c2.403,1.598,5.025,2.522,7.958,2.668c2.931,0.132,5.869-0.505,8.751-1.935c2.241-1.188,4.346-2.608,6.002-4.266
			c1.823-1.642,3.188-3.165,4.205-4.727c1.02-1.443,2.052-3.07,2.977-4.83L1009.047,962.885z"></path>
		<path fill="#FFFFFF" stroke="#FFFFFF" stroke-width="82.1379" stroke-linejoin="round" d="M1057.904,935.952l-33.578,22.595
			l-33.124-49.071l13.344-9l25.16,37.332l20.225-13.602L1057.904,935.952z"></path>
		<path fill="#FFFFFF" stroke="#FFFFFF" stroke-width="82.1379" stroke-linejoin="round" d="M1091.858,871.852
			c3.319,3.78,5.575,7.592,6.689,11.373c1.129,3.818,1.32,7.416,0.536,10.859c-0.682,3.431-1.957,6.516-3.761,9.381
			c-1.846,2.829-3.957,5.32-6.397,7.469c-3.319,3.012-7.13,5.24-11.542,6.801c-4.354,1.568-8.882,1.802-13.776,0.6
			c-4.882-1.165-9.469-4.198-13.822-9.088l-21.693-24.453l12.021-10.627l18.569,20.938c2.595,2.967,5.174,5.057,7.57,6.252
			c2.447,1.201,4.785,1.699,6.837,1.377c2.199-0.293,4.163-1.305,6.01-2.916c1.76-1.555,2.888-3.387,3.518-5.475
			c0.587-2.133,0.396-4.391-0.469-6.985c-0.981-2.563-2.741-5.306-5.291-8.178l-18.673-21.048l12.033-10.67L1091.858,871.852z"></path>
		<path fill="#FFFFFF" stroke="#FFFFFF" stroke-width="82.1379" stroke-linejoin="round" d="M1140.658,829.727
			c3.957,3.297,6.053,7.139,6.404,11.447c0.294,4.368-1.325,8.705-4.983,13.059l-19.728,23.599l-45.407-37.962l16.474-19.75
			c2.155-2.529,4.295-4.552,6.45-6.002c2.096-1.444,4.154-2.287,6.111-2.689c1.848-0.359,3.752-0.294,5.468,0.257
			c1.766,0.433,3.414,1.333,4.938,2.608c1.664,1.422,2.932,2.99,3.906,4.793c0.931,1.714,1.414,3.438,1.605,5.042
			c0.204,1.626,0.16,3.093-0.235,4.266c3.518-1.789,6.837-2.64,9.967-2.522C1134.707,825.945,1137.728,827.294,1140.658,829.727z
			 M1109.248,827.829c-2.205-1.795-4.244-2.367-6.054-1.692c-1.817,0.733-3.854,2.454-6.154,5.188l-2.156,2.637l10.846,9.066
			l2.287-2.645c2.302-2.83,3.715-5.174,4.016-7.007C1112.319,831.493,1111.395,829.676,1109.248,827.829z M1129.827,841.658
			c-3.906-3.224-7.967-2.367-12.225,2.727l-4.206,5.026l11.638,9.732l4.205-5.006
			C1133.491,849.051,1133.673,844.853,1129.827,841.658z"></path>
	</g>
</g>
<path fill="#E1002A" d="M1302.528,562.4c0,286.513-232.305,518.711-518.748,518.711c-286.429,0-518.732-232.198-518.732-518.711
	c0-286.564,232.304-518.77,518.732-518.77C1070.224,43.63,1302.528,275.835,1302.528,562.4z"></path>
<path fill="#FFFFFF" d="M783.777,206.922c-196.358,0-355.43,159.167-355.43,355.474c0,196.271,159.071,355.423,355.43,355.423
	c196.275,0,355.451-159.152,355.451-355.423C1139.229,366.089,980.053,206.922,783.777,206.922z"></path>
<linearGradient id="SVGID_1_" gradientUnits="userSpaceOnUse" x1="-2764.7285" y1="-990.2261" x2="-2764.7285" y2="-1597.4575" gradientTransform="matrix(0.5974 0 0 0.5974 2006.7635 1323.4297)">
	<stop offset="0" style="stop-color:#F5A200"></stop>
	<stop offset="0.4" style="stop-color:#EF8000"></stop>
	<stop offset="1" style="stop-color:#E1002A"></stop>
</linearGradient>
<path fill="url(#SVGID_1_)" d="M309.715,551.678l159.73-148.27l-115.174,9.418l4.838,37.623L240.784,562.034l15.771,88.652
	c4.294,28.133,18.277,80.648,70.03,76.369l54.751-4.484c-28.427-16.725-44.594-44.205-52.42-79.777L309.715,551.678z"></path>
<linearGradient id="SVGID_2_" gradientUnits="userSpaceOnUse" x1="-2526.6753" y1="-1012.7256" x2="-2526.6753" y2="-1423.1267" gradientTransform="matrix(0.5974 0 0 0.5974 2006.7635 1323.4297)">
	<stop offset="0" style="stop-color:#F5A200"></stop>
	<stop offset="0.4" style="stop-color:#EF8000"></stop>
	<stop offset="1" style="stop-color:#E1002A"></stop>
</linearGradient>
<path fill="url(#SVGID_2_)" d="M440.792,565.331l-50.464,156.426l60.628-4.961l38.951-120.684
	c3.033-9.557,6.588-21.592,14.518-30.281c5.467-6.296,13.037-10.715,18.958-11.198c7.373-0.631,12.986,3.107,14.349,10.597
	c2.213,7.797-0.975,17.734-4.045,27.262l-38.885,120.684l60.635-4.975l38.306-118.986c7.364-22.878,14.745-42.475,7.812-59.996
	c-6.999-17.516-22.521-22.119-41.486-20.557c-17.882,1.414-35.184,9.607-50.478,26.418l7.189-22.279l-79.74,6.523L440.792,565.331z"></path>
<linearGradient id="SVGID_3_" gradientUnits="userSpaceOnUse" x1="-1992.8442" y1="-973.3877" x2="-1992.8442" y2="-1455.4902" gradientTransform="matrix(0.5974 0 0 0.5974 2006.7635 1323.4297)">
	<stop offset="0" style="stop-color:#F5A200"></stop>
	<stop offset="0.4" style="stop-color:#EF8000"></stop>
	<stop offset="1" style="stop-color:#E1002A"></stop>
</linearGradient>
<path fill="url(#SVGID_3_)" d="M789.713,691.307c-41.375,15.91-67.685-9.329-67.685-50.244c0-25.555,16.086-93.371,72.229-132.807
	c25.049-17.559,58.041-28.529,101.133-29.269c32.494,0.058,48.572,2.96,66.102,8.853c0,0-19.2,12.803-27.057,37.888l-50.39,158.573
	c-40.146,124.063-150.819,144.648-213.059,88.607l49.005-49.746c2.594,8.627,7.123,15.172,13.338,19.664
	c29.46,21.311,70.06,2.219,93.174-68.785l45.633-143.527c-1.224-0.301-1.957-1.035-3.173-1.313
	c-20.959-7.115-42.176,2.74-60.356,28.023c-8.01,11.434-14.262,25.738-19.421,49.241c-3.87,17.2-2.008,61.668,40.497,35.843
	L789.713,691.307z"></path>
<linearGradient id="SVGID_4_" gradientUnits="userSpaceOnUse" x1="-2246.5361" y1="-1018.2793" x2="-2246.5361" y2="-1437.2354" gradientTransform="matrix(0.5974 0 0 0.5974 2006.7635 1323.4297)">
	<stop offset="0" style="stop-color:#F5A200"></stop>
	<stop offset="0.4" style="stop-color:#EF8000"></stop>
	<stop offset="1" style="stop-color:#E1002A"></stop>
</linearGradient>
<polygon fill="url(#SVGID_4_)" points="727.861,496.239 648.157,502.792 651.924,548.792 601.504,705.245 662.089,700.233 "></polygon>
<linearGradient id="SVGID_5_" gradientUnits="userSpaceOnUse" x1="-2171.6812" y1="-1018.2993" x2="-2171.6812" y2="-1437.2639" gradientTransform="matrix(0.5974 0 0 0.5974 2006.7635 1323.4297)">
	<stop offset="0" style="stop-color:#F5A200"></stop>
	<stop offset="0.4" style="stop-color:#EF8000"></stop>
	<stop offset="1" style="stop-color:#E1002A"></stop>
</linearGradient>
<polygon fill="url(#SVGID_5_)" points="696.034,480.659 669.021,442.491 722.731,397.715 749.781,435.853 "></polygon>
<g>
	<path fill="#FFFFFF" d="M459.626,288.346c2.865,2.3,4.881,4.938,5.951,7.928c1.172,2.983,1.327,6.193,0.586,9.425
		c-0.777,3.283-2.346,6.538-4.793,9.659c-0.638,0.895-1.612,1.847-2.631,3.049c-1.136,1.165-2.777,2.578-4.99,4.222
		c-2.206,1.642-4.749,3.21-7.623,4.572l-11.433-8.897c3.093-1.04,5.966-2.125,8.502-3.459c2.594-1.319,4.786-3.121,6.646-5.496
		c1.62-2.146,2.338-3.885,2.052-5.123c-0.351-1.238-0.784-2.146-1.517-2.704c-1.216-0.967-2.683-1.229-4.449-0.835
		c-1.692,0.455-3.847,1.334-6.441,2.697c-2.836,1.473-5.533,2.595-8.164,3.357c-2.682,0.747-5.379,0.908-8.156,0.527
		c-2.734-0.396-5.431-1.613-8.018-3.635c-2.5-1.95-4.39-4.324-5.563-7.021c-1.187-2.623-1.429-5.577-0.842-8.882
		c0.586-3.21,2.103-6.464,4.646-9.755c1.854-2.337,3.811-4.338,5.826-5.9c2.096-1.641,3.913-2.826,5.613-3.671
		c1.613-0.782,2.829-1.268,3.459-1.466l11.058,8.553c-2.74,0.66-5.43,1.612-8.215,2.881c-2.727,1.273-4.991,3.1-6.889,5.532
		c-1.172,1.562-1.759,3.005-1.664,4.222c0.154,1.253,0.741,2.227,1.664,3.004c0.923,0.689,2.008,0.982,3.18,0.762
		c1.305-0.175,3.122-0.762,5.467-1.883c4.192-1.897,7.769-3.298,10.597-4.206c2.836-0.894,5.57-1.21,8.215-0.946
		C454.342,285.113,456.973,286.315,459.626,288.346z"></path>
	<path fill="#FFFFFF" d="M507.693,263.325l-28.281,28.566l-42.08-41.661l27.752-28.083l8.501,8.311l-16.511,16.672l7.769,7.726
		l15.682-15.933l8.539,8.377l-15.771,15.879l8.933,8.896l17.009-17.117L507.693,263.325z"></path>
	<path fill="#FFFFFF" d="M540.43,199.774c3.415,4.411,5.511,9.16,6.543,14.231c1.034,5.042,0.536,10.128-1.421,15.008
		c-1.956,4.882-5.474,9.374-10.634,13.353c-5.239,3.958-10.553,6.201-15.888,6.771c-5.379,0.506-10.304-0.41-14.914-2.755
		c-4.58-2.345-8.479-5.636-11.717-9.834c-3.225-4.267-5.372-8.839-6.464-13.925c-1.055-4.932-0.579-9.98,1.334-15.037
		c1.905-4.984,5.481-9.484,10.714-13.484c3.906-2.99,7.856-5.043,11.909-6.121c4.052-1.047,7.958-1.209,11.571-0.527
		c3.672,0.711,7.138,2.148,10.407,4.273C535.109,193.875,537.981,196.579,540.43,199.774z M527.377,209.754
		c-1.268-1.766-2.777-3.195-4.346-4.308c-1.612-1.063-3.275-1.833-5.034-2.171c-1.796-0.336-3.569-0.293-5.365,0.133
		c-1.81,0.461-3.627,1.378-5.43,2.696c-3.474,2.595-5.27,5.796-5.569,9.505c-0.191,3.716,1.077,7.41,3.81,10.971
		c2.785,3.578,6.017,5.761,9.615,6.507c3.672,0.689,7.241-0.226,10.612-2.783c2.294-1.862,3.972-3.862,4.793-6.171
		c0.879-2.244,1.026-4.633,0.439-7.153C530.418,214.562,529.246,212.114,527.377,209.754z"></path>
	<path fill="#FFFFFF" d="M600.779,170.057c2.426,4.448,3.759,8.678,3.958,12.633c0.19,3.922-0.491,7.505-1.957,10.62
		c-1.523,3.231-3.43,5.937-5.914,8.311c-2.456,2.315-5.035,4.243-7.878,5.774c-4.001,2.161-8.2,3.488-12.751,4.03
		c-4.631,0.476-9.131-0.38-13.572-2.623c-4.543-2.243-8.325-6.259-11.389-12.042l-15.492-28.762l14.07-7.594l13.279,24.652
		c1.876,3.475,3.84,6.084,5.935,7.813c2.097,1.788,4.237,2.74,6.391,2.924c2.14,0.199,4.295-0.285,6.493-1.501
		c2.052-1.077,3.576-2.595,4.698-4.501c1.07-1.846,1.37-4.162,1.114-6.888c-0.329-2.712-1.399-5.761-3.269-9.204l-13.33-24.779
		l14.173-7.613L600.779,170.057z"></path>
	<path fill="#FFFFFF" d="M661.751,175.604L623.783,189.5l-20.329-55.595l15.052-5.504l15.493,42.248l22.865-8.397L661.751,175.604z"></path>
	<path fill="#FFFFFF" d="M727.268,144.276c0.683,3.627,0.389,6.99-0.813,9.898c-1.29,2.955-3.247,5.424-5.98,7.33
		c-2.742,1.979-6.067,3.246-10.018,3.906c-1.019,0.189-2.338,0.345-4.009,0.483c-1.612,0.153-3.767,0.08-6.501-0.206
		c-2.674-0.277-5.621-0.813-8.684-1.691l-2.492-14.319c2.968,1.377,5.848,2.403,8.633,3.194c2.741,0.748,5.629,0.895,8.604,0.381
		c2.652-0.462,4.294-1.23,4.938-2.396c0.586-1.122,0.836-2.126,0.682-3.013c-0.183-1.561-1.172-2.785-2.697-3.605
		c-1.605-0.888-3.715-1.642-6.53-2.33c-3.092-0.828-5.92-1.906-8.324-3.107c-2.478-1.188-4.573-2.895-6.332-5.027
		c-1.811-2.155-2.99-4.822-3.518-8.076c-0.586-3.195-0.336-6.111,0.63-8.896c0.938-2.785,2.639-5.167,5.321-7.152
		c2.543-2.009,5.855-3.357,9.967-4.091c2.99-0.534,5.716-0.644,8.311-0.481c2.624,0.24,4.785,0.614,6.501,1.083
		c1.794,0.528,2.975,0.908,3.715,1.291l2.345,13.651c-2.448-1.326-5.086-2.477-7.973-3.318c-2.888-0.91-5.819-1.115-8.838-0.646
		c-1.957,0.396-3.328,1.069-4.061,2.037c-0.674,0.968-0.924,2.125-0.732,3.327c0.197,1.172,0.783,2.119,1.817,2.799
		c1.019,0.652,2.785,1.408,5.276,2.272c4.382,1.407,7.958,2.712,10.641,3.979c2.733,1.268,4.939,2.879,6.698,4.844
		C725.546,138.405,726.777,141.043,727.268,144.276z"></path>
	<path fill="#FFFFFF" d="M795.474,157.913l-19.537,0.734l-21.399-26.926l1.078,27.629l-16.13,0.615l-2.155-59.141l16.078-0.586
		l0.924,26.427l18.372-27.115l17.39-0.66l-18.761,28.405L795.474,157.913z"></path>
	<path fill="#FFFFFF" d="M881.085,170.46l-19.312-3.431l-15.191-30.867l-4.896,27.32l-15.764-2.764l10.355-58.275l15.771,2.734
		l-4.589,26.081l23.604-22.718l17.201,3.057l-24.434,23.817L881.085,170.46z"></path>
	<path fill="#FFFFFF" d="M939.514,190.649l-13.536-4.719l-15.228-40.195l-10.817,31.137l-15.104-5.226l19.501-55.908l13.44,4.669
		l15.199,40.012l10.803-30.917l15.234,5.254L939.514,190.649z"></path>
	<path fill="#FFFFFF" d="M964.526,203.481l-14.423-7.027l26.147-53.103l14.416,7.065L964.526,203.481z"></path>
	<path fill="#FFFFFF" d="M1018.625,231.081c-1.231-0.198-2.258-0.426-3.122-0.586c-0.945-0.176-1.678-0.396-2.506-0.543
		c-0.733-0.191-1.855-0.506-3.225-0.938c-2.485-0.747-4.749-1.647-6.984-2.667c-2.207-1.012-4.412-2.213-6.706-3.723
		c-4.587-2.881-8.253-6.426-10.934-10.736c-2.683-4.301-4.009-9.125-3.812-14.525c0.146-5.4,1.949-10.889,5.512-16.583
		c2.344-3.636,5.195-6.794,8.655-9.646c3.421-2.711,7.034-4.396,10.89-4.945c3.188-0.5,6.016-0.529,8.713-0.111
		c2.684,0.354,5.086,1.049,7.27,2.039c2.199,0.908,4.5,2.16,6.874,3.678c3.972,2.47,7.036,4.888,9.25,7.197
		c2.153,2.27,4.404,4.91,6.793,8.002l-7.482,11.792c-1.209-2.61-2.69-5.064-4.331-7.409c-1.766-2.316-4.266-4.574-7.738-6.729
		c-3.855-2.469-7.57-3.635-10.942-3.444c-3.399,0.133-6.259,1.07-8.641,2.771c-2.351,1.692-4.198,3.677-5.577,5.796
		c-1.619,2.537-2.535,5.174-2.828,7.967c-0.293,2.807,0.234,5.539,1.561,8.207c1.371,2.631,3.475,4.896,6.553,6.823
		c1.699,1.091,3.773,1.985,6.061,2.674l3.707-5.862l-6.053-3.854l6.347-10.114l17.94,11.389L1018.625,231.081z"></path>
	<path fill="#FFFFFF" d="M1066.545,277.315l-12.019-10.589l15.243-17.368l-18.226-15.917l-15.192,17.382l-12.069-10.604
		l39.046-44.549l12.048,10.646l-14.342,16.307l18.219,15.94l14.269-16.351l12.063,10.553L1066.545,277.315z"></path>
	<path fill="#FFFFFF" d="M1139.639,293.901l-12.604-14.906l-34.201,28.916l-10.355-12.244l34.202-28.94l-12.576-14.905l10.949-9.309
		l35.63,42.052L1139.639,293.901z"></path>
	<path fill="#FFFFFF" d="M1142.52,348.592c-3.122,2.002-6.245,3.07-9.483,3.123c-3.122,0.072-6.142-0.814-9.029-2.566
		c-2.887-1.766-5.429-4.302-7.621-7.555c-0.541-0.975-1.274-2.148-2.008-3.605c-0.777-1.379-1.554-3.371-2.389-5.967
		c-0.836-2.609-1.467-5.511-1.862-8.691l12.086-7.973c0,3.334,0.08,6.361,0.52,9.197c0.454,2.881,1.474,5.504,3.034,8.01
		c1.561,2.286,2.888,3.488,4.258,3.612c1.252,0.126,2.221-0.052,3.012-0.549c1.29-0.851,2.066-2.142,2.258-3.942
		c0.146-1.759,0-4.061-0.543-6.904c-0.425-3.209-0.542-6.192-0.425-8.918c0.08-2.684,0.82-5.32,2.037-7.791
		c1.274-2.478,3.326-4.66,6.112-6.441c2.594-1.803,5.415-2.74,8.346-3.005c2.896-0.233,5.863,0.462,8.714,2.03
		c2.933,1.59,5.468,4.127,7.711,7.613c1.612,2.5,2.887,4.941,3.708,7.425c0.894,2.477,1.422,4.632,1.619,6.39
		c0.257,1.855,0.286,3.079,0.286,3.885l-11.564,7.578c0.233-2.793,0.19-5.645-0.118-8.662c-0.38-2.961-1.304-5.762-2.924-8.305
		c-1.18-1.691-2.345-2.645-3.554-2.908c-1.144-0.322-2.258-0.073-3.371,0.557c-0.982,0.66-1.568,1.592-1.825,2.844
		c-0.189,1.23-0.189,3.129,0.059,5.753c0.477,4.61,0.667,8.347,0.587,11.351c-0.11,2.991-0.74,5.658-1.76,8.032
		C1147.26,344.626,1145.259,346.752,1142.52,348.592z"></path>
</g>
<g>
	<g>
		<path fill="#FFFFFF" d="M450.523,868.407c-3.869,3.283-8.017,4.69-12.311,4.184c-4.338-0.477-8.354-2.924-11.96-7.189
			l-19.699-23.691l45.567-37.838l16.489,19.832c2.089,2.564,3.709,5.025,4.735,7.4c1.069,2.331,1.568,4.472,1.568,6.449
			c0,1.986-0.396,3.768-1.173,5.365c-0.835,1.692-2.066,3.158-3.562,4.411c-1.715,1.394-3.43,2.36-5.379,2.998
			c-1.92,0.542-3.664,0.776-5.321,0.681c-1.67-0.139-3.048-0.483-4.111-1.084c1.063,3.84,1.318,7.233,0.674,10.23
			C455.309,863.225,453.499,865.959,450.523,868.407z M440.792,855.553c3.964-3.239,3.766-7.389-0.47-12.475l-4.104-5.084
			l-11.726,9.658l4.185,5.071C432.892,857.817,436.944,858.749,440.792,855.553z M458.153,837.817
			c2.191-1.802,3.128-3.707,2.732-5.605c-0.292-1.914-1.656-4.273-3.949-7.072l-2.111-2.572l-10.985,9.088l2.184,2.674
			c2.308,2.83,4.397,4.61,6.156,5.248C453.998,840.235,455.962,839.65,458.153,837.817z"></path>
		<path fill="#FFFFFF" d="M490.229,928.368l-12.106-11.08l4.8-11.814l-17.054-15.551l-11.396,5.893l-12.158-11.096l57.309-27.892
			l13.206,12.004L490.229,928.368z M487.173,895.397l8.743-21.23l-20.373,10.627L487.173,895.397z"></path>
		<path fill="#FFFFFF" d="M538.041,940.417c-2.141,3.063-4.683,5.152-7.622,6.449c-3.042,1.216-6.119,1.561-9.498,0.938
			c-3.254-0.645-6.581-2.037-9.806-4.295c-0.828-0.645-1.993-1.451-3.225-2.47c-1.173-1.077-2.682-2.704-4.397-4.771
			c-1.803-2.118-3.422-4.572-4.983-7.379l8.398-11.822c1.07,3.021,2.404,5.82,3.855,8.304c1.422,2.528,3.319,4.654,5.775,6.325
			c2.228,1.627,4.001,2.197,5.276,1.816c1.216-0.3,2.096-0.857,2.587-1.598c0.938-1.312,1.129-2.785,0.623-4.471
			c-0.527-1.699-1.554-3.833-3.019-6.303c-1.612-2.807-2.887-5.488-3.708-8.09c-0.895-2.602-1.225-5.262-0.982-8.047
			c0.292-2.791,1.376-5.555,3.275-8.236c1.854-2.616,4.038-4.602,6.699-5.863c2.631-1.305,5.621-1.759,8.845-1.349
			c3.225,0.44,6.596,1.87,10.011,4.272c2.448,1.708,4.485,3.548,6.156,5.504c1.766,1.994,3.079,3.789,3.914,5.394
			c0.872,1.598,1.407,2.763,1.7,3.503l-8.003,11.33c-0.732-2.631-1.905-5.328-3.327-8.003c-1.362-2.675-3.327-4.896-5.804-6.639
			c-1.678-1.136-3.092-1.644-4.294-1.452c-1.291,0.176-2.272,0.756-2.946,1.773c-0.63,1.012-0.879,2.052-0.63,3.284
			c0.249,1.245,1.026,2.975,2.147,5.378c2.146,4.074,3.715,7.549,4.741,10.377c1.012,2.777,1.451,5.49,1.312,8.12
			C540.928,935.051,539.945,937.711,538.041,940.417z"></path>
		<path fill="#FFFFFF" d="M589.486,988.432l-17.354-9.184l-5.028-33.98l-12.957,24.418l-14.202-7.52l27.702-52.295l14.21,7.519
			l-12.466,23.422l29.468-14.409l15.485,8.18l-30.486,15.213L589.486,988.432z"></path>
		<path fill="#FFFFFF" d="M636.674,1005.852l-37.661-14.005l20.769-55.514l37.024,13.771l-4.148,11.19l-21.978-8.179l-3.819,10.165
			l20.96,7.774l-4.156,11.146l-20.952-7.752l-4.413,11.799l22.543,8.464L636.674,1005.852z"></path>
		<path fill="#FFFFFF" d="M712.802,978.458l-19.047-4.324l-9.863,43.736l-15.699-3.539l9.923-43.715l-19.01-4.33l3.173-13.984
			l53.696,12.137L712.802,978.458z"></path>
		<path fill="#FFFFFF" d="M766.849,1011.458c-0.542,5.064-2.447,8.97-5.805,11.783c-3.385,2.771-7.825,3.863-13.454,3.365
			l-30.633-2.573l4.991-58.935l25.642,2.154c3.283,0.287,6.163,0.879,8.56,1.795c2.433,0.902,4.339,2.053,5.708,3.481
			c1.372,1.364,2.382,2.895,3.034,4.589c0.58,1.758,0.835,3.619,0.58,5.62c-0.133,2.176-0.675,4.133-1.562,5.915
			c-0.975,1.758-2.053,3.194-3.276,4.213c-1.209,1.106-2.491,1.847-3.664,2.235c3.481,1.898,6.068,4.104,7.783,6.713
			C766.395,1004.349,767.135,1007.631,766.849,1011.458z M750.813,1009.37c0.455-5.064-2.638-7.879-9.277-8.377l-6.5-0.572
			l-1.275,15.068l6.5,0.57C746.901,1016.573,750.331,1014.367,750.813,1009.37z M750.287,984.59
			c0.241-2.836-0.447-4.821-2.008-5.861c-1.672-1.07-4.207-1.773-7.886-2.08l-3.357-0.301l-1.172,14.164l3.474,0.265
			c3.605,0.323,6.332,0.073,8.01-0.726C749.063,989.282,750.045,987.42,750.287,984.59z"></path>
		<path fill="#FFFFFF" d="M837.341,1025.294l-16.423,0.88l-4.97-11.778l-23.113,1.253l-3.708,12.239l-16.474,0.864l20.329-60.386
			l17.733-0.925L837.341,1025.294z M811.735,1004.305l-8.934-21.113l-6.735,21.985L811.735,1004.305z"></path>
		<path fill="#FFFFFF" d="M887.182,1015.723l-39.721,7.475l-10.904-58.246l15.741-2.888l8.303,44.213l23.949-4.463L887.182,1015.723
			z"></path>
		<path fill="#FFFFFF" d="M937.952,1000.569l-38.599,11.929l-17.463-56.53l15.309-4.749l13.346,43.011l23.261-7.219
			L937.952,1000.569z"></path>
		<path fill="#FFFFFF" d="M1009.047,962.885c-1.364,2.16-2.983,4.074-4.654,5.805c-1.714,1.729-3.518,3.261-5.511,4.615
			c-1.914,1.334-3.965,2.566-6.258,3.715c-4.156,2.105-8.165,3.321-12.115,3.717c-3.906,0.396-7.73-0.072-11.38-1.327
			c-3.622-1.238-6.948-3.261-9.835-5.942c-2.873-2.77-5.276-6.076-7.27-10.084c-2.302-4.5-3.62-8.831-3.877-13
			c-0.33-4.105,0.196-7.944,1.634-11.492c1.422-3.59,3.511-6.727,6.186-9.49c2.739-2.704,5.921-4.945,9.54-6.778
			c5.373-2.741,12.151-4.456,20.33-5.232l7.064,13.997c-3.122-0.396-6.141-0.623-8.984-0.527c-2.873,0.073-5.863,0.923-8.934,2.506
			c-2.792,1.406-5.02,3.298-6.845,5.716c-1.81,2.448-2.836,5.159-3.181,8.136c-0.337,3.033,0.301,5.994,1.751,9.057
			c1.379,2.697,3.255,4.793,5.688,6.347c2.403,1.598,5.025,2.522,7.958,2.668c2.931,0.132,5.869-0.505,8.751-1.935
			c2.241-1.188,4.346-2.608,6.002-4.266c1.823-1.642,3.188-3.165,4.205-4.727c1.02-1.443,2.052-3.07,2.977-4.83L1009.047,962.885z"></path>
		<path fill="#FFFFFF" d="M1057.904,935.952l-33.578,22.595l-33.124-49.071l13.344-9l25.16,37.332l20.225-13.602L1057.904,935.952z"></path>
		<path fill="#FFFFFF" d="M1091.858,871.852c3.319,3.78,5.575,7.592,6.689,11.373c1.129,3.818,1.32,7.416,0.536,10.859
			c-0.682,3.431-1.957,6.516-3.761,9.381c-1.846,2.829-3.957,5.32-6.397,7.469c-3.319,3.012-7.13,5.24-11.542,6.801
			c-4.354,1.568-8.882,1.802-13.776,0.6c-4.882-1.165-9.469-4.198-13.822-9.088l-21.693-24.453l12.021-10.627l18.569,20.938
			c2.595,2.967,5.174,5.057,7.57,6.252c2.447,1.201,4.785,1.699,6.837,1.377c2.199-0.293,4.163-1.305,6.01-2.916
			c1.76-1.555,2.888-3.387,3.518-5.475c0.587-2.133,0.396-4.391-0.469-6.985c-0.981-2.563-2.741-5.306-5.291-8.178l-18.673-21.048
			l12.033-10.67L1091.858,871.852z"></path>
		<path fill="#FFFFFF" d="M1140.658,829.727c3.957,3.297,6.053,7.139,6.404,11.447c0.294,4.368-1.325,8.705-4.983,13.059
			l-19.728,23.599l-45.407-37.962l16.474-19.75c2.155-2.529,4.295-4.552,6.45-6.002c2.096-1.444,4.154-2.287,6.111-2.689
			c1.848-0.359,3.752-0.294,5.468,0.257c1.766,0.433,3.414,1.333,4.938,2.608c1.664,1.422,2.932,2.99,3.906,4.793
			c0.931,1.714,1.414,3.438,1.605,5.042c0.204,1.626,0.16,3.093-0.235,4.266c3.518-1.789,6.837-2.64,9.967-2.522
			C1134.707,825.945,1137.728,827.294,1140.658,829.727z M1109.248,827.829c-2.205-1.795-4.244-2.367-6.054-1.692
			c-1.817,0.733-3.854,2.454-6.154,5.188l-2.156,2.637l10.846,9.066l2.287-2.645c2.302-2.83,3.715-5.174,4.016-7.007
			C1112.319,831.493,1111.395,829.676,1109.248,827.829z M1129.827,841.658c-3.906-3.224-7.967-2.367-12.225,2.727l-4.206,5.026
			l11.638,9.732l4.205-5.006C1133.491,849.051,1133.673,844.853,1129.827,841.658z"></path>
	</g>
</g>
<g>
	<path fill="#A6A6A6" d="M1525.438,460.952l-16.256-24.721c0,0-82.721-29.287-151.588,11.313l-4.418-12.67
		c0,0-14.107,1.152-20.129,1.656l16.561-53.344l-17.633-26.59l-67.895,5.549c-5.617,21.236-36.182,95.09-97.16,102.467l-3.318,9.41
		c-12.783-15.412-27.449-20.531-47.443-20.627l16.584-52.346l-17.668-26.627l-138.443,11.412l5.578,68.424l-7.92,24.965
		c-83.781-25.732-159.891-9.074-207.951,27.605l-9.229-7.906l32.965-27.506l-70.064-100.154l-95.857,80.008l26.958,39.033
		l-41.616,3.336l3.554,31.656c-18.61-24.594-48.633-29.482-77.842-26.266c0.144,0-72.82,5.953-110.423,9.035
		c47.126-43.732,100.53-93.32,100.53-93.32l-19.724-29.729c0,0-143.449,11.787-171.342,14.068
		c0.276-0.174-27.711,2.336-27.711,2.336c0.441,3.303,3.844,29.064,5.154,39.119c0.745,5.715,1.415,10.865,1.765,13.563
		c-1.986,1.885-9.121,8.615-18.797,17.734c-13.974,13.178-86.711,82.689-103.476,98.51c0.756,3.266,12.362,68.943,12.362,68.943
		l8.625,49.199c12.053,72.936,54.271,107.701,125.284,102.482l315.995-25.055l-28.508,29.174
		c18.678,29.205,63.305,74.494,121.611,74.494h0.527c73.82,0,130.025-42.639,163.857-123.57l221.547-18.023l10.734-33.182
		c4.826,12.24,24.852,37.646,57.328,37.646c32.463,0,51.645-14.191,57.154-18.641l11.902-16.615l3.877,7.518
		c75.824,24.418,140.973,0.434,172.289-21.715c38.244-27.115,65.15-77.064,47.535-121.697L1525.438,460.952z M360.676,695.108
		c-6.054-8.168-10.917-19.34-13.882-32.951c-0.105-0.609-10.088-42.705-15.418-67.326l63.643-59.066l3.568,43.26L360.676,695.108z"></path>
	<path fill="#A6A6A6" d="M176.542,686.513c-13.034,26.473-26.985,54.945-28.549,58.193c0.47,2.164,3.215,14.135,6.579,28.955
		l0.8,3.521c0.242,1.074,0.486,2.152,0.734,3.25l0.001-0.006l6.008,26.496c1.506,6.701,5.809,25.547,5.809,25.547l-33.466,4.055
		c0,0-9.586-11.182-15.999-18.639c4.501,21.023-8.747,38.947-14.176,44.377c-16.179,16.18-46.574,21.676-69.44-1.191
		c-33.482-33.482-16.846-85.445,5.619-91.596L50.8,738.195L0,676.833l68.878,2.486l106.576-318.217l127.608-81.828l-10.591,171.102
		L228.32,581.015l-0.006,0.02L176.542,686.513z"></path>
	<path d="M205.697,607.708l78.296-159.439l9.448-152.24l-110.563,70.928L75.12,688.365l-55.992-1.98l41.509,50.076
		c-3.317,10.275-9.729,29.635-12.925,39.422c-5.306,1.691-10.078,4.902-13.958,9.607c-1.112,1.355-2.108,2.844-3.063,4.529
		c-11.138,19.174-6.114,46.117,9.111,63.658c27.53,31.707,81,6.266,68.928-40.664c1.009-2.113,4.194-9.607,5.833-13.018
		l23.59,27.557l19.308-2.322l-18.504-81.465l49.093-99.992"></path>
	<g>
		<linearGradient id="SVGID_6_" gradientUnits="userSpaceOnUse" x1="25.2632" y1="851.9399" x2="270.3837" y2="369.6055">
			<stop offset="0" style="stop-color:#F5A200"></stop>
			<stop offset="0.4" style="stop-color:#EF8000"></stop>
			<stop offset="1" style="stop-color:#E1002A"></stop>
		</linearGradient>
		<path fill="url(#SVGID_6_)" d="M100.311,764.931l-22.556,47.055c3.357,10.215,3.044,21.559-1.635,29.582
			c-6.858,11.898-20.541,11.936-30.576,0.127c-10.028-11.818-12.551-30.977-5.674-42.859c3.727-6.457,9.513-9.447,15.636-8.822
			l18.399-56.201L47.04,702.173l36.409,2.617l108.201-326.914l68.934-44.146l-8.209,115.719L113.371,739.216l14.302,57.867
			L100.311,764.931z M66.291,829.953c3.166-5.422,1.973-14.213-2.633-19.588c-4.536-5.318-10.811-5.33-13.933,0.043
			c-3.131,5.471-2.02,14.201,2.571,19.594C56.831,835.394,63.16,835.347,66.291,829.953z"></path>
		<g>
			<polygon fill="#EFEFF0" points="94.952,718.367 69.471,716.519 64.462,710.617 90.006,712.48 198.116,385.529 251.017,351.687 
				250.369,361.234 203.12,391.429 			"></polygon>
		</g>
		<polygon fill="#EFEFF0" points="61.986,797.656 80.447,741.515 85.454,747.41 67.023,803.539 		"></polygon>
	</g>
	<path d="M206.904,598.625l15.463,88.059c9.245,48.791,32.184,100.188,114.55,94.207l109.572-9.049l7.423-20.867l15.598,18.867
		l89.097-6.822l7.023-19.971l13.498,18.633l93.366-7.498l26.482-82.609c2.531,45.479,37.508,70.668,85.251,56.906
		c-2.613,10.246-14.924,27.988-32.479,27.988c-24.662,0-31.927-26.617-35.947-39.598l-77.457,79.154
		c39.02,54.396,87.199,63.383,108.422,63.383c21.394,0,117.001,1.018,164.287-141.902l9.365,17.797l85.34-6.885l7.377-20.805
		l14.461,18.82l97.574-8.025l18.625-57.779c1.203,22.396,19.316,61.709,57.16,61.709c26.643,0,42.219-10.479,49.73-15.9
		l20.133-27.898l7.934,16.818c11.143,5.721,54.311,10.855,77.248,8.695c25.994-2.471,104.482-14.479,129.432-91.709
		c2.604-7.971,3.877-15.729,3.877-23.24c0-9.283-2.611-19.32-6.617-27.35l31.799-99.32l-11.533-17.525
		c-69.213-20.221-126.686-1.775-150.369,18.641l-6.217-17.977c0,0-14.318,1.182-27.268,2.225
		c8.732-27.625,19.672-63.09,19.672-63.09l-11.646-17.533l-55.408,4.455c-25.137,74.213-75.117,98.471-98.168,101.963l-7.799,23.713
		c-7.506-29.752-36.377-36.813-63.479-32.83c9.035-28.609,19.521-61.936,19.521-61.936l-11.646-17.563l-122.311,10.096
		c0,0,4.412,54.715,4.855,60.301c-0.443,1.354-5.014,15.523-11.684,36.676l-15.418-5.119c-18.67-6.217-36.578-9.787-73.066-9.832
		h-0.092l-0.166,0.045c-6.58,0.045-13.143,0.588-18.91,1.068l-0.361,0.033c-56.115,5.697-97.461,25.791-127.83,63.131l9.984-31.016
		l-13.55-11.594l35.064-29.264l-58.449-83.449L637.953,453.1l31.688,45.773l-48.701,4.02l6.83,60.299l-8.289,17.488
		c-0.799-59.375-37.943-76.584-82.954-71.646l-132.398,10.85c0,0,4.473,54.676,4.954,60.271
		c-1.4,4.184-26.952,81.658-43.619,133.557c-14.748-9.285-24.075-29.361-28.335-49.439c0,0-11.654-49.482-16.668-72.939
		c12.489-11.607,191.932-178.217,191.932-178.217l-11.706-17.598l-182.439,15.031c0,0,4.818,37.129,6.174,47.338
		c-8.101,7.588-69.967,65.926-102.331,96.465l-19.812,19.811"></path>
	<g>
		
			<linearGradient id="SVGID_7_" gradientUnits="userSpaceOnUse" x1="-2186.6929" y1="-987.249" x2="-2186.6929" y2="-1417.6283" gradientTransform="matrix(0.5974 0 0 0.5974 2006.7635 1323.4297)">
			<stop offset="0" style="stop-color:#F5A200"></stop>
			<stop offset="0.4" style="stop-color:#EF8000"></stop>
			<stop offset="1" style="stop-color:#E1002A"></stop>
		</linearGradient>
		<polygon fill="url(#SVGID_7_)" points="686.701,492.821 658.953,453.612 714.126,407.618 741.914,446.793 		"></polygon>
		<g>
			
				<linearGradient id="SVGID_8_" gradientUnits="userSpaceOnUse" x1="-1617.7446" y1="-1036.3447" x2="-1617.7446" y2="-1530.2599" gradientTransform="matrix(0.5974 0 0 0.5974 2006.7635 1323.4297)">
				<stop offset="0" style="stop-color:#F5A200"></stop>
				<stop offset="0.4" style="stop-color:#EF8000"></stop>
				<stop offset="1" style="stop-color:#E1002A"></stop>
			</linearGradient>
			<path fill="url(#SVGID_8_)" d="M1008.192,454.999l-77.443,242.123l62.281-5.152l39.945-123.957
				c8.197-25.176,18.52-41.313,34.492-42.615c16.016-1.334,18.822,13.453,10.525,38.898l-39.99,124.018l62.229-5.219l43.664-135.318
				c16.727-51.658-3.207-72.57-38.801-69.611c-18.346,1.527-36.135,9.887-51.877,27.201l33.072-104.375l-81.922,6.754
				L1008.192,454.999z"></path>
			
				<linearGradient id="SVGID_9_" gradientUnits="userSpaceOnUse" x1="-2795.9053" y1="-958.4072" x2="-2795.9053" y2="-1582.1848" gradientTransform="matrix(0.5974 0 0 0.5974 2006.7635 1323.4297)">
				<stop offset="0" style="stop-color:#F5A200"></stop>
				<stop offset="0.4" style="stop-color:#EF8000"></stop>
				<stop offset="1" style="stop-color:#E1002A"></stop>
			</linearGradient>
			<path fill="url(#SVGID_9_)" d="M289.853,565.778l164.084-152.311l-118.313,9.672l4.969,38.648l-121.55,114.627l16.199,91.068
				c4.412,28.902,18.776,82.85,71.939,78.449l56.244-4.605c-29.202-17.178-45.81-45.41-53.85-81.951L289.853,565.778z"></path>
			
				<linearGradient id="SVGID_10_" gradientUnits="userSpaceOnUse" x1="-2551.3638" y1="-981.5176" x2="-2551.3638" y2="-1403.1041" gradientTransform="matrix(0.5974 0 0 0.5974 2006.7635 1323.4297)">
				<stop offset="0" style="stop-color:#F5A200"></stop>
				<stop offset="0.4" style="stop-color:#EF8000"></stop>
				<stop offset="1" style="stop-color:#E1002A"></stop>
			</linearGradient>
			<path fill="url(#SVGID_10_)" d="M424.502,579.801l-51.84,160.689l62.282-5.098l40.011-123.973
				c3.117-9.818,6.769-22.178,14.914-31.105c5.616-6.467,13.393-11.006,19.476-11.504c7.573-0.65,13.34,3.191,14.739,10.885
				c2.274,8.01-1,18.221-4.154,28.008l-39.944,123.971l62.287-5.109l39.351-122.229c7.565-23.506,15.146-43.633,8.024-61.635
				c-7.189-17.992-23.135-22.717-42.616-21.115c-18.37,1.451-36.143,9.871-51.854,27.139l7.385-22.885l-81.914,6.699
				L424.502,579.801z"></path>
			
				<linearGradient id="SVGID_11_" gradientUnits="userSpaceOnUse" x1="-1044.397" y1="-1091.2251" x2="-1044.397" y2="-1527.3333" gradientTransform="matrix(0.5974 0 0 0.5974 2006.7635 1323.4297)">
				<stop offset="0" style="stop-color:#F5A200"></stop>
				<stop offset="0.4" style="stop-color:#EF8000"></stop>
				<stop offset="1" style="stop-color:#E1002A"></stop>
			</linearGradient>
			<path fill="url(#SVGID_11_)" d="M1293.413,612.227c14.463,12.67,33.131,21.025,55.822,19.172
				c10.027-0.828,26.482-5.215,31.836-21.605c9.576-29.789-75.846-24.48-56.477-84.48c7.73-23.984,23.639-43.008,43.957-55.934
				c20.432-13.303,40.502-17.164,59.232-18.67c18.773-1.535,36.391,0.045,53.059,3.824l-14.967,46.193
				c-10.043-9.998-24.18-14.811-40.395-13.508c-7.191,0.604-21.932,3.945-25.861,15.916c-4.418,13.828,6.385,16.381,13.965,18.762
				c11.383,3.824,24.498,7.512,33.08,15.891c11.186,10.666,17.855,27.063,10.539,49.68c-19.184,59.533-77.059,77.291-115.242,80.414
				c-20.123,1.695-39.057-1.521-57.123-5.223L1293.413,612.227z"></path>
			
				<linearGradient id="SVGID_12_" gradientUnits="userSpaceOnUse" x1="-2002.9824" y1="-941.1079" x2="-2002.9824" y2="-1436.3525" gradientTransform="matrix(0.5974 0 0 0.5974 2006.7635 1323.4297)">
				<stop offset="0" style="stop-color:#F5A200"></stop>
				<stop offset="0.4" style="stop-color:#EF8000"></stop>
				<stop offset="1" style="stop-color:#E1002A"></stop>
			</linearGradient>
			<path fill="url(#SVGID_12_)" d="M782.933,709.211c-42.503,16.344-69.529-9.584-69.529-51.615
				c0-26.248,16.525-95.914,74.199-136.424c25.73-18.037,59.621-29.307,103.889-30.068c33.379,0.061,49.895,3.043,67.902,9.094
				c0,0-19.723,13.152-27.795,38.922l-51.762,162.896c-41.24,127.441-154.931,148.59-218.867,91.021l50.342-51.102
				c2.664,8.859,7.316,15.584,13.701,20.197c30.263,21.893,71.968,2.281,95.712-70.658l46.877-147.441
				c-1.256-0.305-2.01-1.059-3.26-1.346c-21.529-7.311-43.324,2.816-62.002,28.787c-8.227,11.746-14.648,26.441-19.949,50.584
				c-3.975,17.668-2.063,63.348,41.602,36.818L782.933,709.211z"></path>
			
				<linearGradient id="SVGID_13_" gradientUnits="userSpaceOnUse" x1="-1282.4409" y1="-1053.7427" x2="-1282.4409" y2="-1486.9375" gradientTransform="matrix(0.5974 0 0 0.5974 2006.7635 1323.4297)">
				<stop offset="0" style="stop-color:#F5A200"></stop>
				<stop offset="0.4" style="stop-color:#EF8000"></stop>
				<stop offset="1" style="stop-color:#E1002A"></stop>
			</linearGradient>
			<path fill="url(#SVGID_13_)" d="M1305.985,511.575l16.344-49.996l-44.816,3.691l25.598-82.076l-21.223,1.656
				c-37.701,88.141-96.73,100.293-96.73,100.293l-7.988,24.527l25.664-2.102l-41.352,130.199
				c-10.689,32.049,12.543,67.16,65.338,36.438l38.746-53.707c-27.598,11.172-35.789-7.262-31.715-20.143l31.859-98.004
				l23.893-1.957C1294.022,500.102,1301.808,501.042,1305.985,511.575z"></path>
			
				<linearGradient id="SVGID_14_" gradientUnits="userSpaceOnUse" x1="-2263.5884" y1="-987.2212" x2="-2263.5884" y2="-1417.5979" gradientTransform="matrix(0.5974 0 0 0.5974 2006.7635 1323.4297)">
				<stop offset="0" style="stop-color:#F5A200"></stop>
				<stop offset="0.4" style="stop-color:#EF8000"></stop>
				<stop offset="1" style="stop-color:#E1002A"></stop>
			</linearGradient>
			<polygon fill="url(#SVGID_14_)" points="719.396,508.827 637.519,515.557 641.388,562.811 589.596,723.53 651.83,718.381 			"></polygon>
			<g>
				<g>
					<path fill="#EFEFF0" d="M743.328,611.36c19.416-51.762,47.427-82.975,92.46-101.48l-1.527-2
						c-49.219,17.584-79.182,49.713-99.613,104.219c-18.971,50.561-5.781,86.326,28.05,92.213l2.055-2.365
						C735.89,691.94,725.66,658.579,743.328,611.36z"></path>
					<path fill="#EFEFF0" d="M878.091,545.768l-46.035,144.795c-14.252,43.727-34.863,68.215-55.701,76.119l1.092,1.508
						c23.299-4.461,47.344-29.236,63.244-78.305l45.176-141.896L878.091,545.768z"></path>
					<path fill="#EFEFF0" d="M684.058,791.389l29.609-30.053l-3.215-4.895l-35.082,35.67c20.521,18.467,47.625,25.852,75.175,24.301
						l1.07-1.416C727.376,813.907,702.562,808.116,684.058,791.389z"></path>
				</g>
				<g>
					<path fill="#EFEFF0" d="M1181.649,636.127l41.412-130.209l-8.342,0.643l-41.359,130.258
						c-7.828,23.461,6.219,51.141,47.73,29.182l1.504-2.832C1180.987,677.278,1174.687,657.206,1181.649,636.127z"></path>
					<path fill="#EFEFF0" d="M1285.103,394.202c-33.244,79.031-88.932,92.822-88.932,92.822l-4.547,13.777l8.357-0.633l3.613-10.207
						c0,0,55.242-14.455,86.604-96.361L1285.103,394.202z"></path>
				</g>
				<g>
					<polygon fill="#EFEFF0" points="679.595,452.485 714.472,423.403 711.656,419.391 671.156,453.163 690.021,479.874 
						695.539,474.903 					"></polygon>
				</g>
				<path fill="#EFEFF0" d="M1295.739,646.094l-1.867,8.967c53.615,11.105,89.443-1.807,111.77-17.119l-1.045-1.078
					C1383.315,651.321,1338.546,660.708,1295.739,646.094z"></path>
				<path fill="#EFEFF0" d="M1461.917,477.616c-8.537-3.902-31.166-8.645-52.004,2.453l0.805,1.736
					c23.148-8.715,39.252-1.074,48.691,3.277L1461.917,477.616z"></path>
				<path fill="#EFEFF0" d="M1355.114,494.192c-7.371,6.385-22.752,25.055-21.99,45.891c1.445,38.959,76.486,36.15,54.053,73.896
					l2.363,0.498c26.199-39.057-45.816-40.502-48.383-76.689c-1.408-19.854,12.051-37.994,15.215-41.805L1355.114,494.192z"></path>
				<path fill="#EFEFF0" d="M445.642,577.424l-4.148-38.004l-7.8,0.662l4.021,37.711c-0.851,2.76-33.681,104.453-48.383,149.816
					l8.228-0.699L445.642,577.424z"></path>
				<path fill="#EFEFF0" d="M662.529,560.409l-4.186-38.023l-7.822,0.652l4.059,37.762c-0.936,2.787-33.727,104.447-48.422,149.795
					l8.221-0.662L662.529,560.409z"></path>
				<path fill="#EFEFF0" d="M1029.323,452.561l-4.268-38.018l-7.732,0.709l3.969,37.717c-0.859,2.768-59.836,185.9-74.545,231.234
					l8.297-0.693L1029.323,452.561z"></path>
				<path fill="#EFEFF0" d="M532.833,564.266l-2.161,2.195c2.161,1.342,10.035,10.869,0.505,40.518
					c-7.694,23.789-28.216,87.824-36.045,111.867l8.28-0.67l35.85-111.838C546.76,583.192,540.466,568.991,532.833,564.266z"></path>
				<path fill="#EFEFF0" d="M1090.905,520.813l-2.215,2.225c2.215,1.387,10.037,10.891,0.551,40.602
					c-7.77,23.768-28.246,87.74-36.076,111.875l8.328-0.752l35.832-111.854C1104.81,539.797,1098.53,525.54,1090.905,520.813z"></path>
				<g>
					<path fill="#EFEFF0" d="M256.465,665.727l-14.906-86.686L362.53,464.258l-4.524-33.852l-8.033,0.668l3.975,31.65
						L232.533,577.665l16.704,92.625c7.032,34.533,17.789,57.818,39.75,65.615l6.15-0.465
						C274.193,725.2,262.043,698.424,256.465,665.727z"></path>
				</g>
			</g>
		</g>
	</g>
</g>
</svg>
