<svg width="420" height="292.158" viewBox="0 0 111.125 77.300137" version="1.1" id="svg82632" xmlns:xlink="http://www.w3.org/1999/xlink" xmlns="http://www.w3.org/2000/svg">
  <defs id="defs82629">
    <radialGradient fx="-1.4888948" fy="3.1133995" cx="-1.4888948" cy="3.1133995" r="1" gradientUnits="userSpaceOnUse" gradientTransform="matrix(34.630806,0,0,-35.404577,104.55461,173.45004)" spreadMethod="pad" id="radialGradient250">
      <stop style="stop-opacity:1;stop-color:#e60013" offset="0" id="stop244"></stop>
      <stop style="stop-opacity:1;stop-color:#e60013" offset="0.74184688" id="stop246"></stop>
      <stop style="stop-opacity:1;stop-color:#f39700" offset="1" id="stop248"></stop>
    </radialGradient>
    <radialGradient fx="-1.4936929" fy="3.1354866" cx="-1.4936929" cy="3.1354866" r="1" gradientUnits="userSpaceOnUse" gradientTransform="matrix(34.640913,0,0,-35.414892,104.52552,173.38326)" spreadMethod="pad" id="radialGradient272">
      <stop style="stop-opacity:1;stop-color:#e60013" offset="0" id="stop266"></stop>
      <stop style="stop-opacity:1;stop-color:#e60013" offset="0.74184688" id="stop268"></stop>
      <stop style="stop-opacity:1;stop-color:#f39700" offset="1" id="stop270"></stop>
    </radialGradient>
    <radialGradient fx="-1.4910688" fy="3.1176951" cx="-1.4910688" cy="3.1176951" r="1" gradientUnits="userSpaceOnUse" gradientTransform="matrix(34.580144,0,0,-35.352774,104.4954,173.39945)" spreadMethod="pad" id="radialGradient294">
      <stop style="stop-opacity:1;stop-color:#e60013" offset="0" id="stop288"></stop>
      <stop style="stop-opacity:1;stop-color:#e60013" offset="0.74184688" id="stop290"></stop>
      <stop style="stop-opacity:1;stop-color:#f39700" offset="1" id="stop292"></stop>
    </radialGradient>
    <radialGradient fx="-1.4944896" fy="3.1599724" cx="-1.4944896" cy="3.1599724" r="1" gradientUnits="userSpaceOnUse" gradientTransform="matrix(34.553578,0,0,-35.325656,104.5331,173.40736)" spreadMethod="pad" id="radialGradient316">
      <stop style="stop-opacity:1;stop-color:#e60013" offset="0" id="stop310"></stop>
      <stop style="stop-opacity:1;stop-color:#e60013" offset="0.74184688" id="stop312"></stop>
      <stop style="stop-opacity:1;stop-color:#f39700" offset="1" id="stop314"></stop>
    </radialGradient>
    <radialGradient fx="-1.5026239" fy="3.1568599" cx="-1.5026239" cy="3.1568599" r="1" gradientUnits="userSpaceOnUse" gradientTransform="matrix(34.428553,0,0,-35.197806,104.53327,173.31303)" spreadMethod="pad" id="radialGradient338">
      <stop style="stop-opacity:1;stop-color:#e60013" offset="0" id="stop332"></stop>
      <stop style="stop-opacity:1;stop-color:#e60013" offset="0.74184688" id="stop334"></stop>
      <stop style="stop-opacity:1;stop-color:#f39700" offset="1" id="stop336"></stop>
    </radialGradient>
    <radialGradient fx="-1.4883902" fy="3.1579964" cx="-1.4883902" cy="3.1579964" r="1" gradientUnits="userSpaceOnUse" gradientTransform="matrix(34.689382,0,0,-35.464458,104.51021,173.52096)" spreadMethod="pad" id="radialGradient360">
      <stop style="stop-opacity:1;stop-color:#e60013" offset="0" id="stop354"></stop>
      <stop style="stop-opacity:1;stop-color:#e60013" offset="0.74184688" id="stop356"></stop>
      <stop style="stop-opacity:1;stop-color:#f39700" offset="1" id="stop358"></stop>
    </radialGradient>
    <radialGradient fx="-1.4951468" fy="3.1355064" cx="-1.4951468" cy="3.1355064" r="1" gradientUnits="userSpaceOnUse" gradientTransform="matrix(34.601499,0,0,-35.374616,104.48422,173.33988)" spreadMethod="pad" id="radialGradient382">
      <stop style="stop-opacity:1;stop-color:#e60013" offset="0" id="stop376"></stop>
      <stop style="stop-opacity:1;stop-color:#e60013" offset="0.74184688" id="stop378"></stop>
      <stop style="stop-opacity:1;stop-color:#f39700" offset="1" id="stop380"></stop>
    </radialGradient>
    <radialGradient fx="-1.4992224" fy="3.1513586" cx="-1.4992224" cy="3.1513586" r="1" gradientUnits="userSpaceOnUse" gradientTransform="matrix(34.498504,0,0,-35.269311,104.51401,173.35435)" spreadMethod="pad" id="radialGradient404">
      <stop style="stop-opacity:1;stop-color:#e60013" offset="0" id="stop398"></stop>
      <stop style="stop-opacity:1;stop-color:#e60013" offset="0.74184688" id="stop400"></stop>
      <stop style="stop-opacity:1;stop-color:#f39700" offset="1" id="stop402"></stop>
    </radialGradient>
    <radialGradient fx="-1.4974444" fy="3.1509817" cx="-1.4974444" cy="3.1509817" r="1" gradientUnits="userSpaceOnUse" gradientTransform="matrix(34.543277,0,0,-35.315094,104.51863,173.34608)" spreadMethod="pad" id="radialGradient426">
      <stop style="stop-opacity:1;stop-color:#e60013" offset="0" id="stop420"></stop>
      <stop style="stop-opacity:1;stop-color:#e60013" offset="0.74184688" id="stop422"></stop>
      <stop style="stop-opacity:1;stop-color:#f39700" offset="1" id="stop424"></stop>
    </radialGradient>
    <radialGradient fx="-1.4959621" fy="3.1384945" cx="-1.4959621" cy="3.1384945" r="1" gradientUnits="userSpaceOnUse" gradientTransform="matrix(34.518798,0,0,-35.290077,104.49489,173.3206)" spreadMethod="pad" id="radialGradient448">
      <stop style="stop-opacity:1;stop-color:#e60013" offset="0" id="stop442"></stop>
      <stop style="stop-opacity:1;stop-color:#e60013" offset="0.74184688" id="stop444"></stop>
      <stop style="stop-opacity:1;stop-color:#f39700" offset="1" id="stop446"></stop>
    </radialGradient>
    <radialGradient fx="-1.4941045" fy="3.2359662" cx="-1.4941045" cy="3.2359662" r="1" gradientUnits="userSpaceOnUse" gradientTransform="matrix(34.667722,0,0,-34.667643,104.49988,173.00148)" spreadMethod="pad" id="radialGradient470">
      <stop style="stop-opacity:1;stop-color:#e60013" offset="0" id="stop464"></stop>
      <stop style="stop-opacity:1;stop-color:#e60013" offset="0.74184688" id="stop466"></stop>
      <stop style="stop-opacity:1;stop-color:#f39700" offset="1" id="stop468"></stop>
    </radialGradient>
    <linearGradient xlink:href="#linearGradient17441" id="linearGradient17814" gradientUnits="userSpaceOnUse" gradientTransform="matrix(0.07035609,0,0,0.71189279,-1.7332984,-222.96459)" x1="76.185059" y1="260.77216" x2="89.664566" y2="260.77216"></linearGradient>
    <linearGradient xlink:href="#linearGradient17441" id="linearGradient17443" x1="76.185059" y1="260.77216" x2="89.664566" y2="260.77216" gradientUnits="userSpaceOnUse" gradientTransform="matrix(0.04874763,0,0,0.65080177,-1.2037494,-210.28841)"></linearGradient>
  </defs>
  <g id="layer1">
    <path style="fill:#231c1a;fill-opacity:1;stroke-width:0.044095" d="m 33.54677,70.124377 c -0.13945,-0.1109 -0.253547,-0.21723 -0.253547,-0.23623 0,-0.0507 0.13546,-0.22006 0.714722,-0.89338 0.285965,-0.3324 0.519937,-0.62341 0.519937,-0.6467 0,-0.0233 -0.08438,-0.10795 -0.187406,-0.1882 -0.10307,-0.0802 -0.197322,-0.15711 -0.209448,-0.17087 -0.01209,-0.0137 -0.260164,-0.22446 -0.551189,-0.46825 -0.714151,-0.59823 -0.68132,-0.54443 -0.47951,-0.78586 0.108609,-0.12994 0.20272,-0.20033 0.267782,-0.20033 0.07828,0 0.584419,0.37142 0.718819,0.52756 0.0293,0.0341 1.023981,0.86971 1.23526,1.0378 0.09147,0.0728 0.398983,0.33071 0.68338,0.57323 0.656759,0.56006 0.96004,0.79197 1.125112,0.86035 0.07208,0.0299 0.131091,0.0718 0.131091,0.0931 0,0.0214 -0.09617,0.13869 -0.213768,0.2607 -0.291724,0.30263 -0.280507,0.30744 -1.320514,-0.56633 -0.298183,-0.25055 -0.559077,-0.44919 -0.579781,-0.44148 -0.0207,0.008 -0.309359,0.33649 -0.641471,0.7306 -0.332113,0.39408 -0.626808,0.7164 -0.65489,0.71621 -0.0281,0 -0.16513,-0.091 -0.304579,-0.20201 z m 3.386989,-1.36429 c -0.282898,-0.30527 -0.600444,-1.15618 -0.61563,-1.64969 l -0.008,-0.24456 -0.174818,0.0218 c -0.09617,0.012 -0.343481,0.0197 -0.54963,0.0171 -0.570993,-0.007 -1.411037,-0.29419 -1.411037,-0.48228 0,-0.10732 0.09607,-0.47859 0.13498,-0.52177 0.0194,-0.0215 0.119216,0.002 0.225504,0.0523 0.590367,0.28138 1.327402,0.30088 1.802393,0.0477 0.147388,-0.0786 0.301433,-0.18476 0.342331,-0.23599 0.104098,-0.13044 0.277698,-0.24432 0.372401,-0.24432 0.06228,0 0.649999,0.42226 0.649999,0.467 0,0.006 -0.146147,0.12021 -0.324776,0.25466 -0.308309,0.23204 -0.326175,0.25513 -0.352525,0.45588 -0.06128,0.46662 0.159103,1.20991 0.511371,1.7248 0.07167,0.10478 0.123453,0.19664 0.115055,0.20415 -0.05718,0.0511 -0.488477,0.24473 -0.54505,0.24473 -0.03838,0 -0.116216,-0.0502 -0.17305,-0.11149 z" id="path1800-4-6"></path>
    <path style="fill:#231c1a;fill-opacity:1;stroke-width:0.044095" d="m 40.150009,74.477317 c -0.266783,-0.14127 -0.802537,-0.43574 -1.190573,-0.6544 -0.388036,-0.21866 -0.804735,-0.45299 -0.925998,-0.52074 -0.286056,-0.15982 -0.418899,-0.28122 -0.418899,-0.38279 0,-0.0764 0.129752,-0.34861 0.363584,-0.76274 0.215357,-0.38142 0.307801,-0.50709 0.373011,-0.50709 0.111878,0 0.58626,0.2801 0.58626,0.34616 0,0.0337 -0.06838,0.17375 -0.151916,0.31128 -0.286207,0.47115 -0.285127,0.49592 0.0286,0.66127 0.07988,0.042 0.423126,0.233 0.762657,0.42417 0.964718,0.54319 1.315685,0.72373 1.411047,0.72585 0.191105,0.004 0.218717,0.0671 0.109469,0.24967 -0.151096,0.25235 -0.268232,0.36838 -0.370702,0.36722 -0.05039,-5e-4 -0.309799,-0.1166 -0.576572,-0.25786 z m 0.845842,-0.94919 c -0.352526,-0.20225 -0.353806,-0.20442 -0.227943,-0.38964 0.06029,-0.0888 0.109667,-0.17769 0.109667,-0.19761 0,-0.0199 -0.180376,-0.13506 -0.400831,-0.25589 -0.220446,-0.12081 -0.450949,-0.2603 -0.512212,-0.30999 l -0.111396,-0.0904 0.139218,-0.27579 0.13923,-0.27579 0.229682,0.12755 c 0.126333,0.0702 0.355617,0.20019 0.509522,0.28896 0.273559,0.15778 0.403642,0.19807 0.403642,0.12505 0,-0.02 0.200771,-0.39204 0.446169,-0.82678 0.245398,-0.43475 0.594298,-1.05834 0.775354,-1.38573 0.181036,-0.32741 0.367603,-0.63484 0.414588,-0.68316 0.08518,-0.0877 0.08617,-0.0875 0.38215,0.0662 0.163201,0.0847 0.30609,0.16008 0.317536,0.16748 0.0214,0.0138 -0.03379,0.11813 -0.505293,0.95663 -0.150025,0.26677 -0.437361,0.78268 -0.638513,1.14647 -0.201151,0.36379 -0.429763,0.77055 -0.508031,0.90396 -0.07828,0.13338 -0.217696,0.38141 -0.30985,0.55118 -0.160383,0.29542 -0.316657,0.5086 -0.37077,0.50575 -0.01399,-8.2e-4 -0.14082,-0.0675 -0.281919,-0.14847 z m -1.992667,-1.77318 c -0.336692,-0.17601 -0.358426,-0.20645 -0.253616,-0.35516 0.105709,-0.15 0.287896,-0.50356 0.268061,-0.52024 -0.008,-0.007 -0.257934,-0.14532 -0.555957,-0.30843 -0.597826,-0.32719 -0.570494,-0.28159 -0.399903,-0.66724 0.04729,-0.10698 0.109908,-0.19408 0.13909,-0.1936 0.0292,5.1e-4 0.34103,0.1545 0.693008,0.34223 1.026069,0.54726 1.649367,0.84741 2.038932,0.98182 0.34502,0.11906 0.362965,0.13165 0.349768,0.24585 -0.01831,0.15873 -0.128492,0.36757 -0.210448,0.39902 -0.07677,0.0295 -0.662706,-0.15749 -1.064269,-0.33958 l -0.281077,-0.12743 -0.119095,0.20016 c -0.06547,0.11007 -0.153535,0.25809 -0.195613,0.32892 -0.09377,0.15777 -0.130913,0.15901 -0.408881,0.0137 z m 1.301149,-1.32036 c -0.560916,-0.15557 -1.117513,-0.61482 -1.258091,-1.03803 -0.164373,-0.49487 0.127552,-1.08704 0.628225,-1.27437 0.218726,-0.0818 0.282977,-0.0876 0.538333,-0.0481 0.34279,0.053 0.847042,0.29501 1.125621,0.54021 0.248867,0.21907 0.421056,0.56066 0.421056,0.8353 0,0.29365 -0.226633,0.72052 -0.47535,0.89531 -0.228094,0.16031 -0.601745,0.19449 -0.979794,0.0897 z m 0.569844,-0.7286 c 0.109888,-0.10988 0.135679,-0.1721 0.135679,-0.32732 0,-0.15572 -0.02579,-0.21739 -0.137378,-0.32901 -0.155245,-0.15526 -0.390657,-0.28509 -0.597996,-0.32982 -0.273529,-0.059 -0.543381,0.1897 -0.543381,0.50083 0,0.25246 0.494027,0.61403 0.845443,0.6188 0.123794,0.002 0.193934,-0.0297 0.297633,-0.13348 z" id="path1800-1-0"></path>
    <path style="fill:#231c1a;fill-opacity:1;stroke-width:0.044095" d="m 47.580026,76.346217 c -0.120395,-0.0328 -0.196282,-0.0782 -0.192953,-0.11551 0.003,-0.0338 0.08867,-0.40864 0.190374,-0.83305 0.10169,-0.42442 0.24091,-1.00977 0.309371,-1.30081 0.06847,-0.29102 0.179496,-0.76237 0.246747,-1.04741 0.06727,-0.28505 0.114076,-0.52462 0.10406,-0.53239 -0.0168,-0.013 -0.742064,-0.18063 -1.021922,-0.23615 -0.06697,-0.0133 -0.13209,-0.0408 -0.144657,-0.0612 -0.0126,-0.0204 0.006,-0.16179 0.04119,-0.31434 0.0353,-0.15255 0.05659,-0.28486 0.0474,-0.29401 -0.0304,-0.0303 -0.390425,0.20144 -1.12438,0.72415 -1.06998,0.76204 -1.069688,0.76179 -1.036727,0.89719 0.06338,0.26041 0.107857,0.43717 0.173038,0.68774 0.20471,0.78691 0.464495,1.89245 0.448469,1.90847 -0.04348,0.0434 -0.746172,-0.239 -0.798196,-0.32092 -0.05808,-0.0914 -0.153216,-0.45978 -0.352977,-1.36709 -0.06409,-0.29101 -0.144327,-0.617 -0.178319,-0.72439 -0.03399,-0.10739 -0.06179,-0.25126 -0.06179,-0.31968 0,-0.0684 -0.01711,-0.12443 -0.03789,-0.12443 -0.02081,0 -0.163693,0.3522 -0.317429,0.78267 -0.320145,0.8964 -0.465514,1.24569 -0.518419,1.24569 -0.09647,0 -0.646859,-0.21846 -0.661565,-0.26258 -0.009,-0.0275 0.025,-0.15825 0.07588,-0.29057 0.107828,-0.28038 0.197203,-0.522 0.439631,-1.1886 0.09697,-0.26678 0.27439,-0.75293 0.394155,-1.08033 0.119765,-0.3274 0.292245,-0.79965 0.383298,-1.04939 0.09107,-0.24975 0.197722,-0.49247 0.23704,-0.53935 0.07037,-0.084 0.07649,-0.0835 0.391175,0.0301 0.17583,0.0634 0.319687,0.13815 0.319687,0.16607 0,0.0588 -0.09786,0.34217 -0.403302,1.16733 -0.120193,0.32476 -0.212557,0.63125 -0.205259,0.68109 0.0125,0.0852 0.0226,0.0824 0.167611,-0.0438 0.3441,-0.29965 1.706581,-1.23985 1.829944,-1.26274 0.128504,-0.0239 0.742443,0.15122 0.835607,0.23832 0.023,0.0215 0.08887,0.0392 0.146267,0.0392 0.05738,0 0.356035,0.0606 0.663626,0.13466 0.307591,0.0741 0.718,0.17299 0.912014,0.21984 0.654188,0.15794 1.189593,0.26143 1.355923,0.26211 0.179438,8.4e-4 0.188304,0.0195 0.125303,0.26526 -0.0218,0.0849 -0.05119,0.20639 -0.06529,0.26998 -0.04328,0.19416 -0.293123,0.18683 -1.157972,-0.0339 -0.118574,-0.0303 -0.07507,-0.18106 -0.618049,2.14507 -0.05948,0.25464 -0.137939,0.59197 -0.174449,0.74962 -0.03649,0.15763 -0.09747,0.40071 -0.13549,0.54016 l -0.06907,0.25354 -0.181598,-0.006 c -0.09987,-0.003 -0.27088,-0.03 -0.380019,-0.0599 z" id="path1800-6-6"></path>
    <path style="fill:#231c1a;fill-opacity:1;stroke-width:0.044095" d="m 54.062001,77.156747 c -0.254645,-0.0205 -0.869774,-0.068 -1.366949,-0.10557 -1.205748,-0.091 -1.951421,-0.15105 -2.26288,-0.18214 l -0.256554,-0.0256 0.03,-0.29295 c 0.0165,-0.16114 0.04779,-0.31205 0.06967,-0.33536 0.0253,-0.0271 0.354576,-0.0141 0.910045,0.0358 0.478698,0.0429 1.118413,0.0963 1.421563,0.11828 0.303152,0.0221 0.918273,0.0707 1.36694,0.108 0.448669,0.0374 0.930908,0.055 1.071647,0.0394 0.252306,-0.0281 0.255576,-0.0271 0.233911,0.0767 -0.0121,0.0579 -0.0341,0.19897 -0.04899,0.3136 -0.0148,0.11463 -0.04078,0.21625 -0.05749,0.2258 -0.07808,0.0445 -0.692977,0.0578 -1.110855,0.0241 z m 0.529146,-1.52301 c -0.03639,-0.007 -0.363794,-0.0322 -0.727577,-0.0566 -0.641193,-0.0429 -1.925298,-0.14654 -2.645697,-0.21329 l -0.352766,-0.0327 0.008,-0.2147 c 0.0154,-0.43372 0.0156,-0.43391 0.402085,-0.41773 l 0.339929,0.0142 0.03069,-0.28599 c 0.0169,-0.15731 0.04338,-0.45811 0.05879,-0.66845 0.03818,-0.52023 0.05329,-0.53621 0.463114,-0.48958 0.181109,0.0206 0.325815,0.0571 0.321576,0.081 -0.03728,0.21054 -0.09567,1.41023 -0.06977,1.43431 0.01841,0.0171 0.241768,0.0381 0.496414,0.0467 l 0.462993,0.0156 0.0342,-0.46301 c 0.0188,-0.25463 0.04858,-0.57212 0.06618,-0.7055 l 0.03189,-0.24254 h 0.352757 0.352766 l -9.92e-4,0.17638 c -5e-4,0.097 -0.01619,0.4393 -0.03469,0.76066 l -0.03369,0.58426 0.233112,6.6e-4 c 0.394895,9.9e-4 0.431644,0.023 0.430955,0.25807 -9.92e-4,0.3504 -0.05299,0.44917 -0.219876,0.41836 z m -0.551188,-2.46908 c -0.07277,-0.008 -0.370403,-0.0347 -0.661428,-0.0588 -0.291035,-0.0241 -0.933366,-0.0777 -1.427423,-0.11917 l -0.898277,-0.0755 0.022,-0.27349 c 0.0121,-0.15043 0.03629,-0.29674 0.05389,-0.32516 0.03968,-0.0642 0.261414,-0.0512 2.690883,0.15716 0.610322,0.0524 0.882682,0.0595 1.002817,0.0263 0.09697,-0.0268 0.17509,-0.0291 0.189586,-0.006 0.04398,0.0712 -0.03418,0.57403 -0.09927,0.63918 -0.06049,0.0605 -0.494906,0.078 -0.872725,0.035 z" id="path1800-48-6"></path>
    <path style="fill:#231c1a;fill-opacity:1;stroke-width:0.044095" d="m 56.337217,77.036357 c -0.04949,-0.43699 -0.09627,-0.41153 0.943724,-0.51349 0.37591,-0.0369 0.780403,-0.0791 0.898877,-0.0939 l 0.215407,-0.027 -0.0303,-0.40158 c -0.0167,-0.22085 -0.03869,-0.40996 -0.04899,-0.42022 -0.01029,-0.0103 -0.298432,0.007 -0.640373,0.0382 -0.807203,0.0738 -0.764945,0.11086 -0.859329,-0.75366 -0.09048,-0.82842 -0.07877,-1.01498 0.06788,-1.08257 0.06059,-0.0279 0.616228,-0.10385 1.234658,-0.1687 1.575689,-0.16518 1.411048,-0.12383 1.411048,-0.3543 0,-0.10691 -0.0242,-0.24736 -0.05369,-0.31215 -0.05169,-0.11355 -0.06328,-0.11685 -0.319685,-0.0916 -0.246159,0.0242 -1.57948,0.16391 -2.215983,0.23229 -0.268822,0.0289 -0.27526,0.0271 -0.319687,-0.0898 -0.0249,-0.0656 -0.04529,-0.21353 -0.04529,-0.32875 v -0.20948 l 0.518108,-0.0551 c 2.840849,-0.30237 2.900792,-0.30663 3.019977,-0.21465 0.05279,0.0407 0.08957,0.21539 0.140709,0.66756 0.09607,0.84901 0.09247,1.0697 -0.0182,1.12894 -0.08907,0.0477 -0.593256,0.11255 -1.896796,0.24415 -0.400163,0.0404 -0.743243,0.0831 -0.762406,0.0949 -0.03829,0.0236 0.007,0.5466 0.05119,0.59602 0.0292,0.0324 1.943612,-0.14967 2.426941,-0.23084 0.155465,-0.0261 0.336432,-0.0753 0.402142,-0.10926 l 0.119475,-0.0618 0.0278,0.20275 c 0.07467,0.54483 0.04428,0.56948 -0.81929,0.6644 -0.346558,0.0381 -0.641143,0.0859 -0.654619,0.10609 -0.0314,0.0472 0.04178,0.75471 0.08237,0.79581 0.04228,0.0428 1.567801,-0.12831 1.836632,-0.20605 0.120375,-0.0348 0.225034,-0.0571 0.232573,-0.0496 0.03759,0.0376 0.05509,0.58523 0.0204,0.63581 -0.0221,0.0321 -0.118425,0.076 -0.214156,0.0975 -0.382059,0.0859 -2.716407,0.33065 -3.600868,0.37761 -0.383529,0.0204 -0.584489,0.0493 -0.625197,0.0899 -0.03439,0.0344 -0.152936,0.06 -0.277939,0.06 h -0.217927 z" id="path1800-67-3"></path>
    <path style="fill:#231c1a;fill-opacity:1;stroke-width:0.044095" d="m 63.961348,76.946767 c -0.533804,-0.14018 -0.815761,-0.52574 -0.815761,-1.1155 0,-0.56214 0.398663,-0.94809 1.287263,-1.2462 0.601045,-0.20163 1.137508,-0.24938 1.521256,-0.13542 0.410279,0.12183 0.721006,0.60175 0.718126,1.1091 -9.9e-4,0.17851 -0.114837,0.45894 -0.249664,0.61516 -0.108434,0.12564 -0.457657,0.35686 -0.702695,0.46526 -0.544719,0.24096 -1.425572,0.39504 -1.758525,0.3076 z m 1.062019,-0.70888 c 0.433525,-0.14248 0.569375,-0.21096 0.715961,-0.36089 0.116766,-0.11943 0.13991,-0.17691 0.13869,-0.34443 -0.002,-0.23752 -0.09557,-0.37085 -0.329734,-0.4687 -0.381689,-0.15947 -1.450656,0.20231 -1.60616,0.5436 -0.09905,0.21742 -0.0112,0.50904 0.190344,0.63195 0.181377,0.1106 0.551679,0.10998 0.890899,-9.9e-4 z m -3.00598,-1.3625 c -0.01399,-0.0645 -0.04589,-0.17133 -0.07098,-0.23754 -0.09857,-0.26089 -0.04208,-0.3109 0.54739,-0.48483 1.113954,-0.32868 1.336089,-0.39809 1.36855,-0.42764 0.01831,-0.0167 0.002,-0.12843 -0.03679,-0.24835 -0.03859,-0.11991 -0.07718,-0.24131 -0.08578,-0.26978 -0.0108,-0.0359 -0.16818,-0.006 -0.514359,0.0979 -0.633196,0.19002 -0.805104,0.19601 -0.888471,0.0311 -0.103299,-0.20441 -0.520966,-1.63869 -0.50612,-1.73806 0.011,-0.0735 0.07698,-0.11217 0.308879,-0.18108 0.162203,-0.0482 0.323085,-0.0769 0.357516,-0.0637 0.03439,0.0132 0.07568,0.0901 0.09168,0.17112 0.0275,0.13919 0.146927,0.55134 0.27259,0.9408 0.07718,0.23934 0.003,0.24834 1.364441,-0.1651 0.885151,-0.26881 1.092041,-0.34018 1.241567,-0.4284 0.08387,-0.0495 0.168041,-0.09 0.187057,-0.09 0.04868,0 0.193592,0.49656 0.174219,0.59711 -0.0187,0.0973 -0.394596,0.2674 -0.977364,0.44233 -0.320368,0.0962 -0.383429,0.12938 -0.358696,0.18901 0.0165,0.0398 0.04528,0.13189 0.06399,0.20464 0.06019,0.23472 0.09777,0.29448 0.171429,0.27267 1.011063,-0.29953 1.484948,-0.45593 1.689749,-0.55766 l 0.251698,-0.12503 0.0679,0.23384 c 0.0875,0.3008 0.0857,0.38906 -0.01,0.47537 -0.068,0.0616 -0.800078,0.32203 -1.311259,0.46648 -0.09697,0.0274 -0.364894,0.10817 -0.595285,0.17943 -0.230403,0.0713 -0.567725,0.17336 -0.749622,0.22688 -0.181887,0.0534 -0.47953,0.14316 -0.661427,0.19924 -0.181887,0.056 -0.563954,0.17047 -0.849022,0.25418 l -0.518308,0.15222 z" id="path1800-67-9-2"></path>
    <path style="fill:#231c1a;fill-opacity:1;stroke-width:0.044095" d="m 70.490242,73.997627 c -0.10806,-0.21221 -0.30757,-0.59418 -0.44334,-0.84883 -0.13579,-0.25464 -0.27877,-0.5374 -0.31776,-0.62837 -0.0704,-0.16417 -0.13363,-0.20144 -0.21402,-0.12606 -0.0422,0.0397 -1.73046,0.93081 -1.76333,0.93081 -0.0356,0 -0.24078,-0.47393 -0.24044,-0.55544 0,-0.0462 0.0448,-0.10502 0.0992,-0.1308 0.19565,-0.0927 2.04005,-1.04787 2.08314,-1.07877 0.0243,-0.0174 0.36159,-0.19552 0.74962,-0.39584 0.96608,-0.49872 1.1319,-0.59452 1.25436,-0.72486 0.0583,-0.062 0.12725,-0.11252 0.15335,-0.11223 0.0261,5e-4 0.10071,0.12431 0.16585,0.27559 0.17354,0.40316 0.14173,0.43571 -1.00032,1.02316 -0.36378,0.18713 -0.66789,0.34655 -0.67578,0.35427 -0.008,0.008 0.21615,0.45462 0.4979,0.99308 0.58668,1.12123 0.58252,1.08169 0.13601,1.29311 -0.13595,0.0644 -0.25634,0.11701 -0.26756,0.11701 -0.0112,0 -0.10882,-0.17362 -0.21689,-0.38583 z m -0.10259,-3.28361 c -0.0258,-0.031 -0.1068,-0.20541 -0.18006,-0.38731 -0.10855,-0.26951 -0.46296,-0.99163 -0.516,-1.05135 -0.007,-0.008 -0.38694,0.17943 -0.84347,0.41719 -1.61372,0.84048 -1.68995,0.8761 -1.7701,0.82671 -0.0408,-0.0251 -0.12805,-0.1432 -0.19401,-0.26242 -0.14377,-0.25996 -0.16677,-0.23294 0.47265,-0.55526 0.24252,-0.12223 0.67908,-0.34669 0.97009,-0.4988 1.6207,-0.84705 1.64944,-0.85818 1.80729,-0.70033 0.0917,0.0917 0.60108,1.10668 0.77473,1.54379 0.073,0.18379 0.12196,0.36812 0.10878,0.40963 -0.0132,0.0414 -0.13728,0.1237 -0.27579,0.18262 -0.1385,0.0589 -0.2643,0.11275 -0.27954,0.11963 -0.0152,0.007 -0.0488,-0.013 -0.0746,-0.044 z" id="path1800-67-6-5"></path>
    <path id="path1800-67-4-7" style="fill:#231c1a;fill-opacity:1;stroke-width:0.044095" d="m 74.202872,64.981237 c -0.11787,0.0355 -0.51863,0.38444 -0.51863,0.45155 0,0.0429 0.22844,0.37295 0.50762,0.73325 0.27917,0.36028 0.61153,0.79103 0.73861,0.95717 0.12704,0.16614 0.33018,0.42759 0.45144,0.58099 0.12126,0.1534 0.36674,0.46884 0.5455,0.70103 0.17876,0.2322 0.33432,0.42219 0.34569,0.42219 0.0114,0 0.12814,-0.0916 0.25933,-0.20376 0.15593,-0.13323 0.23848,-0.23773 0.23848,-0.3018 0,-0.0952 -0.0928,-0.22586 -0.80354,-1.12984 l -0.34043,-0.43312 0.26327,-0.22906 c 0.15181,-0.13205 0.26336,-0.2651 0.26336,-0.3142 0,-0.0936 -0.2924,-0.47488 -0.3643,-0.47488 -0.0248,0 -0.14957,0.0893 -0.27732,0.19843 -0.12773,0.10912 -0.25928,0.19842 -0.2923,0.19842 -0.033,0 -0.16881,-0.14061 -0.30169,-0.31252 -0.50724,-0.65632 -0.67606,-0.85559 -0.71509,-0.84385 z m -1.11072,1.30857 c -0.0487,0.0132 -0.18398,0.11674 -0.32581,0.25172 -0.1621,0.15426 -0.46197,0.40932 -0.66642,0.5667 -0.75299,0.57966 -0.8184,0.63946 -0.83271,0.7614 -0.0137,0.11691 0.0648,0.2493 0.40055,0.67564 0.15272,0.19391 0.57084,0.73832 0.84323,1.0979 0.0918,0.12126 0.2294,0.2552 0.30565,0.29764 0.16245,0.0904 0.14509,0.0886 0.32977,0.0356 0.34383,-0.0986 1.76713,-1.37219 1.96834,-1.76129 0.0869,-0.16807 0.0591,-0.23503 -0.15717,-0.37818 l -0.17526,-0.116 -0.47187,0.48065 c -0.25952,0.26436 -0.61843,0.59709 -0.79759,0.73946 l -0.32571,0.25889 -0.15211,-0.17518 c -0.17215,-0.19833 -0.59695,-0.74501 -0.76019,-0.97835 l -0.1086,-0.15529 0.11445,-0.094 c 0.063,-0.0517 0.33503,-0.26922 0.60467,-0.48333 0.29708,-0.23589 0.5006,-0.43023 0.5164,-0.49323 0.0184,-0.0735 -0.014,-0.16225 -0.11085,-0.30297 -0.0753,-0.10947 -0.1578,-0.21194 -0.18334,-0.22771 -0.003,-0.002 -0.008,-0.002 -0.0154,0 z m 4.41907,2.57128 -0.293,0.2848 c -0.16112,0.15661 -0.3444,0.32264 -0.40728,0.36896 -0.13732,0.10122 -0.62983,0.47917 -1.14053,0.87527 -0.20512,0.15911 -0.3975,0.28929 -0.4275,0.28929 -0.0299,0 -0.11026,-0.0761 -0.17828,-0.16907 -0.41883,-0.57271 -0.60347,-0.80101 -0.64799,-0.80101 -0.0413,0 -0.37625,0.25164 -0.527,0.39589 -0.0204,0.0196 -0.0123,0.0824 0.0179,0.13953 0.0626,0.11798 0.82149,1.11029 0.96475,1.26144 0.18942,0.19984 0.26115,0.16783 1.11117,-0.49606 0.0931,-0.0728 0.47499,-0.36562 0.84847,-0.65085 0.70611,-0.53921 0.99714,-0.81602 0.99714,-0.94829 0,-0.0427 -0.0716,-0.18388 -0.15898,-0.31375 z"></path>
    <path d="m 80.917032,32.692481 c -0.73919,-2.012812 -1.70825,-3.951935 -2.90923,-5.771574 0.0723,-0.03558 0.14559,-0.06867 0.2168,-0.106448 1.35751,2.185532 3.78028,3.645954 6.53757,3.645954 0.0575,0 0.11349,-0.006 0.17166,-0.007 -1.05646,0.702195 -2.38152,1.453735 -4.0168,2.239116 m -63.276543,5.105328 c -0.148407,-1.541152 2.847187,-4.637556 13.103339,-8.580683 h 0.755069 c -2.001525,3.910337 -2.998763,8.186233 -3.024496,12.462473 -4.736625,-0.4216 -8.320897,-1.33458 -10.034785,-2.71183 -0.492807,-0.39727 -0.762469,-0.79066 -0.799127,-1.16996 M 104.01709,20.494453 111.12501,15.06446 H 97.849652 l -1.36596,3.556782 -1.3286,-3.556782 h -5.96122 v 1.423065 c -1.25351,-0.887601 -2.78162,-1.411078 -4.4317,-1.411078 -1.2877,0 -2.50174,0.319727 -3.57019,0.881973 -1.35749,-2.186592 -3.78028,-3.646663 -6.53827,-3.646663 -2.84578,0 -5.3327,1.554545 -6.66377,3.857461 C 66.893302,15.468792 65.468468,15.06446 63.85117,15.06446 L 46.138818,15.03377 v 0.0166 c -1.199929,0 -2.334649,0.322185 -3.330128,0.904174 V 15.050368 H 29.770213 c -1.420245,-1.772041 -3.516602,-2.815457 -5.757477,-2.815457 -1.794965,0 -3.497218,0.672573 -4.842375,1.860874 C 15.796528,10.172753 8.5486556,9.0972576 4.8522756,10.69763 h -8.3e-4 c -2.152051,0.930618 -3.704126,2.867281 -3.704126,5.343977 0,0.05468 -0.46742401,3.940298 4.304802,6.481866 1.880969,1.002527 3.857111,1.614829 5.4169554,2.146753 1.132949,0.386346 3.095357,0.927438 2.936024,1.276416 9.91e-4,0.002 9.91e-4,0.004 0.002,0.006 -0.659188,0.883022 -5.4673734,-0.132541 -5.4673734,-0.132541 L 0.00508459,39.093327 c 0,0 5.90729301,-1.01099 11.62141341,-3.080896 -0.616179,1.155152 -0.924979,2.371646 -0.802656,3.637496 0.157924,1.64901 1.022612,3.1165 2.568359,4.35943 2.985717,2.40091 8.626169,3.90751 15.857465,4.44297 1.355034,5.67604 4.468725,10.98123 9.246587,14.97547 5.651018,4.72709 12.747313,6.93342 19.982139,6.21501 7.170675,-0.7131 13.6187,-4.22335 18.15792,-9.88494 4.78774,-5.96966 6.66553,-13.42022 5.82833,-20.57713 0.32713,-0.14981 0.65672,-0.29856 0.97467,-0.4512 4.68481,-2.240165 10.03197,-5.559706 11.57243,-9.532794 H 107.8433 l -3.82609,-2.76893 z" style="fill:#231916;fill-opacity:1;fill-rule:nonzero;stroke:none;stroke-width:0.352507" id="path20"></path>
    <path d="m 40.112589,41.820107 c 0.340871,-0.0162 0.68316,-0.0342 1.02861,-0.0538 -1.494274,-4.708426 -1.533042,-9.015324 -1.003576,-12.54919 h -0.639104 c -0.668345,3.755942 -0.653189,8.1196 0.61407,12.60312" style="fill:#ffffff;fill-opacity:1;fill-rule:nonzero;stroke:none;stroke-width:0.352507" id="path24"></path>
    <path d="m 75.836332,27.80613 c -1.17983,3.070662 -2.49856,5.852279 -3.90189,8.372692 0.70607,-0.225245 1.39944,-0.455087 2.07661,-0.689149 1.42518,-2.953986 2.19506,-5.325993 2.53981,-6.543898 0.89326,1.50907 1.61766,3.097104 2.17144,4.735196 0.16604,-0.07018 0.33664,-0.139949 0.49914,-0.211497 0.11492,-0.04969 0.22209,-0.09937 0.33453,-0.149466 -0.74696,-2.05229 -1.75195,-4.022434 -3.00652,-5.861457 -0.27425,0.07048 -0.55555,0.123374 -0.84074,0.162862 0.0416,0.06208 0.086,0.123025 0.12762,0.184717" style="fill:#ffffff;fill-opacity:1;fill-rule:nonzero;stroke:none;stroke-width:0.352507" id="path28"></path>
    <path d="m 34.846508,29.216986 h -1.634571 c -2.166147,3.913867 -3.235654,8.246851 -3.251509,12.575981 0.588327,0.0381 1.189702,0.0701 1.807641,0.0944 -0.116326,-4.35133 0.893248,-8.73755 3.078439,-12.67045" style="fill:#ffffff;fill-opacity:1;fill-rule:nonzero;stroke:none;stroke-width:0.352507" id="path32"></path>
    <path d="m 53.749624,40.395267 c 0.213616,-0.0342 0.425124,-0.0704 0.637691,-0.10539 0.130774,-0.42723 0.267904,-0.85659 0.41807,-1.28946 -0.434293,0.20057 -0.85976,0.39728 -1.275368,0.58938 -0.09237,0.29223 -0.182247,0.58552 -0.266853,0.87951 0.162155,-0.0247 0.323957,-0.0483 0.48646,-0.074" style="fill:#ffffff;fill-opacity:1;fill-rule:nonzero;stroke:none;stroke-width:0.352507" id="path36"></path>
    <path d="m 74.674162,57.189177 c -1.71564,2.1404 -3.71719,3.90329 -5.90271,5.28264 -5.921399,0.15722 -11.544916,-1.40191 -16.355919,-4.86245 1.356093,-0.66553 2.645557,-1.39028 3.86734,-2.16474 8.17426,5.82374 19.247519,-3.14857 22.642489,-6.22948 -0.88759,2.83063 -2.29903,5.53893 -4.2512,7.97403 m -24.952121,8.0283 c 0.433583,-0.64085 1.068087,-2.97584 -1.2299,-6.00104 0.311268,-0.11491 0.632754,-0.24041 0.963398,-0.37436 0.718059,-0.26051 1.557023,-0.57388 2.065687,-0.8076 7.834439,5.83009 15.131666,4.92662 17.076436,4.54309 -5.648898,3.49297 -12.506194,4.42534 -18.875621,2.63991 m -0.913703,-0.27637 c -2.869742,-0.92989 -5.623166,-2.41958 -8.099174,-4.4895 -0.172368,-0.14454 -0.340508,-0.29151 -0.507961,-0.43957 1.191122,0.43957 3.063275,0.65672 5.909063,-0.0542 0.499494,-0.0945 1.018033,-0.2175 1.553136,-0.37506 1.33706,1.56652 1.834794,3.53633 1.144936,5.35842 m 30.168514,-15.89586 c -7.06422,5.68944 -15.992489,9.93924 -21.920935,5.89742 1.606371,-1.07022 3.094305,-2.22362 4.470133,-3.43129 2.887017,-2.40162 5.253382,-4.95658 7.190052,-7.46146 -0.85624,0.2344 -1.72551,0.46106 -2.604665,0.68067 -3.736206,4.08413 -7.200982,7.03741 -10.326299,9.1595 -1.714938,-1.72092 -2.474947,-3.9967 -2.533109,-6.61476 -0.346159,0.0511 -0.690908,0.10118 -1.035657,0.15016 0.07828,2.66423 0.865046,5.11098 2.80277,6.9722 -1.37055,0.88867 -2.673048,1.61659 -3.89977,2.21022 -1.701543,-1.39064 -3.290998,-3.03049 -4.738035,-4.94107 -0.852711,-1.1245 -1.6039,-2.24159 -2.264847,-3.34739 -0.399384,0.0309 -0.797017,0.0603 -1.192173,0.0875 0.681741,1.16716 1.466421,2.32619 2.36602,3.46971 1.630332,2.07203 3.292408,3.76194 4.943533,5.14199 -0.970445,0.43254 -1.890836,0.78009 -2.756244,1.05928 -5.527283,-5.66368 -9.184534,-4.03089 -14.152392,-9.43162 -0.09727,-0.002 -0.191764,-0.006 -0.288706,-0.009 1.206627,1.54926 3.01357,3.4757 5.228722,4.63578 2.263088,1.1816 5.767695,2.39351 8.271541,5.08454 -3.794011,1.05117 -6.417714,0.74449 -7.551372,0.50409 -2.905361,-2.93391 -4.954472,-6.46249 -6.111393,-10.22865 -0.703255,-0.0205 -1.396281,-0.0476 -2.074855,-0.0836 1.334941,5.2044 4.243471,10.05662 8.650142,13.74099 10.989718,9.19228 27.11404,7.64161 36.018339,-3.46087 4.43522,-5.53082 6.239,-12.3902 5.57381,-19.01835 -0.34122,0.14698 -0.68561,0.29293 -1.03565,0.43675 0.17941,2.95257 -0.15475,5.93582 -1.02896,8.79711" style="fill:#ffffff;fill-opacity:1;fill-rule:nonzero;stroke:none;stroke-width:0.352507" id="path40"></path>
    <path d="m 84.762242,25.179366 c -1.3293,0 -2.41114,-1.081133 -2.41114,-2.411135 0,-1.329301 1.08184,-2.412194 2.41114,-2.412194 1.32965,0 2.41184,1.082893 2.41184,2.412194 0,1.330002 -1.08219,2.411135 -2.41184,2.411135 m -10.10846,-2.763291 c -0.82416,0 -1.55172,-0.416309 -1.98708,-1.048354 1.50909,-0.40678 2.96281,-0.71911 4.3598,-0.945065 -0.19918,1.13119 -1.18619,1.993419 -2.37272,1.993419 m 0,-4.823681 c 0.76318,0 1.4428,0.357447 1.88555,0.912284 -1.33211,0.146297 -2.70971,0.356387 -4.13277,0.632045 0.34933,-0.902415 1.22355,-1.544329 2.24722,-1.544329 M 63.625996,28.149569 c -0.628516,0.280237 -1.895426,0.769875 -2.809468,1.111094 v -2.237705 h 3.138003 c 0.468832,0 0.936956,0.562255 -0.328535,1.126611 m -2.809468,-7.243973 h 2.106574 c 0.0059,0 0.738145,0.08208 0.738145,0.533684 0,0.0272 -0.01019,0.05499 -0.0236,0.08318 -0.78292,0.271432 -1.575708,0.560837 -2.381883,0.869987 -0.144888,0.0296 -0.294344,0.05039 -0.439221,0.05039 z m -36.803722,1.588036 c -1.277488,0 -2.318433,-1.111096 -2.318433,-2.476356 0,-1.366301 1.040945,-2.477046 2.318433,-2.477046 1.277127,0 2.316313,1.110745 2.316313,2.477046 0,1.36526 -1.039186,2.476356 -2.316313,2.476356 m -6.22913,-1.412138 c -0.918981,-0.812882 -2.041012,-1.480876 -3.35304,-1.943361 -2.484103,-0.877035 -4.23817,-1.420945 -4.9477634,-2.181302 -0.438171,-0.469883 -0.01731,-1.947591 2.5006694,-0.79208 1.188652,0.544621 1.208396,2.01809 1.208396,2.01809 0,0 4.361546,0.004 4.770106,9.91e-4 -0.17132,0.597845 -0.268612,1.209089 -0.268612,1.833024 0,0.363085 0.03599,0.717351 0.09028,1.06421 m 85.052938,-1.117443 4.19586,-3.720332 h -8.372348 c 0,0 -1.40015,3.650192 -2.19046,5.70846 -0.7706,-2.059678 -2.13444,-5.70846 -2.13444,-5.70846 h -3.9611 v 3.237053 c -1.13224,-1.925387 -3.22086,-3.224367 -5.61189,-3.224367 -1.52494,0 -2.9258,0.530525 -4.0369,1.412137 -0.94155,-2.438978 -3.30438,-4.17613 -6.07155,-4.17613 -2.94273,0 -5.43319,1.963456 -6.23689,4.648132 -0.88726,-1.16185 -2.539099,-1.896825 -4.565647,-1.896825 h -13.05154 l 4.85753,4.23711 v 1.433281 l -2.272245,1.257743 -4.698908,-2.027257 1.222144,3.084067 h -3.18313 c -1.051881,0 -1.908111,-0.959519 -1.908111,-2.140063 0,-1.180185 0.85623,-2.140405 1.908111,-2.140405 h 2.845778 v -3.718223 h -3.431996 c -1.878851,0 -3.501447,0.935197 -4.511011,2.381874 V 16.229544 H 34.661683 V 19.6996 c -0.78785,-1.519288 -1.799194,-3.470048 -1.799194,-3.470048 h -3.617413 v 0.09168 c -1.137187,-1.752298 -3.057636,-2.906049 -5.23224,-2.906049 -1.891547,0 -3.658311,0.88303 -4.853302,2.384702 C 16.09414,11.311086 8.6125576,10.355446 5.3212096,11.780269 c -1.740323,0.752241 -2.914869,2.443566 -2.994884,4.310431 -0.05249,1.245396 0.354266,3.601547 3.685802,5.393683 1.791436,0.964798 3.722461,1.551717 5.2403474,2.069554 1.918339,0.65425 3.465837,1.162211 3.679105,2.031486 0.641913,2.611708 -5.9964764,1.533043 -5.9964764,1.533043 l -6.046533,9.723498 c 0,0 11.3020464,-1.745611 15.5236534,-5.54244 1.300749,-1.169608 2.009282,-2.833432 2.009282,-4.61922 0,-0.44169 -0.04579,-0.891839 -0.133951,-1.343049 1.045533,0.801598 2.330768,1.281006 3.725281,1.281006 2.174604,0 4.095053,-1.153392 5.23224,-2.906409 v 4.324536 h 3.72951 v -2.729802 c 0.58023,1.130839 1.399801,2.729802 1.399801,2.729802 h 7.25352 v -2.461541 c 1.019092,1.484396 2.654364,2.461541 4.511011,2.461541 h 2.835911 l -1.524235,1.858756 4.889601,-0.515359 1.254574,3.924083 2.003993,-4.024543 0.05848,0.01269 v 2.984309 l -3.845127,6.526633 2.232058,-0.98138 c 0.452978,-0.19917 11.118391,-4.893475 12.764599,-5.694362 0.93026,-0.451917 3.76194,-1.828442 3.76194,-4.967856 0,-2.058278 -1.39593,-3.191226 -2.84332,-3.754882 0.21503,-0.192824 0.41102,-0.413138 0.58692,-0.65425 0.12831,-0.04719 0.25664,-0.09477 0.38424,-0.140298 1.00746,2.294809 3.29276,3.905758 5.95523,3.905758 1.52495,0 2.9258,-0.530165 4.03689,-1.411787 0.9419,2.438987 3.30439,4.176129 6.07157,4.176129 2.39103,0 4.47965,-1.29863 5.61189,-3.224716 v 1.960286 h 14.003648 l -1.54117,-1.514717 z" style="fill:#ffffff;fill-opacity:1;fill-rule:nonzero;stroke:none;stroke-width:0.352507" id="path44"></path>
    <path d="m 57.0764,24.126144 c 1.018393,-0.453317 2.018801,-0.875973 3.003704,-1.271837 h -0.05009 v -2.735431 h 2.893018 c 0.418078,0 1.382176,0.287636 1.509788,1.130479 1.331761,-0.444508 2.630032,-0.834735 3.895892,-1.174547 -0.0839,-1.824216 -1.966274,-3.044229 -4.477532,-3.044229 H 52.898475 l 3.545504,3.092526 v 1.355734 l 2.101995,-1.163269 z" style="fill:#e60013;fill-opacity:1;fill-rule:nonzero;stroke:none;stroke-width:0.352507" id="path48"></path>
    <path d="m 63.954421,26.236378 c 0.448039,0 1.429062,0.07398 1.429062,1.015923 0,0.942245 -0.695497,1.275367 -1.429062,1.612008 -1.076906,0.493157 -3.924444,1.524585 -3.924444,1.524585 v -3.872269 c -0.786439,0.423006 -1.584166,0.868217 -2.392811,1.340218 l 1.384646,2.160161 -2.577876,-0.555198 v 3.028724 l -2.716766,4.611117 c 0,0 11.085959,-4.878319 12.737795,-5.680975 1.207687,-0.586568 3.319547,-1.784028 3.319547,-4.260724 0,-2.751656 -3.0756,-3.310373 -3.985431,-3.415422 -1.687797,0.712763 -3.434456,1.53939 -5.239638,2.491852 z" style="fill:#e60013;fill-opacity:1;fill-rule:nonzero;stroke:none;stroke-width:0.352507" id="path52"></path>
    <path d="m 24.012665,23.291209 c -1.720226,0 -3.114738,-1.466432 -3.114738,-3.274074 0,-1.808001 1.394512,-3.274412 3.114738,-3.274412 1.719168,0 3.11368,1.466411 3.11368,3.274412 0,1.807642 -1.394512,3.274074 -3.11368,3.274074 m 0,-9.078066 c -1.910941,0 -3.594498,1.020501 -4.58505,2.571168 l -0.09627,0.165681 c -0.04438,0.07508 -0.08497,0.152285 -0.126553,0.229484 0.0059,0.01159 0.01299,0.0233 0.0187,0.03529 l -0.08707,0.151576 c -9.92e-4,9.9e-4 -0.0134,0.002 -0.03,0.004 -0.390226,0.794197 -0.615471,1.692025 -0.615471,2.647316 0,3.206032 2.471768,5.804344 5.521647,5.804344 3.048468,0 5.520595,-2.598312 5.520595,-5.804344 0,-3.205683 -2.472127,-5.803994 -5.520595,-5.803994" style="fill:#e60013;fill-opacity:1;fill-rule:nonzero;stroke:none;stroke-width:0.352507" id="path56"></path>
    <path d="m 5.6374176,12.511919 c -2.793254,1.26796 -4.137712,5.639372 0.7526,8.270823 4.3220664,2.327239 8.7065334,2.478117 9.3079084,4.585029 1.118154,3.911748 -6.3613114,2.628283 -6.3613114,2.628283 l -4.490926,7.450891 c 0,0 8.9511844,-1.067738 13.0338994,-4.739774 3.076671,-2.767171 2.224311,-8.72203 -3.714005,-10.818029 -2.385401,-0.841433 -4.5649454,-1.634561 -5.2269514,-2.288459 -0.95564,-0.943305 -0.653189,-2.074144 0.370831,-2.451674 1.6173094,-0.595027 4.1599254,0.371891 4.6213604,2.203156 0,0.04509 4.770105,0.04719 5.175487,0.0176 0.03209,-0.06418 0.06488,-0.127612 0.09867,-0.190354 C 16.871392,12.222131 9.0898256,10.943954 5.6373856,12.511895" style="fill:#e60013;fill-opacity:1;fill-rule:nonzero;stroke:none;stroke-width:0.352507" id="path60"></path>
    <path d="M 35.459269,22.968483 32.377661,17.02737 h -2.335349 v 10.211715 h 2.134418 v -5.23505 l 2.684684,5.23505 h 2.509487 V 17.02737 h -1.911632 z" style="fill:#e60013;fill-opacity:1;fill-rule:nonzero;stroke:none;stroke-width:0.352507" id="path64"></path>
    <path d="m 38.167958,27.239044 h 2.662823 V 17.027331 h -2.662823 z" style="fill:#e60013;fill-opacity:1;fill-rule:nonzero;stroke:none;stroke-width:0.352507" id="path66"></path>
    <path d="m 50.224424,25.026512 h -3.499318 c -1.494623,0 -2.705489,-1.315895 -2.705489,-2.937773 0,-1.622225 1.210866,-2.93778 2.705489,-2.93778 h 2.048411 v -2.123488 h -2.634629 c -2.649086,0 -4.796899,2.18518 -4.796899,5.061268 0,2.875731 2.147813,5.150096 4.796899,5.150096 h 3.48981 l 0.992298,-1.210145 z" style="fill:#e60013;fill-opacity:1;fill-rule:nonzero;stroke:none;stroke-width:0.352507" id="path70"></path>
    <path d="m 99.409812,27.229357 h 2.640608 v -0.1336 c -0.72053,-0.665176 -1.60037,-1.394163 -2.640608,-2.125259 z" style="fill:#e60013;fill-opacity:1;fill-rule:nonzero;stroke:none;stroke-width:0.352507" id="path74"></path>
    <path d="m 102.05049,19.609365 2.90853,-2.578576 h -5.757478 l -1.97227,5.135289 c 1.86298,1.074435 3.465828,2.304675 4.821218,3.605775 z" style="fill:#e60013;fill-opacity:1;fill-rule:nonzero;stroke:none;stroke-width:0.352507" id="path78"></path>
    <path d="m 93.790022,17.030609 h -2.62863 v 2.551075 c 1.49884,0.4431 2.89088,0.981731 4.17823,1.593683 z" style="fill:#e60013;fill-opacity:1;fill-rule:nonzero;stroke:none;stroke-width:0.352507" id="path82"></path>
    <path d="m 96.459292,24.172111 -0.46283,-1.238347 c -1.42554,-0.714532 -3.03719,-1.363492 -4.83497,-1.873563 v 6.169187 h 2.2028 v -4.579043 l 1.97298,4.579043 h 2.62617 l 1.07198,-2.516884 c -0.68704,-0.465305 -1.43788,-0.92744 -2.25677,-1.371599 z" style="fill:#e60013;fill-opacity:1;fill-rule:nonzero;stroke:none;stroke-width:0.352507" id="path86"></path>
    <path d="m 74.653852,16.805994 c 1.18477,0 2.21797,0.646142 2.76999,1.604602 0.91192,-0.08288 1.802,-0.13571 2.67023,-0.161803 -0.74062,-2.301857 -2.89196,-3.969909 -5.44022,-3.969909 -3.13308,0 -5.67464,2.516533 -5.72117,5.637962 0.88303,-0.227364 1.75054,-0.430755 2.60184,-0.610533 0.31833,-1.430112 1.59298,-2.500319 3.11933,-2.500319" style="fill:#e60013;fill-opacity:1;fill-rule:nonzero;stroke:none;stroke-width:0.352507" id="path90"></path>
    <path d="m 87.960592,22.768121 c 0,1.766404 -1.43224,3.198635 -3.19828,3.198635 -1.7657,0 -3.19829,-1.432231 -3.19829,-3.198635 0,-1.227421 0.69302,-2.293398 1.70894,-2.829201 -1.70506,-0.0215 -3.51553,0.08568 -5.43563,0.354614 -0.14735,1.631395 -1.51542,2.90923 -3.18348,2.90923 -1.19217,0 -2.2303,-0.654258 -2.78021,-1.621175 -0.79842,0.230181 -1.61061,0.483288 -2.44005,0.768106 0.89678,1.991307 2.89443,3.38088 5.22026,3.38088 1.79813,0 3.40062,-0.831206 4.45039,-2.128777 0.40502,2.766102 2.78021,4.89206 5.65807,4.89206 3.16232,0 5.72574,-2.56377 5.72574,-5.725737 0,-0.696906 -0.13042,-1.362081 -0.3592,-1.980021 -1.10933,-0.270021 -2.28459,-0.486807 -3.52822,-0.634154 0.82204,0.57881 1.35996,1.533042 1.35996,2.614175" style="fill:#e60013;fill-opacity:1;fill-rule:nonzero;stroke:none;stroke-width:0.352507" id="path94"></path>
    <path d="m 89.113812,19.053217 c -1.0501,-1.228479 -2.60819,-2.010342 -4.35167,-2.010342 -1.31274,0 -2.52008,0.44451 -3.48594,1.188293 2.85636,-0.004 5.46596,0.292935 7.83761,0.822049" style="fill:#e60013;fill-opacity:1;fill-rule:nonzero;stroke:none;stroke-width:0.352507" id="path98"></path>
    <path d="m 88.963412,29.196333 c -0.11281,0.07257 -0.22386,0.148406 -0.33983,0.216786 -4.25226,4.773275 -18.02256,9.936758 -34.638978,12.569968 -20.400567,3.2346 -37.362438,1.43295 -37.886615,-4.02418 -0.208678,-2.17179 2.720996,-5.239633 11.966512,-9.197567 v -1.768164 c -1.569352,0.499854 -3.312492,1.153754 -4.68797,1.831965 -0.893959,0.429705 -1.74208,0.865048 -2.541566,1.306039 -0.384938,0.792777 -0.922511,1.497442 -1.633513,2.046292 -1.350804,1.043055 -3.057286,1.964505 -4.892079,2.76857 -1.390984,1.543619 -2.083662,3.079475 -1.943013,4.543085 0.662366,6.88161 19.444927,9.56735 41.954536,5.99963 19.709306,-3.12495 35.739856,-10.008672 38.978676,-16.292424 z" style="fill:#c9cacb;fill-opacity:1;fill-rule:nonzero;stroke:none;stroke-width:0.352507" id="path102"></path>
    <path d="m 53.906278,44.961667 c -23.625285,2.97796 -27.71294,0.21679 -27.852189,-0.43852 -0.348268,-1.63844 8.44992,0.62957 27.595924,-2.2176 16.385509,-2.43795 31.053299,-9.145403 30.174479,-6.983135 -0.2665,0.651779 -10.80288,7.229875 -29.918214,9.639255" style="fill:#c9cacb;fill-opacity:1;fill-rule:nonzero;stroke:none;stroke-width:0.352507" id="path106"></path>
    <path d="m 53.925881,44.923447 c -23.011222,2.90747 -27.246224,0.25628 -27.386883,-0.39762 -0.34228,-1.5891 8.387178,0.59679 27.128139,-2.19187 16.068985,-2.39317 30.404675,-8.951518 29.608715,-6.837895 -0.23934,0.636613 -10.63933,7.061025 -29.349971,9.427385" style="fill:#cbcccc;fill-opacity:1;fill-rule:nonzero;stroke:none;stroke-width:0.352507" id="path110"></path>
    <path d="m 53.945516,44.885907 c -22.397163,2.83554 -26.779861,0.294 -26.92228,-0.35743 -0.335932,-1.54045 8.324775,0.56401 26.660716,-2.16651 15.75241,-2.34768 29.75395,-8.755873 29.04295,-6.691597 -0.21397,0.620759 -10.47506,6.891117 -28.781386,9.215537" style="fill:#cdcdce;fill-opacity:1;fill-rule:nonzero;stroke:none;stroke-width:0.352507" id="path114"></path>
    <path d="m 53.96617,44.847707 c -21.784502,2.76469 -26.314198,0.3331 -26.457666,-0.31586 -0.329594,-1.49144 8.262024,0.53053 26.192583,-2.14181 15.435515,-2.30292 29.101115,-8.558479 28.476475,-6.546726 -0.18823,0.608421 -10.31009,6.722266 -28.211392,9.004396" style="fill:#cfcfd0;fill-opacity:1;fill-rule:nonzero;stroke:none;stroke-width:0.352507" id="path118"></path>
    <path d="m 53.985804,44.809837 c -21.170791,2.69349 -25.847135,0.3719 -25.992363,-0.2753 -0.322894,-1.44211 8.199285,0.49808 25.724461,-2.1161 15.11933,-2.25779 28.44933,-8.359657 27.91105,-6.400778 -0.16392,0.596085 -10.14687,6.552368 -27.643148,8.792178" style="fill:#d0d1d1;fill-opacity:1;fill-rule:nonzero;stroke:none;stroke-width:0.352507" id="path122"></path>
    <path d="m 54.005408,44.771977 c -20.55673,2.62193 -25.380422,0.41032 -25.527057,-0.23512 -0.315848,-1.39309 8.136531,0.46531 25.255978,-2.09036 14.803113,-2.21338 27.798253,-8.158022 27.345983,-6.255549 -0.14029,0.586568 -9.98297,6.383519 -27.074904,8.581029" style="fill:#d3d3d4;fill-opacity:1;fill-rule:nonzero;stroke:none;stroke-width:0.352507" id="path126"></path>
    <path d="m 54.025392,44.734437 c -19.94266,2.55038 -24.914407,0.44839 -25.062454,-0.19494 -0.309149,-1.34341 8.074141,0.43289 24.788205,-2.06497 14.486579,-2.16827 27.149289,-7.953221 26.780229,-6.10962 -0.11598,0.578115 -9.81836,6.21432 -26.50598,8.36953" style="fill:#d4d5d5;fill-opacity:1;fill-rule:nonzero;stroke:none;stroke-width:0.352507" id="path130"></path>
    <path d="m 54.045696,44.696217 c -19.329648,2.47953 -24.448042,0.48753 -24.597499,-0.15369 -0.302102,-1.2951 8.011048,0.39939 24.319371,-2.03995 14.170744,-2.12312 26.863764,-7.647938 26.214434,-5.963671 0.0279,0.57916 -9.65407,6.044761 -25.936306,8.157311" style="fill:#d6d7d7;fill-opacity:1;fill-rule:nonzero;stroke:none;stroke-width:0.352507" id="path134"></path>
    <path d="m 54.065331,44.658367 c -18.715589,2.40832 -23.98132,0.52593 -24.132196,-0.1128 -0.294333,-1.24646 7.948306,0.3666 23.851248,-2.01493 13.854539,-2.07801 26.265199,-7.433969 25.648679,-5.818442 0.0704,0.569292 -9.48982,5.875212 -25.367731,7.946172" style="fill:#d8d8d9;fill-opacity:1;fill-rule:nonzero;stroke:none;stroke-width:0.352507" id="path138"></path>
    <path d="m 54.085286,44.620157 c -18.102229,2.33746 -23.515308,0.56506 -23.667593,-0.0719 -0.286235,-1.19746 7.885905,0.33382 23.383475,-1.98955 13.537984,-2.03254 25.666994,-7.21965 25.083254,-5.672502 0.11173,0.559092 -9.3259,5.705652 -24.799136,7.733962" style="fill:#dadbdb;fill-opacity:1;fill-rule:nonzero;stroke:none;stroke-width:0.352507" id="path142"></path>
    <path d="m 54.105239,44.582297 c -17.488877,2.26589 -23.048592,0.60348 -23.202288,-0.0313 -0.278828,-1.14883 7.822814,0.30102 22.915343,-1.96416 13.221438,-1.98778 25.067758,-7.005702 24.516778,-5.526586 0.15474,0.548146 -9.16091,5.536076 -24.229833,7.522106" style="fill:#dcdcdd;fill-opacity:1;fill-rule:nonzero;stroke:none;stroke-width:0.352507" id="path146"></path>
    <path d="m 54.125224,44.544757 c -16.875157,2.19434 -22.582229,0.6419 -22.737324,0.009 -0.270381,-1.10018 7.760062,0.26824 22.446858,-1.93879 12.905594,-1.94267 24.470244,-6.791361 23.951704,-5.38099 0.1967,0.53792 -8.997,5.36689 -23.661238,7.31095" style="fill:#dededf;fill-opacity:1;fill-rule:nonzero;stroke:none;stroke-width:0.352507" id="path150"></path>
    <path d="m 54.145177,44.506887 c -16.261796,2.12279 -22.115515,0.68104 -22.273079,0.0497 -0.261564,-1.05082 7.69837,0.23477 21.979085,-1.91305 12.58939,-1.89859 23.871699,-6.578092 23.386649,-5.23646 0.23865,0.52805 -8.83416,5.19805 -23.092655,7.0998" style="fill:#dfe0e0;fill-opacity:1;fill-rule:nonzero;stroke:none;stroke-width:0.352507" id="path154"></path>
    <path d="m 54.164812,44.468677 c -15.647736,2.05158 -21.648443,0.71982 -21.807415,0.0905 -0.253456,-1.00251 7.635267,0.20235 21.510951,-1.88801 12.273202,-1.85276 23.272784,-6.363774 22.820154,-5.09016 0.28025,0.51746 -8.66882,5.02848 -22.52369,6.88758" style="fill:#e2e2e2;fill-opacity:1;fill-rule:nonzero;stroke:none;stroke-width:0.352507" id="path158"></path>
    <path d="m 54.185116,44.430817 c -15.034375,1.98073 -21.182078,0.75823 -21.342462,0.13113 -0.244288,-0.95351 7.572177,0.16991 21.042829,-1.86263 11.955586,-1.80799 22.674219,-6.149444 22.253689,-4.94424 0.32325,0.50655 -8.50455,4.85893 -21.954056,6.67574" style="fill:#e3e3e4;fill-opacity:1;fill-rule:nonzero;stroke:none;stroke-width:0.352507" id="path162"></path>
    <path d="m 54.20507,44.392607 c -14.421364,1.91022 -20.715714,0.79737 -20.877867,0.17202 -0.234761,-0.90452 7.509785,0.13642 20.575066,-1.83689 11.639737,-1.76359 22.075663,-5.936194 21.688273,-4.799 0.36519,0.49632 -8.34065,4.69007 -21.385472,6.46387" style="fill:#e4e5e5;fill-opacity:1;fill-rule:nonzero;stroke:none;stroke-width:0.352507" id="path166"></path>
    <path d="m 54.224705,44.355087 c -13.806595,1.83797 -20.248992,0.8358 -20.412914,0.21293 -0.225244,-0.85693 7.447395,0.10294 20.107282,-1.81223 11.323201,-1.71846 21.477119,-5.722219 21.122499,-4.65305 0.40679,0.48644 -8.17673,4.52016 -20.816867,6.25235" style="fill:#e7e7e7;fill-opacity:1;fill-rule:nonzero;stroke:none;stroke-width:0.352507" id="path170"></path>
    <path d="m 54.245008,44.317207 c -13.189714,1.7939 -19.782277,0.87387 -19.947949,0.25345 -0.216446,-0.80864 7.384283,0.0702 19.6388,-1.78684 11.006992,-1.67335 20.878913,-5.5079 20.556733,-4.50749 0.44909,0.47588 -8.00858,4.37635 -20.247584,6.04088" style="fill:#e9e9e9;fill-opacity:1;fill-rule:nonzero;stroke:none;stroke-width:0.352507" id="path174"></path>
    <path d="m 54.264993,44.279357 c -12.576354,1.72339 -19.315203,0.91298 -19.482995,0.29398 -0.20587,-0.75965 7.321539,0.0374 19.170315,-1.76147 10.690445,-1.62856 20.280369,-5.29392 19.991669,-4.3619 0.49139,0.46532 -7.844671,4.20751 -19.678989,5.82939" style="fill:#eaebeb;fill-opacity:1;fill-rule:nonzero;stroke:none;stroke-width:0.352507" id="path178"></path>
    <path d="m 54.284588,44.241137 c -11.962285,1.65253 -18.848481,0.95142 -19.018392,0.33487 -0.195283,-0.71169 7.259508,0.005 18.702903,-1.73607 10.374597,-1.58345 19.681463,-5.0796 19.425893,-4.21632 0.53298,0.45474 -7.680406,4.03902 -19.110404,5.61752" style="fill:#ececec;fill-opacity:1;fill-rule:nonzero;stroke:none;stroke-width:0.352507" id="path182"></path>
    <path d="m 54.30489,44.203637 c -11.349272,1.58098 -18.381766,0.99053 -18.553436,0.37543 -0.185066,-0.66308 7.196407,-0.0286 18.23442,-1.71106 10.0584,-1.53833 19.082898,-4.86564 18.859758,-4.07004 0.5753,0.44416 -7.516114,3.87015 -18.540742,5.40567" style="fill:#eeeeee;fill-opacity:1;fill-rule:nonzero;stroke:none;stroke-width:0.352507" id="path186"></path>
    <path d="m 54.324525,44.165437 c -10.735202,1.50976 -17.913634,1.0293 -18.087772,0.41665 -0.17484,-0.61548 7.133303,-0.061 17.765587,-1.68568 9.742203,-1.49355 18.485032,-4.652 18.294342,-3.92478 0.61757,0.43392 -7.351852,3.70058 -17.972157,5.19381" style="fill:#efeff0;fill-opacity:1;fill-rule:nonzero;stroke:none;stroke-width:0.352507" id="path190"></path>
    <path d="m 54.344479,44.127577 c -10.121492,1.4382 -17.446571,1.06771 -17.622819,0.45755 -0.163912,-0.56789 7.070564,-0.0949 17.297455,-1.66067 9.426004,-1.4488 17.886497,-4.43768 17.728937,-3.77956 0.65989,0.42407 -7.187948,3.53246 -17.403573,4.98268" style="fill:#f1f1f2;fill-opacity:1;fill-rule:nonzero;stroke:none;stroke-width:0.352507" id="path194"></path>
    <path d="m 54.364824,44.089667 c -9.508491,1.36561 -16.979856,1.10652 -17.158575,0.49774 -0.152286,-0.51924 7.008172,-0.1269 16.829681,-1.63528 9.109107,-1.40332 17.288292,-4.22336 17.163142,-3.63327 0.7015,0.41349 -7.023667,3.36184 -16.834248,4.77081" style="fill:#f3f3f3;fill-opacity:1;fill-rule:nonzero;stroke:none;stroke-width:0.352507" id="path198"></path>
    <path d="m 54.384097,44.052157 c -8.89407,1.29299 -16.511362,1.14423 -16.692909,0.53793 -0.140649,-0.4713 6.945429,-0.15968 16.361917,-1.60918 8.792899,-1.35855 16.689377,-4.01045 16.597027,-3.48839 0.74378,0.40326 -6.859065,3.19192 -16.266035,4.55964" style="fill:#f5f5f5;fill-opacity:1;fill-rule:nonzero;stroke:none;stroke-width:0.352507" id="path202"></path>
    <path d="m 54.404052,44.013957 c -8.281059,1.22037 -16.04324,1.18229 -16.227606,0.57915 -0.129723,-0.4237 6.881977,-0.1928 15.893084,-1.58415 8.477412,-1.3138 16.090832,-3.79577 16.031602,-3.34245 0.78574,0.39269 -6.695141,3.02095 -15.69708,4.34745" style="fill:#f6f6f6;fill-opacity:1;fill-rule:nonzero;stroke:none;stroke-width:0.352507" id="path206"></path>
    <path d="m 54.424717,43.976087 c -7.66807,1.14671 -15.575828,1.22142 -15.763713,0.6197 -0.117386,-0.3754 6.819925,-0.22559 15.425651,-1.55912 8.159805,-1.26831 15.492277,-3.58145 15.465127,-3.19582 0.8284,0.38177 -6.53051,2.84967 -15.127065,4.13524" style="fill:#f8f8f8;fill-opacity:1;fill-rule:nonzero;stroke:none;stroke-width:0.352507" id="path210"></path>
    <path d="m 54.443989,43.937877 c -7.054697,1.07303 -15.105923,1.2595 -15.298046,0.66059 -0.1054,-0.32782 6.757183,-0.25838 14.957177,-1.5334 7.843956,-1.22354 14.893722,-3.36852 14.900052,-3.05092 0.87036,0.3719 -6.366946,2.67833 -14.559183,3.92373" style="fill:#f9f9f9;fill-opacity:1;fill-rule:nonzero;stroke:none;stroke-width:0.352507" id="path214"></path>
    <path d="m 54.463944,43.900687 c -6.440986,0.99795 -14.635692,1.29686 -14.833094,0.70042 -0.09267,-0.27987 6.694443,-0.29114 14.489395,-1.50801 7.52742,-1.17842 14.295167,-3.15351 14.334307,-2.90534 0.91193,0.36167 -6.203753,2.50632 -13.990608,3.71293" style="fill:#fbfbfb;fill-opacity:1;fill-rule:nonzero;stroke:none;stroke-width:0.352507" id="path218"></path>
    <path d="m 54.483929,43.862477 c -5.830087,0.91193 -14.16403,1.33387 -14.36778,0.74202 -0.07997,-0.23265 6.631692,-0.32501 14.020921,-1.48333 7.210851,-1.13367 13.696602,-2.93989 13.767812,-2.75976 0.95457,0.35144 -6.041591,2.31876 -13.420953,3.50107" style="fill:#fdfdfd;fill-opacity:1;fill-rule:nonzero;stroke:none;stroke-width:0.352507" id="path222"></path>
    <path d="m 54.503883,43.824617 c -5.216026,0.84073 -13.690268,1.37089 -13.903186,0.78291 -0.06727,-0.18577 6.5693,-0.35743 13.553149,-1.45795 6.894304,-1.08889 13.098406,-2.72558 13.202406,-2.61383 0.99652,0.34017 -5.878038,2.14887 -12.852369,3.28887" style="fill:#fefefe;fill-opacity:1;fill-rule:nonzero;stroke:none;stroke-width:0.352507" id="path226"></path>
    <path d="m 54.523837,43.786397 c -4.602676,0.76989 -13.210509,1.40403 -13.438581,0.82311 -0.05359,-0.13783 6.506558,-0.38987 13.085364,-1.43223 6.578468,-1.04342 12.499512,-2.51195 12.636992,-2.46788 1.03847,0.3303 -5.714125,1.97931 -12.283775,3.077" style="fill:#ffffff;fill-opacity:1;fill-rule:nonzero;stroke:none;stroke-width:0.352507" id="path230"></path>
    <path d="m 34.846648,29.216597 c -2.18519,3.932899 -3.194766,8.31948 -3.078438,12.67116 v 0 c 2.567298,0.10009 5.378187,0.0772 8.344519,-0.0676 v 0 c -1.267259,-4.48352 -1.282065,-8.847168 -0.61407,-12.603471 v 0 z" style="fill:url(#radialGradient250);stroke:none;stroke-width:0.352507" id="path252"></path>
    <path d="m 32.874026,48.632227 c 1.156921,3.76722 3.205683,7.2951 6.111743,10.22969 v 0 c 1.133658,0.24042 3.757011,0.54674 7.551022,-0.50409 v 0 c -2.503846,-2.69102 -6.008453,-3.90257 -8.271541,-5.08488 v 0 c -2.215854,-1.16043 -4.022095,-3.08652 -5.228722,-4.63509 v 0 c 0.09697,0.002 0.192115,0.006 0.288706,0.008 v 0 c 4.967858,5.40039 8.625109,3.76793 14.152043,9.43127 v 0 c 0.865757,-0.27919 1.785797,-0.62639 2.756244,-1.05998 v 0 c -1.650427,-1.37899 -3.312852,-3.06891 -4.943184,-5.14129 v 0 c -0.899599,-1.14352 -1.684279,-2.3022 -2.366369,-3.469 v 0 c 0.395154,-0.0275 0.793488,-0.056 1.193232,-0.0875 v 0 c 0.660237,1.10509 1.411426,2.22218 2.264137,3.34668 v 0 c 1.447037,1.91058 3.036492,3.55078 4.737685,4.94036 v 0 c 1.227422,-0.59257 2.529221,-1.32049 3.90012,-2.2088 v 0 c -1.937724,-1.86228 -2.724513,-4.30833 -2.80277,-6.97291 v 0 c -6.948249,0.98102 -13.544691,1.37195 -19.342346,1.20699" style="fill:url(#radialGradient272);stroke:none;stroke-width:0.352507" id="path274"></path>
    <path d="m 42.80869,29.216597 h -2.670927 c -0.529466,3.534576 -0.491047,7.841125 1.003225,12.55024 v 0 c 2.382585,-0.13889 4.855422,-0.35462 7.380063,-0.65178 v 0 l 4.328766,-6.397619 -1.122374,-4.173659 -6.824513,0.770933 1.569711,-2.0826 h -0.333823 v -0.0155 c -1.179835,0 -2.323371,-0.342628 -3.330128,-0.949642 v 0 z" style="fill:url(#radialGradient294);stroke:none;stroke-width:0.352507" id="path296"></path>
    <path d="m 54.555597,47.076977 c -0.436052,0.069 -0.870685,0.13396 -1.305328,0.19881 v 0 h 0.002 c 0.05819,2.6177 0.818161,4.89312 2.5331,6.61441 v 0 c 3.125275,-2.1221 6.590053,-5.07573 10.326253,-9.1595 v 0 c -3.693192,0.92321 -7.572869,1.71492 -11.555834,2.34628 m -1.314496,0.19988 c 0.003,-3.4e-4 0.0059,-8.6e-4 0.009,-10e-4 v 0 c -0.003,0 -0.006,8.6e-4 -0.009,10e-4" style="fill:url(#radialGradient316);stroke:none;stroke-width:0.352507" id="path318"></path>
    <path d="m 46.110266,59.957487 c -2.845778,0.71138 -4.717941,0.49423 -5.909053,0.0542 v 0 c 0.167443,0.14806 0.335583,0.29433 0.507602,0.43993 v 0 c 1.571921,1.31394 3.255479,2.39404 5.009567,3.24561 1.009244,0.48997 2.041842,0.90426 3.089956,1.24389 v 0 c 0.689858,-1.82209 0.192124,-3.79225 -1.144587,-5.35878 v 0 c -0.535452,0.15792 -1.053991,0.28095 -1.553485,0.37506" style="fill:url(#radialGradient338);stroke:none;stroke-width:0.352507" id="path340"></path>
    <path d="m 74.011092,35.490133 c 1.66912,-0.577761 3.24305,-1.183005 4.71124,-1.809412 v 0 c -0.55378,-1.637732 -1.27818,-3.225766 -2.17144,-4.734485 v 0 c -0.34475,1.217903 -1.11463,3.5892 -2.5398,6.543897" style="fill:url(#radialGradient360);stroke:none;stroke-width:0.352507" id="path362"></path>
    <path d="m 68.715742,44.049657 c -1.93701,2.50596 -4.303727,5.05986 -7.189692,7.46218 v 0 c -1.376188,1.20732 -2.863402,2.36071 -4.470483,3.43093 v 0 c 5.929496,4.04147 14.856345,-0.20833 21.920925,-5.89705 v 0 c 0.87457,-2.86234 1.20873,-5.84418 1.02862,-8.79747 v 0 c -3.40732,1.40578 -7.21157,2.68574 -11.28937,3.80141 m -3.4e-4,0 c 3.4e-4,0 3.4e-4,0 3.4e-4,0 v 0 c 0,0 0,0 -3.4e-4,0 m -0.005,9.9e-4 c 0.002,0 0.004,-3.3e-4 0.005,-9.9e-4 v 0 c -0.002,8.3e-4 -0.004,9.9e-4 -0.005,9.9e-4" style="fill:url(#radialGradient382);stroke:none;stroke-width:0.352507" id="path384"></path>
    <path d="m 56.282173,55.444737 c -1.221433,0.7741 -2.510547,1.49886 -3.86629,2.16473 v 0 c 4.810653,3.46055 10.43418,5.01931 16.355569,4.86246 v 0 c 2.18482,-1.37935 4.18671,-3.14224 5.90271,-5.28265 v 0 c 1.95182,-2.4358 3.36361,-5.14305 4.25121,-7.97437 v 0 c -3.39498,3.08125 -14.468599,12.05356 -22.643199,6.22983" style="fill:url(#radialGradient404);stroke:none;stroke-width:0.352507" id="path406"></path>
    <path d="m 49.455899,58.842177 c -0.330654,0.13325 -0.65249,0.2591 -0.964109,0.37436 v 0 c 2.298338,3.02556 1.663834,5.35983 1.230251,6.00104 v 0 c 6.368718,1.78544 13.227073,0.85306 18.876341,-2.64025 v 0 c -1.94513,0.38388 -9.242717,1.287 -17.076807,-4.54239 v 0 c -0.508663,0.23301 -1.347977,0.54674 -2.065676,0.80724" style="fill:url(#radialGradient426);stroke:none;stroke-width:0.352507" id="path428"></path>
    <path d="m 71.750832,27.159738 c 0,2.573287 -1.489,4.600894 -4.42502,6.029597 v 0 c -0.904167,0.439572 -7.284867,3.392149 -12.520637,5.811042 v 0 c -0.149816,0.43324 -0.287296,0.86222 -0.418079,1.28981 v 0 c -0.212907,0.0346 -0.423356,0.0709 -0.637682,0.10504 v 0 c 6.545325,-1.03741 12.773049,-2.49009 18.184718,-4.216655 v 0 c 1.40367,-2.520762 2.72205,-5.301321 3.90224,-8.372343 v 0 c -0.0416,-0.06208 -0.086,-0.121964 -0.12832,-0.184716 v 0 c -0.34439,0.04799 -0.69621,0.07507 -1.05469,0.07507 v 0 c -1.02721,0 -2.00646,-0.2041 -2.90288,-0.570353 v 0 c 0,0.0109 3.3e-4,0.0226 3.3e-4,0.0335" style="fill:url(#radialGradient448);stroke:none;stroke-width:0.352507" id="path450"></path>
    <path d="m 50.868036,40.818597 c 0.794898,-0.10751 1.594033,-0.22525 2.39457,-0.34932 v 0 c 0.08528,-0.294 0.175199,-0.58729 0.2672,-0.87917 v 0 c -0.965867,0.44628 -1.870042,0.86294 -2.66177,1.22849" style="fill:url(#radialGradient470);stroke:none;stroke-width:0.352507" id="path472"></path>
    <path d="M 59.606691,8.2042296 V 0.00933362 c 0,0 -2.320402,-0.01611 -1.602711,-0.006 -0.41148,0 -0.674504,0.424116 -0.664935,0.500674 -0.0191,-0.459326 0,8.12585398 0,8.12585398 0,1.224212 0.844382,2.0681854 2.069885,2.0681854 h 1.743829 c 0.37405,0 0.678722,-0.3038 0.678722,-0.677852 V 8.8137376 h -1.617697 c -0.334872,0 -0.607093,-0.27315 -0.607093,-0.609012 m -6.341017,-1.811732 1.872084,-2.314994 c 0,0 -1.254275,-0.743152 -3.550883,0.998439 l -0.226884,0.236521 V 0.03859162 h -1.588864 c -0.372241,0 -0.675574,0.303332 -0.675574,0.677333 V 10.698106 h 1.588857 c 0.37271,0 0.675581,-0.303811 0.675581,-0.677852 V 7.3644816 l 1.286805,1.579987 1.094819,1.3469464 c 0.220597,0.276829 0.510452,0.405702 0.809115,0.405702 h 2.216501 L 55.33369,8.9384636 Z" style="display:inline;fill:#231916;fill-opacity:1;fill-rule:nonzero;stroke:none;stroke-width:0.0583904" id="path802-3"></path>
    <rect style="display:inline;fill:url(#linearGradient17814);fill-opacity:1;stroke-width:0.273482" id="rect17375-4" width="28.402121" height="2.3989906" x="3.6267984" y="-38.522282" transform="matrix(-0.72106262,0.6928699,-1,0,0,0)"></rect>
    <path d="m 62.20939,3.5567576 -9.9e-4,-1.505071 -0.140489,0.148428 c -0.004,0.004 -0.429405,0.438211 -1.651627,0.438211 H 59.6067 57.339054 54.640012 c -0.911354,0 -1.340348,0.371251 -1.668852,0.772394 l -1.384276,1.692285 c 0,0 0.68452,-0.497964 1.605222,-0.497964 h 7.224178 c 0.790898,0 1.332929,-0.155375 1.612098,-0.460575 0.198642,-0.218146 0.181477,-0.585788 0.181008,-0.587708" style="display:inline;fill:#e60013;fill-opacity:1;fill-rule:nonzero;stroke:none;stroke-width:0.0583904" id="path14674"></path>
    <rect style="display:inline;fill:url(#linearGradient17443);fill-opacity:1;stroke-width:0.217656" id="rect17375" width="28.402121" height="2.1931214" x="2.5100794" y="-41.674007" transform="rotate(90)"></rect>
  </g>
</svg>
