
<svg id="master-artboard" viewBox="0 0 786.79333 788.71478" version="1.1" x="0px" y="0px" width="786.79333" height="788.71478" xmlns="http://www.w3.org/2000/svg">
  <defs id="defs4">
    <clipPath clipPathUnits="userSpaceOnUse" id="clipPath25">
      <path d="M 0,1000 H 1000 V 0 H 0 Z" id="path23"></path>
    </clipPath>
  </defs>
  <g id="layer1" style="display:inline" transform="translate(-11.827865,-97.977101)">
    <path d="M 0,0 0.509,-2.884 C 4.89,-26.665 32.592,-147.892 148.583,-206.81 264.557,-147.884 292.234,-26.831 296.606,-3.097 l 0.529,2.791 2.777,-0.473 c 14.144,-2.41 50.384,-12.04 65.071,-16.003 l -32.244,62.734 27.696,51.093 h -55.661 l 0.103,20.519 -44.273,69.254 c -6.253,-3.744 -13.447,-5.655 -21.463,-5.661 -22.896,0.006 -52.517,15.151 -90.552,46.271 -38.032,-31.12 -67.66,-46.271 -90.547,-46.265 -8.023,-0.006 -15.194,1.911 -21.438,5.655 L -7.729,117.577 -7.733,97.038 -50.647,97.045 -28.899,73.204 V 27.251 l -2.325,-0.465 c -2.822,-0.561 -11.545,-2.424 -14.838,-3.104 l -22.127,-40.578 c 20.842,5.661 48.223,12.761 65.292,16.297 z" style="fill:#ffffff;fill-opacity:1;fill-rule:nonzero;stroke:none" id="path139" transform="matrix(1.8025018,0,0,-1.8025018,137.73866,510.91648)"></path>
    <path d="m 0,0 v 0 c -42.565,0 -85.078,-4.229 -126.988,-12.666 34.004,-77.658 82.421,-127.886 126.984,-153.706 44.537,25.813 92.962,76.055 126.972,153.713 C 85.042,-4.229 42.525,0 0,0" style="fill:#034f36;fill-opacity:1;fill-rule:nonzero;stroke:none" id="path143" transform="matrix(1.8025018,0,0,-1.8025018,405.59331,488.26552)"></path>
    <path d="M 0,0 C -18.906,-1.905 -49.074,-3.904 -101.796,32.659 -154.508,-3.904 -184.704,-1.919 -203.61,0 l -19.587,-19.626 c 31.529,5.381 74.275,8.697 121.401,8.697 47.085,-0.006 89.83,-3.316 121.383,-8.697 z" style="fill:#034f36;fill-opacity:1;fill-rule:nonzero;stroke:none" id="path147" transform="matrix(1.8025018,0,0,-1.8025018,589.07357,240.24722)"></path>
    <path d="m 0,0 30.777,32.779 c 0,0 38.313,-13.399 103.916,36.348 C 200.274,19.38 238.606,32.779 238.606,32.779 L 269.361,0 c 1.313,-0.292 2.596,-0.572 3.878,-0.852 L 242.897,46.545 C 236.291,43.441 203.435,31.26 134.693,86.81 65.952,31.26 33.079,43.435 26.478,46.552 L -3.871,-0.852 C -2.583,-0.58 -1.317,-0.272 0,0" style="fill:#034f36;fill-opacity:1;fill-rule:nonzero;stroke:none" id="path151" transform="matrix(1.8025018,0,0,-1.8025018,162.80209,280.17426)"></path>
    <path d="m 0,0 c 0,0 108.957,52.238 138.213,193.731 -0.122,0.046 -1.288,0.039 -1.414,0.079 C 89.05,71.06 10.516,30.768 0,25.334 -10.538,30.768 -89.064,71.06 -136.836,193.81 c -0.143,-0.033 -1.269,-0.033 -1.389,-0.079 C -109.007,52.238 0,0 0,0" style="fill:#034f36;fill-opacity:1;fill-rule:nonzero;stroke:none" id="path155" transform="matrix(1.8025018,0,0,-1.8025018,405.58628,864.14879)"></path>
    <path d="M 0,0 C 4.266,-0.632 7.196,-0.226 7.196,-0.226 5.753,-6.04 0,0 0,0 M 55.356,-19.932 C 53.659,1.852 41.642,6.22 33.684,2.957 27.976,0.627 25.954,-5.687 28.744,-9.83 23.4,-7.792 18.751,-9.87 17.037,-14.225 c -1.734,-4.235 0.798,-9.256 5.537,-9.83 3.426,-0.406 6.609,1.279 5.847,4.962 -0.297,-1.032 -2.373,-2.431 -4.359,-1.824 -2.215,0.645 -2.796,2.677 -2.535,4.055 0.324,1.605 1.809,3.09 4.203,3.183 2.597,0.114 4.986,-1.311 5.864,-3.889 1.754,-5.174 -3.299,-11.068 -11.205,-9.338 -7.278,1.62 -15.272,11.443 -12.686,18.288 1.347,3.491 5.827,4.389 7.759,2.325 0.112,4.035 -3.842,6.486 -7.29,6.479 0,0 2.363,0.559 2.502,2.625 0.062,1.251 -0.562,2.91 -3.251,3.649 -6.454,1.885 -14.179,-2.937 -15.304,0.619 0,0 -3.773,-5.287 8.088,-5.287 -6.25,-1.012 -5.533,-6.406 -9.566,-7.359 -1.308,-0.32 -3.713,-0.007 -3.484,1.959 1.492,-0.162 3.546,1.717 2.367,3.555 -1.33,2.084 -4.918,1.239 -5.456,-2.038 -0.85,-4.974 4.72,-9.769 13.921,-6.341 -4.863,-2.183 -5.685,-8.223 -1.776,-11.108 -0.464,1.859 0.588,4.695 2.505,5.541 0,0 -0.219,-5.973 3.132,-10.242 -3.867,3.024 -8.923,3.07 -13.107,0.765 0.783,2.831 -0.162,6.294 -2.667,8.306 -2.98,2.357 -7.68,3.143 -10.897,0.579 -5.321,-4.162 -2.059,-10.981 1.996,-10.641 -1.001,0.425 -2.379,3.635 0.381,5.552 2.311,1.407 4.652,0.048 5.385,-1.164 1.546,-2.465 0.587,-6.068 -2.728,-7.459 0,0 -7.02,-3.057 -11.277,4.129 -2.283,3.816 -3.181,9.676 -1.566,16.036 0.461,1.551 3.122,11.082 13.931,13.918 0,0 -1.131,2.119 -4.672,1.453 0.297,0.267 0.581,0.532 0.931,0.811 11.337,10.284 26.909,10.729 36.129,7.366 0,0 -14.815,9.604 -33.021,0.507 -21.166,-10.575 -24.63,-35.762 -14.235,-46.232 5.556,-5.508 12.534,-4.755 14.038,-4.441 -0.565,-2.045 0.614,-6.641 3.599,-7.765 -11.38,-0.387 -23.252,8.729 -24.778,15.95 0.61,-11.202 12.216,-23.396 29.651,-21.472 8.543,0.933 14.479,6.767 12.426,13.581 -1.326,4.347 -6.028,6.232 -9.714,3.254 -2.295,-1.97 -1.569,-5.167 0.464,-5.886 2.999,-1.019 5.182,1.385 5.01,3.663 2.497,-2.812 0.767,-6.753 -3.017,-7.619 -5.531,-1.28 -8.944,3.729 -8.366,7.485 0.546,3.743 2.835,5.774 5.928,6.773 6.138,2.038 12.11,-2.044 13.376,-6.679 2.94,-10.61 -4.623,-18.141 -16.104,-19.467 -9.785,-1.164 -20.298,2.605 -28.249,10.662 -11.675,11.416 -13.235,37.801 -0.626,42.756 -1.002,1.431 -4.276,1.891 -5.993,-0.014 2.509,11.002 17.95,26.826 27.907,23.19 -0.222,2.47 -2.282,3.289 -4.07,3.036 7.619,3.417 31.839,9.271 54.832,-4.542 C 22.139,31.747 7.675,36.882 -7.635,35.229 -28.818,32.906 -46.742,18.108 -52.499,-1.205 c -4.391,-14.925 -1.588,-29.276 3.958,-38.798 7.227,-12.409 19.76,-17.577 28.043,-20.067 5.205,-1.532 3.797,-6.486 -4.671,-4.641 -7.206,1.557 -15.759,7.398 -20.791,13 3.018,-4.763 6.778,-8.965 11.095,-12.488 13.143,-10.855 24.015,-6.02 24.621,-1.705 0.307,1.711 -1.043,3.45 -2.202,4.302 4.956,-0.906 11.827,-1.125 17.476,0.186 -1.071,-1.184 -0.801,-2.896 0.275,-3.682 4.32,-2.937 11.725,0.685 13.866,-0.366 3.822,-1.831 -9.537,-12.468 -34.816,-8.665 12.398,-4.974 28.171,-4.109 41.017,2.831 3.546,1.879 5.558,4.821 4.538,7.825 -0.772,2.418 -3.508,3.83 -7.91,3.403 -4.77,-0.452 -8.928,-1.358 -9.534,0 -0.266,0.6 0.015,1.624 1.142,2.411 6.077,4.368 12.866,13.538 6.577,25.041 7.771,-2.545 18.532,2.084 19.372,11.774 2.53,-10.943 -1.561,-24.175 -7.285,-31.074 14.335,12.32 14.116,33.257 9.664,42.055 0.397,-2.071 -1.382,-3.596 -2.793,-3.935 -2.915,-0.727 -4.852,1.271 -5.504,2.65 -1.302,2.797 0.354,6.1 2.912,7.086 6.078,2.317 11.048,-1.398 12.991,-10.509 3.919,-18.387 -3.109,-36.929 -14.651,-46.845 11.28,5.056 21.928,22.77 20.465,41.484" style="fill:#ffdd00;fill-opacity:1;fill-rule:nonzero;stroke:none" id="path159" transform="matrix(1.8025018,0,0,-1.8025018,404.824,581.45252)"></path>
    <path d="m 0,0 h -8.734 v 7.318 h -4.11 l 0.004,-18.773 h 4.106 l -0.003,7.766 H 0 v -7.766 H 4.083 L 4.08,7.312 0.002,7.318 Z" style="fill:#004281;fill-opacity:1;fill-rule:nonzero;stroke:none" id="path163" transform="matrix(1.8025018,0,0,-1.8025018,197.87084,311.1434)"></path>
    <path d="M 0,0 C -0.866,-0.878 -0.886,-2.176 -0.931,-2.923 V -17.694 H 3.17 v 5.981 h 8.684 l -0.003,-5.981 h 4.101 L 15.941,1.073 3.192,1.08 C 1.985,1.08 0.838,0.9 0,0 m 4.221,-2.603 h 7.633 L 11.851,-8.031 3.17,-8.037 3.176,-3.655 c -0.002,0.214 -0.023,0.613 0.119,0.852 0.204,0.226 0.53,0.207 0.926,0.2" style="fill:#004281;fill-opacity:1;fill-rule:nonzero;stroke:none" id="path167" transform="matrix(1.8025018,0,0,-1.8025018,358.17201,299.89795)"></path>
    <path d="m 0,0 -12.795,0.006 v -18.773 h 4.09 v 15.098 h 7.671 c 0.405,-0.007 0.717,0.019 0.883,-0.233 0.202,-0.221 0.17,-0.62 0.17,-0.826 V -18.767 H 4.091 L 4.087,-3.983 C 4.096,-3.244 4.071,-1.945 3.196,-1.073 2.35,-0.187 1.208,0 0,0" style="fill:#004281;fill-opacity:1;fill-rule:nonzero;stroke:none" id="path171" transform="matrix(1.8025018,0,0,-1.8025018,305.9593,297.96333)"></path>
    <path d="m 0,0 c -0.016,-0.227 0.02,-0.625 -0.181,-0.826 -0.19,-0.265 -0.516,-0.252 -0.871,-0.259 h -7.671 l 0.003,15.117 -4.117,-0.006 -0.007,-18.767 h 12.782 c 1.228,0.007 2.38,0.2 3.239,1.066 0.856,0.892 0.871,2.17 0.917,2.93 V 14.026 L 0,14.032 Z" style="fill:#004281;fill-opacity:1;fill-rule:nonzero;stroke:none" id="path175" transform="matrix(1.8025018,0,0,-1.8025018,269.01775,323.24504)"></path>
    <path d="M 0,0 C -0.022,0.747 -0.048,2.051 -0.904,2.93 -1.74,3.823 -2.905,3.996 -4.116,4.002 l -12.782,-0.006 0.01,-18.767 h 12.769 c 1.216,0 2.375,0.2 3.215,1.066 0.859,0.885 0.882,2.178 0.907,2.93 L 0,0 m -4.077,-10.03 c 0,-0.226 0.041,-0.625 -0.156,-0.825 -0.181,-0.266 -0.487,-0.26 -0.871,-0.253 h -7.69 L -12.798,0.327 -5.104,0.32 c 0.391,0.007 0.69,0.033 0.865,-0.2 0.213,-0.24 0.164,-0.646 0.162,-0.846 z" style="fill:#004281;fill-opacity:1;fill-rule:nonzero;stroke:none" id="path179" transform="matrix(1.8025018,0,0,-1.8025018,350.37241,305.16631)"></path>
    <path d="m 0,0 -4.968,8.211 h -4.83 l 7.619,-11.834 v -6.939 h 4.4 L 2.214,-3.623 9.843,8.211 H 4.994 Z" style="fill:#004281;fill-opacity:1;fill-rule:nonzero;stroke:none" id="path183" transform="matrix(1.8025018,0,0,-1.8025018,225.53492,312.75304)"></path>
    <path d="M 0,0 H 4.346 V 18.773 H 0.006 Z" style="fill:#004281;fill-opacity:1;fill-rule:nonzero;stroke:none" id="path187" transform="matrix(1.8025018,0,0,-1.8025018,394.36192,331.79106)"></path>
    <path d="M 0,0 C 0.842,0.094 1.637,0.373 2.282,1.019 3.115,1.885 3.174,3.19 3.17,3.909 v 4.788 c 0,0.76 -0.059,2.038 -0.888,2.937 -0.881,0.873 -2.005,1.046 -3.202,1.053 h -12.75 l 0.004,-18.774 h 4.103 v 6.061 h 5.246 l 4.004,-6.061 H 4.016 L 0,0 M -0.704,4.622 C -0.729,4.436 -0.74,4.249 -0.856,4.096 -1.06,3.843 -1.369,3.849 -1.73,3.855 L -9.563,3.849 v 4.929 l 7.842,0.006 c 0.355,-0.02 0.665,0.02 0.865,-0.232 0.116,-0.14 0.128,-0.361 0.155,-0.528 z" style="fill:#004281;fill-opacity:1;fill-rule:nonzero;stroke:none" id="path191" transform="matrix(1.8025018,0,0,-1.8025018,594.68873,320.81941)"></path>
    <path d="M 0,0 -0.003,-4.102 6.382,-4.109 6.379,-18.773 h 4.088 l 0.004,14.671 h 6.41 L 16.874,0 Z" style="fill:#004281;fill-opacity:1;fill-rule:nonzero;stroke:none" id="path195" transform="matrix(1.8025018,0,0,-1.8025018,498.40106,297.95197)"></path>
    <path d="m 0,0 0.005,-18.774 4.119,0.007 -0.002,11.888 3.981,-11.888 h 3.603 l 4.003,11.893 0.007,-11.893 H 19.81 L 19.803,0.006 H 14.372 L 9.914,-13.226 5.433,0 Z" style="fill:#004281;fill-opacity:1;fill-rule:nonzero;stroke:none" id="path199" transform="matrix(1.8025018,0,0,-1.8025018,421.52184,297.96333)"></path>
    <path d="m 0,0 c -0.855,0.879 -1.977,1.072 -3.181,1.072 l -8.69,-0.006 c -1.198,0.006 -2.332,-0.187 -3.158,-1.073 -0.905,-0.865 -0.92,-2.137 -0.944,-2.91 l 0.004,-10.795 c 0.02,-0.766 0.046,-2.031 0.944,-2.93 0.825,-0.853 1.952,-1.052 3.154,-1.059 h 8.694 c 1.2,0 2.322,0.2 3.177,1.052 0.861,0.906 0.888,2.171 0.91,2.937 V -2.91 C 0.897,-2.144 0.865,-0.879 0,0 m -3.184,-12.806 c 0,-0.193 -0.038,-0.393 -0.17,-0.579 -0.166,-0.208 -0.459,-0.2 -0.866,-0.214 l -6.622,0.006 c -0.384,0 -0.683,0 -0.887,0.208 -0.098,0.186 -0.139,0.386 -0.139,0.579 l -0.003,9.004 c 0,0.173 0.044,0.379 0.144,0.532 0.198,0.248 0.511,0.248 0.881,0.248 h 6.636 c 0.397,0 0.69,0 0.856,-0.248 0.132,-0.153 0.177,-0.359 0.166,-0.532 z" style="fill:#004281;fill-opacity:1;fill-rule:nonzero;stroke:none" id="path203" transform="matrix(1.8025018,0,0,-1.8025018,562.07119,299.8848)"></path>
    <path d="M 0,0 C -0.862,0.879 -1.974,1.072 -3.213,1.072 L -11.839,1.066 C -13.075,1.072 -14.192,0.879 -15.052,0 c -0.868,-0.872 -0.89,-2.15 -0.89,-2.917 v -10.801 c 0.003,-0.754 0.022,-2.025 0.894,-2.931 0.856,-0.852 1.969,-1.045 3.209,-1.052 l 8.624,-0.007 c 1.241,0.007 2.353,0.207 3.208,1.059 0.853,0.906 0.892,2.171 0.911,2.931 L 0.911,-2.91 C 0.885,-2.144 0.846,-0.872 0,0 m -3.181,-12.806 c -0.034,-0.193 -0.034,-0.401 -0.132,-0.579 -0.202,-0.208 -0.53,-0.2 -0.874,-0.214 h -6.667 c -0.358,0.014 -0.658,0 -0.875,0.214 -0.11,0.186 -0.11,0.392 -0.165,0.579 v 9.004 c 0.055,0.166 0.055,0.379 0.165,0.525 0.217,0.255 0.513,0.255 0.875,0.248 l 6.66,0.007 c 0.351,-0.007 0.679,0 0.878,-0.248 0.101,-0.16 0.097,-0.366 0.131,-0.532 z" style="fill:#004281;fill-opacity:1;fill-rule:nonzero;stroke:none" id="path207" transform="matrix(1.8025018,0,0,-1.8025018,492.24372,299.8848)"></path>
    <path d="M 0,0 -7.798,-0.006 C -8.511,0 -8.866,0.367 -8.866,1.094 l -0.003,1.883 c 0.011,0.666 0.352,1.013 1.054,1.006 L 2.899,3.99 2.896,7.626 -8.795,7.632 c -2.751,0 -4.148,-1.378 -4.139,-4.162 l -0.009,-3.11 c 0,-2.604 1.359,-3.875 3.964,-3.882 h 7.761 c 0.72,0.007 1.057,-0.333 1.059,-1.012 l -0.002,-1.905 c 0,-0.713 -0.337,-1.08 -1.082,-1.085 l -10.929,0.005 v -3.622 h 11.965 c 2.748,0 4.117,1.392 4.117,4.163 L 3.906,-3.829 C 3.913,-1.264 2.593,0 0,0" style="fill:#004281;fill-opacity:1;fill-rule:nonzero;stroke:none" id="path211" transform="matrix(1.8025018,0,0,-1.8025018,629.3429,311.70921)"></path>
    <path d="m 0,0 c 0.033,-1.438 -1.125,-2.238 -3.053,-2.144 -3.564,0.086 -6.859,0.186 -10.412,0.259 l 0.003,15.77 c 3.535,-0.059 6.806,-0.099 10.357,-0.145 1.944,-0.035 3.084,-0.866 3.109,-2.312 z m 0,-27.717 c 0.026,-1.445 -1.132,-2.192 -3.073,-2.059 -3.561,0.228 -6.841,0.426 -10.389,0.62 l -0.003,17.103 c 3.551,-0.108 6.805,-0.267 10.334,-0.407 1.95,-0.081 3.11,-0.973 3.129,-2.431 z m 4.501,51.998 h -39.988 c 0,0 4.882,-2.398 4.882,-8.29 l 0.005,-54.718 c 11.828,-0.465 23.434,-1.197 35.217,-2.211 7.936,-0.725 12.547,2.251 12.478,8.193 l 0.007,15.064 c -0.048,5.939 -3.109,9.183 -11.558,9.989 8.449,0.06 11.616,2.89 11.551,8.858 l 0.01,13.692 c -0.045,5.966 -4.729,9.444 -12.604,9.423" style="fill:#034f36;fill-opacity:1;fill-rule:nonzero;stroke:none" id="path215" transform="matrix(1.8025018,0,0,-1.8025018,513.80326,397.51388)"></path>
    <path d="m 0,0 c 0.011,-1.406 -1.136,-2.337 -3.119,-2.477 -3.741,-0.226 -7.257,-0.48 -11.021,-0.793 -1.97,-0.167 -3.11,0.606 -3.11,2.064 l -0.002,39.805 c 0.019,1.465 1.161,2.371 3.16,2.358 3.716,0.086 7.271,0.119 11.016,0.18 1.976,0 3.096,-0.806 3.083,-2.231 z m 4.659,51.679 -43.723,0.007 c 0,0 4.723,-2.424 4.716,-8.399 l -0.004,-49.295 c 0.011,-7.211 4.557,-9.583 12.466,-8.724 8.866,0.914 17.489,1.671 26.342,2.291 7.936,0.533 12.662,4.382 12.662,10.489 0.004,15.085 -0.077,29.503 0.007,44.661 0.016,5.66 -4.591,8.97 -12.466,8.97" style="fill:#034f36;fill-opacity:1;fill-rule:nonzero;stroke:none" id="path219" transform="matrix(1.8025018,0,0,-1.8025018,305.10816,446.91)"></path>
    <path d="m 0,0 c 0.02,-1.611 -1.127,-2.391 -3.09,-2.117 -3.244,0.399 -6.222,0.805 -9.469,1.178 -1.973,0.233 -3.134,1.272 -3.154,2.796 l 0.006,55.077 h -22.034 c 0,0 4.817,-2.457 4.905,-8.858 0.028,0.034 0.025,-32.533 0.025,-48.836 0.059,-6.006 4.765,-10.022 12.665,-11.088 8.342,-1.085 16.585,-2.31 24.905,-3.683 7.865,-1.35 12.42,1.699 12.355,8.419 0,21.716 -0.009,64.039 -0.009,64.039 H -0.009 Z" style="fill:#034f36;fill-opacity:1;fill-rule:nonzero;stroke:none" id="path223" transform="matrix(1.8025018,0,0,-1.8025018,617.48226,456.36971)"></path>
    <path d="m 0,0 c -6.257,11.588 -12.378,23.103 -18.58,34.696 h -20.152 c 0,0 4.794,-2.33 4.788,-8.291 l 0.009,0.033 c -0.009,-4.016 -0.026,-54.762 -0.026,-54.762 5.728,0.22 11.374,0.4 17.102,0.519 l 0.008,34.597 c 6.161,-11.494 12.093,-22.948 18.336,-34.503 0.066,0 10.46,-0.114 15.626,-0.261 L 17.108,34.696 H -0.02 C 0.003,23.121 -0.004,11.588 0,0" style="fill:#034f36;fill-opacity:1;fill-rule:nonzero;stroke:none" id="path227" transform="matrix(1.8025018,0,0,-1.8025018,411.05705,416.29919)"></path>
    <path d="m 0,0 0.002,-57.906 c -6.788,-1.272 -13.901,-2.671 -20.652,-4.129 -3.018,-5.341 -6.095,-10.829 -9.103,-16.489 11.403,3.109 23.447,5.953 34.967,8.531 7.794,1.745 12.478,6.466 12.478,14.584 V 10.176 L -9.285,10.169 Z" style="fill:#034f36;fill-opacity:1;fill-rule:nonzero;stroke:none" id="path231" transform="matrix(1.8025018,0,0,-1.8025018,103.28077,372.08869)"></path>
    <path d="m 0,0 c 0,0 4.714,-2.79 4.714,-9.982 v 0.033 -65.832 c 14.008,2.691 28.246,4.962 42.354,6.833 L 47.065,-57.7 c -8.222,-0.905 -16.455,-1.937 -24.63,-3.076 v 17.821 c 7.254,0.726 14.218,1.379 21.476,1.958 v 12.341 c -7.261,-0.427 -14.228,-0.88 -21.485,-1.386 l -0.082,18.181 c 8.195,0.227 16.534,0.426 24.73,0.599 v 11.255 z" style="fill:#034f36;fill-opacity:1;fill-rule:nonzero;stroke:none" id="path235" transform="matrix(1.8025018,0,0,-1.8025018,142.78278,353.74679)"></path>
    <path d="M 0,0 22.264,41.11 3.938,41.104 -13.725,8.758 -13.741,41.104 h -21.231 c 0,0 4.062,-2.771 4.123,-10.017 l 0.033,0.007 c 0,-29.849 -0.023,-66.137 -0.023,-66.137 5.644,-1.085 11.497,-2.244 17.121,-3.463 l 0.004,33.537 19.539,-37.933 c 6.017,-1.492 12.611,-3.056 18.6,-4.688 z" style="fill:#034f36;fill-opacity:1;fill-rule:nonzero;stroke:none" id="path239" transform="matrix(1.8025018,0,0,-1.8025018,717.58799,427.84836)"></path>
  </g>
</svg>
