
<svg id="master-artboard" viewBox="0 0 830.0690307617188 978.04150390625" version="1.1" xmlns="http://www.w3.org/2000/svg" x="0px" y="0px" style="enable-background:new 0 0 1400 980" width="830.0690307617188px" height="978.04150390625px"><defs><style id="ee-google-fonts">@import url(https://fonts.googleapis.com/css?family=Rubik:300,300italic,400,400italic,500,500italic,700,700italic,900,900italic);</style><clipPath clipPathUnits="userSpaceOnUse" id="clipPath39"><path d="M 0,840 H 592 V 0 H 0 Z" id="path37"></path></clipPath></defs><rect id="ee-background" x="0" y="0" width="830.0690307617188" height="978.04150390625" style="fill:rgb(47, 2, 0);fill-opacity:0;pointer-events:none"></rect>








































<g transform="matrix(2.3914833068847656, 0, 0, 2.3914833068847656, -564.5498657226562, -777.0793144702911)"><g id="g15" transform="matrix(1.3333333,0,0,-1.3333333,0,1120)"><g id="g33"><g id="g35" clip-path="url(#clipPath39)"><g id="g41" transform="translate(434.4492,365.0244)"><path d="M 0,0 V 10.269 C -0.849,10.153 -1.622,10.064 -2.381,9.974 l 0.01,-9.995 C -1.585,-0.021 -0.794,0 0,0" style="fill:#b4921f;fill-opacity:1;fill-rule:nonzero;stroke:none" id="path43"></path></g><g id="g45" transform="translate(419.6475,426.3564)"><path d="m 0,0 v 47.328 c 0,4.555 0.356,6.717 1.093,11.293 -0.797,-0.61 -1.583,-1.185 -2.366,-1.764 L -1.285,56.736 C -2.03,52.274 -2.355,50.233 -2.38,45.834 v -98.073 c 0.859,0.023 1.645,0.068 2.38,0.091 z" style="fill:#b4921f;fill-opacity:1;fill-rule:nonzero;stroke:none" id="path47"></path></g><g id="g49" transform="translate(230.4883,462.2871)"><path d="m 0,0 c -0.819,0.454 -1.616,0.889 -2.371,1.302 v -30.245 c 0.795,-0.213 1.572,-0.423 2.371,-0.636 z" style="fill:#b4921f;fill-opacity:1;fill-rule:nonzero;stroke:none" id="path51"></path></g><g id="g53" transform="translate(205.8652,467.5752)"><path d="M 0,0 C -0.268,0.113 -0.53,0.222 -0.803,0.314 -1.501,0.517 -2.033,0.494 -2.441,0.233 -2.963,-0.082 -3.323,-0.819 -3.508,-1.95 V -1.983 L -3.52,-2.001 c -0.115,-0.323 -0.215,-1.477 -0.226,-3.32 v -14.303 c 0.011,-5.857 0.443,-7.495 0.814,-8.244 2.166,-4.272 7.257,-7.83 12.156,-11.271 3.505,-2.453 6.818,-4.772 9.204,-7.361 5.012,-5.999 4.962,-13.274 4.926,-19.696 v -1.489 -18.904 c 0,-5.596 0.006,-10.867 -3.743,-14.404 -1.79,-1.518 -4.439,-2.328 -7.591,-2.765 4.224,0.329 7.846,1.086 10.05,2.936 3.763,3.541 3.656,8.862 3.646,14.618 v 18.296 c 0.016,6.792 0.486,14.478 -4.854,20.759 -5.812,6.19 -17.687,11.187 -21.392,18.358 -0.482,0.944 -0.839,2.878 -0.85,8.216 v 14.02 c 0,1.862 0.117,2.995 0.258,3.338 0.263,1.671 0.906,2.386 1.758,2.53 C 0.447,-0.463 0.239,-0.231 0,0" style="fill:#b4921f;fill-opacity:1;fill-rule:nonzero;stroke:none" id="path55"></path></g><g id="g57" transform="translate(202.0518,376.6748)"><path d="m 0,0 c -0.11,0.952 -0.11,3.106 -0.11,4.949 v 29.507 c -0.789,0.141 -1.584,0.27 -2.372,0.404 V 5.099 c 0,-1.679 0,-3.963 0.107,-4.966 0.263,-2.409 1.295,-3.327 2.755,-3.974 0.39,-0.136 0.829,-0.246 1.305,-0.305 0.263,0.069 0.521,0.141 0.748,0.231 C 1.108,-3.216 0.228,-2.195 0,0" style="fill:#b4921f;fill-opacity:1;fill-rule:nonzero;stroke:none" id="path59"></path></g><g id="g61" transform="translate(256.9609,427.75)"><path d="m 0,0 c -1.458,-0.518 -1.648,-1.971 -1.648,-3.446 0,-0.267 0,-0.572 0.008,-0.832 l 0.012,-0.719 v -13.332 c 0.804,-0.093 1.587,-0.16 2.367,-0.245 V -5.359 C 0.728,-3.572 0.399,-1.134 2.313,-0.264 2.186,-0.16 2.018,-0.069 1.837,0.018 1.154,0.083 0.501,0.083 0,0" style="fill:#b4921f;fill-opacity:1;fill-rule:nonzero;stroke:none" id="path63"></path></g><g id="g65" transform="translate(257.7002,379.165)"><path d="M 0,0 V 22.533 C -0.78,22.6 -1.563,22.658 -2.368,22.72 V 0.078 l -0.011,-2.119 c -0.008,-0.591 -0.008,-1.147 -0.008,-1.626 0,-4.322 0.344,-5.062 3.733,-5.204 0.087,0.041 0.161,0.069 0.227,0.111 C -0.303,-7.989 -0.012,-5.829 0,0" style="fill:#b4921f;fill-opacity:1;fill-rule:nonzero;stroke:none" id="path67"></path></g><g id="g69" transform="translate(281.2178,380.3711)"><path d="m 0,0 c 0,-7.943 0,-10.33 -1.143,-12.101 l -0.056,-0.119 c -0.633,-1.054 -1.658,-2.804 -5.188,-3.937 -0.599,-0.173 -1.383,-0.323 -2.344,-0.448 1.947,0.145 3.733,0.38 4.907,0.699 3.563,1.142 4.487,2.883 5.098,3.915 1.085,1.711 1.093,3.967 1.093,11.927 V 14.849 C 1.575,14.868 0.785,14.896 0,14.919 Z" style="fill:#b4921f;fill-opacity:1;fill-rule:nonzero;stroke:none" id="path71"></path></g><g id="g73" transform="translate(281.2271,417.3682)"><path d="m 0,0 -0.009,-1.798 v -15.988 c 0.785,-0.025 1.575,-0.041 2.367,-0.086 V -1.958 C 2.364,3.574 2.85,7.3 -0.561,10.313 -2.669,12.09 -5,12.954 -9.701,13.952 -6.562,13.115 -4.724,12.232 -3.018,10.769 0.086,7.963 0.058,4.638 0,0" style="fill:#b4921f;fill-opacity:1;fill-rule:nonzero;stroke:none" id="path75"></path></g><g id="g77" transform="translate(332.0195,420.2236)"><path d="m 0,0 v -45.548 c 0,-3.787 -0.014,-8.054 -6.128,-10.371 -0.643,-0.213 -1.524,-0.414 -2.651,-0.56 2.525,0.185 4.175,0.452 5.197,0.814 5.771,2.184 5.939,6.036 5.939,10.148 V 0.185 c 0,3.873 -0.183,7.595 -5.939,9.102 -0.947,0.201 -2.394,0.304 -4.535,0.314 0.816,-0.05 1.468,-0.143 1.969,-0.264 C -0.014,7.688 -0.01,3.613 0,0" style="fill:#b4921f;fill-opacity:1;fill-rule:nonzero;stroke:none" id="path79"></path></g><g id="g81" transform="translate(307.3545,420.124)"><path d="m 0,0 v -46.553 c 0.013,-2.764 0.892,-3.583 2.698,-3.785 0.259,0.112 0.513,0.267 0.703,0.442 -0.681,0.587 -1.026,1.636 -1.037,3.343 0,13.157 -0.006,34.172 0,46.565 C 2.375,1.698 2.72,2.68 3.401,3.267 3.211,3.432 2.976,3.559 2.72,3.661 0.87,3.461 0.021,2.67 0,0" style="fill:#b4921f;fill-opacity:1;fill-rule:nonzero;stroke:none" id="path83"></path></g><g id="g85" transform="translate(362.707,374.7461)"><path d="m 0,0 v 51.407 c 0,3.771 0.118,6.532 0.729,8.933 -0.788,-0.174 -1.579,-0.363 -2.37,-0.516 L -1.65,59.752 c -0.586,-2.327 -0.721,-4.978 -0.721,-8.76 V -0.053 c 0.029,-2.913 0.924,-3.804 2.691,-4.008 0.293,0.122 0.553,0.286 0.766,0.491 C 0.396,-2.946 0.012,-1.862 0,0" style="fill:#b4921f;fill-opacity:1;fill-rule:nonzero;stroke:none" id="path87"></path></g><g id="g89" transform="translate(387.5791,364.6875)"><path d="M 0,0 H 2.335 C 1.019,2.781 0.533,7.429 0.518,10.784 v 56.275 c 0.01,4.339 0.121,7.615 0.604,10.45 C 0.33,77.256 -0.462,76.992 -1.244,76.731 V 76.678 C -1.747,73.836 -1.86,70.528 -1.86,66.441 V 10.703 c 0,-3.338 0.486,-7.879 1.807,-10.601 z" style="fill:#b4921f;fill-opacity:1;fill-rule:nonzero;stroke:none" id="path91"></path></g><g id="g93" transform="translate(304.6016,452.3623)"><path d="m 0,0 v -1.598 c -1.092,0.121 -3.992,0.191 -6.467,0.252 V -6.17 c 2,-0.041 5.082,-0.102 5.815,-0.063 v -1.609 c -0.733,0.074 -3.815,0.161 -5.815,0.202 v -8.213 c 0,-0.413 0.071,-0.868 0.257,-1.403 l -6.418,0.128 c 0.258,0.496 0.369,1.004 0.369,1.399 v 14.403 c 0,0.508 -0.111,1.083 -0.369,1.578 z" style="fill:#b4921f;fill-opacity:1;fill-rule:nonzero;stroke:none" id="path95"></path></g><g id="g97" transform="translate(322.248,452.4941)"><path d="m 0,0 v -6.718 l -4.959,-0.081 v 1.627 c 0,1.044 0.15,3.484 -0.981,3.805 -0.37,0.108 -1.063,0.122 -1.62,-0.06 -0.863,-0.313 -0.759,-1.163 -0.759,-1.882 v -10.642 c 0,-1.022 -0.104,-1.851 0.623,-2.051 0.327,-0.123 1.386,-0.145 1.821,0.018 0.846,0.286 0.734,0.943 0.734,2.134 v 3.49 L 0,-10.278 v -4.227 c 0,-0.9 0.069,-1.77 -0.921,-2.328 -0.985,-0.555 -2.253,-0.688 -5.724,-0.737 l -1.552,-0.033 c -3.873,-0.061 -5.912,0.215 -5.912,2.188 v 12.508 c 0,0.249 -0.065,1.794 1.134,2.411 1.787,0.889 8.016,0.684 9.469,0.639 z" style="fill:#b4921f;fill-opacity:1;fill-rule:nonzero;stroke:none" id="path99"></path></g><g id="g101" transform="translate(235.3701,460.2529)"><path d="m 0,0 v -2.51 c 15.552,-5.682 32.436,-9.388 50.306,-11.044 v 2.324 C 32.404,-9.552 15.52,-5.767 0,0" style="fill:#b4921f;fill-opacity:1;fill-rule:nonzero;stroke:none" id="path103"></path></g><g id="g105" transform="translate(328.2949,449.0645)"><path d="m 0,0 v -2.317 c 21.916,2.085 42.411,7.314 60.38,15.297 v 2.568 C 42.49,7.445 21.99,2.134 0,0" style="fill:#b4921f;fill-opacity:1;fill-rule:nonzero;stroke:none" id="path107"></path></g><g id="g109" transform="translate(201.0723,355.2236)"><path d="m 0,0 h 1.644 v -10.577 c 0,-0.542 0,-0.877 0.125,-1.282 h -2.872 c 0.162,0.433 0.212,0.74 0.212,1.282 v 7.875 H -2.21 V -1.48 C -1.189,-1.338 -0.613,-1.278 0,0" style="fill:#ffffff;fill-opacity:1;fill-rule:nonzero;stroke:none" id="path111"></path></g><g id="g113" transform="translate(228.4771,350.4063)"><path d="m 0,0 v 2.639 c 0,0.776 0,1.043 -0.27,1.233 -0.2,0.132 -0.459,0.07 -0.589,0.02 C -1.15,3.775 -1.219,3.438 -1.219,2.667 V 0.738 c 0,-0.255 0,-0.962 0.019,-1.054 0.086,-0.556 0.425,-0.665 0.764,-0.585 C -0.188,-0.841 0,-0.6 0,0 M -3.684,-2.973 H -1.2 v -1.259 c 0,-0.975 -0.029,-1.688 0.309,-1.855 0.116,-0.052 0.343,-0.104 0.607,0.018 0.358,0.172 0.332,0.979 0.332,1.67 v 2.536 c -0.702,-0.252 -2.496,-0.433 -3.245,0.08 -0.435,0.296 -0.487,0.851 -0.487,1.318 v 3.104 c 0,0.931 0.037,1.548 0.301,1.923 0.383,0.568 1.981,0.487 2.416,0.487 h 0.851 c 0.495,0 1.915,0.03 2.351,-0.469 C 2.539,4.249 2.483,3.725 2.483,2.771 v -7.667 c 0,-0.454 0.065,-1.378 -0.435,-1.883 -0.543,-0.535 -2,-0.42 -2.569,-0.42 h -0.774 c -0.567,0 -1.674,0.025 -2.088,0.461 -0.334,0.358 -0.301,0.938 -0.301,1.902 z" style="fill:#ffffff;fill-opacity:1;fill-rule:nonzero;stroke:none" id="path115"></path></g><g id="g117" transform="translate(253.8447,348.4629)"><path d="m 0,0 v -3.237 c 0,-0.423 -0.019,-0.679 0.295,-0.868 0.114,-0.063 0.434,-0.063 0.559,0 0.366,0.179 0.35,0.577 0.35,0.907 V 0.02 c 0,0.343 0,0.596 -0.325,0.74 C 0.685,0.871 0.368,0.81 0.248,0.72 -0.035,0.526 0,0.266 0,0 M 0,5.017 V 2.792 C 0,2.357 -0.019,2.093 0.295,1.913 c 0.114,-0.051 0.434,-0.051 0.559,0 0.366,0.167 0.35,0.579 0.35,0.911 v 2.233 c 0,0.325 0,0.568 -0.325,0.72 C 0.685,5.88 0.368,5.835 0.248,5.729 -0.035,5.537 0,5.28 0,5.017 M 2.682,1.458 C 3.581,1.103 3.733,0.883 3.733,-0.051 v -2.804 c 0,-0.805 0.101,-1.699 -0.657,-2.113 -0.775,-0.414 -4.153,-0.403 -4.938,0.031 -0.661,0.425 -0.592,1.449 -0.592,2.147 v 2.52 c 0,0.915 -0.069,1.282 0.961,1.685 -0.92,0.224 -0.974,0.665 -0.974,1.535 v 1.691 c 0,0.612 -0.056,1.48 0.379,1.882 C -1.554,7.073 -0.293,7 0.345,7 H 0.729 C 1.118,7 2.756,7.08 3.333,6.495 3.758,6.029 3.683,5.038 3.683,4.562 V 2.844 C 3.683,2.027 3.607,1.713 2.682,1.458" style="fill:#ffffff;fill-opacity:1;fill-rule:nonzero;stroke:none" id="path119"></path></g><g id="g121" transform="translate(283.1294,349.7061)"><path d="m 0,0 c 0.911,-0.332 1.054,-0.627 1.054,-1.596 v -2.54 c 0,-0.428 0.048,-1.661 -0.431,-2.133 -0.384,-0.345 -0.877,-0.316 -1.907,-0.316 H -3.01 c -0.849,0 -1.547,0.032 -1.862,0.397 -0.311,0.375 -0.256,1.112 -0.256,1.873 v 2.545 h 2.488 v -1.762 c 0,-0.9 -0.05,-1.568 0.334,-1.787 0.102,-0.068 0.299,-0.11 0.536,0 0.32,0.178 0.279,0.839 0.279,1.689 v 1.378 c 0,0.663 0.041,1.181 -0.325,1.505 -0.141,0.102 -0.455,0.12 -1.053,0.12 V 0.47 c 0.457,0 0.986,-0.036 1.222,0.2 0.197,0.2 0.156,0.665 0.156,1.448 v 1.437 c 0,0.295 -0.057,0.535 -0.344,0.739 -0.122,0.066 -0.436,0.088 -0.628,0 C -2.933,4.05 -2.877,3.718 -2.877,3.208 v -1.83 h -2.242 v 4.14 c 0,0 2.504,0.099 2.783,0.099 1.184,0 2.509,0.098 3.071,-0.557 C 1.108,4.604 1.054,3.904 1.054,3.14 V 1.75 C 1.054,1.052 1.034,0.7 0.635,0.303 0.467,0.134 0.219,0.021 0,0" style="fill:#ffffff;fill-opacity:1;fill-rule:nonzero;stroke:none" id="path123"></path></g><g id="g125" transform="translate(330.666,345.4893)"><path d="M 0,0 H 2.168 C 3.03,0 3.314,0 3.974,0.081 v -2.206 h -6.64 v 2.114 l 2.288,2.733 C 0.604,3.856 1.086,4.397 1.238,5.331 1.313,5.837 1.368,7.487 1.244,7.973 1.174,8.204 1.092,8.405 0.783,8.511 0.604,8.577 0.369,8.549 0.203,8.427 -0.203,8.121 -0.152,7.214 -0.152,6.375 V 5.302 H -2.447 V 9.497 C -1.762,9.608 -0.421,9.761 0.226,9.771 1.525,9.813 2.82,9.863 3.386,9.276 3.84,8.841 3.824,7.828 3.824,7.263 V 6.271 c 0,-1.819 -0.109,-1.819 -1.76,-3.824 z" style="fill:#ffffff;fill-opacity:1;fill-rule:nonzero;stroke:none" id="path127"></path></g><g id="g129" transform="translate(358.5029,353.3896)"><path d="m 0,0 c 0,0.556 -0.096,0.802 -0.606,0.802 -0.536,0 -0.66,-0.246 -0.66,-0.802 v -8.325 c 0,-0.556 0.124,-0.797 0.66,-0.797 0.51,0 0.606,0.241 0.606,0.797 z m 2.479,-8.093 c 0,-0.977 -0.025,-1.27 -0.358,-1.67 -0.373,-0.433 -0.935,-0.506 -2.744,-0.506 -1.624,0 -2.179,0.073 -2.501,0.292 -0.632,0.48 -0.578,1.165 -0.578,1.884 v 7.881 c 0,0.717 -0.054,1.415 0.578,1.882 0.322,0.243 0.877,0.293 2.501,0.293 1.809,0 2.371,-0.05 2.744,-0.497 0.333,-0.389 0.358,-0.718 0.358,-1.678 z" style="fill:#ffffff;fill-opacity:1;fill-rule:nonzero;stroke:none" id="path131"></path></g><g id="g133" transform="translate(385.0859,353.3896)"><path d="M 0,0 C 0,0.556 -0.089,0.802 -0.602,0.802 -1.139,0.802 -1.241,0.556 -1.241,0 v -8.325 c 0,-0.556 0.102,-0.797 0.639,-0.797 0.513,0 0.602,0.241 0.602,0.797 z m 2.493,-8.093 c 0,-0.977 -0.024,-1.27 -0.378,-1.67 -0.346,-0.433 -0.915,-0.506 -2.717,-0.506 -1.633,0 -2.183,0.073 -2.508,0.292 -0.639,0.48 -0.575,1.165 -0.575,1.884 v 7.881 c 0,0.717 -0.064,1.415 0.575,1.882 0.325,0.243 0.875,0.293 2.508,0.293 1.802,0 2.371,-0.05 2.717,-0.497 0.354,-0.389 0.378,-0.718 0.378,-1.678 z" style="fill:#ffffff;fill-opacity:1;fill-rule:nonzero;stroke:none" id="path135"></path></g><g id="g137" transform="translate(408.7822,348.3301)"><path d="M 0,0 H 2.259 V 4.395 Z M 2.166,6.894 H 4.945 C 4.849,6.55 4.831,6.295 4.831,5.88 V 0 h 1.171 v -1.879 h -1.21 v -2.114 c 0,-0.311 -0.016,-0.596 0.082,-0.973 H 2.123 c 0.124,0.326 0.166,0.662 0.166,1.023 v 2.064 H -1.283 V 0 Z" style="fill:#ffffff;fill-opacity:1;fill-rule:nonzero;stroke:none" id="path139"></path></g><g id="g141" transform="translate(303.0742,344.2451)"><path d="M 0,0 3.543,3.005 7.055,0 5.475,4.409 9.262,6.716 4.736,6.696 3.543,10.853 2.344,6.696 -2.171,6.716 1.598,4.409 Z" style="fill:#ffffff;fill-opacity:1;fill-rule:nonzero;stroke:none" id="path143"></path></g><g id="g145" transform="translate(179.3311,335.876)"><path d="M 0,0 V -3.271 -4.39 h 20.354 v -0.081 c 26.378,-10.924 33.007,-28.908 35.8,-39.418 h 142.419 c 2.799,10.51 9.421,28.494 35.806,39.418 V -4.39 H 254.68 V -3.271 0 Z" style="fill:#b4921f;fill-opacity:1;fill-rule:nonzero;stroke:none" id="path147"></path></g><g id="g149" transform="translate(428.6123,364.9111)"><path d="M 0,0 V 9.933 C -5.164,9.287 -8.169,9.058 -14.787,8.821 v 51.187 45.315 c 0,4.304 0.355,6.346 1.079,10.615 -7.306,-5.239 -14.297,-9.742 -21.577,-13.922 0.853,-2.293 1.209,-3.722 1.209,-7.241 V 55.887 8.709 C -34.083,4.835 -34.432,3.045 -35.285,-0.171 -23.31,-0.132 -11.887,-0.071 0,0" style="fill:#ffffff;fill-opacity:1;fill-rule:nonzero;stroke:none" id="path151"></path></g><g id="g153" transform="translate(180.9004,437.5625)"><path d="m 0,0 c 1.784,-4.702 5.182,-8.601 12.661,-15.104 0.785,-0.699 1.535,-1.355 2.292,-2.013 6.333,-5.089 10.259,-7.354 11.556,-14.779 0.226,-1.405 0.369,-4.476 0.369,-7.721 v -15.32 c 0,-4.645 0,-7.464 -2.309,-9.37 -0.255,-0.191 -0.604,-0.354 -0.985,-0.496 -0.227,-0.09 -0.485,-0.162 -0.748,-0.23 -1.466,-0.333 -3.331,-0.313 -4.581,0.153 -1.608,0.719 -2.672,1.747 -2.934,4.26 -0.106,0.977 -0.115,3.152 -0.115,5.042 v 30.124 c -5.68,1.022 -11.106,2.067 -16.761,3.231 V -72.8 c 5.575,-0.518 16.964,-1.115 21.506,-1.125 8.528,-0.013 17.261,-0.263 21.248,3.175 3.772,3.58 3.665,8.983 3.662,14.84 v 18.552 c 0.009,6.936 0.464,14.83 -4.864,21.355 -5.808,6.424 -17.682,11.661 -21.383,19.14 -0.491,0.98 -0.848,2.986 -0.858,8.566 v 14.67 c 0,1.949 0.128,3.154 0.251,3.51 0.398,2.561 1.563,3.003 3.034,2.561 1.549,-0.508 2.968,-1.488 3.924,-2.431 0.239,-0.232 0.447,-0.463 0.636,-0.687 0.012,-0.019 0.046,-0.052 0.059,-0.081 2.411,-3.279 2.43,-7.234 2.43,-10.988 V 1.437 c 5.311,-1.76 10.394,-3.297 15.673,-4.776 V 27.688 C 30.558,35.325 15.608,45.812 11.448,48.828 7.351,51.791 4.02,53.087 1.86,51.957 0.194,51.288 -0.901,48.93 -1.276,45.277 -1.604,41.598 -1.555,37.741 -1.555,36.052 V 20.223 C -1.559,9.921 -1.681,4.733 0,0" style="fill:#ffffff;fill-opacity:1;fill-rule:nonzero;stroke:none" id="path155"></path></g><g id="g157" transform="translate(253.7041,428.7998)"><path d="M 0,0 C 1.301,0.242 3.758,-0.161 5.094,-0.816 5.275,-0.899 5.443,-0.997 5.569,-1.091 V -1.1 c 1.72,-1.42 1.705,-2.399 1.705,-5.362 v -13.512 c -3.098,0.271 -6.025,0.566 -9.102,0.9 V -5.319 C -1.847,-3.396 -2.211,-0.756 0,0 m -18.105,-58.649 c 0.377,-1.163 2.042,-4.41 4.972,-5.411 3.591,-1.041 9.55,-1.236 13.971,-1.244 0.629,-0.009 1.215,-0.009 1.831,-0.009 1.6,0 11.481,-0.061 15.187,0.978 3.572,1.143 4.492,2.907 5.106,3.958 1.087,1.696 1.087,3.977 1.087,11.992 v 14.974 c -5.682,0.214 -11.114,0.427 -16.775,0.736 0,-3.678 0.015,-13.835 0.015,-17.356 0,-5.774 0.227,-7.637 -1.72,-8.658 -0.066,-0.041 -0.14,-0.07 -0.227,-0.1 -0.03,-0.034 -0.073,-0.053 -0.132,-0.075 -0.376,-0.095 -1.564,-0.19 -2.302,-0.178 -5.311,0.092 -4.755,1.156 -4.736,9.293 v 23.075 c 8.78,-0.719 17.156,-1.234 25.877,-1.606 v 16.092 c 0.014,5.604 0.501,9.38 -2.914,12.516 C 18.136,2.946 14.693,3.746 4.604,5.818 3.287,6.092 2.024,6.355 0.727,6.648 -6.087,8.136 -11.407,8.952 -13.133,8.753 -14.977,8.308 -15.918,7.66 -16.9,6.589 -18.607,4.313 -18.593,1.874 -18.593,-5.117 v -44.365 c -0.014,-5.149 -0.127,-7.202 0.488,-9.167" style="fill:#ffffff;fill-opacity:1;fill-rule:nonzero;stroke:none" id="path159"></path></g><g id="g161" transform="translate(307.8867,424.0801)"><path d="m 0,0 c 0.869,0 1.589,-0.072 2.188,-0.295 0.255,-0.102 0.491,-0.229 0.681,-0.394 0.662,-0.568 1.024,-1.539 1.027,-3.238 v -46.582 c -0.015,-1.729 -0.365,-2.756 -1.027,-3.343 -0.19,-0.175 -0.444,-0.33 -0.703,-0.442 -0.592,-0.241 -1.305,-0.308 -2.166,-0.308 -2.705,0.017 -3.978,0.741 -3.998,4.093 V -3.937 C -3.963,-0.642 -2.688,-0.013 0,0 m -20.781,-49.346 c -0.004,-2.105 -0.496,-6.443 4.139,-9.501 2.529,-1.449 9.639,-1.747 16.642,-1.747 8.421,0 12.748,0.393 14.721,1.061 5.769,2.183 5.947,6.016 5.947,10.087 v 45.375 c 0,3.828 -0.193,7.477 -5.947,9.075 C 12.73,5.511 8.371,5.521 0,5.511 -7.044,5.48 -14.143,5.624 -16.642,4.328 -21.287,1.759 -20.785,-2.463 -20.781,-4.26 Z" style="fill:#ffffff;fill-opacity:1;fill-rule:nonzero;stroke:none" id="path163"></path></g><g id="g165" transform="translate(339.374,374.3281)"><path d="m 0,0 c 0.009,-3.237 0.22,-5.877 4.368,-8.752 4.695,-2.828 18.066,-3.315 22.246,1.236 0.225,-0.676 0.446,-1.336 0.674,-1.993 0.02,-0.067 0.045,-0.132 0.066,-0.203 h 1.43 c 5.376,0.022 10.546,0.04 15.932,0.05 -1.332,2.747 -1.81,7.326 -1.836,10.627 v 55.047 c 0.016,4.196 0.134,7.333 0.621,10.052 -6.309,-1.948 -12.32,-3.589 -18.579,-5.043 0.348,-2.104 0.597,-4.888 0.597,-7.811 V 0.475 c -0.013,-1.856 -0.381,-2.971 -1.1,-3.627 -0.213,-0.205 -0.473,-0.369 -0.766,-0.491 -0.583,-0.25 -1.304,-0.334 -2.138,-0.341 -2.482,-0.02 -3.982,0.618 -4.014,4.29 v 50.587 c 0.009,3.654 0.125,6.341 0.727,8.66 C 11.846,58.225 5.743,57.215 -0.604,56.397 -0.226,54.524 -0.01,52.034 0,49.404 Z" style="fill:#ffffff;fill-opacity:1;fill-rule:nonzero;stroke:none" id="path167"></path></g><path d="m 293.04,303.285 h 27.388 v 28.201 H 293.04 Z" style="fill:#d91920;fill-opacity:1;fill-rule:nonzero;stroke:none" id="path169"></path><g id="g171" transform="translate(238.2813,331.4863)"><path d="m 0,0 v -17.479 c 2.227,-3.597 4,-7.212 5.375,-10.722 H 27.371 V 0 Z" style="fill:#d91920;fill-opacity:1;fill-rule:nonzero;stroke:none" id="path173"></path></g><g id="g175" transform="translate(347.8281,331.4863)"><path d="m 0,0 v -28.201 h 22.008 c 1.357,3.51 3.146,7.125 5.373,10.722 V 0 Z" style="fill:#d91920;fill-opacity:1;fill-rule:nonzero;stroke:none" id="path177"></path></g><g id="g179" transform="translate(196.9302,499.1572)"><path d="m 0,0 c 1.457,-1.272 2.938,-2.507 4.458,-3.733 2.946,-2.359 6.017,-4.583 9.157,-6.705 0.114,-0.081 0.236,-0.163 0.351,-0.243 0.791,-0.536 1.594,-1.072 2.4,-1.601 0.301,-0.191 0.611,-0.383 0.914,-0.582 1.222,-0.76 2.438,-1.531 3.687,-2.268 0.111,-0.074 0.226,-0.144 0.341,-0.202 1.079,-0.638 2.186,-1.255 3.299,-1.872 20.315,-11.35 43.796,-18.412 68.648,-20.586 -2.011,1.456 -3.838,3.166 -5.406,5.089 -6.496,0.767 -12.896,1.904 -19.127,3.354 -9.5,2.217 -18.671,5.201 -27.371,8.915 -9.771,4.179 -18.937,9.267 -27.385,15.224 v 34.22 c 12.867,6.416 21.646,15.397 27.385,24.605 2.227,3.579 4.001,7.199 5.376,10.71 h 21.97 v 0.04 c 0,4.825 -2.079,7.626 -4.917,8.986 6.829,-0.01 9.817,-5.495 10.077,-8.832 2.429,3.926 6.409,7.201 7.839,11.086 H 38.555 C 35.762,65.103 29.133,47.117 2.755,36.185 V 3.592 c -7.994,7.008 -14.82,14.665 -20.354,22.84 V 18.685 C -12.542,12.067 -6.67,5.807 0,0" style="fill:#b4921f;fill-opacity:1;fill-rule:nonzero;stroke:none" id="path181"></path></g><g id="g183" transform="translate(413.71,502.7393)"><path d="m 0,0 v 32.603 c -26.385,10.932 -33.007,28.918 -35.806,39.42 h -43.165 c 1.408,-3.885 5.396,-7.16 7.829,-11.086 0.263,3.337 3.271,8.822 10.084,8.832 -2.84,-1.36 -4.923,-4.161 -4.923,-8.986 v -0.04 h 0.099 22.008 c 1.357,-3.511 3.146,-7.131 5.373,-10.71 5.736,-9.208 14.511,-18.189 27.378,-24.605 V -8.751 c -8.442,-5.948 -17.626,-11.056 -27.378,-15.237 -8.71,-3.711 -17.873,-6.703 -27.381,-8.93 -6.149,-1.425 -12.434,-2.548 -18.816,-3.318 -1.582,-1.943 -3.399,-3.662 -5.426,-5.119 24.022,2.136 46.761,8.862 66.578,19.604 7.761,4.199 15.095,9.015 21.863,14.436 1.485,1.185 2.929,2.386 4.337,3.621 6.691,5.809 12.585,12.07 17.647,18.693 v 7.742 C 14.775,14.596 7.968,6.957 0,0" style="fill:#b4921f;fill-opacity:1;fill-rule:nonzero;stroke:none" id="path185"></path></g><g id="g187" transform="translate(355.2227,517.335)"><path d="M 0,0 C 0,0 -0.709,1.303 -1.835,2.733 1.718,5.25 4.83,10.4 -0.072,21.83 8.031,7.678 3.229,2.074 0,0 m -48.66,39.39 c -0.93,0 -2.883,-0.373 -3.981,-0.859 1.352,1.891 3.25,5.35 3.981,7.73 0.713,-2.38 2.625,-5.839 3.967,-7.73 -1.09,0.486 -3.047,0.859 -3.967,0.859 M -97.134,0 c -3.217,2.074 -8.032,7.678 0.076,21.83 C -101.966,10.4 -98.837,5.25 -95.302,2.733 -96.425,1.303 -97.134,0 -97.134,0 M 5.143,27.827 C 2.779,32.825 4.662,40.21 5.639,40.939 -0.682,38.56 -1.625,31.774 -1.389,28.759 c -2.115,4.116 -5.432,9.206 -6.006,15.55 -0.052,0.604 -0.099,1.214 -0.099,1.838 v 0.04 c 0,4.826 2.083,7.626 4.924,8.986 -6.814,-0.01 -9.822,-5.494 -10.084,-8.832 -2.434,3.926 -6.421,7.201 -7.829,11.087 -0.294,0.8 -0.487,1.619 -0.523,2.478 -0.063,1.294 0.219,5.005 3.314,6.929 -4.204,-0.727 -5.95,-3.481 -6.619,-6.342 -0.125,-0.576 -0.238,-1.163 -0.276,-1.728 -0.058,-0.478 -0.067,-0.911 -0.077,-1.337 -0.025,-0.282 -0.025,-0.566 -0.018,-0.842 0.095,-4.086 1.743,-7.816 3.156,-10.439 0.749,-1.383 1.445,-2.445 1.796,-3.074 -0.997,0.941 -1.903,1.993 -2.708,3.074 -2.435,3.319 -3.912,7.223 -4.035,11.148 -0.054,0.039 -0.09,0.092 -0.14,0.133 -0.463,0.404 -0.899,0.817 -1.326,1.222 -0.631,0.617 -1.194,1.235 -1.726,1.843 -5.19,5.979 -5.323,11.236 -3.303,15.012 -0.011,-0.034 -0.03,-0.05 -0.048,-0.072 -1.709,-1.64 -2.798,-3.875 -3.374,-6.059 -0.36,-1.304 -0.516,-2.589 -0.516,-3.721 0,-15.8 19.107,-20.244 19.107,-35.022 6.381,-0.039 7.699,-4.784 7.648,-6.391 -0.052,-1.844 -0.923,-4.29 -3.558,-5.637 4.857,0 6.699,-3.207 6.699,-5.707 0,-2.699 -2.128,-4.703 -4.719,-4.703 -3.789,0 -5.125,3.29 -4.441,4.794 -0.207,-1.252 1.118,-3.597 3.396,-3.498 2.973,0.132 3.626,2.531 3.565,3.63 -0.219,4.129 -3.494,4.959 -6.023,4.854 -2.373,-0.085 -4.919,0.237 -5.774,2.37 1.524,-1.77 3.889,-1.59 5.248,-1.303 1.217,0.243 3.603,1.932 3.247,5.033 -0.477,4.209 -4.745,5.402 -6.952,5.031 0,16.834 -22.699,21.425 -22.699,31.166 0,2.519 2.355,4.917 2.902,5.464 -4.912,-2.479 -5.627,-6.144 -5.627,-8.469 0,-13.887 15.895,-18.248 15.895,-27.82 0,-3.941 -2.375,-5.176 -3.589,-5.765 0.427,0.599 0.599,1.759 0.589,2.693 -0.031,2.76 -2.06,4.884 -4.617,5.178 -2.751,0.303 -6.598,-2.076 -6.184,-7.686 0.153,-2.006 1.328,-5.798 4.566,-8.094 -0.63,-0.892 -1.019,-2.004 -1.019,-3.228 0,-0.483 0.072,-0.929 0.183,-1.376 -1.416,1.358 -2.856,2.196 -3.921,2.69 1.484,1.044 2.621,2.722 2.621,2.722 -2.039,1.591 -4.665,4.542 -4.665,9.096 0,5.876 4.331,8.355 7.656,8.133 3.073,-0.212 5.663,-2.419 6.032,-5.33 0.795,4.933 -4.828,9.022 -9.056,13.835 -4.632,5.272 -7.795,12.657 -4.153,19.352 -1.325,-1.205 -3.441,-4.37 -4.007,-6.26 -0.556,1.89 -2.682,5.055 -3.997,6.26 3.645,-6.695 0.487,-14.08 -4.16,-19.352 -4.225,-4.813 -9.84,-8.902 -9.035,-13.835 0.369,2.911 2.943,5.118 6.014,5.33 3.324,0.222 7.668,-2.257 7.668,-8.133 0,-4.554 -2.643,-7.505 -4.668,-9.096 0,0 1.138,-1.678 2.607,-2.722 -1.053,-0.494 -2.501,-1.332 -3.918,-2.69 0.118,0.447 0.193,0.893 0.193,1.376 0,1.224 -0.396,2.336 -1.033,3.228 3.248,2.296 4.424,6.088 4.57,8.094 0.411,5.61 -3.43,7.989 -6.177,7.686 -2.561,-0.294 -4.573,-2.418 -4.619,-5.178 -0.011,-0.934 0.156,-2.094 0.577,-2.693 -1.201,0.589 -3.564,1.824 -3.564,5.765 0,9.572 15.873,13.933 15.873,27.82 0,2.325 -0.707,5.99 -5.616,8.469 0.541,-0.547 2.9,-2.945 2.9,-5.464 0,-9.741 -22.692,-14.332 -22.692,-31.166 -2.204,0.371 -6.465,-0.822 -6.949,-5.031 -0.355,-3.101 2.048,-4.79 3.243,-5.033 1.37,-0.287 3.727,-0.467 5.245,1.303 -0.845,-2.133 -3.4,-2.455 -5.785,-2.37 -2.499,0.105 -5.79,-0.725 -6.006,-4.854 -0.056,-1.099 0.606,-3.498 3.566,-3.63 2.275,-0.099 3.61,2.246 3.394,3.498 0.679,-1.504 -0.655,-4.794 -4.432,-4.794 -2.595,0 -4.725,2.004 -4.725,4.703 0,2.5 1.848,5.707 6.694,5.707 -2.621,1.347 -3.497,3.793 -3.556,5.637 -0.05,1.607 1.258,6.352 7.647,6.391 0,14.778 19.109,19.222 19.109,35.022 0,1.132 -0.162,2.417 -0.522,3.721 -0.572,2.166 -1.665,4.369 -3.322,6.017 -0.031,0.034 -0.062,0.074 -0.099,0.114 2.018,-3.776 1.873,-9.033 -3.317,-15.012 -0.743,-0.851 -1.583,-1.721 -2.551,-2.609 -0.159,-0.153 -0.313,-0.296 -0.479,-0.456 -0.052,-0.041 -0.097,-0.094 -0.147,-0.133 -0.11,-3.925 -1.603,-7.829 -4.027,-11.148 -0.806,-1.081 -1.71,-2.133 -2.706,-3.074 0.344,0.629 1.036,1.691 1.801,3.074 1.411,2.623 3.055,6.353 3.147,10.439 0.004,0.265 -0.02,0.56 -0.02,0.842 -0.023,0.84 -0.081,1.699 -0.249,2.589 -0.035,0.163 -0.066,0.315 -0.106,0.476 -0.674,2.861 -2.413,5.615 -6.602,6.342 3.09,-1.924 3.36,-5.635 3.308,-6.929 -0.048,-0.859 -0.243,-1.678 -0.518,-2.478 -1.429,-3.886 -5.41,-7.161 -7.839,-11.087 -0.26,3.338 -3.247,8.822 -10.077,8.832 2.838,-1.36 4.918,-4.16 4.918,-8.986 v -0.04 c -0.01,-7.211 -3.795,-12.886 -6.111,-17.388 0.248,3.015 -0.69,9.801 -7.032,12.18 0.991,-0.729 2.868,-8.114 0.509,-13.112 -4.658,-9.854 -10.301,-13.564 -9.75,-22.761 0.369,-6.006 4.085,-12.624 12.336,-14.94 -0.348,-8.395 5.121,-12.713 10.072,-14.188 1.361,-0.41 2.681,-0.622 3.845,-0.622 5.474,0 8.665,2.955 10.047,4.484 -0.36,-1.994 -4.909,-7.689 -12.186,-6.272 3.94,-4.936 9.17,-5.119 11.011,-5.089 -0.013,-0.417 -0.03,-0.837 -0.03,-1.275 0,-6.849 2.409,-13.12 6.441,-18.045 1.568,-1.923 3.394,-3.633 5.406,-5.089 4.697,-3.39 10.453,-5.39 16.689,-5.39 6.24,0 12.008,2.012 16.711,5.409 2.028,1.457 3.844,3.177 5.426,5.119 4.003,4.904 6.394,11.177 6.394,17.996 0,0.438 -0.012,0.851 -0.025,1.275 2.104,0.011 6.932,0.464 10.623,5.089 -7.285,-1.417 -11.826,4.278 -12.184,6.272 1.387,-1.529 4.575,-4.484 10.053,-4.484 1.186,0 2.553,0.225 3.955,0.65 4.918,1.516 10.291,5.846 9.953,14.16 8.249,2.316 11.967,8.934 12.334,14.94 0.54,9.197 -5.089,12.907 -9.749,22.761" style="fill:#b4921f;fill-opacity:1;fill-rule:nonzero;stroke:none" id="path189"></path></g><g id="g191" transform="translate(255.5801,507.4609)"><path d="m 0,0 c -8.251,2.316 -11.968,8.934 -12.336,14.94 -0.551,9.197 5.091,12.907 9.75,22.761 2.359,4.998 0.482,12.383 -0.51,13.112 6.343,-2.379 7.281,-9.165 7.033,-12.18 2.315,4.502 6.101,10.177 6.11,17.388 h -21.97 c -1.375,-3.511 -3.149,-7.13 -5.376,-10.71 v -74.049 c 8.7,-3.714 17.871,-6.698 27.371,-8.914 v 23.464 C 5.12,-12.713 -0.348,-8.395 0,0" style="fill:#d91920;fill-opacity:1;fill-rule:nonzero;stroke:none" id="path193"></path></g><g id="g195" transform="translate(353.834,546.0942)"><path d="M 0,0 C -0.236,3.015 0.707,9.8 7.027,12.18 6.051,11.451 4.168,4.065 6.531,-0.933 c 4.66,-9.853 10.289,-13.563 9.749,-22.76 -0.366,-6.006 -4.085,-12.624 -12.334,-14.94 0.339,-8.314 -5.034,-12.644 -9.952,-14.16 v -23.48 c 9.508,2.227 18.671,5.219 27.381,8.93 V 6.678 c -2.227,3.579 -4.016,7.199 -5.373,10.71 H -6.006 V 15.549 C -5.433,9.206 -2.115,4.116 0,0" style="fill:#d91920;fill-opacity:1;fill-rule:nonzero;stroke:none" id="path197"></path></g><g id="g199" transform="translate(292.7109,528.9966)"><path d="M 0,0 C 0.618,0 1.124,0.496 1.124,1.113 1.124,1.724 0.618,2.219 0,2.219 -0.635,2.219 -1.133,1.724 -1.133,1.113 -1.133,0.496 -0.635,0 0,0" style="fill:#ffffff;fill-opacity:1;fill-rule:nonzero;stroke:none" id="path201"></path></g><g id="g203" transform="translate(290.3145,524.396)"><path d="M 0,0 C 1.113,0.029 2.646,0.333 4.021,1.447 3.516,1.256 2.969,1.132 2.38,1.132 c -2.562,0 -4.647,2.056 -4.647,4.581 0,0.438 0.076,0.853 0.198,1.245 C -3.252,7.12 -4.645,7.696 -5.698,8.578 -5.898,8.146 -6.141,6.907 -6.131,5.898 -6.077,1.701 -2.246,-0.041 0,0" style="fill:#ffffff;fill-opacity:1;fill-rule:nonzero;stroke:none" id="path205"></path></g><g id="g207" transform="translate(320.6445,528.9966)"><path d="M 0,0 C 0.623,0 1.118,0.496 1.118,1.113 1.118,1.724 0.623,2.219 0,2.219 -0.629,2.219 -1.13,1.724 -1.13,1.113 -1.13,0.496 -0.629,0 0,0" style="fill:#ffffff;fill-opacity:1;fill-rule:nonzero;stroke:none" id="path209"></path></g><g id="g211" transform="translate(329.1523,530.2939)"><path d="M 0,0 C 0.025,1.009 -0.213,2.248 -0.422,2.68 -1.51,1.751 -2.865,1.222 -4.039,1.06 c 0.116,-0.392 0.192,-0.807 0.192,-1.245 0,-2.524 -2.087,-4.581 -4.661,-4.581 -0.583,0 -1.13,0.124 -1.638,0.315 1.38,-1.113 2.918,-1.418 4.017,-1.447 C -3.867,-5.938 -0.043,-4.197 0,0" style="fill:#ffffff;fill-opacity:1;fill-rule:nonzero;stroke:none" id="path213"></path></g><g id="g215" transform="translate(334.8975,521.1104)"><path d="m 0,0 c 0,0 1.848,3.47 -0.008,8.152 0.823,-8.59 -6.743,-13.9 -14.241,-10.158 0.107,-0.859 0.178,-1.759 0.178,-2.721 0,-1.92 -0.744,-5.533 -4.49,-5.533 -1.137,0 -2.439,0.57 -3.308,1.273 -0.097,1.702 0.845,5.748 4.477,4.26 -0.502,0.991 -1.543,1.407 -2.627,1.407 -1.182,0 -2.457,-1.123 -3.089,-3.026 -0.827,-2.558 -2.784,-4.428 -5.117,-4.428 -2.338,0 -4.28,1.87 -5.122,4.428 -0.626,1.903 -1.902,3.026 -3.082,3.026 -1.078,0 -2.131,-0.416 -2.62,-1.407 3.634,1.488 4.565,-2.558 4.474,-4.26 -0.878,-0.703 -2.173,-1.273 -3.311,-1.273 -3.753,0 -4.496,3.613 -4.496,5.533 0,0.962 0.075,1.862 0.179,2.721 -7.48,-3.742 -15.053,1.568 -14.223,10.158 C -58.298,3.47 -56.452,0 -56.452,0 c -8.768,0.79 -12.649,-5.575 -12.649,-9.662 0,-4.087 3.363,-6.715 6.113,-6.929 3.411,-0.253 6.446,2.364 5.125,6.098 0.454,-3.763 -2.717,-4.569 -4.261,-4.569 -1.319,0 -4.535,1.163 -4.535,5.319 0,4.146 4.535,7.241 8.537,6.958 6.446,-0.443 9.993,-6.392 9.297,-11.976 0.416,-0.758 3.118,-5.483 8.521,-5.483 6.35,0 7.707,4.997 12.079,4.997 4.378,0 5.724,-4.997 12.094,-4.997 5.4,0 8.093,4.725 8.517,5.483 -0.703,5.584 2.849,11.533 9.296,11.976 3.987,0.283 8.544,-2.812 8.544,-6.958 0,-4.156 -3.225,-5.319 -4.544,-5.319 -1.538,0 -4.712,0.806 -4.255,4.569 -1.323,-3.734 1.716,-6.351 5.127,-6.098 2.748,0.214 6.103,2.842 6.103,6.929 C 12.657,-5.575 8.771,0.79 0,0" style="fill:#ffffff;fill-opacity:1;fill-rule:nonzero;stroke:none" id="path217"></path></g><g id="g219" transform="translate(297.0313,492.6216)"><path d="M 0,0 C -1.225,1.187 -1.649,4.321 0.87,5.898 4.953,7.091 7.465,10.249 9.424,10.47 9.424,8.813 9.418,2.996 9.418,2.813 5.816,0.951 2.613,-1.385 -0.365,-4.339 c -0.214,0.079 -7.558,2.436 -7.805,2.51 -0.168,0.97 -0.249,1.898 -0.249,2.79 0,1.801 0.295,3.481 0.603,5.201 0,0 0.046,0.272 0.082,0.554 C -7.138,6.434 -6.475,6.191 -5.711,6 -5.711,5.97 -5.737,5.96 -5.737,5.938 -6.16,3.995 -4.478,-0.059 0,0" style="fill:#ffffff;fill-opacity:1;fill-rule:nonzero;stroke:none" id="path221"></path></g><g id="g223" transform="translate(322.0518,498.5591)"><path d="M 0,0 C 0,0.022 -0.01,0.033 -0.014,0.063 0.94,0.294 1.755,0.639 2.46,1.021 2.524,0.657 2.596,0.185 2.596,0.185 c 0.282,-1.68 0.561,-3.31 0.561,-5.068 0,-0.934 -0.088,-1.902 -0.279,-2.945 -0.242,-0.071 -7.449,-2.387 -7.66,-2.468 -2.942,2.944 -6.164,5.292 -9.839,7.171 v 7.536 c 1.883,-0.658 4.296,-3.368 8.011,-4.451 2.521,-1.576 2.086,-4.711 0.866,-5.898 C -1.336,-5.996 0.431,-1.942 0,0" style="fill:#ffffff;fill-opacity:1;fill-rule:nonzero;stroke:none" id="path225"></path></g><g id="g227" transform="translate(300.0996,475.9512)"><path d="m 0,0 c -0.123,-0.161 -4.642,-6.424 -4.792,-6.624 -3.031,0.454 -5.273,1.677 -7.421,2.864 l -1.271,0.696 c -1.571,2.741 -2.585,5.836 -2.929,9.094 0.06,0.114 0.526,1.1 0.526,1.1 1.057,2.248 2.14,4.576 4.391,6.768 0.237,-0.081 7.614,-2.445 7.822,-2.519 C -3.031,7.383 -1.821,3.664 0,0" style="fill:#ffffff;fill-opacity:1;fill-rule:nonzero;stroke:none" id="path229"></path></g><g id="g231" transform="translate(300.8838,475.3667)"><path d="m 0,0 c 4.026,-0.649 7.988,-0.649 12.079,0.006 0.126,-0.166 4.186,-5.794 4.186,-5.794 0,0 0.411,-0.558 0.577,-0.777 -1.373,-2.784 -3.216,-4.532 -4.992,-6.214 l -1.001,-0.968 c -1.538,-0.283 -3.203,-0.466 -4.819,-0.466 -1.629,0 -3.3,0.183 -4.936,0.516 -0.108,0.111 -0.933,0.91 -0.933,0.91 l -2.488,2.507 c -1.086,1.246 -1.849,2.401 -2.472,3.673 C -4.646,-6.393 -0.128,-0.183 0,0" style="fill:#ffffff;fill-opacity:1;fill-rule:nonzero;stroke:none" id="path233"></path></g><g id="g235" transform="translate(313.7461,475.9512)"><path d="m 0,0 c 1.837,3.549 3.071,7.273 3.771,11.379 0.211,0.074 7.418,2.378 7.665,2.46 0.8,-0.777 1.478,-1.597 2.072,-2.52 0.965,-1.423 1.67,-2.922 2.281,-4.277 L 16.387,5.775 C 16.018,2.68 15.004,-0.353 13.385,-3.145 13.355,-3.137 12.182,-3.76 12.182,-3.76 10.016,-4.926 7.779,-6.143 4.779,-6.596 4.65,-6.424 0.35,-0.486 0,0" style="fill:#ffffff;fill-opacity:1;fill-rule:nonzero;stroke:none" id="path237"></path></g><g id="g239" transform="translate(285.27,470.9971)"><path d="m 0,0 c 0,0 -0.158,-1.216 -0.263,-1.943 -1.416,1.991 -2.58,4.169 -3.409,6.474 -0.956,2.689 -1.443,5.531 -1.492,8.457 1.253,-1.406 2.331,-2.176 2.645,-2.381 C -2.141,7.403 -1.143,4.358 0.46,1.547 0.414,1.395 0,0 0,0" style="fill:#ffffff;fill-opacity:1;fill-rule:nonzero;stroke:none" id="path241"></path></g><g id="g243" transform="translate(306.9141,457.6709)"><path d="m 0,0 c -2.695,0 -5.363,0.437 -7.928,1.225 1.795,0.791 2.871,1.588 3.091,1.771 C -3.3,2.685 -1.672,2.51 0,2.51 1.66,2.51 3.28,2.685 4.834,2.996 5.052,2.813 6.104,2.016 7.912,1.237 5.355,0.437 2.703,0 0,0" style="fill:#ffffff;fill-opacity:1;fill-rule:nonzero;stroke:none" id="path245"></path></g><g id="g247" transform="translate(328.8066,469.0713)"><path d="m 0,0 c -0.197,1.933 -0.621,3.189 -0.719,3.449 1.588,2.814 2.586,5.857 2.967,9.045 0.471,0.304 1.488,1.084 2.657,2.358 C 4.804,9.472 3.107,4.359 0,0" style="fill:#ffffff;fill-opacity:1;fill-rule:nonzero;stroke:none" id="path249"></path></g><g id="g251" transform="translate(278.3691,485.7739)"><path d="M 0,0 C -1.842,-0.03 -7.072,0.153 -11.011,5.089 -3.735,3.672 0.815,9.367 1.174,11.361 -0.208,9.833 -3.398,6.877 -8.873,6.877 c -1.163,0 -2.483,0.212 -3.844,0.622 v -23.464 c 6.231,-1.451 12.631,-2.587 19.127,-3.355 -4.031,4.925 -6.44,11.196 -6.44,18.045 0,0.438 0.016,0.858 0.03,1.275" style="fill:#231f20;fill-opacity:1;fill-rule:nonzero;stroke:none" id="path253"></path></g><g id="g255" transform="translate(210.8965,528.167)"><path d="m 0,0 v -34.22 c 8.447,-5.956 17.614,-11.045 27.385,-15.224 V 24.605 C 21.646,15.397 12.866,6.416 0,0" style="fill:#231f20;fill-opacity:1;fill-rule:nonzero;stroke:none" id="path257"></path></g><g id="g259" transform="translate(402.5869,493.9878)"><path d="m 0,0 v 34.179 c -12.867,6.416 -21.642,15.397 -27.378,24.605 v -74.02 C -17.626,-11.056 -8.442,-5.948 0,0" style="fill:#231f20;fill-opacity:1;fill-rule:nonzero;stroke:none" id="path261"></path></g><g id="g263" transform="translate(343.873,492.6509)"><path d="m 0,0 c -5.479,0 -8.666,2.956 -10.054,4.484 0.359,-1.994 4.9,-7.689 12.185,-6.272 -3.692,-4.625 -8.52,-5.078 -10.623,-5.089 0.013,-0.424 0.024,-0.837 0.024,-1.275 0,-6.819 -2.39,-13.092 -6.393,-17.996 6.382,0.771 12.667,1.894 18.816,3.318 V 0.65 C 2.553,0.225 1.186,0 0,0" style="fill:#231f20;fill-opacity:1;fill-rule:nonzero;stroke:none" id="path265"></path></g><g id="g267" transform="translate(306.9531,494.563)"><path d="m 0,0 c 3.576,-1.808 6.729,-4.098 9.627,-6.945 -0.712,-4.098 -1.924,-7.793 -3.725,-11.26 -3.987,-0.639 -7.868,-0.661 -11.824,-0.033 -1.818,3.574 -3.022,7.263 -3.654,11.293 2.873,2.86 6.01,5.137 9.576,6.945" style="fill:#231f20;fill-opacity:1;fill-rule:nonzero;stroke:none" id="path269"></path></g><g id="g271" transform="translate(284.4956,499.2905)"><path d="M 0,0 C 1.686,0.461 3.082,0.577 3.825,0.586 3.849,0.577 3.88,0.566 3.907,0.543 3.849,0.221 3.76,-0.327 3.76,-0.327 3.452,-2.035 3.138,-3.775 3.138,-5.708 c 0,-0.949 0.09,-1.964 0.288,-3.035 -2.348,-2.296 -3.446,-4.603 -4.591,-7.038 0,0 -0.246,-0.509 -0.397,-0.821 -0.649,0.485 -1.739,1.366 -2.9,2.855 C -4.25,-8.935 -2.732,-4.128 0,0" style="fill:#231f20;fill-opacity:1;fill-rule:nonzero;stroke:none" id="path273"></path></g><g id="g275" transform="translate(285.8472,467.8789)"><path d="m 0,0 c 0.051,0 0.334,2.61 0.334,2.61 0,0 0.239,0.89 0.359,1.316 0.283,-0.143 0.88,-0.477 0.88,-0.477 2.216,-1.223 4.537,-2.486 7.775,-2.97 0.568,-1.176 1.257,-2.248 2.187,-3.382 l 2.61,-2.762 0.377,-0.364 c 0,0 0.468,-0.433 0.722,-0.685 C 14.729,-7.079 13.513,-7.858 11.67,-8.507 7.094,-6.819 3.071,-3.873 0,0" style="fill:#231f20;fill-opacity:1;fill-rule:nonzero;stroke:none" id="path277"></path></g><g id="g279" transform="translate(316.2324,459.3428)"><path d="m 0,0 c -1.205,0.452 -2.445,1.093 -3.519,1.833 0.229,0.241 0.701,0.703 0.701,0.703 1.961,1.874 3.785,3.633 5.195,6.497 3.211,0.466 5.537,1.729 7.783,2.952 0,0 0.608,0.334 0.891,0.488 0.219,-0.69 0.597,-2.117 0.642,-4.079 C 8.635,4.634 4.59,1.678 0,0" style="fill:#231f20;fill-opacity:1;fill-rule:nonzero;stroke:none" id="path281"></path></g><g id="g283" transform="translate(330.8047,482.5854)"><path d="m 0,0 c -0.131,0.287 -0.378,0.824 -0.378,0.824 -0.86,1.869 -1.62,3.418 -2.753,5.005 0,0 -1.584,1.861 -1.782,2.084 0.21,1.12 0.295,2.164 0.295,3.166 0,1.82 -0.269,3.489 -0.564,5.228 0,0 -0.098,0.576 -0.166,0.912 h 0.061 c 0.561,-0.011 2.058,-0.092 3.973,-0.698 C 1.262,12.504 2.779,7.719 2.92,2.796 1.697,1.256 0.514,0.368 0,0" style="fill:#231f20;fill-opacity:1;fill-rule:nonzero;stroke:none" id="path285"></path></g><path d="m 265.652,303.285 h 27.388 v 28.201 h -27.388 z" style="fill:#231f20;fill-opacity:1;fill-rule:nonzero;stroke:none" id="path287"></path><g id="g289" transform="translate(222.3516,331.4863)"><path d="M 0,0 C 6.874,-5.28 12.082,-11.316 15.93,-17.479 V 0 Z" style="fill:#231f20;fill-opacity:1;fill-rule:nonzero;stroke:none" id="path291"></path></g><g id="g293" transform="translate(375.209,314.0068)"><path d="M 0,0 C 3.835,6.163 9.045,12.199 15.936,17.479 H 0 Z" style="fill:#231f20;fill-opacity:1;fill-rule:nonzero;stroke:none" id="path295"></path></g><path d="m 320.428,303.285 h 27.4 v 28.201 h -27.4 z" style="fill:#231f20;fill-opacity:1;fill-rule:nonzero;stroke:none" id="path297"></path></g></g></g></g></svg>