


<svg version="1.1" id="Layer_1" xmlns="http://www.w3.org/2000/svg" xmlns:xlink="http://www.w3.org/1999/xlink" x="0px" y="0px" width="723.17px" height="744.672px" viewBox="0 0 723.17 744.672" enable-background="new 0 0 723.17 744.672" xml:space="preserve">
<polygon fill="#FFFFFF" points="188.841,158.336 240.841,146.336 264.841,143.336 293.841,125.336 315.841,106.336 335.841,89.336 
	349.841,70.336 371.841,51.336 388.841,32.336 408.841,17.336 437.841,6.336 468.841,6.336 505.841,17.336 532.841,34.336 
	554.841,59.336 568.841,93.336 570.841,130.336 560.841,166.336 590.841,184.336 590.841,225.336 590.841,483.336 572.841,548.336 
	543.841,592.336 497.841,629.336 437.841,675.336 361.585,733.336 306.841,690.336 240.841,636.336 179.841,589.336 
	137.841,515.336 137.841,172.336 "></polygon>
<g>
	<path fill="#0091D7" d="M214.603,588.492V480.883c-22.42,1.909-41.296,3.915-55.273,5.546
		C165.184,528.027,185.212,565.597,214.603,588.492"></path>
	<path fill="#0091D7" d="M273.175,632.787l58.573,44.216V474.651c-20.372,0.398-40.049,1.162-58.573,2.157V632.787z"></path>
	<path fill="#0091D7" d="M390.32,677.84l58.572-44.217V476.749c-18.534-0.984-38.214-1.735-58.572-2.118V677.84z"></path>
	<path fill="#0091D7" d="M507.464,589.39c30.005-22.806,50.452-60.832,56.38-102.962c-14.208-1.657-33.469-3.702-56.38-5.64V589.39z
		"></path>
	<path fill="#0091D7" d="M157.502,194.47v35.073l54.961-48.972C193.991,184.253,175.339,188.806,157.502,194.47"></path>
	<path fill="#0091D7" d="M314.654,167.275c-3.625,0.256-7.432,0.551-11.355,0.875l-30.124,13.386l-58.572,26.028l-57.1,25.374
		v19.883c0.617,0.058,1.237,0.13,1.854,0.187c4.209,0.389,8.201,1.307,11.991,2.625l43.255-26.67l58.572-36.113L314.654,167.275z"></path>
	<path fill="#0091D7" d="M277.354,260.773c1.252,0.048,2.514,0.074,3.767,0.121l50.626-29.794l46.751-27.513l-46.751,19.024
		l-58.573,23.835l-31.123,12.665c0.464,0.025,0.931,0.058,1.396,0.083c6.557,0.355,12.388,3.199,16.699,7.536
		c3.744-3.097,8.223-5.055,13.028-5.675C274.554,260.877,275.942,260.731,277.354,260.773"></path>
	<path fill="#0091D7" d="M378.621,203.538l-0.122,0.05l0.334,0.158C378.761,203.678,378.692,203.606,378.621,203.538"></path>
	<path fill="#0091D7" d="M553.179,190.737c-3.915,5.01-8.161,9.839-12.988,14.291c-9.921,9.146-21.022,16.154-32.727,21.28
		c-10.723,4.695-21.953,7.707-33.357,9.059l0.309,0.079l-25.523,4.176l-58.572,9.584l-55.529,9.086l55.529-27.577l15.53-7.713
		c-0.358-0.185-0.72-0.364-1.076-0.553l-14.454,5.147l-58.572,20.859l-36.224,12.9c12.06,0.364,24.136,0.655,36.224,0.82
		c19.584,0.266,39.154,0.281,58.572,0.029c0.379-0.006,0.761-0.003,1.139-0.009c5.432-0.021,10.487,1.568,14.763,4.502
		c6.295-3.225,13.348-5.052,20.972-5.283c7.204-0.216,14.46-0.555,21.699-0.845c18.477-0.741,36.991-1.632,55.333-2.835
		c1.095-0.076,2.163-0.054,3.239-0.06c10.276-0.062,19.695,2.996,27.359,8.769c7.906-7.768,17.928-12.404,29.303-13.463
		c0.512-0.048,1.031-0.108,1.545-0.156V194.47C561.55,193.161,557.375,191.931,553.179,190.737"></path>
	<path fill="#004B9C" d="M709.264,434.394c-5.481-2.95-18.231-11.424-18.233-26.426c0-0.815-0.04-1.63-0.118-2.438l0.02-28.095
		c0.157-14.194-3.332-26.303-10.384-36.012c6.479-4.664,10.656-12.277,10.631-20.818l-0.036-10.642
		c0.75-14.166,12.929-22.212,18.171-25.027c8.818-4.743,14.467-14.435,13.801-24.426c-0.475-7.142-3.928-13.755-9.513-18.233
		c-5.586-4.473-12.792-6.417-19.866-5.311c-17.489,2.698-35.272,5.215-52.914,7.485c-3.464,0.455-6.925,0.893-10.372,1.321
		c-4.944,0.613-9.928,1.151-14.894,1.732c-4.62,0.542-9.229,1.101-13.855,1.612v-80.184l-7.246-2.675
		c-7.632-2.817-15.448-5.397-23.351-7.803c1.578-4.359,2.967-8.769,4.017-13.256c8.63-36.859-0.561-77.205-28.154-107.132
		c-44.233-47.977-118.985-51.011-166.962-6.777l-99.653,88.794l-17.883,15.933c-41.693,5.167-90.459,14.255-133.749,30.241
		l-7.245,2.675v80.185c-4.638-0.512-9.238-1.07-13.857-1.61c-4.952-0.582-9.943-1.119-14.859-1.73l-10.114-1.281
		c-17.891-2.309-35.793-4.843-53.214-7.53c-7.128-1.112-14.376,0.866-19.976,5.4c-5.599,4.54-9.018,11.227-9.417,18.425
		c-0.551,9.883,5.141,19.469,13.859,24.173c5.476,2.95,18.214,11.429,18.242,26.274L31.91,410.84
		c-1.494,13.715-14.151,21.497-18.053,23.587c-8.959,4.789-14.59,14.632-13.778,24.758c0.565,7.074,4.049,13.592,9.614,17.997
		c1.394,1.103,2.909,1.989,4.474,2.769l-0.06,0.038l0.719,0.254l4.547,1.602l94.592,33.32l15.709,5.533
		c5.869,20.73,14.788,40.024,26.356,57.068c3.365,4.956,6.973,9.696,10.778,14.249c8.215,9.833,17.373,18.733,27.496,26.377
		l20.299,15.323l8.278,6.249l50.294,37.966l8.142,6.146l80.271,60.596l80.271-60.596l7.033-5.31l44.171-33.345l14.401-10.871
		l21.406-16.159c9.111-6.88,17.452-14.769,25.025-23.439c4.299-4.921,8.374-10.071,12.142-15.493
		c12.126-17.446,21.401-37.354,27.462-58.762l15.71-5.533l94.64-33.337l4.402-1.551l0.816-0.288l-0.074-0.047
		c1.65-0.822,3.249-1.76,4.706-2.939c5.597-4.529,9.019-11.21,9.433-18.396C723.696,448.699,718.004,439.091,709.264,434.394
		 M558.091,79.777c7.722,19.779,9.172,41.369,4.54,61.793c-1.019,4.494-2.337,8.926-3.947,13.274
		c-1.849,4.995-4.102,9.859-6.726,14.571c-0.788,1.417-1.599,2.822-2.458,4.208c-0.308,0.497-0.635,0.985-0.952,1.478
		c-1.904,2.961-3.919,5.87-6.147,8.663c-0.44,0.07-1.049,0.157-1.798,0.243c-2.83,0.325-7.788,0.605-13.882-0.018
		c-4.312-0.442-9.192-1.382-14.363-3.096c-0.888-0.294-1.763-0.55-2.666-0.892c-0.114-0.044-0.228-0.093-0.342-0.137
		c0.083-0.075,0.164-0.15,0.249-0.229c1.614-1.488,3.728-3.541,6.109-6.012c1.498-1.555,3.086-3.25,4.79-5.176
		c1.177-1.331,2.391-2.741,3.634-4.244c3.523-4.254,7.263-9.184,10.935-14.743c0.104-0.159,0.211-0.34,0.314-0.5
		c2.457-3.749,4.945-7.933,7.345-12.491c6.801-12.916,12.807-28.89,14.717-47.106C557.772,86.226,558.024,83.043,558.091,79.777
		 M366.091,165.297c-1.683-3.358-3.199-6.77-4.498-10.252c-0.002-0.002-0.002-0.005-0.002-0.008
		c-0.163-0.435-0.38-0.854-0.536-1.291c0.147-0.205,0.352-0.479,0.536-0.732l0.003-0.004c0.345-0.469,0.747-1.004,1.22-1.618
		c0.595-0.771,1.272-1.627,2.064-2.589c1.288-1.565,2.853-3.359,4.64-5.282c2.06-2.215,4.407-4.591,7.092-7.027
		c1.01-0.917,2.045-1.838,3.14-2.759c0.179,3.118,0.551,6.229,1.082,9.331c0.328,1.919,0.813,3.827,1.274,5.737
		c0.253,1.048,0.433,2.1,0.725,3.143c1.332,4.751,3.171,9.454,5.314,14.116c0.699,1.521,1.39,3.042,2.175,4.551
		c5.794,11.143,13.846,21.95,24.155,32.149c7.464,7.384,14.887,13.304,20.945,17.667c-3.345-0.801-6.64-1.829-9.905-2.96
		c-12.697-4.395-24.677-11.278-35.195-20.594c-2.62-2.32-5.174-4.75-7.597-7.378C375.882,182.077,370.399,173.9,366.091,165.297
		 M378.833,203.745l-0.334-0.158l-46.751,27.513l-50.626,29.794c-1.254-0.047-2.515-0.073-3.767-0.121
		c-1.412-0.042-2.801,0.104-4.18,0.282c-4.806,0.62-9.284,2.578-13.029,5.675c-4.31-4.337-10.141-7.181-16.699-7.536
		c-0.464-0.025-0.931-0.058-1.396-0.083l31.124-12.665l58.573-23.835l46.751-19.024l0.122-0.05
		C378.692,203.606,378.761,203.677,378.833,203.745 M419.194,197.733c-8.009-7.942-16.812-18.535-23.273-31.263
		c-2.182-4.297-4.081-8.839-5.601-13.61c-0.061-0.191-0.121-0.382-0.182-0.575c-0.356-1.149-0.694-2.307-1.004-3.482
		c-0.519-1.97-0.957-3.978-1.329-6.018c-0.659-3.607-1.068-7.321-1.202-11.14c-0.018-0.487-0.043-0.972-0.051-1.463
		c-0.002-0.111-0.01-0.219-0.011-0.33c-0.004-0.355-0.037-0.7-0.036-1.057c0.002-0.077-0.013-0.149-0.021-0.223
		c-0.003-0.019-0.004-0.037-0.005-0.055c0.01-0.009,0.021-0.015,0.031-0.024c7.104-5.043,14.334-8.806,21.663-11.323
		c2.332-0.8,4.672-1.487,7.022-2.032c0.107,0.721,0.253,1.604,0.419,2.551c0.604,3.446,1.639,8.306,3.347,14.129
		c1.205,4.107,2.789,8.701,4.761,13.576c0.36,0.891,0.719,1.779,1.107,2.688c0.96,2.239,2.009,4.524,3.156,6.855
		c0.21,0.427,0.381,0.838,0.598,1.267c2.38,4.716,5.08,9.158,7.921,13.468c3.755,5.694,7.87,11.045,12.388,15.977
		c2.023,2.208,4.069,4.391,6.238,6.437c11.422,10.77,24.874,19.247,40.064,25.283c-1.585,0.558-3.21,0.936-4.813,1.416
		c-0.922,0.276-1.862,0.451-2.79,0.702c-11.612,3.147-23.603,4.456-35.497,3.552c-0.542-0.306-1.719-1-3.202-1.913
		C443.117,217.568,431.139,209.577,419.194,197.733 M459.979,187.183c-3.981-3.744-7.629-7.865-11.087-12.182
		c-1.158-1.448-2.334-2.876-3.432-4.384c-3.401-4.674-6.475-9.665-9.268-14.901c-0.432-0.807-0.92-1.563-1.336-2.383
		c-0.9-1.775-1.717-3.52-2.501-5.25c-0.178-0.39-0.359-0.782-0.531-1.17c-2.288-5.177-4.056-10.061-5.442-14.486
		c-1.786-5.696-2.93-10.574-3.627-14.184c-0.167-0.865-0.325-1.706-0.446-2.417c-0.116-0.681-0.234-1.379-0.313-1.905
		c10.487-1.326,21.15-0.142,31.932,3.559c0.351,1.341,0.744,2.625,1.12,3.933c1.466,5.096,3.118,9.943,4.966,14.521
		c2.634,6.526,5.647,12.522,9.04,17.952c1.132,1.811,2.302,3.562,3.517,5.247c0.25,0.348,0.49,0.712,0.744,1.054
		c1.154,1.556,2.342,3.063,3.568,4.507c3.925,4.616,8.25,8.593,12.875,12.046c5.398,4.029,11.215,7.32,17.483,9.705
		c0.076,0.029,0.148,0.049,0.224,0.078c11.193,4.215,21.44,4.934,28.343,4.734c-1.409,1.456-2.862,2.885-4.37,4.275
		c-4.594,4.236-9.49,7.928-14.578,11.19c-3.059,1.96-6.201,3.719-9.395,5.346c-0.932,0.475-1.849,0.991-2.793,1.433
		C487.477,207.75,472.441,198.899,459.979,187.183 M537.472,46.818c4.978,5.399,9.279,11.184,12.915,17.248
		c3.553,28.33-4.842,52.868-14.599,70.804c-2.091,3.844-4.242,7.401-6.354,10.609c-0.428,0.649-0.86,1.229-1.29,1.861
		c-4.027,5.921-8.107,11.104-11.844,15.395c-1.273,1.465-2.505,2.837-3.676,4.097c-1.922,2.064-3.639,3.798-5.16,5.281
		c-2.235,2.182-4.018,3.793-4.978,4.624c-0.175-0.092-0.338-0.21-0.513-0.304c-6.827-3.682-12.996-8.634-18.467-14.729
		c-0.45-0.503-0.931-0.958-1.372-1.476c-0.299-0.351-0.576-0.737-0.87-1.096c-0.739-0.906-1.48-1.81-2.193-2.76
		c0.142-0.133,0.373-0.359,0.534-0.511c2.689-2.526,7.909-7.733,14.005-15.09c3.016-3.641,6.2-7.8,9.413-12.433
		c2.244-3.237,4.485-6.622,6.649-10.292c8.298-14.072,13.713-28.231,16.094-42.086c2.111-12.283,1.678-24.304-0.978-35.95
		c-0.454-1.99-0.829-3.995-1.421-5.962C528.362,37.808,533.088,42.063,537.472,46.818 M513.808,27.649
		c0.041,0.161,0.089,0.322,0.154,0.481c6.086,14.778,7.779,30.442,5.027,46.558c-2.221,13.008-7.32,26.362-15.16,39.693
		c-2.68,4.56-5.504,8.806-8.309,12.687c-3.436,4.751-6.802,8.875-9.885,12.424c-4.494,5.176-8.338,9.045-10.526,11.132
		c-0.133-0.208-0.245-0.448-0.376-0.658c-2.475-3.987-4.692-8.376-6.746-13.01c-2.028-4.575-3.846-9.46-5.449-14.652
		c-0.654-2.117-1.324-4.21-1.907-6.428c3.601-3.706,13.059-14.203,20.847-29.462c11.189-21.922,14-44.514,8.518-65.945
		c-0.292-1.145-0.503-2.3-0.845-3.438C497.708,19.475,506,23.021,513.808,27.649 M401.505,30.875
		c13.034-8.759,27.558-14.18,42.447-16.506c3.095-0.483,6.196-0.846,9.314-1.051c0.028-0.002,0.056-0.002,0.084-0.004
		c3.027-0.198,6.055-0.299,9.085-0.235c0.702,0.012,1.402,0.088,2.104,0.114c2.4,0.099,4.799,0.192,7.189,0.455
		c3.198,0.339,6.384,0.818,9.545,1.464c2.516,7.064,4.022,14.216,4.521,21.431c-1.237-0.401-2.442-0.741-3.661-1.106
		c-24.193-7.257-44.566-7.798-60.452-5.867c-0.046,0.005-0.094,0.009-0.139,0.015c-6.624,0.814-12.546,2.009-17.506,3.4
		c-3.705,1.038-7.091,2.188-10.148,3.373C396.347,34.364,398.922,32.609,401.505,30.875 M357.788,93.816
		c3.452-14.608,10.004-28.598,19.688-40.855c0.037-0.029,0.076-0.055,0.113-0.085c0.018-0.015,0.468-0.361,1.122-0.834
		c0.014-0.011,0.039-0.027,0.053-0.038c2.993-2.162,12.184-8.191,27.137-12.382c2.205-0.619,4.602-1.205,7.163-1.736
		c0.002-0.001,0.003-0.001,0.005-0.001c2.037-0.422,4.198-0.801,6.455-1.135c0.149-0.021,0.289-0.047,0.439-0.068
		c2.154-0.31,4.419-0.562,6.766-0.762c0.352-0.032,0.699-0.061,1.056-0.089c2.328-0.18,4.74-0.301,7.247-0.348
		c0.365-0.007,0.738-0.006,1.107-0.01c2.618-0.027,5.306,0.004,8.108,0.146c0.077,0.005,0.159,0.013,0.236,0.017
		c2.747,0.145,5.597,0.399,8.516,0.733c0.398,0.047,0.784,0.08,1.185,0.13c2.864,0.352,5.82,0.82,8.843,1.379
		c0.564,0.104,1.13,0.211,1.701,0.323c3.043,0.598,6.153,1.297,9.349,2.127c0.503,0.131,1.015,0.28,1.521,0.416
		c3.381,0.912,6.82,1.922,10.362,3.119c-0.23,9.348-2.129,18.792-5.696,28.291c-0.758-0.272-1.511-0.436-2.268-0.693
		c-16.899-5.764-33.75-8.163-50.157-6.919c-12.444,0.943-24.613,4.03-36.318,8.95c-0.053,0.023-0.104,0.045-0.156,0.067
		c-1.802,0.761-3.623,1.445-5.401,2.298c-3.176,1.523-6.138,3.12-8.91,4.737c-3.011,1.757-5.796,3.538-8.328,5.288
		c-4.496,3.107-8.239,6.111-11.146,8.662C357.634,94.299,357.729,94.063,357.788,93.816 M355.605,106.039
		c1.507-1.644,7.777-8.106,17.897-15.005c0.939-0.641,2.04-1.284,3.041-1.927c3.648-2.349,7.613-4.69,12.143-6.881
		c0.184-0.088,0.333-0.187,0.518-0.275c12.575-5.996,25.811-9.544,39.339-10.547c16.01-1.187,32.506,1.214,49.082,7.126
		c-0.688,1.517-1.415,3.035-2.187,4.553c-7.188,14.152-16.104,24.173-19.552,27.775c-0.332-0.113-0.664-0.167-0.996-0.274
		c-20.842-6.779-41.857-4.749-61.577,5.721c-2.692,1.43-5.354,3.037-7.994,4.786c-0.071,0.046-0.142,0.087-0.212,0.134
		c-0.858,0.572-1.735,1.042-2.588,1.646c-0.308,0.219-0.587,0.445-0.89,0.665c-2.658,1.929-5.127,3.91-7.42,5.884
		c-0.025,0.023-0.058,0.045-0.083,0.066c-5.203,4.486-9.337,8.842-12.53,12.531c-0.111,0.127-0.197,0.236-0.306,0.363
		c-0.456,0.53-0.873,1.028-1.283,1.523c-0.473,0.57-1.064,1.235-1.476,1.752c-0.121-0.447-0.182-0.905-0.296-1.353
		c-0.027-0.107-0.041-0.217-0.067-0.324c-0.017-0.064-0.024-0.13-0.04-0.193c-1.194-4.784-1.972-9.638-2.496-14.513
		c-0.495-4.605-0.784-9.224-0.672-13.844C355.037,112.292,355.245,109.158,355.605,106.039 M143.646,184.468
		c4.077-1.409,8.218-2.737,12.384-4.028c7.967-2.47,16.061-4.75,24.23-6.817c11.408-2.888,22.928-5.386,34.343-7.572
		c5.941-1.137,11.846-2.187,17.696-3.154l-17.696,15.768l-2.139,1.905l-54.961,48.972l-1.473,1.312l-6.129,5.461l6.129-2.724
		l1.473-0.653l57.1-25.374l58.572-26.028l30.124-13.386l28.449-12.643l7.127-3.167l-7.127,4.395l-17.094,10.54l-41.479,25.574
		l-58.572,36.114l-43.255,26.669c-3.79-1.318-7.782-2.235-11.991-2.625c-0.617-0.057-1.237-0.128-1.854-0.186
		c-0.49-0.046-0.983-0.103-1.473-0.149c-4.122-0.391-8.253-0.834-12.384-1.249V184.468z M566.038,532.806
		c-9.77,24.462-24.551,45.87-43.43,62.146c-2.308,1.989-4.668,3.908-7.094,5.74l-8.05,6.076l-51.202,38.653l-7.37,5.563
		l-43.834,33.091l-14.738,11.127l-17.337,13.087l-11.395,8.602l-11.395-8.602l-18.446-13.925l-13.63-10.289l-44.943-33.928
		l-13.493-10.185l-45.079-34.031l-6.943-5.24c-3.579-2.702-6.982-5.638-10.299-8.678c-18.053-16.545-32.134-37.873-41.331-62.105
		c-5.005-13.189-8.542-27.229-10.514-41.804c3.034-0.385,6.52-0.816,10.514-1.291c1.056-0.125,2.18-0.256,3.299-0.387
		c13.977-1.629,32.853-3.636,55.274-5.545v107.609c0.476,0.37,0.926,0.779,1.407,1.142l57.165,43.153V476.809
		c18.524-0.995,38.201-1.759,58.573-2.157v202.352l29.841,22.526l28.731-21.689V474.631c20.358,0.383,40.038,1.134,58.572,2.118
		v156.874l58.272-43.989c0.103-0.077,0.197-0.166,0.3-0.244V480.788c22.911,1.938,42.172,3.982,56.38,5.64
		c0.744,0.086,1.478,0.173,2.193,0.257c4.437,0.524,8.318,1.002,11.62,1.421C575.541,503.749,571.637,518.784,566.038,532.806
		 M579.528,251.423c-4.498,0.453-9.015,0.941-13.49,1.363c-0.121,0.012-0.244,0.026-0.366,0.038
		c-0.513,0.047-1.033,0.108-1.545,0.156c-11.375,1.059-21.396,5.694-29.303,13.462c-7.664-5.773-17.082-8.831-27.359-8.769
		c-1.076,0.007-2.145-0.016-3.239,0.06c-18.343,1.203-36.856,2.095-55.333,2.835c-7.239,0.291-14.495,0.629-21.699,0.846
		c-7.624,0.231-14.677,2.058-20.972,5.283c-4.275-2.934-9.331-4.524-14.763-4.503c-0.378,0.006-0.76,0.003-1.139,0.009
		c-19.418,0.252-38.988,0.238-58.572-0.028c-12.087-0.165-24.164-0.457-36.224-0.82l36.224-12.9l58.572-20.859l14.454-5.148
		c0.356,0.189,0.718,0.369,1.076,0.554l-15.53,7.713l-55.529,27.577l55.529-9.087l58.572-9.583l25.523-4.177l-0.309-0.078
		c11.404-1.353,22.636-4.364,33.357-9.06c11.704-5.125,22.806-12.134,32.727-21.28c4.827-4.451,9.073-9.281,12.988-14.291
		c3.032-3.88,5.852-7.873,8.334-12.028c1.518,0.449,3.016,0.927,4.524,1.391c4.541,1.395,9.054,2.835,13.49,4.369V251.423z"></path>
	<polyline fill="#004B9C" points="411.398,39.728 411.393,39.734 411.398,39.728 	"></polyline>
	<polyline fill="#004B9C" points="388.474,83.041 388.472,83.046 388.474,83.041 	"></polyline>
	<rect x="302.558" y="508.025" fill="#FFFFFF" width="10.349" height="58.766"></rect>
	<path fill="#FFFFFF" d="M346.914,567.901c-7.541,0-15.451-0.736-21.438-1.698v-58.178h24.542c12.418,0,16.41,8.648,16.41,16.116
		c0,4.73-1.923,9.61-7.097,12.341c5.47,1.852,9.02,8.133,9.02,13.528C368.351,561.989,359.703,567.901,346.914,567.901
		 M335.826,533.378h12.715c5.47,0,7.687-4.061,7.687-9.236c0-5.77-2.808-9.61-7.835-9.61h-12.566V533.378z M335.826,560.582
		c3.03,0.517,7.17,0.813,11.088,0.813c7.391,0,11.089-4.879,11.089-11.385c0-6.28-4.583-10.127-9.61-10.127h-12.566V560.582z"></path>
	<path fill="#FFFFFF" d="M387.206,566.791h-10.349v-58.766h10.349v25.501l18.924-25.501h11.976l-20.772,27.572
		c3.77,1.627,6.8,4.512,9.165,8.28l14.119,22.913H409.16l-12.124-19.588c-2.439-4.138-5.321-6.803-9.388-6.803h-0.442V566.791z"></path>
	<path fill="#EB6900" d="M179.534,276.904c-0.741-0.913-1.575-1.681-2.41-2.446c-3.482-3.194-7.76-5.124-12.855-5.693
		c-0.172-0.019-0.322-0.075-0.497-0.092c-0.325-0.03-0.649-0.068-0.975-0.098c-1.639-0.153-3.276-0.339-4.915-0.495
		c-2.49-0.239-4.979-0.507-7.468-0.753c-7.393-0.733-14.786-1.455-22.173-2.263c-4.621-0.506-9.237-1.078-13.856-1.613
		c-6.014-0.697-12.033-1.354-18.042-2.1c-3.4-0.426-6.801-0.857-10.201-1.293c-17.969-2.317-35.915-4.853-53.839-7.618
		c-0.011,0.2,32.078,14.828,32.141,49.094c-0.08,33.56-0.155,67.132-0.23,100.714c-2.399,31.315-31.922,44.997-31.911,45.137
		l17.134,7.18l28.779,12.061l38.323,16.061l14.93,6.256l7.855,3.292l-8.298-5.701l-15.349-10.546l-17.459-11.995l-17.955-12.336
		l-13.508-9.28c9.855-1.36,19.719-2.673,29.588-3.896c4.575-0.571,9.149-1.125,13.729-1.664c0.069-18.142,0.138-36.279,0.207-54.411
		c1.367-0.061,2.738-0.111,4.106-0.171c4.615-0.201,9.236-0.387,13.856-0.577c3.615-0.147,7.225-0.309,10.842-0.45
		c-0.064,17.466-0.121,34.932-0.185,52.409c3.836-0.402,7.678-0.702,11.516-1.083c4.126-0.41,8.255-0.778,12.383-1.165
		c0.491-0.045,0.982-0.092,1.472-0.138c4.212-0.392,8.421-0.82,12.635-1.188c2.695-0.234,5.386-0.535,8.082-0.76
		c0.11-44.638,0.219-89.259,0.334-133.87c0.121-7.507-1.801-13.642-5.782-18.501C179.537,276.907,179.535,276.906,179.534,276.904
		 M139.123,360.336c-3.63,0.046-7.254,0.101-10.882,0.149c-4.619,0.063-9.24,0.125-13.856,0.192
		c-1.363,0.019-2.727,0.036-4.089,0.056c0.076-25.348,0.15-50.69,0.225-76.021c1.288,0.114,2.576,0.209,3.864,0.322
		c4.617,0.4,9.237,0.772,13.856,1.152c3.695,0.303,7.388,0.633,11.083,0.922C139.26,311.509,139.191,335.918,139.123,360.336"></path>
	<path fill="#EB6900" d="M279.942,405.215c-10.511,0.315-21.025,0.579-31.529,1.006c0.106-33.714,0.217-67.412,0.327-101.11
		c0.034-10.056,0.065-20.12,0.098-30.174c-9.161-0.497-18.313-1.168-27.468-1.779c-5.021-0.336-10.045-0.606-15.064-0.976
		c-1.211-0.089-2.425-0.143-3.636-0.235c-0.014,4.788-0.028,9.582-0.041,14.371c-0.136,47.182-0.272,94.377-0.408,141.596
		c2.768-0.21,5.54-0.336,8.308-0.534c3.612-0.259,7.227-0.456,10.841-0.696c19.513-1.303,39.037-2.342,58.572-3.124
		c3.963-0.157,7.925-0.36,11.889-0.498c2.864-0.1,5.726-0.271,8.59-0.359c0.018-6.046,0.029-12.098,0.046-18.144
		c-2.889,0.067-5.775,0.201-8.665,0.276C287.848,404.938,283.896,405.095,279.942,405.215"></path>
	<path fill="#EB6900" d="M392.433,278.011c-17.973,0.195-35.946,0.189-53.919-0.054c-18.462-0.249-36.923-0.717-55.376-1.428
		c0.006,6.095,0.006,12.192,0.006,18.288c11.519,0.336,23.044,0.599,34.569,0.801c-0.002,0.315-0.003,0.629-0.004,0.945
		c-0.006,2.091-0.014,4.184-0.021,6.276c-0.094,27.569-0.188,55.145-0.282,82.719c-0.021,6.101-0.042,12.199-0.062,18.301
		c-0.022,6.129-0.042,12.256-0.063,18.386c2.894-0.066,5.787-0.053,8.68-0.108c4.185-0.081,8.369-0.102,12.553-0.158
		c8.337-0.112,16.674-0.3,25.01-0.315c0.138-40.118,0.275-80.236,0.414-120.349c0.006-1.756,0.012-3.51,0.017-5.265
		c7.893,0.011,15.786-0.052,23.68-0.103c3.15-0.021,6.3-0.012,9.452-0.042c0.483-0.005,0.967-0.001,1.45-0.006
		c0.012-5.979,0.028-11.957,0.04-17.93c-0.497,0.006-0.993,0.004-1.49,0.009C395.536,277.998,393.984,277.994,392.433,278.011"></path>
	<path fill="#EB6900" d="M528.461,278.988c-0.026-0.029-0.06-0.045-0.086-0.072c-3.604-3.758-8.364-5.485-14.144-5.432
		c-0.529,0.004-1.014-0.069-1.56-0.033c-18.993,1.245-38.001,2.157-57.013,2.909c-6.975,0.276-13.947,0.605-20.922,0.813
		c-4.043,0.123-7.546,1.131-10.627,2.833c-1.827,1.01-3.543,2.202-5.035,3.767c-3.877,4.07-5.86,9.389-6.099,15.925
		c-0.009,0.215-0.055,0.404-0.058,0.623c-0.013,5.568-0.028,11.137-0.041,16.705c-0.065,27.494-0.134,54.988-0.201,82.476
		c-0.098,6.835,1.801,12.337,5.8,16.542c3.946,4.204,9.235,6.398,15.812,6.595c7.126,0.213,14.247,0.546,21.371,0.828
		c18.863,0.747,37.72,1.651,56.564,2.884c0.701,0.045,1.334-0.039,2.008-0.047c5.491-0.062,10.067-1.802,13.625-5.502
		c0.032-0.032,0.053-0.076,0.085-0.109c3.935-4.147,5.939-9.902,6.061-17.222c0.08-35.699,0.161-71.409,0.241-107.129
		c0.004-0.225-0.035-0.418-0.036-0.64C534.2,288.63,532.322,283.014,528.461,278.988 M487.736,406.202
		c-9.638-0.396-19.281-0.739-28.919-1.035c0.14-35.654,0.278-71.319,0.418-106.995c0.005-1.176,0.01-2.352,0.014-3.527
		c9.644-0.297,19.281-0.644,28.919-1.036c-0.005,1.203-0.009,2.406-0.014,3.61C488.014,333.555,487.875,369.882,487.736,406.202"></path>
	<path fill="#EB6900" d="M672.258,398.205c-0.04,0.006-0.08,0.011-0.12,0.017c0.005-10.277,0.016-20.562,0.022-30.84
		c0.098-8.783-1.829-15.848-5.776-21.076c-3.941-5.224-9.189-7.703-15.679-7.602c-9.451,0.152-18.921,0.277-28.382,0.415
		c-4.619,0.067-9.234,0.139-13.856,0.202c-3.658,0.051-7.308,0.114-10.968,0.161c0.063-17.46,0.121-34.927,0.185-52.398
		c3.597-0.283,7.188-0.603,10.783-0.899c4.619-0.379,9.239-0.754,13.856-1.154c1.395-0.12,2.792-0.225,4.187-0.348
		c-0.018,9.567-0.034,19.139-0.052,28.712c15.334-0.761,30.65-1.585,45.95-2.48c-0.012-3.746-0.023-7.491-0.041-11.23
		c1.202-32.865,32.043-47.074,32.032-47.247c-17.803,2.748-35.64,5.273-53.494,7.574c-3.515,0.459-7.03,0.901-10.546,1.338
		c-6.008,0.746-12.024,1.403-18.036,2.1c-4.619,0.535-9.234,1.107-13.856,1.612c-3.62,0.396-7.245,0.745-10.867,1.122
		c-3.768,0.395-7.536,0.769-11.306,1.143c-4.348,0.432-8.691,0.911-13.041,1.317c-0.157,0.015-0.294,0.066-0.449,0.083
		c-0.127,0.014-0.24,0.053-0.366,0.069c-6.026,0.756-10.962,3.424-14.777,8.072c-0.282,0.343-0.48,0.743-0.743,1.1
		c-3.407,4.626-5.234,10.301-5.374,17.161c-0.002,0.096-0.021,0.179-0.022,0.274c-0.012,13.183-0.023,26.366-0.034,39.55
		c-0.099,7.518,1.817,13.519,5.776,18.081c0.734,0.846,1.561,1.537,2.385,2.232c3.475,2.926,7.725,4.53,12.79,4.705
		c0.127,0.004,0.238,0.035,0.366,0.038c0.078,0.002,0.146,0.022,0.225,0.024c4.426,0.051,8.842,0.119,13.266,0.173
		c7.395,0.092,14.784,0.191,22.173,0.291c4.617,0.063,9.241,0.116,13.856,0.183c1.319,0.02,2.643,0.032,3.962,0.052
		c-0.069,18.132-0.138,36.253-0.207,54.374c-1.251-0.109-2.504-0.204-3.755-0.313c-4.616-0.401-9.236-0.772-13.856-1.152
		c-3.731-0.306-7.459-0.64-11.192-0.931c0.006-9.294,0.006-18.586,0.012-27.878c-3.661-0.16-7.329-0.278-10.992-0.43
		c-4.495-0.188-8.993-0.354-13.49-0.528c-0.122-0.005-0.243-0.01-0.366-0.015c-4.284-0.165-8.566-0.348-12.853-0.503
		c-2.797-0.101-5.589-0.23-8.387-0.328c0.022,7.127,0.039,14.254,0.063,21.386c0.037,6.963,1.788,12.701,5.136,17.382
		c0.261,0.365,0.457,0.772,0.738,1.125c3.813,4.753,8.923,7.47,15.302,8.155c0.128,0.014,0.238,0.056,0.366,0.066
		c4.5,0.419,8.993,0.914,13.49,1.36c7.394,0.732,14.786,1.454,22.173,2.262c4.621,0.506,9.237,1.078,13.856,1.613
		c6.012,0.696,12.028,1.354,18.036,2.099c3.359,0.421,6.721,0.847,10.074,1.277c6.504,0.836,13,1.737,19.497,2.633l-13.49,9.269
		l-17.947,12.331l-17.463,11.997l-15.349,10.545l-8.304,5.705l7.859-3.294l14.932-6.257l38.343-16.067l28.754-12.051l17.134-7.18
		l-0.007-0.001h0.007C704.411,447.188,672.264,432.538,672.258,398.205"></path>
</g>
</svg>
