
<svg width="568.99622pt" height="685.44531pt" viewBox="0 0 568.99621 685.44531" version="1.1" id="svg139" xmlns="http://www.w3.org/2000/svg">
  <defs id="defs143"></defs>
  <g id="surface1" transform="matrix(2.386687,0,0,2.386687,-0.00163389,0.009323)">
    <path style="fill:#003d97;fill-opacity:1;fill-rule:nonzero;stroke:none" d="m 238.34766,54.914063 c -7.01172,1.628906 -14.39454,2.410156 -21.97657,2.410156 -20.39453,0 -42.26953,-5.671875 -62.58203,-15.910156 0.3711,-2.042969 0.57031,-4.144532 0.57031,-6.292969 0,-19.398438 -15.71484,-35.12500025 -35.11718,-35.12500025 -19.402346,0 -35.136721,15.72656225 -35.136721,35.12500025 0,2.136719 0.207031,4.234375 0.574219,6.265625 -20.335938,10.25 -42.234375,15.9375 -62.648438,15.9375 -7.582031,0 -14.957031,-0.78125 -21.9726562,-2.410156 C -0.0507813,99.695313 -5.371094,218.97266 119.20313,287.19141 243.78516,218.97266 238.45312,99.695313 238.34766,54.914063" id="path2"></path>
    <path style="fill:#003d97;fill-opacity:1;fill-rule:nonzero;stroke:none" d="m 17.132813,158.49609 c 13.480468,43.01953 41.976562,89.08985 102.074217,122.80469 V 158.49609" id="path4"></path>
    <path style="fill:#003d97;fill-opacity:1;fill-rule:nonzero;stroke:none" d="m 221.27344,158.49609 c 12.09765,-38.61718 12.09375,-74.77734 11.95703,-97.332027 -5.41797,0.871093 -11.0625,1.308593 -16.85938,1.308593 -32.95312,0.0039 -68.9414,-14.011718 -97.14062,-37.65625 V 158.49609" id="path6"></path>
    <path style="fill:#f8bd00;fill-opacity:1;fill-rule:nonzero;stroke:none" d="M 119.23438,158.49609 V 24.816406 c -0.008,-0.01172 -0.0195,-0.01953 -0.0273,-0.03516 -28.199217,23.671875 -64.203124,37.691406 -97.17578,37.691406 -5.789062,0 -11.4375,-0.4375 -16.851562,-1.308593 C 5.03125,83.71875 5.03125,119.87891 17.132813,158.49609 H 119.20703" id="path8"></path>
    <path style="fill:#f8bd00;fill-opacity:1;fill-rule:nonzero;stroke:none" d="M 221.27344,158.49609 H 119.20703 v 122.80469 c 60.08984,-33.71484 88.58984,-79.78516 102.06641,-122.80469" id="path10"></path>
    <path style="fill:#003f97;fill-opacity:1;fill-rule:nonzero;stroke:none" d="m 37.539063,139.03516 0.05078,-13.72657 c 0.785156,-0.13671 1.566406,-0.26171 2.347656,-0.39453 l -0.08984,12.15235 -1.410156,4.70312 z m 2.589843,-38.83594 -0.09766,12.46875 -0.144531,0.0195 c -0.75,0.0898 -1.496094,0.17188 -2.238281,0.26172 l 0.05859,-12.59766 1.226563,-3.921872 z M 70.265625,98.902344 C 69.503906,100.91016 68.742188,102.92578 68,104.91797 67.316406,102.95313 66.636719,100.98438 65.964844,99 l 2.183594,-2.996094 z M 98.660156,99.707031 98.5,122.44531 c -0.851562,0.0547 -1.699219,0.10547 -2.554687,0.16016 l 0.21875,-22.82422 1.285156,-3.027344 z m 45.117184,28.656249 -0.54297,1.28906 -0.78906,-1.82812 -0.22656,-28.10547 0.60937,-1.5 0.66407,1.5625 z m 14.6836,-4.28125 c -0.83985,-0.0937 -1.6836,-0.1914 -2.52344,-0.28125 l -0.21094,-18.40625 c 0.55078,0.0117 1.10547,0.0234 1.65235,0.0352 l 0.84375,0.0195 z m 55.80859,23.39453 c 0,0 -1.32812,-5.11719 -1.63281,-6.26562 l -0.0156,-40.75 1.67578,-5.71094 h -15.57812 l 1.75391,5.59766 0.16015,37.05468 c -0.0156,-0.0273 -0.0312,-0.0586 -0.0508,-0.0937 C 197.80469,124.875 194.75,112.17188 191.51172,99.558594 L 193.08984,94.75 h -16.75781 l 1.74219,4.753906 c -2.39844,9.621094 -4.88672,19.171874 -7.39453,28.406254 l -0.375,-28.746097 -0.83985,-0.726563 c -1.22265,-1.050781 -2.44531,-2.089844 -3.67187,-3.105469 L 165.09766,94.75 h -37.1875 l 2.13671,4.96875 0.043,7.60938 C 127.82031,103.09375 123.5,95.046875 123.5,95.046875 L 123.34766,94.75 H 23.875 l 1.683594,5.70313 -0.02734,40.75781 -1.902344,7.28906 6.585938,-2.20313 c 1.378906,-0.45703 2.757812,-0.90625 4.136719,-1.32812 l 4.664062,-1.41797 v -0.0156 l 5.382813,-1.49219 c 1.390625,-0.38281 2.789062,-0.7461 4.1875,-1.10547 l 4.921875,-1.22656 -1.582032,-4.44141 0.355469,-35.12109 0.136719,-0.382815 c 0.390625,0.562505 0.789062,1.121095 1.175781,1.671875 2.632813,6.95703 5.394531,13.95313 8.226563,20.79297 l -0.128907,9.93359 -2.191406,6.17188 6.558594,-1.27735 c 1.414062,-0.27734 2.828125,-0.53125 4.242187,-0.77734 l 5.324219,-0.88281 -1.765625,-4.46485 0.128906,-9.875 c 2.714844,-6.51562 5.519532,-13.00781 8.570313,-19.83203 0.453125,-0.5625 0.910156,-1.11718 1.367187,-1.667966 L 84,99.753906 l -0.34375,30.132814 1.0625,0.74609 c 1.203125,0.84375 2.40625,1.67969 3.613281,2.50781 l 0.757813,0.51954 0.917969,-0.0898 c 4.96875,-0.50781 9.914062,-0.88672 14.691407,-1.125 l 0.80469,-0.0391 0.625,-0.50781 c 1.21875,-0.97657 2.43359,-1.94141 3.63672,-2.89844 l 0.9375,-0.73047 0.13281,-28.55078 0.67187,-1.574219 0.66016,1.550782 -0.0508,27.464847 -2.16797,5.03906 6.14844,-0.0937 c 1.01172,-0.0195 2.01953,-0.0234 3.02343,-0.0234 l 7.41797,0.0625 -2.17187,-5 -0.008,-7.45312 c 2.04296,3.76172 4.08593,7.5625 6.14843,11.41015 l 0.66406,1.23438 1.40625,0.0625 c 2.83594,0.13672 5.57032,0.30468 8.1211,0.5039 l 4.49219,0.375 8.91796,0.96094 c 3.60157,0.44922 7.02344,0.9375 10.16797,1.45313 l 0.99219,0.14843 0.81641,-0.57031 c 0.62109,-0.42187 1.24609,-0.84766 1.86328,-1.28125 -0.4961,0.74219 -0.89063,1.33594 -0.89063,1.33594 l -0.48047,0.71875 6.10938,1.12109 c 1.42187,0.27344 2.82422,0.55469 4.23437,0.84766 l 6.58204,1.40625 -1.6875,-4.91406 0.92968,-3.63282 c 1.51953,0.26953 3.04297,0.5586 4.5625,0.85157 0.42578,1.80468 0.85547,3.625 1.27735,5.4414 l -1.12891,3.21875 4.86719,1.26953 c 1.40625,0.36719 2.80469,0.7461 4.18359,1.14063 l 7.3086,2.17578 c 1.38281,0.42969 2.76171,0.87109 4.13671,1.32812 l 6.57813,2.19532" id="path12"></path>
    <path style="fill:#ffffff;fill-opacity:1;fill-rule:nonzero;stroke:none" d="m 210.13672,101.17969 v -1.0625 c 0.28515,-0.968752 0.5664,-1.937502 0.85156,-2.914065 h -8.90234 c 0.28125,0.914063 0.57031,1.835938 0.85547,2.761719 0.0547,12.812496 0.10937,25.621096 0.17187,38.429686 h 0.004 v 1.01563 c -0.27735,0.84375 -0.55078,1.68359 -0.82813,2.52343 0.28516,0.0781 0.5586,0.16016 0.84375,0.25782 0.47266,0.14062 0.95313,0.28515 1.42969,0.43359 1.38672,0.4375 2.78125,0.88672 4.17578,1.32812 0.47656,0.16797 0.94141,0.32422 1.42578,0.48047 0.27344,0.0937 0.5586,0.1875 0.82422,0.28125 -0.26562,-1.07031 -0.55078,-2.1289 -0.82812,-3.1875 -0.008,-13.44922 -0.0156,-26.89453 -0.0234,-40.34765" id="path14"></path>
    <path style="fill:#ffffff;fill-opacity:1;fill-rule:nonzero;stroke:none" d="m 50.6875,97.203125 h -8.914062 c 0.273437,0.882813 0.554687,1.765625 0.835937,2.628906 -0.03906,4.675779 -0.07031,9.351559 -0.109375,14.027349 -0.375,0.375 -0.75,0.75 -1.125,1.1289 -1.777344,0.20313 -3.554687,0.40235 -5.320312,0.62891 -0.300782,-0.2461 -0.59375,-0.47656 -0.890625,-0.72656 0.01563,-4.62891 0.03906,-9.26563 0.05859,-13.90235 h -0.0039 c 0,-0.33594 0.0039,-0.67578 0.0078,-1.007811 0.289062,-0.9375 0.570312,-1.863281 0.867187,-2.777344 h -8.921875 c 0.292969,0.96875 0.578125,1.9375 0.859375,2.902345 -0.0039,13.44141 -0.0078,26.89453 -0.01953,40.34375 h 0.0078 v 1.07422 c -0.285156,1.05468 -0.566406,2.11718 -0.847656,3.1914 0.28125,-0.0937 0.5625,-0.1875 0.839844,-0.28125 0.476562,-0.15625 0.949219,-0.32031 1.421875,-0.48047 1.386719,-0.44531 2.789062,-0.89453 4.1875,-1.32812 0.464844,-0.14844 0.945312,-0.29688 1.421875,-0.43359 0.277344,-0.0977 0.554687,-0.17969 0.839844,-0.25782 -0.277344,-0.83984 -0.550782,-1.67187 -0.824219,-2.50781 0.01953,-5.16406 0.03906,-10.32031 0.0625,-15.46484 0.257812,-0.28516 0.511719,-0.56641 0.765625,-0.84375 1.855469,-0.32031 3.703125,-0.64063 5.566406,-0.9336 0.320313,0.24219 0.652344,0.47657 0.980469,0.71094 -0.03516,4.52344 -0.07422,9.04688 -0.105469,13.55859 0,0.32032 0,0.64844 -0.0078,0.97266 -0.285157,0.96094 -0.570313,1.91406 -0.863282,2.88281 0.277344,-0.0781 0.566407,-0.16015 0.851563,-0.23828 0.472656,-0.1289 0.953125,-0.26953 1.429687,-0.39453 1.40625,-0.38672 2.820313,-0.75 4.234375,-1.10937 0.476563,-0.12891 0.960938,-0.2461 1.449219,-0.3711 0.28125,-0.0703 0.5625,-0.13672 0.84375,-0.21094 -0.273437,-0.76953 -0.550781,-1.53515 -0.824219,-2.30859 0.125,-11.67578 0.238282,-23.34765 0.351563,-35.02344 0,-0.30468 0.0078,-0.61328 0.01172,-0.925777 0.292968,-0.851563 0.582031,-1.6875 0.882812,-2.523438" id="path16"></path>
    <path style="fill:#ffffff;fill-opacity:1;fill-rule:nonzero;stroke:none" d="m 160.87891,118.69531 c 0.0312,2.46485 0.0547,4.9336 0.0937,7.39844 -0.32032,0.21094 -0.64063,0.42578 -0.96094,0.64063 -1.85547,-0.22657 -3.71875,-0.4336 -5.58594,-0.62891 -0.32031,-0.26953 -0.62891,-0.54297 -0.94141,-0.80859 -0.0859,-7.23047 -0.17578,-14.46485 -0.26171,-21.6875 0.3125,-0.23438 0.62109,-0.46485 0.91406,-0.69922 1.86719,0.0352 3.71875,0.0742 5.57812,0.125 0.32422,0.25781 0.64844,0.51562 0.96485,0.77734 0.0273,2.46875 0.0625,4.93359 0.0937,7.39844 0.0352,2.49609 0.0703,4.99219 0.10547,7.48437 M 154,97.203125 h -8.91016 c 0.29688,0.691406 0.58203,1.371094 0.88282,2.070313 0.0898,9.597652 0.17968,19.195312 0.28906,28.800782 0,0.25781 0.004,0.50781 0.004,0.76172 -0.28125,0.67187 -0.5625,1.33984 -0.84765,2 0.28515,0.0234 0.58203,0.0547 0.87109,0.0859 0.48828,0.0391 0.97656,0.0898 1.47266,0.14063 0.72265,0.0703 1.4375,0.14844 2.16015,0.22656 0.71875,0.082 1.4336,0.15625 2.16016,0.23438 0.48828,0.0625 0.98438,0.12109 1.47656,0.17968 0.29297,0.0352 0.57422,0.0703 0.86328,0.10547 3.4336,0.42188 6.84375,0.91016 10.25,1.45313 1.19532,-0.81641 2.37891,-1.65235 3.57032,-2.48438 -0.0508,-3.79296 -0.0977,-7.58203 -0.15235,-11.3789 -0.0391,-2.57422 -0.0664,-5.14844 -0.10156,-7.72656 -0.0469,-3.79688 -0.0977,-7.58594 -0.14453,-11.38282 -1.21875,-1.046872 -2.42969,-2.074216 -3.64844,-3.085935" id="path18"></path>
    <path style="fill:#ffffff;fill-opacity:1;fill-rule:nonzero;stroke:none" d="m 108.36328,97.203125 h -8.05078 c 0.26953,0.679688 0.55078,1.359375 0.83594,2.027344 -0.0547,8.273441 -0.11719,16.546871 -0.17969,24.824221 -0.32422,0.2539 -0.65234,0.49609 -0.96875,0.75781 -1.867187,0.10156 -3.75,0.21875 -5.617187,0.36719 -0.316407,-0.21094 -0.625,-0.42969 -0.933594,-0.63672 0.07813,-8.42188 0.15625,-16.84766 0.242187,-25.269532 0.296875,-0.699219 0.585938,-1.378907 0.878907,-2.070313 H 85.65625 c 0.277344,0.699219 0.554688,1.402344 0.828125,2.105469 -0.113281,9.769536 -0.222656,19.550786 -0.332031,29.324216 1.195312,0.83985 2.402344,1.66797 3.589844,2.5 4.9375,-0.50781 9.878906,-0.89062 14.828122,-1.1289 1.21875,-0.98829 2.44141,-1.96094 3.65625,-2.92188 0.043,-9.28906 0.0898,-18.58203 0.12891,-27.874999 0.28906,-0.667968 0.58203,-1.339843 0.86328,-2.003906" id="path20"></path>
    <path style="fill:#ffffff;fill-opacity:1;fill-rule:nonzero;stroke:none" d="m 139.96094,127.59375 v -0.25781 c -0.0742,-9.35938 -0.15235,-18.72656 -0.23047,-28.089846 0.28515,-0.679688 0.55859,-1.363281 0.84375,-2.042969 h -8.91797 c 0.28906,0.664063 0.58203,1.335938 0.86719,2.011719 0.0312,6.039066 0.0664,12.074216 0.10547,18.117186 -3.625,-6.8164 -7.21875,-13.48828 -10.77344,-20.128905 h -8.0625 c 0.28516,0.664063 0.57422,1.328125 0.85156,2.003906 -0.0156,9.484379 -0.0312,18.968749 -0.0391,28.457029 -0.30078,0.66797 -0.58594,1.34766 -0.87891,2.01563 0.28516,0 0.57813,-0.0156 0.86719,-0.0156 0.49609,-0.004 0.98438,-0.0117 1.47656,-0.0156 1.45313,-0.0156 2.89844,-0.0156 4.34375,-0.0156 0.49219,0.004 0.98828,0.004 1.48438,0.008 0.28515,0.008 0.57422,0.0117 0.85937,0.0156 -0.28515,-0.67188 -0.57422,-1.33984 -0.86718,-2.00781 -0.008,-5.90235 -0.0156,-11.8125 -0.0234,-17.72266 3.58203,6.59375 7.19922,13.22266 10.83593,20.02734 2.73047,0.13282 5.45313,0.29297 8.1875,0.50782 -0.3125,-0.70703 -0.61718,-1.41016 -0.92578,-2.11719 0,-0.25 0,-0.50391 -0.004,-0.75" id="path22"></path>
    <path style="fill:#ffffff;fill-opacity:1;fill-rule:nonzero;stroke:none" d="m 182.21484,121.16016 c 0.89844,-4.09766 1.79688,-8.25782 2.69532,-12.47657 0.99609,4.36719 2,8.80469 2.99609,13.32032 -0.20313,0.13672 -0.40234,0.27343 -0.60156,0.40625 -1.48438,-0.21875 -2.96485,-0.4375 -4.44532,-0.64844 -0.21875,-0.19531 -0.42578,-0.39844 -0.64453,-0.60156 m 6.72266,-21.679691 h -0.004 c 0.2461,-0.757813 0.4961,-1.519531 0.75,-2.277344 h -9.8125 c 0.26563,0.71875 0.53125,1.445313 0.79688,2.167969 h -0.0117 c -2.85547,11.492186 -5.71094,22.406246 -8.58203,32.863276 -0.45703,0.69141 -0.91016,1.38282 -1.35547,2.06641 0.23828,0.0508 0.50391,0.0898 0.74609,0.13672 0.56641,0.10937 1.12891,0.20703 1.69532,0.31641 1.42578,0.27734 2.85156,0.55859 4.26953,0.85546 0.48437,0.0977 0.97656,0.20313 1.46093,0.30079 0.28516,0.0586 0.57422,0.1289 0.85938,0.1914 -0.17578,-0.5 -0.34766,-0.99609 -0.51953,-1.5 0.5,-1.94922 1.00781,-3.92187 1.51562,-5.90234 0.26563,-0.17969 0.55078,-0.35156 0.82032,-0.52735 2.38281,0.41797 4.76171,0.85547 7.13671,1.32422 0.27735,0.28907 0.5586,0.57813 0.83204,0.8711 0.54296,2.28906 1.08593,4.60547 1.6289,6.94922 -0.16015,0.45312 -0.32812,0.91406 -0.48047,1.36718 0.27735,0.0781 0.5625,0.15235 0.83985,0.21485 0.48437,0.1289 0.96093,0.25781 1.44922,0.3789 1.41015,0.38282 2.8164,0.76563 4.21484,1.16016 0.55859,0.15625 1.10937,0.32031 1.66406,0.47656 0.25,0.0742 0.5,0.14844 0.7461,0.21094 -0.45704,-1.03516 -0.92188,-2.07813 -1.38672,-3.10547 -3.05078,-13.58984 -6.14063,-26.39844 -9.27344,-38.539061" id="path24"></path>
    <path style="fill:#ffffff;fill-opacity:1;fill-rule:nonzero;stroke:none" d="m 80.429688,99.933594 c 0.746093,-0.917969 1.488281,-1.828125 2.234375,-2.730469 H 72.078125 c 0.320313,0.4375 0.648438,0.882813 0.980469,1.324219 -1.699219,4.457036 -3.402344,9.023436 -5.105469,13.699216 -1.582031,-4.42968 -3.160156,-8.97265 -4.738281,-13.63281 0.332031,-0.464844 0.675781,-0.933594 1.007812,-1.390625 H 53.632813 c 0.722656,1.039063 1.449218,2.066406 2.171875,3.082035 2.839843,7.51172 5.667968,14.64453 8.503906,21.47656 -0.05469,3.61719 -0.09766,7.22265 -0.148438,10.83984 -0.292968,0.82422 -0.582031,1.66016 -0.882812,2.4961 0.28125,-0.0586 0.574219,-0.11329 0.859375,-0.17188 0.480469,-0.0937 0.972656,-0.19531 1.457031,-0.28125 1.425781,-0.26953 2.855469,-0.52344 4.28125,-0.78125 0.488281,-0.0781 0.980469,-0.16016 1.472656,-0.24609 0.277344,-0.0469 0.570313,-0.0937 0.851563,-0.14063 -0.273438,-0.69922 -0.550781,-1.39453 -0.828125,-2.09375 0.04297,-3.61328 0.09766,-7.21875 0.144531,-10.82812 2.972656,-7.14844 5.949219,-13.99219 8.914063,-20.621096" id="path26"></path>
    <path style="fill:#ffffff;fill-opacity:1;fill-rule:nonzero;stroke:none" d="m 216.50391,164.22266 c -16.85938,48.48046 -49.58985,86.80078 -97.29688,113.9375 C 71.496094,251.02344 38.761719,212.70312 21.898438,164.21875 8.203125,124.84375 7.789063,86.511719 7.894531,64.316406 c 4.59375,0.597657 9.335938,0.894532 14.136719,0.894532 16.496094,0 34.253906,-3.511719 51.367188,-10.152344 5.96875,-2.324219 11.867187,-5.023438 17.609375,-8.0625 4.640625,11.015625 15.531247,18.746094 28.234377,18.746094 12.6875,0 23.57031,-7.71875 28.22265,-18.71875 5.71875,3.03125 11.58985,5.71875 17.53516,8.03125 17.10547,6.644531 34.87109,10.15625 51.37109,10.15625 4.8086,0 9.55078,-0.296875 14.14063,-0.894532 0.10156,22.195313 -0.3125,60.542974 -14.00781,99.906254 M 233.23047,61.164063 c -5.41797,0.871093 -11.0625,1.308593 -16.85938,1.308593 h -0.0156 c -22.37891,0 -46.16016,-6.472656 -67.94531,-18.03125 0.9414,-2.941406 1.44921,-6.066406 1.44921,-9.320312 0,-16.917969 -13.71093,-30.613281 -30.61718,-30.613281 -16.91406,0 -30.625002,13.695312 -30.625002,30.613281 0,3.234375 0.511718,6.355469 1.4375,9.292969 C 68.25,55.988281 44.445313,62.472656 22.03125,62.472656 c -5.789062,0 -11.4375,-0.4375 -16.851562,-1.308593 C 4.878906,108.85156 5.171875,217.31641 119.20703,281.30078 233.24219,217.31641 233.52344,108.85156 233.23047,61.164063" id="path28"></path>
    <path style="fill:#003d97;fill-opacity:1;fill-rule:nonzero;stroke:none" d="m 119.24219,63.003906 c -15.38281,0 -27.882815,-12.511718 -27.882815,-27.882812 0,-15.375 12.500005,-27.882813 27.882815,-27.882813 15.37109,0 27.8789,12.507813 27.8789,27.882813 0,15.371094 -12.50781,27.882812 -27.8789,27.882812" id="path30"></path>
    <path style="fill:#ffffff;fill-opacity:1;fill-rule:nonzero;stroke:none" d="m 127.74609,22.347656 0.0586,0.04297 c 2.78906,-0.507812 5.23437,-0.671875 7.42187,-0.671875 l 0.0742,-0.101562 c -0.0469,-2.105469 -0.27344,-3.902344 -0.78125,-5.523438 -2.64453,-2.113281 -5.73047,-3.707031 -9.10937,-4.582031 -2.05078,0.265625 -3.78516,1.054687 -5.53125,2.140625 l -0.0508,2.941406 0.0742,0.0039 c 3.07813,1.769532 5.6875,3.683594 7.84375,5.75" id="path32"></path>
    <path style="fill:#ffffff;fill-opacity:1;fill-rule:nonzero;stroke:none" d="m 110.67969,22.390625 0.0547,-0.04297 c 2.15234,-2.066406 4.75781,-3.980468 7.83984,-5.75 l 0.0742,-0.0039 -0.008,-2.894531 c 0,0 -2.33985,-1.804688 -5.57032,-2.195313 -3.37109,0.882813 -6.46484,2.476563 -9.10547,4.589844 -0.50781,1.621094 -0.73828,3.417969 -0.78515,5.519531 l 0.0781,0.105469 c 2.1875,0 4.6211,0.164063 7.42188,0.671875" id="path34"></path>
    <path style="fill:#ffffff;fill-opacity:1;fill-rule:nonzero;stroke:none" d="m 99.433594,40.125 c -1.40625,-3.339844 -2.261719,-6.683594 -2.53125,-10.277344 0,0 -0.742188,-0.09375 -1.589844,0.324219 -0.335937,1.601563 -0.507812,3.269531 -0.507812,4.980469 0,5.492187 1.824218,10.570312 4.890625,14.65625 l 0.01563,0.0078 C 99.164063,48.460938 98.507813,45.074219 99.433594,40.125" id="path36"></path>
    <path style="fill:#ffffff;fill-opacity:1;fill-rule:nonzero;stroke:none" d="m 113.04688,31.621094 c -1.20704,-2.800781 -2.15235,-5.363281 -2.63672,-7.730469 l -0.0391,-0.05469 c -2.26171,-0.398438 -4.66015,-0.601563 -7.58203,-0.554688 l -0.1289,0.01953 c -1.57422,1.625 -2.91016,3.644532 -3.992191,6.097657 l -0.01172,0.08203 c 0.324219,6.414062 2.191411,9.785156 2.191411,9.785156 l 6.32422,1.605469 5.88671,-9.175781" id="path38"></path>
    <path style="fill:#ffffff;fill-opacity:1;fill-rule:nonzero;stroke:none" d="m 112.68359,50.84375 c -0.42187,0.644531 -1.36328,2.414063 -1.73046,5.386719 0.85156,1.210937 1.6914,2.128906 2.46484,2.65625 0.26562,0.0625 0.52344,0.125 0.79297,0.175781 1.6875,0.308594 3.36719,0.46875 5.03125,0.472656 1.66406,-0.0039 3.34765,-0.164062 5.03515,-0.472656 0.26172,-0.05078 0.52344,-0.121094 0.78516,-0.175781 0.55469,-0.382813 1.15234,-0.976563 1.76563,-1.730469 l 0.85546,-1.207031 c -0.39453,-2.875 -1.33984,-4.542969 -1.72265,-5.144531 -6.26172,1.5625 -11.31641,0.574218 -13.27735,0.03906" id="path40"></path>
    <path style="fill:#ffffff;fill-opacity:1;fill-rule:nonzero;stroke:none" d="m 124.13672,32.394531 -0.0977,-0.07813 c 0,0 -1.98047,0.574219 -4.79687,0.574219 -2.82031,0 -4.80469,-0.574219 -4.80469,-0.574219 l -0.0937,0.07813 -5.98828,9.324219 -0.0273,0.175781 3.4414,5.617188 c 0.51172,0.8125 0.88281,1.289062 0.98828,1.523437 h 0.082 c 2.17579,0.441407 4.29297,0.679688 6.40235,0.695313 2.10156,-0.01563 4.22265,-0.253906 6.39844,-0.695313 h 0.0781 c 0.0977,-0.234375 0.48047,-0.710937 0.98828,-1.523437 l 3.43359,-5.617188 -0.0195,-0.175781" id="path42"></path>
    <path style="fill:#ffffff;fill-opacity:1;fill-rule:nonzero;stroke:none" d="m 139.81641,29.398438 c -1.08985,-2.457032 -2.42579,-4.472657 -3.9961,-6.097657 l -0.13281,-0.01953 c -2.91406,-0.04687 -5.32422,0.15625 -7.58594,0.554688 l -0.0352,0.05469 c -0.48438,2.367188 -1.42578,4.929688 -2.63672,7.730469 l -0.0117,0.07422 5.88672,9.175781 6.33203,-1.605469 c 0,0 1.85547,-3.371094 2.17969,-9.785156" id="path44"></path>
    <path style="fill:#ffffff;fill-opacity:1;fill-rule:nonzero;stroke:none" d="m 143.67969,35.152344 c 0,-1.710938 -0.1836,-3.375 -0.51563,-4.980469 -0.84375,-0.429687 -1.58984,-0.324219 -1.58984,-0.324219 -0.26172,3.484375 -1.08594,6.738282 -2.41797,9.980469 l 0.008,-0.0039 c 0.90625,4.523437 0.42188,7.996094 -0.14453,9.652344 2.92578,-4.027344 4.66016,-8.984375 4.66016,-14.324219" id="path46"></path>
    <path style="fill:#ffffff;fill-opacity:1;fill-rule:nonzero;stroke:none" d="m 119.19531,239.69922 c -0.23437,0.008 -0.48437,0.008 -0.73828,0.008 -3.01953,0 -5.63281,-0.28125 -7.35937,-0.79687 -0.91797,-0.27344 -1.27344,-0.58985 -1.92578,-1.69141 -0.29688,-0.48828 -0.57813,-1.01563 -0.88282,-1.57813 -1.63281,-3.02734 -3.66797,-6.79687 -9.00781,-9.3125 l -0.347656,-0.16406 C 95.511719,224.5666 89.25,221.63691 86.285156,211.72285 c -0.625,0.80859 -1.539062,2.26953 -1.878906,4.23046 l -0.207031,1.14454 -0.757813,-0.875 c -0.304687,-0.34766 -7.25,-8.58594 -3.902343,-26.29297 -1.035157,0.30468 -2.925782,1.08593 -4.539063,2.98437 l -0.917969,1.08985 -0.0625,-1.42188 c -0.0078,-0.28906 -0.21875,-6.99219 4.078125,-13.59375 -0.285156,-0.46094 -1.066406,-1.47266 -2.589843,-2.0625 l -0.734375,-0.27734 0.507812,-0.58985 c 0.07422,-0.0898 1.769531,-2.05859 5.015625,-3.04297 -0.355469,-0.70312 -1.085937,-1.90625 -2.148437,-2.44921 l -0.785157,-0.40235 0.703125,-0.52734 c 0.03125,-0.0195 2.699219,-2.07031 2.867188,-4.48438 0.07422,-1.05859 -0.34375,-2.05468 -1.25,-2.96484 -4.269531,-4.30859 -6.285156,-8.65625 -6.175781,-13.28516 0.07813,-3.16015 1.203125,-5.42578 3.453125,-6.92187 1.085937,-0.73438 2.636718,-1.11719 4.496093,-1.11719 4.78125,0 12.136719,2.62891 17.402344,9.98828 1.750005,-1.74219 8.183595,-7.17578 20.335935,-7.17578 h 0.0781 c 12.11718,0.0234 18.53515,5.43359 20.28125,7.17578 5.26172,-7.35937 12.60937,-9.98828 17.40234,-9.98828 1.85547,0 3.41016,0.38281 4.49609,1.11719 2.24219,1.49609 3.375,3.76172 3.44922,6.92187 0.10938,4.62891 -1.90625,8.97657 -6.17578,13.28516 -0.89844,0.91016 -1.32812,1.90625 -1.24219,2.96484 0.16407,2.41407 2.83594,4.46485 2.85547,4.48438 l 0.71094,0.52734 -0.78906,0.40235 c -1.06641,0.55468 -1.79297,1.74609 -2.14844,2.44921 3.24609,0.98438 4.94531,2.95313 5.01563,3.04297 l 0.5039,0.58985 -0.72265,0.27734 c -1.52735,0.58984 -2.30079,1.60156 -2.60157,2.0625 4.30469,6.60156 4.09375,13.30469 4.08203,13.59375 l -0.0586,1.42188 -0.91797,-1.08985 c -1.61719,-1.91406 -3.51172,-2.6875 -4.53906,-2.98437 3.34766,17.70312 -3.59766,25.94531 -3.90625,26.29297 l -0.75391,0.875 -0.20312,-1.14454 c -0.35547,-1.96093 -1.26953,-3.42187 -1.89063,-4.23046 -2.95703,9.91406 -9.22656,12.84375 -12.64062,14.4414 l -0.35156,0.16406 c -5.33985,2.51563 -7.3711,6.28516 -9.00391,9.3125 -0.30078,0.5625 -0.59375,1.08985 -0.87891,1.57813 -0.65625,1.10156 -1.01953,1.41797 -1.9375,1.69141 -1.71875,0.51562 -4.32812,0.79687 -7.35546,0.79687 h -0.004 c -0.24609,0 -0.49609,0 -0.75391,-0.008" id="path48"></path>
    <path style="fill:#f39700;fill-opacity:1;fill-rule:nonzero;stroke:none" d="m 142.73047,180.44922 c -1.75781,4.88281 -6.17969,5.15625 -8.50781,5.64844 -1.58985,0.32812 -2.03516,1.21484 -2.17969,1.67187 -0.41797,2.10156 -0.35156,2.34766 -0.35156,2.34766 l -3.04297,-7.10547 c 0,0 -0.3125,-3.37891 1.38672,-7.22656 -1.38672,-0.91407 -1.97266,-2.53516 -1.97266,-2.53516 4.61719,-0.39453 6.54687,-2.81641 7.05078,-3.46875 0,0 0.82031,-2.16797 0.94141,-1.75781 1.2539,-0.28907 2.30468,-0.61328 3.17968,-0.95703 4.40625,-1.27344 4.45313,-4.5625 4.26172,-5.12891 -0.40234,-0.78906 2.59375,0.56641 1.92188,10.15234 4.01172,3.98438 -1.39844,4.77735 -2.6875,8.35938 m -32.96484,2.5625 -3.04688,7.10547 c 0,0 0.0703,-0.2461 -0.34766,-2.34766 -0.15234,-0.45703 -0.59375,-1.34375 -2.1875,-1.67187 -2.32031,-0.49219 -6.734371,-0.76563 -8.503902,-5.64844 -1.289063,-3.58203 -6.699219,-4.375 -2.679688,-8.35938 -0.679687,-9.58593 2.320313,-10.9414 1.90625,-10.15234 -0.179687,0.56641 -0.140625,3.85547 4.273438,5.12891 0.871092,0.34375 1.917972,0.66796 3.171872,0.95703 0.12891,-0.41016 0.94922,1.75781 0.94922,1.75781 0.50391,0.65234 2.42969,3.07422 7.04688,3.46875 0,0 -0.58203,1.62109 -1.96875,2.53516 1.69531,3.84765 1.38672,7.22656 1.38672,7.22656 m 56.05468,-32.16016 c 0.42188,-2.78125 -2.05078,-8.75781 -4.54687,-9.22265 -2.09375,-0.85547 -4.45313,-2.16797 -11.84766,0.52734 -7.63672,2.79297 -9.48047,7.19531 -9.84375,8.08984 0,0 -2.68359,-6.62109 -20.33594,-6.6914 h -0.082 c -17.65234,0.0703 -20.335935,6.6914 -20.335935,6.6914 -0.359375,-0.89453 -2.210937,-5.29687 -9.839844,-8.08984 -7.398437,-2.69531 -9.75,-1.38281 -11.839843,-0.52734 -2.503907,0.46484 -4.980469,6.45312 -4.5625,9.22265 0.570312,5.69922 5.726562,9.95313 7.136718,11.61328 1.160157,1.33985 1.804688,4.65625 -2.695312,7.46094 2.074219,0.78906 3.289062,2.97266 3.289062,2.97266 -1.996093,0.70312 -4.609375,2.80078 -5.433593,3.3789 1.054687,0.36328 3.285156,0.98438 3.695312,2.86328 0,0 -2.285156,2.84375 -0.875,7.98829 1.964844,-1.60547 6.964844,0.66406 4.429688,6.5664 0,0 3.144531,-1.08203 3.546875,-2.78125 0,0 2.015625,5.83594 -3.535157,7.25 0,0 3.28125,2.02735 11.230469,-3.25 2.144531,0.75781 6.117188,1.10938 9.97266,0.008 0,0 -8.97266,6.94532 2.05468,12.89844 3.54297,2.08203 8.69922,2.60938 12.69532,1.39453 0.38281,-0.14062 0.74218,-0.33203 1.10937,-0.55078 0.35938,0.21875 0.72266,0.41016 1.10938,0.55078 3.99218,1.21485 9.15625,0.6875 12.6914,-1.39453 11.03125,-5.95312 2.05078,-12.89844 2.05078,-12.89844 3.85938,1.10157 7.83203,0.75 9.97657,-0.008 7.95703,5.27735 11.23046,3.25 11.23046,3.25 -5.54687,-1.41406 -3.53906,-7.25 -3.53906,-7.25 0.40625,1.69922 3.55078,2.78125 3.55078,2.78125 -2.53906,-5.90234 2.46485,-8.17187 4.42969,-6.5664 1.40625,-5.14454 -0.86719,-7.98829 -0.86719,-7.98829 0.40235,-1.8789 2.64063,-2.5 3.69532,-2.86328 -0.83594,-0.57812 -3.44141,-2.67578 -5.44141,-3.3789 0,0 1.21875,-2.1836 3.28906,-2.97266 -4.49219,-2.80469 -3.84375,-6.12109 -2.6914,-7.46094 1.41015,-1.66015 6.57031,-5.91406 7.1289,-11.61328" id="path50"></path>
    <path style="fill:#f39700;fill-opacity:1;fill-rule:nonzero;stroke:none" d="m 91.90625,209.61719 c -0.0078,9.01953 8.875,10.5664 13.48438,10.91406 -0.83204,-2.15234 -3.14454,-6.14453 -3.72266,-7.89453 -2.246095,-1.45703 -6.054689,-3.44141 -9.76172,-3.01953" id="path52"></path>
    <path style="fill:#ffffff;fill-opacity:1;fill-rule:nonzero;stroke:none" d="m 106.72656,179.52734 c 0.11719,0.86328 -0.50781,2.37891 -2.3164,2.04297 -1.89844,-0.34375 -2.09766,-2.0625 -1.875,-3.09375 0.0937,-0.40625 0.2539,-0.63672 0.39453,-0.77344 -0.60547,-0.20703 -1.27735,-0.42968 -2.03516,-0.64453 0,0 -0.910155,4.05469 2.3711,5.42188 3.52343,1.47265 4.53906,-1.90235 4.53906,-1.90235 0,0 -0.1836,-0.41406 -1.07813,-1.05078" id="path54"></path>
    <path style="fill:#003f97;fill-opacity:1;fill-rule:nonzero;stroke:none" d="m 100.89453,177.05859 c 0.75781,0.21485 1.42969,0.4336 2.03516,0.64453 -0.14063,0.13282 -0.30078,0.36719 -0.39453,0.77344 -0.22266,1.03125 -0.0234,2.75 1.875,3.09375 1.80859,0.33594 2.43359,-1.17969 2.3125,-2.04297 0.89843,0.63672 1.08203,1.05078 1.08203,1.05078 0,0 -1.01563,3.375 -4.53906,1.90235 -3.281255,-1.36719 -2.3711,-5.42188 -2.3711,-5.42188 m -9.36328,-11.3164 c 2.664063,5.86328 -3.007812,11.3164 -3.007812,11.3164 0,0 5.0625,-0.48828 6.796875,3.375 1.992187,4.47266 5.582027,4.92578 5.582027,4.92578 -2.675777,-1.27734 -3.554684,-3.27734 -3.925777,-5.0664 -0.328125,-1.5625 0.53125,-1.91406 1.03125,-1.92969 2.136717,-0.0664 0.3125,4.14453 5.503907,6.16016 1.79687,0.69922 2.58984,1.91406 2.85937,3.24609 0.41797,2.10156 -0.39843,4.32422 -0.39843,4.32422 0,0 3.34375,-4.07031 3.76172,-7.85156 0.0664,-0.5625 0.14843,-1.45313 -0.0156,-2.46485 -0.26562,-1.65625 -1.19922,-3.6289 -3.98828,-5.08593 -5.781251,-3.01563 -10.175782,-3.01563 -10.175782,-3.01563 0,0 1.171875,0.44141 2.070312,1.5 0.296875,0.34375 0.601563,1.07031 -0.492187,0.90234 -0.988282,-0.14843 -2.457032,-0.60546 -2.515625,-0.625 -0.878907,-0.33984 -1.585938,-0.61328 -1.585938,-0.61328 3.535156,-4.59765 1.527344,-7.77734 0.957031,-9.58203 0.144532,-1.42969 0.492188,-2.48437 0.921875,-3.32031 0.410157,-0.78906 0.898438,-1.38672 1.382813,-1.90234 -1.835938,0.89843 -3.917969,2.45312 -4.761719,5.70703" id="path56"></path>
    <path style="fill:#003f97;fill-opacity:1;fill-rule:nonzero;stroke:none" d="m 92.183594,179.67187 c 0,0 -1.070313,2.91797 0.28125,5.72266 C 94.28125,189.17187 99,190.24609 99,190.24609 c 0,0 -6.347656,-2.17187 -3.597656,-6.79687 0,0 -2.871094,-0.58203 -3.21875,-3.77735" id="path58"></path>
    <path style="fill:#003f97;fill-opacity:1;fill-rule:nonzero;stroke:none" d="m 103.48828,174.46875 c 0,0 -2.8789,-2.27734 -3.792967,-3.15234 -0.527344,-0.51172 -0.574219,-2.51954 -0.515625,-4.25 0.04687,-1.46485 0.175781,-2.72266 0.175781,-2.72266 0,0 -0.335938,1.13281 -0.648438,2.52344 -0.457031,1.91406 -0.886718,4.33203 -0.421875,5.04297 1.023438,1.59765 5.203124,2.55859 5.203124,2.55859" id="path60"></path>
    <path style="fill:#003f97;fill-opacity:1;fill-rule:nonzero;stroke:none" d="m 110.17969,164.61719 c -1.91016,1.09765 -4.07422,1.08593 -5.52344,0.90234 -0.98047,-0.11719 -1.76562,0.52734 -1.95703,1.30469 -0.0977,0.39062 -0.21875,0.78906 -0.34766,1.19531 -0.23437,0.73047 -0.52343,1.46094 -0.88672,2.07813 0.73438,2.33984 3.09375,3.94921 3.09375,3.94921 -0.89062,-1.33203 -1.55078,-3.70703 -1.55078,-3.70703 l 0.29297,-0.55859 0.73828,-1.33203 c 0,0 0.61719,-1.38672 1.30469,-1.46485 3.84375,-0.44531 4.83594,-2.36718 4.83594,-2.36718" id="path62"></path>
    <path style="fill:#003f97;fill-opacity:1;fill-rule:nonzero;stroke:none" d="m 84.160156,179.57031 c -0.210937,-6.67969 5.816407,-11.97265 6.378907,-12.38281 -9.703125,3.90625 -9.703125,14.83984 -9.703125,14.83984 4.652343,5.33594 1.296875,11.66797 1.296875,11.66797 6.15625,-5.72265 2.105468,-12.02344 2.027343,-14.125" id="path64"></path>
    <path style="fill:#003f97;fill-opacity:1;fill-rule:nonzero;stroke:none" d="m 111.50391,187.32422 c 0,0 5.6914,0.88281 4.41015,-5.70313 0,0 -0.86328,4.32032 -4.41015,5.70313" id="path66"></path>
    <path style="fill:#003f97;fill-opacity:1;fill-rule:nonzero;stroke:none" d="m 116.89844,168.78906 c 0,0 -1.63672,3.99219 -3.71875,4.65625 -0.19531,-0.0586 -0.28516,-1.24219 -0.17578,-3.32031 0,0 -3.73828,4.94141 -0.17578,10.94922 0,0 -1.00782,-1.98828 0.27343,-4.25781 0.80469,-1.42188 2.50391,-2.17579 3.41407,-4.64844 0.26171,-0.72266 0.38281,-1.51953 0.38281,-3.37891" id="path68"></path>
    <path style="fill:#003f97;fill-opacity:1;fill-rule:nonzero;stroke:none" d="m 106.66016,170.21094 c 1.51172,-3.12891 5.78515,-1.77344 7.28125,-5.32813 0,0 -0.0156,3.21875 -2.65235,4.28516 -3.91797,1.58203 -4.27343,4.77734 -4.27343,4.77734 0,0 -1.07422,-2.24609 -0.35547,-3.73437" id="path70"></path>
    <path style="fill:#ffffff;fill-opacity:1;fill-rule:nonzero;stroke:none" d="m 86.710938,158.98437 c 0.08203,-0.10156 -1.632813,1.42969 -2.496094,2.52735 -9.796875,-7.97656 -5.710938,-14.11328 -5.175781,-16.07813 7.671875,-4.49218 15.917968,8.76953 15.917968,8.76953 -4.101562,1.17969 -8.246093,4.78125 -8.246093,4.78125" id="path72"></path>
    <path style="fill:#003f97;fill-opacity:1;fill-rule:nonzero;stroke:none" d="m 86.339844,159.32031 c 2.523437,-2.13672 5.0625,-3.76953 8.617187,-5.11719 -1.675781,-5.44921 -10.933593,-12.26953 -15.917968,-8.76953 7.175781,-0.89453 8.625,11.57032 7.300781,13.88672" id="path74"></path>
    <path style="fill:#ffffff;fill-opacity:1;fill-rule:nonzero;stroke:none" d="m 151.65625,158.98437 c -0.0742,-0.10156 1.63281,1.42969 2.50391,2.52735 9.80078,-7.97656 5.71484,-14.11328 5.18359,-16.07813 -7.68359,-4.49218 -15.92969,8.76953 -15.92969,8.76953 4.10156,1.17969 8.24219,4.78125 8.24219,4.78125" id="path76"></path>
    <path style="fill:#003f97;fill-opacity:1;fill-rule:nonzero;stroke:none" d="m 152.03906,159.32031 c -2.53125,-2.13672 -5.07031,-3.76953 -8.625,-5.11719 1.67969,-5.44921 10.9375,-12.26953 15.92969,-8.76953 -7.19141,-0.89453 -8.62891,11.57032 -7.30469,13.88672" id="path78"></path>
    <path style="fill:#f39700;fill-opacity:1;fill-rule:nonzero;stroke:none" d="m 146.50391,209.61719 c 0.008,9.01953 -8.8711,10.5664 -13.48829,10.91406 0.83204,-2.15234 3.14063,-6.14453 3.72657,-7.89453 2.25,-1.45703 6.05468,-3.44141 9.76172,-3.01953" id="path80"></path>
    <path style="fill:#ffffff;fill-opacity:1;fill-rule:nonzero;stroke:none" d="m 131.68359,179.52734 c -0.11718,0.86328 0.50391,2.37891 2.32422,2.04297 1.89063,-0.34375 2.09766,-2.0625 1.875,-3.09375 -0.0977,-0.40625 -0.26172,-0.63672 -0.39453,-0.77344 0.60547,-0.20703 1.27344,-0.42968 2.03516,-0.64453 0,0 0.90234,4.05469 -2.38282,5.42188 -3.51171,1.47265 -4.53125,-1.90235 -4.53125,-1.90235 0,0 0.17969,-0.41406 1.07422,-1.05078" id="path82"></path>
    <path style="fill:#003f97;fill-opacity:1;fill-rule:nonzero;stroke:none" d="m 135.14062,182.48047 c -3.51171,1.47265 -4.53125,-1.90235 -4.53125,-1.90235 0,0 0.17579,-0.41406 1.07422,-1.05078 -0.11718,0.86328 0.50391,2.37891 2.32422,2.04297 1.89063,-0.34375 2.09766,-2.0625 1.875,-3.09375 -0.0977,-0.40625 -0.26562,-0.64062 -0.39453,-0.77344 0.60547,-0.20703 1.27344,-0.42968 2.03516,-0.64453 0,0 0.90234,4.05469 -2.38282,5.42188 m 6.97657,-22.44531 c 0.48047,0.51562 0.97656,1.11328 1.3789,1.90234 0.44141,0.83594 0.78516,1.89453 0.92578,3.32031 -0.57421,1.80469 -2.57421,4.98438 0.95704,9.58203 0,0 -0.71485,0.27344 -1.58985,0.61719 -0.0469,0.0156 -1.52734,0.47266 -2.5039,0.62109 -1.10157,0.17188 -0.79688,-0.55859 -0.4961,-0.90234 0.89844,-1.05859 2.07031,-1.5 2.07031,-1.5 0,0 -4.39453,0 -10.17968,3.01563 -2.78516,1.45703 -3.71485,3.42968 -3.99219,5.08593 -0.16016,1.01563 -0.0781,1.90235 -0.0117,2.46485 0.42578,3.78125 3.75391,7.85156 3.75391,7.85156 0,0 -0.80078,-2.22266 -0.38672,-4.32422 0.26953,-1.33203 1.0625,-2.54687 2.85156,-3.24609 5.19531,-2.01563 3.36719,-6.22657 5.50391,-6.16016 0.51172,0.0156 1.36328,0.36719 1.03515,1.92969 -0.36718,1.78906 -1.24609,3.78906 -3.92187,5.0664 h -0.004 c 0,0 3.59766,-0.45312 5.58594,-4.92578 1.73047,-3.86328 6.79687,-3.375 6.79687,-3.375 0,0 -5.67187,-5.45312 -3.00781,-11.3164 -0.84375,-3.25391 -2.92969,-4.8086 -4.76562,-5.70703" id="path84"></path>
    <path style="fill:#003f97;fill-opacity:1;fill-rule:nonzero;stroke:none" d="m 146.22266,179.67187 c 0,0 1.07421,2.91797 -0.27735,5.72266 -1.8164,3.77734 -6.53125,4.85156 -6.53125,4.85156 0,0 6.34375,-2.17187 3.59766,-6.79687 0,0 2.875,-0.58203 3.21094,-3.77735" id="path86"></path>
    <path style="fill:#003f97;fill-opacity:1;fill-rule:nonzero;stroke:none" d="m 134.92578,174.46875 c 0,0 2.88281,-2.27734 3.79688,-3.15234 0.51953,-0.51172 0.57421,-2.51954 0.51171,-4.25 -0.0469,-1.46485 -0.17578,-2.72266 -0.17578,-2.72266 0,0 0.32813,1.13281 0.65235,2.52344 0.44531,1.91406 0.8789,4.33203 0.41797,5.04297 -1.03516,1.59765 -5.20313,2.55859 -5.20313,2.55859" id="path88"></path>
    <path style="fill:#003f97;fill-opacity:1;fill-rule:nonzero;stroke:none" d="m 128.24219,164.61719 c 1.89843,1.09765 4.0664,1.08593 5.50781,0.90234 0.98828,-0.11719 1.77734,0.52734 1.96094,1.30469 0.0937,0.39062 0.22265,0.78906 0.34375,1.19531 0.24218,0.73047 0.52734,1.46094 0.89062,2.07813 -0.73437,2.33984 -3.09375,3.94921 -3.09375,3.94921 0.89453,-1.33203 1.5586,-3.70703 1.5586,-3.70703 l -0.29688,-0.55859 -0.74219,-1.33203 c 0,0 -0.62109,-1.38672 -1.30468,-1.46485 -3.84375,-0.44531 -4.82422,-2.36718 -4.82422,-2.36718" id="path90"></path>
    <path style="fill:#003f97;fill-opacity:1;fill-rule:nonzero;stroke:none" d="m 154.24609,179.57031 c 0.21875,-6.67969 -5.80468,-11.97265 -6.36718,-12.38281 9.69921,3.90625 9.69921,14.83984 9.69921,14.83984 -4.65234,5.33594 -1.30078,11.66797 -1.30078,11.66797 -6.15234,-5.72265 -2.10547,-12.02344 -2.03125,-14.125" id="path92"></path>
    <path style="fill:#003f97;fill-opacity:1;fill-rule:nonzero;stroke:none" d="m 126.91406,187.32422 c 0,0 -5.69531,0.88281 -4.41406,-5.70313 0,0 0.85938,4.32032 4.41406,5.70313" id="path94"></path>
    <path style="fill:#003f97;fill-opacity:1;fill-rule:nonzero;stroke:none" d="m 121.51563,168.78906 c 0,0 1.63671,3.99219 3.72265,4.65625 0.19141,-0.0586 0.27735,-1.24219 0.16797,-3.32031 0,0 3.73828,4.94141 0.17188,10.94922 0,0 1.01171,-1.98828 -0.26954,-4.25781 -0.80468,-1.42188 -2.50781,-2.17579 -3.41015,-4.64844 -0.26563,-0.72266 -0.38281,-1.51953 -0.38281,-3.37891" id="path96"></path>
    <path style="fill:#003f97;fill-opacity:1;fill-rule:nonzero;stroke:none" d="m 131.75781,170.21094 c -1.51953,-3.12891 -5.79297,-1.77344 -7.28515,-5.32813 0,0 0.004,3.21875 2.65625,4.28516 3.90625,1.58203 4.26171,4.77734 4.26171,4.77734 0,0 1.08985,-2.24609 0.36719,-3.73437" id="path98"></path>
    <path style="fill:#003f97;fill-opacity:1;fill-rule:nonzero;stroke:none" d="m 126.55469,155.38672 c -4.10156,0.58984 -7.34375,-1.85156 -7.34375,-1.85156 0,0 -3.1211,2.39453 -7.35547,1.85156 -8.33594,-1.0586 -13.839845,3.64062 -13.839845,3.64062 3.875005,-1.92968 7.656255,-1.43359 9.812505,-1.00781 3.67968,0.71875 7.86718,-0.95703 7.80859,-0.0195 -0.0586,0.95312 -2.53516,2.71094 -2.53516,2.71094 1.89844,-0.74219 4.41797,-0.76953 6.10938,-0.76953 1.67187,0 4.19922,0.0273 6.09765,0.76953 0,0 -2.47656,-1.75782 -2.53515,-2.71094 -0.0586,-0.9375 4.13281,0.73828 7.8125,0.0195 2.15234,-0.42578 5.92578,-0.92187 9.8125,1.00781 0,0 -5.52735,-4.82422 -13.84375,-3.64062" id="path100"></path>
    <path style="fill:#003f97;fill-opacity:1;fill-rule:nonzero;stroke:none" d="m 129.08203,224.32031 c 0,0 0.86719,-4.03515 -2.0625,-8.03515 0,0 2.65625,0.32812 5.34766,-1.02344 -0.59375,3.35937 -1.74219,6.80859 -3.28516,9.05859 m -2.07812,7.39063 c -2.6836,-0.78907 -6.42578,-1.03516 -7.79297,-1.03516 -1.38672,0 -5.1211,0.24609 -7.79297,1.03516 0,0 -1.14844,-3.01172 -0.67188,-6.5586 0,0 0.58204,2.71485 1.76954,4.38282 l 1.53906,-0.62891 1.38672,0.26953 1.85547,-0.53906 1.89843,0.51953 1.92578,-0.51953 1.84375,0.53906 h 0.008 l 1.38672,-0.26953 1.53125,0.62891 c 1.1875,-1.66797 1.77734,-4.38282 1.77734,-4.38282 0.48047,3.54688 -0.66406,6.5586 -0.66406,6.5586 m -20.96094,-16.44922 c 2.69141,1.35156 5.35156,1.02344 5.35156,1.02344 -2.92969,4 -2.0625,8.03515 -2.0625,8.03515 -1.54297,-2.25 -2.6875,-5.69922 -3.28906,-9.05859 m 50.22656,-17.09766 c 0,0 -5.62891,-0.0508 -6.06641,-4.91797 0,0 1.99219,-3.51562 1.05469,-7.61328 -0.91797,-3.94922 -2.46484,-5.19922 -2.46484,-5.19922 0,0 4.38672,8.44532 -4.86719,14.72657 -0.043,0.0312 -0.082,0.0547 -0.12109,0.082 0,0 4.29297,0.76953 3.92968,4.82422 -0.30078,3.43359 -3.97656,6.23046 -7.89843,8.3789 0.0742,-0.23047 0.14453,-0.46094 0.20312,-0.69531 0.3086,-1.32813 0.42188,-2.94922 0.17188,-4.63281 2.04687,-2.98828 4.625,-2.28516 4.625,-2.28516 -2.23047,-1.54297 -4.33594,-0.78516 -5.28125,-0.29297 -0.76563,-2.09375 -2.35547,-4.27344 -4.67578,-5.76953 0,0 2.67578,2.74609 3.36328,6.61328 -0.39063,1.125 -1.01172,2.05078 -1.75782,2.8125 -2.89453,2.92578 -7.57421,3.4375 -7.57421,3.4375 1.49609,0.24219 2.86328,0.28906 4.09765,0.1875 2.07031,-0.16015 3.7461,-0.67578 4.88672,-1.14844 -0.008,0.0195 -1.06641,3.81641 -6.47266,6.31641 -4.61718,2.14063 -9.64843,1.12109 -10.83203,-0.3125 -0.41406,-0.48828 -0.58203,-2.86719 -0.27343,-3.46094 0.23828,-0.46093 0.64843,-1.17578 1.5,-1.91406 2,-1.72266 4.4414,-2.98437 5.74609,-3.71094 2.50391,-1.39062 2.875,-4.26562 0.53906,-5.76953 0,0 0.1836,1.91016 -2.46093,1.85547 -0.3125,-0.008 -4.05079,-0.97266 -6.44532,-0.97266 -2.39062,0 -6.11718,0.96485 -6.42968,0.97266 -2.64063,0.0547 -2.45313,-1.85547 -2.45313,-1.85547 -2.33984,1.50391 -1.96875,4.37891 0.53906,5.76953 1.30469,0.72657 3.73828,1.98828 5.73828,3.71094 0.85938,0.73828 1.26563,1.45313 1.50782,1.91406 0.30468,0.59375 0.13672,2.97266 -0.27344,3.46094 -1.18359,1.43359 -6.21484,2.45313 -10.82813,0.3125 -5.41015,-2.5 -6.46875,-6.29687 -6.47656,-6.31641 1.13281,0.47266 2.8086,0.98829 4.88672,1.14844 1.23828,0.10156 2.60156,0.0547 4.09375,-0.1875 0,0 -4.67578,-0.51172 -7.56641,-3.4375 -0.7539,-0.76172 -1.36718,-1.6875 -1.76562,-2.8125 0.69141,-3.86719 3.36719,-6.61328 3.36719,-6.61328 -2.32032,1.49609 -3.906254,3.67578 -4.683597,5.76953 -0.9375,-0.49219 -3.050782,-1.25 -5.269532,0.29297 0,0 2.578125,-0.70312 4.621094,2.28516 -0.246094,1.68359 -0.144531,3.30468 0.171875,4.63281 0.05859,0.23437 0.125,0.46484 0.207031,0.69531 -3.929687,-2.14844 -7.601562,-4.94531 -7.90625,-8.3789 -0.367187,-4.05469 3.929688,-4.82422 3.929688,-4.82422 -0.03516,-0.0273 -0.07422,-0.0508 -0.121094,-0.082 -9.25,-6.28125 -4.859375,-14.72657 -4.859375,-14.72657 0,0 -1.554687,1.25 -2.464844,5.19922 -0.945312,4.09766 1.050782,7.61328 1.050782,7.61328 -0.433594,4.86719 -6.066407,4.91797 -6.066407,4.91797 2.726563,4.21485 7.128907,4.29688 7.128907,4.29688 -3.597657,1.69531 -4.144532,4.83984 -4.144532,4.83984 3.105469,-1.98828 7.160157,0.35938 7.160157,0.35938 -2.027344,1.65625 -2.394532,4.46484 -2.394532,4.46484 0.773438,-0.33594 1.5625,-0.53516 2.351563,-0.625 3.714844,-0.42188 7.527344,1.55078 9.773436,3.02344 0.57813,1.74218 4.70703,11.77734 8.9336,18.73437 0,0 3.40234,-1.05859 8.25781,-1.05859 4.84765,0 8.25781,1.05859 8.25781,1.05859 4.21484,-6.95703 8.35156,-16.99219 8.92578,-18.73437 2.25,-1.47266 6.0625,-3.44532 9.75781,-3.02344 0.80078,0.0898 1.58985,0.28906 2.36328,0.625 0,0 -0.35937,-2.80859 -2.40234,-4.46484 0,0 4.0625,-2.34766 7.17188,-0.35938 0,0 -0.55469,-3.14453 -4.14844,-4.83984 0,0 4.40234,-0.082 7.13281,-4.29688" id="path102"></path>
    <path style="fill:#003f97;fill-opacity:1;fill-rule:nonzero;stroke:none" d="m 119.73047,148.34375 c 0,0 5.88281,-1.15234 12.67969,1.72266 0,0 -4.80078,-4.98047 -13.20313,-3.92579 -8.40234,-1.05468 -13.21094,3.92579 -13.21094,3.92579 6.80469,-2.875 12.6836,-1.72266 12.6836,-1.72266 -2.46485,2.96484 -8.44531,-0.61719 -15.09375,6.00781 5.6289,-3.1914 11.93359,0.16016 15.62109,-2.38672 3.6875,2.54688 9.98828,-0.80468 15.62109,2.38672 -6.65234,-6.625 -12.63281,-3.04297 -15.09765,-6.00781" id="path104"></path>
    <path style="fill:#003f97;fill-opacity:1;fill-rule:nonzero;stroke:none" d="m 163.82422,192.55469 c -2.52344,-2.98438 -5.66797,-3.35157 -5.66797,-3.35157 3.72266,18.22266 -3.61328,26.65625 -3.61328,26.65625 -0.59375,-3.34375 -2.6875,-5.27343 -2.6875,-5.27343 -2.85547,10.82422 -9.5,13.60547 -12.98047,15.24218 -6.51563,3.07422 -8.30078,8.04688 -10.11328,11.09766 -0.625,1.05469 -0.89063,1.23438 -1.625,1.44922 -0.96094,0.29297 -4.44922,0.78516 -7.92578,0.78516 -3.49219,0 -6.97656,-0.49219 -7.95313,-0.78516 -0.73437,-0.21484 -0.98828,-0.39453 -1.61328,-1.44922 -1.8164,-3.05078 -3.60156,-8.02344 -10.124999,-11.09766 -3.476562,-1.63671 -10.121093,-4.41796 -12.972656,-15.24218 0,0 -2.09375,1.92968 -2.6875,5.27343 0,0 -7.335937,-8.43359 -3.613281,-26.65625 0,0 -3.136719,0.36719 -5.671875,3.35157 0,0 -0.273438,-6.92188 4.171875,-13.53516 0,0 -0.785156,-1.73437 -3.039063,-2.60156 0,0 1.828125,-2.16797 5.363282,-3.03125 0,0 -0.898438,-2.40625 -2.664063,-3.3086 0,0 5.554688,-4.375 1.773438,-8.11718 -2.265625,-2.23828 -6.597657,-6.58985 -5.664063,-11.95703 0.828125,-4.8125 2.125,-7.94532 2.125,-7.94532 6.523438,-2.14453 12.886719,1.35938 15.695313,3.08985 3.953125,2.42968 6.460937,6.58593 6.460937,6.58593 0,0 6.312505,-7.46875 20.492185,-7.50781 14.01172,0.0391 20.31641,7.50781 20.31641,7.50781 0,0 2.51172,-4.15625 6.46094,-6.58593 2.80468,-1.73047 9.16796,-5.23438 15.69921,-3.08985 0,0 1.29297,3.13282 2.1211,7.94532 0.92969,5.36718 -3.39844,9.71875 -5.66406,11.95703 -3.77735,3.74218 1.77734,8.11718 1.77734,8.11718 -1.76953,0.90235 -2.66406,3.3086 -2.66406,3.3086 3.52734,0.86328 5.36328,3.03125 5.36328,3.03125 -2.26172,0.86719 -3.04688,2.60156 -3.04688,2.60156 4.44532,6.61328 4.17188,13.53516 4.17188,13.53516 m 2.48828,-14.13282 c -0.98047,-3.71093 -5.66016,-5.72656 -5.66016,-5.72656 1.21094,-2.18359 4.08985,-2.58594 4.08985,-2.58594 -6.3125,-3.07421 -5.5,-5.83593 -4.54688,-6.72656 4.85156,-4.52344 7.78516,-8.49219 6.02735,-15.24219 -1.33204,-5.11328 -1.60938,-7.27734 -1.60938,-7.27734 -4.24609,-2.24219 -9.41016,-2.28516 -14.72656,-0.32031 -7.28125,2.67578 -10.50781,7.19531 -10.50781,7.19531 -4.82422,-4.10547 -14.10157,-6.35547 -20.14453,-5.47656 -6.22266,-0.87891 -15.38282,1.37109 -20.214849,5.47656 0,0 -3.226562,-4.51953 -10.496093,-7.19531 -5.328125,-1.96485 -10.488282,-1.92188 -14.742188,0.32031 0,0 -0.277344,2.16406 -1.601562,7.27734 -1.761719,6.75 1.179687,10.71875 6.027343,15.24219 0.949219,0.89063 1.761719,3.65235 -4.546875,6.72656 0,0 2.875,0.40235 4.085938,2.58594 0,0 -4.6875,2.01563 -5.652344,5.72656 0,0 2.675781,-1.28515 4.496094,0.80079 0,0 -6.488281,8.125 -4.296875,20.90625 0,0 0.746094,-1.56641 4.6875,-5.53516 0,0 -3.832031,17.58203 9.105469,28.41797 0,0 -0.84375,-3.76953 0.08594,-6.63672 0,0 2.351563,7.46875 11.371094,11.24219 5.316408,2.22656 7.757808,6.48047 9.550778,10.62109 0.94531,2.19531 1.58984,3.19531 4.16406,3.16406 1.8086,-0.0234 7.98438,0.1211 7.9961,0.1211 0.0117,0 6.07422,-0.14453 7.88281,-0.1211 2.58594,0.0312 3.22656,-0.96875 4.17969,-3.16406 1.78906,-4.14062 4.22656,-8.39453 9.54687,-10.62109 9.01563,-3.77344 11.36328,-11.24219 11.36328,-11.24219 0.92969,2.86719 0.0859,6.63672 0.0859,6.63672 12.93359,-10.83594 9.11328,-28.41797 9.11328,-28.41797 3.92969,3.96875 4.67969,5.53516 4.67969,5.53516 2.19531,-12.78125 -4.28906,-20.90625 -4.28906,-20.90625 1.82031,-2.08594 4.49609,-0.80079 4.49609,-0.80079" id="path106"></path>
    <path style="fill:#003f97;fill-opacity:1;fill-rule:nonzero;stroke:none" d="M 91.835938,73.191406 V 84.746094 H 90.660156 L 90.664063,73.148438 91.25,71.359375 Z m 13.132812,11.554688 0.008,-11.597656 0.8711,-2.664063 H 84 l 0.878906,2.703125 v 14.929688 l 2.328125,2.328125 h 8.078125 l 2.335938,-2.328125 0.0039,-14.96875 0.78125,-2.402344 0.785156,2.441406 -0.01172,14.566406 -0.9375,2.691407 h 13.44922 v -6.652344 l -3.08203,0.953125" id="path108"></path>
    <path style="fill:#003f97;fill-opacity:1;fill-rule:nonzero;stroke:none" d="m 124.30859,79.929688 -1.40625,-1.34375 h 2.28516 l -0.86328,-2.699219 v -3.070313 l -2.34375,-2.332031 h -7.40234 l -2.34766,2.332031 v 8.210938 l 1.39062,1.375 h -2.26953 l 0.8711,2.707031 v 3.007813 l 2.33593,2.328125 h 7.40625 l 2.33985,-2.328125" id="path110"></path>
    <path style="fill:#003f97;fill-opacity:1;fill-rule:nonzero;stroke:none" d="m 148.43359,90.445313 h 6.22266 l -0.90234,-2.714844 0.008,-14.582031 0.875,-2.664063 h -7.53906 l 0.8789,2.703125 v 2.820313 l -2.36328,-5.523438 h -6.19141 l 0.86719,2.707031 -0.004,14.589844 -0.52735,1.609375 -0.99609,-1.800781 -3.72656,-14.835938 0.78515,-2.320312 h -7.9414 l 0.78125,2.386719 -3.73828,14.769531 L 123.30469,90.5 h 8.0039 l -0.64453,-2.023437 0.54297,-1.964844 1.28516,0.01172 0.51562,2 L 132.33594,90.5 h 7.48047 l 0.0547,0.09766 0.0391,-0.09766 0.46093,-0.05469 h 6.56641 l -0.87109,-2.691407 v -2.734375" id="path112"></path>
    <path style="fill:#ffffff;fill-opacity:1;fill-rule:nonzero;stroke:none" d="m 103.62109,86.09375 h 5.19141 l 1.25781,-0.378906 v 3.378906 h -9.92578 l 0.39063,-1.109375 0.008,-15.011719 -0.36719,-1.125 h 3.8086 l -0.36329,1.085938 V 86.09375" id="path114"></path>
    <path style="fill:#ffffff;fill-opacity:1;fill-rule:nonzero;stroke:none" d="m 133.14844,82.484375 -1.3086,-5.945312 -1.33203,5.945312 z m -3.1211,2.574219 -0.77343,3.4375 0.20312,0.652344 h -3.85937 l 0.58593,-1.0625 3.875,-15.308594 -0.32422,-0.988281 h 4.19532 l -0.31641,0.898437 3.88281,15.398438 0.58594,1.0625 h -3.85937 l 0.20312,-0.570313 -0.79687,-3.519531" id="path116"></path>
    <path style="fill:#ffffff;fill-opacity:1;fill-rule:nonzero;stroke:none" d="m 116.64063,86.09375 h 3.16015 v -4.097656 h -4.66797 l -1.54297,-1.535156 v -7.089844 l 1.54297,-1.523438 h 6.28907 l 1.54296,1.523438 v 2.722656 l 0.36329,1.132813 h -3.80079 l 0.35157,-1.09375 0.008,-1.148438 h 0.008 -3.22656 v 4.011719 h 4.70703 l 1.58203,1.511719 -0.004,7.046875 -1.54297,1.539062 h -6.29688 l -1.54297,-1.539062 v -2.664063 l -0.36718,-1.128906 h 3.80859 l -0.35547,1.09375 v 1.238281" id="path118"></path>
    <path style="fill:#ffffff;fill-opacity:1;fill-rule:nonzero;stroke:none" d="M 93.195313,86.105469 V 72.972656 l -0.371094,-1.125 h 3.804687 l -0.355468,1.078125 V 87.554688 L 94.726563,89.09375 H 87.769531 L 86.226563,87.554688 V 72.972656 l -0.371094,-1.125 h 3.8125 l -0.359375,1.085938 -0.0039,13.171875" id="path120"></path>
    <path style="fill:#ffffff;fill-opacity:1;fill-rule:nonzero;stroke:none" d="m 149.32031,89.09375 -4.61328,-10.601562 0.0117,9.46875 0.35937,1.132812 h -3.80078 L 141.63281,88 l 0.008,-15.015625 -0.36328,-1.136719 h 3.44532 l 4.60937,10.761719 -0.004,-9.636719 -0.36718,-1.125 h 3.80078 l -0.35547,1.085938 -0.0117,15.015625 0.38281,1.144531" id="path122"></path>
    <path style="fill:#003f97;fill-opacity:1;fill-rule:nonzero;stroke:none" d="m 104.65625,250.76562 v 9.58204 l -0.26953,0.83593 h 2.76562 l -0.26171,-0.83203 v -12.68359 h -2.58985 l -0.80469,2.78906 h 0.86719" id="path124"></path>
    <path style="fill:#003f97;fill-opacity:1;fill-rule:nonzero;stroke:none" d="m 121.58984,253.21094 -0.2539,-0.25391 v -2.76953 l 0.28906,-0.28906 h 1.72266 l 0.29297,0.28125 v 2.76953 l -0.26954,0.26172 z m -0.2539,5.46093 v -2.91015 l 0.26562,-0.26953 h 1.76953 l 0.26954,0.25 v 2.92187 l -0.29297,0.29297 H 121.625 Z m -1.11328,-11.0039 -1.11719,1.13672 v 4.40625 l 1.11719,1.14062 -1.11719,1.14063 v 4.55468 l 1.11719,1.13672 h 4.53125 l 1.11328,-1.13672 v -4.55468 l -1.11328,-1.14063 1.11328,-1.14062 v -4.40625 l -1.11328,-1.13672" id="path126"></path>
    <path style="fill:#003f97;fill-opacity:1;fill-rule:nonzero;stroke:none" d="m 136.82812,248.21484 -1.95312,-1.98828 h -5.75 l -1.87891,1.92188 -1.88671,-1.92188 h -5.7461 l -1.80469,1.84375 -1.8125,-1.84375 h -5.74218 l -1.92578,1.96094 v -1.96094 h -5.10938 l -1.64062,5.67578 h 1.64062 v 8.22266 l -0.82031,2.5 h 6.71875 l -0.53125,-1.67969 1.65234,1.67969 h 5.7461 l 1.8125,-1.84766 1.82421,1.84766 h 5.73829 l 1.88671,-1.92969 1.87891,1.92969 h 5.75 l 1.95312,-1.98828 v -5.69141 l -0.54296,-0.55469 0.54296,-0.53906" id="path128"></path>
    <path style="fill:#ffffff;fill-opacity:1;fill-rule:nonzero;stroke:none" d="m 104.65625,250.45703 v 9.89063 l -0.26953,0.83593 h 2.76562 l -0.26171,-0.83203 v -12.68359 h -2.58985 l -0.80469,2.78906" id="path130"></path>
    <path style="fill:#ffffff;fill-opacity:1;fill-rule:nonzero;stroke:none" d="m 114.27734,253.31641 h -2.3164 v -3.41407 h 2.3164 z m 1.11329,-5.64844 h -4.53907 l -1.10937,1.13672 v 5.60156 l 1.10937,1.14062 h 3.41407 v 3.41016 h -2.3125 v -1.19531 l 0.26953,-0.82813 h -2.76172 l 0.26562,0.82422 v 2.28906 l 1.1211,1.13672 h 4.53515 l 1.11328,-1.13672 v -1.07812 h 0.004 v -4.08594 h 0.0117 v -6.07812" id="path132"></path>
    <path style="fill:#ffffff;fill-opacity:1;fill-rule:nonzero;stroke:none" d="m 123.63672,253.21094 h -2.30078 v -3.3125 h 2.30078 z m 0,5.74609 h -2.30078 v -3.46484 h 2.30078 z m 1.11719,-11.28906 h -4.53125 l -1.11719,1.13672 v 4.40625 l 1.11719,1.14062 -1.11719,1.14063 v 4.55468 l 1.11719,1.13672 h 4.53125 l 1.11328,-1.13672 v -4.55468 l -1.11328,-1.14063 1.11328,-1.14062 v -4.40625" id="path134"></path>
    <path style="fill:#ffffff;fill-opacity:1;fill-rule:nonzero;stroke:none" d="m 133.14844,258.95703 h -2.30078 l -0.004,-1.19531 0.26953,-0.82813 h -2.76172 l 0.26172,0.82422 v 2.28906 l 1.12109,1.13672 h 4.53125 l 1.10938,-1.13672 v -4.51171 l -1.10938,-1.14454 1.10938,-1.13671 v -4.44922 l -1.10938,-1.13672 h -4.53125 l -1.12109,1.13672 v 2.28515 l -0.26172,0.83203 h 2.76172 l -0.26953,-0.83593 v -1.19141 l 2.30469,0.004 v 3.40234 h -1.5 l -0.80469,-0.28125 v 2.82813 l 0.83594,-0.26563 h 1.46875" id="path136"></path>
  </g>
</svg>
