<svg xmlns="http://www.w3.org/2000/svg" width="970.743" height="723.941" viewBox="0 0 256.84241 191.54272" version="1.1" id="svg17286">
  <g id="layer1">
    <path id="path12-2" style="fill:#ffffff;fill-opacity:1;fill-rule:nonzero;stroke:none;stroke-width:0.35278" d="M 57.488483,0 V 41.928709 L 0,41.883229 l 15.373739,20.49384 12.332582,-0.633037 -0.0124,44.024708 29.794566,-7.163383 v 42.409293 l 70.895923,50.52819 70.94038,-50.54937 V 98.686487 l 30.86529,8.388113 c 9.36216,0.23142 11.77229,-4.99664 12.39046,-8.491463 0.29818,-1.73055 0.48393,-3.584749 0.54984,-5.090136 0.0646,-1.067282 0.0786,-2.127001 0.0801,-3.170867 0.001,-1.427996 -0.002,-3.308374 -0.006,-5.183662 -0.007,-3.749595 -0.0196,-7.474601 -0.0196,-7.476548 v -0.0021 c -0.006,-2.11728 -0.21211,-4.540586 -1.51153,-6.927741 -0.90404,-1.660806 -2.29067,-3.055681 -3.93206,-4.150136 l 19.10116,-24.621752 -57.51794,-0.0031 V 0 Z"></path>
    <path d="M 128.39306,170.74259 62.665869,133.41905 v 4.93925 l 65.727191,46.81149 65.72543,-46.81149 v -4.93925 z" style="fill:#06141f;fill-opacity:1;fill-rule:nonzero;stroke:none;stroke-width:0.352778" id="path12-3"></path>
    <path d="m 116.87986,141.40898 h 23.0389 l 5.53369,11.56441 48.66612,-25.06733 -0.007,0.009 0.007,-0.009 V 99.502157 c -43.30072,-9.466792 -88.15332,-9.466792 -131.452978,0.005 v 28.399313 l 48.665428,25.06733 z" style="fill:#06141f;fill-opacity:1;fill-rule:nonzero;stroke:none;stroke-width:0.352778" id="path24-4"></path>
    <path d="M 111.05058,47.207465 H 78.616847 c 0.507649,0.22507 4.633038,1.65065 4.633038,5.79932 l -0.0254,28.176 c -0.06385,4.02308 2.902659,5.95736 8.63178,5.37105 9.344045,-0.92287 18.546265,-1.48026 27.937565,-1.67782 v -20.33128 c -6.1221,0.0589 -11.38344,0.19085 -17.50097,0.40075 v 6.82943 c 1.98121,-0.0924 3.03777,-0.16757 5.02462,-0.24483 v 7.07002 c -3.4678,0.15593 -6.38846,0.35948 -9.865797,0.59866 -0.908405,0.06 -1.325741,-0.23918 -1.325741,-0.95991 v -23.23359 c 0,-0.60713 0.436034,-0.91158 1.330327,-0.92181 2.851151,-0.0473 5.425731,-0.0836 8.275481,-0.11465 0.89005,-0.007 1.25341,0.31433 1.25341,0.9973 v 4.06753 c 4.29296,-0.0769 8.60251,-0.13264 12.89229,-0.16192 l 0.0208,-5.70019 c 0.007,-3.72745 -3.18948,-5.96406 -8.84769,-5.96406" style="fill:#ea0029;fill-opacity:1;fill-rule:nonzero;stroke:none;stroke-width:0.352778" id="path32-4"></path>
    <path d="m 185.94918,55.997495 v 9.93669 c 0,0.73589 -0.41206,1.1624 -1.30071,1.09467 -3.23885,-0.24166 -5.82754,-0.46461 -9.07839,-0.67769 v -11.89708 c 3.24626,0.0794 5.79967,0.17216 9.03922,0.25294 0.89713,0.0342 1.33987,0.42863 1.33987,1.29047 m 12.9004,13.10322 v -14.79797 c -0.0857,-4.44465 -3.74687,-7.09224 -9.40474,-7.09542 h -31.40008 c 0.54929,0.23037 4.79532,1.59879 4.79532,5.64833 l 0.0134,33.68922 c 4.16491,0.40216 8.5704,0.89111 12.71661,1.43792 v -14.6805 c 2.08563,0.17428 4.29471,0.36478 6.38105,0.56798 2.21261,5.20982 3.86114,10.36425 6.06849,15.85383 4.18359,0.71049 8.73902,1.67181 12.90074,2.53188 -2.31881,-5.9316 -4.63902,-11.69387 -6.96736,-17.28152 3.17571,-0.58843 4.94772,-2.70439 4.89656,-5.87375" style="fill:#ea0029;fill-opacity:1;fill-rule:nonzero;stroke:none;stroke-width:0.35269;stroke-miterlimit:0;stroke-dasharray:none" id="path36-2"></path>
    <path d="m 18.083686,56.959165 c 5.045436,-0.27764 9.846396,-0.54434 14.906296,-0.78211 v 41.279582 c 4.153259,-1.12536 8.703748,-2.179462 12.889816,-3.164412 v -38.69055 c 3.026838,-0.127 6.556737,-0.24624 9.578637,-0.35348 v -8.04087 H 10.645 c 2.490264,3.39302 4.967826,6.64245 7.438686,9.75184" style="fill:#ea0029;fill-opacity:1;fill-rule:nonzero;stroke:none;stroke-width:0.352778" id="path40-4"></path>
    <path d="m 233.2955,70.104615 c -3.87033,-1.73461 -12.7494,-5.77215 -15.49014,-7.04427 -1.0033,-0.47237 -1.3762,-1.27776 -1.3762,-1.82844 v -4.06189 c -0.0134,-0.86219 0.43145,-1.28411 1.31517,-1.23931 6.58708,0.29704 14.28893,0.62901 20.85096,0.99413 l 7.5357,-9.71726 h -47.15587 c 0.64841,0.34995 4.88456,1.80516 4.88456,6.58742 0,0 0.0349,5.12939 0.0349,7.86518 0,2.74285 1.41639,4.94735 4.84258,6.5151 3.41631,1.56563 14.53482,6.33589 15.38431,6.79661 1.10914,0.58808 1.29541,1.16488 1.29541,2.79894 v 10.08486 c 0.005,1.37054 -0.9832,1.14935 -1.30493,1.07633 -2.25955,-0.51188 -4.13562,-0.89535 -6.40822,-1.37513 -0.32138,-0.0681 -1.12924,-0.28646 -1.14512,-1.58821 v -6.67173 c -4.09717,-0.68368 -8.2716,-1.32468 -12.38428,-1.90676 v 7.6835 c 0.079,4.93465 3.64703,8.59931 9.29324,10.00583 5.30614,1.298222 10.40625,2.712512 15.65207,4.255912 5.58449,1.688753 8.83499,-0.6163 8.82439,-6.600122 0.04,-0.15028 -0.0102,-15.05867 -0.0102,-15.05867 -0.0102,-3.4798 -0.76835,-5.82224 -4.63868,-7.57202" style="fill:#ea0029;fill-opacity:1;fill-rule:nonzero;stroke:none;stroke-width:0.352778" id="path44-5"></path>
    <path d="m 62.157379,53.480845 v 37.36693 c 4.265795,-0.78105 8.602852,-1.50037 12.897222,-2.13572 V 47.207395 H 57.547624 c 1.162404,0.34043 4.609755,2.26589 4.609755,6.27345" style="fill:#ea0029;fill-opacity:1;fill-rule:nonzero;stroke:none;stroke-width:0.352778" id="path48-4"></path>
    <path d="m 121.23622,47.207465 c 0.64135,0.29387 4.90186,1.64536 4.90186,5.40138 -0.0115,10.73468 -0.0115,21.46406 -0.0176,32.19239 10.05489,-0.0508 19.93832,0.33161 29.96288,1.11654 v -6.86612 c -5.83073,-0.38241 -11.58525,-0.64487 -17.42831,-0.78175 v -8.61801 c 5.18055,0.10336 10.34311,0.21802 15.51448,0.44238 v -7.06543 c -5.16255,-0.15663 -10.35298,-0.27517 -15.51448,-0.33091 0.0137,-8.5672 0,-8.5672 0,-8.7831 5.7845,0.0413 11.21235,0.0942 16.99157,0.17427 v -6.88164 z" style="fill:#ea0029;fill-opacity:1;fill-rule:nonzero;stroke:none;stroke-width:0.352778" id="path52-9"></path>
    <path d="m 85.248661,113.11648 c 0.414868,-0.054 0.710848,-0.19403 0.883709,-0.42086 0.168981,-0.21908 0.25506,-0.50659 0.25506,-0.85196 0,-0.39405 -0.09737,-0.67345 -0.309386,-0.82056 -0.200732,-0.14111 -0.4759,-0.19368 -0.829383,-0.1517 -0.592668,0.0825 -1.188158,0.16369 -1.784353,0.24483 v 2.23449 c 0.596195,-0.0797 1.191685,-0.15769 1.784353,-0.23424 m -0.230011,-3.53871 c 0.413455,-0.0572 0.708379,-0.19403 0.878418,-0.40887 0.17533,-0.21343 0.261761,-0.48825 0.261761,-0.8248 -0.006,-0.39546 -0.09843,-0.66287 -0.29457,-0.80292 -0.197204,-0.14111 -0.47872,-0.1845 -0.845609,-0.13511 -0.519996,0.0663 -1.028702,0.13511 -1.554342,0.2106 v 2.17276 c 0.52564,-0.0705 1.034346,-0.14605 1.554342,-0.21166 m 0.03316,-3.50309 c 0.490008,-0.066 0.895351,-0.0734 1.238252,-0.0212 0.343606,0.0529 0.612423,0.16227 0.834673,0.3309 0.209904,0.17569 0.375709,0.40287 0.464256,0.69109 0.09207,0.28681 0.144287,0.63994 0.144287,1.0594 0,0.3683 -0.05891,0.69708 -0.164747,0.97648 -0.109715,0.27235 -0.278696,0.514 -0.502004,0.73378 0.279047,0.11254 0.502004,0.30657 0.660754,0.58279 0.155927,0.27658 0.23495,0.68227 0.23495,1.21885 0,0.4505 -0.05786,0.82973 -0.1905,1.15676 -0.117828,0.32455 -0.312915,0.59831 -0.547159,0.82373 -0.242359,0.22543 -0.536224,0.40746 -0.881241,0.53799 -0.341137,0.1337 -0.733426,0.23142 -1.165579,0.28857 -1.078091,0.1397 -2.155829,0.28963 -3.234272,0.43709 v -8.39082 c 1.031876,-0.14428 2.072572,-0.28716 3.10833,-0.42545" style="fill:#ffffff;fill-opacity:1;fill-rule:nonzero;stroke:none;stroke-width:0.352778" id="path56-2"></path>
    <path d="m 91.883927,110.2884 c 0.673102,-0.0751 1.358197,-0.15205 2.032357,-0.22578 -0.335139,-1.03963 -0.667104,-2.08103 -1.008241,-3.12067 -0.337961,1.11196 -0.693562,2.22673 -1.024116,3.34645 m 2.467332,1.0608 c -0.96626,0.10054 -1.934989,0.20602 -2.89384,0.31539 -0.215196,0.69426 -0.425451,1.38888 -0.63359,2.08738 -0.542926,0.0631 -1.077386,0.12771 -1.614666,0.18909 0.901348,-2.90618 1.815749,-5.80637 2.713923,-8.70761 0.652993,-0.0723 1.313747,-0.14147 1.965328,-0.21202 0.900997,2.69875 1.805873,5.41267 2.707222,8.11883 -0.536576,0.0526 -1.071388,0.10548 -1.606906,0.16545 -0.221898,-0.65546 -0.425804,-1.30704 -0.637471,-1.95651" style="fill:#ffffff;fill-opacity:1;fill-rule:nonzero;stroke:none;stroke-width:0.352778" id="path60-6"></path>
    <path d="m 103.14355,105.73672 c -0.44485,-0.0797 -0.87383,-0.12347 -1.27423,-0.13088 -0.40076,-0.0166 -0.77082,0 -1.12007,0.0208 -0.19509,0.0215 -0.38383,0.0427 -0.56021,0.0829 -0.18239,0.0303 -0.331615,0.0917 -0.471315,0.17744 -0.138289,0.0751 -0.242005,0.18451 -0.31997,0.30974 -0.08643,0.13194 -0.122414,0.30022 -0.122414,0.50906 -0.0078,0.19544 0.02575,0.34713 0.0889,0.46743 0.05468,0.11853 0.151341,0.21343 0.283634,0.28716 0.136172,0.0808 0.305153,0.14111 0.522465,0.18768 0.20814,0.0508 0.46955,0.0935 0.7747,0.1457 0.42722,0.0765 0.7994,0.16227 1.12536,0.25823 0.33267,0.0917 0.6036,0.22719 0.82444,0.39546 0.2159,0.16828 0.38488,0.3743 0.50236,0.62195 0.11042,0.25259 0.17674,0.56057 0.17674,0.92745 0,0.88512 -0.2734,1.55822 -0.81562,2.03624 -0.53658,0.47766 -1.28976,0.74189 -2.23908,0.81103 -0.41487,0.0229 -0.854784,0.0229 -1.322569,-0.009 -0.463903,-0.03 -0.92181,-0.0871 -1.366311,-0.18027 v -1.23542 c 0.513999,0.0561 0.986721,0.0903 1.41817,0.10371 0.423687,0.0258 0.84138,0.0166 1.26118,-0.0166 0.50836,-0.0448 0.88936,-0.17568 1.1169,-0.38417 0.24271,-0.21061 0.35313,-0.53693 0.35313,-0.97402 0,-0.16228 -0.0395,-0.29316 -0.10689,-0.39829 -0.0617,-0.10971 -0.16193,-0.19685 -0.29881,-0.26917 -0.12982,-0.0705 -0.30762,-0.12453 -0.50906,-0.16369 -0.20037,-0.042 -0.4579,-0.0857 -0.72707,-0.1277 -0.424393,-0.0674 -0.796928,-0.1517 -1.13383,-0.26282 -0.334787,-0.10689 -0.609954,-0.254 -0.83785,-0.43145 -0.230363,-0.17568 -0.390877,-0.39828 -0.517173,-0.66251 -0.107596,-0.25859 -0.179564,-0.58456 -0.179564,-0.97226 0,-0.71967 0.233539,-1.30598 0.710496,-1.75507 0.469901,-0.45085 1.214263,-0.71261 2.259901,-0.80398 0.36653,-0.0332 0.77082,-0.0346 1.19486,-0.0106 0.43497,0.024 0.87136,0.10195 1.3088,0.20143 z" style="fill:#ffffff;fill-opacity:1;fill-rule:nonzero;stroke:none;stroke-width:0.352778" id="path64-2"></path>
    <path d="m 105.3367,104.01901 c 1.8909,-0.13229 3.78637,-0.24624 5.68009,-0.35313 -0.005,0.44803 -0.005,0.89429 0,1.33914 -1.35855,0.0751 -2.72486,0.1517 -4.08306,0.24307 v 2.14594 c 1.3134,-0.0811 2.62645,-0.16086 3.94159,-0.23142 -0.17074,0.45544 -0.34889,0.9137 -0.52317,1.36737 -1.1363,0.0663 -2.28035,0.1277 -3.41842,0.20743 v 2.22427 c 1.3582,-0.0889 2.72451,-0.16687 4.08306,-0.23742 -0.005,0.44309 -0.005,0.89252 0,1.3402 -1.89372,0.0945 -3.78919,0.21484 -5.68009,0.34713 z" style="fill:#ffffff;fill-opacity:1;fill-rule:nonzero;stroke:none;stroke-width:0.352778" id="path68-8"></path>
    <path d="m 116.2334,110.50028 c 0.41838,-0.0106 0.7112,-0.12771 0.88052,-0.33055 0.17286,-0.21202 0.26354,-0.47943 0.26354,-0.83115 0,-0.39969 -0.0981,-0.68333 -0.3108,-0.85054 -0.20039,-0.16052 -0.4879,-0.2406 -0.83326,-0.22402 -0.60255,0.0229 -1.19663,0.0452 -1.79919,0.0649 v 2.24014 c 0.60256,-0.0222 1.19664,-0.0466 1.79919,-0.0688 m -0.23742,-3.55706 c 0.41875,-0.0166 0.71295,-0.12488 0.88935,-0.32914 0.16898,-0.19226 0.2554,-0.46567 0.2554,-0.79763 0,-0.39088 -0.0903,-0.67028 -0.29456,-0.82656 -0.19439,-0.16228 -0.47519,-0.23283 -0.85019,-0.22084 -0.52141,0.0208 -1.03682,0.0388 -1.56177,0.0632 v 2.16958 c 0.52495,-0.0212 1.04036,-0.0434 1.56177,-0.0586 m 0.0423,-3.5059 c 0.48156,-0.0162 0.89324,0.0212 1.24108,0.10265 0.33832,0.0808 0.62689,0.22367 0.84208,0.41275 0.20955,0.18839 0.37183,0.43004 0.46531,0.72779 0.0968,0.30021 0.14076,0.65475 0.14076,1.07103 0,0.37571 -0.0504,0.69885 -0.16157,0.96485 -0.11077,0.26423 -0.28222,0.49142 -0.5027,0.68368 0.28681,0.14111 0.5027,0.36512 0.65934,0.65229 0.15981,0.2868 0.24059,0.70026 0.24059,1.23507 0,0.45261 -0.0639,0.82338 -0.18908,1.14053 -0.12877,0.31433 -0.31398,0.56656 -0.55529,0.76976 -0.24765,0.20708 -0.54116,0.35737 -0.89075,0.46249 -0.34537,0.0977 -0.7352,0.15628 -1.16135,0.17004 -1.09079,0.042 -2.18264,0.0885 -3.26637,0.13794 v -8.394 c 1.04597,-0.0554 2.08562,-0.0945 3.13795,-0.13687" style="fill:#ffffff;fill-opacity:1;fill-rule:nonzero;stroke:none;stroke-width:0.352778" id="path72-7"></path>
    <path d="m 122.90381,108.30159 c 0.67979,-0.0116 1.35925,-0.0222 2.04716,-0.0332 -0.34642,-1.0728 -0.67838,-2.14418 -1.02552,-3.22016 -0.34185,1.08515 -0.68792,2.16712 -1.02164,3.25332 m 2.4705,1.29081 c -0.96556,0.0106 -1.93182,0.0286 -2.9069,0.0378 -0.21096,0.68051 -0.42333,1.36137 -0.63394,2.03765 -0.54257,0.009 -1.08514,0.0222 -1.61996,0.0332 0.90629,-2.81623 1.82387,-5.62928 2.73087,-8.45114 0.65474,-0.008 1.31445,-0.0152 1.96602,-0.0243 0.90982,2.79046 1.80905,5.58129 2.72487,8.37917 -0.54117,0 -1.08374,0 -1.62666,0.006 -0.2085,-0.67452 -0.41664,-1.34515 -0.6343,-2.01825" style="fill:#ffffff;fill-opacity:1;fill-rule:nonzero;stroke:none;stroke-width:0.352778" id="path76-6"></path>
    <path d="m 128.94894,111.60476 v -8.40316 c 0.53164,0 1.06575,0.012 1.60303,0.012 v 7.0552 c 1.27459,0.006 2.54177,0.0272 3.822,0.0497 -0.17886,0.43886 -0.35172,0.88477 -0.52282,1.32821 -1.63336,-0.0254 -3.26462,-0.042 -4.90221,-0.042" style="fill:#ffffff;fill-opacity:1;fill-rule:nonzero;stroke:none;stroke-width:0.352778" id="path80-0"></path>
    <path d="m 135.78571,111.67676 v -8.39399 c 0.53022,0.018 1.05552,0.03 1.59138,0.048 v 7.0492 c 1.27812,0.0346 2.54918,0.0797 3.81884,0.12629 -0.17004,0.4445 -0.34044,0.88054 -0.51612,1.31939 -1.63195,-0.054 -3.2692,-0.1083 -4.8941,-0.14887" style="fill:#ffffff;fill-opacity:1;fill-rule:nonzero;stroke:none;stroke-width:0.352778" id="path84-1"></path>
    <path d="m 152.05593,112.07501 c -0.43357,0.10231 -0.87455,0.17286 -1.29541,0.21943 -0.42898,0.0526 -0.84737,0.06 -1.24566,0.0377 -0.60713,-0.0423 -1.11479,-0.17462 -1.54164,-0.41345 -0.42616,-0.24342 -0.76553,-0.55633 -1.03259,-0.94968 -0.26211,-0.40005 -0.45755,-0.85795 -0.57678,-1.3843 -0.12136,-0.52246 -0.18345,-1.09502 -0.18345,-1.72332 0,-0.65369 0.0621,-1.24742 0.18345,-1.76389 0.11923,-0.52317 0.30939,-0.95567 0.57678,-1.31515 0.26706,-0.34996 0.60643,-0.61772 1.03259,-0.78564 0.42685,-0.17145 0.94791,-0.23918 1.54164,-0.20179 0.44556,0.0303 0.8703,0.0935 1.2693,0.18345 0.39193,0.0903 0.82444,0.22683 1.27177,0.40428 v 1.2065 c -0.24801,-0.0628 -0.46814,-0.12594 -0.66993,-0.18133 -0.20462,-0.0469 -0.39829,-0.0949 -0.58174,-0.13229 -0.17885,-0.0318 -0.36054,-0.0575 -0.53798,-0.0797 -0.17816,-0.0166 -0.37042,-0.0391 -0.56727,-0.0497 -0.67628,-0.0406 -1.1691,0.18345 -1.45627,0.67028 -0.29456,0.49742 -0.43886,1.20685 -0.43886,2.13677 0,0.44627 0.0272,0.85337 0.10548,1.21568 0.0639,0.36653 0.17321,0.6865 0.33338,0.94227 0.15733,0.26881 0.35701,0.47448 0.59972,0.63112 0.23602,0.1531 0.52212,0.24165 0.86643,0.25999 0.18697,0.0134 0.37076,0.0134 0.53693,0.0134 0.18062,0 0.35489,0 0.54469,-0.0134 0.18132,-0.0183 0.37147,-0.0363 0.58173,-0.0603 0.20214,-0.0222 0.43568,-0.0522 0.68369,-0.10231 z" style="fill:#ffffff;fill-opacity:1;fill-rule:nonzero;stroke:none;stroke-width:0.352778" id="path88-8"></path>
    <path d="m 153.72678,112.56939 v -8.39541 c 0.52176,0.0388 1.04776,0.0825 1.59244,0.12736 v 7.05414 c 1.26506,0.10619 2.53789,0.21625 3.81142,0.3302 -0.18098,0.43004 -0.35101,0.86395 -0.52211,1.29082 -1.63195,-0.1517 -3.26567,-0.28364 -4.88175,-0.40711" style="fill:#ffffff;fill-opacity:1;fill-rule:nonzero;stroke:none;stroke-width:0.352778" id="path92-0"></path>
    <path d="m 162.18796,110.57983 c 0,0.53058 0.14252,0.91687 0.4258,1.15852 0.28434,0.25259 0.64629,0.39829 1.10984,0.44027 0.48331,0.0554 0.86184,-0.009 1.14265,-0.19403 0.28116,-0.1845 0.42086,-0.54222 0.42086,-1.07421 v -5.6455 c 0.53481,0.0572 1.06786,0.12136 1.61467,0.18803 v 5.65432 c 0,0.50342 -0.0824,0.93028 -0.21025,1.27 -0.14394,0.33796 -0.34891,0.60078 -0.61631,0.79481 -0.27339,0.19509 -0.61242,0.31397 -0.99977,0.36971 -0.39194,0.0628 -0.84244,0.0628 -1.35185,0.003 -0.50341,-0.0511 -0.95567,-0.14887 -1.34585,-0.2868 -0.37853,-0.14147 -0.71367,-0.33514 -0.97437,-0.58597 -0.26071,-0.25259 -0.47202,-0.56233 -0.60043,-0.93345 -0.12983,-0.36054 -0.20426,-0.80221 -0.20426,-1.31057 v -5.65291 c 0.52952,0.0526 1.06539,0.10231 1.58927,0.15487 z" style="fill:#ffffff;fill-opacity:1;fill-rule:nonzero;stroke:none;stroke-width:0.352778" id="path96-6"></path>
    <path d="m 172.29724,113.19296 c 0.40994,0.0526 0.70627,-0.006 0.8749,-0.18344 0.17391,-0.17428 0.26351,-0.43886 0.26351,-0.78282 0,-0.40111 -0.103,-0.70308 -0.30796,-0.9017 -0.21132,-0.19967 -0.48542,-0.32279 -0.83045,-0.37112 -0.59513,-0.0825 -1.19627,-0.1591 -1.79211,-0.23601 v 2.23908 c 0.59584,0.0737 1.19698,0.15946 1.79211,0.23601 m -0.23388,-3.60045 c 0.40956,0.0572 0.70943,0 0.87595,-0.17251 0.17427,-0.16404 0.26034,-0.41486 0.26034,-0.762 0.006,-0.38946 -0.0924,-0.68086 -0.28787,-0.8763 -0.19755,-0.18626 -0.47696,-0.30938 -0.84842,-0.3563 -0.52282,-0.072 -1.03824,-0.13935 -1.55823,-0.2025 v 2.171 c 0.51999,0.0663 1.03541,0.13405 1.55823,0.19861 m 0.036,-3.49497 c 0.48613,0.0706 0.89042,0.17251 1.23756,0.31538 0.33866,0.1397 0.6223,0.33056 0.83043,0.54998 0.20814,0.22543 0.37113,0.49742 0.46497,0.80998 0.097,0.3168 0.14146,0.68369 0.14781,1.09538 0,0.37853 -0.0649,0.68968 -0.16757,0.93627 -0.11642,0.24624 -0.27799,0.44909 -0.50236,0.59478 0.28611,0.20144 0.50236,0.45226 0.66358,0.768 0.14993,0.31715 0.22647,0.73942 0.22647,1.28199 0,0.4445 -0.06,0.80963 -0.18167,1.10138 -0.12841,0.28998 -0.31256,0.51258 -0.55139,0.67909 -0.24483,0.16687 -0.5394,0.27058 -0.88583,0.30516 -0.33902,0.042 -0.73096,0.0346 -1.1557,-0.0258 -1.07879,-0.14252 -2.16077,-0.28363 -3.24944,-0.41592 v -8.394 c 1.0414,0.12771 2.08493,0.26282 3.12314,0.39829" style="fill:#ffffff;fill-opacity:1;fill-rule:nonzero;stroke:none;stroke-width:0.352778" id="path100-5"></path>
    <path d="M 70.604765,38.446865 V 13.10931 l 16.01404,-4e-6 11.31282,25.33754 h 60.447605 l 11.81935,-25.33754 15.98007,4e-6 v 25.337555 h 7.93961 V 5.1696938 H 62.665505 V 38.446865 Z" style="fill:#06141f;fill-opacity:1;fill-rule:nonzero;stroke:none;stroke-width:0.352778" id="path28-7-0"></path>
    <path style="fill:#ffffff;fill-opacity:1;fill-rule:nonzero;stroke:none;stroke-width:0.389441" d="m 133.01873,29.493813 c 0,0.09969 0.0312,0.157367 0.089,0.157367 0.0473,-0.0054 0.0892,-0.02628 0.12584,-0.05244 l 16.34294,-10.609713 c 0.27614,-0.193099 0.60695,-0.292365 0.94375,-0.28318 h 3.59159 c 0.55046,0 0.92275,0.367113 0.92275,0.917755 v 6.859841 c 0,0.828657 -0.18352,1.311186 -0.91751,1.751655 l -4.35705,2.622292 c -0.0434,0.03012 -0.094,0.04825 -0.1468,0.05245 -0.0525,0 -0.10487,-0.04195 -0.10487,-0.194015 v -8.003168 c 0,-0.09438 -0.0264,-0.157364 -0.0891,-0.157364 -0.0461,0.0055 -0.0895,0.02341 -0.12591,0.05245 l -11.94384,7.761946 c -0.27269,0.183516 -0.59251,0.283182 -0.9176,0.277937 h -7.91717 c -0.55573,0 -0.92273,-0.367112 -0.92273,-0.923085 v -9.885887 c 0,-0.07342 -0.0314,-0.141624 -0.0943,-0.141624 -0.046,0.0054 -0.0893,0.02396 -0.12579,0.05245 l -7.8805,4.730582 c -0.0785,0.05243 -0.0995,0.0892 -0.0995,0.125814 0,0.03147 0.0159,0.06292 0.0682,0.120646 l 5.63117,5.627429 c 0.0733,0.07331 0.12583,0.131059 0.12583,0.194015 0,0.05243 -0.0838,0.09439 -0.18352,0.09439 h -5.08586 c -0.39853,0 -0.70787,-0.05774 -0.92286,-0.272694 l -3.41333,-3.408986 c -0.0263,-0.03134 -0.0641,-0.05035 -0.10486,-0.05244 -0.0371,0.0022 -0.073,0.01259 -0.10483,0.03146 l -5.70456,3.429969 c -0.34606,0.20975 -0.58203,0.267452 -0.92284,0.267452 h -5.24842 c -0.56096,0.0054 -0.92801,-0.367123 -0.92801,-0.91784 v -6.728732 c 0,-0.833909 0.18352,-1.311182 0.92275,-1.751663 l 4.38332,-2.632779 c 0.0345,-0.02251 0.0743,-0.03521 0.11539,-0.03675 0.0682,0 0.10486,0.06822 0.10486,0.220234 v 9.010182 c 0,0.09439 0.0209,0.136305 0.0891,0.136305 0.0472,-0.0054 0.0891,-0.02628 0.13106,-0.05244 l 14.80661,-8.910432 c 0.28321,-0.194093 0.62926,-0.288435 0.97529,-0.272692 h 7.96958 c 0.55055,0 0.92285,0.367114 0.92285,0.917754 l -0.005,9.875479 z m 0,0" id="path121-6-6-4-3"></path>
  </g>
</svg>
