
<svg id="master-artboard" viewBox="0 0 602.4720458984375 923.7195434570312" version="1.1" xmlns="http://www.w3.org/2000/svg" x="0px" y="0px" style="enable-background:new 0 0 1400 980" width="602.4720458984375px" height="923.7195434570312px"><defs><style id="ee-google-fonts">@import url(https://fonts.googleapis.com/css?family=Rubik:300,300italic,400,400italic,500,500italic,700,700italic,900,900italic);</style><clipPath clipPathUnits="userSpaceOnUse" id="clipPath23"><path d="M 0,617.953 H 864.567 V 0 H 0 Z" id="path21"></path></clipPath></defs><rect id="ee-background" x="0" y="0" width="602.4720458984375" height="923.7195434570312" style="fill:rgb(17, 69, 64);fill-opacity:0;pointer-events:none"></rect>








































<g transform="matrix(3.9893174171447754, 0, 0, 3.9893174171447754, -1991.5388906002045, -721.4952754974365)"><g id="g15" transform="matrix(1.3333333,0,0,-1.3333333,0,823.93733)"><g id="g17"><g id="g19" clip-path="url(#clipPath23)"><g id="g25" transform="translate(182.0396,127.4414)"><path d="m 0,0 v -14.257 h 3.144 c 4.776,0 7.585,2.688 7.585,7.609 C 10.729,-2.736 8.017,0 3.36,0 Z m -1.416,1.271 h 4.728 c 6.433,0 8.881,-3.983 8.881,-7.967 0,-5.353 -3.169,-8.833 -8.977,-8.833 h -4.632 z" style="fill:#002f6d;fill-opacity:1;fill-rule:nonzero;stroke:none" id="path27"></path></g><g id="g29" transform="translate(209.8564,111.9121)"><path d="m 0,0 -5.448,16.802 h 1.296 C -2.28,11.257 -0.336,5.545 1.536,0 Z m -1.488,4.992 h -7.585 v 1.177 h 7.585 z M -4.392,16.802 -10.777,0 h -1.224 c 2.088,5.545 4.249,11.257 6.336,16.802 z" style="fill:#002f6d;fill-opacity:1;fill-rule:nonzero;stroke:none" id="path31"></path></g><g id="g33" transform="translate(223.4873,128.7139)"><path d="m 0,0 v -1.272 h -6.816 v -6.025 h 6.528 v -1.272 h -6.528 v -6.96 h 7.224 v -1.273 h -8.64 V 0 Z" style="fill:#002f6d;fill-opacity:1;fill-rule:nonzero;stroke:none" id="path35"></path></g><g id="g37" transform="translate(229.2227,128.7139)"><path d="m 0,0 h 1.44 v -16.395 c 0,-2.951 -1.584,-4.655 -3.768,-4.991 v 1.272 C -0.72,-19.706 0,-18.194 0,-16.395 Z" style="fill:#002f6d;fill-opacity:1;fill-rule:nonzero;stroke:none" id="path39"></path></g><g id="g41" transform="translate(244.2231,128.7139)"><path d="m 0,0 v -1.272 h -6.816 v -6.025 h 6.528 v -1.272 h -6.528 v -6.96 h 7.224 v -1.273 h -8.64 V 0 Z" style="fill:#002f6d;fill-opacity:1;fill-rule:nonzero;stroke:none" id="path43"></path></g><g id="g45" transform="translate(250.27,120.3125)"><path d="m 0,0 c 0,-4.32 2.953,-7.32 6.121,-7.32 3.072,0 6.024,3 6.024,7.32 0,4.32 -2.952,7.321 -6.024,7.321 C 2.953,7.321 0,4.32 0,0 m -1.464,0 c 0,4.944 3.312,8.641 7.585,8.641 4.176,0 7.488,-3.697 7.488,-8.641 0,-4.944 -3.312,-8.641 -7.488,-8.641 -4.273,0 -7.585,3.697 -7.585,8.641" style="fill:#002f6d;fill-opacity:1;fill-rule:nonzero;stroke:none" id="path47"></path></g><g id="g49" transform="translate(282.4561,128.7139)"><path d="m 0,0 v -16.802 h -1.44 l -10.801,14.881 v -14.881 h -1.296 V 0 h 1.32 L -1.368,-14.882 V 0 Z" style="fill:#002f6d;fill-opacity:1;fill-rule:nonzero;stroke:none" id="path51"></path></g><g id="g53" transform="translate(309.623,128.7139)"><path d="m 0,0 v -16.802 h -1.416 v 8.593 h -9.409 v -8.593 h -1.416 V 0 h 1.416 v -6.937 h 9.409 V 0 Z" style="fill:#002f6d;fill-opacity:1;fill-rule:nonzero;stroke:none" id="path55"></path></g><g id="g57" transform="translate(325.4863,111.9121)"><path d="m 0,0 -5.448,16.802 h 1.296 C -2.28,11.257 -0.336,5.545 1.536,0 Z m -1.488,4.992 h -7.585 v 1.177 h 7.585 z M -4.392,16.802 -10.777,0 h -1.224 c 2.088,5.545 4.249,11.257 6.336,16.802 z" style="fill:#002f6d;fill-opacity:1;fill-rule:nonzero;stroke:none" id="path59"></path></g><g id="g61" transform="translate(344.4229,128.7139)"><path d="m 0,0 v -16.802 h -1.44 l -10.801,14.881 v -14.881 h -1.296 V 0 h 1.32 L -1.368,-14.882 V 0 Z" style="fill:#002f6d;fill-opacity:1;fill-rule:nonzero;stroke:none" id="path63"></path></g><g id="g65" transform="translate(360.3096,111.9121)"><path d="m 0,0 -5.448,16.802 h 1.296 C -2.28,11.257 -0.336,5.545 1.536,0 Z m -1.488,4.992 h -7.585 v 1.177 h 7.585 z M -4.392,16.802 -10.777,0 h -1.224 c 2.088,5.545 4.249,11.257 6.336,16.802 z" style="fill:#002f6d;fill-opacity:1;fill-rule:nonzero;stroke:none" id="path67"></path></g><g id="g69" transform="translate(378.2139,127.9932)"><path d="m 0,0 -0.312,-1.2 c -1.008,0.505 -2.256,0.888 -3.601,0.888 -4.344,0 -7.32,-3.072 -7.32,-7.296 0,-4.584 3.312,-7.417 7.369,-7.417 1.344,0 2.496,0.337 3.456,0.768 0.096,-0.384 0.216,-0.84 0.312,-1.224 -1.128,-0.552 -2.784,-0.84 -3.985,-0.84 -5.04,0 -8.688,3.456 -8.688,8.713 0,4.753 3.504,8.568 8.905,8.568 C -2.496,0.96 -0.96,0.553 0,0" style="fill:#002f6d;fill-opacity:1;fill-rule:nonzero;stroke:none" id="path71"></path></g><path d="m 384.165,111.912 h -1.416 v 16.802 h 1.416 z" style="fill:#002f6d;fill-opacity:1;fill-rule:nonzero;stroke:none" id="path73"></path><g id="g75" transform="translate(395.0845,111.9121)"><path d="m 0,0 h -1.464 v 15.529 h -5.257 v 1.273 H 5.353 V 15.529 H 0 Z" style="fill:#002f6d;fill-opacity:1;fill-rule:nonzero;stroke:none" id="path77"></path></g><path d="m 406.005,111.912 h -1.416 v 16.802 h 1.416 z" style="fill:#002f6d;fill-opacity:1;fill-rule:nonzero;stroke:none" id="path79"></path><g id="g81" transform="translate(421.8691,128.7139)"><path d="m 0,0 v -1.009 l -9.649,-14.64 h 9.936 v -1.153 h -11.424 v 1.153 l 9.529,14.472 h -9.074 V 0 Z" style="fill:#002f6d;fill-opacity:1;fill-rule:nonzero;stroke:none" id="path83"></path></g><g id="g85" transform="translate(435.0693,128.7139)"><path d="m 0,0 v -1.272 h -6.817 v -6.025 h 6.529 v -1.272 h -6.529 v -6.96 h 7.224 v -1.273 h -8.64 V 0 Z" style="fill:#002f6d;fill-opacity:1;fill-rule:nonzero;stroke:none" id="path87"></path></g><g id="g89" transform="translate(453.4531,128.7139)"><path d="m 0,0 v -16.802 h -1.439 l -10.802,14.881 v -14.881 h -1.296 V 0 h 1.32 L -1.368,-14.882 V 0 Z" style="fill:#002f6d;fill-opacity:1;fill-rule:nonzero;stroke:none" id="path91"></path></g><g id="g93" transform="translate(476.5879,128.7139)"><path d="m 0,0 v -1.272 h -6.793 v -6.385 h 6.528 v -1.272 h -6.528 v -7.873 H -8.209 V 0 Z" style="fill:#002f6d;fill-opacity:1;fill-rule:nonzero;stroke:none" id="path95"></path></g><g id="g97" transform="translate(493.5322,127.9932)"><path d="m 0,0 -0.312,-1.2 c -1.007,0.505 -2.255,0.888 -3.6,0.888 -4.344,0 -7.32,-3.072 -7.32,-7.296 0,-4.584 3.312,-7.417 7.368,-7.417 1.343,0 2.497,0.337 3.457,0.768 0.095,-0.384 0.216,-0.84 0.31,-1.224 -1.128,-0.552 -2.783,-0.84 -3.983,-0.84 -5.04,0 -8.69,3.456 -8.69,8.713 0,4.753 3.504,8.568 8.906,8.568 C -2.496,0.96 -0.96,0.553 0,0" style="fill:#002f6d;fill-opacity:1;fill-rule:nonzero;stroke:none" id="path99"></path></g><g id="g101" transform="translate(509.082,120.1211)"><path d="m 0,0 v -7.033 h 2.855 c 2.354,0 4.297,1.272 4.297,3.553 C 7.152,-0.937 4.993,0 2.593,0 Z m 0,7.416 v -6.24 h 2.377 c 2.686,0 4.08,1.272 4.08,3.36 0,1.729 -1.248,2.88 -3.48,2.88 z M 3.191,-8.209 H -1.416 V 8.593 h 4.824 c 2.615,0 4.488,-1.584 4.488,-3.864 0,-2.449 -1.417,-3.625 -2.784,-4.105 1.945,-0.36 3.553,-1.896 3.553,-4.081 0,-2.928 -1.992,-4.752 -5.474,-4.752" style="fill:#002f6d;fill-opacity:1;fill-rule:nonzero;stroke:none" id="path103"></path></g><g id="g105" transform="translate(524.2031,127.4414)"><path d="m 0,0 v -7.104 h 2.376 c 3.12,0 3.863,2.086 3.863,3.624 C 6.239,-1.128 4.704,0 2.664,0 Z m -1.394,-15.529 v 16.8 h 4.297 c 2.929,0 4.898,-2.087 4.898,-4.607 0,-2.257 -0.96,-3.696 -2.761,-4.608 1.319,-2.45 2.713,-5.137 4.031,-7.585 H 7.319 L 3.601,-8.377 H 0 v -7.152 z" style="fill:#002f6d;fill-opacity:1;fill-rule:nonzero;stroke:none" id="path107"></path></g><g id="g109" transform="translate(548.0117,111.9121)"><path d="m 0,0 -5.449,16.802 h 1.297 C -2.28,11.257 -0.336,5.545 1.535,0 Z m -1.488,4.992 h -7.585 v 1.177 h 7.585 z M -4.394,16.802 -10.777,0 h -1.224 c 2.088,5.545 4.248,11.257 6.336,16.802 z" style="fill:#002f6d;fill-opacity:1;fill-rule:nonzero;stroke:none" id="path111"></path></g><g id="g113" transform="translate(566.9473,128.7139)"><path d="m 0,0 v -16.802 h -1.439 l -10.802,14.881 v -14.881 h -1.296 V 0 h 1.32 L -1.368,-14.882 V 0 Z" style="fill:#002f6d;fill-opacity:1;fill-rule:nonzero;stroke:none" id="path115"></path></g><g id="g117" transform="translate(573.6895,127.4414)"><path d="m 0,0 v -14.257 h 3.145 c 4.776,0 7.584,2.688 7.584,7.609 C 10.729,-2.736 8.017,0 3.359,0 Z m -1.416,1.271 h 4.729 c 6.431,0 8.879,-3.983 8.879,-7.967 0,-5.353 -3.168,-8.833 -8.975,-8.833 h -4.633 z" style="fill:#002f6d;fill-opacity:1;fill-rule:nonzero;stroke:none" id="path119"></path></g><g id="g121" transform="translate(614.082,128.7139)"><path d="m 0,0 v -16.802 h -1.439 l -10.802,14.881 v -14.881 h -1.296 V 0 h 1.319 l 10.85,-14.882 0,14.882 z" style="fill:#002f6d;fill-opacity:1;fill-rule:nonzero;stroke:none" id="path123"></path></g><g id="g125" transform="translate(627.6416,128.7139)"><path d="m 0,0 v -1.272 h -6.817 v -6.025 h 6.529 v -1.272 h -6.529 v -6.96 h 7.223 v -1.273 H -8.233 V 0 Z" style="fill:#002f6d;fill-opacity:1;fill-rule:nonzero;stroke:none" id="path127"></path></g><g id="g129" transform="translate(640.7217,128.7139)"><path d="M 0,0 H 1.774 L 6.071,-15.409 10.129,0 h 1.176 L 6.912,-16.802 H 5.231 L 0.84,-1.416 -3.434,-16.802 H -5.113 L -9.697,0 h 1.391 l 4.057,-15.361 z" style="fill:#002f6d;fill-opacity:1;fill-rule:nonzero;stroke:none" id="path131"></path></g><g id="g133" transform="translate(677.9687,127.9932)"><path d="m 0,0 -0.312,-1.2 c -1.007,0.505 -2.255,0.888 -3.6,0.888 -4.345,0 -7.32,-3.072 -7.32,-7.296 0,-4.584 3.312,-7.417 7.368,-7.417 1.343,0 2.497,0.337 3.457,0.768 0.095,-0.384 0.216,-0.84 0.31,-1.224 -1.128,-0.552 -2.784,-0.84 -3.983,-0.84 -5.04,0 -8.69,3.456 -8.69,8.713 0,4.753 3.504,8.568 8.906,8.568 C -2.496,0.96 -0.96,0.553 0,0" style="fill:#002f6d;fill-opacity:1;fill-rule:nonzero;stroke:none" id="path135"></path></g><path d="m 683.92,111.912 h -1.416 v 16.802 h 1.416 z" style="fill:#002f6d;fill-opacity:1;fill-rule:nonzero;stroke:none" id="path137"></path><g id="g139" transform="translate(483.0273,403.6484)"><path d="m 0,0 c -15.065,9.18 -33.029,14.764 -42.397,17.275 l -2.648,0.71 c 10.107,3.865 15.425,21.011 6.199,29.257 1.575,2.322 1.642,5.07 1.257,7.504 2.972,4.757 0.057,8.108 -3.735,8.699 -2.057,3.9 -14.623,4.479 -10.731,0.668 -8.375,-4.237 -13.363,-10.445 -14.066,-11.804 -5.145,9.521 -18.877,18.282 -32.664,24.005 -0.566,-5.888 0.714,-10.554 8.102,-18.171 0.475,-7.323 5.287,-4.032 11.131,-11.348 8.361,-14.068 6.1,-23.795 19.835,-29.066 l -2.894,-0.797 C -73.708,13.881 -89.85,8.467 -103.742,0 l -2.962,-1.804 v -40.672 c 0,-16.803 9.534,-30.833 27.571,-40.567 12.938,-6.982 25.647,-9.278 26.182,-9.372 l 1.079,-0.192 1.082,0.192 c 0.533,0.095 13.246,2.395 26.18,9.374 18.036,9.734 27.569,23.762 27.569,40.565 v 40.671 z" style="fill:#ffe900;fill-opacity:1;fill-rule:nonzero;stroke:none" id="path141"></path></g><g id="g143" transform="translate(385.9404,396.4199)"><path d="m 0,0 v -35.247 c 0,-29.864 39.796,-39.218 45.216,-40.352 5.419,1.134 45.214,10.488 45.214,40.352 V 0 C 72.221,10.598 49.453,15.988 45.216,16.932 40.978,15.988 18.21,10.598 0,0" style="fill:#ffffff;fill-opacity:1;fill-rule:nonzero;stroke:none" id="path145"></path></g><g id="g147" transform="translate(433.9727,410.0674)"><path d="m 0,0 h -2.817 -2.818 l -2.027,-37.753 -37.754,-2.029 v -2.817 -2.816 l 37.754,-2.027 9.689,9.689 z" style="fill:#9f2943;fill-opacity:1;fill-rule:nonzero;stroke:none" id="path149"></path></g><g id="g151" transform="translate(436,372.3145)"><path d="m 0,0 -9.689,-9.689 2.027,-37.754 h 2.817 2.818 L 0,-9.689 37.754,-7.662 v 2.816 2.817 z" style="fill:#007d6f;fill-opacity:1;fill-rule:nonzero;stroke:none" id="path153"></path></g><g id="g155" transform="translate(403.4297,391.0645)"><path d="m 0,0 h 9.684 c 1.788,0 3.476,0 3.476,-5.029 0,-5.03 -1.688,-5.03 -3.476,-5.03 l -9.684,0 z M -4.131,-14.188 H 9.684 c 1.882,0 7.607,0 7.607,9.159 0,9.16 -5.725,9.16 -7.607,9.16 H -4.131 Z" style="fill:#002f6d;fill-opacity:1;fill-rule:nonzero;stroke:none" id="path157"></path></g><g id="g159" transform="translate(441.5908,348.9023)"><path d="m 0,0 c 0,-9.16 5.726,-9.16 7.605,-9.16 h 13.817 v 4.133 H 7.605 c -1.786,0 -3.475,0 -3.475,5.027 0,5.029 1.689,5.029 3.475,5.029 H 20.046 L 21.422,9.16 H 7.605 C 5.726,9.16 0,9.16 0,0" style="fill:#002f6d;fill-opacity:1;fill-rule:nonzero;stroke:none" id="path161"></path></g><g id="g163" transform="translate(463.0127,395.1953)"><path d="m 0,0 h -4.132 v -6.038 h -11.976 l 1.377,-4.131 h 10.599 v -8.15 H 0 Z" style="fill:#002f6d;fill-opacity:1;fill-rule:nonzero;stroke:none" id="path165"></path></g><path d="m 445.721,395.195 h -4.13 v -18.319 h 4.13 z" style="fill:#002f6d;fill-opacity:1;fill-rule:nonzero;stroke:none" id="path167"></path><g id="g169" transform="translate(405.9902,346.708)"><path d="M 0,0 H 12.438 V 4.13 H -1.377 Z" style="fill:#002f6d;fill-opacity:1;fill-rule:nonzero;stroke:none" id="path171"></path></g><g id="g173" transform="translate(403.4297,353.9316)"><path d="M 0,0 H 15.914 V 4.131 H -4.131 v -18.32 H 0 Z" style="fill:#002f6d;fill-opacity:1;fill-rule:nonzero;stroke:none" id="path175"></path></g><g id="g177" transform="translate(476.3701,361.1729)"><path d="M 0,0 C 0,-29.864 -39.795,-39.218 -45.214,-40.352 -50.634,-39.218 -90.43,-29.864 -90.43,0 v 35.247 c 18.21,10.598 40.978,15.988 45.216,16.932 C -40.977,51.235 -18.209,45.845 0,35.247 Z m -42.106,96.011 c 0.799,0.615 2.781,0.336 4.634,-0.866 -0.194,0.047 -0.394,0.083 -0.604,0.083 -1.364,0 -2.472,-1.108 -2.472,-2.473 0,-0.557 0.191,-1.064 0.5,-1.477 -3.838,1.858 -3.323,3.759 -2.058,4.733 M 5.233,40.143 c -17.664,10.764 -39.41,16.522 -47.007,18.314 v 3.911 c 0.693,0.198 9.764,2.259 11.571,12.824 1.383,8.077 -3.708,13.384 -7.635,15.115 1.252,0.122 2.234,1.165 2.234,2.448 0,0.349 -0.074,0.678 -0.205,0.979 0.577,-0.628 1.091,-1.363 1.478,-2.223 0,0 1.978,2.288 0.192,6.828 0,0 1.027,0.209 1.445,1.217 0.371,0.9 0.763,2.818 -1.627,3.545 -0.869,0.263 -1.722,-0.457 -2.717,1.378 -0.325,0.604 -0.825,1.152 -1.532,1.358 -2.21,0.644 -2.286,-0.898 -1.669,-2.479 0.131,-0.334 0.123,-0.712 0.113,-1.076 0,0 -2.569,0.397 -4.915,-0.926 -0.266,0.601 -0.476,1.396 -0.24,2.162 0,0 -3.12,-0.837 -2.602,-5.351 -2.208,-4.874 2.095,-8.703 2.095,-8.703 0,0 -6.137,0.307 -6.752,9.719 0,0 -6.594,-3.42 -3.375,-14.322 0.807,-2.736 3.73,-4.606 3.73,-4.606 0,0 -1.636,-0.818 -3.39,0.701 0,0 0,-4.677 6.664,-5.612 0,0 -1.676,-2.884 3.43,-2.553 0,0 -3.167,-2.095 -7.157,0.054 -3.989,2.146 -5.006,5.619 -6.55,13.346 -1.806,9.031 -9.207,18.925 -30.177,28.335 0,0 0.173,-4.449 5.759,-10.531 3.804,-4.141 7.926,-3.625 12.629,-8.925 0,0 -5.258,4.086 -9.083,2.724 0,0 11.87,-4.441 14.427,-17.332 2.558,-12.889 10.266,-17.009 16.978,-18.524 v -3.481 c -7.596,-1.792 -29.344,-7.55 -47.008,-18.314 l -1.651,-1.006 V 0 c 0,-15.737 9.038,-28.935 26.135,-38.163 12.508,-6.75 24.842,-8.995 25.362,-9.087 l 0.603,-0.107 0.603,0.107 c 0.519,0.092 12.852,2.337 25.359,9.089 17.1,9.226 26.137,22.424 26.137,38.161 v 39.137 z" style="fill:#002f6d;fill-opacity:1;fill-rule:nonzero;stroke:none" id="path179"></path></g><g id="g181" transform="translate(435.8848,442.7988)"><path d="m 0,0 c 0,0 -7.053,0.398 -9.449,7.053 0,0 6.786,-3.594 13.041,-1.864 0,0 5.985,-3.591 3.857,-12.907 0,0 -0.915,3.175 -2.644,4.374 0,0 -4.7,-1.289 -9.055,1.53 0,0 2.861,0.618 4.25,1.814" style="fill:#ffe900;fill-opacity:1;fill-rule:nonzero;stroke:none" id="path183"></path></g><g id="g185" transform="translate(392.1738,470.7549)"><path d="m 0,0 c 0,0 8.744,-3.77 15.619,-11.196 3.61,-3.898 6.562,-8.924 7.981,-15.2 l -4.789,5.59 c 0,0 -0.799,10.245 -14.372,15.168 0,0 -2.966,2.742 -4.439,5.638" style="fill:#ffe900;fill-opacity:1;fill-rule:nonzero;stroke:none" id="path187"></path></g><g id="g189" transform="translate(436.5557,462.0049)"><path d="M 0,0 C 4.636,-0.883 5.076,-4.488 5.076,-4.488 2.943,-1.472 2.5,-3.384 2.5,-3.384 c 0,0 -0.718,0.443 -1.341,1.145 C 0.107,-1.05 0,0 0,0" style="fill:#ffe900;fill-opacity:1;fill-rule:nonzero;stroke:none" id="path191"></path></g><g id="g193" transform="translate(374.4014,280.6514)"><path d="m 0,0 v 14.039 h 2.248 c 4.033,0 6.539,-2.452 6.539,-6.398 C 8.787,2.784 6.311,0 1.993,0 Z m 13.355,7.583 c 0,7.096 -6.014,9.613 -11.164,9.613 H -4.456 V -3.156 h 6.535 c 6.956,0 11.276,4.114 11.276,10.739" style="fill:#002f6d;fill-opacity:1;fill-rule:nonzero;stroke:none" id="path195"></path></g><g id="g197" transform="translate(397.5508,292.0049)"><path d="M 0,0 1.853,-5.961 H -2.184 Z M -3.301,-9.004 H 2.795 L 4.428,-14.302 4.49,-14.51 H 9.129 L 2.19,5.643 2.121,5.843 h -3.91 l -7.557,-19.955 -0.149,-0.398 h 4.188 z" style="fill:#002f6d;fill-opacity:1;fill-rule:nonzero;stroke:none" id="path199"></path></g><g id="g201" transform="translate(421.4805,280.6514)"><path d="m 0,0 h -7.933 v 5.935 h 7.146 v 3.157 h -7.146 v 4.947 h 7.343 v 3.157 H -12.389 V -3.156 l 12.389,0 z" style="fill:#002f6d;fill-opacity:1;fill-rule:nonzero;stroke:none" id="path203"></path></g><g id="g205" transform="translate(430.9824,278.7754)"><path d="M 0,0 V 19.072 H -4.458 V 0 c 0,-1.982 -0.84,-3.285 -2.304,-3.577 l -0.237,-0.048 v -3.021 h 0.294 C -3.373,-6.646 0,-4.363 0,0" style="fill:#002f6d;fill-opacity:1;fill-rule:nonzero;stroke:none" id="path207"></path></g><g id="g209" transform="translate(448.5791,280.6514)"><path d="m 0,0 h -7.933 v 5.935 h 7.144 v 3.157 h -7.144 v 4.947 h 7.343 v 3.157 H -12.389 V -3.156 l 12.389,0 z" style="fill:#002f6d;fill-opacity:1;fill-rule:nonzero;stroke:none" id="path211"></path></g><g id="g213" transform="translate(461.1992,294.8877)"><path d="m 0,0 c 2.905,0 5.183,-3.172 5.183,-7.217 0,-4.046 -2.278,-7.218 -5.183,-7.218 -2.892,0 -5.157,3.172 -5.157,7.218 C -5.157,-3.172 -2.892,0 0,0 m 0,-17.677 c 5.559,0 9.753,4.498 9.753,10.46 0,5.963 -4.194,10.458 -9.753,10.458 -5.546,0 -9.726,-4.495 -9.726,-10.458 0,-5.962 4.18,-10.46 9.726,-10.46" style="fill:#002f6d;fill-opacity:1;fill-rule:nonzero;stroke:none" id="path215"></path></g><g id="g217" transform="translate(488.1621,297.8477)"><path d="M 0,0 V -13.444 L -9.603,-0.122 -9.689,0 h -3.607 v -20.353 h 4.201 v 13.355 l 9.491,-13.231 0.087,-0.124 h 3.72 L 4.203,0 Z" style="fill:#002f6d;fill-opacity:1;fill-rule:nonzero;stroke:none" id="path219"></path></g><path d="m 369.946,271.946 h 52.248 v 0.315 h -52.248 z" style="fill:#002f6d;fill-opacity:1;fill-rule:nonzero;stroke:none" id="path221"></path><g id="g223" transform="translate(429.3584,271.9463)"><path d="M 0,0 H 63.007 V 0.315 H 0.409 C 0.274,0.208 0.14,0.1 0,0" style="fill:#002f6d;fill-opacity:1;fill-rule:nonzero;stroke:none" id="path225"></path></g><g id="g227" transform="translate(351.6924,259.1729)"><path d="m 0,0 h -7.229 v 7.476 h -4.336 v -19.805 h 4.336 V -3.07 H 0 v -9.259 H 4.335 V 7.476 L 0,7.476 Z" style="fill:#002f6d;fill-opacity:1;fill-rule:nonzero;stroke:none" id="path229"></path></g><g id="g231" transform="translate(365.4736,255.1631)"><path d="M 0,0 2.125,5.8 3.928,0 Z M 4.19,11.485 H 0.385 L -6.968,-7.933 -7.113,-8.319 h 4.075 l 1.951,5.356 h 5.932 l 1.589,-5.153 0.06,-0.203 h 4.514 L 4.257,11.29 Z" style="fill:#002f6d;fill-opacity:1;fill-rule:nonzero;stroke:none" id="path233"></path></g><g id="g235" transform="translate(391.7661,253.5654)"><path d="m 0,0 -9.344,12.962 -0.085,0.121 h -3.509 V -6.722 h 4.089 V 6.272 L 0.385,-6.601 0.47,-6.722 H 4.089 V 13.083 H 0 Z" style="fill:#002f6d;fill-opacity:1;fill-rule:nonzero;stroke:none" id="path237"></path></g><g id="g239" transform="translate(405.3018,255.1631)"><path d="M 0,0 2.125,5.8 3.928,0 Z M 4.189,11.485 H 0.384 L -6.968,-7.933 -7.114,-8.319 h 4.076 l 1.95,5.356 h 5.933 l 1.588,-5.153 0.06,-0.203 h 4.515 L 4.257,11.29 Z" style="fill:#002f6d;fill-opacity:1;fill-rule:nonzero;stroke:none" id="path241"></path></g><g id="g243" transform="translate(429.1621,263.8486)"><path d="M 0,0 C 1.654,0 3.532,-0.839 4.58,-1.617 L 4.931,-1.879 5.736,1.512 5.572,1.622 C 4.284,2.488 2,3.072 -0.111,3.072 c -7.389,0 -10.697,-5.069 -10.697,-10.092 0,-6.33 4.069,-10.26 10.617,-10.26 1.837,0 4.045,0.516 5.623,1.322 l 0.197,0.102 -0.741,3.334 -0.344,-0.219 c -1.437,-0.915 -3.071,-1.44 -4.489,-1.44 -3.78,0 -6.419,2.946 -6.419,7.161 C -6.364,-2.823 -3.807,0 0,0" style="fill:#002f6d;fill-opacity:1;fill-rule:nonzero;stroke:none" id="path245"></path></g><path d="m 438.091,246.844 h 4.336 v 19.805 h -4.336 z" style="fill:#002f6d;fill-opacity:1;fill-rule:nonzero;stroke:none" id="path247"></path><g id="g249" transform="translate(445.208,263.5732)"><path d="m 0,0 h 5.687 v -16.729 h 4.336 V 0 h 5.715 V 3.075 H 0 Z" style="fill:#002f6d;fill-opacity:1;fill-rule:nonzero;stroke:none" id="path251"></path></g><path d="m 463.733,246.844 h 4.335 v 19.805 h -4.335 z" style="fill:#002f6d;fill-opacity:1;fill-rule:nonzero;stroke:none" id="path253"></path><g id="g255" transform="translate(486.2412,264.6953)"><path d="m 0,0 0.046,0.068 v 1.885 h -14.335 v -2.964 h 9.1 l -9.546,-14.751 -0.047,-0.069 v -2.021 H 0.351 v 2.934 H -9.686 Z" style="fill:#002f6d;fill-opacity:1;fill-rule:nonzero;stroke:none" id="path257"></path></g><g id="g259" transform="translate(494.3193,255.6885)"><path d="M 0,0 H 6.952 V 3.071 H 0 V 7.885 H 7.145 V 10.96 H -4.336 V -8.845 H 7.719 v 3.072 l -7.719,0 z" style="fill:#002f6d;fill-opacity:1;fill-rule:nonzero;stroke:none" id="path261"></path></g><g id="g263" transform="translate(518.0957,253.5654)"><path d="m 0,0 -9.345,12.962 -0.085,0.121 h -3.509 V -6.722 h 4.09 V 6.272 L 0.385,-6.601 0.469,-6.722 H 4.088 V 13.083 H 0 Z" style="fill:#002f6d;fill-opacity:1;fill-rule:nonzero;stroke:none" id="path265"></path></g></g></g></g></g></svg>