
<svg id="master-artboard" viewBox="0 0 1135.411376953125 880.8655395507812" version="1.1" xmlns="http://www.w3.org/2000/svg" x="0px" y="0px" style="enable-background:new 0 0 1400 980" width="1135.411376953125px" height="880.8655395507812px"><defs><style id="ee-google-fonts">@import url(https://fonts.googleapis.com/css?family=Anton:400|Roboto+Slab:100,300,400,700);</style><path id="text-path-0" d="M 778.8464965820312 213.4612274169922 A 100 18 0 0 1 988.3533935546875 213.4612274169922 A 100 18 0 0 1 778.8464965820312 213.4612274169922 Z" style="fill:none;stroke:red;stroke-width:2"></path><path id="text-path-1" d="M 664.5464477539062 37.96122741699219 A 100 19 0 0 1 876.5812377929688 37.96122741699219 A 100 19 0 0 1 664.5464477539062 37.96122741699219" style="fill:none;stroke:red;stroke-width:2"></path><path id="text-path-2" d="M 765.3650512695312 211.70851135253906 A 100 17 0 0 1 991.5017700195312 211.70851135253906 A 100 17 0 0 1 765.3650512695312 211.70851135253906" style="fill:none;stroke:red;stroke-width:2"></path><path id="path-1" d="M 765.3650512695312 211.70851135253906 A 100 17 0 0 1 991.5017700195312 211.70851135253906 A 100 17 0 0 1 765.3650512695312 211.70851135253906" style="fill:none;stroke:red;stroke-width:2"></path><clipPath clipPathUnits="userSpaceOnUse" id="clipPath27"><path d="M 0,595.276 H 841.89 V 0 H 0 Z" id="path25"></path></clipPath><linearGradient x1="0" y1="0" x2="1" y2="0" gradientUnits="userSpaceOnUse" gradientTransform="matrix(0,35.330627,35.330627,0,169.80344,273.3667)" spreadMethod="pad" id="linearGradient125"><stop style="stop-opacity:1;stop-color:#007cc5" offset="0" id="stop119"></stop><stop style="stop-opacity:1;stop-color:#bfe5fb" offset="0.994624" id="stop121"></stop><stop style="stop-opacity:1;stop-color:#bfe5fb" offset="1" id="stop123"></stop></linearGradient><linearGradient x1="0" y1="0" x2="1" y2="0" gradientUnits="userSpaceOnUse" gradientTransform="matrix(0,35.333759,35.333759,0,261.83258,273.36569)" spreadMethod="pad" id="linearGradient147"><stop style="stop-opacity:1;stop-color:#007cc5" offset="0" id="stop141"></stop><stop style="stop-opacity:1;stop-color:#bfe5fb" offset="0.994624" id="stop143"></stop><stop style="stop-opacity:1;stop-color:#bfe5fb" offset="1" id="stop145"></stop></linearGradient><linearGradient x1="0" y1="0" x2="1" y2="0" gradientUnits="userSpaceOnUse" gradientTransform="matrix(22.26457,0,0,-22.26457,197.31477,367.1225)" spreadMethod="pad" id="linearGradient171"><stop style="stop-opacity:1;stop-color:#45c1f1" offset="0" id="stop163"></stop><stop style="stop-opacity:1;stop-color:#dbeff7" offset="0.64486922" id="stop165"></stop><stop style="stop-opacity:1;stop-color:#dbeff7" offset="0.99996" id="stop167"></stop><stop style="stop-opacity:1;stop-color:#dbeff7" offset="1" id="stop169"></stop></linearGradient><clipPath clipPathUnits="userSpaceOnUse" id="clipPath181"><path d="M 0,595.276 H 841.89 V 0 H 0 Z" id="path179"></path></clipPath><radialGradient fx="0" fy="0" cx="0" cy="0" r="1" gradientUnits="userSpaceOnUse" gradientTransform="matrix(33.638462,11.286145,11.286145,-33.638462,222.55605,317.37836)" spreadMethod="pad" id="radialGradient341"><stop style="stop-opacity:1;stop-color:#ffed67" offset="0" id="stop327"></stop><stop style="stop-opacity:1;stop-color:#f7a616" offset="0.29697" id="stop329"></stop><stop style="stop-opacity:1;stop-color:#f7a616" offset="0.42375541" id="stop331"></stop><stop style="stop-opacity:1;stop-color:#d04e16" offset="0.842424" id="stop333"></stop><stop style="stop-opacity:1;stop-color:#d04e16" offset="0.88068403" id="stop335"></stop><stop style="stop-opacity:1;stop-color:#fac582" offset="0.987879" id="stop337"></stop><stop style="stop-opacity:1;stop-color:#fac582" offset="1" id="stop339"></stop></radialGradient><clipPath clipPathUnits="userSpaceOnUse" id="clipPath351"><path d="M 0,595.276 H 841.89 V 0 H 0 Z" id="path349"></path></clipPath><linearGradient x1="0" y1="0" x2="1" y2="0" gradientUnits="userSpaceOnUse" gradientTransform="matrix(-55.745483,-123.43642,-123.43642,55.745483,594.96765,445.15622)" spreadMethod="pad" id="linearGradient435"><stop style="stop-opacity:1;stop-color:#2a3087" offset="0" id="stop425"></stop><stop style="stop-opacity:1;stop-color:#0064b0" offset="0.59030608" id="stop427"></stop><stop style="stop-opacity:1;stop-color:#0064b0" offset="0.610406" id="stop429"></stop><stop style="stop-opacity:1;stop-color:#0064b0" offset="0.66875202" id="stop431"></stop><stop style="stop-opacity:1;stop-color:#ffffff" offset="1" id="stop433"></stop></linearGradient><clipPath clipPathUnits="userSpaceOnUse" id="clipPath445"><path d="M 0,595.276 H 841.89 V 0 H 0 Z" id="path443"></path></clipPath><linearGradient x1="0" y1="0" x2="1" y2="0" gradientUnits="userSpaceOnUse" gradientTransform="matrix(20.998943,5.5195236,5.5195236,-20.998943,581.34949,410.86411)" spreadMethod="pad" id="linearGradient509"><stop style="stop-opacity:1;stop-color:#0064b0" offset="0" id="stop503"></stop><stop style="stop-opacity:1;stop-color:#2a3087" offset="0.64489501" id="stop505"></stop><stop style="stop-opacity:1;stop-color:#2a3087" offset="1" id="stop507"></stop></linearGradient><clipPath clipPathUnits="userSpaceOnUse" id="clipPath519"><path d="M 0,595.276 H 841.89 V 0 H 0 Z" id="path517"></path></clipPath><radialGradient fx="0" fy="0" cx="0" cy="0" r="1" gradientUnits="userSpaceOnUse" gradientTransform="matrix(42.858498,7.2385955,5.8120112,-29.547775,578.9649,434.89749)" spreadMethod="pad" id="radialGradient571"><stop style="stop-opacity:1;stop-color:#e1f3fe" offset="0" id="stop565"></stop><stop style="stop-opacity:1;stop-color:#e1f3fe" offset="0.00537605" id="stop567"></stop><stop style="stop-opacity:1;stop-color:#5bc5f2" offset="1" id="stop569"></stop></radialGradient><clipPath clipPathUnits="userSpaceOnUse" id="clipPath581"><path d="M 0,595.276 H 841.89 V 0 H 0 Z" id="path579"></path></clipPath><clipPath clipPathUnits="userSpaceOnUse" id="clipPath597"><path d="m 496.783,360.332 h 63.078 v -21.258 h -63.078 z" id="path595"></path></clipPath><radialGradient fx="0" fy="0" cx="0" cy="0" r="1" gradientUnits="userSpaceOnUse" gradientTransform="matrix(51.874187,0.9027914,0.9027914,-51.874187,662.59711,354.04831)" spreadMethod="pad" id="radialGradient645"><stop style="stop-opacity:1;stop-color:#ffed67" offset="0" id="stop631"></stop><stop style="stop-opacity:1;stop-color:#f7a616" offset="0.29697" id="stop633"></stop><stop style="stop-opacity:1;stop-color:#f7a616" offset="0.42375541" id="stop635"></stop><stop style="stop-opacity:1;stop-color:#d04e16" offset="0.842424" id="stop637"></stop><stop style="stop-opacity:1;stop-color:#d04e16" offset="0.88068403" id="stop639"></stop><stop style="stop-opacity:1;stop-color:#fac582" offset="0.987879" id="stop641"></stop><stop style="stop-opacity:1;stop-color:#fac582" offset="1" id="stop643"></stop></radialGradient><radialGradient fx="0" fy="0" cx="0" cy="0" r="1" gradientUnits="userSpaceOnUse" gradientTransform="matrix(51.868675,0.9026955,0.9026955,-51.868675,662.59155,354.04639)" spreadMethod="pad" id="radialGradient675"><stop style="stop-opacity:1;stop-color:#ffed67" offset="0" id="stop661"></stop><stop style="stop-opacity:1;stop-color:#f7a616" offset="0.29697" id="stop663"></stop><stop style="stop-opacity:1;stop-color:#f7a616" offset="0.42375541" id="stop665"></stop><stop style="stop-opacity:1;stop-color:#d04e16" offset="0.842424" id="stop667"></stop><stop style="stop-opacity:1;stop-color:#d04e16" offset="0.88068403" id="stop669"></stop><stop style="stop-opacity:1;stop-color:#fac582" offset="0.987879" id="stop671"></stop><stop style="stop-opacity:1;stop-color:#fac582" offset="1" id="stop673"></stop></radialGradient><radialGradient fx="0" fy="0" cx="0" cy="0" r="1" gradientUnits="userSpaceOnUse" gradientTransform="matrix(51.876427,0.9028304,0.9028304,-51.876427,662.59564,354.04623)" spreadMethod="pad" id="radialGradient705"><stop style="stop-opacity:1;stop-color:#ffed67" offset="0" id="stop691"></stop><stop style="stop-opacity:1;stop-color:#f7a616" offset="0.29697" id="stop693"></stop><stop style="stop-opacity:1;stop-color:#f7a616" offset="0.42375541" id="stop695"></stop><stop style="stop-opacity:1;stop-color:#d04e16" offset="0.842424" id="stop697"></stop><stop style="stop-opacity:1;stop-color:#d04e16" offset="0.88068403" id="stop699"></stop><stop style="stop-opacity:1;stop-color:#fac582" offset="0.987879" id="stop701"></stop><stop style="stop-opacity:1;stop-color:#fac582" offset="1" id="stop703"></stop></radialGradient><radialGradient fx="0" fy="0" cx="0" cy="0" r="1" gradientUnits="userSpaceOnUse" gradientTransform="matrix(51.880638,0.9029037,0.9029037,-51.880638,662.59668,354.0451)" spreadMethod="pad" id="radialGradient735"><stop style="stop-opacity:1;stop-color:#ffed67" offset="0" id="stop721"></stop><stop style="stop-opacity:1;stop-color:#f7a616" offset="0.29697" id="stop723"></stop><stop style="stop-opacity:1;stop-color:#f7a616" offset="0.42375541" id="stop725"></stop><stop style="stop-opacity:1;stop-color:#d04e16" offset="0.842424" id="stop727"></stop><stop style="stop-opacity:1;stop-color:#d04e16" offset="0.88068403" id="stop729"></stop><stop style="stop-opacity:1;stop-color:#fac582" offset="0.987879" id="stop731"></stop><stop style="stop-opacity:1;stop-color:#fac582" offset="1" id="stop733"></stop></radialGradient><radialGradient fx="0" fy="0" cx="0" cy="0" r="1" gradientUnits="userSpaceOnUse" gradientTransform="matrix(51.870453,0.9027264,0.9027264,-51.870453,662.59912,354.04465)" spreadMethod="pad" id="radialGradient765"><stop style="stop-opacity:1;stop-color:#ffed67" offset="0" id="stop751"></stop><stop style="stop-opacity:1;stop-color:#f7a616" offset="0.29697" id="stop753"></stop><stop style="stop-opacity:1;stop-color:#f7a616" offset="0.42375541" id="stop755"></stop><stop style="stop-opacity:1;stop-color:#d04e16" offset="0.842424" id="stop757"></stop><stop style="stop-opacity:1;stop-color:#d04e16" offset="0.88068403" id="stop759"></stop><stop style="stop-opacity:1;stop-color:#fac582" offset="0.987879" id="stop761"></stop><stop style="stop-opacity:1;stop-color:#fac582" offset="1" id="stop763"></stop></radialGradient><radialGradient fx="0" fy="0" cx="0" cy="0" r="1" gradientUnits="userSpaceOnUse" gradientTransform="matrix(51.878975,0.9028747,0.9028747,-51.878975,662.60107,354.04773)" spreadMethod="pad" id="radialGradient795"><stop style="stop-opacity:1;stop-color:#ffed67" offset="0" id="stop781"></stop><stop style="stop-opacity:1;stop-color:#f7a616" offset="0.29697" id="stop783"></stop><stop style="stop-opacity:1;stop-color:#f7a616" offset="0.42375541" id="stop785"></stop><stop style="stop-opacity:1;stop-color:#d04e16" offset="0.842424" id="stop787"></stop><stop style="stop-opacity:1;stop-color:#d04e16" offset="0.88068403" id="stop789"></stop><stop style="stop-opacity:1;stop-color:#fac582" offset="0.987879" id="stop791"></stop><stop style="stop-opacity:1;stop-color:#fac582" offset="1" id="stop793"></stop></radialGradient><radialGradient fx="0" fy="0" cx="0" cy="0" r="1" gradientUnits="userSpaceOnUse" gradientTransform="matrix(51.874077,0.9027895,0.9027895,-51.874077,662.59711,354.04639)" spreadMethod="pad" id="radialGradient825"><stop style="stop-opacity:1;stop-color:#ffed67" offset="0" id="stop811"></stop><stop style="stop-opacity:1;stop-color:#f7a616" offset="0.29697" id="stop813"></stop><stop style="stop-opacity:1;stop-color:#f7a616" offset="0.42375541" id="stop815"></stop><stop style="stop-opacity:1;stop-color:#d04e16" offset="0.842424" id="stop817"></stop><stop style="stop-opacity:1;stop-color:#d04e16" offset="0.88068403" id="stop819"></stop><stop style="stop-opacity:1;stop-color:#fac582" offset="0.987879" id="stop821"></stop><stop style="stop-opacity:1;stop-color:#fac582" offset="1" id="stop823"></stop></radialGradient><radialGradient fx="0" fy="0" cx="0" cy="0" r="1" gradientUnits="userSpaceOnUse" gradientTransform="matrix(51.865654,0.9026428,0.9026428,-51.865654,662.59662,354.04681)" spreadMethod="pad" id="radialGradient855"><stop style="stop-opacity:1;stop-color:#ffed67" offset="0" id="stop841"></stop><stop style="stop-opacity:1;stop-color:#f7a616" offset="0.29697" id="stop843"></stop><stop style="stop-opacity:1;stop-color:#f7a616" offset="0.42375541" id="stop845"></stop><stop style="stop-opacity:1;stop-color:#d04e16" offset="0.842424" id="stop847"></stop><stop style="stop-opacity:1;stop-color:#d04e16" offset="0.88068403" id="stop849"></stop><stop style="stop-opacity:1;stop-color:#fac582" offset="0.987879" id="stop851"></stop><stop style="stop-opacity:1;stop-color:#fac582" offset="1" id="stop853"></stop></radialGradient><clipPath clipPathUnits="userSpaceOnUse" id="clipPath865"><path d="M 0,595.276 H 841.89 V 0 H 0 Z" id="path863"></path></clipPath><linearGradient x1="0" y1="0" x2="1" y2="0" gradientUnits="userSpaceOnUse" gradientTransform="matrix(13.691594,4.8619161,0.2496531,13.809881,566.46545,328.22235)" spreadMethod="pad" id="linearGradient923"><stop style="stop-opacity:1;stop-color:#45c1f1" offset="0" id="stop915"></stop><stop style="stop-opacity:1;stop-color:#dbeff7" offset="0.64486922" id="stop917"></stop><stop style="stop-opacity:1;stop-color:#dbeff7" offset="0.99996" id="stop919"></stop><stop style="stop-opacity:1;stop-color:#dbeff7" offset="1" id="stop921"></stop></linearGradient><clipPath clipPathUnits="userSpaceOnUse" id="clipPath933"><path d="M 0,595.276 H 841.89 V 0 H 0 Z" id="path931"></path></clipPath><clipPath clipPathUnits="userSpaceOnUse" id="clipPath953"><path d="M 538.332,347.285 H 640.615 V 186.918 H 538.332 Z" id="path951"></path></clipPath><clipPath clipPathUnits="userSpaceOnUse" id="clipPath969"><path d="m 571.826,295.185 h 55.484 v -26.8 h -55.484 z" id="path967"></path></clipPath><clipPath clipPathUnits="userSpaceOnUse" id="clipPath985"><path d="m 592.617,348.596 h 33.877 v -6.266 h -33.877 z" id="path983"></path></clipPath><clipPath clipPathUnits="userSpaceOnUse" id="clipPath1041"><path d="m 561.74,376.782 h 10.033 v -4.981 H 561.74 Z" id="path1039"></path></clipPath><clipPath clipPathUnits="userSpaceOnUse" id="clipPath1057"><path d="m 607.855,383.541 h 8.029 v -5.41 h -8.029 z" id="path1055"></path></clipPath></defs><rect id="ee-background" x="0" y="0" width="1135.411376953125" height="880.8655395507812" style="fill:rgb(28, 55, 142);fill-opacity:0;pointer-events:none"></rect>


<path style="fill:rgb(63, 61, 61);fill-opacity:1;stroke:rgb(0, 0, 0);stroke-opacity:1;stroke-width:0" transform="matrix(1, 0, 0, 1, 1.7709472179412842, 0)"></path><path style="fill:rgb(63, 61, 61);fill-opacity:1;stroke:rgb(0, 0, 0);stroke-opacity:1;stroke-width:0" transform="matrix(1, 0, 0, 1, 1.7709472179412842, 0)"></path><path d="M 880.3870239257812 239.90606689453125" style="fill:rgb(63, 61, 61);fill-opacity:1;stroke:rgb(0, 0, 0);stroke-opacity:1;stroke-width:0" transform="matrix(1, 0, 0, 1, 1.7709472179412842, 0)"></path><path d="M 864.144775390625 229.48651123046875" style="fill:rgb(63, 61, 61);fill-opacity:1;stroke:rgb(0, 0, 0);stroke-opacity:1;stroke-width:0" transform="matrix(1, 0, 0, 1, 1.7709472179412842, 0)"></path><path style="fill:rgb(63, 61, 61);fill-opacity:1;stroke:rgb(0, 0, 0);stroke-opacity:1;stroke-width:0" transform="matrix(1, 0, 0, 1, 1.7709472179412842, 0)"></path><path style="fill:rgb(63, 61, 61);fill-opacity:1;stroke:rgb(0, 0, 0);stroke-opacity:1;stroke-width:0" transform="matrix(1, 0, 0, 1, 1.7709472179412842, 0)"></path><path style="fill:rgb(63, 61, 61);fill-opacity:1;stroke:rgb(0, 0, 0);stroke-opacity:1;stroke-width:0" transform="matrix(1, 0, 0, 1, 1.7709472179412842, 0)"></path><path style="fill:rgb(63, 61, 61);fill-opacity:1;stroke:rgb(0, 0, 0);stroke-opacity:1;stroke-width:0" transform="matrix(1, 0, 0, 1, 1.7709472179412842, 0)"></path><g transform="matrix(3.6360907554626465, 0, 0, 3.6360907554626465, -567.0593383312225, -977.633544921875)"><g id="g15" transform="matrix(1.3333333,0,0,-1.3333333,0,793.70133)"><g id="g17" transform="translate(345.001,351.8283)"><path d="m 0,0 -24.559,-10.773 29.183,0.115 -26.209,-9.122 8.601,-0.029 -36.172,-15.639 8.92,35.127 z" style="fill:#ffffff;fill-opacity:1;fill-rule:nonzero;stroke:none" id="path19"></path></g><g id="g21"><g id="g23" clip-path="url(#clipPath27)"><g id="g29" transform="translate(273.5005,344.0588)"><path d="m 0,0 v 24.552 c -10.299,3.019 -35.086,9.446 -59.256,9.446 h -0.24 c -23.412,0 -47.756,-6.076 -59.502,-9.462 V 5.605 l -0.413,-5.157 h -12.848 v 33.603 l 4.606,1.444 c 8.604,2.688 38.939,11.46 68.157,11.46 h 0.24 c 29.225,0 59.556,-8.772 68.156,-11.46 l 4.609,-1.444 V 0 Z" style="fill:#ffffff;fill-opacity:1;fill-rule:nonzero;stroke:none" id="path31"></path></g><g id="g33" transform="translate(162.3086,251.4348)"><path d="m 0,0 c 13.214,-12.735 30.717,-24.595 52.037,-35.264 20.849,9.86 38.471,21.845 52.404,35.651 7.213,7.15 11.592,17.042 12.245,27.476 V 47.074 H -12.707 V 27.863 C -12.026,17.24 -7.482,7.208 0,0" style="fill:#1c0c43;fill-opacity:1;fill-rule:nonzero;stroke:none" id="path35"></path></g><g id="g37" transform="translate(151.8945,279.3732)"><path d="m 0,0 c 0.667,-10.136 4.929,-19.471 12.006,-26.288 12.834,-12.368 29.811,-23.926 50.473,-34.362 20.175,9.656 37.249,21.337 50.765,34.728 6.818,6.76 10.923,15.964 11.565,25.921 V 16.845 L 0,16.845 Z m 62.422,-65.75 -0.996,0.499 C 39.896,-54.478 22.199,-42.479 8.824,-29.589 0.904,-21.962 -3.855,-11.53 -4.581,-0.22 l -0.004,0.145 V 21.429 H 129.393 L 129.388,-0.217 C 128.691,-11.325 124.104,-21.609 116.47,-29.178 102.362,-43.161 84.517,-55.305 63.431,-65.273 Z" style="fill:#c7c7c6;fill-opacity:1;fill-rule:nonzero;stroke:none" id="path39"></path></g><g id="g41" transform="translate(214.2441,384.5319)"><path d="m 0,0 h -0.24 c -28.089,0 -57.114,-8.33 -66.129,-11.149 v -72.86 H 66.134 v 72.86 C 57.117,-8.33 28.092,0 0,0" style="fill:#ffffff;fill-opacity:1;fill-rule:nonzero;stroke:none" id="path43"></path></g><g id="g45" transform="translate(218.1577,274.5607)"><path d="m 0,0 c -16.575,0 -30.062,13.484 -30.062,30.06 0,16.577 13.487,30.065 30.062,30.065 16.579,0 30.064,-13.488 30.064,-30.065 C 30.064,13.484 16.579,0 0,0" style="fill:#ffffff;fill-opacity:1;fill-rule:nonzero;stroke:none" id="path47"></path></g><g id="g49" transform="translate(196.5361,274.5939)"><path d="m 0,0 h -55.141 l -14.674,53.334 -7.384,23.58 h 35.271 l 3.793,-14.57 h 54.449 z" style="fill:#ffffff;fill-opacity:1;fill-rule:nonzero;stroke:none" id="path51"></path></g><g id="g53" transform="translate(272.4697,351.5075)"><path d="m 0,0 -5.414,-22.13 -4.544,7.561 H -41.541 V -76.914 H 13.533 L 27.673,-23.44 34.517,0 h -2.222 -2.433 z" style="fill:#ffffff;fill-opacity:1;fill-rule:nonzero;stroke:none" id="path55"></path></g><g id="g57" transform="translate(143.7432,277.673)"><path d="m 0,0 -14.398,52.34 -5.228,18.413 H 8.482 L 12.276,56.186 H 65.115 L 50.416,0 Z" style="fill:#1c0c43;fill-opacity:1;fill-rule:nonzero;stroke:none" id="path59"></path></g><g id="g61" transform="translate(263.0547,277.673)"><path d="M 0,0 -2.17,3.911 V 0 H -29.391 V 56.186 H -2.632 L 4.867,43.701 11.484,70.753 H 40.109 L 34.116,52.527 20.228,0 Z" style="fill:#1c0c43;fill-opacity:1;fill-rule:nonzero;stroke:none" id="path63"></path></g><g id="g65" transform="translate(150.5522,349.8215)"><path d="m 0,0 v 21.727 c 10.157,3.066 37.365,10.458 63.452,10.458 h 0.24 c 26.088,0 53.299,-7.392 63.206,-10.458 V -1.812 h 5.608 v 27.198 l -1.836,0.576 c -8.464,2.645 -38.304,11.28 -66.978,11.28 h -0.24 C 34.781,37.242 4.94,28.607 -3.523,25.962 L -5.36,25.386 V -1.365 h 5.251 z" style="fill:#1c0c43;fill-opacity:1;fill-rule:nonzero;stroke:none" id="path67"></path></g><g id="g69" transform="translate(218.0728,277.6457)"><path d="M 0,0 C -15.62,0 -28.328,12.707 -28.328,28.327 -28.328,43.949 -15.62,56.66 0,56.66 15.622,56.66 28.331,43.949 28.331,28.327 28.331,12.707 15.622,0 0,0" style="fill:#1c0c43;fill-opacity:1;fill-rule:nonzero;stroke:none" id="path71"></path></g><g id="g73" transform="translate(185.02,329.8049)"><path d="M 0,0 -4.264,-16.327 -7.745,0 h -16.608 l -3.52,-16.36 -8.055,30.928 h -19.878 l 3.427,-11.066 14.193,-51.578 h 19.207 l 2.888,13.051 2.858,-13.051 H 6.007 L 18.586,0 Z" style="fill:#0057a5;fill-opacity:1;fill-rule:nonzero;stroke:none" id="path75"></path></g><g id="g77" transform="translate(277.7197,344.3727)"><path d="m 0,0 -8.2,-33.532 -11.393,18.964 h -20.409 v -48.076 h 19.112 v 15.519 l 8.611,-15.519 H 2.442 L 16.137,-10.846 19.536,0 Z" style="fill:#0057a5;fill-opacity:1;fill-rule:nonzero;stroke:none" id="path79"></path></g><g id="g81" transform="translate(133.0752,341.4645)"><path d="m 0,0 h 13.771 l 10.508,-40.373 h 0.107 l 5.555,25.805 h 11.904 l 5.503,-25.805 h 0.105 l 6.738,25.805 H 66.764 L 55.706,-56.829 H 41.051 l -5.132,23.437 H 35.813 L 30.63,-56.829 H 15.975 L 1.976,-5.945 Z" style="fill:#ffffff;fill-opacity:1;fill-rule:nonzero;stroke:none" id="path83"></path></g><g id="g85" transform="translate(240.6255,326.8967)"><path d="m 0,0 h 15.857 l 14.08,-23.437 h 0.148 L 39.38,14.568 H 52.692 L 50.816,8.87 37.297,-42.261 H 26.528 l -13.136,23.675 h -0.097 v -23.675 l -13.295,0 z" style="fill:#ffffff;fill-opacity:1;fill-rule:nonzero;stroke:none" id="path87"></path></g><g id="g89" transform="translate(193.0649,337.1081)"><path d="M 0,0 H -4.449 L -6.05,9.724 H -6.093 L -7.652,0 h -4.469 l -4.034,15.958 h 4.491 l 1.808,-9.856 h 0.042 l 1.789,9.856 h 4.032 l 1.745,-9.992 h 0.043 l 1.851,9.992 h 4.511 z" style="fill:#2a3087;fill-opacity:1;fill-rule:nonzero;stroke:none" id="path91"></path></g><g id="g93" transform="translate(202.3989,345.0881)"><path d="m 0,0 c 0,-0.898 0.1,-1.626 0.3,-2.19 0.202,-0.568 0.448,-1.013 0.742,-1.333 0.289,-0.319 0.608,-0.544 0.957,-0.672 0.342,-0.123 0.663,-0.186 0.954,-0.186 0.291,0 0.61,0.063 0.958,0.186 0.345,0.128 0.664,0.353 0.954,0.672 0.291,0.32 0.538,0.765 0.738,1.333 0.202,0.564 0.302,1.292 0.302,2.19 0,0.895 -0.1,1.623 -0.302,2.19 C 5.403,2.758 5.156,3.198 4.865,3.52 4.575,3.84 4.256,4.062 3.911,4.192 3.563,4.316 3.244,4.382 2.953,4.382 2.662,4.382 2.341,4.316 1.999,4.192 1.65,4.062 1.331,3.84 1.042,3.52 0.748,3.198 0.502,2.758 0.3,2.19 0.1,1.623 0,0.895 0,0 m -4.572,0 c 0,1.222 0.179,2.34 0.539,3.364 0.362,1.019 0.87,1.9 1.529,2.636 0.657,0.739 1.45,1.318 2.38,1.732 C 0.803,8.15 1.829,8.357 2.953,8.357 4.075,8.357 5.1,8.15 6.031,7.732 6.957,7.318 7.751,6.739 8.41,6 9.069,5.264 9.576,4.383 9.938,3.364 10.299,2.34 10.48,1.222 10.48,0 10.48,-1.225 10.299,-2.345 9.938,-3.366 9.576,-4.387 9.069,-5.264 8.41,-6.004 7.751,-6.743 6.957,-7.319 6.031,-7.737 5.1,-8.152 4.075,-8.36 2.953,-8.36 c -1.124,0 -2.15,0.208 -3.077,0.623 -0.93,0.418 -1.723,0.994 -2.38,1.733 -0.659,0.74 -1.167,1.617 -1.529,2.638 -0.36,1.021 -0.539,2.141 -0.539,3.366" style="fill:#2a3087;fill-opacity:1;fill-rule:nonzero;stroke:none" id="path95"></path></g><g id="g97" transform="translate(218.9487,345.0881)"><path d="m 0,0 c 0,-0.898 0.1,-1.626 0.302,-2.19 0.2,-0.568 0.447,-1.013 0.737,-1.333 0.293,-0.319 0.61,-0.544 0.957,-0.672 0.345,-0.123 0.664,-0.186 0.955,-0.186 0.293,0 0.611,0.063 0.957,0.186 0.345,0.128 0.664,0.353 0.957,0.672 0.29,0.32 0.536,0.765 0.739,1.333 0.198,0.564 0.301,1.292 0.301,2.19 0,0.895 -0.103,1.623 -0.301,2.19 C 5.401,2.758 5.155,3.198 4.865,3.52 4.572,3.84 4.253,4.062 3.908,4.192 3.562,4.316 3.244,4.382 2.951,4.382 2.66,4.382 2.341,4.316 1.996,4.192 1.649,4.062 1.332,3.84 1.039,3.52 0.749,3.198 0.502,2.758 0.302,2.19 0.1,1.623 0,0.895 0,0 m -4.574,0 c 0,1.222 0.179,2.34 0.54,3.364 0.36,1.019 0.869,1.9 1.528,2.636 0.658,0.739 1.453,1.318 2.382,1.732 C 0.804,8.15 1.83,8.357 2.951,8.357 4.074,8.357 5.099,8.15 6.028,7.732 6.957,7.318 7.75,6.739 8.409,6 9.067,5.264 9.576,4.383 9.937,3.364 10.298,2.34 10.478,1.222 10.478,0 c 0,-1.225 -0.18,-2.345 -0.541,-3.366 C 9.576,-4.387 9.067,-5.264 8.409,-6.004 7.75,-6.743 6.957,-7.319 6.028,-7.737 5.099,-8.152 4.074,-8.36 2.951,-8.36 c -1.121,0 -2.147,0.208 -3.075,0.623 -0.929,0.418 -1.724,0.994 -2.382,1.733 -0.659,0.74 -1.168,1.617 -1.528,2.638 -0.361,1.021 -0.54,2.141 -0.54,3.366" style="fill:#2a3087;fill-opacity:1;fill-rule:nonzero;stroke:none" id="path99"></path></g><g id="g101" transform="translate(235.9346,346.093)"><path d="M 0,0 H 2.391 C 2.6,0 2.823,0.015 3.066,0.046 3.308,0.075 3.528,0.144 3.724,0.255 3.915,0.371 4.079,0.528 4.211,0.739 4.343,0.944 4.408,1.229 4.408,1.586 4.408,2.095 4.248,2.486 3.93,2.76 3.61,3.038 3.014,3.175 2.141,3.175 H 0 Z m -4.573,6.973 h 8.71 C 4.79,6.973 5.404,6.877 5.988,6.685 6.569,6.489 7.082,6.203 7.526,5.822 7.97,5.443 8.322,4.97 8.586,4.402 8.851,3.838 8.981,3.175 8.981,2.415 8.981,1.995 8.937,1.583 8.846,1.174 8.758,0.761 8.623,0.38 8.44,0.021 8.26,-0.335 8.029,-0.657 7.744,-0.94 7.461,-1.225 7.13,-1.441 6.755,-1.588 c 0.627,-0.251 1.125,-0.73 1.499,-1.431 0.375,-0.7 0.604,-1.547 0.687,-2.548 0.014,-0.193 0.026,-0.448 0.04,-0.761 0.013,-0.311 0.04,-0.636 0.073,-0.971 0.035,-0.334 0.08,-0.659 0.135,-0.962 0.056,-0.304 0.138,-0.548 0.25,-0.724 H 4.866 C 4.753,-8.584 4.672,-8.179 4.615,-7.769 4.56,-7.359 4.519,-6.945 4.491,-6.528 4.464,-6.156 4.425,-5.785 4.377,-5.411 4.328,-5.037 4.235,-4.702 4.095,-4.405 3.958,-4.106 3.76,-3.867 3.503,-3.688 3.247,-3.51 2.89,-3.418 2.434,-3.418 H 0 v -5.567 h -4.573 z" style="fill:#2a3087;fill-opacity:1;fill-rule:nonzero;stroke:none" id="path103"></path></g><path d="m 246.766,353.066 h 4.574 v -15.958 h -4.574 z" style="fill:#2a3087;fill-opacity:1;fill-rule:nonzero;stroke:none" id="path105"></path></g></g><g id="g107"><g id="g109"><g id="g115"><g id="g117"><path d="m 184.129,310.965 -2.804,-10.743 h -1.736 l -2.139,10.028 c -2.561,-0.307 -5.102,-0.654 -7.615,-1.033 v 0 l 5.122,-23.386 h 13.029 l 6.783,25.924 c -3.577,-0.197 -7.146,-0.459 -10.64,-0.79 m -24.27,-3.473 -1.564,-7.27 h -1.736 l -1.626,6.244 c -3.472,-0.759 -6.86,-1.59 -10.095,-2.474 v 0 l 4.996,-18.161 h 13.043 l 5.109,23.099 c -2.751,-0.435 -5.467,-0.916 -8.127,-1.438" style="fill:url(#linearGradient125);stroke:none" id="path127"></path></g></g></g></g><g id="g129"><g id="g131"><g id="g137"><g id="g139"><path d="m 241.656,285.831 h 11.233 v 23.673 h 1.737 l 13.135,-23.673 h 9.369 l 4.879,18.454 c -3.103,0.83 -6.294,1.601 -9.513,2.301 v 0 l -0.977,-3.994 h -1.541 l -3.081,5.131 c -8.09,1.539 -16.572,2.692 -25.241,3.439 v 0 z" style="fill:url(#linearGradient147);stroke:none" id="path149"></path></g></g></g></g><g id="g151"><g id="g153"><g id="g159"><g id="g161"><path d="m 206.502,376.307 c -5.053,0 -9.187,-4.131 -9.187,-9.183 v 0 c 0,-5.053 4.134,-9.186 9.187,-9.186 v 0 h 13.077 v 18.369 z" style="fill:url(#linearGradient171);stroke:none" id="path173"></path></g></g></g></g><g id="g175"><g id="g177" clip-path="url(#clipPath181)"><g id="g183" transform="translate(230.936,367.1232)"><path d="m 0,0 c 0,-6.272 -5.083,-11.354 -11.357,-11.354 -6.268,0 -11.353,5.082 -11.353,11.354 0,6.271 5.085,11.356 11.353,11.356 C -5.083,11.356 0,6.271 0,0" style="fill:#2a3087;fill-opacity:1;fill-rule:nonzero;stroke:none" id="path185"></path></g><g id="g187" transform="translate(174.3843,268.343)"><path d="M 0,0 H 2.152 L 2.946,-6.507 H 2.972 L 3.919,0 H 5.917 L 6.942,-6.507 H 6.967 L 7.735,0 H 9.811 L 8.223,-9.146 H 5.84 L 4.906,-2.651 H 4.88 L 3.996,-9.146 H 1.614 Z" style="fill:#ffffff;fill-opacity:1;fill-rule:nonzero;stroke:none" id="path189"></path></g><g id="g191" transform="translate(186.9614,263.7697)"><path d="m 0,0 c 0,-0.631 0.01,-1.159 0.032,-1.581 0.021,-0.423 0.066,-0.763 0.134,-1.019 0.068,-0.255 0.167,-0.44 0.295,-0.55 0.128,-0.112 0.298,-0.166 0.513,-0.166 0.213,0 0.385,0.054 0.518,0.166 0.132,0.11 0.235,0.295 0.307,0.55 0.073,0.256 0.12,0.596 0.141,1.019 C 1.962,-1.159 1.973,-0.631 1.973,0 1.973,0.623 1.962,1.148 1.94,1.576 1.919,2.003 1.872,2.344 1.799,2.601 1.727,2.856 1.624,3.04 1.492,3.15 1.359,3.262 1.187,3.317 0.974,3.317 0.759,3.317 0.589,3.262 0.461,3.15 0.333,3.04 0.234,2.856 0.166,2.601 0.098,2.344 0.053,2.003 0.032,1.576 0.01,1.148 0,0.623 0,0 M 4.201,0 C 4.201,-0.631 4.175,-1.236 4.124,-1.812 4.073,-2.389 3.942,-2.895 3.733,-3.33 3.524,-3.766 3.204,-4.111 2.773,-4.367 2.341,-4.623 1.746,-4.752 0.986,-4.752 c -0.709,0 -1.274,0.112 -1.697,0.334 -0.423,0.222 -0.747,0.539 -0.974,0.954 -0.225,0.414 -0.373,0.913 -0.441,1.498 -0.068,0.585 -0.103,1.24 -0.103,1.966 0,0.727 0.035,1.382 0.103,1.966 0.068,0.585 0.216,1.085 0.441,1.498 0.227,0.415 0.551,0.732 0.974,0.955 0.423,0.223 0.988,0.333 1.697,0.333 0.76,0 1.355,-0.129 1.787,-0.385 C 3.204,4.111 3.524,3.766 3.733,3.33 3.942,2.895 4.073,2.389 4.124,1.812 4.175,1.236 4.201,0.632 4.201,0" style="fill:#ffffff;fill-opacity:1;fill-rule:nonzero;stroke:none" id="path193"></path></g><g id="g195" transform="translate(192.3535,268.343)"><path d="M 0,0 H 3.151 L 4.277,-6.008 H 4.303 L 5.393,0 H 8.504 V -9.146 H 6.506 v 7.122 H 6.481 L 5.084,-9.146 H 3.419 L 1.946,-2.024 H 1.921 V -9.146 H 0 Z" style="fill:#ffffff;fill-opacity:1;fill-rule:nonzero;stroke:none" id="path197"></path></g><g id="g199" transform="translate(202.2534,268.343)"><path d="M 0,0 H 5.29 V -1.743 H 2.152 V -3.574 H 5.097 V -5.315 H 2.152 V -7.403 H 5.43 V -9.146 H 0 Z" style="fill:#ffffff;fill-opacity:1;fill-rule:nonzero;stroke:none" id="path201"></path></g><g id="g203" transform="translate(208.6567,268.343)"><path d="M 0,0 H 2.472 L 4.239,-5.943 H 4.266 V 0 H 6.263 V -9.146 H 3.83 L 1.947,-2.845 H 1.921 V -9.146 H 0 Z" style="fill:#ffffff;fill-opacity:1;fill-rule:nonzero;stroke:none" id="path205"></path></g><g id="g207" transform="translate(218.25,266.4338)"><path d="m 0,0 c 0,-0.325 -0.024,-0.634 -0.07,-0.928 -0.048,-0.295 -0.141,-0.56 -0.283,-0.795 -0.14,-0.234 -0.341,-0.426 -0.601,-0.576 -0.261,-0.149 -0.609,-0.237 -1.045,-0.263 v 0.987 c 0.291,0 0.496,0.098 0.616,0.298 0.118,0.198 0.179,0.517 0.179,0.957 h -0.795 v 2.229 l 1.999,0 z" style="fill:#ffffff;fill-opacity:1;fill-rule:nonzero;stroke:none" id="path209"></path></g><g id="g211" transform="translate(221.3618,261.9894)"><path d="m 0,0 v -0.32 c 0,-0.35 0.062,-0.64 0.186,-0.871 0.123,-0.23 0.373,-0.345 0.749,-0.345 0.188,0 0.344,0.031 0.467,0.096 0.125,0.064 0.225,0.146 0.302,0.249 0.076,0.102 0.129,0.22 0.159,0.352 0.03,0.132 0.045,0.263 0.045,0.391 0,0.324 -0.096,0.579 -0.288,0.762 C 1.428,0.498 1.185,0.653 0.89,0.781 0.596,0.909 0.28,1.033 -0.058,1.153 -0.395,1.272 -0.711,1.437 -1.005,1.646 -1.3,1.855 -1.543,2.13 -1.735,2.473 c -0.193,0.34 -0.288,0.797 -0.288,1.37 0,0.366 0.051,0.712 0.153,1.037 0.102,0.324 0.274,0.608 0.513,0.851 0.238,0.245 0.548,0.438 0.928,0.583 0.38,0.146 0.848,0.218 1.403,0.218 0.538,0 0.992,-0.064 1.363,-0.192 C 2.709,6.212 3.01,6.034 3.24,5.809 3.471,5.582 3.637,5.317 3.74,5.015 3.843,4.711 3.894,4.385 3.894,4.035 V 3.817 H 1.818 c 0,0.444 -0.059,0.764 -0.179,0.96 C 1.512,4.991 1.294,5.098 0.986,5.098 0.414,5.098 0.128,4.769 0.128,4.111 0.128,3.787 0.225,3.535 0.417,3.356 0.608,3.177 0.852,3.023 1.146,2.895 1.441,2.767 1.757,2.641 2.095,2.518 2.432,2.393 2.747,2.23 3.042,2.03 3.337,1.83 3.58,1.565 3.772,1.236 3.964,0.907 4.06,0.475 4.06,-0.063 4.06,-0.585 3.989,-1.028 3.849,-1.396 3.708,-1.763 3.503,-2.064 3.234,-2.299 2.965,-2.533 2.638,-2.704 2.254,-2.812 1.87,-2.918 1.43,-2.972 0.935,-2.972 c -0.393,0 -0.771,0.034 -1.133,0.103 -0.363,0.068 -0.683,0.192 -0.961,0.372 -0.278,0.18 -0.5,0.423 -0.666,0.729 -0.166,0.309 -0.25,0.701 -0.25,1.179 l 0,0.589 z" style="fill:#ffffff;fill-opacity:1;fill-rule:nonzero;stroke:none" id="path213"></path></g><g id="g215" transform="translate(231.9409,264.3596)"><path d="m 0,0 h 0.589 c 0.213,0 0.389,0.031 0.526,0.096 0.136,0.063 0.244,0.147 0.326,0.25 0.08,0.102 0.136,0.223 0.166,0.364 0.03,0.142 0.045,0.288 0.045,0.442 0,0.18 -0.017,0.344 -0.051,0.494 C 1.567,1.795 1.509,1.925 1.428,2.035 1.347,2.146 1.233,2.234 1.089,2.298 0.943,2.362 0.764,2.394 0.551,2.394 H 0 Z m -2.152,3.983 h 3.33 C 1.742,3.983 2.201,3.892 2.556,3.708 2.909,3.523 3.185,3.295 3.381,3.022 3.578,2.748 3.71,2.447 3.778,2.119 3.847,1.791 3.881,1.485 3.881,1.203 3.881,0.793 3.83,0.418 3.727,0.076 3.625,-0.266 3.456,-0.561 3.221,-0.808 2.987,-1.055 2.684,-1.247 2.312,-1.384 1.94,-1.521 1.486,-1.589 0.948,-1.589 H 0 v -3.573 h -2.152 z" style="fill:#ffffff;fill-opacity:1;fill-rule:nonzero;stroke:none" id="path217"></path></g><g id="g219" transform="translate(239.0615,264.4875)"><path d="M 0,0 H 0.667 C 0.879,0 1.059,0.036 1.204,0.108 1.35,0.181 1.462,0.275 1.544,0.39 1.625,0.506 1.682,0.634 1.716,0.774 1.75,0.915 1.767,1.054 1.767,1.19 1.767,1.532 1.688,1.81 1.53,2.023 1.373,2.236 1.08,2.344 0.653,2.344 H 0 Z M -2.152,3.855 H 1.46 C 1.921,3.855 2.307,3.788 2.619,3.656 2.931,3.523 3.183,3.349 3.375,3.131 3.567,2.913 3.706,2.662 3.792,2.376 3.876,2.09 3.919,1.788 3.919,1.473 3.919,0.806 3.792,0.299 3.535,-0.052 3.279,-0.402 2.895,-0.636 2.382,-0.756 v -0.025 c 0.342,-0.052 0.611,-0.141 0.807,-0.27 0.196,-0.128 0.341,-0.29 0.436,-0.486 0.094,-0.196 0.153,-0.422 0.179,-0.679 0.026,-0.257 0.043,-0.538 0.05,-0.846 0.01,-0.452 0.022,-0.811 0.04,-1.075 0.017,-0.265 0.04,-0.467 0.07,-0.609 0.03,-0.141 0.068,-0.239 0.115,-0.294 0.047,-0.056 0.109,-0.102 0.186,-0.135 V -5.29 H 1.946 c -0.084,0.154 -0.145,0.372 -0.179,0.653 -0.034,0.283 -0.051,0.684 -0.051,1.203 0,0.394 -0.015,0.716 -0.045,0.968 -0.03,0.252 -0.079,0.448 -0.147,0.589 -0.068,0.141 -0.16,0.238 -0.275,0.288 -0.115,0.052 -0.258,0.077 -0.429,0.077 H 0 V -5.29 h -2.152 z" style="fill:#ffffff;fill-opacity:1;fill-rule:nonzero;stroke:none" id="path221"></path></g><g id="g223" transform="translate(246.2852,263.7697)"><path d="M 0,0 C 0,-0.631 0.01,-1.159 0.032,-1.581 0.054,-2.004 0.098,-2.344 0.166,-2.6 0.234,-2.855 0.333,-3.04 0.461,-3.15 0.589,-3.262 0.76,-3.316 0.974,-3.316 c 0.213,0 0.385,0.054 0.519,0.166 0.132,0.11 0.234,0.295 0.307,0.55 0.072,0.256 0.119,0.596 0.14,1.019 C 1.962,-1.159 1.973,-0.631 1.973,0 1.973,0.623 1.962,1.148 1.94,1.576 1.919,2.003 1.872,2.344 1.8,2.601 1.727,2.856 1.625,3.04 1.493,3.15 1.359,3.262 1.187,3.317 0.974,3.317 0.76,3.317 0.589,3.262 0.461,3.15 0.333,3.04 0.234,2.856 0.166,2.601 0.098,2.344 0.054,2.003 0.032,1.576 0.01,1.148 0,0.623 0,0 M 4.201,0 C 4.201,-0.631 4.175,-1.236 4.124,-1.812 4.073,-2.389 3.942,-2.895 3.733,-3.33 3.524,-3.766 3.204,-4.111 2.773,-4.367 2.341,-4.623 1.747,-4.752 0.986,-4.752 c -0.709,0 -1.274,0.112 -1.697,0.334 -0.422,0.222 -0.747,0.539 -0.973,0.954 -0.226,0.414 -0.374,0.913 -0.441,1.498 -0.069,0.585 -0.103,1.24 -0.103,1.966 0,0.727 0.034,1.382 0.103,1.966 0.067,0.585 0.215,1.085 0.441,1.498 0.226,0.415 0.551,0.732 0.973,0.955 0.423,0.223 0.988,0.333 1.697,0.333 0.761,0 1.355,-0.129 1.787,-0.385 C 3.204,4.111 3.524,3.766 3.733,3.33 3.942,2.895 4.073,2.389 4.124,1.812 4.175,1.236 4.201,0.632 4.201,0" style="fill:#ffffff;fill-opacity:1;fill-rule:nonzero;stroke:none" id="path225"></path></g><g id="g227" transform="translate(183.0869,247.5266)"><path d="M 0,0 H 0.653 C 1.088,0 1.391,0.117 1.562,0.353 1.733,0.588 1.818,0.867 1.818,1.191 1.818,1.652 1.714,1.98 1.505,2.178 1.295,2.374 1.025,2.473 0.691,2.473 H 0 Z m 0,3.906 h 0.589 c 0.384,0 0.656,0.099 0.813,0.295 0.159,0.196 0.237,0.457 0.237,0.781 0,0.112 -0.017,0.226 -0.051,0.346 C 1.554,5.448 1.496,5.554 1.416,5.648 1.334,5.743 1.227,5.819 1.095,5.879 0.962,5.938 0.798,5.969 0.602,5.969 H 0 Z M -2.152,7.557 H 1.191 C 1.977,7.557 2.606,7.371 3.08,7 3.554,6.628 3.791,6.062 3.791,5.302 3.791,4.765 3.66,4.308 3.4,3.933 3.14,3.557 2.792,3.326 2.356,3.24 V 3.216 C 2.527,3.189 2.71,3.145 2.907,3.08 3.104,3.017 3.287,2.903 3.458,2.741 3.629,2.579 3.77,2.357 3.881,2.075 3.992,1.794 4.047,1.417 4.047,0.948 4.047,0.675 4.008,0.391 3.932,0.097 3.854,-0.198 3.708,-0.471 3.49,-0.723 3.272,-0.975 2.966,-1.183 2.575,-1.344 2.181,-1.507 1.665,-1.588 1.025,-1.588 h -3.177 z" style="fill:#ffffff;fill-opacity:1;fill-rule:nonzero;stroke:none" id="path229"></path></g><g id="g231" transform="translate(191.2832,253.4182)"><path d="m 0,0 h -0.026 l -0.755,-4.072 h 1.562 z m -1.307,1.665 h 2.69 l 2.28,-9.144 H 1.434 l -0.333,1.742 h -2.19 l -0.32,-1.742 h -2.229 z" style="fill:#ffffff;fill-opacity:1;fill-rule:nonzero;stroke:none" id="path233"></path></g><g id="g235" transform="translate(197.418,248.7307)"><path d="m 0,0 v -0.32 c 0,-0.35 0.062,-0.64 0.186,-0.871 0.123,-0.23 0.373,-0.346 0.75,-0.346 0.187,0 0.343,0.032 0.466,0.097 0.124,0.063 0.225,0.146 0.302,0.249 0.076,0.103 0.129,0.219 0.16,0.352 0.029,0.132 0.044,0.263 0.044,0.391 0,0.324 -0.096,0.579 -0.287,0.762 C 1.428,0.498 1.185,0.653 0.89,0.781 0.596,0.91 0.28,1.033 -0.058,1.153 -0.395,1.272 -0.71,1.437 -1.005,1.646 -1.3,1.855 -1.542,2.131 -1.735,2.473 c -0.192,0.34 -0.288,0.798 -0.288,1.37 0,0.366 0.051,0.712 0.153,1.036 0.103,0.324 0.274,0.609 0.513,0.852 0.238,0.244 0.548,0.437 0.928,0.583 0.38,0.145 0.847,0.218 1.403,0.218 0.537,0 0.993,-0.064 1.363,-0.192 C 2.708,6.212 3.01,6.034 3.241,5.809 3.471,5.582 3.637,5.317 3.74,5.015 3.843,4.711 3.894,4.384 3.894,4.034 V 3.816 H 1.819 c 0,0.445 -0.06,0.765 -0.18,0.961 C 1.511,4.99 1.294,5.098 0.986,5.098 0.414,5.098 0.128,4.769 0.128,4.112 0.128,3.787 0.224,3.535 0.417,3.355 0.608,3.177 0.852,3.022 1.147,2.895 1.441,2.767 1.757,2.641 2.094,2.517 2.432,2.394 2.747,2.23 3.042,2.03 3.337,1.829 3.58,1.565 3.772,1.236 3.964,0.907 4.06,0.475 4.06,-0.063 4.06,-0.585 3.99,-1.028 3.849,-1.396 3.708,-1.763 3.503,-2.063 3.234,-2.299 2.966,-2.533 2.638,-2.704 2.254,-2.811 1.87,-2.918 1.43,-2.971 0.936,-2.971 c -0.394,0 -0.772,0.034 -1.134,0.103 -0.363,0.068 -0.683,0.191 -0.961,0.371 -0.277,0.179 -0.5,0.423 -0.666,0.73 -0.166,0.307 -0.249,0.7 -0.249,1.178 V 0 Z" style="fill:#ffffff;fill-opacity:1;fill-rule:nonzero;stroke:none" id="path237"></path></g><g id="g239" transform="translate(202.5151,255.0832)"><path d="M 0,0 H 2.152 V -3.611 H 2.178 L 4.188,0 H 6.507 L 4.112,-3.944 6.801,-9.145 H 4.38 L 2.728,-5.699 2.152,-6.583 V -9.145 H 0 Z" style="fill:#ffffff;fill-opacity:1;fill-rule:nonzero;stroke:none" id="path241"></path></g><g id="g243" transform="translate(209.8662,255.0832)"><path d="M 0,0 H 5.29 V -1.741 H 2.152 V -3.573 H 5.098 V -5.314 H 2.152 V -7.402 H 5.431 V -9.145 H 0 Z" style="fill:#ffffff;fill-opacity:1;fill-rule:nonzero;stroke:none" id="path245"></path></g><g id="g247" transform="translate(217.6025,253.342)"><path d="M 0,0 H -1.922 V 1.741 H 4.073 V 0 H 2.151 V -7.403 H 0 Z" style="fill:#ffffff;fill-opacity:1;fill-rule:nonzero;stroke:none" id="path249"></path></g><g id="g251" transform="translate(224.5693,247.5266)"><path d="m 0,0 h 0.653 c 0.435,0 0.739,0.117 0.91,0.353 0.17,0.235 0.256,0.514 0.256,0.838 0,0.461 -0.105,0.789 -0.314,0.987 C 1.296,2.374 1.025,2.473 0.691,2.473 H 0 Z m 0,3.906 h 0.589 c 0.385,0 0.656,0.099 0.814,0.295 0.158,0.196 0.236,0.457 0.236,0.781 0,0.112 -0.017,0.226 -0.051,0.346 C 1.554,5.448 1.496,5.554 1.416,5.648 1.334,5.743 1.228,5.819 1.095,5.879 0.962,5.938 0.798,5.969 0.602,5.969 H 0 Z M -2.152,7.557 H 1.191 C 1.977,7.557 2.606,7.371 3.081,7 3.554,6.628 3.791,6.062 3.791,5.302 3.791,4.765 3.661,4.308 3.4,3.933 3.14,3.557 2.792,3.326 2.356,3.24 V 3.216 C 2.527,3.189 2.711,3.145 2.907,3.08 3.104,3.017 3.287,2.903 3.458,2.741 3.629,2.579 3.77,2.357 3.881,2.075 3.992,1.794 4.047,1.417 4.047,0.948 4.047,0.675 4.009,0.391 3.932,0.097 3.855,-0.198 3.708,-0.471 3.49,-0.723 3.272,-0.975 2.967,-1.183 2.575,-1.344 2.181,-1.507 1.666,-1.588 1.025,-1.588 h -3.177 z" style="fill:#ffffff;fill-opacity:1;fill-rule:nonzero;stroke:none" id="path253"></path></g><g id="g255" transform="translate(232.7671,253.4182)"><path d="M 0,0 H -0.026 L -0.782,-4.072 H 0.78 Z M -1.307,1.665 H 1.382 L 3.663,-7.479 H 1.434 L 1.101,-5.737 H -1.09 l -0.319,-1.742 h -2.229 z" style="fill:#ffffff;fill-opacity:1;fill-rule:nonzero;stroke:none" id="path257"></path></g><g id="g259" transform="translate(237.1206,255.0832)"><path d="M 0,0 H 2.152 V -7.402 H 5.264 V -9.145 H 0 Z" style="fill:#ffffff;fill-opacity:1;fill-rule:nonzero;stroke:none" id="path261"></path></g><g id="g263" transform="translate(243.0503,255.0832)"><path d="M 0,0 H 2.152 V -7.402 H 5.264 V -9.145 H 0 Z" style="fill:#ffffff;fill-opacity:1;fill-rule:nonzero;stroke:none" id="path265"></path></g><g id="g267" transform="translate(205.1475,238.6476)"><path d="m 0,0 c 0,0.667 -0.056,1.152 -0.167,1.461 -0.11,0.307 -0.345,0.461 -0.704,0.461 -0.213,0 -0.381,-0.057 -0.505,-0.167 C -1.5,1.644 -1.594,1.462 -1.658,1.211 -1.722,0.958 -1.763,0.628 -1.78,0.218 c -0.017,-0.41 -0.026,-0.914 -0.026,-1.511 0,-0.684 0.009,-1.245 0.026,-1.685 0.017,-0.439 0.06,-0.788 0.129,-1.043 0.067,-0.256 0.168,-0.436 0.3,-0.539 0.132,-0.102 0.31,-0.152 0.531,-0.152 0.196,0 0.353,0.055 0.468,0.166 0.115,0.11 0.205,0.266 0.269,0.467 0.064,0.2 0.107,0.443 0.128,0.73 0.021,0.286 0.033,0.608 0.033,0.967 h 2.074 v -0.32 c 0,-0.495 -0.044,-0.952 -0.128,-1.37 C 1.938,-4.49 1.778,-4.854 1.543,-5.161 1.309,-5.469 0.982,-5.71 0.564,-5.886 0.145,-6.06 -0.397,-6.147 -1.062,-6.147 c -0.692,0 -1.235,0.122 -1.628,0.365 -0.393,0.243 -0.689,0.58 -0.89,1.011 -0.2,0.431 -0.326,0.94 -0.378,1.524 -0.051,0.586 -0.076,1.224 -0.076,1.915 0,0.589 0.023,1.164 0.071,1.723 0.046,0.559 0.172,1.058 0.377,1.499 0.205,0.439 0.521,0.794 0.948,1.062 0.427,0.27 1.02,0.403 1.78,0.403 C 0.09,3.355 0.815,3.13 1.319,2.677 1.824,2.224 2.075,1.461 2.075,0.385 V 0 Z" style="fill:#ffffff;fill-opacity:1;fill-rule:nonzero;stroke:none" id="path269"></path></g><g id="g271" transform="translate(208.1958,241.8234)"><path d="M 0,0 H 2.152 V -7.402 H 5.264 V -9.144 H 0 Z" style="fill:#ffffff;fill-opacity:1;fill-rule:nonzero;stroke:none" id="path273"></path></g><g id="g275" transform="translate(220.0308,235.7014)"><path d="m 0,0 c 0,-0.452 -0.042,-0.872 -0.122,-1.261 -0.082,-0.388 -0.231,-0.725 -0.448,-1.011 -0.218,-0.287 -0.524,-0.512 -0.916,-0.679 -0.393,-0.167 -0.901,-0.25 -1.524,-0.25 -0.624,0 -1.132,0.083 -1.525,0.25 -0.392,0.167 -0.697,0.392 -0.915,0.679 -0.218,0.286 -0.367,0.623 -0.448,1.011 C -5.98,-0.872 -6.02,-0.452 -6.02,0 v 6.122 h 2.152 v -6.748 c 0,-0.358 0.07,-0.64 0.211,-0.839 0.14,-0.201 0.356,-0.301 0.647,-0.301 0.29,0 0.505,0.1 0.646,0.301 0.141,0.199 0.212,0.481 0.212,0.839 V 6.122 H 0 Z" style="fill:#ffffff;fill-opacity:1;fill-rule:nonzero;stroke:none" id="path277"></path></g><g id="g279" transform="translate(223.3979,234.2678)"><path d="M 0,0 H 0.654 C 1.089,0 1.392,0.117 1.562,0.353 1.733,0.587 1.819,0.866 1.819,1.191 1.819,1.652 1.714,1.98 1.505,2.177 1.296,2.373 1.025,2.472 0.692,2.472 H 0 Z m 0,3.906 h 0.589 c 0.385,0 0.656,0.098 0.814,0.295 C 1.561,4.397 1.64,4.658 1.64,4.982 1.64,5.093 1.622,5.208 1.588,5.328 1.554,5.447 1.497,5.555 1.416,5.647 1.334,5.742 1.228,5.818 1.096,5.879 0.963,5.938 0.798,5.968 0.602,5.968 H 0 Z m -2.152,3.65 h 3.343 c 0.786,0 1.415,-0.185 1.89,-0.557 C 3.555,6.628 3.792,6.062 3.792,5.303 3.792,4.765 3.661,4.308 3.401,3.932 3.14,3.557 2.792,3.325 2.356,3.24 V 3.214 C 2.528,3.189 2.711,3.145 2.907,3.08 3.104,3.016 3.287,2.903 3.458,2.74 3.629,2.578 3.77,2.356 3.881,2.074 3.992,1.793 4.047,1.417 4.047,0.948 4.047,0.675 4.009,0.391 3.932,0.096 3.855,-0.198 3.708,-0.472 3.49,-0.724 3.272,-0.976 2.967,-1.183 2.574,-1.346 2.182,-1.507 1.666,-1.588 1.025,-1.588 h -3.177 z" style="fill:#ffffff;fill-opacity:1;fill-rule:nonzero;stroke:none" id="path281"></path></g><g id="g283" transform="translate(299.1094,348.424)"><path d="M 0,0 H 34.751 L -2.471,-14.904" style="fill:#1c0c43;fill-opacity:1;fill-rule:nonzero;stroke:none" id="path285"></path></g><g id="g287" transform="translate(299.4565,338.6935)"><path d="M 0,0 H 37.338 L -7.877,-15.213" style="fill:#1c0c43;fill-opacity:1;fill-rule:nonzero;stroke:none" id="path289"></path></g><g id="g291" transform="translate(295.7114,330.1603)"><path d="M 0,0 H 27.106 L -2.78,-12.742" style="fill:#1c0c43;fill-opacity:1;fill-rule:nonzero;stroke:none" id="path293"></path></g><g id="g295" transform="translate(295.8657,344.3698)"><path d="M 0,0 H 22.241 L -2.471,-9.923" style="fill:#0057a5;fill-opacity:1;fill-rule:nonzero;stroke:none" id="path297"></path></g><g id="g299" transform="translate(292.9312,336.3386)"><path d="M 0,0 H 30.272 L -0.772,-9.344" style="fill:#0057a5;fill-opacity:1;fill-rule:nonzero;stroke:none" id="path301"></path></g><g id="g303" transform="translate(291.0776,328.1525)"><path d="M 0,0 H 20.194 L -2.471,-9.383" style="fill:#0057a5;fill-opacity:1;fill-rule:nonzero;stroke:none" id="path305"></path></g><g id="g307" transform="translate(290.8848,341.4235)"><path d="m 0,0 c -0.317,-1.884 -0.661,-3.701 -1.026,-5.445 l 15.734,5.572 z m 10.142,-15.271 -12.608,-0.145 c -0.835,-2.232 -0.33,-4.03 -1.202,-5.539 z m -12.021,7.964 c -0.503,-2.07 -0.263,-4.008 -0.819,-5.798 l 21.541,5.794 z" style="fill:#ffffff;fill-opacity:1;fill-rule:nonzero;stroke:none" id="path309"></path></g><g id="g311" transform="translate(242.166,305.9728)"><path d="m 0,0 c 0,-13.307 -10.787,-24.088 -24.093,-24.088 -13.306,0 -24.093,10.781 -24.093,24.088 0,13.307 10.787,24.097 24.093,24.097 C -10.787,24.097 0,13.307 0,0" style="fill:#0057a5;fill-opacity:1;fill-rule:nonzero;stroke:none" id="path313"></path></g></g></g><g id="g315"><g id="g317"><g id="g323"><g id="g325"><path d="m 203.181,320.905 c -8.247,-8.225 -8.262,-21.578 -0.037,-29.823 v 0 c 8.225,-8.248 21.576,-8.264 29.825,-0.038 v 0 c 8.244,8.228 8.26,21.576 0.035,29.825 v 0 c -4.12,4.129 -9.525,6.195 -14.931,6.195 v 0 c -5.388,0 -10.777,-2.053 -14.892,-6.159" style="fill:url(#radialGradient341);stroke:none" id="path343"></path></g></g></g></g><g id="g345"><g id="g347" clip-path="url(#clipPath351)"><g id="g353" transform="translate(203.2344,320.9572)"><path d="M 0,0 C 0.468,0.463 0.959,0.909 1.471,1.325 3.276,1.214 4.864,0.585 5.908,-0.506 6.401,-1.022 6.9,-1.762 7.154,-2.782 c 2.263,0.429 4.625,0.668 7.051,0.702 l 0.012,8.171 c 0.216,0.008 0.43,0.015 0.648,0.015 0.218,0 0.432,-0.007 0.65,-0.021 L 15.502,-2.08 c 2.428,-0.041 4.79,-0.284 7.052,-0.722 0.257,1.021 0.754,1.756 1.252,2.275 1.055,1.088 2.638,1.716 4.443,1.823 C 28.758,0.873 29.246,0.43 29.716,-0.037 27.657,0.185 25.82,-0.31 24.739,-1.429 24.301,-1.885 24,-2.437 23.833,-3.071 c 3.931,-0.898 7.538,-2.359 10.659,-4.262 0.245,-0.638 0.462,-1.284 0.649,-1.943 -3.252,2.221 -7.153,3.918 -11.462,4.911 0.005,-0.634 0.109,-1.32 0.316,-2.058 0.448,-1.587 1.472,-3.5 2.562,-5.524 2.176,-4.056 4.643,-8.658 4.443,-13.631 -0.049,-1.276 -0.263,-2.657 -0.51,-3.71 -0.618,-0.688 -1.275,-1.329 -1.974,-1.926 0.612,1.486 1.104,3.518 1.189,5.688 0.182,4.616 -2.195,9.055 -4.292,12.966 -1.123,2.088 -2.18,4.063 -2.664,5.782 -0.29,1.026 -0.395,1.921 -0.369,2.697 -2.205,0.422 -4.508,0.661 -6.878,0.706 l -0.039,-32.679 c -0.218,-0.009 -0.433,-0.019 -0.65,-0.019 -0.221,0.006 -0.433,0.01 -0.649,0.019 l 0.04,32.679 C 11.835,-3.411 9.531,-3.641 7.325,-4.066 7.347,-4.843 7.243,-5.731 6.952,-6.756 c -0.49,-1.719 -1.553,-3.691 -2.68,-5.775 -2.107,-3.91 -4.497,-8.339 -4.325,-12.956 0.082,-2.172 0.521,-3.979 1.135,-5.466 -0.701,0.598 -1.358,1.244 -1.973,1.93 -0.244,1.053 -0.409,2.21 -0.458,3.485 -0.188,4.974 2.293,9.569 4.48,13.623 1.092,2.02 2.123,3.93 2.572,5.514 0.212,0.736 0.316,1.426 0.321,2.059 -4.314,-0.983 -8.216,-2.668 -11.475,-4.884 0.189,0.66 0.408,1.307 0.657,1.94 3.126,1.895 6.736,3.35 10.668,4.236 C 5.708,-2.413 5.407,-1.863 4.973,-1.403 3.904,-0.285 2.061,0.214 0,0" style="fill:#0057a5;fill-opacity:1;fill-rule:nonzero;stroke:none" id="path355"></path></g><g id="g357" transform="translate(483.7109,140.8303)"><path d="m 0,0 c 2.438,0 3.716,1.042 3.716,3.219 0,2.203 -1.421,3.054 -3.93,3.054 H -3.552 V 0 Z m -0.663,7.86 c 2.106,0 3.693,0.709 3.693,2.886 0,2.108 -1.208,2.795 -3.574,2.795 H -3.552 V 7.86 Z m -4.877,7.361 h 5.161 c 3.906,0 5.443,-1.563 5.443,-4.237 0,-1.776 -0.828,-3.101 -2.816,-3.693 V 7.173 C 4.331,6.841 5.822,5.657 5.822,3.102 5.822,0.308 3.906,-1.657 0.118,-1.657 H -5.54 Z" style="fill:#9d9c9c;fill-opacity:1;fill-rule:nonzero;stroke:none" id="path359"></path></g><g id="g361" transform="translate(495.4482,145.7775)"><path d="M 0,0 H 5.562 L 2.816,7.623 H 2.77 Z M 1.965,10.273 H 3.906 L 10.06,-6.604 H 7.978 L 6.202,-1.68 h -6.769 l -1.752,-4.924 h -1.918 z" style="fill:#9d9c9c;fill-opacity:1;fill-rule:nonzero;stroke:none" id="path363"></path></g><g id="g365" transform="translate(506.9727,140.0021)"><path d="M 0,0 V 1.681 C 1.278,1.017 2.936,0.567 4.71,0.567 c 2.604,0 3.741,1.208 3.741,3.055 0,1.728 -0.829,2.439 -2.865,3.101 L 3.929,7.291 C 1.562,8.07 0.236,9.279 0.236,11.858 c 0,2.606 1.752,4.475 5.255,4.475 2.014,0 3.197,-0.474 4.119,-0.923 v -1.681 c -0.994,0.45 -2.319,0.924 -4.189,0.924 -2.061,0 -3.22,-1.019 -3.22,-2.628 0,-1.611 0.616,-2.32 2.532,-2.959 L 6.391,8.521 c 2.486,-0.852 4.072,-1.917 4.072,-4.758 0,-2.935 -1.704,-4.9 -5.658,-4.9 C 2.723,-1.137 1.111,-0.64 0,0" style="fill:#9d9c9c;fill-opacity:1;fill-rule:nonzero;stroke:none" id="path367"></path></g><g id="g369" transform="translate(523.1846,147.7658)"><path d="M 0,0 7.054,8.285 H 9.208 L 2.344,0.213 9.516,-8.593 H 7.173 Z m -2.32,8.285 h 1.988 V -8.593 H -2.32 Z" style="fill:#9d9c9c;fill-opacity:1;fill-rule:nonzero;stroke:none" id="path371"></path></g><g id="g373" transform="translate(535.5615,156.051)"><path d="M 0,0 H 10.013 V -1.68 H 1.987 V -7.338 H 8.166 V -9.019 H 1.987 v -6.177 h 8.097 v -1.682 H 0 Z" style="fill:#9d9c9c;fill-opacity:1;fill-rule:nonzero;stroke:none" id="path375"></path></g><g id="g377" transform="translate(553.0742,154.3713)"><path d="M 0,0 H -5.16 V 1.68 H 7.126 V 0 H 1.965 V -15.198 H 0 Z" style="fill:#9d9c9c;fill-opacity:1;fill-rule:nonzero;stroke:none" id="path379"></path></g><g id="g381" transform="translate(568.623,140.8303)"><path d="m 0,0 c 2.438,0 3.717,1.042 3.717,3.219 0,2.203 -1.421,3.054 -3.93,3.054 H -3.551 V 0 Z m -0.662,7.86 c 2.106,0 3.692,0.709 3.692,2.886 0,2.108 -1.208,2.795 -3.574,2.795 H -3.551 V 7.86 Z m -4.877,7.361 h 5.16 c 3.907,0 5.445,-1.563 5.445,-4.237 0,-1.776 -0.829,-3.101 -2.817,-3.693 V 7.173 C 4.332,6.841 5.824,5.657 5.824,3.102 5.824,0.308 3.905,-1.657 0.119,-1.657 h -5.658 z" style="fill:#9d9c9c;fill-opacity:1;fill-rule:nonzero;stroke:none" id="path383"></path></g><g id="g385" transform="translate(580.3613,145.7775)"><path d="M 0,0 H 5.562 L 2.817,7.623 H 2.771 Z M 1.965,10.273 H 3.906 L 10.061,-6.604 H 7.978 L 6.202,-1.68 H -0.567 L -2.32,-6.604 h -1.917 z" style="fill:#9d9c9c;fill-opacity:1;fill-rule:nonzero;stroke:none" id="path387"></path></g><g id="g389" transform="translate(593.0703,156.051)"><path d="m 0,0 h 2.012 v -15.196 h 7.621 v -1.682 H 0 Z" style="fill:#9d9c9c;fill-opacity:1;fill-rule:nonzero;stroke:none" id="path391"></path></g><g id="g393" transform="translate(605.7783,156.051)"><path d="m 0,0 h 2.012 v -15.196 h 7.622 v -1.682 H 0 Z" style="fill:#9d9c9c;fill-opacity:1;fill-rule:nonzero;stroke:none" id="path395"></path></g><g id="g397" transform="translate(630.6514,140.8303)"><path d="m 0,0 c 2.438,0 3.717,1.042 3.717,3.219 0,2.203 -1.421,3.054 -3.929,3.054 H -3.55 V 0 Z m -0.662,7.86 c 2.106,0 3.692,0.709 3.692,2.886 0,2.108 -1.208,2.795 -3.575,2.795 H -3.55 V 7.86 Z m -4.877,7.361 h 5.159 c 3.906,0 5.447,-1.563 5.447,-4.237 0,-1.776 -0.83,-3.101 -2.819,-3.693 V 7.173 C 4.332,6.841 5.822,5.657 5.822,3.102 5.822,0.308 3.905,-1.657 0.118,-1.657 h -5.657 z" style="fill:#9d9c9c;fill-opacity:1;fill-rule:nonzero;stroke:none" id="path399"></path></g><g id="g401" transform="translate(642.3887,145.7775)"><path d="M 0,0 H 5.563 L 2.818,7.623 H 2.77 Z M 1.965,10.273 H 3.906 L 10.061,-6.604 H 7.978 L 6.203,-1.68 h -6.769 l -1.753,-4.924 h -1.918 z" style="fill:#9d9c9c;fill-opacity:1;fill-rule:nonzero;stroke:none" id="path403"></path></g><g id="g405" transform="translate(655.0977,156.051)"><path d="m 0,0 h 2.012 v -15.196 h 7.622 v -1.682 H 0 Z" style="fill:#9d9c9c;fill-opacity:1;fill-rule:nonzero;stroke:none" id="path407"></path></g><g id="g409" transform="translate(667.8076,156.051)"><path d="m 0,0 h 2.012 v -15.196 h 7.622 v -1.682 H 0 Z" style="fill:#9d9c9c;fill-opacity:1;fill-rule:nonzero;stroke:none" id="path411"></path></g></g></g><g id="g413"><g id="g415"><g id="g421"><g id="g423"><path d="m 525.159,423.374 c -3.986,-31.982 6.22,-36.009 -1.502,-58.563 v 0 c -3.302,-9.647 -6.778,-17.068 -0.125,-30.204 v 0 c 3.37,-6.655 22.34,-13.418 31.238,-14.72 v 0 c 25.263,-3.7 40.656,0.677 51.966,16.792 v 0 c 8.799,12.536 9.66,17.915 11.549,46.076 v 0 c 1.338,19.987 1.379,13.793 2.286,35.076 v 0 c 0.929,21.699 -10.87,42.003 -44.855,44.245 v 0 c -0.78,0.052 -1.605,0.078 -2.465,0.078 v 0 c -15.869,10e-4 -44.391,-9.058 -48.092,-38.78" style="fill:url(#linearGradient435);stroke:none" id="path437"></path></g></g></g></g><g id="g439"><g id="g441" clip-path="url(#clipPath445)"><g id="g447" transform="translate(576.7695,460.5598)"><path d="m 0,0 c -0.381,0.03 -0.76,0.058 -1.148,0.083 -14.36,0.945 -45.239,-6.961 -49.037,-37.447 -1.846,-14.808 -0.632,-23.394 0.442,-30.965 1.229,-8.707 2.203,-15.582 -2.008,-27.887 -0.243,-0.702 -0.485,-1.398 -0.724,-2.082 -3.002,-8.588 -5.373,-15.369 0.518,-27.006 3.062,-6.046 21.401,-12.663 30.168,-13.946 2.831,-0.415 5.549,-0.725 8.082,-0.928 20.236,-1.607 32.945,3.517 42.497,17.123 8.561,12.196 10.017,16.925 11.912,45.204 0.521,7.742 0.839,11.53 1.098,14.572 0.407,4.804 0.629,7.448 1.187,20.472 C 43.491,-31.029 39.75,-3.155 0,0 m -13.932,-143.044 h -0.005 c -2.592,0.206 -5.375,0.524 -8.271,0.95 -7.903,1.16 -28.429,7.825 -32.312,15.491 -6.446,12.73 -3.769,20.387 -0.67,29.252 0.238,0.683 0.478,1.369 0.716,2.067 3.99,11.653 3.06,18.228 1.884,26.553 -1.043,7.365 -2.339,16.536 -0.446,31.723 4.049,32.52 36.835,40.963 52.077,39.96 C -0.557,2.926 -0.166,2.896 0.227,2.864 16.062,1.609 28.03,-3.612 35.8,-12.653 c 6.683,-7.78 9.95,-18.201 9.439,-30.14 -0.559,-13.077 -0.786,-15.742 -1.197,-20.586 -0.257,-3.032 -0.575,-6.806 -1.094,-14.523 -1.911,-28.561 -2.87,-34.076 -11.804,-46.803 -10.211,-14.551 -23.695,-20.036 -45.076,-18.339" style="fill:#1d1d1b;fill-opacity:1;fill-rule:nonzero;stroke:none" id="path449"></path></g><g id="g451" transform="translate(582.3262,361.1686)"><path d="m 0,0 59.062,-5.561 -0.31,-14.278 -54.735,3.577 z" style="fill:#68c1ee;fill-opacity:1;fill-rule:nonzero;stroke:none" id="path453"></path></g><g id="g455" transform="translate(587.8037,344.8122)"><path d="m 0,0 52.069,-3.406 0.035,13.55 -55.548,5.235 z m 54.746,-5.107 -57.402,3.758 -4.795,19.423 62.569,-5.892 z" style="fill:#1d1d1b;fill-opacity:1;fill-rule:nonzero;stroke:none" id="path457"></path></g><g id="g459" transform="translate(602.791,282.0041)"><path d="m 0,0 c 0,0 2.127,6.722 13.14,2.349 11.009,-4.37 15.371,-4.835 17.989,-8.973 1.473,-2.322 3.169,-12.057 -5.96,-13.418 -3.502,-0.52 -10.273,0.974 -15.261,3.085 C 2.466,-13.806 -6.533,-8.045 0,0" style="fill:#2a3087;fill-opacity:1;fill-rule:nonzero;stroke:none" id="path461"></path></g><g id="g463" transform="translate(608.3867,284.5236)"><path d="m 0,0 c -3.56,-0.377 -4.389,-2.875 -4.398,-2.897 l -0.072,-0.23 -0.15,-0.185 c -1.696,-2.089 -2.293,-4.012 -1.826,-5.889 0.793,-3.189 4.682,-6.341 11.249,-9.122 4.968,-2.105 11.486,-3.461 14.581,-2.992 2.655,0.392 4.463,1.603 5.378,3.6 1.386,3.039 0.358,6.885 -0.289,7.9 -1.71,2.704 -4.327,3.651 -10.056,5.722 -2.094,0.758 -4.468,1.617 -7.341,2.757 C 4.319,-0.24 1.937,0.21 0,0 m 19.526,-23.015 c -4.162,-0.443 -10.965,1.076 -15.535,3.01 -7.426,3.145 -11.868,6.159 -12.871,10.198 -0.649,2.606 0.083,5.268 2.185,7.921 0.374,0.907 1.952,3.908 6.429,4.384 2.348,0.25 5.131,-0.256 8.272,-1.502 2.833,-1.126 5.188,-1.975 7.265,-2.726 5.901,-2.134 9.153,-3.311 11.324,-6.743 1.042,-1.645 2.012,-5.732 0.215,-9.668 -0.883,-1.933 -2.464,-4.164 -6.883,-4.823 -0.13,-0.02 -0.264,-0.037 -0.401,-0.051" style="fill:#1d1d1b;fill-opacity:1;fill-rule:nonzero;stroke:none" id="path465"></path></g><g id="g467" transform="translate(572.2373,362.4445)"><path d="m 0,0 -4.948,1.816 -15.701,-3.023 c 0,0 -11.291,-41.737 -13.066,-49.784 -1.505,-6.797 -2.824,-15.305 4.024,-28.529 6.832,-13.185 48.992,-66.348 48.992,-66.348 0,0 -0.192,-5.315 3.18,-12.744 3.404,-7.505 14.544,-13.216 22.415,-16.164 7.871,-2.953 20.186,2.188 21.899,4.887 1.715,2.7 -0.719,9.328 -3.19,12.136 -2.47,2.813 -18.837,14.082 -24.205,18.034 -5.363,3.952 -9.787,12.545 -15.179,20.576 -5.382,8.015 -23.93,45.946 -23.93,45.946 0,0 30.041,-17.532 36.958,-18.828 6.918,-1.295 12.788,-3.819 16.953,-2.552 4.164,1.268 8.424,12.046 2.038,16.596 -6.388,4.551 -41.827,24.861 -41.827,24.861 0,0 2.332,5.272 3.404,17.001 0.828,9.028 1.495,18.536 1.583,33.78 L -0.168,0.649 Z" style="fill:#ffffff;fill-opacity:1;fill-rule:nonzero;stroke:none" id="path469"></path></g><g id="g471" transform="translate(591.293,216.5773)"><path d="m 0,0 c 0,0 -0.169,-5.436 3.183,-12.741 3.436,-7.49 14.546,-13.217 22.418,-16.164 7.867,-2.951 20.185,2.191 21.896,4.89 1.712,2.698 -0.719,9.326 -3.187,12.134 -2.471,2.815 -18.84,14.082 -24.207,18.036 -5.365,3.954 -9.626,12.806 -15.18,20.576 -2.614,3.657 -8.135,15.023 -11.696,22.261 0,0 -2.748,-1.437 -13.785,-1.573 -11.036,-0.139 -19.943,5.752 -19.943,5.752 C -27.077,36.403 0,0 0,0" style="fill:#2a3087;fill-opacity:1;fill-rule:nonzero;stroke:none" id="path473"></path></g><g id="g475" transform="translate(628.2373,284.468)"><path d="m 0,0 c -4.558,3.248 -23.324,15.191 -33.32,21.327 0,0 2.942,-6.723 3.018,-15.697 0.081,-8.977 -3.966,-12.427 -3.966,-12.427 2.018,-0.987 13.587,-6.932 15.277,-7.248 6.915,-1.297 12.783,-3.82 16.95,-2.552 C 2.126,-15.327 6.386,-4.548 0,0" style="fill:#2a3087;fill-opacity:1;fill-rule:nonzero;stroke:none" id="path477"></path></g><g id="g479" transform="translate(552.5215,360.2556)"><path d="m 0,0 c -1.625,-6.462 -11.17,-41.859 -12.771,-49.121 -1.568,-7.093 -2.559,-15.057 3.891,-27.51 6.689,-12.909 48.412,-65.577 48.833,-66.109 l 0.344,-0.436 -0.019,-0.555 c -0.002,-0.044 -0.115,-5.096 3.046,-12.066 3.7,-8.152 17.449,-13.833 21.573,-15.379 7.243,-2.71 14.01,-1.955 20.1,4.29 2.603,2.665 -0.795,7.77 -3.048,10.335 -1.701,1.937 -11.42,8.847 -17.849,13.424 -2.517,1.791 -4.692,3.338 -6.116,4.388 -4.229,3.114 -7.804,8.799 -11.59,14.815 -1.274,2.02 -2.584,4.104 -3.95,6.138 -5.378,8.008 -23.271,44.569 -24.031,46.119 l -2.186,4.47 2.528,1.044 5.645,2.985 c 0.389,-0.227 -5.463,-5.679 -5.014,-5.936 9.129,-5.285 31.917,-17.527 35.578,-19.016 3.66,-1.483 6.964,-2.366 8.921,-2.866 4.079,-1.037 7.527,-1.008 10.016,-0.249 1.491,0.453 3.829,3.344 4.384,6.728 0.294,1.821 0.435,5.606 -2.424,7.644 -5.687,4.05 -36.266,20.919 -41.825,24.113 -0.553,0.317 -3.64,-1.453 -3.672,-1.438 l 1.592,2.628 0.552,1.244 c 0.021,0.046 2.252,5.258 3.285,16.527 0.859,9.376 1.458,18.521 1.566,32.352 L 19.161,1.341 18.958,0.782 15.285,2.487 Z m 73.788,-174.951 c -2.995,-0.318 -7.345,-0.02 -9.945,0.955 -5.639,2.116 -19.197,8.001 -23.259,16.955 -2.875,6.335 -3.269,11.205 -3.313,12.836 -4.214,5.323 -42.245,53.488 -48.823,66.19 -6.912,13.347 -5.773,22.247 -4.16,29.541 1.764,7.99 12.621,48.148 13.084,49.853 l 0.245,0.909 18.05,2.228 3.786,-0.707 0.078,0.522 20.856,-3.185 -0.007,-1.298 c -0.083,-14.671 -0.695,-24.168 -1.587,-33.908 -0.8,-8.722 -2.284,-13.957 -3.047,-16.196 6.155,-3.538 35.032,-20.164 40.843,-24.307 3.056,-2.179 3.837,-5.779 3.137,-10.062 -0.705,-4.327 -2.792,-8.341 -5.612,-9.197 -3.289,-1 -7.109,-0.355 -11.621,0.789 -1.913,0.488 -3.979,1.149 -6.048,1.722 -5.428,1.5 -24.514,11.608 -33.142,16.531 5.059,-10.24 17.47,-35.11 21.641,-41.328 1.39,-2.068 2.716,-4.176 3.999,-6.21 3.631,-5.77 7.061,-11.221 10.826,-13.994 1.405,-1.038 3.57,-2.577 6.081,-4.358 8.985,-6.398 16.212,-12.454 18.181,-14.314 4.773,-4.5 6.198,-10.127 3.511,-13.516 -4.354,-5.493 -6.878,-5.719 -13.754,-6.451" style="fill:#1d1d1b;fill-opacity:1;fill-rule:nonzero;stroke:none" id="path481"></path></g><g id="g483" transform="translate(548.1045,398.256)"><path d="m 0,0 c -0.222,-6.677 -1.453,-21.906 8.603,-30.092 10.05,-8.193 24.359,-11.424 31.704,-10.224 7.342,1.204 22.15,5.828 25.783,14.347 1.936,4.547 0.751,13.514 0.49,21.8 -0.229,7.232 0.631,15.054 0.636,19.103 0.012,5.796 -0.986,5.651 0.915,19.479 L 36.382,43.213 5.334,19.825 Z" style="fill:#fff5e6;fill-opacity:1;fill-rule:nonzero;stroke:none" id="path485"></path></g><g id="g487" transform="translate(548.7383,398.4133)"><path d="m 0,0 c -0.012,-0.347 -0.172,-1.618 -0.186,-2.006 -0.279,-7.168 -0.042,-19.955 8.943,-27.272 9.882,-8.048 20.375,-11.225 30.762,-10.188 12.579,1.251 21.731,6.823 25.142,14.828 1.366,3.206 1.248,8.034 0.895,14.267 -0.11,1.951 -0.181,4.26 -0.243,6.231 -0.106,3.31 -0.002,7.121 0.113,10.151 0.143,3.705 0.372,6.522 0.397,8.628 0.091,7.583 1.493,16.591 0.939,19.237 L 35.991,41.665 5.801,18.928 Z m 38.753,-40.94 c -7.71,-0.818 -21.397,1.421 -31.58,9.715 -9.954,8.108 -9.378,22.808 -9.108,29.872 0.021,0.439 0.038,0.851 0.048,1.235 l 0.005,0.145 0.039,0.139 5.446,20.246 31.905,24.036 27.863,-8.751 4.681,-1.026 c 0.022,-0.117 -0.682,-10.24 -0.717,-19.693 -0.007,-2.341 0.157,-5.835 0.01,-9.672 -0.114,-2.986 -0.248,-6.374 -0.147,-9.594 0.063,-1.941 0.177,-3.945 0.285,-5.886 0.374,-6.532 -0.136,-13.151 -1.731,-16.892 -4.017,-9.433 -19.227,-12.622 -25.89,-13.71 z" style="fill:#1d1d1b;fill-opacity:1;fill-rule:nonzero;stroke:none" id="path489"></path></g></g></g><g id="g491"><g id="g493"><g id="g499"><g id="g501"><path d="m 578.031,423.487 c 0,0 15.349,-3.102 12.634,-32.751 v 0 c 0,0 12.366,22.066 8.366,38.27 v 0 l -12.732,5.736 z" style="fill:url(#linearGradient509);stroke:none" id="path511"></path></g></g></g></g><g id="g513"><g id="g515" clip-path="url(#clipPath519)"><g id="g521" transform="translate(580.0518,424.1154)"><path d="M 0,0 C 3.82,-1.671 12.681,-8.794 10.899,-32.835 14.156,-25.504 20.236,-6.654 17.896,4 L 6.658,9.064 Z m 8.826,-39.142 0.539,5.872 c 1.352,14.758 -1.924,22.525 -4.909,26.445 -3.171,4.162 -6.693,4.96 -6.727,4.967 l -1.898,0.408 1.142,1.563 8.865,12.075 14.211,-6.403 0.15,-0.597 c 4.071,-16.494 -7.975,-38.263 -8.493,-39.183 z" style="fill:#1d1d1b;fill-opacity:1;fill-rule:nonzero;stroke:none" id="path523"></path></g><g id="g525" transform="translate(588.1357,400.2756)"><path d="m 0,0 c 0,0 -4.054,-1.849 -7.183,-1.759 -3.127,0.088 -9.154,2.173 -13.495,3.393 -4.338,1.218 -10.707,1.297 -10.707,1.297 0,0 3.164,2.925 6.579,2.946 C -21.39,5.9 -14.042,1.814 -7.855,0.756 -5.229,0.305 0,0 0,0" style="fill:#1d1d1b;fill-opacity:1;fill-rule:nonzero;stroke:none" id="path527"></path></g><g id="g529" transform="translate(571.376,397.7868)"><path d="m 0,0 c 3.679,1.001 7.531,-1.428 9.506,-7.05 1.977,-5.62 0.744,-10.698 0.744,-10.698 0,0 -2.839,-2.084 -8.856,-2.089 -5.781,-0.002 -8.282,2.209 -8.282,2.209 0,0 -0.184,3.215 -0.383,7.676 C -7.479,-5.485 -4.424,-1.204 0,0" style="fill:#ffffff;fill-opacity:1;fill-rule:nonzero;stroke:none" id="path531"></path></g><g id="g533" transform="translate(581.7158,380.0627)"><path d="m 0,0 c 0,0 1.567,17.578 -8.621,18.919 -10.402,1.37 -10.805,-10.75 -8.512,-18.799 0,0 -1.292,15.938 7.49,16.404 C -1.488,16.957 -1.243,6.354 0,0" style="fill:#1d1d1b;fill-opacity:1;fill-rule:nonzero;stroke:none" id="path535"></path></g><g id="g537" transform="translate(571.6621,382.7829)"><path d="m 0,0 c -1.312,0.141 -2.283,1.123 -2.17,2.198 0.113,1.074 1.269,1.83 2.581,1.694 0.978,-0.104 1.767,-0.675 2.055,-1.408 0.204,0.712 0.351,1.479 0.437,2.282 0.446,4.201 -1.063,7.804 -3.36,8.049 -2.3,0.24 -4.523,-2.967 -4.97,-7.171 -0.441,-4.2 1.064,-7.803 3.365,-8.048 1.369,-0.146 2.705,0.941 3.664,2.722 C 1.155,0.067 0.597,-0.059 0,0" style="fill:#3e70aa;fill-opacity:1;fill-rule:nonzero;stroke:none" id="path539"></path></g><g id="g541" transform="translate(572.1592,389.0158)"><path d="m 0,0 c -0.139,-1.299 -0.98,-2.272 -1.879,-2.179 -0.903,0.096 -1.52,1.222 -1.382,2.521 0.136,1.299 0.978,2.274 1.879,2.179 C -0.483,2.426 0.134,1.294 0,0" style="fill:#1d1d1b;fill-opacity:1;fill-rule:nonzero;stroke:none" id="path543"></path></g><g id="g545" transform="translate(520.9141,450.9225)"><path d="m 0,0 32.774,-44.271 30.401,21.631 c 0,0 31.58,-14.568 32.139,-14.641 0.564,-0.074 1.521,46.923 1.521,46.923 L 84.026,-17.44 58.416,-3.319 34.187,-23.331 Z" style="fill:#ffffff;fill-opacity:1;fill-rule:nonzero;stroke:none" id="path547"></path></g><g id="g549" transform="translate(521.3066,450.3283)"><path d="m 0,0 32.634,-41.917 29.994,21.339 0.746,-0.345 c 10.472,-4.83 25.619,-11.782 30.464,-13.931 0.749,7.215 0.307,17.518 2.39,43.553 L 84.473,-18.764 58.188,-4.267 33.81,-24.405 Z m 96.417,-35.943 c -0.108,-0.922 -0.233,-1.969 -1.451,-1.999 l -0.225,0.011 c -0.268,0.035 -0.771,0.099 -31.803,14.415 L 32.132,-45.435 -9.413,9.531 33.784,-21.071 57.862,-1.179 82.797,-14.928 98.612,22.513 Z" style="fill:#1d1d1b;fill-opacity:1;fill-rule:nonzero;stroke:none" id="path551"></path></g></g></g><g id="g553"><g id="g555"><g id="g561"><g id="g563"><path d="M 580.468,438.351 C 560.09,435.68 549.422,414.805 549.422,414.805 v 0 l 4.872,-4.917 29.742,20.835 30.699,-14.69 0.192,6.321 c 0,0 -15.575,16.184 -31.539,16.185 v 0 c -0.974,0 -1.947,-0.06 -2.92,-0.188" style="fill:url(#radialGradient571);stroke:none" id="path573"></path></g></g></g></g><g id="g575"><g id="g577" clip-path="url(#clipPath581)"><g id="g583" transform="translate(549.0566,397.8239)"><path d="m 0,0 c 0,0 -9.288,7.839 -15.092,4.759 -5.804,-3.084 -4.541,-11.4 -1.943,-16.604 2.597,-5.196 11.608,-13.729 16.39,-11.434 4.78,2.296 4.528,7.937 4.528,7.937 z" style="fill:#fff5e6;fill-opacity:1;fill-rule:nonzero;stroke:none" id="path585"></path></g><g id="g587" transform="translate(563.3857,362.0349)"><path d="m 0,0 c 0,0 -32.257,9.354 -36.433,10.548 -4.17,1.2 -14.007,0.156 -18.649,-3.868 -4.643,-4.024 -20.967,-18.15 -20.967,-18.15 l 11.938,-12.748 c 0,0 21.322,16.312 22.464,17.4 1.146,1.091 5.306,-0.057 9.337,-1.393 4.036,-1.336 23.225,-7.484 23.225,-7.484 0,0 5.092,1.696 7.387,6.474 C 0.597,-4.446 0,0 0,0" style="fill:#68c1ee;fill-opacity:1;fill-rule:nonzero;stroke:none" id="path589"></path></g><g id="g591"><g id="g593"></g><g id="g605"><g clip-path="url(#clipPath597)" opacity="0.199997" id="g603"><g transform="translate(520.9277,355.2038)" id="g601"><path d="m 0,0 c 2.69,1.061 6.783,0.175 10.816,-1.161 4.029,-1.333 22.543,-7.622 22.543,-7.622 0,0 2.454,0.44 5.575,3.663 -10.125,3.014 -27.688,8.3 -30.549,9.123 -4.172,1.192 -8.963,2.752 -15.08,-3.088 -2.806,-2.679 -11.51,-9.633 -17.45,-14.526 l 2.358,-2.519 c 0,0 20.319,15.549 21.787,16.13" style="fill:#1d1d1b;fill-opacity:1;fill-rule:nonzero;stroke:none" id="path599"></path></g></g></g></g><g id="g607" transform="translate(499.2744,337.9343)"><path d="m 0,0 c 0,0 -0.081,-8.225 0.913,-11.343 2.57,-8.063 1.026,-8.755 -1.431,-9.899 -2.457,-1.139 -4.934,2.194 -4.934,2.194 0,0 -6.423,-8.869 -12.143,-6.58 -1.743,0.698 -3.686,1.909 -3.866,5.29 -0.821,0.895 -3.847,-0.173 -5.561,2.545 -1.026,1.622 -0.55,5.017 -1.38,6.556 -0.659,1.366 -2.632,1.205 -3.309,2.4 -1.339,2.37 -0.906,4.42 1.088,7.275 6.885,9.845 18.685,14.192 18.685,14.192 0,0 4.96,-1.442 7.722,-4.247 C -1.454,5.573 0,0 0,0" style="fill:#fff5e6;fill-opacity:1;fill-rule:nonzero;stroke:none" id="path609"></path></g><g id="g611" transform="translate(469.0791,327.0607)"><path d="m 0,0 c -0.732,0.31 -1.634,0.649 -2.166,1.592 -1.913,3.388 -0.57,5.998 1.156,8.471 7.032,10.051 17.121,13.469 17.615,13.651 l 8.053,6.491 c 0.19,0.151 7.176,5.969 11.49,10.212 5.973,5.882 12.717,8.006 22.139,6.555 C 62.54,46.317 92.911,36.71 93.244,36.611 l 1.127,-1.639 c -0.332,0.1 -29.815,7.669 -33.932,8.845 C 56.804,44.859 46.845,46.821 40.21,40.515 36.479,36.969 24.875,26.99 20.519,23.412 L 17.937,22.018 C 15.27,20.886 6.185,16.577 0.601,8.593 -1.424,5.697 -1.308,4.222 -0.423,2.649 -0.31,2.452 0.656,1.625 1.077,1.449 1.845,1.125 2.963,0.735 4.26,0.901 3.851,-0.333 3.524,-1.969 3.64,-3.271 3.739,-4.384 3.853,-5.644 4.234,-6.25 c 0.883,-1.393 1.248,-1.229 2.54,-1.678 0.904,-0.307 2.284,-0.17 3.155,-0.228 0,0 -0.34,-0.037 -0.104,-1.533 0.231,-1.495 1.923,-3.575 3.173,-4.074 0.536,-0.216 1.16,-0.116 1.766,-0.053 3.607,0.383 8.611,3.122 9.24,6.17 l 0.693,3.592 0.738,-3.561 c 0.455,-1.5 2.134,-1.854 3.306,-1.729 0.142,0.011 0.274,0.051 0.405,0.113 2.064,0.96 3.573,1.775 1.541,8.821 -1.129,3.936 -0.705,10.415 -0.705,12.299 l 1.209,0.963 c 8.175,6.386 16.745,13.581 20.084,15.252 1.805,0.898 5.27,0.915 11.82,-1.25 3.323,-1.101 20.899,-7.094 22.184,-7.508 0,0 -2.496,0.294 -4.248,0.664 -1.745,0.369 -15.514,4 -19.509,5.322 -5.939,1.969 -7.48,1.852 -7.871,1.688 C 52.103,25.619 34.05,11.526 32.146,9.804 c 0,0 -1.241,-3.301 0.157,-9.889 1.398,-6.594 1.306,-9.84 -2.075,-11.411 -0.405,-0.187 -0.807,-0.303 -1.22,-0.344 -1.683,-0.18 -3.155,0.79 -4.119,1.664 -1.715,-2.342 -5.649,-5.686 -9.862,-6.134 -1.006,-0.108 -1.978,0.023 -2.891,0.388 -2.449,0.98 -3.647,3.333 -3.959,6.298 C 7.932,-9.525 7.373,-9.652 6.203,-9.566 5.031,-9.483 3.465,-9.73 2.112,-7.59 1.407,-6.476 1.271,-4.958 1.14,-3.495 c -0.088,0.959 0.429,2.203 1,2.98 z" style="fill:#1d1d1b;fill-opacity:1;fill-rule:nonzero;stroke:none" id="path613"></path></g><g id="g615" transform="translate(688.3477,335.3483)"><path d="m 0,0 c 0.31,-17.819 -13.885,-32.509 -31.699,-32.818 -17.818,-0.31 -32.512,13.88 -32.819,31.695 -0.312,17.816 13.878,32.511 31.693,32.825 C -15.004,32.007 -0.31,17.817 0,0" style="fill:#1d1d1b;fill-opacity:1;fill-rule:nonzero;stroke:none" id="path617"></path></g></g></g><g id="g619"><g id="g621"><g id="g627"><g id="g629"><path d="m 670.11,354.712 c -0.619,-0.671 -1.042,-1.484 -1.268,-2.411 v 0 c 5.102,-1.071 9.843,-2.806 14.056,-5.065 v 0 c -1.486,3.199 -3.566,6.186 -6.248,8.786 v 0 c -0.311,0.3 -0.626,0.587 -0.947,0.871 v 0 c -2.322,-0.088 -4.331,-0.835 -5.593,-2.181" style="fill:url(#radialGradient645);stroke:none" id="path647"></path></g></g></g></g><g id="g649"><g id="g651"><g id="g657"><g id="g659"><path d="m 634.854,355.347 c -2.603,-2.684 -4.583,-5.741 -5.964,-8.986 v 0 c 4.136,2.399 8.818,4.287 13.883,5.519 v 0 c -0.258,0.919 -0.706,1.713 -1.351,2.367 v 0 c -1.287,1.303 -3.318,1.996 -5.644,2.008 v 0 c -0.311,-0.299 -0.622,-0.597 -0.924,-0.908" style="fill:url(#radialGradient675);stroke:none" id="path677"></path></g></g></g></g><g id="g679"><g id="g681"><g id="g687"><g id="g689"><path d="m 644.908,350.445 c 0.05,-1.125 -0.081,-2.422 -0.477,-3.911 v 0 c -0.667,-2.512 -2.159,-5.401 -3.742,-8.453 v 0 c -2.962,-5.728 -6.316,-12.215 -5.951,-18.913 v 0 c 0.118,-2.202 0.497,-4.132 1.022,-5.831 v 0 c 5.589,-5.298 12.709,-7.985 19.862,-8.098 v 0 l -0.751,46.38 c -3.439,-0.111 -6.775,-0.507 -9.963,-1.174" style="fill:url(#radialGradient705);stroke:none" id="path707"></path></g></g></g></g><g id="g709"><g id="g711"><g id="g717"><g id="g719"><path d="m 637.747,357.961 c 2.009,-0.326 3.763,-1.128 5.009,-2.385 v 0 c 0.732,-0.74 1.475,-1.796 1.867,-3.275 v 0 c 3.275,0.686 6.697,1.09 10.218,1.202 v 0 l -0.174,10.802 c -6.023,-0.289 -11.96,-2.409 -16.92,-6.344" style="fill:url(#radialGradient735);stroke:none" id="path737"></path></g></g></g></g><g id="g739"><g id="g741"><g id="g747"><g id="g749"><path d="m 669.158,347.44 c 0.691,-2.286 2.224,-5.038 3.856,-7.946 v 0 c 3.262,-5.838 6.958,-12.449 6.794,-19.672 v 0 c -0.021,-0.98 -0.109,-2.004 -0.236,-2.974 v 0 c 6.143,8.024 7.609,18.438 4.451,27.597 v 0 c -4.481,2.708 -9.687,4.77 -15.373,5.977 v 0 c 0.023,-0.915 0.189,-1.91 0.508,-2.982" style="fill:url(#radialGradient765);stroke:none" id="path767"></path></g></g></g></g><g id="g769"><g id="g771"><g id="g777"><g id="g779"><path d="m 627.857,343.545 c -2.863,-9.255 -1.065,-19.609 5.325,-27.433 v 0 c -0.152,0.934 -0.265,1.909 -0.323,2.947 v 0 c -0.398,7.215 3.085,13.948 6.157,19.885 v 0 c 1.533,2.963 2.979,5.76 3.591,8.071 v 0 c 0.293,1.075 0.423,2.078 0.416,2.995 v 0 c -5.64,-1.39 -10.776,-3.612 -15.166,-6.465" style="fill:url(#radialGradient795);stroke:none" id="path797"></path></g></g></g></g><g id="g799"><g id="g801"><g id="g807"><g id="g809"><path d="m 657.508,305.271 c 7.153,0.342 14.197,3.265 19.615,8.76 v 0 c 0.448,1.744 0.76,3.745 0.802,5.83 v 0 c 0.152,6.709 -3.411,13.089 -6.553,18.709 v 0 c -1.682,3.006 -3.272,5.845 -4.017,8.327 v 0 c -0.446,1.479 -0.617,2.778 -0.6,3.906 v 0 c -3.21,0.555 -6.562,0.841 -10,0.849 v 0 z" style="fill:url(#radialGradient825);stroke:none" id="path827"></path></g></g></g></g><g id="g829"><g id="g831"><g id="g837"><g id="g839"><path d="m 656.725,353.533 c 3.524,10e-4 6.956,-0.294 10.25,-0.87 v 0 c 0.348,1.484 1.048,2.571 1.76,3.331 v 0 c 1.213,1.294 2.938,2.158 4.929,2.549 v 0 c -5.081,3.775 -11.091,5.7 -17.115,5.791 v 0 z" style="fill:url(#radialGradient855);stroke:none" id="path857"></path></g></g></g></g><g id="g859"><g id="g861" clip-path="url(#clipPath865)"><g id="g867" transform="translate(664.7139,366.9118)"><path d="m 0,0 c 0,0 5.154,1.331 9.651,-0.83 4.5,-2.161 4.228,-5.842 1.387,-6.788 0,0 -5.576,3.888 -10.291,5.041 z" style="fill:#fff5e6;fill-opacity:1;fill-rule:nonzero;stroke:none" id="path869"></path></g><g id="g871" transform="translate(666.2676,365.1579)"><path d="m 0,0 c 3.944,-1.114 8.204,-3.805 9.596,-4.727 0.577,0.313 0.92,0.804 0.957,1.392 C 10.61,-2.413 9.882,-1.05 7.663,0.018 6.447,0.603 5.05,0.966 3.513,1.098 1.976,1.229 0.603,1.105 -0.282,0.97 Z m 9.327,-6.978 -0.416,0.29 c -0.053,0.037 -5.482,3.794 -9.958,4.892 l -0.562,0.137 -1.198,4.124 1.004,0.26 C -1.704,2.748 0.688,3.358 3.686,3.099 5.466,2.944 7.1,2.517 8.53,1.828 11.184,0.554 12.686,-1.422 12.554,-3.46 12.461,-4.997 11.402,-6.284 9.806,-6.818 Z" style="fill:#1d1d1b;fill-opacity:1;fill-rule:nonzero;stroke:none" id="path873"></path></g><g id="g875" transform="translate(643.0586,363.2507)"><path d="M 0,0 C 0,0 3.575,6.537 7.379,6.721 9.594,6.83 14.754,5.671 16.526,1.53 18.307,-2.609 17.158,-3.543 14.967,-4.666 12.78,-5.794 8.646,-4.567 5.344,1.925 5.344,1.925 2.486,1.419 0,0" style="fill:#fff5e6;fill-opacity:1;fill-rule:nonzero;stroke:none" id="path877"></path></g><g id="g879" transform="translate(648.959,366.2902)"><path d="m 0,0 0.337,-0.659 c 1.937,-3.811 4.486,-6.2 6.815,-6.404 0.548,-0.046 1.055,0.037 1.459,0.25 1.798,0.922 2.623,1.347 1.093,4.911 C 8.412,1.109 4.953,2.436 2.385,2.655 2.073,2.686 1.775,2.692 1.527,2.678 -0.108,2.6 -1.858,0.913 -3.178,-0.767 c 1.355,0.443 2.373,0.626 2.448,0.64 z M 6.982,-9.062 C 4.07,-8.811 1.155,-6.344 -1.089,-2.261 -2.048,-2.494 -3.82,-3.007 -5.403,-3.913 l -3.081,-1.761 1.703,3.116 c 0.392,0.721 3.966,7.037 8.214,7.245 C 1.771,4.701 2.149,4.693 2.556,4.66 5.681,4.388 9.908,2.715 11.551,-1.114 13.467,-5.58 12.374,-7.14 9.526,-8.603 8.784,-8.981 7.906,-9.141 6.982,-9.062" style="fill:#1d1d1b;fill-opacity:1;fill-rule:nonzero;stroke:none" id="path881"></path></g><g id="g883" transform="translate(656.4443,368.9758)"><path d="m 0,0 c 0,0 3.897,1.812 7.209,1.338 3.313,-0.471 3.778,-4.941 3.848,-7.989 0.074,-3.049 -4.248,-4.546 -6.998,-1.789 0,0 1.1,4.337 -4.11,8.072 z" style="fill:#fff5e6;fill-opacity:1;fill-rule:nonzero;stroke:none" id="path885"></path></g><g id="g887" transform="translate(661.5752,360.9216)"><path d="m 0,0 c 0.735,-0.587 1.478,-0.774 1.997,-0.818 0.881,-0.077 1.74,0.196 2.3,0.718 C 4.593,0.178 4.941,0.661 4.923,1.38 4.814,5.829 3.839,8.126 1.935,8.4 0.014,8.671 -2.154,8.08 -3.478,7.622 -0.002,4.583 0.127,1.343 0,0 m 1.826,-2.82 c -1.354,0.118 -2.597,0.714 -3.61,1.722 l -0.403,0.407 0.142,0.552 c 0.037,0.143 0.82,3.753 -3.724,7.012 l -0.492,0.354 0.213,1.506 0.494,0.229 c 0.162,0.077 4.223,1.937 7.776,1.424 C 6.728,9.744 6.883,3.482 6.932,1.426 6.957,0.286 6.513,-0.774 5.674,-1.565 4.689,-2.487 3.289,-2.944 1.826,-2.82" style="fill:#1d1d1b;fill-opacity:1;fill-rule:nonzero;stroke:none" id="path889"></path></g><g id="g891" transform="translate(586.4473,325.1677)"><path d="m 0,0 -1.253,-0.446 c -0.069,-0.023 -0.128,-0.099 -0.13,-0.167 l -0.051,-2.934 h -0.008 l -2.332,2.116 c -0.049,0.04 -0.119,0.052 -0.193,0.026 l -1.012,-0.363 c -0.065,-0.023 -0.123,-0.097 -0.123,-0.167 l -0.096,-5.364 c -0.003,-0.067 0.052,-0.103 0.118,-0.083 l 1.252,0.449 c 0.069,0.025 0.125,0.096 0.127,0.168 l 0.054,2.926 0.006,0.005 2.328,-2.117 c 0.043,-0.04 0.113,-0.047 0.189,-0.023 l 1.02,0.363 c 0.069,0.025 0.125,0.099 0.126,0.169 l 0.097,5.361 C 0.122,-0.012 0.068,0.025 0,0" style="fill:#2a3087;fill-opacity:1;fill-rule:nonzero;stroke:none" id="path893"></path></g><g id="g895" transform="translate(577.6846,317.6984)"><path d="M 0,0 C -0.864,-0.305 -1.553,0.154 -1.534,1.023 -1.522,1.899 -0.806,2.854 0.059,3.162 0.92,3.468 1.609,3.009 1.595,2.14 1.579,1.264 0.867,0.307 0,0 m 0.086,4.666 c -1.69,-0.601 -3.085,-2.469 -3.115,-4.172 -0.031,-1.703 1.312,-2.595 3.002,-1.999 1.687,0.601 3.081,2.468 3.113,4.172 0.032,1.703 -1.311,2.597 -3,1.999" style="fill:#2a3087;fill-opacity:1;fill-rule:nonzero;stroke:none" id="path897"></path></g><g id="g899" transform="translate(574.6826,320.9084)"><path d="M 0,0 -1.816,-6.055 C -1.832,-6.111 -1.881,-6.164 -1.937,-6.18 l -1.18,-0.421 c -0.051,-0.021 -0.098,0 -0.113,0.046 l -0.793,2.538 -0.063,-0.021 -0.894,-3.136 c -0.012,-0.058 -0.065,-0.111 -0.119,-0.129 l -1.178,-0.421 c -0.055,-0.016 -0.102,0.002 -0.118,0.044 l -1.62,4.835 c -0.011,0.036 0.019,0.09 0.065,0.102 l 1.419,0.508 c 0.055,0.019 0.104,0 0.116,-0.048 l 0.866,-2.825 0.991,3.485 c 0.019,0.058 0.066,0.112 0.121,0.13 l 0.865,0.31 c 0.052,0.016 0.1,-0.003 0.115,-0.049 l 0.883,-2.817 0.975,3.478 c 0.019,0.057 0.065,0.111 0.12,0.127 l 1.421,0.506 C -0.016,0.079 0.014,0.046 0,0" style="fill:#2a3087;fill-opacity:1;fill-rule:nonzero;stroke:none" id="path901"></path></g></g></g><g id="g903"><g id="g905"><g id="g911"><g id="g913"><path d="m 572.216,335.924 c -3.104,-1.1 -5.691,-4.569 -5.749,-7.701 v 0 c -0.057,-3.134 2.438,-4.794 5.545,-3.691 v 0 l 8.042,2.855 0.206,11.394 z" style="fill:url(#linearGradient923);stroke:none" id="path925"></path></g></g></g></g><g id="g927"><g id="g929" clip-path="url(#clipPath933)"><g id="g935" transform="translate(587.1377,335.5632)"><path d="m 0,0 c -0.069,-3.89 -3.252,-8.151 -7.109,-9.52 -3.853,-1.368 -6.924,0.673 -6.853,4.563 0.069,3.887 3.254,8.148 7.108,9.521 C -3,5.933 0.069,3.888 0,0" style="fill:#2a3087;fill-opacity:1;fill-rule:nonzero;stroke:none" id="path937"></path></g><g id="g939" transform="translate(547.2471,372.6784)"><path d="m 0,0 c -6.108,-0.65 -14.234,7.95 -16.571,12.63 -2.737,5.475 -4.303,14.944 2.582,18.605 C -7.343,34.766 0.643,27.673 1.195,26.821 1.743,25.97 3.587,23.5 3.587,23.5 1.239,25.568 -8.577,30.699 -12.575,28.575 -17.558,25.929 -16.083,18.392 -13.879,13.975 -11.39,8.997 -3.312,2.343 0.514,3.226 3.294,3.866 3.829,4.437 4.493,6.057 5.154,7.68 5.718,9.887 5.718,9.887 5.729,9.614 7.428,3.205 1.814,0.508 1.239,0.233 0.631,0.066 0,0" style="fill:#1d1d1b;fill-opacity:1;fill-rule:nonzero;stroke:none" id="path941"></path></g><g id="g943" transform="translate(545.001,393.9225)"><path d="m 0,0 c 0,0 -3.913,2.588 -6.051,1.033 -2.142,-1.554 -1.116,-5.29 -0.055,-6.716 1.058,-1.424 3.982,-4.609 5.84,-4.345 0,0 -3.363,2.719 -4.553,6.02 C -6.007,-0.71 -2.508,0.571 0,0" style="fill:#1d1d1b;fill-opacity:1;fill-rule:nonzero;stroke:none" id="path945"></path></g><g id="g947"><g id="g949"></g><g id="g961"><g clip-path="url(#clipPath953)" opacity="0.199997" id="g959"><g transform="translate(622.6143,193.6818)" id="g957"><path d="m 0,0 c -7.87,2.951 -19.012,8.661 -22.416,16.169 -3.372,7.432 -3.181,12.74 -3.181,12.74 0,0 -42.16,53.164 -48.989,66.355 -6.851,13.221 -4.172,19.117 -2.67,25.912 1.429,6.469 5.788,19.899 8.929,31.563 l -5.152,0.865 c 0,0 -7.821,-27.646 -9.598,-35.694 -1.5,-6.8 -2.824,-15.305 4.026,-28.527 6.831,-13.187 48.989,-66.351 48.989,-66.351 0,0 -0.191,-5.313 3.183,-12.741 3.401,-7.507 14.546,-13.22 22.416,-16.169 7.867,-2.951 20.188,2.191 21.898,4.893 0.49,0.772 0.633,1.875 0.539,3.111 C 13.277,-0.142 5.537,-2.073 0,0" style="fill:#1d1d1b;fill-opacity:1;fill-rule:nonzero;stroke:none" id="path955"></path></g></g></g></g><g id="g963"><g id="g965"></g><g id="g977"><g clip-path="url(#clipPath969)" opacity="0.199997" id="g975"><g transform="translate(627.3105,269.5217)" id="g973"><path d="m 0,0 c 0,0 -11.006,2.57 -19.976,6.943 -8.969,4.377 -31.879,18.72 -31.879,18.72 0,0 -1.722,-1.756 -2.259,-2.327 -0.533,-0.575 -1.37,-1.654 -1.37,-1.654 0,0 20.772,-11.494 26.123,-14.346 5.35,-2.846 8.398,-4.588 12.434,-5.912 4.037,-1.32 9.892,-2.568 12.198,-2.561 C -2.422,-1.13 -1.5,-0.836 0,0" style="fill:#1d1d1b;fill-opacity:1;fill-rule:nonzero;stroke:none" id="path971"></path></g></g></g></g><g id="g979"><g id="g981"></g><g id="g993"><g clip-path="url(#clipPath985)" opacity="0.199997" id="g991"><g transform="translate(626.4941,346.3889)" id="g989"><path d="m 0,0 c 0,0 -0.09,-0.788 -0.753,-4.059 l -33.124,2.168 0.098,4.099 z" style="fill:#1d1d1b;fill-opacity:1;fill-rule:nonzero;stroke:none" id="path987"></path></g></g></g></g><g id="g995" transform="translate(566.0049,396.2082)"><path d="m 0,0 c 0,0 -2.386,1.483 -3.83,4.07 0,0 0.169,-4.345 3.358,-5.917 z" style="fill:#1d1d1b;fill-opacity:1;fill-rule:nonzero;stroke:none" id="path997"></path></g><g id="g999" transform="translate(598.9336,400.4841)"><path d="m 0,0 c 0,0 1.803,-0.481 3.259,0.506 1.454,0.989 3.83,3.559 5.801,5.995 3.133,3.874 5.577,3.954 5.577,3.954 0,0 -1.981,2.446 -3.564,1.468 C 9.49,10.95 6.587,5.713 3.673,2.963 2.438,1.793 0,0 0,0" style="fill:#1d1d1b;fill-opacity:1;fill-rule:nonzero;stroke:none" id="path1001"></path></g><g id="g1003" transform="translate(607.6475,402.9357)"><path d="m 0,0 c -1.762,0.698 -3.588,-1.657 -4.011,-7.118 -0.39,-5.004 -0.401,-11.621 -0.401,-11.621 0,0 1.98,-0.328 4.206,0.425 2.227,0.752 5.424,3.227 5.424,3.227 0,0 -0.31,2.815 -0.763,6.734 C 4,-4.44 2.116,-0.844 0,0" style="fill:#ffffff;fill-opacity:1;fill-rule:nonzero;stroke:none" id="path1005"></path></g><g id="g1007" transform="translate(603.1914,384.2136)"><path d="M 0,0 C 0,0 -2.667,17.641 3.395,20.072 7.869,21.87 9.67,10.802 9.63,3.649 c 0,0 -1.444,14.618 -5.339,13.982 C 1.01,17.105 -0.22,5.618 0,0" style="fill:#1d1d1b;fill-opacity:1;fill-rule:nonzero;stroke:none" id="path1009"></path></g><g id="g1011" transform="translate(608.7812,389.9382)"><path d="M 0,0 C -0.952,-0.049 -1.756,0.552 -1.793,1.331 -1.832,2.11 -1.086,2.782 -0.132,2.827 0.578,2.86 1.204,2.537 1.496,2.05 1.561,2.581 1.581,3.147 1.556,3.732 1.41,6.788 -0.064,9.198 -1.74,9.122 -3.415,9.041 -4.652,6.496 -4.504,3.441 c 0.143,-3.058 1.618,-5.473 3.296,-5.394 0.996,0.048 1.832,0.973 2.32,2.357 C 0.818,0.173 0.435,0.018 0,0" style="fill:#3e70aa;fill-opacity:1;fill-rule:nonzero;stroke:none" id="path1013"></path></g><g id="g1015" transform="translate(608.4492,394.4518)"><path d="m 0,0 c 0.048,-0.943 -0.449,-1.736 -1.103,-1.766 -0.654,-0.032 -1.225,0.71 -1.269,1.652 -0.044,0.944 0.451,1.736 1.105,1.766 C -0.613,1.685 -0.044,0.943 0,0" style="fill:#1d1d1b;fill-opacity:1;fill-rule:nonzero;stroke:none" id="path1017"></path></g><g id="g1019" transform="translate(610.208,402.0441)"><path d="m 0,0 c 0,0 1.595,1.22 1.938,2.824 0,0 -0.292,-3.051 -1.312,-4.326 z" style="fill:#1d1d1b;fill-opacity:1;fill-rule:nonzero;stroke:none" id="path1021"></path></g><g id="g1023" transform="translate(597.8018,381.9255)"><path d="M 0,0 C 0,0 2.514,-1.69 2.23,-2.612 1.943,-3.539 0.15,-6.383 0.15,-6.383 c 0,0 4.731,1.592 4.631,4.037 C 4.685,0.099 0,0 0,0" style="fill:#1d1d1b;fill-opacity:1;fill-rule:nonzero;stroke:none" id="path1025"></path></g><g id="g1027" transform="translate(598.0469,371.7604)"><path d="m 0,0 -19.192,-0.524 c 0,0 -0.687,-8.658 3.93,-9.398 C -7.405,-11.184 0,0 0,0" style="fill:#f3a1c6;fill-opacity:1;fill-rule:nonzero;stroke:none" id="path1029"></path></g><g id="g1031" transform="translate(579.46,371.0807)"><path d="m 0,0 c -0.076,-3.166 0.92,-7.98 3.594,-8.41 5.195,-0.836 10.437,5.08 13.261,9.122 z m 19.162,0.636 c -1.995,-2.392 -8.188,-11.664 -15.305,-11.1 -0.238,0.018 -0.476,0.046 -0.711,0.085 -5.6,0.897 -4.928,10.227 -4.898,10.624 l -2.685,0.978 25.399,0.656 1.766,0.075 z" style="fill:#1d1d1b;fill-opacity:1;fill-rule:nonzero;stroke:none" id="path1033"></path></g><g id="g1035"><g id="g1037"></g><g id="g1049"><g clip-path="url(#clipPath1041)" id="g1047"><g transform="translate(571.7715,374.1999)" id="g1045"><path d="m 0,0 c -0.058,-1.375 -2.35,-2.448 -5.119,-2.397 -2.771,0.05 -4.97,1.206 -4.912,2.58 0.057,1.375 2.35,2.448 5.12,2.398 C -2.141,2.53 0.058,1.375 0,0" style="fill:#f7c7b9;fill-opacity:1;fill-rule:nonzero;stroke:none" id="path1043"></path></g></g></g></g><g id="g1051"><g id="g1053"></g><g id="g1065"><g clip-path="url(#clipPath1057)" id="g1063"><g transform="translate(615.7578,381.8322)" id="g1061"><path d="m 0,0 c 0.312,-1.34 0.235,-2.706 -2.447,-3.397 -2.683,-0.691 -5.111,-0.166 -5.422,1.175 -0.312,1.34 1.61,2.987 4.293,3.678 C -0.894,2.147 -0.312,1.34 0,0" style="fill:#f7c7b9;fill-opacity:1;fill-rule:nonzero;stroke:none" id="path1059"></path></g></g></g></g></g></g></g></g></svg>