


<svg version="1.1" id="Layer_1" xmlns="http://www.w3.org/2000/svg" xmlns:xlink="http://www.w3.org/1999/xlink" x="0px" y="0px" width="336.224px" height="277.648px" viewBox="0 0 336.224 277.648" enable-background="new 0 0 336.224 277.648" xml:space="preserve">
<g>
	<polygon fill="#140F10" points="275.363,232.167 275.499,231.943 275.786,232.167 	"></polygon>
	<path fill="#FFFFFF" d="M68.788,161.23l-7.129-8.526l-2.952-3.552l-1.729-2.075c-6.325-7.829-9.1-15.383-8.012-21.847
		c0.894-5.286,4.302-9.807,10.134-13.44c3.739-2.318,8.204-2.964,12.458-3.428c0.296-0.028,2.954-0.362,3.94-2.46
		c0.476-1.058,0.469-2.053-0.01-2.825c-0.48-0.785-1.403-1.244-2.595-1.295c-15.647-0.551-36.509,6.849-43.815,29.507
		c-0.279,0.728-7.003,19.317,13.938,41.662c0.212,0.229,21.67,23.278,23.901,25.959c2.405,2.885,4.435,7.599,2.911,12.193
		c-1.654,4.992-7.188,8.743-15.999,10.847c-0.295,0.067-3.063,0.735-3.523,2.863c-0.194,0.873,0,1.671,0.547,2.243
		c0.741,0.77,1.854,0.887,2.593,0.764c9.636-0.995,17.214-3.529,24.546-8.211c5.571-3.556,12.468-11.053,13.564-20.486
		c0.101-0.877,0.151-1.752,0.151-2.622c0-6.574-2.904-12.886-8.674-18.805L68.788,161.23z"></path>
	<path fill="#FFFFFF" d="M99.179,142.833c2.995,1.583,7.239,0.751,11.954-2.344c4.681-3.123,7.348-7.793,6.647-11.625
		c-0.501-2.724-2.618-4.65-5.978-5.425l-0.768-0.178c-2.357-0.529-3.429-0.774-5.169-3.435c-0.372-0.838-0.076-1.289,0.186-1.539
		c0.804-0.771,2.91-1.013,4.533-0.183c3.012,1.496,6.317,0.396,8.033-1.465c1.38-1.495,1.669-3.368,0.752-4.886
		c-2.57-4.3-10.55-5.434-13.865-5.716l-6.963-0.045l-5.225,0.111c-2.121-0.023-4.059-0.729-5.76-1.353
		c-2.813-1.029-5.725-2.091-7.87,1.058c-0.43,0.65-0.598,1.314-0.598,1.993c0,0.992,0.35,2.017,0.709,3.079
		c0.431,1.279,0.914,2.714,0.914,4.405c0,1.656-0.466,3.561-1.91,5.794l-2.155,3.284c-2.85,4.296-5.314,8.008-7.758,14.268
		c-1.409,3.592-2.103,6.556-2.128,9.05l-0.003,0.273c0,2.615,1.477,7.319,7.226,8.275c0.18,0.017,7.057,0.399,11.256-4.053
		c2.429-2.57,3.381-6.148,2.84-10.635c-1.362-7.355-0.776-11.556,1.726-12.559c0.965-0.398,2.326-0.719,3.413-0.004
		c1.093,0.721,1.707,2.341,1.73,4.555C95.043,139.419,97.303,141.838,99.179,142.833"></path>
	<path fill="#FFFFFF" d="M152.764,177.37c-2.768-2.958-10.216-5.242-20.023-3.273c-2.888,0.575-5.68,1.841-8.402,3.115
		c0.989-3.784,6.985-26.78,6.985-26.78l0.032-0.274c0-0.237-0.077-0.472-0.228-0.664c-0.205-0.265-0.524-0.419-0.86-0.419h-19.961
		c-0.497,0-0.93,0.332-1.053,0.813l-0.313,1.218c-0.084,0.323-0.012,0.672,0.188,0.936c0.209,0.265,0.524,0.421,0.861,0.421
		c0.639,0,1.085,0.12,1.252,0.34c0.182,0.233,0.182,0.751,0.007,1.428L97.354,207.53c-2.005,7.68-3.104,11.914,1.588,16.656
		c2.496,2.735,8.45,3.967,19.266,3.967c7.212,0,16.771-0.667,21.359-3.838c6.325-4.186,8.65-6.152,11.278-16.238l3.622-13.892
		C156.422,186.687,157.31,182.207,152.764,177.37 M119.056,223.382c-2.49,0-4.039-0.437-4.729-1.333
		c-0.412-0.529-0.58-1.286-0.58-2.242c0-1.997,0.751-4.863,1.677-8.396l0.279-1.076v-0.001l5.116-19.625
		c2.041-7.827,4.573-10.466,10.05-10.466c2.948,0,4.651,0.502,5.529,1.635c1.104,1.431,1.112,4.138,0.033,8.283l-5.117,19.626
		C128.482,220.649,126.742,223.382,119.056,223.382"></path>
	<path fill="#FFFFFF" d="M175.762,223.903c-0.616,0-1.068-0.128-1.246-0.352c-0.18-0.237-0.188-0.752-0.013-1.414l12.307-47.223
		c0.089-0.325,0.019-0.671-0.189-0.938c-0.205-0.265-0.52-0.419-0.856-0.419h-20.133c-0.292,0-0.557-0.037-0.762,0.172
		c-0.204,0.211-0.294,0.343-0.288,0.641l0.049,1.924c0.018,0.591,0.309,0.474,0.897,0.474c0.618,0,1.071,0.129,1.251,0.354
		c0.178,0.235,0.184,0.75,0.01,1.41l-11.222,43.06c-0.407,1.555-1.354,2.311-2.893,2.311c-0.412,0-0.496-0.125-0.68,0.24
		l-0.81,1.608c-0.167,0.337-0.113,0.631,0.082,0.952c0.202,0.323,0.593,0.407,0.969,0.407h23.254c0.495,0,0.928-0.332,1.051-0.809
		l0.275-1.044c0.082-0.326,0.013-0.669-0.193-0.935C176.417,224.056,176.097,223.903,175.762,223.903"></path>
	<path fill="#FFFFFF" d="M329.489,177.183c-3.885-4.133-9.296-4.073-16.146-4l-2.95,0.021c-9.474,0-15.013,1.223-19.747,4.353
		c-1.369,0.924-5.932,4.36-7.407,10.004c-2.752,10.56,9.503,15.982,13.527,17.762l1.141,0.489
		c5.877,2.487,11.995,5.733,10.157,12.79c-0.896,3.444-4.938,5.298-8.292,5.298c-2.409,0-4.16-0.613-5.061-1.776
		c-0.771-0.998-0.804-2.263-0.585-3.117c0.824-3.159,0.603-5.492-0.67-7.144c-2.32-3.005-7.863-3.243-14.867-3.243
		c-0.479,0-0.892,0.307-1.037,0.759c-0.131,0.422-3.201,10.403,1.451,15.149c3.893,4.139,10.045,4.073,17.174,3.995l2.962-0.019
		c9.819,0,16.225-1.343,20.771-4.352c1.374-0.923,5.945-4.363,7.411-10.005c2.76-10.585-7.753-15.537-12.24-17.651l-1.221-0.592
		l-0.719-0.369c-3.539-1.822-11.831-6.078-9.938-13.33c0.556-2.122,3.32-4.4,6.554-4.4c2.14,0,3.584,0.469,4.291,1.38
		c0.763,0.988,0.595,2.458,0.319,3.516c-0.821,3.156-0.602,5.494,0.672,7.144c2.32,3.005,7.862,3.243,14.869,3.243
		c0.471,0,0.892-0.307,1.033-0.76C331.078,191.907,334.146,181.927,329.489,177.183"></path>
	<path fill="#FFFFFF" d="M270.976,223.903c-0.576,0-1.029-0.146-1.217-0.391c-0.196-0.248-0.205-0.736-0.04-1.375l18.692-71.706
		c0.084-0.325,0.016-0.669-0.19-0.938c-0.209-0.264-0.526-0.419-0.858-0.419h-19.967c-0.489,0-0.929,0.332-1.049,0.81
		c-0.146,0.574-0.213,0.989-0.213,1.304c0,0.391,0.099,0.628,0.245,0.833c0.206,0.275,0.529,0.441,0.877,0.441
		c0.765,0,1.019,0.178,1.096,0.283c0.042,0.051,0.131,0.204,0.131,0.55c0,0.223-0.038,0.525-0.143,0.935
		c0,0-4.119,15.806-5.204,19.974c-2.132-0.619-4.612-1.001-7.58-1.001c-9.202,0-15.248,0.974-19.561,3.075
		c-2.413-1.856-5.336-2.897-8.812-2.897c-5.407,0-9.796,3.029-13.304,6.453c0.635-2.438,1.284-4.92,1.284-4.92l0.032-0.274
		c0-0.237-0.074-0.472-0.227-0.664c-0.203-0.265-0.52-0.419-0.857-0.419h-20.138c-0.494,0-0.926,0.332-1.05,0.812
		c-0.311,1.194-0.148,1.642,0.077,1.951c0.202,0.281,0.532,0.448,0.878,0.448c0.618,0,1.072,0.129,1.246,0.354
		c0.178,0.235,0.188,0.749,0.014,1.41l-11.226,43.06c-0.407,1.555-1.352,2.311-2.89,2.311c-0.408,0-0.482-0.135-0.668,0.231
		l-0.828,1.62c-0.17,0.337-0.114,0.626,0.084,0.953c0.197,0.318,0.586,0.403,0.969,0.403h23.264c0.495,0,0.924-0.332,1.049-0.809
		l0.272-1.044l0.035-0.274c0-0.236-0.079-0.47-0.229-0.661c-0.204-0.266-0.521-0.419-0.856-0.419c-0.62,0-1.073-0.128-1.245-0.355
		c-0.093-0.121-0.145-0.32-0.145-0.569c0-0.238,0.042-0.522,0.126-0.842c0,0,8.725-33.464,8.88-34.068
		c1.688-1.825,3.191-2.781,4.451-2.751c1.495,0.037,2.662,1.461,3.597,2.606l0.214,0.256c3.122,3.787,8.357,5.771,13.022,4.936
		c3.23-0.58,5.617-1.813,7.528-3.264c-4.353,5.071-9.849,7.126-16.846,6.008c-0.554-0.09-1.077,0.252-1.221,0.79l-0.284,1.084
		l-1.987,8.606c-1.982,7.598-3.184,12.199,1.371,16.808c2.854,2.839,10.428,5.066,20.336,3.253c2.462-0.489,4.835-1.52,7.134-2.521
		c0,0,0.664-0.278,1.271-0.526c-0.311,1.196-0.625,2.401-0.625,2.401l-0.035,0.274c0,0.237,0.078,0.469,0.229,0.664
		c0.203,0.264,0.521,0.418,0.854,0.418h20.143c0.492,0,0.925-0.332,1.048-0.809c0.316-1.218,0.136-1.669-0.102-1.976
		C271.626,224.06,271.312,223.903,270.976,223.903 M245.503,184.222l0.461-0.772c1.803-3.026,3.357-5.645,8.956-5.645
		c2.651,0,4.304,0.481,5.062,1.463c1.389,1.804,0.288,5.981-1.103,11.274l-5.023,19.244c-2.065,7.929-4.511,10.474-10.051,10.474
		c-2.889,0-4.554-0.49-5.396-1.584c-1.089-1.406-1.085-4.138,0.009-8.343l4.62-17.711l1.778-7.096L245.503,184.222z M194.291,174.64
		h-0.138l-0.273-0.042C194.026,174.598,194.161,174.613,194.291,174.64"></path>
	<path fill="#FFFFFF" d="M178.837,169.925c5.888,0,11.927-4.782,13.457-10.657c0.791-3.024,0.313-5.87-1.348-8.013
		c-1.589-2.056-4.063-3.189-6.977-3.189c-5.894,0-11.934,4.779-13.464,10.653c-0.786,3.024-0.311,5.871,1.346,8.013
		C173.441,168.789,175.923,169.925,178.837,169.925"></path>
</g>
<g>
	<defs>
		<path id="SVGID_1_" d="M30.11,131.623c0,0-7.019,18.479,13.698,40.583c0,0,21.664,23.274,23.942,26.009
			c5.401,6.471,7.712,19.681-13.672,24.792c0,0-2.387,0.527-2.714,2.035c-0.326,1.473,1.075,1.856,1.901,1.708
			c9.259-0.947,16.754-3.337,24.144-8.058c9.773-6.229,21.492-23.154,4.851-40.241c0,0-5.063-5.821-14.295-16.512
			c-4.676-5.851-7.113-8.502-7.113-8.502c-1.612-1.969-3.213-3.868-4.71-5.669c-11.766-14.558-11.613-28.179,2.385-36.9
			c3.801-2.358,8.129-3.063,12.915-3.586c0,0,2.322-0.238,3.073-1.841c0.66-1.468,0.01-2.504-1.661-2.575
			c-0.507-0.018-1.021-0.027-1.541-0.027C56.947,102.838,37.165,109.749,30.11,131.623"></path>
	</defs>
	<clipPath id="SVGID_2_">
		<use xlink:href="#SVGID_1_" overflow="visible"></use>
	</clipPath>
	
		<linearGradient id="SVGID_3_" gradientUnits="userSpaceOnUse" x1="-1384.374" y1="1457.5776" x2="-1383.374" y2="1457.5776" gradientTransform="matrix(0 126.0146 126.0146 0 -183615.2031 174551.6094)">
		<stop offset="0" style="stop-color:#E5EC26"></stop>
		<stop offset="0.5674" style="stop-color:#E5EC26"></stop>
		<stop offset="0.6064" style="stop-color:#E1E323"></stop>
		<stop offset="0.6678" style="stop-color:#D6C81E"></stop>
		<stop offset="0.7437" style="stop-color:#C5A017"></stop>
		<stop offset="0.7753" style="stop-color:#BD8E14"></stop>
		<stop offset="1" style="stop-color:#84600E"></stop>
	</linearGradient>
	<rect x="23.092" y="102.838" clip-path="url(#SVGID_2_)" fill="url(#SVGID_3_)" width="75.811" height="124.06"></rect>
</g>
<g>
	<defs>
		<path id="SVGID_4_" d="M80.586,106.422c-2.001,2.985,4.296,7.24-0.875,15.247c-3.858,5.996-6.824,9.717-9.812,17.357
			c-1.426,3.645-2.025,6.442-2.05,8.669c0,0-0.307,6.364,6.314,7.464c1.47,0.093,14.457-0.108,12.84-13.485
			c-1.076-5.816-1.412-12.173,2.398-13.699c3.894-1.611,6.583,0.712,6.633,5.547c0.153,9.665,6.451,11.347,14.502,6.058
			c7.073-4.72,9.146-13.207,1.019-15.083c-2.934-0.69-4.421-0.745-6.595-4.075c-1.625-3.511,3.081-4.83,6.114-3.285
			c4.19,2.089,9.156-1.855,7.365-4.824c-1.935-3.237-7.839-4.748-13.026-5.198c-2.452-0.201-4.599-0.112-7.148-0.024
			c-1.472,0.051-3.077,0.103-4.952,0.097c-4.148-0.046-7.392-2.391-9.905-2.391C82.34,104.796,81.404,105.22,80.586,106.422"></path>
	</defs>
	<clipPath id="SVGID_5_">
		<use xlink:href="#SVGID_4_" overflow="visible"></use>
	</clipPath>
	
		<linearGradient id="SVGID_6_" gradientUnits="userSpaceOnUse" x1="-1384.374" y1="1457.5728" x2="-1383.374" y2="1457.5728" gradientTransform="matrix(0 126.0212 126.0212 0 -183591.25 174560.6875)">
		<stop offset="0" style="stop-color:#E5EC26"></stop>
		<stop offset="0.5674" style="stop-color:#E5EC26"></stop>
		<stop offset="0.6064" style="stop-color:#E1E323"></stop>
		<stop offset="0.6678" style="stop-color:#D6C81E"></stop>
		<stop offset="0.7437" style="stop-color:#C5A017"></stop>
		<stop offset="0.7753" style="stop-color:#BD8E14"></stop>
		<stop offset="1" style="stop-color:#84600E"></stop>
	</linearGradient>
	<rect x="67.543" y="104.796" clip-path="url(#SVGID_5_)" fill="url(#SVGID_6_)" width="52.688" height="50.456"></rect>
</g>
<g>
	<defs>
		<path id="SVGID_7_" d="M114.652,210.06l5.118-19.625c1.943-7.457,4.51-11.278,11.099-11.278c5.905,0,9.055,1.903,6.615,11.278
			l-5.119,19.625c-2.853,10.931-4.802,14.405-13.31,14.405C110.55,224.465,112.163,219.609,114.652,210.06 M110.306,150.158
			c0,0-0.271,1.043-0.315,1.22c1.217,0,3.03,0.349,2.311,3.122l-13.896,53.302c-2.083,7.981-2.813,11.455,1.309,15.62
			c2.698,2.955,10.16,3.644,18.494,3.644c8.158,0,16.718-0.863,20.743-3.644c6.29-4.165,8.353-6.07,10.847-15.62l3.621-13.891
			c1.946-7.465,2.636-11.455-1.445-15.799c-2.44-2.606-9.489-4.862-19.019-2.951c-3.482,0.694-6.88,2.431-10.245,3.996l7.557-28.999
			H110.306z"></path>
	</defs>
	<clipPath id="SVGID_8_">
		<use xlink:href="#SVGID_7_" overflow="visible"></use>
	</clipPath>
	
		<linearGradient id="SVGID_9_" gradientUnits="userSpaceOnUse" x1="-1384.374" y1="1457.5679" x2="-1383.374" y2="1457.5679" gradientTransform="matrix(0 126.0129 126.0129 0 -183546.5469 174549.1406)">
		<stop offset="0" style="stop-color:#E5EC26"></stop>
		<stop offset="0.5674" style="stop-color:#E5EC26"></stop>
		<stop offset="0.6064" style="stop-color:#E1E323"></stop>
		<stop offset="0.6678" style="stop-color:#D6C81E"></stop>
		<stop offset="0.7437" style="stop-color:#C5A017"></stop>
		<stop offset="0.7753" style="stop-color:#BD8E14"></stop>
		<stop offset="1" style="stop-color:#84600E"></stop>
	</linearGradient>
	<rect x="95.592" y="150.158" clip-path="url(#SVGID_8_)" fill="url(#SVGID_9_)" width="60.463" height="76.908"></rect>
</g>
<g>
	<defs>
		<path id="SVGID_10_" d="M165.63,174.641c0,0-0.225,0.865-0.102,1.044c1.388,0,2.994,0.518,2.313,3.121l-11.227,43.057
			c-0.674,2.602-2.549,3.125-3.94,3.125c-0.211,0.173-0.438,1.041-0.438,1.041h23.255c0,0,0.227-0.868,0.271-1.041
			c-1.387,0-2.985-0.523-2.312-3.125l12.313-47.222H165.63z"></path>
	</defs>
	<clipPath id="SVGID_11_">
		<use xlink:href="#SVGID_10_" overflow="visible"></use>
	</clipPath>
	
		<linearGradient id="SVGID_12_" gradientUnits="userSpaceOnUse" x1="-1384.374" y1="1457.5688" x2="-1383.374" y2="1457.5688" gradientTransform="matrix(0 126.0238 126.0238 0 -183519.4063 174564.2656)">
		<stop offset="0" style="stop-color:#E5EC26"></stop>
		<stop offset="0.5674" style="stop-color:#E5EC26"></stop>
		<stop offset="0.6064" style="stop-color:#E1E323"></stop>
		<stop offset="0.6678" style="stop-color:#D6C81E"></stop>
		<stop offset="0.7437" style="stop-color:#C5A017"></stop>
		<stop offset="0.7753" style="stop-color:#BD8E14"></stop>
		<stop offset="1" style="stop-color:#84600E"></stop>
	</linearGradient>
	<rect x="152.235" y="174.641" clip-path="url(#SVGID_11_)" fill="url(#SVGID_12_)" width="33.528" height="51.388"></rect>
</g>
<g>
	<defs>
		<path id="SVGID_13_" d="M310.393,174.292c-9.974,0-14.946,1.393-19.148,4.168c-2.311,1.559-5.772,4.859-6.954,9.375
			c-2.49,9.551,8.719,14.639,12.915,16.497c4.195,1.855,14.332,5.235,11.911,14.544c-1.086,4.165-5.774,6.11-9.346,6.11
			c-6.427,0-7.281-3.996-6.692-6.252c2.171-8.328-3.549-9.027-14.49-9.027c0,0-3.062,9.725,1.191,14.062
			c4.082,4.343,11.2,3.649,19.358,3.649c9.969,0,15.974-1.392,20.178-4.168c2.311-1.561,5.783-4.858,6.957-9.375
			c2.832-10.883-9.944-15.433-12.92-17.011c-2.978-1.581-13.466-6.248-11.197-14.93c0.719-2.776,4.029-5.211,7.602-5.211
			c6.425,0,6.252,3.995,5.66,6.256c-2.174,8.325,3.547,9.025,14.492,9.025c0,0,3.061-9.726-1.197-14.059
			c-3.09-3.293-7.329-3.693-12.747-3.693C314.229,174.251,312.372,174.292,310.393,174.292"></path>
	</defs>
	<clipPath id="SVGID_14_">
		<use xlink:href="#SVGID_13_" overflow="visible"></use>
	</clipPath>
	
		<linearGradient id="SVGID_15_" gradientUnits="userSpaceOnUse" x1="-1384.374" y1="1457.5688" x2="-1383.374" y2="1457.5688" gradientTransform="matrix(0 126.0189 126.0189 0 -183376.8594 174557.4531)">
		<stop offset="0" style="stop-color:#E5EC26"></stop>
		<stop offset="0.5674" style="stop-color:#E5EC26"></stop>
		<stop offset="0.6064" style="stop-color:#E1E323"></stop>
		<stop offset="0.6678" style="stop-color:#D6C81E"></stop>
		<stop offset="0.7437" style="stop-color:#C5A017"></stop>
		<stop offset="0.7753" style="stop-color:#BD8E14"></stop>
		<stop offset="1" style="stop-color:#84600E"></stop>
	</linearGradient>
	<rect x="275.526" y="174.251" clip-path="url(#SVGID_14_)" fill="url(#SVGID_15_)" width="57.443" height="53.86"></rect>
</g>
<g>
	<defs>
		<path id="SVGID_16_" d="M267.396,150.158c0,0-0.273,1.043-0.14,1.22c1.208,0,2.857,0.349,2.133,3.122l-5.473,21.006
			c-2.224-0.818-5.066-1.214-8.36-1.214c-8.313,0-15.025,0.757-19.619,3.176c-1.902-1.634-4.64-3.002-8.753-3.002
			c-6.188,0-11.209,4.34-15.422,9.199l2.352-9.023h-20.139c0,0-0.223,0.865-0.095,1.044c1.391,0,2.991,0.518,2.311,3.121
			l-11.226,43.057c-0.677,2.602-2.553,3.125-3.939,3.125c-0.221,0.173-0.444,1.041-0.444,1.041h23.264c0,0,0.229-0.868,0.271-1.041
			c-1.389,0-2.99-0.523-2.313-3.125l8.96-34.372c5.482-6.087,8.264-2.181,10.066,0c2.734,3.307,7.439,5.369,11.996,4.554
			c6.061-1.085,9.318-4.399,11.751-8.388c1.995-3.279,3.608-6.935,10.344-6.935c9.196,0,7.228,5.555,4.605,15.627l-4.618,17.711
			c-1.944,7.46-4.333,11.286-11.104,11.286c-5.901,0-8.879-1.915-6.436-11.286l4.617-17.711c0.239-0.911,0.754-2.82,0.969-3.65
			c-4.587,6.544-10.942,9.586-19.426,8.23c-0.092,0.357-0.187,0.698-0.282,1.077l-1.981,8.577
			c-1.951,7.469-3.039,11.634,1.088,15.803c2.612,2.602,9.894,4.68,19.366,2.95c3.485-0.696,6.929-2.602,10.202-3.821l-1.179,4.514
			h20.143c0,0,0.224-0.868,0.09-1.041c-1.217,0-2.983-0.523-2.308-3.125l18.695-71.705H267.396z"></path>
	</defs>
	<clipPath id="SVGID_17_">
		<use xlink:href="#SVGID_16_" overflow="visible"></use>
	</clipPath>
	
		<linearGradient id="SVGID_18_" gradientUnits="userSpaceOnUse" x1="-1384.374" y1="1457.5679" x2="-1383.374" y2="1457.5679" gradientTransform="matrix(0 126.021 126.021 0 -183450.3281 174560.4375)">
		<stop offset="0" style="stop-color:#E5EC26"></stop>
		<stop offset="0.5674" style="stop-color:#E5EC26"></stop>
		<stop offset="0.6064" style="stop-color:#E1E323"></stop>
		<stop offset="0.6678" style="stop-color:#D6C81E"></stop>
		<stop offset="0.7437" style="stop-color:#C5A017"></stop>
		<stop offset="0.7753" style="stop-color:#BD8E14"></stop>
		<stop offset="1" style="stop-color:#84600E"></stop>
	</linearGradient>
	<rect x="180.581" y="150.158" clip-path="url(#SVGID_17_)" fill="url(#SVGID_18_)" width="106.781" height="76.908"></rect>
</g>
<g>
	<defs>
		<path id="SVGID_19_" d="M171.556,158.991c-1.418,5.438,1.84,9.849,7.281,9.849c5.434,0,10.989-4.411,12.406-9.849
			c1.421-5.434-1.841-9.84-7.273-9.84C178.531,149.151,172.972,153.557,171.556,158.991"></path>
	</defs>
	<clipPath id="SVGID_20_">
		<use xlink:href="#SVGID_19_" overflow="visible"></use>
	</clipPath>
	
		<linearGradient id="SVGID_21_" gradientUnits="userSpaceOnUse" x1="-1384.374" y1="1457.5688" x2="-1383.374" y2="1457.5688" gradientTransform="matrix(0 126.0238 126.0238 0 -183507.0625 174564.3438)">
		<stop offset="0" style="stop-color:#E5EC26"></stop>
		<stop offset="0.5674" style="stop-color:#E5EC26"></stop>
		<stop offset="0.6064" style="stop-color:#E1E323"></stop>
		<stop offset="0.6678" style="stop-color:#D6C81E"></stop>
		<stop offset="0.7437" style="stop-color:#C5A017"></stop>
		<stop offset="0.7753" style="stop-color:#BD8E14"></stop>
		<stop offset="1" style="stop-color:#84600E"></stop>
	</linearGradient>
	<rect x="170.138" y="149.151" clip-path="url(#SVGID_20_)" fill="url(#SVGID_21_)" width="22.526" height="19.689"></rect>
</g>
<g>
	<path fill="#0A0A4F" d="M80.54,102.41c18.194-30.927,54.401-49.744,93.974-48.695c-0.056,0.319-0.141,0.654-0.236,0.961
		c-2.408,8.525-11.593,15.551-23.229,24.445c-10.219,7.803-21.916,16.77-32.542,29.213c1.045,0.656,2.024,1.382,2.845,2.266
		c10.402-12.154,21.88-20.96,31.909-28.624c12.164-9.299,21.769-16.631,24.485-26.31c0.181-0.615,0.305-1.201,0.442-1.805
		c7.022,0.403,14.121,1.429,21.221,3.127l-23.121,91.014c1.377-0.601,2.808-1.039,4.268-1.284l22.556-88.792
		c6.738,1.83,13.207,4.177,19.302,7.015c-0.18,0.631-0.387,1.274-0.528,1.95c-2.246,9.81,2.699,20.846,8.944,34.828
		c8.127,18.174,18.117,40.551,16.925,70.145c1.157-0.081,2.36-0.147,3.638-0.187c1.151-30.245-9.009-52.958-17.249-71.443
		c-5.988-13.362-10.699-23.915-8.729-32.543c0.087-0.394,0.195-0.797,0.304-1.166c33.396,16.686,55.803,47.518,59.607,80.964h1.299
		c0.787,0,1.541,0.187,2.254,0.477c0.016-0.29,0.053-0.583,0.069-0.871c-3.979-34.732-27.232-66.7-61.852-83.922
		c1.909-3.471,4.961-5.836,8.9-6.792c4.028-0.999,9.427-0.505,15.468,2.188c-2.43-2.107-4.961-4.112-7.584-6.005
		c-3.038-0.433-5.98-0.394-8.739,0.288c-5.068,1.243-8.954,4.277-11.325,8.74c-6.251-2.888-12.904-5.304-19.815-7.171l4.734-18.626
		c-0.624-0.17-1.229-0.362-1.858-0.522c-0.612-0.156-1.228-0.273-1.842-0.42l-4.733,18.625c-7.288-1.737-14.531-2.783-21.723-3.216
		c0.111-5.113-1.858-9.709-5.757-13.256c-1.955-1.769-4.292-3.133-6.883-4.176c-2.93,0.382-5.838,0.875-8.712,1.491
		c5.007,0.536,9.623,2.138,13.151,5.365c3.074,2.771,4.613,6.38,4.565,10.424c-38.29-1.114-73.599,15.828-93.539,44.236
		c-1.274,2.705-2.429,5.494-3.495,8.338c0.155,0.16,0.326,0.298,0.469,0.474C79.088,102.781,79.814,102.563,80.54,102.41"></path>
</g>
<g>
	<defs>
		<path id="SVGID_22_" d="M203.998,54.421c6.911,1.866,13.563,4.283,19.815,7.172c2.371-4.464,6.258-7.498,11.324-8.741
			c2.76-0.682,5.702-0.721,8.74-0.288c-10.335-7.468-22.151-13.228-35.146-16.769L203.998,54.421z"></path>
	</defs>
	<clipPath id="SVGID_23_">
		<use xlink:href="#SVGID_22_" overflow="visible"></use>
	</clipPath>
	
		<radialGradient id="SVGID_24_" cx="-1384.374" cy="1457.5688" r="1" gradientTransform="matrix(23.4266 -96.1436 -96.1436 -23.4266 172775.9219 -98869.7344)" gradientUnits="userSpaceOnUse">
		<stop offset="0" style="stop-color:#FFFFFF"></stop>
		<stop offset="0.0578" style="stop-color:#FDF8F3"></stop>
		<stop offset="0.1515" style="stop-color:#F7E6D2"></stop>
		<stop offset="0.2695" style="stop-color:#EFC8A2"></stop>
		<stop offset="0.4071" style="stop-color:#E49F68"></stop>
		<stop offset="0.5593" style="stop-color:#D86E2D"></stop>
		<stop offset="0.6629" style="stop-color:#CF4C0B"></stop>
		<stop offset="0.8072" style="stop-color:#B8420A"></stop>
		<stop offset="1" style="stop-color:#A13809"></stop>
	</radialGradient>
	<polygon clip-path="url(#SVGID_23_)" fill="url(#SVGID_24_)" points="198.064,60.147 206.233,26.622 249.812,37.241 
		241.643,70.766 	"></polygon>
</g>
<g>
	<defs>
		<path id="SVGID_25_" d="M165.937,32.829c2.591,1.043,4.929,2.408,6.883,4.176c3.897,3.547,5.869,8.145,5.757,13.257
			c7.19,0.432,14.434,1.478,21.722,3.215l4.734-18.624c-8.401-1.983-16.809-2.934-25.092-2.934
			C175.224,31.919,170.549,32.228,165.937,32.829"></path>
	</defs>
	<clipPath id="SVGID_26_">
		<use xlink:href="#SVGID_25_" overflow="visible"></use>
	</clipPath>
	
		<radialGradient id="SVGID_27_" cx="-1384.374" cy="1457.5688" r="1" gradientTransform="matrix(23.429 -96.1537 -96.1537 -23.429 172793.8594 -98880.0625)" gradientUnits="userSpaceOnUse">
		<stop offset="0" style="stop-color:#FFFFFF"></stop>
		<stop offset="0.0578" style="stop-color:#FDF8F3"></stop>
		<stop offset="0.1515" style="stop-color:#F7E6D2"></stop>
		<stop offset="0.2695" style="stop-color:#EFC8A2"></stop>
		<stop offset="0.4071" style="stop-color:#E49F68"></stop>
		<stop offset="0.5593" style="stop-color:#D86E2D"></stop>
		<stop offset="0.6629" style="stop-color:#CF4C0B"></stop>
		<stop offset="0.8072" style="stop-color:#B8420A"></stop>
		<stop offset="1" style="stop-color:#A13809"></stop>
	</radialGradient>
	<polygon clip-path="url(#SVGID_26_)" fill="url(#SVGID_27_)" points="160.979,52.269 168.128,22.927 209.99,33.127 202.841,62.469 
			"></polygon>
</g>
<g>
	<defs>
		<path id="SVGID_28_" d="M81.403,94.346c19.938-28.408,55.248-45.35,93.539-44.236c0.047-4.044-1.492-7.653-4.566-10.424
			c-3.529-3.227-8.145-4.829-13.152-5.365C124.522,41.331,96.097,63.213,81.403,94.346"></path>
	</defs>
	<clipPath id="SVGID_29_">
		<use xlink:href="#SVGID_28_" overflow="visible"></use>
	</clipPath>
	
		<radialGradient id="SVGID_30_" cx="-1384.374" cy="1457.5688" r="1" gradientTransform="matrix(23.4267 -96.1439 -96.1439 -23.4267 172776.375 -98870.0391)" gradientUnits="userSpaceOnUse">
		<stop offset="0" style="stop-color:#FFFFFF"></stop>
		<stop offset="0.0578" style="stop-color:#FDF8F3"></stop>
		<stop offset="0.1515" style="stop-color:#F7E6D2"></stop>
		<stop offset="0.2695" style="stop-color:#EFC8A2"></stop>
		<stop offset="0.4071" style="stop-color:#E49F68"></stop>
		<stop offset="0.5593" style="stop-color:#D86E2D"></stop>
		<stop offset="0.6629" style="stop-color:#CF4C0B"></stop>
		<stop offset="0.8072" style="stop-color:#B8420A"></stop>
		<stop offset="1" style="stop-color:#A13809"></stop>
	</radialGradient>
	<polygon clip-path="url(#SVGID_29_)" fill="url(#SVGID_30_)" points="67.597,90.982 86.647,12.795 188.795,37.685 169.744,115.872 
			"></polygon>
</g>
<g>
	<defs>
		<path id="SVGID_31_" d="M80.541,102.409c3.139-0.667,6.243,0.433,7.946,1.052c1.476,0.539,2.862,1.046,4.104,1.061l5.041-0.107
			l7.559,0.056c4.261,0.367,9.407,1.398,13.314,3.863c10.627-12.443,22.324-21.41,32.543-29.214
			c11.637-8.893,20.822-15.92,23.229-24.445c0.097-0.307,0.18-0.642,0.235-0.96c-1.048-0.028-2.101-0.042-3.144-0.042
			C133.029,53.671,98.252,72.303,80.541,102.409"></path>
	</defs>
	<clipPath id="SVGID_32_">
		<use xlink:href="#SVGID_31_" overflow="visible"></use>
	</clipPath>
	
		<radialGradient id="SVGID_33_" cx="-1384.374" cy="1457.5688" r="1" gradientTransform="matrix(23.4293 -96.1545 -96.1545 -23.4293 172795.4063 -98880.9453)" gradientUnits="userSpaceOnUse">
		<stop offset="0" style="stop-color:#FFFFFF"></stop>
		<stop offset="0.0578" style="stop-color:#FDF8F3"></stop>
		<stop offset="0.1515" style="stop-color:#F7E6D2"></stop>
		<stop offset="0.2695" style="stop-color:#EFC8A2"></stop>
		<stop offset="0.4071" style="stop-color:#E49F68"></stop>
		<stop offset="0.5593" style="stop-color:#D86E2D"></stop>
		<stop offset="0.6629" style="stop-color:#CF4C0B"></stop>
		<stop offset="0.8072" style="stop-color:#B8420A"></stop>
		<stop offset="1" style="stop-color:#A13809"></stop>
	</radialGradient>
	<polygon clip-path="url(#SVGID_32_)" fill="url(#SVGID_33_)" points="67.968,105.271 85.808,32.057 187.086,56.734 
		169.246,129.948 	"></polygon>
</g>
<g>
	<path fill="#0A0A4F" d="M117.584,103.118l-5.817-5.357c-0.291-0.269-0.483-0.352-0.811-0.359c-0.221-0.017-0.287-0.186-0.171-0.312
		l1.377-1.496l6.684,6.154L117.584,103.118z"></path>
	<path fill="#0A0A4F" d="M120.057,100.41l-5.561-5.629c-0.278-0.282-0.466-0.374-0.793-0.396c-0.22-0.028-0.271-0.209-0.156-0.321
		l1.405-1.388l5.315,1.514l1.839,0.577l-1.466-1.321l-3.194-3.232l1.315-1.3l6.39,6.466l-1.301,1.284l-5.431-1.581l-1.723-0.575
		l1.489,1.362l3.194,3.234L120.057,100.41z"></path>
	<path fill="#0A0A4F" d="M124.018,85.669c-1.282,1.135-0.979,2.734,0.373,4.261c1.483,1.675,3.028,1.939,4.251,0.857
		c0.623-0.553,1.066-1.241,1.283-2.304l0.903,0.383c0.392,0.166,0.118,1.7-1.368,3.017c-2.111,1.869-4.549,1.476-6.479-0.705
		c-1.901-2.146-2.021-4.608,0.038-6.431c0.838-0.742,1.661-1.207,2.563-1.445l0.951,1.073c0.154,0.174,0.072,0.34-0.166,0.364
		C125.497,84.809,124.753,85.018,124.018,85.669"></path>
	<path fill="#0A0A4F" d="M132.226,77.397l5.729,7.056l-1.444,1.174l-2.533-3.121l-2.578,2.096l2.535,3.12l-1.444,1.174l-4.988-6.142
		c-0.25-0.308-0.427-0.418-0.75-0.471c-0.216-0.05-0.249-0.234-0.124-0.335l1.576-1.281l2.321,2.858l2.577-2.096l-2.32-2.858
		L132.226,77.397z"></path>
	<path fill="#0A0A4F" d="M139.269,83.441l-4.845-6.255c-0.243-0.314-0.418-0.428-0.74-0.489c-0.215-0.054-0.242-0.239-0.116-0.337
		l4.341-3.362l0.835,1.078l-2.735,2.118l1.527,1.971l2.481-1.922l0.834,1.078l-2.48,1.922l1.541,1.99l2.933-2.272l0.828,1.069
		L139.269,83.441z"></path>
	<path fill="#0A0A4F" d="M148.587,70.549c1.738,2.265,1.646,4.806-0.691,6.601c-2.345,1.802-4.815,1.229-6.555-1.036
		c-1.74-2.265-1.649-4.79,0.697-6.592C144.375,67.727,146.846,68.283,148.587,70.549 M142.808,74.987
		c1.35,1.757,2.936,2.097,4.257,1.081c1.314-1.008,1.395-2.629,0.045-4.385c-1.349-1.757-2.935-2.097-4.249-1.089
		C141.539,71.61,141.459,73.23,142.808,74.987"></path>
	<path fill="#0A0A4F" d="M152.39,73.373l-5.056-6.082c-0.253-0.305-0.433-0.413-0.755-0.462c-0.217-0.047-0.251-0.231-0.129-0.333
		l1.519-1.263l5.165,1.962l1.78,0.73l-1.345-1.44l-2.904-3.494l1.422-1.183l5.808,6.987l-1.404,1.168l-5.273-2.038l-1.667-0.719
		l1.367,1.484l2.904,3.493L152.39,73.373z"></path>
</g>
<g>
	<defs>
		<path id="SVGID_34_" d="M177.745,55.665c-2.717,9.68-12.322,17.012-24.485,26.312c-10.03,7.663-21.508,16.47-31.91,28.623
			c0.548,0.587,1.043,1.229,1.462,1.934c0.831,1.375,1.237,2.888,1.237,4.405c0,2.228-0.877,4.463-2.58,6.312
			c-0.337,0.368-0.715,0.684-1.095,0.986c-0.436,0.32-0.889,0.614-1.354,0.883l0.031,0.033l-0.35,0.227
			c1.629,1.58,2.718,3.584,3.146,5.91c0.124,0.701,0.188,1.41,0.188,2.127c0,4.392-2.382,8.958-6.493,12.534
			c-0.526,0.442-1.063,0.872-1.64,1.278h0.017l-0.339,0.261h15.95c1.847,0,3.592,0.856,4.725,2.321
			c0.817,1.057,1.243,2.343,1.243,3.648c0,0.505-0.063,1.01-0.194,1.505c0,0-2.428,9.329-4.628,17.76l0.363-0.115
			c10.294-2.064,19.933-0.209,24.543,4.719c2.629,2.799,3.91,5.63,4.388,8.476c0.075-0.289,0.139-0.533,0.206-0.802
			c0.039,0.18,0.084,0.36,0.109,0.539c0.172-0.642,0.328-1.243,0.47-1.784c-0.265-0.387-0.475-0.883-0.577-1.662l-0.74-5.922
			c-0.035-0.272-0.054-0.515-0.054-0.737c0-1.167,0.477-1.75,1.421-2.829l0.22-0.198c1.064-0.707,2.406-0.436,3.865-0.436h1.648
			l-0.142-0.259h0.464c-1.984-3.18-2.546-7.181-1.501-11.186c1.05-4.021,3.594-7.587,6.876-10.16
			c1.259-0.949,2.627-1.742,4.052-2.366l23.121-91.013c-7.102-1.698-14.199-2.724-21.223-3.127
			C178.049,54.465,177.926,55.05,177.745,55.665"></path>
	</defs>
	<clipPath id="SVGID_35_">
		<use xlink:href="#SVGID_34_" overflow="visible"></use>
	</clipPath>
	
		<radialGradient id="SVGID_36_" cx="-1384.374" cy="1457.5688" r="1" gradientTransform="matrix(23.4246 -96.1353 -96.1353 -23.4246 172761 -98861.1797)" gradientUnits="userSpaceOnUse">
		<stop offset="0" style="stop-color:#FFFFFF"></stop>
		<stop offset="0.0578" style="stop-color:#FDF8F3"></stop>
		<stop offset="0.1515" style="stop-color:#F7E6D2"></stop>
		<stop offset="0.2695" style="stop-color:#EFC8A2"></stop>
		<stop offset="0.4071" style="stop-color:#E49F68"></stop>
		<stop offset="0.5593" style="stop-color:#D86E2D"></stop>
		<stop offset="0.6629" style="stop-color:#CF4C0B"></stop>
		<stop offset="0.8072" style="stop-color:#B8420A"></stop>
		<stop offset="1" style="stop-color:#A13809"></stop>
	</radialGradient>
	<polygon clip-path="url(#SVGID_35_)" fill="url(#SVGID_36_)" points="83.233,178.408 118.391,34.12 229.757,61.255 
		194.599,205.544 	"></polygon>
</g>
<g>
	<defs>
		<path id="SVGID_37_" d="M180.554,146.718c0.885-0.148,1.78-0.234,2.676-0.234c4.389,0,8.347,1.856,10.845,5.088
			c2.565,3.316,3.366,7.774,2.209,12.225c-0.839,3.216-2.629,6.136-4.987,8.503c0.612-0.211,1.27-0.328,1.941-0.328h20.137
			c1.646,0,3.144,0.763,4.266,1.948c2.622-1.278,5.547-2.12,8.806-2.12c3.506,0,6.64,0.788,9.399,2.268
			c3.233-1.141,7.113-1.859,11.908-2.205c1.192-29.594-8.798-51.97-16.925-70.145c-6.245-13.981-11.191-25.017-8.944-34.827
			c0.142-0.676,0.35-1.32,0.529-1.95c-6.095-2.838-12.565-5.185-19.303-7.015L180.554,146.718z"></path>
	</defs>
	<clipPath id="SVGID_38_">
		<use xlink:href="#SVGID_37_" overflow="visible"></use>
	</clipPath>
	
		<radialGradient id="SVGID_39_" cx="-1384.374" cy="1457.5688" r="1" gradientTransform="matrix(23.429 -96.1535 -96.1535 -23.429 172793.7031 -98879.9609)" gradientUnits="userSpaceOnUse">
		<stop offset="0" style="stop-color:#FFFFFF"></stop>
		<stop offset="0.0578" style="stop-color:#FDF8F3"></stop>
		<stop offset="0.1515" style="stop-color:#F7E6D2"></stop>
		<stop offset="0.2695" style="stop-color:#EFC8A2"></stop>
		<stop offset="0.4071" style="stop-color:#E49F68"></stop>
		<stop offset="0.5593" style="stop-color:#D86E2D"></stop>
		<stop offset="0.6629" style="stop-color:#CF4C0B"></stop>
		<stop offset="0.8072" style="stop-color:#B8420A"></stop>
		<stop offset="1" style="stop-color:#A13809"></stop>
	</radialGradient>
	<polygon clip-path="url(#SVGID_38_)" fill="url(#SVGID_39_)" points="153.841,167.559 184.387,42.196 275.658,64.435 
		245.112,189.798 	"></polygon>
</g>
<g>
	<defs>
		<path id="SVGID_40_" d="M225.412,67.691c-1.969,8.628,2.741,19.181,8.729,32.543c8.239,18.485,18.401,41.198,17.248,71.443
			c1.1-0.032,2.231-0.054,3.426-0.054c1.431,0,2.705,0.15,3.992,0.281l0.074-0.284l0.248,0.021
			c1.131-4.344,2.616-10.048,3.444-13.228c-0.164-0.178-0.406-0.265-0.548-0.461c-0.927-1.266-1.194-2.604-1.194-3.753
			c0-1.087,0.239-2.004,0.374-2.509c0.314-1.221,1.009-2.255,1.916-3.03c0.998-0.736,2.226-1.172,3.535-1.172h18.667
			c-3.806-33.446-26.213-64.279-59.608-80.964C225.608,66.894,225.499,67.297,225.412,67.691"></path>
	</defs>
	<clipPath id="SVGID_41_">
		<use xlink:href="#SVGID_40_" overflow="visible"></use>
	</clipPath>
	
		<radialGradient id="SVGID_42_" cx="-1384.374" cy="1457.5688" r="1" gradientTransform="matrix(23.4274 -96.1469 -96.1469 -23.4274 172781.7344 -98873.125)" gradientUnits="userSpaceOnUse">
		<stop offset="0" style="stop-color:#FFFFFF"></stop>
		<stop offset="0.0578" style="stop-color:#FDF8F3"></stop>
		<stop offset="0.1515" style="stop-color:#F7E6D2"></stop>
		<stop offset="0.2695" style="stop-color:#EFC8A2"></stop>
		<stop offset="0.4071" style="stop-color:#E49F68"></stop>
		<stop offset="0.5593" style="stop-color:#D86E2D"></stop>
		<stop offset="0.6629" style="stop-color:#CF4C0B"></stop>
		<stop offset="0.8072" style="stop-color:#B8420A"></stop>
		<stop offset="1" style="stop-color:#A13809"></stop>
	</radialGradient>
	<polygon clip-path="url(#SVGID_41_)" fill="url(#SVGID_42_)" points="199.205,165.998 226.911,52.292 309.562,72.431 
		281.855,186.137 	"></polygon>
</g>
<g>
	<defs>
		<path id="SVGID_43_" d="M235.995,56.381c-3.94,0.955-6.991,3.321-8.901,6.792c34.618,17.221,57.872,49.189,61.853,83.922
			c1.942-34.151-12.396-66.748-37.485-88.526c-4.159-1.854-8.013-2.666-11.324-2.666C238.638,55.903,237.25,56.069,235.995,56.381"></path>
	</defs>
	<clipPath id="SVGID_44_">
		<use xlink:href="#SVGID_43_" overflow="visible"></use>
	</clipPath>
	
		<radialGradient id="SVGID_45_" cx="-1384.374" cy="1457.5688" r="1" gradientTransform="matrix(23.428 -96.1495 -96.1495 -23.428 172786.4063 -98875.7891)" gradientUnits="userSpaceOnUse">
		<stop offset="0" style="stop-color:#FFFFFF"></stop>
		<stop offset="0.0578" style="stop-color:#FDF8F3"></stop>
		<stop offset="0.1515" style="stop-color:#F7E6D2"></stop>
		<stop offset="0.2695" style="stop-color:#EFC8A2"></stop>
		<stop offset="0.4071" style="stop-color:#E49F68"></stop>
		<stop offset="0.5593" style="stop-color:#D86E2D"></stop>
		<stop offset="0.6629" style="stop-color:#CF4C0B"></stop>
		<stop offset="0.8072" style="stop-color:#B8420A"></stop>
		<stop offset="1" style="stop-color:#A13809"></stop>
	</radialGradient>
	<polygon clip-path="url(#SVGID_44_)" fill="url(#SVGID_45_)" points="206.119,141.984 230.669,41.229 311.863,61.014 
		287.313,161.768 	"></polygon>
</g>
<g>
	<path fill="#0A0A4F" d="M320.749,232.185c0.374-0.216,0.764-0.422,1.118-0.657c1.767-1.19,7.538-5.548,9.443-12.847
		c0.418-1.609,0.628-3.169,0.628-4.676c0-4.826-2.383-9.069-6.651-12.818c1.275,0.035,2.517,0.088,3.88,0.088
		c2.606,0,4.911-1.694,5.694-4.177c0.692-2.194,3.808-13.478-2.625-20.035c-5.278-5.617-12.274-5.539-19.686-5.457l-2.897,0.02
		c-10.532,0-16.822,1.447-22.438,5.161c-0.163,0.108-0.393,0.276-0.621,0.44c3.232-12.396,5.805-22.26,5.805-22.26
		c0.129-0.496,0.193-1.004,0.193-1.509c0-1.305-0.431-2.588-1.245-3.649c-1.13-1.461-2.874-2.317-4.725-2.317h-19.966
		c-1.307,0-2.533,0.434-3.533,1.172c-0.911,0.772-1.6,1.806-1.919,3.027c-0.134,0.506-0.372,1.421-0.372,2.509
		c0,1.148,0.268,2.489,1.194,3.751c0.146,0.198,0.383,0.289,0.552,0.463c-0.83,3.184-2.315,8.884-3.448,13.23
		c-0.08-0.009-0.164-0.016-0.245-0.024c-0.024,0.093-0.052,0.192-0.075,0.286c-1.293-0.133-2.562-0.28-3.994-0.28
		c-8.276,0-14.283,0.794-18.971,2.442c-2.756-1.48-5.89-2.268-9.4-2.268c-3.256,0-6.18,0.845-8.804,2.119
		c-1.121-1.181-2.618-1.944-4.263-1.944h-20.141c-0.675,0-1.327,0.117-1.939,0.324c2.355-2.365,4.148-5.29,4.985-8.499
		c1.16-4.454,0.356-8.91-2.209-12.228c-2.493-3.232-6.448-5.087-10.843-5.087c-3.908,0-7.782,1.47-10.992,3.883
		c-3.283,2.573-5.828,6.139-6.875,10.16c-1.045,4.002-0.486,8.005,1.5,11.185c0.059,0.092,0.098,0.178,0.151,0.262h-2.122
		c-1.457,0-2.801-0.271-3.868,0.435c-0.069,0.067-0.147,0.12-0.213,0.197c-0.953,1.078-1.425,1.66-1.425,2.827
		c0,0.225,0.019,0.467,0.052,0.739l1.053,6.773c0.045,0.272,0.183,1.318,0.089,1.676c-0.148,0.569-0.739,0.466-0.83,0.105
		c-0.601-2.483-1.865-4.956-4.164-7.398c-4.614-4.928-14.25-6.782-24.543-4.717c-0.127,0.024-0.238,0.081-0.361,0.111
		c2.195-8.43,4.627-17.756,4.627-17.756c0.131-0.496,0.193-1.004,0.193-1.509c0-1.305-0.43-2.588-1.247-3.646
		c-1.13-1.464-2.872-2.32-4.72-2.32h-15.951c0.121-0.081,0.221-0.177,0.338-0.262h-0.017c0.578-0.405,1.115-0.838,1.64-1.277
		c4.113-3.579,6.494-8.145,6.494-12.536c0-0.715-0.062-1.426-0.19-2.128c-0.427-2.324-1.513-4.324-3.145-5.905
		c0.122-0.071,0.232-0.157,0.353-0.232l-0.033-0.031c0.466-0.269,0.916-0.564,1.354-0.883c0.381-0.304,0.756-0.62,1.096-0.987
		c1.704-1.847,2.58-4.086,2.58-6.31c0-1.516-0.407-3.029-1.238-4.409c-3.403-5.689-11.464-7.525-17.621-8.057l-7.557-0.058
		l-5.044,0.107c-1.241-0.016-2.629-0.521-4.102-1.058c-2.097-0.768-6.326-2.304-10.112-0.305c-1.391-1.758-3.507-2.849-6.007-2.957
		c-17.375-0.606-40.485,7.631-48.646,32.826c-0.267,0.736-1.449,4.312-1.449,9.993c0,8.708,2.867,22.084,16.446,36.567
		c8.646,9.29,22.113,23.831,23.708,25.748c1.172,1.407,2.308,3.583,2.308,5.76c0,0.594-0.087,1.188-0.279,1.769
		c-1.08,3.256-5.517,5.966-12.5,7.637c-0.613,0.135-1.26,0.352-1.895,0.625c-1.85-1.961-4.597-2.951-5.881-3.411
		c-0.633-0.227-1.289-0.463-1.944-0.727c2.271-1.791,3.977-3.39,5.269-4.632l0.373-0.36c1.521-1.454,4.693-4.493,4.693-8.204
		c0-0.879-0.177-1.794-0.598-2.736c-2.082-4.68-7.408-4.283-9.16-4.154c-2.985,0.241-5.476,0.534-7.562,0.821
		c0.646-2.071,1.825-5.847,1.825-5.847c0.356-1.423,0.533-2.732,0.533-3.921c0-2.837-1.02-5.004-3.051-6.456
		c-2.87-2.056-6.413-1.749-10.52,0.915c-1.618,1.087-3.114,2.324-4.467,3.545c-0.206-1.064-0.471-2.401-0.471-2.401
		c-0.682-3.979-1.454-8.491-6.018-9.532c-2.454-0.488-4.768,0.083-6.672,1.585c-5.049,3.986-6.164,14.346-6.383,20.17
		c-0.229,6.022,0.498,17.483,7.954,26.528c5.722,6.932,14.193,11.041,25.188,12.211c2.409,0.264,8.366,0.633,12.931-1.2
		l-11.086,44.325h283.727l-32.555-26.404L320.749,232.185z M71.845,124.967c-2.879,4.339-5.604,8.443-8.241,15.192
		c-1.264,3.236-2.019,6.087-2.31,8.658l-1.293-1.555c-5.379-6.659-7.798-12.876-6.948-17.917c0.647-3.844,3.304-7.248,7.896-10.108
		c2.587-1.606,5.776-2.218,10.405-2.718c0.962-0.098,2.029-0.365,3.071-0.81l0.009,0.033c0.382,1.133,0.671,1.988,0.671,2.863
		c0,0.909-0.31,1.841-1.142,3.13L71.845,124.967z M95.516,195.706c-0.827-5.291-3.39-11.541-9.525-17.914l-11.571-13.37
		c2.765-0.086,9.144-0.828,13.637-5.587c2.056-2.179,4.313-5.882,4.315-11.648c1.178,1.549,2.528,2.597,3.79,3.266
		c1.561,0.823,4.176,1.688,7.748,1.178c-0.036,0.114-0.088,0.217-0.117,0.335l-0.315,1.215c-0.123,0.479-0.183,0.962-0.183,1.443
		c0,1.313,0.444,2.61,1.259,3.676c0.157,0.207,0.405,0.303,0.59,0.487C103.458,165.242,98.83,183.005,95.516,195.706"></path>
	<path fill="#FFFFFF" d="M68.794,161.23l-7.133-8.526l-2.947-3.549l-1.733-2.078c-6.322-7.826-9.096-15.383-8.007-21.844
		c0.89-5.286,4.299-9.808,10.13-13.443c3.739-2.316,8.205-2.964,12.458-3.428c0.295-0.028,2.954-0.359,3.938-2.458
		c0.478-1.055,0.472-2.055-0.004-2.824c-0.48-0.784-1.402-1.247-2.597-1.296c-15.647-0.549-36.51,6.85-43.815,29.505
		c-0.278,0.731-7,19.317,13.941,41.659c0.21,0.232,21.666,23.282,23.897,25.962c2.406,2.885,4.436,7.601,2.911,12.193
		c-1.654,4.992-7.188,8.743-16,10.847c-0.296,0.067-3.061,0.735-3.524,2.864c-0.193,0.873,0.003,1.668,0.551,2.245
		c0.74,0.764,1.853,0.888,2.59,0.758c9.641-0.992,17.213-3.523,24.547-8.208c5.573-3.553,12.47-11.052,13.565-20.486
		c0.101-0.877,0.152-1.752,0.152-2.624c0-6.571-2.909-12.884-8.676-18.802L68.794,161.23z"></path>
	<path fill="#FFFFFF" d="M45.244,205.173c2.187-2.095,3.175-3.524,3.175-4.664c0-0.268-0.054-0.526-0.162-0.765
		c-0.603-1.354-2.44-1.41-4.337-1.269c-5.751,0.459-9.642,1.132-12.22,1.578c0,0-1.819,0.253-2.579,0.359
		c0.113-1.122,0.976-3.672,1.71-5.823l2.251-7.208c0.204-0.818,0.406-1.789,0.406-2.698c0-1.017-0.253-1.957-1.023-2.514
		c-1.458-1.038-3.563,0.099-5.026,1.043c-2.724,1.836-5.276,4.376-7.139,6.232c-0.676,0.669-1.322,1.294-1.802,1.713
		c-1.021-1.304-1.901-3.159-2.655-5.995l-0.81-4.078c-0.585-3.402-0.904-5.278-2.292-5.592c-0.911-0.185-1.785,0.044-2.561,0.654
		c-2.974,2.349-4.298,10.367-4.529,16.521c-0.204,5.329,0.416,15.441,6.845,23.236c4.876,5.911,12.256,9.432,21.935,10.465
		c5.769,0.625,12.362-0.13,13.205-3.267c0.065-0.247,0.096-0.477,0.096-0.693c0-1.796-2.17-2.576-4.454-3.395
		c-2.665-0.954-6.176-2.319-8.861-5.346c5.22-3.186,8.258-6.028,10.448-8.133L45.244,205.173z"></path>
	<path fill="#FFFFFF" d="M99.182,142.833c2.994,1.586,7.24,0.751,11.951-2.344c4.683-3.123,7.353-7.79,6.653-11.625
		c-0.499-2.721-2.621-4.647-5.979-5.424l-0.769-0.174c-2.357-0.534-3.429-0.776-5.167-3.435c-0.374-0.839-0.078-1.291,0.187-1.544
		c0.8-0.771,2.906-1.008,4.529-0.18c3.008,1.497,6.319,0.397,8.033-1.464c1.379-1.499,1.669-3.369,0.752-4.888
		c-2.57-4.3-10.549-5.432-13.86-5.718l-6.968-0.042l-5.222,0.111c-2.12-0.026-4.06-0.73-5.767-1.354
		c-2.813-1.028-5.72-2.089-7.864,1.059c-0.431,0.65-0.595,1.312-0.595,1.99c0,0.994,0.348,2.02,0.703,3.081
		c0.433,1.277,0.915,2.714,0.915,4.403c0,1.66-0.465,3.561-1.909,5.797l-2.153,3.282c-2.853,4.298-5.314,8.01-7.763,14.27
		c-1.405,3.592-2.099,6.553-2.123,9.05c-0.005,0.089-0.006,0.177-0.006,0.271c0,2.618,1.477,7.322,7.226,8.275
		c0.179,0.021,7.057,0.398,11.256-4.049c2.428-2.573,3.384-6.152,2.843-10.639c-1.363-7.352-0.777-11.553,1.722-12.557
		c0.969-0.397,2.329-0.721,3.413-0.006c1.093,0.727,1.708,2.341,1.732,4.555C95.046,139.42,97.303,141.838,99.182,142.833"></path>
	<path fill="#FFFFFF" d="M152.768,177.37c-2.768-2.955-10.216-5.242-20.026-3.27c-2.884,0.575-5.679,1.841-8.4,3.112
		c0.989-3.783,6.983-26.78,6.983-26.78c0.021-0.089,0.034-0.181,0.034-0.274c0-0.234-0.081-0.472-0.229-0.661
		c-0.203-0.268-0.52-0.422-0.856-0.422h-19.962c-0.499,0-0.93,0.333-1.052,0.813l-0.319,1.22c-0.084,0.324-0.012,0.673,0.193,0.934
		c0.205,0.269,0.522,0.421,0.858,0.421c0.642,0,1.084,0.12,1.257,0.341c0.18,0.232,0.181,0.75,0.003,1.425L97.357,207.53
		c-2.001,7.682-3.104,11.912,1.59,16.656c2.495,2.731,8.446,3.967,19.264,3.967c7.215,0,16.771-0.664,21.36-3.838
		c6.323-4.185,8.647-6.152,11.278-16.238l3.622-13.889C156.428,186.687,157.312,182.208,152.768,177.37 M119.061,223.382
		c-2.492,0-4.039-0.437-4.729-1.33c-0.41-0.532-0.585-1.289-0.585-2.245c0-1.997,0.752-4.863,1.677-8.396l0.283-1.077l5.115-19.626
		c2.044-7.823,4.578-10.465,10.052-10.465c2.945,0,4.651,0.502,5.526,1.638c1.107,1.428,1.115,4.135,0.036,8.281l-5.116,19.626
		C128.485,220.649,126.748,223.382,119.061,223.382"></path>
	<path fill="#FFFFFF" d="M175.764,223.903c-0.618,0-1.066-0.129-1.243-0.352c-0.184-0.24-0.189-0.75-0.016-1.414l12.312-47.223
		c0.084-0.322,0.015-0.669-0.19-0.935c-0.209-0.266-0.523-0.422-0.861-0.422H165.63c-0.291,0-0.55-0.034-0.759,0.178
		c-0.203,0.205-0.296,0.34-0.288,0.635l0.049,1.929c0.018,0.586,0.311,0.469,0.896,0.469c0.619,0,1.076,0.131,1.25,0.358
		c0.178,0.234,0.186,0.748,0.014,1.406l-11.224,43.058c-0.403,1.557-1.354,2.313-2.894,2.313c-0.409,0-0.498-0.125-0.681,0.24
		l-0.81,1.608c-0.167,0.34-0.111,0.631,0.089,0.953c0.198,0.319,0.586,0.409,0.962,0.409h23.258c0.494,0,0.927-0.335,1.051-0.812
		l0.272-1.044c0.082-0.326,0.013-0.669-0.192-0.935C176.42,224.059,176.102,223.903,175.764,223.903"></path>
	<path fill="#FFFFFF" d="M329.489,177.183c-3.88-4.131-9.296-4.071-16.148-3.997l-2.948,0.018c-9.477,0-15.009,1.223-19.747,4.356
		c-1.369,0.921-5.932,4.359-7.406,10.004c-2.751,10.558,9.505,15.979,13.526,17.759l1.142,0.487
		c5.879,2.492,11.997,5.738,10.156,12.792c-0.896,3.441-4.938,5.301-8.291,5.301c-2.413,0-4.159-0.616-5.059-1.779
		c-0.773-0.995-0.81-2.263-0.586-3.114c0.822-3.158,0.603-5.495-0.675-7.147c-2.319-3.005-7.862-3.243-14.862-3.243
		c-0.475,0-0.896,0.307-1.036,0.759c-0.134,0.422-3.202,10.407,1.452,15.146c3.889,4.139,10.046,4.076,17.173,3.998l2.959-0.019
		c9.817,0,16.225-1.343,20.773-4.352c1.374-0.923,5.94-4.36,7.41-10.005c2.759-10.583-7.754-15.537-12.241-17.651l-1.221-0.592
		l-0.715-0.369c-3.543-1.82-11.832-6.076-9.942-13.33c0.554-2.122,3.321-4.397,6.556-4.397c2.143,0,3.58,0.466,4.291,1.379
		c0.763,0.986,0.595,2.456,0.317,3.517c-0.822,3.153-0.602,5.494,0.672,7.141c2.32,3.005,7.865,3.246,14.871,3.246
		c0.47,0,0.89-0.31,1.031-0.762C331.076,191.91,334.146,181.929,329.489,177.183"></path>
	<path fill="#FFFFFF" d="M270.976,223.903c-0.573,0-1.028-0.144-1.217-0.391c-0.19-0.248-0.208-0.739-0.041-1.375l18.693-71.706
		c0.084-0.323,0.016-0.668-0.19-0.935c-0.204-0.267-0.522-0.422-0.859-0.422h-19.964c-0.494,0-0.926,0.334-1.05,0.81
		c-0.151,0.575-0.212,0.99-0.212,1.307c0,0.391,0.096,0.628,0.246,0.83c0.203,0.278,0.525,0.441,0.873,0.441
		c0.771,0,1.021,0.178,1.103,0.283c0.039,0.051,0.126,0.208,0.126,0.55c0,0.223-0.036,0.529-0.141,0.933
		c0,0-4.12,15.808-5.209,19.978c-2.127-0.623-4.607-1.003-7.579-1.003c-9.203,0-15.241,0.974-19.557,3.075
		c-2.418-1.851-5.339-2.896-8.813-2.896c-5.41,0-9.798,3.028-13.302,6.452c0.637-2.438,1.283-4.92,1.283-4.92
		c0.023-0.088,0.033-0.182,0.033-0.274c0-0.237-0.078-0.469-0.228-0.661c-0.206-0.266-0.521-0.422-0.858-0.422h-20.137
		c-0.496,0-0.927,0.332-1.05,0.812c-0.314,1.194-0.147,1.644,0.075,1.954c0.205,0.279,0.531,0.445,0.879,0.445
		c0.616,0,1.07,0.131,1.245,0.354c0.181,0.238,0.186,0.75,0.015,1.41l-11.225,43.058c-0.407,1.557-1.352,2.313-2.89,2.313
		c-0.409,0-0.482-0.135-0.668,0.231l-0.829,1.62c-0.174,0.337-0.11,0.628,0.084,0.953c0.195,0.322,0.59,0.406,0.969,0.406h23.262
		c0.496,0,0.926-0.335,1.052-0.812l0.271-1.044c0.023-0.089,0.036-0.182,0.036-0.274c0-0.239-0.078-0.468-0.227-0.661
		c-0.207-0.263-0.525-0.419-0.862-0.419c-0.614,0-1.069-0.129-1.245-0.355c-0.096-0.121-0.141-0.318-0.141-0.568
		c0-0.239,0.042-0.523,0.126-0.843c0,0,8.725-33.461,8.88-34.068c1.688-1.826,3.191-2.781,4.451-2.751
		c1.493,0.037,2.659,1.461,3.598,2.606l0.213,0.256c3.121,3.787,8.354,5.771,13.022,4.936c3.23-0.58,5.617-1.811,7.527-3.263
		c-4.352,5.072-9.85,7.122-16.845,6.007c-0.552-0.09-1.078,0.252-1.221,0.79l-0.281,1.084l-1.994,8.606
		c-1.981,7.598-3.183,12.202,1.378,16.808c2.849,2.839,10.429,5.066,20.335,3.253c2.458-0.487,4.833-1.52,7.129-2.521
		c0,0,0.667-0.277,1.273-0.526c-0.311,1.196-0.628,2.401-0.628,2.401c-0.021,0.091-0.032,0.184-0.032,0.271
		c0,0.24,0.077,0.472,0.225,0.667c0.208,0.264,0.523,0.421,0.859,0.421h20.141c0.493,0,0.923-0.335,1.048-0.812
		c0.318-1.218,0.139-1.669-0.102-1.979C271.63,224.06,271.313,223.903,270.976,223.903 M245.503,184.225l0.461-0.775
		c1.805-3.025,3.356-5.641,8.957-5.641c2.649,0,4.309,0.481,5.063,1.465c1.389,1.799,0.287,5.979-1.105,11.272l-5.023,19.243
		c-2.065,7.927-4.508,10.469-10.05,10.469c-2.886,0-4.55-0.487-5.396-1.578c-1.09-1.409-1.09-4.141,0.013-8.346l4.618-17.71
		l1.778-7.097L245.503,184.225z M194.288,174.64h-0.136c-0.082-0.021-0.159-0.042-0.271-0.042
		C194.028,174.598,194.165,174.615,194.288,174.64"></path>
	<path fill="#FFFFFF" d="M178.84,169.925c5.891,0,11.927-4.779,13.458-10.657c0.789-3.021,0.31-5.87-1.347-8.01
		c-1.588-2.059-4.068-3.189-6.981-3.189c-5.891,0-11.931,4.776-13.465,10.654c-0.784,3.021-0.305,5.867,1.352,8.01
		C173.444,168.792,175.925,169.925,178.84,169.925"></path>
</g>
<g>
	<defs>
		<path id="SVGID_46_" d="M30.117,131.623c0,0-7.022,18.481,13.698,40.586c0,0,21.662,23.271,23.941,26.008
			c5.401,6.469,7.711,19.679-13.671,24.79c0,0-2.388,0.527-2.718,2.035c-0.328,1.473,1.076,1.855,1.902,1.708
			c9.26-0.949,16.752-3.337,24.143-8.058c9.771-6.227,21.496-23.152,4.848-40.241c0,0-5.057-5.818-14.291-16.508
			c-4.675-5.855-7.109-8.506-7.109-8.506c-1.62-1.969-3.219-3.865-4.715-5.666c-11.76-14.556-11.61-28.179,2.385-36.901
			c3.805-2.36,8.129-3.065,12.914-3.585c0,0,2.32-0.238,3.074-1.843c0.659-1.467,0.01-2.503-1.662-2.576
			c-0.504-0.017-1.015-0.026-1.532-0.026C56.96,102.84,37.171,109.745,30.117,131.623"></path>
	</defs>
	<clipPath id="SVGID_47_">
		<use xlink:href="#SVGID_46_" overflow="visible"></use>
	</clipPath>
	
		<linearGradient id="SVGID_48_" gradientUnits="userSpaceOnUse" x1="-1384.3745" y1="1457.5786" x2="-1383.3745" y2="1457.5786" gradientTransform="matrix(0 124.6122 124.6122 0 -181571 172612.75)">
		<stop offset="0" style="stop-color:#E5EC26"></stop>
		<stop offset="0.5337" style="stop-color:#E5EC26"></stop>
		<stop offset="0.6118" style="stop-color:#D9CF1F"></stop>
		<stop offset="0.7697" style="stop-color:#BD8E14"></stop>
		<stop offset="1" style="stop-color:#966D0F"></stop>
	</linearGradient>
	<rect x="23.095" y="102.84" clip-path="url(#SVGID_47_)" fill="url(#SVGID_48_)" width="75.814" height="124.057"></rect>
</g>
<g>
	<defs>
		<path id="SVGID_49_" d="M6.736,192.706c-0.288,7.582,1.383,16.182,6.597,22.508c5.663,6.862,13.898,9.294,21.213,10.075
			c5.832,0.631,11.46-0.302,12.041-2.468c0.814-3.025-8.592-2.217-13.85-9.373c6.212-3.613,9.406-6.808,11.756-9.061
			c4.64-4.44,2.947-5.086-0.491-4.831c-9.204,0.736-13.635,2.032-15.456,2.018c-1.943-0.01,1.818-7.849,3.487-14.455
			c1.354-5.404-1.234-4.791-4.006-2.996c-4.835,3.258-9.275,8.996-9.854,8.46c-1.26-1.311-2.387-3.396-3.379-7.142
			c-0.947-3.644-1.23-8.648-2.29-8.892c-0.124-0.025-0.247-0.037-0.368-0.037C8.906,176.511,7.017,185.196,6.736,192.706"></path>
	</defs>
	<clipPath id="SVGID_50_">
		<use xlink:href="#SVGID_49_" overflow="visible"></use>
	</clipPath>
	
		<linearGradient id="SVGID_51_" gradientUnits="userSpaceOnUse" x1="-1384.374" y1="1457.5747" x2="-1383.374" y2="1457.5747" gradientTransform="matrix(0 124.6168 124.6168 0 -181610.5469 172619.125)">
		<stop offset="0" style="stop-color:#E5EC26"></stop>
		<stop offset="0.5337" style="stop-color:#E5EC26"></stop>
		<stop offset="0.6118" style="stop-color:#D9CF1F"></stop>
		<stop offset="0.7697" style="stop-color:#BD8E14"></stop>
		<stop offset="1" style="stop-color:#966D0F"></stop>
	</linearGradient>
	<rect x="6.448" y="176.511" clip-path="url(#SVGID_50_)" fill="url(#SVGID_51_)" width="42.685" height="49.409"></rect>
</g>
<g>
	<defs>
		<path id="SVGID_52_" d="M80.59,106.422c-1.996,2.988,4.298,7.24-0.875,15.248c-3.853,5.995-6.822,9.714-9.812,17.356
			c-1.426,3.645-2.029,6.445-2.052,8.67c0,0-0.303,6.366,6.314,7.463c1.474,0.097,14.46-0.105,12.842-13.489
			c-1.079-5.809-1.414-12.169,2.397-13.695c3.894-1.607,6.58,0.714,6.633,5.547c0.154,9.667,6.453,11.349,14.499,6.06
			c7.081-4.719,9.147-13.207,1.024-15.085c-2.937-0.69-4.425-0.742-6.597-4.075c-1.626-3.511,3.077-4.827,6.115-3.281
			c4.19,2.086,9.155-1.859,7.366-4.825c-1.938-3.237-7.84-4.749-13.028-5.198c-2.463-0.203-4.62-0.114-7.185-0.024
			c-1.463,0.05-3.057,0.102-4.913,0.098c-4.15-0.049-7.396-2.393-9.909-2.393C82.343,104.798,81.408,105.221,80.59,106.422"></path>
	</defs>
	<clipPath id="SVGID_53_">
		<use xlink:href="#SVGID_52_" overflow="visible"></use>
	</clipPath>
	
		<linearGradient id="SVGID_54_" gradientUnits="userSpaceOnUse" x1="-1384.374" y1="1457.5728" x2="-1383.374" y2="1457.5728" gradientTransform="matrix(0 124.6136 124.6136 0 -181539.5313 172614.5625)">
		<stop offset="0" style="stop-color:#E5EC26"></stop>
		<stop offset="0.5337" style="stop-color:#E5EC26"></stop>
		<stop offset="0.6118" style="stop-color:#D9CF1F"></stop>
		<stop offset="0.7697" style="stop-color:#BD8E14"></stop>
		<stop offset="1" style="stop-color:#966D0F"></stop>
	</linearGradient>
	<rect x="67.549" y="104.798" clip-path="url(#SVGID_53_)" fill="url(#SVGID_54_)" width="52.687" height="50.458"></rect>
</g>
<g>
	<defs>
		<path id="SVGID_55_" d="M114.656,210.062l5.116-19.625c1.944-7.459,4.509-11.279,11.101-11.279c5.903,0,9.054,1.905,6.613,11.279
			l-5.121,19.625c-2.85,10.932-4.796,14.403-13.304,14.403C110.558,224.465,112.166,219.609,114.656,210.062 M110.312,150.158
			c0,0-0.272,1.046-0.319,1.22c1.218,0,3.036,0.352,2.311,3.126l-13.896,53.299c-2.078,7.98-2.814,11.454,1.313,15.621
			c2.699,2.953,10.16,3.644,18.491,3.644c8.161,0,16.72-0.863,20.744-3.644c6.289-4.167,8.354-6.072,10.844-15.621l3.623-13.892
			c1.945-7.465,2.636-11.455-1.446-15.796c-2.438-2.609-9.49-4.866-19.018-2.953c-3.481,0.693-6.88,2.432-10.244,3.996l7.561-29
			H110.312z"></path>
	</defs>
	<clipPath id="SVGID_56_">
		<use xlink:href="#SVGID_55_" overflow="visible"></use>
	</clipPath>
	
		<linearGradient id="SVGID_57_" gradientUnits="userSpaceOnUse" x1="-1384.374" y1="1457.5688" x2="-1383.374" y2="1457.5688" gradientTransform="matrix(0 124.6169 124.6169 0 -181511.9219 172619.2188)">
		<stop offset="0" style="stop-color:#E5EC26"></stop>
		<stop offset="0.5337" style="stop-color:#E5EC26"></stop>
		<stop offset="0.6118" style="stop-color:#D9CF1F"></stop>
		<stop offset="0.7697" style="stop-color:#BD8E14"></stop>
		<stop offset="1" style="stop-color:#966D0F"></stop>
	</linearGradient>
	<rect x="95.593" y="150.158" clip-path="url(#SVGID_56_)" fill="url(#SVGID_57_)" width="60.465" height="76.91"></rect>
</g>
<g>
	<defs>
		<path id="SVGID_58_" d="M165.63,174.641c0,0-0.224,0.865-0.102,1.043c1.391,0,2.989,0.522,2.313,3.124l-11.225,43.055
			c-0.677,2.602-2.552,3.124-3.942,3.124c-0.212,0.174-0.439,1.038-0.439,1.038h23.257c0,0,0.23-0.864,0.271-1.038
			c-1.388,0-2.985-0.522-2.309-3.124l12.31-47.222H165.63z"></path>
	</defs>
	<clipPath id="SVGID_59_">
		<use xlink:href="#SVGID_58_" overflow="visible"></use>
	</clipPath>
	
		<linearGradient id="SVGID_60_" gradientUnits="userSpaceOnUse" x1="-1384.374" y1="1457.5688" x2="-1383.374" y2="1457.5688" gradientTransform="matrix(0 124.6143 124.6143 0 -181464.9375 172615.6563)">
		<stop offset="0" style="stop-color:#E5EC26"></stop>
		<stop offset="0.5337" style="stop-color:#E5EC26"></stop>
		<stop offset="0.6118" style="stop-color:#D9CF1F"></stop>
		<stop offset="0.7697" style="stop-color:#BD8E14"></stop>
		<stop offset="1" style="stop-color:#966D0F"></stop>
	</linearGradient>
	<rect x="152.235" y="174.641" clip-path="url(#SVGID_59_)" fill="url(#SVGID_60_)" width="33.528" height="51.384"></rect>
</g>
<g>
	<defs>
		<path id="SVGID_61_" d="M310.393,174.292c-9.971,0-14.944,1.392-19.145,4.172c-2.313,1.558-5.783,4.855-6.958,9.371
			c-2.489,9.551,8.722,14.639,12.918,16.497c4.194,1.855,14.333,5.235,11.908,14.544c-1.086,4.165-5.774,6.111-9.344,6.111
			c-6.427,0-7.283-3.993-6.694-6.253c2.173-8.331-3.549-9.029-14.488-9.029c0,0-3.063,9.729,1.19,14.063
			c4.081,4.346,11.199,3.652,19.357,3.652c9.972,0,15.977-1.395,20.178-4.171c2.312-1.559,5.779-4.859,6.957-9.372
			c2.839-10.883-9.94-15.433-12.923-17.014c-2.977-1.581-13.461-6.246-11.196-14.931c0.726-2.774,4.035-5.21,7.604-5.21
			c6.426,0,6.249,3.999,5.659,6.256c-2.17,8.325,3.55,9.025,14.493,9.025c0,0,3.056-9.726-1.194-14.059
			c-3.093-3.293-7.336-3.692-12.759-3.693C314.223,174.251,312.369,174.292,310.393,174.292"></path>
	</defs>
	<clipPath id="SVGID_62_">
		<use xlink:href="#SVGID_61_" overflow="visible"></use>
	</clipPath>
	
		<linearGradient id="SVGID_63_" gradientUnits="userSpaceOnUse" x1="-1384.374" y1="1457.5679" x2="-1383.374" y2="1457.5679" gradientTransform="matrix(0 124.6139 124.6139 0 -181329.1406 172615.0781)">
		<stop offset="0" style="stop-color:#E5EC26"></stop>
		<stop offset="0.5337" style="stop-color:#E5EC26"></stop>
		<stop offset="0.6118" style="stop-color:#D9CF1F"></stop>
		<stop offset="0.7697" style="stop-color:#BD8E14"></stop>
		<stop offset="1" style="stop-color:#966D0F"></stop>
	</linearGradient>
	<rect x="275.526" y="174.251" clip-path="url(#SVGID_62_)" fill="url(#SVGID_63_)" width="57.439" height="53.863"></rect>
</g>
<g>
	<defs>
		<path id="SVGID_64_" d="M267.397,150.158c0,0-0.269,1.046-0.143,1.22c1.211,0,2.861,0.352,2.138,3.126l-5.475,21.002
			c-2.222-0.816-5.067-1.214-8.363-1.214c-8.312,0-15.021,0.76-19.62,3.176c-1.899-1.631-4.638-2.998-8.748-2.998
			c-6.19,0-11.205,4.338-15.423,9.196l2.352-9.025h-20.138c0,0-0.226,0.865-0.096,1.043c1.391,0,2.987,0.522,2.311,3.124
			l-11.225,43.055c-0.68,2.602-2.554,3.124-3.94,3.124c-0.22,0.174-0.444,1.038-0.444,1.038h23.262c0,0,0.229-0.864,0.271-1.038
			c-1.388,0-2.99-0.522-2.312-3.124l8.959-34.372c5.484-6.087,8.271-2.178,10.069,0c2.729,3.312,7.44,5.372,11.995,4.554
			c6.059-1.085,9.32-4.401,11.751-8.388c1.996-3.279,3.61-6.935,10.342-6.935c9.198,0,7.23,5.555,4.607,15.625l-4.62,17.715
			c-1.944,7.455-4.333,11.284-11.102,11.284c-5.902,0-8.881-1.912-6.435-11.284l4.617-17.715c0.236-0.909,0.754-2.818,0.969-3.648
			c-4.588,6.544-10.943,9.586-19.426,8.23c-0.097,0.355-0.187,0.698-0.285,1.077l-1.981,8.577
			c-1.947,7.469-3.033,11.634,1.088,15.803c2.618,2.601,9.894,4.682,19.371,2.946c3.479-0.691,6.928-2.598,10.197-3.814
			l-1.175,4.508h20.139c0,0,0.226-0.864,0.09-1.038c-1.217,0-2.983-0.522-2.305-3.124l18.692-71.705H267.397z"></path>
	</defs>
	<clipPath id="SVGID_65_">
		<use xlink:href="#SVGID_64_" overflow="visible"></use>
	</clipPath>
	
		<linearGradient id="SVGID_66_" gradientUnits="userSpaceOnUse" x1="-1384.374" y1="1457.5698" x2="-1383.374" y2="1457.5698" gradientTransform="matrix(0 124.6123 124.6123 0 -181397.0625 172612.7813)">
		<stop offset="0" style="stop-color:#E5EC26"></stop>
		<stop offset="0.5337" style="stop-color:#E5EC26"></stop>
		<stop offset="0.6118" style="stop-color:#D9CF1F"></stop>
		<stop offset="0.7697" style="stop-color:#BD8E14"></stop>
		<stop offset="1" style="stop-color:#966D0F"></stop>
	</linearGradient>
	<rect x="180.583" y="150.158" clip-path="url(#SVGID_65_)" fill="url(#SVGID_66_)" width="106.779" height="76.91"></rect>
</g>
<g>
	<defs>
		<path id="SVGID_67_" d="M171.557,158.994c-1.414,5.435,1.844,9.847,7.283,9.847c5.435,0,10.988-4.412,12.409-9.847
			c1.415-5.434-1.847-9.841-7.279-9.841C178.531,149.153,172.974,153.56,171.557,158.994"></path>
	</defs>
	<clipPath id="SVGID_68_">
		<use xlink:href="#SVGID_67_" overflow="visible"></use>
	</clipPath>
	
		<linearGradient id="SVGID_69_" gradientUnits="userSpaceOnUse" x1="-1384.374" y1="1457.5688" x2="-1383.374" y2="1457.5688" gradientTransform="matrix(0 124.6284 124.6284 0 -181473.125 172635.1094)">
		<stop offset="0" style="stop-color:#E5EC26"></stop>
		<stop offset="0.5337" style="stop-color:#E5EC26"></stop>
		<stop offset="0.6118" style="stop-color:#D9CF1F"></stop>
		<stop offset="0.7697" style="stop-color:#BD8E14"></stop>
		<stop offset="1" style="stop-color:#966D0F"></stop>
	</linearGradient>
	<rect x="170.143" y="149.153" clip-path="url(#SVGID_68_)" fill="url(#SVGID_69_)" width="22.521" height="19.688"></rect>
</g>
<g>
	<path fill="#0A0A4F" d="M83.53,43.077c-0.493-0.329-0.896-0.385-1.25-0.414c-0.367-0.017-0.481-0.291-0.307-0.455l2.259-2.098
		l6.171,4.55l2.025,1.625l-1.361-2.169l-3.608-6.598l1.743-1.62l6.294,4.078l2.064,1.517l-1.463-2.077l-4.087-6.534l2.133-1.982
		l7.063,12.049l-2.146,1.994l-6.209-4.038l-1.755-1.233l1.102,1.864l3.55,6.484l-2.146,1.994L83.53,43.077z"></path>
	<path fill="#0A0A4F" d="M112.526,26.175c2.447,3.515,2.13,7.315-1.498,9.841c-3.641,2.536-7.302,1.506-9.748-2.009
		c-2.448-3.515-2.135-7.291,1.507-9.827C106.414,21.654,110.078,22.66,112.526,26.175 M103.557,32.421
		c1.898,2.726,4.251,3.346,6.304,1.917c2.037-1.42,2.272-3.842,0.373-6.567c-1.897-2.726-4.25-3.346-6.287-1.927
		C101.893,27.274,101.659,29.695,103.557,32.421"></path>
	<path fill="#0A0A4F" d="M126.22,25.873l-1.927,0.975l-6.036-5.783l-1.105-1.126l0.771,1.413l3.78,7.474l-2.386,1.206l-5.444-10.766
		c-0.22-0.397-0.454-0.593-0.864-0.758c-0.302-0.141-0.289-0.422-0.075-0.53l3.304-1.671l7.569,7.183l-1.301-10.354l3.074-1.554
		l6.154,12.17l-2.385,1.206l-3.78-7.474l-0.681-1.458l0.25,1.558L126.22,25.873z"></path>
	<path fill="#0A0A4F" d="M135.563,22.307l-4.029-11.168c-0.202-0.559-0.4-0.804-0.83-1.039c-0.283-0.176-0.237-0.453-0.011-0.535
		l7.75-2.795l0.694,1.924l-4.883,1.761l1.271,3.52l4.431-1.598l0.695,1.924l-4.433,1.598l1.282,3.553l5.237-1.889l0.688,1.908
		L135.563,22.307z"></path>
	<path fill="#0A0A4F" d="M146.69,18.443l-2.784-11.537c-0.14-0.578-0.31-0.843-0.712-1.124c-0.261-0.206-0.185-0.477,0.048-0.532
		l2.88-0.695l5.655,6.063l1.914,2.164l-0.859-2.831l-1.599-6.627l2.696-0.65l3.198,13.254l-2.664,0.642l-5.75-6.238l-1.769-2.073
		l0.859,2.903l1.6,6.627L146.69,18.443z"></path>
	<path fill="#0A0A4F" d="M159.117,5.824c0.565-1,0.62-1.944,0.442-3.172l-0.195-1.368c-0.063-0.432,0.087-0.595,0.477-0.651
		l1.883-0.271l0.191,1.332c0.214,1.488-0.1,2.911-0.804,3.913c-0.474,0.686-0.887,0.939-1.137,0.765L159.117,5.824z"></path>
	<path fill="#0A0A4F" d="M168.76,11.369c1.077,0.774,2.732,1.197,3.86,1.128c1.385-0.086,2.185-0.748,2.112-1.917
		c-0.056-0.907-0.45-1.461-1.614-1.967c-1.341-0.6-2.427-0.954-3.471-1.747c-0.938-0.748-1.631-1.686-1.72-3.134
		c-0.125-2.024,1.428-3.539,4.163-3.707c1.504-0.093,2.784,0.073,3.995,0.523l0.133,2.146c0.02,0.315-0.265,0.437-0.518,0.243
		c-1.008-0.761-2.022-1.084-3.15-1.014c-1.213,0.074-1.862,0.692-1.804,1.635c0.043,0.68,0.311,1.136,0.777,1.475
		c0.899,0.663,1.991,1.121,2.959,1.517c1.831,0.745,2.937,1.692,3.067,3.821c0.164,2.652-1.974,3.887-4.776,4.06
		c-2.068,0.128-4.746-0.723-4.458-1.616L168.76,11.369z"></path>
	<path fill="#0A0A4F" d="M189.05,0.306l4.688,0.446c2.796,0.266,4.445,1.74,4.245,3.846c-0.126,1.323-0.73,2.249-1.776,2.763
		c1.328,0.672,2.066,1.778,1.895,3.588c-0.244,2.558-2.398,3.687-5.45,3.397l-4.637-0.441l1.125-11.817
		c0.056-0.592-0.019-0.897-0.308-1.293C188.651,0.514,188.812,0.283,189.05,0.306 M195.251,10.519
		c0.138-1.444-0.588-2.145-2.189-2.298l-1.688-0.16l-0.397,4.176l1.705,0.163C194.283,12.552,195.111,11.981,195.251,10.519
		 M191.558,6.129l1.466,0.14c1.279,0.121,2.024-0.299,2.148-1.605c0.126-1.322-0.527-1.876-1.856-2.003L191.9,2.527L191.558,6.129z"></path>
	<path fill="#0A0A4F" d="M206.462,4.816c0.422-0.68,0.447-1.139,0.328-1.575c-0.139-0.421-0.008-0.627,0.444-0.532l2.499,0.522
		l2.24,14.398l-2.734-0.57l-0.548-3.99l-4.058-0.847l-2.086,3.44l-2.716-0.567L206.462,4.816z M205.764,10.333l2.633,0.55
		l-0.524-4.11L205.764,10.333z"></path>
	<path fill="#0A0A4F" d="M215.563,15.703c0.718,1.116,2.104,2.117,3.179,2.466c1.32,0.429,2.307,0.105,2.669-1.008
		c0.281-0.865,0.117-1.524-0.78-2.422c-1.026-1.051-1.907-1.777-2.588-2.899c-0.599-1.04-0.898-2.166-0.451-3.546
		c0.627-1.929,2.629-2.768,5.234-1.921c1.434,0.465,2.564,1.09,3.526,1.953l-0.664,2.045c-0.097,0.299-0.407,0.309-0.57,0.036
		c-0.659-1.078-1.485-1.751-2.56-2.1c-1.156-0.375-1.987-0.038-2.278,0.86c-0.211,0.648-0.128,1.171,0.182,1.657
		c0.594,0.946,1.441,1.773,2.197,2.496c1.429,1.365,2.11,2.652,1.451,4.68c-0.821,2.527-3.263,2.892-5.935,2.025
		c-1.972-0.64-4.15-2.414-3.555-3.139L215.563,15.703z"></path>
	<path fill="#0A0A4F" d="M226.182,22.38l4.837-10.836c0.242-0.542,0.27-0.856,0.121-1.323c-0.08-0.323,0.145-0.491,0.363-0.393
		l2.786,1.242l-2.315,5.186l6.454-3.321l2.896,1.291l-6.765,3.509l1.56,9.077l-2.724-1.215l-1.157-6.697
		c-0.119-0.57-0.254-0.859-0.645-1.034l-0.282-0.125l-2.578,5.777L226.182,22.38z"></path>
	<path fill="#0A0A4F" d="M238.652,28.239l5.938-10.277c0.298-0.515,0.357-0.824,0.26-1.304c-0.047-0.33,0.193-0.474,0.402-0.353
		l7.13,4.126l-1.023,1.771l-4.492-2.6l-1.871,3.239l4.076,2.36l-1.022,1.771l-4.077-2.36l-1.89,3.27l4.818,2.788l-1.015,1.756
		L238.652,28.239z"></path>
	<polygon fill="#0A0A4F" points="256.169,22.836 264.066,28.517 262.842,30.22 260.033,28.2 253.301,37.566 251.034,35.935 
		257.768,26.569 254.945,24.539 	"></polygon>
	<path fill="#0A0A4F" d="M267.521,31.286l3.522,3.126c2.103,1.864,2.564,4.027,1.16,5.608c-0.882,0.993-1.916,1.384-3.064,1.182
		c0.678,1.326,0.621,2.655-0.586,4.014c-1.704,1.921-4.111,1.561-6.404-0.474l-3.486-3.092l7.878-8.874
		c0.396-0.444,0.516-0.735,0.517-1.225C267.077,31.217,267.343,31.125,267.521,31.286 M266.506,43.188
		c0.964-1.085,0.792-2.078-0.413-3.147l-1.269-1.125l-2.784,3.136l1.281,1.137C264.526,44.257,265.531,44.286,266.506,43.188
		 M266.112,37.464l1.102,0.978c0.961,0.852,1.812,0.953,2.682-0.027c0.882-0.994,0.681-1.826-0.318-2.713l-1.063-0.943
		L266.112,37.464z"></path>
	<path fill="#0A0A4F" d="M278.914,45.195c0.742-0.3,1.033-0.655,1.194-1.077c0.136-0.423,0.361-0.512,0.672-0.169l1.71,1.895
		l-6.672,12.95l-1.871-2.072l1.908-3.546l-2.779-3.077l-3.709,1.55l-1.859-2.06L278.914,45.195z M275.103,49.239l1.802,1.996
		l1.998-3.628L275.103,49.239z"></path>
	<path fill="#0A0A4F" d="M290.281,55.45l-9.315,6.799l3.082,4.22l-1.693,1.236l-4.729-6.475l9.583-6.995
		c0.479-0.35,0.66-0.608,0.764-1.087c0.091-0.321,0.368-0.354,0.511-0.161L290.281,55.45z"></path>
	<path fill="#0A0A4F" d="M296.989,65.408l-9.881,5.956l2.698,4.474l-1.796,1.083l-4.14-6.865l10.164-6.127
		c0.509-0.307,0.711-0.549,0.856-1.017c0.118-0.311,0.399-0.321,0.522-0.115L296.989,65.408z"></path>
	<polygon fill="#0A0A4F" points="304.674,79.689 308.398,88.677 306.461,89.48 305.136,86.283 294.479,90.699 293.409,88.12 
		304.067,83.704 302.736,80.491 	"></polygon>
	<path fill="#0A0A4F" d="M296.867,97.015l11.356-3.44c0.567-0.172,0.822-0.356,1.08-0.774c0.19-0.273,0.465-0.213,0.534,0.017
		l2.39,7.884l-1.957,0.593l-1.505-4.967l-3.579,1.084l1.367,4.508l-1.959,0.593l-1.365-4.508l-3.612,1.095l1.614,5.327l-1.94,0.588
		L296.867,97.015z"></path>
	<path fill="#0A0A4F" d="M311.966,109.457c0.789,0.13,1.224-0.022,1.58-0.299c0.335-0.29,0.575-0.248,0.661,0.206l0.476,2.509
		l-12.436,7.582l-0.52-2.744l3.474-2.034l-0.772-4.075l-3.975-0.609l-0.516-2.728L311.966,109.457z M306.606,110.922l0.501,2.643
		l3.594-2.057L306.606,110.922z"></path>
	<path fill="#0A0A4F" d="M303.693,130.403l-0.121-2.155l7.714-3.207l1.475-0.561l-1.602,0.14l-8.358,0.463l-0.149-2.668
		l12.039-0.667c0.452-0.043,0.726-0.178,1.041-0.487c0.25-0.22,0.502-0.096,0.516,0.143l0.207,3.694l-9.61,4.05l10.001,2.963
		l0.191,3.437l-13.607,0.754l-0.15-2.668l8.357-0.463l1.607-0.038l-1.526-0.395L303.693,130.403z"></path>
	<path fill="#FFFFFF" d="M62.251,258.61c1.496,1.222,3.865,1.985,5.51,1.985c2.021,0,3.242-0.891,3.242-2.595
		c0-1.324-0.523-2.163-2.169-3.003c-1.895-0.992-3.44-1.603-4.887-2.85c-1.297-1.17-2.219-2.596-2.219-4.708
		c0-2.952,2.393-5.013,6.382-5.013c2.193,0,4.04,0.356,5.76,1.12v3.129c0,0.459-0.424,0.612-0.773,0.306
		c-1.396-1.196-2.842-1.756-4.487-1.756c-1.771,0-2.769,0.84-2.769,2.214c0,0.993,0.351,1.68,0.998,2.214
		c1.246,1.043,2.793,1.807,4.164,2.468c2.594,1.247,4.113,2.723,4.113,5.828c0,3.868-3.216,5.471-7.304,5.471
		c-3.018,0-6.832-1.476-6.334-2.748L62.251,258.61z"></path>
	<path fill="#FFFFFF" d="M94.313,242.986v19.849h-4.064v-8.779h-7.256v8.779h-4.063v-17.28c0-0.865-0.15-1.297-0.625-1.831
		c-0.299-0.382-0.1-0.738,0.25-0.738h4.438v8.041h7.256v-8.041H94.313z"></path>
	<path fill="#FFFFFF" d="M99.995,262.834v-17.279c0-0.865-0.149-1.297-0.625-1.831c-0.298-0.382-0.123-0.739,0.25-0.739h4.438
		v19.849H99.995z"></path>
	<path fill="#FFFFFF" d="M109.468,262.834v-17.279c0-0.865-0.149-1.297-0.624-1.831c-0.299-0.382-0.099-0.739,0.25-0.739h4.313
		l5.934,10.51l1.971,3.715l-0.249-4.3v-9.925h4.038v19.849h-3.989l-6.009-10.789l-1.795-3.538l0.225,4.403v9.924H109.468z"></path>
	<path fill="#FFFFFF" d="M145.418,242.986v19.849h-4.063v-8.779h-7.256v8.779h-4.064v-17.28c0-0.865-0.149-1.297-0.623-1.831
		c-0.3-0.382-0.1-0.738,0.25-0.738h4.438v8.041h7.256v-8.041H145.418z"></path>
	<path fill="#FFFFFF" d="M155.362,246.218c0.399-1.095,0.299-1.756,0-2.341c-0.323-0.56-0.198-0.891,0.475-0.891h3.715l7.479,19.849
		h-4.063l-1.97-5.522h-6.033l-1.946,5.522h-4.038L155.362,246.218z M156.012,254.284h3.914l-1.97-5.699L156.012,254.284z"></path>
	<path fill="#FFFFFF" d="M170.395,262.834v-17.279c0-0.865-0.148-1.297-0.623-1.831c-0.299-0.382-0.099-0.739,0.25-0.739h4.313
		l5.934,10.51l1.969,3.715l-0.248-4.3v-9.925h4.039v19.849h-3.989l-6.009-10.789l-1.795-3.538l0.225,4.403v9.924H170.395z"></path>
	<path fill="#FFFFFF" d="M199.313,242.986h6.856c4.089,0,6.681,1.908,6.681,4.987c0,1.933-0.747,3.36-2.192,4.25
		c2.019,0.788,3.24,2.29,3.24,4.936c0,3.742-2.967,5.675-7.43,5.675h-6.782v-17.279c0-0.865-0.148-1.297-0.623-1.831
		C198.764,243.342,198.964,242.986,199.313,242.986 M203.751,251.079h2.143c1.871,0,2.894-0.713,2.894-2.622
		c0-1.933-1.022-2.646-2.968-2.646h-2.068V251.079z M209.709,256.931c0-2.113-1.147-3.029-3.49-3.029h-2.468v6.108h2.492
		C208.588,260.01,209.709,259.068,209.709,256.931"></path>
	<path fill="#FFFFFF" d="M222.298,246.218c0.398-1.095,0.3-1.756,0-2.341c-0.323-0.56-0.199-0.891,0.475-0.891h3.714l7.48,19.849
		h-4.064l-1.97-5.522h-6.034l-1.944,5.522h-4.039L222.298,246.218z M222.946,254.284h3.914l-1.969-5.699L222.946,254.284z"></path>
	<path fill="#FFFFFF" d="M237.33,262.834v-17.279c0-0.865-0.149-1.297-0.623-1.831c-0.3-0.382-0.1-0.739,0.25-0.739h4.312
		l5.936,10.51l1.969,3.715l-0.249-4.3v-9.925h4.04v19.849h-3.99l-6.009-10.789l-1.795-3.538l0.225,4.403v9.924H237.33z"></path>
	<path fill="#FFFFFF" d="M257.872,262.834v-17.279c0-0.865-0.149-1.297-0.623-1.831c-0.299-0.382-0.1-0.739,0.25-0.739h4.438v8.271
		l6.607-8.245h4.612l-6.907,8.678l7.456,11.145h-4.339l-5.51-8.22c-0.499-0.687-0.848-0.992-1.471-0.992h-0.449v9.212H257.872z"></path>
</g>
</svg>
