
<svg id="master-artboard" viewBox="0 0 1116.648681640625 903.8492431640625" version="1.1" xmlns="http://www.w3.org/2000/svg" x="0px" y="0px" style="enable-background:new 0 0 1400 980" width="1116.648681640625px" height="903.8492431640625px"><defs><clipPath clipPathUnits="userSpaceOnUse" id="clipPath31"><path d="M 0,595.28 H 841.89 V 0 H 0 Z" id="path29"></path></clipPath><linearGradient x1="0" y1="0" x2="1" y2="0" gradientUnits="userSpaceOnUse" gradientTransform="matrix(104.42411,223.93823,223.93823,-104.42411,385.7085,153.93164)" spreadMethod="pad" id="linearGradient151"><stop style="stop-opacity:1;stop-color:#000001" offset="0" id="stop141"></stop><stop style="stop-opacity:1;stop-color:#000001" offset="0.5" id="stop143"></stop><stop style="stop-opacity:1;stop-color:#000001" offset="0.55500289" id="stop145"></stop><stop style="stop-opacity:1;stop-color:#008dd0" offset="0.9" id="stop147"></stop><stop style="stop-opacity:1;stop-color:#008dd0" offset="1" id="stop149"></stop></linearGradient><clipPath clipPathUnits="userSpaceOnUse" id="clipPath161"><path d="M 0,595.28 H 841.89 V 0 H 0 Z" id="path159"></path></clipPath><linearGradient x1="0" y1="0" x2="1" y2="0" gradientUnits="userSpaceOnUse" gradientTransform="matrix(-1.4e-6,-31.097206,-31.097206,1.4e-6,429.81543,280.79297)" spreadMethod="pad" id="linearGradient195"><stop style="stop-opacity:1;stop-color:#90cdf0" offset="0" id="stop191"></stop><stop style="stop-opacity:1;stop-color:#ffffff" offset="1" id="stop193"></stop></linearGradient><linearGradient x1="0" y1="0" x2="1" y2="0" gradientUnits="userSpaceOnUse" gradientTransform="matrix(-1.4e-6,-31.095966,-31.095966,1.4e-6,396.60596,280.79297)" spreadMethod="pad" id="linearGradient215"><stop style="stop-opacity:1;stop-color:#90cdf0" offset="0" id="stop211"></stop><stop style="stop-opacity:1;stop-color:#ffffff" offset="1" id="stop213"></stop></linearGradient><linearGradient x1="0" y1="0" x2="1" y2="0" gradientUnits="userSpaceOnUse" gradientTransform="matrix(-1.4e-6,-31.096874,-31.096874,1.4e-6,366.5249,280.79395)" spreadMethod="pad" id="linearGradient235"><stop style="stop-opacity:1;stop-color:#90cdf0" offset="0" id="stop231"></stop><stop style="stop-opacity:1;stop-color:#ffffff" offset="1" id="stop233"></stop></linearGradient><linearGradient x1="0" y1="0" x2="1" y2="0" gradientUnits="userSpaceOnUse" gradientTransform="matrix(-1.4e-6,-31.096813,-31.096813,1.4e-6,332.875,280.79395)" spreadMethod="pad" id="linearGradient255"><stop style="stop-opacity:1;stop-color:#90cdf0" offset="0" id="stop251"></stop><stop style="stop-opacity:1;stop-color:#ffffff" offset="1" id="stop253"></stop></linearGradient><clipPath clipPathUnits="userSpaceOnUse" id="clipPath265"><path d="M 0,595.28 H 841.89 V 0 H 0 Z" id="path263"></path></clipPath><linearGradient x1="0" y1="0" x2="1" y2="0" gradientUnits="userSpaceOnUse" gradientTransform="matrix(-1.9e-6,-42.757317,-42.757317,1.9e-6,435.48242,238.61328)" spreadMethod="pad" id="linearGradient347"><stop style="stop-opacity:1;stop-color:#90cdf0" offset="0" id="stop343"></stop><stop style="stop-opacity:1;stop-color:#ffffff" offset="1" id="stop345"></stop></linearGradient><linearGradient x1="0" y1="0" x2="1" y2="0" gradientUnits="userSpaceOnUse" gradientTransform="matrix(-1.9e-6,-42.757584,-42.757584,1.9e-6,396.43018,238.61426)" spreadMethod="pad" id="linearGradient367"><stop style="stop-opacity:1;stop-color:#90cdf0" offset="0" id="stop363"></stop><stop style="stop-opacity:1;stop-color:#ffffff" offset="1" id="stop365"></stop></linearGradient><linearGradient x1="0" y1="0" x2="1" y2="0" gradientUnits="userSpaceOnUse" gradientTransform="matrix(-1.9e-6,-42.756241,-42.756241,1.9e-6,395.37061,238.61328)" spreadMethod="pad" id="linearGradient387"><stop style="stop-opacity:1;stop-color:#90cdf0" offset="0" id="stop383"></stop><stop style="stop-opacity:1;stop-color:#ffffff" offset="1" id="stop385"></stop></linearGradient><linearGradient x1="0" y1="0" x2="1" y2="0" gradientUnits="userSpaceOnUse" gradientTransform="matrix(-1.9e-6,-42.755627,-42.755627,1.9e-6,348.60937,238.61426)" spreadMethod="pad" id="linearGradient407"><stop style="stop-opacity:1;stop-color:#90cdf0" offset="0" id="stop403"></stop><stop style="stop-opacity:1;stop-color:#ffffff" offset="1" id="stop405"></stop></linearGradient><linearGradient x1="0" y1="0" x2="1" y2="0" gradientUnits="userSpaceOnUse" gradientTransform="matrix(-1.9e-6,-42.754265,-42.754265,1.9e-6,494.46484,238.61328)" spreadMethod="pad" id="linearGradient427"><stop style="stop-opacity:1;stop-color:#90cdf0" offset="0" id="stop423"></stop><stop style="stop-opacity:1;stop-color:#ffffff" offset="1" id="stop425"></stop></linearGradient><clipPath clipPathUnits="userSpaceOnUse" id="clipPath437"><path d="M 0,595.28 H 841.89 V 0 H 0 Z" id="path435"></path></clipPath></defs><rect id="ee-background" x="0" y="0" width="1116.648681640625" height="903.8492431640625" style="fill:rgb(64, 70, 255);fill-opacity:0;pointer-events:none"></rect><g transform="matrix(3.128121852874756, 0, 0, 3.128121852874756, -1281.3835921287537, -950.43408203125)"><g id="g15" transform="matrix(1.3333333,0,0,-1.3333333,0,793.70667)"><path d="m 50.041,497.539 h 757.791 v 0.614 H 50.041 Z" style="fill:#455560;fill-opacity:1;fill-rule:nonzero;stroke:none" id="path17"></path><path d="m 56.717,520.651 h -3.942 v -0.773 h 3.942 z m 1.243,-7.885 h -6.205 v 2.397 h 4.849 v 0.694 h -4.849 v 0.84 h 5.981 v -2.385 h -4.85 v -0.695 h 5.074 z m -0.224,6.238 h -5.981 v 3.35 h 1.019 v -0.875 h 3.943 v 0.875 h 1.019 z m 1.355,-1.601 H 50.4 v 0.874 h 8.691 z" style="fill:#39464e;fill-opacity:1;fill-rule:nonzero;stroke:none" id="path19"></path><g id="g21" transform="translate(66.7065,517.4702)"><path d="m 0,0 h -6.104 v 2.811 h 4.816 v 0.975 h -4.816 v 0.929 h 5.88 V 1.893 H -5.051 V 0.93 L 0,0.93 Z m 1.232,-1.826 h -3.841 v -2.99 h -1.042 v 2.99 h -3.808 v 0.941 h 8.691 z" style="fill:#39464e;fill-opacity:1;fill-rule:nonzero;stroke:none" id="path23"></path></g><g id="g25"><g id="g27" clip-path="url(#clipPath31)"><path d="m 76.002,516.574 h -1.019 v 5.936 h 1.019 z m -1.108,-2.128 c 0,0.762 -0.594,1.098 -1.983,1.098 -1.422,0 -1.994,-0.303 -1.994,-1.098 0,-0.761 0.572,-1.064 1.983,-1.064 1.4,0 1.994,0.235 1.994,1.064 m 1.097,0.012 c 0,-1.177 -0.873,-1.96 -3.08,-1.96 -2.24,0 -3.102,0.806 -3.102,1.96 0,1.13 0.862,1.971 3.091,1.971 2.229,0 3.102,-0.841 3.091,-1.971 m -3.875,6.451 h -2.319 v -2.542 h 2.319 z m 1.008,-3.484 h -4.346 v 4.424 h 4.346 z" style="fill:#39464e;fill-opacity:1;fill-rule:nonzero;stroke:none" id="path33"></path><g id="g35" transform="translate(81.2773,519.2173)"><path d="m 0,0 c -0.403,-1.143 -1.703,-2.33 -3.013,-2.766 l -0.695,0.817 c 2.958,1.143 3.182,3.08 3.182,4.01 V 2.744 H 0.549 V 2.061 c 0,-0.93 0.325,-2.912 3.169,-4.01 L 3.024,-2.766 C 1.68,-2.33 0.481,-1.12 0,0 m 4.357,-5.107 h -8.691 v 0.94 h 8.691 z" style="fill:#39464e;fill-opacity:1;fill-rule:nonzero;stroke:none" id="path37"></path></g><path d="m 96.453,516.888 h -1.008 v 5.623 h 1.008 z m -1.03,-1.468 h -4.065 v -1.713 h 4.065 z m 1.019,-2.654 h -6.115 v 3.595 h 6.115 z m -5.869,8.4 c -0.694,0 -1.03,-0.571 -1.03,-1.434 0,-0.862 0.392,-1.433 1.098,-1.433 0.615,0 1.019,0.571 1.019,1.433 0,0.863 -0.381,1.434 -1.087,1.434 m 2.061,-0.93 h 0.986 v 2.106 h 0.997 v -5.443 H 93.62 v 2.33 h -0.986 c -0.157,-1.132 -0.818,-1.86 -1.993,-1.86 -1.456,0 -2.117,0.964 -2.117,2.363 0,1.389 0.661,2.364 2.049,2.364 1.243,0 1.904,-0.74 2.061,-1.86" style="fill:#39464e;fill-opacity:1;fill-rule:nonzero;stroke:none" id="path39"></path><path d="m 103.419,520.651 h -3.942 v -0.773 h 3.942 z m 1.244,-7.885 h -6.205 v 2.397 h 4.849 v 0.694 h -4.849 v 0.84 h 5.98 v -2.385 h -4.849 v -0.695 h 5.074 z m -0.225,6.238 h -5.98 v 3.35 h 1.019 v -0.875 h 3.942 v 0.875 h 1.019 z m 1.355,-1.601 h -8.691 v 0.874 h 8.691 z" style="fill:#39464e;fill-opacity:1;fill-rule:nonzero;stroke:none" id="path41"></path><path d="m 113.958,516.753 h -0.985 v 5.757 h 0.985 z m -1.814,0 h -0.997 v 2.565 h -1.12 v 0.93 h 1.12 v 2.094 h 0.997 z m 0.75,-1.512 h -4.11 v -1.534 h 4.11 z m 1.042,-2.475 h -6.182 v 3.427 h 6.182 z m -3.495,4.391 c -0.168,-0.056 -0.705,-0.113 -1.31,-0.169 -0.885,-0.078 -2.553,-0.067 -2.643,-0.067 v 3.002 h 2.229 v 1.109 h -2.229 v 0.929 h 3.248 v -2.945 h -2.229 v -1.154 c 0.369,0 1.243,0 1.613,0.045 0.582,0.033 1.075,0.101 1.344,0.179 z" style="fill:#39464e;fill-opacity:1;fill-rule:nonzero;stroke:none" id="path43"></path><path d="m 123.142,517.28 h -5.701 v 0.885 h 5.701 z" style="fill:#39464e;fill-opacity:1;fill-rule:nonzero;stroke:none" id="path45"></path><g id="g47" transform="translate(134.0391,514.939)"><path d="m 0,0 h -1.03 v 1.075 h -2.039 v 0.896 h 2.039 v 5.6 H 0 Z m -3.461,5.813 c 0,0.638 -0.436,0.829 -1.299,0.829 -0.851,0 -1.266,-0.225 -1.266,-0.829 0,-0.65 0.437,-0.84 1.288,-0.84 0.829,0 1.266,0.19 1.277,0.84 m 3.674,-7.874 h -6.328 v 2.487 h 1.019 V -1.12 h 5.309 z m -2.621,7.874 c 0,-1.154 -0.84,-1.781 -2.33,-1.781 -1.5,0 -2.341,0.616 -2.341,1.781 0,1.165 0.841,1.77 2.319,1.77 1.422,0 2.352,-0.583 2.352,-1.77 M -1.311,2.856 C -2.05,2.722 -3.629,2.565 -4.603,2.565 V 0.851 h -1.02 v 1.703 h -2.161 v 0.918 h 2.755 c 1.187,0 3.237,0.213 3.73,0.314 z" style="fill:#39464e;fill-opacity:1;fill-rule:nonzero;stroke:none" id="path49"></path></g><g id="g51" transform="translate(142.7856,516.2495)"><path d="m 0,0 h -1.008 v 0.817 h -1.467 v 0.908 h 1.467 v 0.873 h -1.445 v 0.907 h 1.445 v 2.756 l 1.008,0 z m -1.12,-1.949 c 0,0.728 -0.627,0.986 -2.005,0.986 -1.422,0 -2.027,-0.247 -2.027,-0.986 0,-0.761 0.605,-0.952 2.005,-0.952 1.4,0 2.027,0.191 2.027,0.952 m 1.087,0.011 c 0,-1.176 -0.885,-1.848 -3.103,-1.848 -2.229,0 -3.102,0.695 -3.102,1.848 0,1.131 0.873,1.859 3.102,1.859 2.229,0 3.103,-0.728 3.103,-1.859 m -3.786,3.853 c 0,0.481 -0.426,0.762 -1.265,0.762 -0.852,0 -1.244,-0.281 -1.244,-0.773 0,-0.482 0.448,-0.751 1.277,-0.751 0.885,0 1.232,0.303 1.232,0.762 m 0.101,3.505 h -2.71 v 0.885 h 2.71 z m 0.963,-3.516 c 0,-1.03 -0.784,-1.534 -2.307,-1.534 -1.434,0 -2.341,0.537 -2.341,1.534 0,1.008 0.84,1.534 2.33,1.534 1.478,0 2.318,-0.526 2.318,-1.534 m 0.325,2.005 h -5.309 v 0.885 h 5.309 z" style="fill:#39464e;fill-opacity:1;fill-rule:nonzero;stroke:none" id="path53"></path></g><path d="m 156.45,517.28 h -5.701 v 0.885 h 5.701 z" style="fill:#39464e;fill-opacity:1;fill-rule:nonzero;stroke:none" id="path55"></path><g id="g57" transform="translate(162.5869,518.8477)"><path d="m 0,0 v -1.008 h 2.016 v 0.986 C 1.725,-0.056 1.4,-0.067 1.042,-0.067 0.65,-0.067 0.303,-0.056 0,0 m 3.013,1.803 c 0,0.863 -0.683,1.053 -2.016,1.053 -1.367,0 -2.005,-0.202 -2.005,-1.053 0,-0.885 0.706,-1.03 2.039,-1.03 1.344,0 1.982,0.235 1.982,1.03 M 3.08,-4.525 c 0,0.896 -0.75,0.997 -2.06,0.997 -1.367,0 -2.084,-0.101 -2.084,-0.997 0,-0.873 0.773,-0.974 2.095,-0.974 1.344,0 2.049,0.145 2.049,0.974 m 1.12,0.011 c 0,-1.277 -0.974,-1.859 -3.158,-1.859 -2.285,0 -3.215,0.582 -3.215,1.859 0,1.221 0.93,1.871 3.181,1.871 2.229,0 3.192,-0.65 3.192,-1.871 m -1.154,3.506 h 2.308 v -0.918 h -8.691 v 0.918 h 2.307 v 1.266 c -0.751,0.313 -1.053,0.862 -1.053,1.556 0,1.121 0.84,1.893 3.069,1.893 2.228,0 3.102,-0.728 3.102,-1.893 0,-0.75 -0.325,-1.276 -1.042,-1.579 z" style="fill:#39464e;fill-opacity:1;fill-rule:nonzero;stroke:none" id="path59"></path></g><path d="m 176.139,515.376 h -1.019 v 7.134 h 1.019 z m 0.19,-2.498 h -6.238 v 3.125 h 1.053 v -2.184 h 5.185 z m -4.01,6.809 c 0,0.796 -0.369,1.546 -1.388,1.546 -0.997,0 -1.344,-0.75 -1.344,-1.546 0,-0.806 0.37,-1.556 1.389,-1.556 0.985,0 1.343,0.75 1.343,1.556 m 1.042,0 c 0,-1.332 -0.795,-2.508 -2.385,-2.508 -1.658,0 -2.42,1.176 -2.42,2.508 0,1.334 0.762,2.499 2.375,2.499 1.579,0 2.43,-1.165 2.43,-2.499" style="fill:#39464e;fill-opacity:1;fill-rule:nonzero;stroke:none" id="path61"></path><g id="g63" transform="translate(185.8599,519.251)"><path d="m 0,0 h -1.198 v -2.363 h -1.031 v 5.622 h 1.031 V 0.963 l 1.198,0 z m -2.217,-3.831 h -3.774 v -1.713 h 3.774 z m 1.03,-2.654 H -7 v 3.595 h 5.813 z m -1.949,5.298 -0.605,-0.852 c -0.952,0.426 -1.96,1.434 -2.307,2.229 -0.347,-0.963 -1.422,-2.038 -2.307,-2.52 l -0.728,0.74 c 1.445,0.716 2.498,1.971 2.498,3.752 V 2.979 H -5.51 V 2.162 c 0,-1.714 0.985,-2.789 2.374,-3.349" style="fill:#39464e;fill-opacity:1;fill-rule:nonzero;stroke:none" id="path65"></path></g><g id="g67" transform="translate(193.8452,516.6411)"><path d="M 0,0 H -1.008 V 2.935 H -2.901 V 3.92 h 1.893 V 5.869 H 0 Z m -1.019,-2.172 c 0,0.761 -0.605,1.119 -1.982,1.119 -1.423,0 -1.994,-0.324 -1.994,-1.119 0,-0.762 0.571,-1.087 1.971,-1.087 1.4,0 2.005,0.258 2.005,1.087 m 1.109,0.01 c 0,-1.175 -0.885,-1.982 -3.103,-1.982 -2.229,0 -3.102,0.829 -3.102,1.982 0,1.132 0.873,1.994 3.102,1.994 2.229,0 3.092,-0.862 3.103,-1.994 M -2.173,1.4 -2.755,0.549 C -3.718,0.975 -4.715,1.982 -5.062,2.778 -5.41,1.814 -6.474,0.739 -7.358,0.258 l -0.74,0.739 c 2.173,1.109 2.509,2.811 2.509,3.752 V 5.6 h 1.064 V 4.749 c 0,-0.885 0.336,-2.486 2.352,-3.349" style="fill:#39464e;fill-opacity:1;fill-rule:nonzero;stroke:none" id="path69"></path></g><g id="g71" transform="translate(202.9282,516.4619)"><path d="M 0,0 H -0.997 V 2.688 H -1.971 V 0.392 H -2.968 V 5.88 h 0.997 V 3.685 h 0.974 v 2.363 l 0.997,0 z m -1.165,-1.993 c 0,0.761 -0.694,1.119 -2.072,1.119 -1.422,0 -2.083,-0.324 -2.083,-1.119 0,-0.762 0.661,-1.087 2.061,-1.087 1.4,0 2.094,0.258 2.094,1.087 m 1.086,0.011 c 0,-1.176 -0.941,-1.982 -3.169,-1.982 -2.229,0 -3.148,0.828 -3.148,1.982 0,1.131 0.919,1.993 3.148,1.993 2.24,0 3.169,-0.862 3.169,-1.993 M -3.293,1.434 -3.92,0.639 C -4.581,0.952 -5.387,1.871 -5.746,2.666 -5.902,1.949 -6.72,0.952 -7.56,0.348 l -0.784,0.705 c 1.769,1.198 2.072,2.889 2.072,3.819 v 0.874 h 1.064 V 4.872 c 0,-0.93 0.325,-2.554 1.915,-3.438" style="fill:#39464e;fill-opacity:1;fill-rule:nonzero;stroke:none" id="path73"></path></g><path d="m 210.376,520.057 h -1.971 v -0.918 h 1.971 z m -0.112,-5.611 c 0,0.762 -0.594,1.098 -1.983,1.098 -1.411,0 -1.993,-0.303 -1.993,-1.098 0,-0.761 0.582,-1.064 1.982,-1.064 1.4,0 1.994,0.235 1.994,1.064 m -2.868,6.463 h -2.206 v -2.621 h 2.206 z m 3.977,-6.451 c 0,-1.177 -0.885,-1.96 -3.092,-1.96 -2.239,0 -3.102,0.806 -3.102,1.96 0,1.13 0.863,1.971 3.091,1.971 2.229,0 3.114,-0.841 3.103,-1.971 m 0.022,2.083 h -1.019 v 1.691 h -1.971 v -0.896 h -4.234 v 4.513 h 4.234 v -0.896 h 1.971 v 1.557 h 1.019 z" style="fill:#39464e;fill-opacity:1;fill-rule:nonzero;stroke:none" id="path75"></path><path d="m 218.653,520.651 h -3.942 v -0.773 h 3.942 z m 1.243,-7.885 h -6.205 v 2.397 h 4.85 v 0.694 h -4.85 v 0.84 h 5.981 v -2.385 h -4.85 v -0.695 h 5.074 z m -0.224,6.238 h -5.981 v 3.35 h 1.019 v -0.875 h 3.943 v 0.875 h 1.019 z m 1.355,-1.601 h -8.691 v 0.874 h 8.691 z" style="fill:#39464e;fill-opacity:1;fill-rule:nonzero;stroke:none" id="path77"></path><g id="g79" transform="translate(228.6426,517.4702)"><path d="m 0,0 h -6.104 v 2.811 h 4.816 v 0.975 h -4.816 v 0.929 h 5.88 V 1.893 H -5.051 V 0.93 L 0,0.93 Z m 1.232,-1.826 h -3.841 v -2.99 h -1.042 v 2.99 h -3.808 v 0.941 h 8.691 z" style="fill:#39464e;fill-opacity:1;fill-rule:nonzero;stroke:none" id="path81"></path></g><path d="m 237.938,516.574 h -1.019 v 5.936 h 1.019 z m -1.108,-2.128 c 0,0.762 -0.594,1.098 -1.983,1.098 -1.422,0 -1.993,-0.303 -1.993,-1.098 0,-0.761 0.571,-1.064 1.982,-1.064 1.4,0 1.994,0.235 1.994,1.064 m 1.097,0.012 c 0,-1.177 -0.873,-1.96 -3.08,-1.96 -2.24,0 -3.102,0.806 -3.102,1.96 0,1.13 0.862,1.971 3.091,1.971 2.229,0 3.102,-0.841 3.091,-1.971 m -3.875,6.451 h -2.319 v -2.542 h 2.319 z m 1.008,-3.484 h -4.346 v 4.424 h 4.346 z" style="fill:#39464e;fill-opacity:1;fill-rule:nonzero;stroke:none" id="path83"></path><g id="g85" transform="translate(243.2134,519.2173)"><path d="m 0,0 c -0.403,-1.143 -1.703,-2.33 -3.013,-2.766 l -0.695,0.817 c 2.958,1.143 3.182,3.08 3.182,4.01 V 2.744 H 0.549 V 2.061 c 0,-0.93 0.325,-2.912 3.169,-4.01 L 3.024,-2.766 C 1.68,-2.33 0.481,-1.12 0,0 m 4.357,-5.107 h -8.691 v 0.94 h 8.691 z" style="fill:#39464e;fill-opacity:1;fill-rule:nonzero;stroke:none" id="path87"></path></g><g id="g89" transform="translate(254.144,514.4351)"><path d="m 0,0 c 0,0.896 -0.739,1.075 -2.072,1.075 -1.366,0 -2.072,-0.179 -2.072,-1.075 0,-0.874 0.773,-1.053 2.106,-1.053 C -0.694,-1.053 0,-0.829 0,0 m 1.12,0.011 c 0,-1.277 -0.974,-1.937 -3.158,-1.937 -2.285,0 -3.214,0.66 -3.214,1.937 0,1.221 0.94,1.949 3.18,1.949 2.229,0 3.192,-0.728 3.192,-1.949 m 1.154,2.587 h -8.691 v 0.907 h 3.796 V 4.816 H -5.062 V 8.03 h 1.019 V 5.712 H 1.03 V 4.816 H -1.557 V 3.505 h 3.831 z" style="fill:#39464e;fill-opacity:1;fill-rule:nonzero;stroke:none" id="path91"></path></g><g id="g93" transform="translate(265.2656,516.8652)"><path d="M 0,0 H -4.032 V -4.211 H -5.074 V 0 h -3.617 v 0.941 h 5.913 c 0.179,0.649 0.448,2.195 0.493,3.214 h -5.186 v 0.941 h 6.362 c 0,-0.403 -0.325,-3.102 -0.594,-4.155 l 1.703,0 z" style="fill:#39464e;fill-opacity:1;fill-rule:nonzero;stroke:none" id="path95"></path></g><g id="g97" transform="translate(271.8955,522.5103)"><path d="M 0,0 H 1.03 V -2.901 H 2.273 V -3.842 H 1.03 V -7.134 H 0 Z m 1.299,-9.632 h -6.081 v 3.304 h 1.019 v -2.363 h 5.062 z m -1.915,4.547 c -0.605,-0.101 -1.882,-0.213 -3.102,-0.247 l -2.184,-0.022 v 4.693 h 4.401 v -0.941 h -3.382 v -2.8 l 1.579,0.011 c 0.818,0.023 2.083,0.124 2.688,0.236 z" style="fill:#39464e;fill-opacity:1;fill-rule:nonzero;stroke:none" id="path99"></path></g><g id="g101" transform="translate(526.2842,257.1475)"><path d="m 0,0 c 0,-57.85 -46.894,-104.744 -104.743,-104.744 -57.852,0 -104.747,46.894 -104.747,104.744 0,57.854 46.895,104.75 104.747,104.75 C -46.894,104.75 0,57.854 0,0" style="fill:#024ea2;fill-opacity:1;fill-rule:nonzero;stroke:none" id="path103"></path></g><g id="g105" transform="translate(499.8701,257.1475)"><path d="m 0,0 c 0,-43.26 -35.068,-78.328 -78.329,-78.328 -43.264,0 -78.333,35.068 -78.333,78.328 0,43.264 35.069,78.332 78.333,78.332 C -35.068,78.332 0,43.264 0,0" style="fill:#ffffff;fill-opacity:1;fill-rule:nonzero;stroke:none" id="path107"></path></g><g id="g109" transform="translate(481.7393,357.8018)"><path d="m 0,0 c -1.3,1.283 -1.908,1.848 -2.154,1.602 -0.221,-0.221 0.187,-0.901 1.105,-2.221 0,0 14.139,-19.389 24.145,-20.151 9.89,-0.757 27.791,12.633 27.791,12.633 1.409,1.032 2.33,1.77 2.172,2.045 -0.133,0.237 -1.189,-0.262 -2.694,-0.972 0,0 -16,-6.963 -26.18,-6.963 C 14.008,-14.027 0,0 0,0" style="fill:#90cdf0;fill-opacity:1;fill-rule:nonzero;stroke:none" id="path111"></path></g><g id="g113" transform="translate(548.8213,334.0908)"><path d="M 0,0 C 0.617,1.682 0.877,2.506 0.611,2.594 0.398,2.668 -0.091,1.846 -0.82,0.436 c 0,0 -11.887,-24.221 -9.435,-29.233 2.228,-4.557 18.234,-6.377 20.278,-6.683 2.352,-0.352 2.881,-0.393 2.935,-0.149 0.054,0.256 -1.034,0.49 -2.591,0.916 -3.695,1.012 -12.678,4.178 -14.783,9.067 C -7.004,-19.65 0,0 0,0" style="fill:#90cdf0;fill-opacity:1;fill-rule:nonzero;stroke:none" id="path115"></path></g><g id="g117" transform="translate(562.9268,280.7119)"><path d="M 0,0 C 1.569,0.625 2.313,1.08 2.246,1.285 2.185,1.492 1.304,1.451 -0.362,1.088 c 0,0 -24.122,-5.274 -27.183,-12.07 -3.693,-8.19 10.101,-41.079 10.101,-41.079 0.637,-1.56 1.071,-2.308 1.251,-2.253 0.182,0.054 0.113,0.914 -0.258,2.566 0,0 -5.829,29.605 -2.758,37.07 C -16.135,-7.215 0,0 0,0" style="fill:#90cdf0;fill-opacity:1;fill-rule:nonzero;stroke:none" id="path119"></path></g><g id="g121" transform="translate(456.7988,350.9463)"><path d="m 0,0 c 0.257,1.684 0.299,2.533 0.65,2.533 0.229,0 0.271,-0.838 0.428,-2.523 0,0 1.332,-18.682 -3.764,-21.395 -8.266,-4.4 -43.978,11.516 -43.978,11.516 -1.525,0.68 -2.275,1.088 -2.25,1.195 0.024,0.113 0.854,-0.088 2.476,-0.629 0,0 34.331,-11.523 40.488,-6.183 C -1.494,-11.623 0,0 0,0" style="fill:#90cdf0;fill-opacity:1;fill-rule:nonzero;stroke:none" id="path123"></path></g><g id="g125" transform="translate(400.0635,323.1455)"><path d="M 0,0 C -1.384,1.158 -1.976,1.906 -1.886,2.107 -1.797,2.305 -1.03,1.953 0.3,0.912 c 0,0 29.566,-23.244 28.24,-29.801 -1.326,-6.552 -17.111,-5.291 -17.111,-5.291 -3.373,0.27 -1.811,0.508 0.015,0.641 0,0 9.308,0.783 9.801,6.873 C 21.749,-20.396 0,0 0,0" style="fill:#90cdf0;fill-opacity:1;fill-rule:nonzero;stroke:none" id="path127"></path></g></g></g><g id="g129"><g id="g131"><g id="g137"><g id="g139"><path d="m 464.247,363.551 c 0,0 0.277,-11.222 0.277,-19.06 v 0 c 0,-10.437 -0.056,-18.888 -4.262,-21.453 v 0 c -4.46,-2.716 -17.862,0.592 -29.975,3.824 v 0 c -14.315,3.824 -32.532,9.936 -32.532,9.936 v 0 c -1.144,0.32 -1.418,-0.133 -0.609,-1 v 0 c 0,0 10.418,-8.514 22.899,-20.946 v 0 c 9.224,-9.189 16.659,-16.865 15.631,-24.381 v 0 c -0.215,-1.572 -0.895,-3.185 -1.946,-4.824 v 0 l -14.387,0.952 c -1.616,0.101 -3.23,-0.366 -4.535,-1.311 v 0 c -1.125,0.656 -2.423,0.985 -3.731,0.94 v 0 l -9.458,-0.342 c -1.059,-0.035 -2.046,-0.33 -2.928,-0.788 v 0 c -0.132,0.151 -0.241,0.311 -0.382,0.454 v 0 c -1.326,1.285 -3.15,1.998 -5.006,1.955 v 0 c -0.015,0 -11.604,-0.307 -11.604,-0.307 v 0 c -3.799,-0.097 -6.857,-3.062 -6.857,-6.865 v 0 c 0,-0.067 -0.143,-1.526 -0.143,-1.526 v 0 c -0.142,1.893 -1.312,3.75 -2.779,4.95 v 0 c -1.473,1.203 -3.393,1.755 -5.278,1.516 v 0 l -13.499,-1.702 c -0.509,-0.064 -1,-0.187 -1.475,-0.359 v 0 c -6.592,4.588 -18.701,5.652 -36.951,3.254 v 0 c -3.613,-0.483 -6.208,-3.586 -6.041,-7.219 v 0 l 1.3,-27.936 c 0.148,-3.083 2.348,-5.736 5.355,-6.445 v 0 h 0.004 c 6.978,-1.642 13.009,-2.029 16.037,-2.111 v 0 c -5.615,-0.707 -14.602,-1.836 -14.602,-1.836 v 0 c -3.558,-0.459 -6.167,-3.49 -6.086,-7.06 v 0 l 0.846,-40.008 c 0.041,-2.043 0.973,-3.959 2.563,-5.248 v 0 c 1.593,-1.297 3.66,-1.824 5.673,-1.444 v 0 l 7.727,1.444 c 3.046,0.566 5.374,3.12 5.653,6.216 v 0 c 0,0 0.175,1.977 0.229,2.551 v 0 c 0.565,-1.095 1.845,-3.58 1.845,-3.58 v 0 c 1.309,-2.535 3.99,-4 6.834,-3.733 v 0 c -0.008,0 12.156,1.123 12.156,1.123 v 0 c 3.089,0.286 5.64,2.619 6.199,5.674 v 0 c 0,0 0.093,0.492 0.245,1.32 v 0 c 0.555,-1.529 1.681,-4.61 1.681,-4.61 v 0 c 1.188,-3.245 4.628,-5.141 7.997,-4.42 v 0 l 10.714,2.306 c 1.282,0.278 2.405,0.899 3.298,1.747 v 0 c 0.774,-3.444 4.038,-5.792 7.588,-5.373 v 0 l 16.115,1.889 c 1.622,0.19 3.06,0.945 4.139,2.045 v 0 c 1.217,-1.058 2.81,-1.696 4.567,-1.696 v 0 h 8.336 c 1.844,0 3.646,0.749 4.946,2.062 v 0 c 1.301,1.32 2.01,3.052 2.01,4.888 v 0 c 0,0 -0.052,3.825 -0.065,4.392 v 0 c 1.962,-2.081 4.42,-4.692 4.42,-4.692 v 0 c 1.473,-1.559 3.623,-2.36 5.755,-2.153 v 0 c 0.01,0.005 12.62,1.276 12.62,1.276 v 0 c 2.127,0.216 3.953,1.391 5.081,3.065 v 0 c 3.844,-2.065 10.659,-5.708 10.659,-5.708 v 0 c 2.521,-1.361 5.564,-1.062 7.732,0.766 v 0 c 0,0 3.973,3.346 7.397,6.224 v 0 c 1.42,-2.812 2.845,-5.627 2.845,-5.627 v 0 c 1.179,-2.331 3.529,-3.83 6.128,-3.904 v 0 c 0.009,0 18.491,-0.494 18.491,-0.494 v 0 c 2.51,-0.062 4.844,1.229 6.09,3.379 v 0 c 0.629,1.068 0.95,2.311 0.928,3.58 v 0 c -0.02,1.195 -0.353,2.381 -0.957,3.418 v 0 c 0,0 -4.918,8.488 -8.02,13.844 v 0 c 3.235,1.966 7.716,4.703 11.713,7.144 v 0 c 10.143,-5.91 22.807,-14.275 22.807,-14.275 v 0 c 1.065,-0.535 1.631,-0.049 1.267,1.082 v 0 c 0,0 -11.201,24.965 -16.406,41.408 v 0 c -3.128,9.87 -5.256,17.895 -3.795,22.146 v 0 c 2.137,6.233 8.221,9.014 20.416,11.958 v 0 c 9.44,2.283 24.786,5.521 24.786,5.521 v 0 c 1.136,0.346 1.111,0.799 -0.061,1.002 v 0 c 0,0 -15.369,2.801 -27.815,5.49 v 0 c -9.592,2.069 -14.398,4.139 -14.81,7.651 v 0 c -0.544,4.549 2.89,12.711 6.961,21.467 v 0 c 5.56,11.973 12.364,24.423 12.364,24.423 v 0 c 0.518,1.067 0.079,1.499 -0.979,0.956 v 0 c 0,0 -10.057,-6.68 -21.291,-12.465 v 0 c -9.434,-4.856 -19.7,-9.078 -25.535,-8.182 v 0 c -6.127,0.94 -13.895,8.32 -20.656,16.262 v 0 c -8.538,10.022 -14.491,18.096 -14.491,18.096 v 0 c -0.316,0.375 -0.608,0.556 -0.84,0.556 v 0 c -0.332,0 -0.544,-0.368 -0.537,-1.069" style="fill:url(#linearGradient151);stroke:none" id="path153"></path></g></g></g></g><g id="g155"><g id="g157" clip-path="url(#clipPath161)"><g id="g163" transform="translate(380.3867,263.0146)"><path d="m 0,0 c 0.23,-6.385 5.465,-12.842 16.662,-12.869 10.924,-0.024 15.899,6.336 15.988,12.644 0,0.004 0.213,16.459 0.213,16.459 0.006,0.526 -0.205,1.034 -0.58,1.401 -0.375,0.365 -0.885,0.564 -1.412,0.547 l -9.456,-0.34 c -1.02,-0.037 -1.838,-0.867 -1.851,-1.893 L 19.289,-1.365 c 0,-1.158 -0.533,-2.364 -2.034,-2.364 -1.378,0 -2.175,0.768 -2.175,2.106 0,0.006 -0.071,19.166 -0.071,19.166 0,0.518 -0.215,1.012 -0.585,1.371 -0.371,0.359 -0.871,0.559 -1.389,0.543 L 1.451,19.15 c -1.047,-0.025 -1.873,-0.88 -1.873,-1.918 0,-0.017 0.398,-16.246 0.398,-16.246 z" style="fill:#008dd0;fill-opacity:1;fill-rule:nonzero;stroke:none" id="path165"></path></g><g id="g167" transform="translate(418.1631,250.3447)"><path d="m 0,0 21.908,-1.289 c 1.034,-0.063 1.927,0.705 2.028,1.734 l 0.383,4.03 c 0.003,0.06 0.008,0.121 0.008,0.181 0,0.469 -0.166,0.922 -0.478,1.274 -0.356,0.398 -0.855,0.631 -1.385,0.648 0,0 -6.549,0.197 -9.196,0.279 0.066,1.586 0.116,2.846 0.181,4.413 2.298,-0.086 6.572,-0.243 6.572,-0.243 1.028,-0.041 1.906,0.741 1.987,1.762 l 0.206,2.475 v 0.16 c 0,0.469 -0.17,0.93 -0.492,1.281 -0.35,0.397 -0.851,0.625 -1.379,0.641 0,0 -4.295,0.099 -6.631,0.156 0.07,1.605 0.121,2.9 0.191,4.539 2.686,-0.242 8.969,-0.82 8.969,-0.82 0.525,-0.047 1.051,0.123 1.447,0.476 0.4,0.35 0.634,0.852 0.649,1.383 l 0.135,4.693 c 0.028,1.032 -0.762,1.905 -1.793,1.971 L 0.847,31.23 C 0.323,31.264 -0.19,31.082 -0.574,30.73 -0.966,30.373 -1.186,29.879 -1.199,29.354 L -1.805,1.961 C -1.829,0.926 -1.034,0.062 0,0" style="fill:#008dd0;fill-opacity:1;fill-rule:nonzero;stroke:none" id="path169"></path></g><g id="g171" transform="translate(355.9883,251.2373)"><path d="m 0,0 c 0.163,-1.039 1.123,-1.756 2.16,-1.611 l 21.156,2.908 c 0.962,0.133 1.674,0.928 1.657,1.904 l -0.09,4.94 c -0.016,0.533 -0.242,1.039 -0.643,1.394 -0.394,0.356 -0.92,0.531 -1.451,0.485 0,0 -5.482,-0.493 -7.997,-0.719 -0.241,3.17 -1.347,17.976 -1.347,17.976 -0.04,0.53 -0.295,1.014 -0.703,1.346 -0.406,0.336 -0.931,0.486 -1.453,0.42 L -2.217,27.338 C -2.732,27.273 -3.2,27.004 -3.514,26.592 -3.826,26.18 -3.955,25.656 -3.877,25.139 Z" style="fill:#008dd0;fill-opacity:1;fill-rule:nonzero;stroke:none" id="path173"></path></g><g id="g175" transform="translate(329.9561,261.7275)"><path d="m 0,0 c 2.852,-0.084 5.121,-0.658 6.082,-1.586 0.392,-0.383 0.47,-0.732 0.47,-1.004 0,-0.058 -0.004,-0.117 -0.007,-0.166 C 6.284,-5.109 2.494,-5.559 -0.03,-5.604 -0.021,-3.781 -0.01,-1.83 0,0 m 6.856,10.982 c 0.376,-0.341 0.435,-0.64 0.435,-0.845 0,-0.012 0,-0.024 -0.005,-0.033 C 7.229,7.996 3.75,7.15 0.37,7.041 c -0.018,1.777 -0.036,3.6 -0.058,5.406 4.353,-0.103 5.98,-0.949 6.544,-1.465 m -20.325,-22.941 c 9.11,-2.141 16.53,-2.002 16.84,-1.992 h 0.004 c 4.204,0 18.099,0.726 18.7,10.037 0.012,0.178 0.02,0.353 0.02,0.525 0,3.559 -2.43,6.069 -5.604,7.678 4.106,2.106 5.362,5.643 5.362,7.883 0,1.812 -0.784,3.389 -2.336,4.668 -3.514,2.912 -12.281,5.777 -34.1,2.91 -0.988,-0.137 -1.715,-1 -1.669,-1.998 l 1.301,-27.93 c 0.041,-0.853 0.646,-1.584 1.482,-1.781" style="fill:#008dd0;fill-opacity:1;fill-rule:nonzero;stroke:none" id="path177"></path></g></g></g><g id="g179"><g id="g181"><g id="g187"><g id="g189"><path d="m 418.282,252.263 c 1.551,-0.09 20.351,-1.195 21.903,-1.287 v 0 c 0.1,1.031 0.329,3.474 0.384,4.025 v 0 c -1.61,0.051 -11.145,0.336 -11.145,0.336 v 0 l 0.351,8.269 c 0,0 7.089,-0.263 8.481,-0.316 v 0 c 0.066,0.795 0.133,1.623 0.203,2.478 v 0 c -1.51,0.035 -8.584,0.202 -8.584,0.202 v 0 l 0.359,8.516 c 0,0 9.384,-0.862 10.975,-1.01 v 0 c 0.035,1.182 0.108,3.609 0.138,4.697 v 0 c -1.357,0.09 -20.784,1.371 -22.461,1.484 v 0 c -0.037,-1.713 -0.57,-25.812 -0.604,-27.394" style="fill:url(#linearGradient195);stroke:none" id="path197"></path></g></g></g></g><g id="g199"><g id="g201"><g id="g207"><g id="g209"><path d="m 381.885,280.247 c 0.09,-3.628 0.419,-17.166 0.419,-17.166 v 0 c 0.18,-5.065 4.152,-10.988 14.749,-11.013 v 0 c 9.613,-0.022 13.989,5.384 14.061,10.751 v 0 c 0,0 0.192,14.76 0.212,16.454 v 0 c -1.365,-0.047 -8.286,-0.294 -9.457,-0.337 v 0 c -0.053,-3.586 -0.271,-17.326 -0.271,-17.32 v 0 c 0,-2.498 -1.627,-4.252 -3.956,-4.252 v 0 c -2.45,0 -4.099,1.621 -4.099,4.027 v 0 c 0,0 -0.062,17.479 -0.07,19.159 v 0 c -1.489,-0.037 -10.137,-0.267 -11.588,-0.303" style="fill:url(#linearGradient215);stroke:none" id="path217"></path></g></g></g></g><g id="g219"><g id="g221"><g id="g227"><g id="g229"><path d="m 354.009,276.673 c 0.259,-1.656 3.636,-23.557 3.88,-25.143 v 0 c 1.572,0.213 19.73,2.709 21.152,2.908 v 0 c 0,0.028 -0.073,3.567 -0.092,4.902 v 0 c -1.578,-0.136 -9.939,-0.886 -9.939,-0.886 v 0 c 0,0 -1.368,18.2 -1.492,19.92 v 0 c -1.557,-0.196 -11.984,-1.513 -13.509,-1.701" style="fill:url(#linearGradient235);stroke:none" id="path237"></path></g></g></g></g><g id="g239"><g id="g241"><g id="g247"><g id="g249"><path d="m 315.626,279.572 c 0.07,-1.532 1.244,-26.668 1.303,-27.932 v 0 c 8.896,-2.094 16.256,-1.946 16.352,-1.944 v 0 c 3.826,0 16.34,0.592 16.831,8.242 v 0 c 0.351,5.399 -6.592,7.448 -9.253,7.977 v 0 l -0.064,0.442 c 7.516,0.906 9.092,5.517 9.092,7.543 v 0 c 0,0.921 -0.284,2.068 -1.637,3.189 v 0 c -1.896,1.567 -6.398,3.65 -16.906,3.65 v 0 c -4.205,0 -9.373,-0.334 -15.718,-1.167 m 12.695,-3.45 1.542,-0.012 c 4.068,-0.045 6.843,-0.708 8.239,-1.973 v 0 c 0.721,-0.65 1.087,-1.469 1.062,-2.365 v 0 c -0.092,-3.056 -3.453,-4.861 -9.22,-4.947 v 0 l -1.513,-0.021 z m -0.275,-12.436 1.513,-0.013 c 2.112,-0.022 5.932,-0.33 7.817,-2.15 v 0 c 0.791,-0.766 1.148,-1.721 1.033,-2.762 v 0 c -0.227,-2.082 -1.958,-4.567 -8.904,-4.567 v 0 h -1.514 z" style="fill:url(#linearGradient255);stroke:none" id="path257"></path></g></g></g></g><g id="g259"><g id="g261" clip-path="url(#clipPath265)"><g id="g267" transform="translate(441.209,273.4756)"><path d="M 0,0 C 0.035,1.182 0.107,3.609 0.139,4.697 -0.123,4.713 -1.069,4.777 -2.43,4.865 -2.459,3.768 -2.529,1.41 -2.559,0.236 -1.374,0.131 -0.416,0.041 0,0" style="fill:#ffffff;fill-opacity:1;fill-rule:nonzero;stroke:none" id="path269"></path></g><g id="g271" transform="translate(427.21,263.8193)"><path d="m 0,0 -0.345,-8.268 c 0,0 1.08,-0.033 2.569,-0.078 l 0.341,8.133 c 0,0 7.088,-0.264 8.481,-0.316 0.065,0.795 0.133,1.623 0.203,2.478 C 10.786,1.959 9.811,1.98 8.673,2.01 8.604,1.209 8.543,0.432 8.485,-0.314 7.091,-0.262 0,0 0,0" style="fill:#ffffff;fill-opacity:1;fill-rule:nonzero;stroke:none" id="path273"></path></g><g id="g275" transform="translate(427.668,274.7002)"><path d="m 0,0 -0.356,-8.518 c 0,0 1.125,-0.025 2.568,-0.056 l 0.354,8.34 C 1.077,-0.102 0,0 0,0" style="fill:#ffffff;fill-opacity:1;fill-rule:nonzero;stroke:none" id="path277"></path></g><g id="g279" transform="translate(418.2822,252.6611)"><path d="m 0,0 v -0.398 c 1.551,-0.09 20.351,-1.196 21.903,-1.288 0.1,1.032 0.328,3.475 0.384,4.026 C 21.864,2.354 20.901,2.383 19.71,2.418 19.639,1.686 19.43,-0.174 19.339,-1.135 18.088,-1.062 5.581,-0.332 0,0" style="fill:#ffffff;fill-opacity:1;fill-rule:nonzero;stroke:none" id="path281"></path></g><g id="g283" transform="translate(408.5547,263.0342)"><path d="m 0,0 c -0.074,-5.369 -4.451,-10.775 -14.065,-10.752 -0.263,0 -0.526,0.004 -0.785,0.016 1.039,-0.147 2.149,-0.229 3.348,-0.231 9.613,-0.021 13.989,5.385 14.061,10.752 0,0 0.193,14.76 0.212,16.453 C 2.342,16.225 1.376,16.189 0.209,16.145 0.172,13.482 0,0 0,0" style="fill:#ffffff;fill-opacity:1;fill-rule:nonzero;stroke:none" id="path285"></path></g><g id="g287" transform="translate(395.083,257.5771)"><path d="m 0,0 c 0.299,0 0.591,0.033 0.86,0.092 -1.482,0.572 -2.4,1.926 -2.4,3.722 0,0 -0.063,17.479 -0.07,19.159 -0.409,-0.01 -1.364,-0.034 -2.561,-0.067 C -4.158,20.137 -4.104,4.029 -4.104,4.029 -4.104,1.625 -2.456,0 0,0" style="fill:#ffffff;fill-opacity:1;fill-rule:nonzero;stroke:none" id="path289"></path></g><g id="g291" transform="translate(376.3936,259.1182)"><path d="m 0,0 c 0.028,-1.549 0.082,-4.441 0.082,-4.467 -1.151,-0.158 -13.265,-1.826 -18.672,-2.572 0.036,-0.256 0.071,-0.445 0.086,-0.549 1.571,0.213 19.73,2.709 21.151,2.908 0,0.028 -0.072,3.567 -0.092,4.903 C 2.117,0.186 1.153,0.1 0,0" style="fill:#ffffff;fill-opacity:1;fill-rule:nonzero;stroke:none" id="path293"></path></g><g id="g295" transform="translate(368.9746,258.8916)"><path d="m 0,0 c -0.206,2.787 -1.346,17.922 -1.457,19.482 -0.384,-0.048 -1.318,-0.168 -2.522,-0.316 0.256,-3.465 1.45,-19.391 1.45,-19.391 0,0 1.075,0.096 2.529,0.225" style="fill:#ffffff;fill-opacity:1;fill-rule:nonzero;stroke:none" id="path297"></path></g><g id="g299" transform="translate(329.5596,263.6729)"><path d="M 0,0 C 0.129,0 0.269,-0.006 0.412,-0.01 -0.693,0.154 -1.752,0.205 -2.561,0.213 L -4.076,0.23 -4.127,-9.262 h 1.51 c 0.369,0 0.717,0.006 1.055,0.02 l 0.048,9.256 z" style="fill:#ffffff;fill-opacity:1;fill-rule:nonzero;stroke:none" id="path301"></path></g><g id="g303" transform="translate(340.8584,265.915)"><path d="m 0,0 -0.063,0.441 c 7.515,0.907 9.091,5.518 9.091,7.543 0,0.922 -0.283,2.069 -1.636,3.19 -1.631,1.351 -5.202,3.078 -12.863,3.533 5.919,-0.646 8.862,-2.133 10.297,-3.32 1.355,-1.121 1.639,-2.27 1.639,-3.192 0,-2.023 -1.571,-6.629 -9.092,-7.541 l 0.064,-0.441 c 2.661,-0.527 9.602,-2.576 9.257,-7.975 -0.496,-7.652 -13.006,-8.242 -16.831,-8.242 -0.045,-0.004 -1.618,-0.033 -4.165,0.135 4.021,-0.404 6.669,-0.352 6.725,-0.35 3.825,0 16.34,0.592 16.83,8.242 C 9.604,-2.578 2.662,-0.529 0,0" style="fill:#ffffff;fill-opacity:1;fill-rule:nonzero;stroke:none" id="path305"></path></g><g id="g307" transform="translate(327.3838,267.042)"><path d="M 0,0 C 0.357,0.004 0.703,0.012 1.041,0.033 L 0.937,9.08 2.479,9.068 C 2.811,9.063 3.12,9.049 3.435,9.037 2.395,9.18 1.229,9.27 -0.084,9.281 l -1.538,0.014 0.104,-9.32 z" style="fill:#ffffff;fill-opacity:1;fill-rule:nonzero;stroke:none" id="path309"></path></g><g id="g311" transform="translate(373.0498,239.0068)"><path d="m 0,0 c -0.197,0.949 -1.071,1.605 -2.039,1.52 l -20.643,-1.727 c -0.92,-0.078 -1.657,-0.801 -1.754,-1.717 0,0 -1.045,-9.941 -1.752,-16.672 -3.249,6.444 -8.503,16.862 -8.503,16.862 -0.368,0.72 -1.149,1.14 -1.958,1.039 L -55.651,-3.08 c -0.981,-0.127 -1.706,-0.971 -1.681,-1.953 l 0.846,-40.018 c 0.009,-0.562 0.265,-1.092 0.707,-1.449 0.437,-0.355 1.013,-0.502 1.567,-0.398 l 7.733,1.443 c 0.844,0.16 1.483,0.859 1.559,1.721 0,0 1.117,12.375 1.784,19.789 3.531,-6.848 9.781,-18.963 9.781,-18.963 0.359,-0.696 1.104,-1.104 1.886,-1.028 l 12.161,1.127 c 0.865,0.079 1.565,0.721 1.718,1.569 0,0 2.189,11.969 3.577,19.527 2.86,-7.834 8.032,-22.006 8.032,-22.006 0.328,-0.896 1.268,-1.418 2.208,-1.219 l 10.713,2.303 c 1.03,0.225 1.688,1.237 1.477,2.272 z" style="fill:#008dd0;fill-opacity:1;fill-rule:nonzero;stroke:none" id="path313"></path></g><g id="g315" transform="translate(396.0029,230.5889)"><path d="m 0,0 c 3.806,0.279 7.284,1.846 9.302,4.189 1.266,1.477 1.865,3.139 1.734,4.821 -0.348,4.492 -5.861,7.769 -12.295,7.299 -3.81,-0.28 -7.282,-1.848 -9.301,-4.19 -1.15,-1.334 -1.757,-2.848 -1.757,-4.377 l 0.021,-0.441 C -11.948,2.807 -6.435,-0.471 0,0" style="fill:#008dd0;fill-opacity:1;fill-rule:nonzero;stroke:none" id="path317"></path></g><g id="g319" transform="translate(407.4209,228.6416)"><path d="m 0,0 c -0.386,0.35 -0.901,0.525 -1.416,0.49 l -20.517,-1.412 c -0.541,-0.039 -1.046,-0.305 -1.383,-0.73 -0.333,-0.43 -0.47,-0.985 -0.374,-1.524 l 5.497,-31.064 c 0.175,-1.008 1.105,-1.696 2.115,-1.574 l 16.116,1.888 c 0.996,0.117 1.734,0.975 1.697,1.977 L 0.634,-1.357 C 0.617,-0.84 0.388,-0.35 0,0" style="fill:#008dd0;fill-opacity:1;fill-rule:nonzero;stroke:none" id="path321"></path></g><g id="g323" transform="translate(529.4453,234.7783)"><path d="m 0,0 -12.981,8.127 c -0.709,0.445 -1.62,0.383 -2.252,-0.145 0,0 -14.725,-11.447 -17.371,-13.669 -1.727,2.978 -7.217,12.453 -7.217,12.453 -0.364,0.621 -1.035,0.996 -1.742,0.98 L -60.529,7.252 c -0.692,-0.02 -1.313,-0.406 -1.627,-1.014 -0.144,-0.285 -0.22,-0.593 -0.215,-0.91 0.008,-0.353 0.112,-0.709 0.312,-1.016 0,0 9.58,-14.884 11.269,-17.501 -2.559,-1.807 -19.297,-13.614 -19.297,-13.614 -0.514,-0.361 -0.806,-0.955 -0.797,-1.574 0,-0.039 0.003,-0.076 0.003,-0.113 0.051,-0.666 0.443,-1.262 1.035,-1.582 l 13.228,-7.084 c 0.697,-0.375 1.543,-0.289 2.137,0.211 0,0 9.457,7.961 12.256,10.314 1.562,-3.084 5.757,-11.383 5.757,-11.383 0.322,-0.642 0.978,-1.058 1.696,-1.078 l 18.48,-0.492 c 0.691,-0.018 1.333,0.336 1.68,0.928 0.18,0.304 0.266,0.648 0.258,0.996 -0.003,0.324 -0.092,0.644 -0.262,0.939 0,0 -8.901,15.36 -10.505,18.127 C -22.366,-16.967 0,-3.281 0,-3.281 c 0.575,0.338 0.921,0.953 0.921,1.627 v 0.033 C 0.91,-0.965 0.563,-0.35 0,0" style="fill:#008dd0;fill-opacity:1;fill-rule:nonzero;stroke:none" id="path325"></path></g><g id="g327" transform="translate(455.083,241.4834)"><path d="m 0,0 -8.552,-0.523 c -1.015,-0.061 -1.802,-0.905 -1.802,-1.918 v -15.995 c -3.886,4.549 -10.581,12.391 -10.581,12.391 -0.383,0.445 -0.955,0.695 -1.55,0.67 L -39.403,-6.17 c -1.051,-0.053 -1.864,-0.926 -1.834,-1.969 l 0.983,-36.379 c 0.03,-1.043 0.88,-1.873 1.924,-1.873 h 8.336 c 0.514,0 1.005,0.211 1.368,0.577 0.355,0.359 0.551,0.841 0.551,1.345 0,0.012 -0.16,11.295 -0.238,17.266 4.305,-4.568 13.295,-14.113 13.295,-14.113 0.412,-0.436 0.998,-0.655 1.591,-0.594 l 12.614,1.275 c 0.956,0.098 1.697,0.889 1.726,1.852 l 1.123,36.804 c 0.02,0.538 -0.191,1.065 -0.579,1.44 C 1.069,-0.164 0.541,0.031 0,0" style="fill:#008dd0;fill-opacity:1;fill-rule:nonzero;stroke:none" id="path329"></path></g></g></g><g id="g331"><g id="g333"><g id="g339"><g id="g341"><path d="m 446.645,239.042 v -21.205 c 0,0 -13.206,15.471 -13.956,16.349 v 0 c -1.077,-0.05 -14.85,-0.694 -16.925,-0.791 v 0 c 0.061,-2.24 0.93,-34.159 0.989,-36.381 v 0 h 8.336 c -0.033,2.241 -0.312,22.18 -0.312,22.18 v 0 c 0,0 15.886,-16.857 16.687,-17.708 v 0 c 1.034,0.105 10.831,1.093 12.611,1.275 v 0 c 0.064,2.005 1.052,34.314 1.126,36.803 v 0 c -1.158,-0.073 -6.903,-0.422 -8.556,-0.522" style="fill:url(#linearGradient347);stroke:none" id="path349"></path></g></g></g></g><g id="g351"><g id="g353"><g id="g359"><g id="g361"><path d="m 385.622,225.802 c 0.433,-2.437 5.129,-28.988 5.499,-31.071 v 0 c 1.922,0.229 14.23,1.671 16.117,1.893 v 0 c -0.074,2.043 -1.028,28.457 -1.105,30.59 v 0 c -1.408,-0.1 -18.147,-1.25 -20.511,-1.412" style="fill:url(#linearGradient367);stroke:none" id="path369"></path></g></g></g></g><g id="g371"><g id="g373"><g id="g379"><g id="g381"><path d="m 394.882,244.979 c -3.305,-0.242 -6.29,-1.558 -7.986,-3.525 v 0 c -0.845,-0.982 -1.29,-2.059 -1.29,-3.123 v 0 c 0,-0.096 0.005,-0.194 0.013,-0.291 v 0 c 0.261,-3.387 4.955,-5.918 10.242,-5.533 v 0 c 3.311,0.238 6.295,1.559 7.984,3.529 v 0 c 0.93,1.071 1.366,2.254 1.28,3.41 v 0 c -0.245,3.156 -4.336,5.573 -9.171,5.573 v 0 c -0.354,-0.001 -0.712,-0.013 -1.072,-0.04" style="fill:url(#linearGradient387);stroke:none" id="path389"></path></g></g></g></g><g id="g391"><g id="g393"><g id="g399"><g id="g401"><path d="m 350.527,236.884 c -0.195,-1.858 -2.441,-23.172 -2.441,-23.172 v 0 c 0,0 -10.71,21.234 -11.444,22.697 v 0 c -1.522,-0.197 -17.08,-2.152 -19.005,-2.395 v 0 c 0.046,-2.05 0.794,-37.49 0.849,-40.013 v 0 c 0.881,0.164 6.328,1.177 7.732,1.438 v 0 c 0.154,1.747 2.376,26.372 2.376,26.372 v 0 c 0,0 12.085,-23.423 12.809,-24.828 v 0 c 1.383,0.13 10.628,0.986 12.166,1.13 v 0 c 0.315,1.718 4.851,26.482 4.851,26.482 v 0 c 0,0 9.76,-26.756 10.451,-28.647 v 0 c 1.618,0.352 8.887,1.908 10.711,2.303 v 0 c -0.468,2.248 -7.992,38.355 -8.414,40.363 v 0 c -0.966,-0.083 -18.809,-1.576 -20.641,-1.73" style="fill:url(#linearGradient407);stroke:none" id="path409"></path></g></g></g></g><g id="g411"><g id="g413"><g id="g419"><g id="g421"><path d="m 496.346,226.141 c 0,0 -7.689,13.264 -8.382,14.465 v 0 c -1.197,-0.037 -15.754,-0.418 -18.967,-0.5 v 0 c 1.976,-3.064 12.264,-19.048 12.264,-19.048 v 0 c 0,0 -17.964,-12.672 -20.777,-14.663 v 0 c 1.354,-0.724 11.918,-6.381 13.228,-7.079 v 0 c 1.166,0.982 14.111,11.876 14.111,11.876 v 0 c 0,0 6.246,-12.359 6.866,-13.584 v 0 c 1.389,-0.039 17.404,-0.46 18.48,-0.49 v 0 c -1.838,3.17 -11.459,19.774 -11.459,19.774 v 0 c 0,0 23.753,14.503 26.734,16.266 v 0 c -2.615,1.632 -11.743,7.347 -12.983,8.122 v 0 c -1.237,-1.045 -19.115,-15.139 -19.115,-15.139" style="fill:url(#linearGradient427);stroke:none" id="path429"></path></g></g></g></g><g id="g431"><g id="g433" clip-path="url(#clipPath437)"><g id="g439" transform="translate(322.6914,195.4385)"><path d="m 0,0 c -0.723,-0.133 -2.525,-0.469 -4.222,-0.783 0.008,-0.301 0.01,-0.528 0.016,-0.654 0.882,0.164 6.328,1.177 7.732,1.437 0.106,1.201 1.186,13.164 1.854,20.561 -1.734,3.359 -3,5.812 -3,5.812 C 2.38,26.373 0.159,1.748 0,0" style="fill:#ffffff;fill-opacity:1;fill-rule:nonzero;stroke:none" id="path441"></path></g><g id="g443" transform="translate(367.7051,238.3232)"><path d="m 0,0 c 0.828,-3.961 7.961,-38.061 8.412,-40.234 -1.187,-0.256 -4.699,-1.008 -7.44,-1.598 0.12,-0.334 0.149,-0.416 0.194,-0.543 1.617,0.352 8.887,1.908 10.711,2.303 C 11.409,-37.824 3.885,-1.717 3.463,0.291 3.217,0.271 1.885,0.156 0,0" style="fill:#ffffff;fill-opacity:1;fill-rule:nonzero;stroke:none" id="path445"></path></g><g id="g447" transform="translate(345.1729,219.4912)"><path d="m 0,0 c -3.229,6.4 -8.048,15.953 -8.53,16.918 -0.38,-0.051 -1.627,-0.209 -3.314,-0.418 1.661,-3.299 11.237,-22.279 11.237,-22.279 0,0 0.259,2.461 0.607,5.779" style="fill:#ffffff;fill-opacity:1;fill-rule:nonzero;stroke:none" id="path449"></path></g><g id="g451" transform="translate(350.0488,198.4404)"><path d="m 0,0 c -1.038,-0.096 -5.703,-0.512 -8.976,-0.818 0.073,-0.135 0.297,-0.582 0.33,-0.639 1.383,0.129 10.628,0.986 12.166,1.129 C 3.727,0.82 5.825,12.26 7.191,19.725 5.828,23.461 4.85,26.154 4.85,26.154 4.85,26.154 0.312,1.719 0,0" style="fill:#ffffff;fill-opacity:1;fill-rule:nonzero;stroke:none" id="path453"></path></g><g id="g455" transform="translate(402.6221,226.9756)"><path d="m 0,0 c 0.119,-3.359 1.018,-28.363 1.095,-30.352 -1.379,-0.162 -8.276,-0.97 -12.671,-1.488 0.034,-0.168 0.057,-0.314 0.075,-0.404 1.922,0.228 14.23,1.67 16.117,1.892 C 4.542,-28.309 3.589,-1.895 3.511,0.238 3.156,0.211 1.827,0.119 0,0" style="fill:#ffffff;fill-opacity:1;fill-rule:nonzero;stroke:none" id="path457"></path></g><g id="g459" transform="translate(401.6025,239.4463)"><path d="m 0,0 c 0.093,-1.156 -0.354,-2.34 -1.282,-3.41 -1.578,-1.838 -4.285,-3.098 -7.322,-3.457 0.916,-0.113 1.879,-0.145 2.863,-0.072 3.31,0.238 6.295,1.558 7.984,3.529 C 3.173,-2.34 3.608,-1.156 3.522,0 3.26,3.387 -1.432,5.922 -6.721,5.533 -6.942,5.518 -7.159,5.482 -7.376,5.457 -3.36,4.945 -0.214,2.756 0,0" style="fill:#ffffff;fill-opacity:1;fill-rule:nonzero;stroke:none" id="path461"></path></g><g id="g463" transform="translate(421.5635,197.0146)"><path d="M 0,0 H 3.525 C 3.501,1.621 3.352,12.484 3.272,18.385 1.185,20.598 -0.305,22.18 -0.305,22.18 -0.305,22.18 -0.032,2.24 0,0" style="fill:#ffffff;fill-opacity:1;fill-rule:nonzero;stroke:none" id="path465"></path></g><g id="g467" transform="translate(450.5107,202.9912)"><path d="m 0,0 c -1.199,-0.125 -6.231,-0.613 -9.583,-0.951 0.154,-0.162 0.488,-0.504 0.537,-0.555 1.033,0.106 10.83,1.094 12.61,1.276 C 3.628,1.775 4.616,34.084 4.69,36.572 4.168,36.539 2.735,36.451 1.159,36.355 1.048,32.654 0.06,1.957 0,0" style="fill:#ffffff;fill-opacity:1;fill-rule:nonzero;stroke:none" id="path469"></path></g><g id="g471" transform="translate(443.124,221.96)"><path d="m 0,0 c -3.97,4.65 -9.937,11.643 -10.435,12.227 -0.304,-0.014 -1.614,-0.075 -3.39,-0.161 C -12.257,10.229 0,-4.123 0,-4.123 Z" style="fill:#ffffff;fill-opacity:1;fill-rule:nonzero;stroke:none" id="path473"></path></g><g id="g475" transform="translate(471.5596,200.4639)"><path d="m 0,0 c 1.057,-0.562 1.851,-0.988 2.152,-1.148 0.846,0.707 7.825,6.582 11.641,9.791 -0.637,1.25 -1.052,2.086 -1.052,2.086 C 12.741,10.729 3.613,3.045 0,0" style="fill:#ffffff;fill-opacity:1;fill-rule:nonzero;stroke:none" id="path477"></path></g><g id="g479" transform="translate(495.1904,228.1338)"><path d="m 0,0 c -2.174,3.748 -6.703,11.564 -7.227,12.473 -0.323,-0.014 -1.655,-0.047 -3.472,-0.094 0.941,-1.619 8.329,-14.371 8.329,-14.371 0,0 0.96,0.808 2.37,1.992" style="fill:#ffffff;fill-opacity:1;fill-rule:nonzero;stroke:none" id="path481"></path></g><g id="g483" transform="translate(501.71,216.8916)"><path d="m 0,0 c 0,0 23.753,14.504 26.734,16.266 -2.615,1.632 -11.743,7.347 -12.982,8.123 -0.211,-0.18 -0.753,-0.637 -1.501,-1.262 3.178,-1.992 8.965,-5.613 10.962,-6.861 C 20.23,14.504 -3.523,0 -3.523,0 c 0,0 8.423,-14.541 11.008,-19 l -14.853,0.408 0.347,-0.691 18.017,-0.49 -0.006,0.009 c 0.229,-0.006 0.391,-0.006 0.469,-0.009 C 9.621,-16.604 0,0 0,0" style="fill:#ffffff;fill-opacity:1;fill-rule:nonzero;stroke:none" id="path485"></path></g><g id="g487" transform="translate(529.041,261.8936)"><path d="m 0,0 8.593,7.398 -10.949,7.383 c 0,0 -10.911,-0.019 -12.987,0.334 -1.567,0.268 -4.668,2.51 -6.097,3.596 0.908,-0.033 2.527,0.004 4.318,0.486 2.736,0.744 4.618,2.463 5.728,5.27 1.115,2.806 -0.1,6.056 -0.1,6.056 l -1.398,1.364 0.221,14.164 c 0,0 -0.653,2.955 -2.714,6.892 2.618,0.455 7.697,2.598 7.697,2.598 0,0 12.482,12.459 12.933,17.807 -0.089,20.281 -16.484,22.804 -16.484,22.804 0,0 2.167,-2.127 2.008,-6.918 -0.046,-1.482 -3.572,-5.644 -5.354,-5.964 -4.864,0.158 -12.696,3.48 -18.046,3.662 -5.966,-0.071 -12.727,-2.489 -14.837,-6.612 -0.015,0 -1.308,-4.252 -2.226,-7.281 l -0.436,0.234 c 0,0 -15.409,-2.839 -20.587,-5.002 -5.182,-2.158 -15.735,-10.292 -15.735,-10.292 l -1.512,-12.092 -1.734,-1.842 3.884,-2.572 -0.182,-1.16 c 0,0 -1.154,0.751 -3.993,0.103 -2.845,-0.639 -3.595,-4.113 -2.547,-7.66 0.432,-1.475 5.88,-6.074 5.88,-6.074 0,0 -0.864,-3.657 -0.72,-4.856 0.14,-1.203 3.015,-5.342 3.973,-6.529 0.883,-1.098 8.156,-8.096 9.298,-9.193 l -0.502,-0.125 c 0,0 -6.454,-1.282 -11.548,-3.299 -3.444,-6.528 -4.302,-18.61 -4.302,-18.61 l -3.061,-2.687 -1.445,-3.979 c 0,0 -3.085,1.088 -4.794,-0.91 0.487,-2.461 5.489,-7.195 5.489,-7.195 l 9.122,3.258 0.992,7.078 c 0,0 5.35,6.824 6.177,8.908 0.827,2.086 1.494,5.961 1.494,5.961 l 10.202,-1.332 c 0.023,-0.057 0.06,-0.131 0.093,-0.193 0.662,-1.325 2.116,-4.276 4.051,-8.098 0.574,0.172 1.175,0.269 1.79,0.287 l 18.968,0.496 c 2.583,0.065 5.001,-1.291 6.307,-3.545 0,0 2.187,-3.773 4.242,-7.32 5.159,4.068 12.44,9.73 12.868,10.062 l -0.147,-0.121 c 1.41,1.186 3.184,1.719 4.948,1.582 l -7.029,4.276 2.943,6.513 c 0,0 -8.012,6.178 -8.744,7.289 l 11.179,0.928 z" style="fill:#000001;fill-opacity:1;fill-rule:nonzero;stroke:none" id="path489"></path></g><g id="g491" transform="translate(501.4053,268.2021)"><path d="m 0,0 c 1.78,-0.533 13.16,0.623 13.16,0.623 l 14.137,-5.781 6.929,5.84 c 0,0 -8.283,5.451 -9.697,5.777 -1.41,0.336 -13.617,0.592 -13.617,0.592 L 4.623,11.279 -2.031,5.197 Z" style="fill:#fed7b3;fill-opacity:1;fill-rule:nonzero;stroke:none" id="path493"></path></g><g id="g495" transform="translate(507.6338,272.2861)"><path d="m 0,0 c 0.439,0.617 4.076,2.271 4.076,2.271 l 4.177,-2.087 9.753,1.005 7.341,-6.824 2.65,2.233 c 0,0 -8.282,5.451 -9.696,5.777 C 16.891,2.711 4.684,2.967 4.684,2.967 L -1.605,7.195 -8.26,1.113 -6.229,-4.084 C -5.437,-4.32 -2.74,-4.221 0.006,-4.043 -0.129,-2.621 -0.292,-0.412 0,0" style="fill:#e3b28d;fill-opacity:1;fill-rule:nonzero;stroke:none" id="path497"></path></g><g id="g499" transform="translate(477.5752,263.624)"><path d="M 0,0 8.242,2.76 5.758,-3.232 Z" style="fill:#e3b28d;fill-opacity:1;fill-rule:nonzero;stroke:none" id="path501"></path></g><g id="g503" transform="translate(433.1572,238.6338)"><path d="m 0,0 c -0.858,0.342 -2.497,-0.541 -2.497,-0.541 l 1.975,-2.609 1.08,2.755 z" style="fill:#f2cfb0;fill-opacity:1;fill-rule:nonzero;stroke:none" id="path505"></path></g><g id="g507" transform="translate(439.2969,244.915)"><path d="m 0,0 -3.21,-2.648 -2.248,-8.069 1.944,-1.08 6.946,2.303 0.978,7.57 c 0,0 0.492,0.487 1.338,1.496 C 3.336,-0.314 1.446,0.68 0.324,1.463 0.339,1.385 0,0 0,0" style="fill:#f4d4b3;fill-opacity:1;fill-rule:nonzero;stroke:none" id="path509"></path></g><g id="g511" transform="translate(434.248,235.665)"><path d="m 0,0 -0.409,-1.467 1.944,-1.08 6.945,2.303 0.979,7.57 c 0,0 0.492,0.486 1.338,1.496 C 9.856,8.867 8.992,9.047 8.222,9.299 6.549,7.205 4.643,4.963 3.709,4.078 3.556,2.811 2.523,-0.906 0,0" style="fill:#e3b28d;fill-opacity:1;fill-rule:nonzero;stroke:none" id="path513"></path></g><g id="g515" transform="translate(461.6299,257.5557)"><path d="m 0,0 c 0,0 -0.288,5.096 -1.951,6.457 -0.478,0.441 -3.835,2.371 -3.835,2.371 0,0 -9.818,-1.58 -11.674,-2.666 -1.195,-1.115 -2.071,-3.984 -2.804,-7.402 1.374,-1.332 4.18,-3.237 9.103,-3.461 0.627,2.664 0.619,4.849 0.619,4.849 z" style="fill:#fed7b3;fill-opacity:1;fill-rule:nonzero;stroke:none" id="path517"></path></g><g id="g519" transform="translate(459.6787,264.0127)"><path d="m 0,0 c -0.478,0.441 -3.835,2.371 -3.835,2.371 0,0 -0.417,-0.066 -1.088,-0.182 0.979,-0.378 1.895,-1.373 2.172,-3.933 -0.428,-0.565 -5.863,-1.779 -5.863,-1.779 0,0 -2.621,1.423 -3.61,1.457 1.362,-1.092 2.453,-1.418 2.809,-2.879 -0.412,-1.571 -1.469,-3.731 -2.574,-5.873 0.842,-0.17 1.763,-0.291 2.779,-0.34 0.627,2.664 0.619,4.849 0.619,4.849 L 1.951,-6.457 c 0,0 -0.288,5.096 -1.951,6.457" style="fill:#e3b28d;fill-opacity:1;fill-rule:nonzero;stroke:none" id="path521"></path></g><g id="g523" transform="translate(439.877,247.583)"><path d="m 0,0 c 1.037,-0.803 3.176,-2.078 6.016,-2.004 1.441,1.709 3.158,3.77 3.726,4.512 0.21,0.543 0.387,1.101 0.547,1.66 C 5.623,4.422 2.76,6.133 1.196,7.502 0.65,4.779 0.249,1.996 0,0" style="fill:#ffffff;fill-opacity:1;fill-rule:nonzero;stroke:none" id="path525"></path></g><g id="g527" transform="translate(443.1738,245.9287)"><path d="M 0,0 C 0.809,-0.232 1.717,-0.377 2.719,-0.35 4.16,1.359 5.877,3.42 6.445,4.162 6.655,4.705 6.832,5.264 6.992,5.822 5.898,5.885 4.92,6.023 4.023,6.223 2.928,4.15 1.976,2.512 1.976,2.512 1.976,2.512 1.13,1.42 0,0" style="fill:#bcbec0;fill-opacity:1;fill-rule:nonzero;stroke:none" id="path529"></path></g><g id="g531" transform="translate(468.5205,247.0518)"><path d="m 0,0 c 0.059,0.002 0.117,0.01 0.174,0.01 l 18.968,0.496 c 1.919,0.049 3.745,-0.692 5.098,-1.998 1.346,0.908 2.979,1.859 5.104,2.838 8.694,3.984 10.502,7.283 11.236,10.191 -2.548,-0.392 -10.631,11.91 -10.631,11.91 L 18.646,19.764 19.252,16.338 15.041,12.477 11.445,12.879 7.52,16.082 4.098,13.898 -4.82,15.029 -4.381,9.34 C -4.381,9.34 -2.17,4.631 0,0" style="fill:#008dd0;fill-opacity:1;fill-rule:nonzero;stroke:none" id="path533"></path></g><g id="g535" transform="translate(464.7197,255.165)"><path d="m 0,0 c 1.4,1.666 3.379,3.365 5.649,3.414 5.429,-4.057 14.574,-9.564 22.127,-8.121 -1.651,-0.807 -2.964,-1.85 -3.999,-2.932 0.852,-0.078 1.673,-0.312 2.428,-0.681 3.506,2.447 6.633,3.502 6.633,3.502 l 3.584,-0.33 c 5.839,3.132 7.326,6.082 7.959,8.572 C 41.833,3.031 33.75,15.334 33.75,15.334 L 22.447,11.65 23.053,8.225 18.842,4.363 15.246,4.766 11.32,7.969 7.898,5.785 -1.02,6.916 -0.58,1.227 c 0,0 0.218,-0.459 0.58,-1.227" style="fill:#005387;fill-opacity:1;fill-rule:nonzero;stroke:none" id="path537"></path></g><g id="g539" transform="translate(493.9687,244.0127)"><path d="M 0,0 C 0,0 2.188,-3.773 4.242,-7.32 9.401,-3.252 16.683,2.41 17.11,2.742 L 16.963,2.621 c 0.638,0.533 1.349,0.936 2.1,1.203 -2.205,1.5 -4.539,3.278 -4.535,3.324 C 11.534,3.955 4.227,1.984 -0.132,0.205 -0.089,0.137 -0.043,0.068 0,0" style="fill:#008dd0;fill-opacity:1;fill-rule:nonzero;stroke:none" id="path541"></path></g><g id="g543" transform="translate(506.2617,243.0029)"><path d="M 0,0 C 2.593,2.021 4.599,3.58 4.817,3.752 L 4.67,3.631 c 0.638,0.533 1.349,0.935 2.101,1.203 -2.206,1.5 -4.54,3.277 -4.536,3.324 -2.022,-2.154 -6.007,-3.75 -9.72,-5.111 2.582,0.019 6.422,0.172 6.422,0.172 0,0 0.655,-1.471 1.063,-3.219" style="fill:#005387;fill-opacity:1;fill-rule:nonzero;stroke:none" id="path545"></path></g><g id="g547" transform="translate(490.0498,307.7471)"><path d="m 0,0 c 0,0 -10.245,2.318 -17.46,3.602 0,0 -1.581,0.154 -3.727,0.285 -0.008,0 -0.022,0.002 -0.034,0 l 0.651,-4.959 c 0,0 -8.742,1.769 -10.99,2.699 -1.341,0.553 -2.68,1.885 -3.541,2.863 -0.523,-0.045 -2.508,-0.222 -3.568,-0.312 -0.002,0.004 -7.291,-3.33 -7.291,-3.33 l 6.18,-3.221 8.371,0.678 14.204,-0.793 c 5.881,-1.014 14.365,-2.586 19.105,-4.061 7.75,-2.422 21.128,-7.828 21.128,-7.828 0,0 0.554,1.637 0.588,2.654 C 18.039,-7.043 0,0 0,0" style="fill:#008dd0;fill-opacity:1;fill-rule:nonzero;stroke:none" id="path549"></path></g><g id="g551" transform="translate(458.2607,304.4795)"><path d="m 0,0 10.807,-0.615 c 9.345,-0.658 27.239,-4.188 38.437,-11.559 -0.639,-4.178 -2.173,-7.935 -3.865,-11.447 -0.643,-1.348 -7.113,-6.691 -13.445,-10.412 -5.256,-3.086 -11.319,-4.863 -16.254,-6.715 -4.457,-1.67 -10.566,0.785 -10.566,0.785 0,0 -16.658,11.041 -20.01,19.818 0.15,1.899 1.68,7.223 1.68,7.223 l 0.492,11.098 z" style="fill:#fed7b3;fill-opacity:1;fill-rule:nonzero;stroke:none" id="path553"></path></g><g id="g555" transform="translate(443.4893,300.1006)"><path d="M 0,0 C 0,0 -2.426,1.264 -3.679,0.639 -4.935,0.016 -5.737,-2.139 -5.233,-4.357 -4.726,-6.576 -1.42,-8.852 -0.646,-9.063 0.131,-9.275 0,0 0,0" style="fill:#fed7b3;fill-opacity:1;fill-rule:nonzero;stroke:none" id="path557"></path></g><g id="g559" transform="translate(509.1934,290.4775)"><path d="m 0,0 -2.177,-7.467 c 0,0 5.115,-0.828 7.187,2.449 2.071,3.278 2.193,4.764 0.659,6.071 C 3.831,2.623 0,0 0,0" style="fill:#fed7b3;fill-opacity:1;fill-rule:nonzero;stroke:none" id="path561"></path></g><g id="g563" transform="translate(511.5479,291.6748)"><path d="m 0,0 c -1.26,-0.311 -2.354,-1.197 -2.354,-1.197 l -2.177,-7.467 3.14,0.049 -0.476,2.804 z" style="fill:#e3b28d;fill-opacity:1;fill-rule:nonzero;stroke:none" id="path565"></path></g><g id="g567" transform="translate(514.2783,287.9092)"><path d="m 0,0 c 0,0 0.835,2.791 -2.033,2.535 -2.87,-0.26 -3.561,-3.951 -3.561,-3.951 0,0 4.297,4.984 5.594,1.416" style="fill:#000001;fill-opacity:1;fill-rule:nonzero;stroke:none" id="path569"></path></g><g id="g571" transform="translate(439.9258,296.5029)"><path d="M 0,0 C 0,0 -0.426,3.281 1.673,2.746 4.547,2.01 4.069,-1.943 4.069,-1.943 4.069,-1.943 1.187,3.965 0,0" style="fill:#000001;fill-opacity:1;fill-rule:nonzero;stroke:none" id="path573"></path></g><g id="g575" transform="translate(463.5479,277.4365)"><path d="m 0,0 -1.205,-2.174 c 0,0 1.834,1.285 2.497,1.36 0.657,0.074 8.883,-1.834 11.577,-0.29 2.69,1.553 3.826,4.698 3.826,4.698 0,0 -3.668,-2.676 -5.943,-3.18 C 8.475,-0.09 1.339,0.535 0,0" style="fill:#000001;fill-opacity:1;fill-rule:nonzero;stroke:none" id="path577"></path></g><g id="g579" transform="translate(448.4639,287.542)"><path d="m 0,0 c -0.013,-0.385 -0.306,-0.687 -0.649,-0.676 -0.346,0.012 -0.614,0.334 -0.602,0.721 0.014,0.383 0.299,0.682 0.651,0.674 C -0.259,0.705 0.012,0.385 0,0" style="fill:#eba79f;fill-opacity:1;fill-rule:nonzero;stroke:none" id="path581"></path></g><g id="g583" transform="translate(452.2588,286.7061)"><path d="m 0,0 c -0.014,-0.449 -0.354,-0.805 -0.759,-0.791 -0.4,0.014 -0.719,0.393 -0.701,0.84 0.014,0.449 0.355,0.803 0.754,0.789 C -0.302,0.826 0.016,0.451 0,0" style="fill:#eba79f;fill-opacity:1;fill-rule:nonzero;stroke:none" id="path585"></path></g><g id="g587" transform="translate(450.1621,284.5576)"><path d="m 0,0 c -0.018,-0.51 -0.4,-0.912 -0.859,-0.895 -0.459,0.012 -0.818,0.438 -0.801,0.95 0.015,0.515 0.403,0.912 0.857,0.9 C -0.341,0.936 0.016,0.512 0,0" style="fill:#eba79f;fill-opacity:1;fill-rule:nonzero;stroke:none" id="path589"></path></g><g id="g591" transform="translate(487.5967,285.4346)"><path d="m 0,0 c 0.117,-0.449 -0.111,-0.902 -0.518,-1.012 -0.402,-0.107 -0.824,0.164 -0.94,0.617 -0.111,0.45 0.116,0.905 0.521,1.012 C -0.533,0.729 -0.111,0.451 0,0" style="fill:#eba79f;fill-opacity:1;fill-rule:nonzero;stroke:none" id="path593"></path></g><g id="g595" transform="translate(492.2744,285.8154)"><path d="m 0,0 c 0.134,-0.527 -0.136,-1.055 -0.611,-1.184 -0.474,-0.125 -0.964,0.196 -1.098,0.719 -0.133,0.527 0.138,1.059 0.614,1.184 C -0.631,0.852 -0.136,0.525 0,0" style="fill:#eba79f;fill-opacity:1;fill-rule:nonzero;stroke:none" id="path597"></path></g><g id="g599" transform="translate(490.5752,282.5869)"><path d="m 0,0 c 0.148,-0.596 -0.154,-1.193 -0.692,-1.34 -0.535,-0.148 -1.091,0.219 -1.247,0.82 -0.149,0.596 0.158,1.194 0.691,1.342 C -0.711,0.963 -0.154,0.598 0,0" style="fill:#eba79f;fill-opacity:1;fill-rule:nonzero;stroke:none" id="path601"></path></g><g id="g603" transform="translate(471.2217,284.7197)"><path d="m 0,0 c -0.025,-0.703 -1.963,-1.211 -4.328,-1.131 -2.369,0.08 -4.267,0.713 -4.245,1.416 0.025,0.699 1.956,1.207 4.331,1.125 C -1.88,1.332 0.021,0.697 0,0" style="fill:#b29a7f;fill-opacity:1;fill-rule:nonzero;stroke:none" id="path605"></path></g><g id="g607" transform="translate(513.4424,311.8115)"><path d="m 0,0 c -0.686,3.006 -15.484,16.801 -15.484,16.801 l -10.236,-0.281 -9.448,5.154 -15.308,-3.031 -18.52,-10.516 -2.164,-11.133 5.464,3.811 c 0,0 5.327,1.138 5.337,1.175 -1.965,3.073 0.463,6.692 0.463,6.692 0,0 -0.559,-4.574 3.114,-7.83 2.996,-2.654 10.884,-3.738 10.884,-3.738 l -0.5,5.646 0.591,4.156 1.411,2.338 c 0,0 -0.284,-2.156 -0.442,-4.154 -0.158,-2 0.518,-2.75 0.518,-2.75 l 18.795,-3.152 c 0,0 22.851,-8.518 25.94,-12.946 C 0.295,-13.629 1.514,-6.666 0,0" style="fill:#f58345;fill-opacity:1;fill-rule:nonzero;stroke:none" id="path609"></path></g><g id="g611" transform="translate(469.0674,303.8643)"><path d="m 0,0 -10.807,0.615 -12.723,-1.824 -0.098,-2.139 13.214,3.209 c 0,0 20.207,-0.605 40.779,-8.603 0.85,-2.071 -3.33,-13.975 -3.33,-13.975 L 5.159,-37.996 c 0,0 -5.647,-1.461 -13.269,0.342 1.478,-1.069 2.418,-1.694 2.418,-1.694 0,0 6.108,-2.455 10.565,-0.785 4.936,1.852 10.998,3.629 16.254,6.715 6.332,3.721 12.803,9.064 13.445,10.412 1.693,3.512 3.227,7.27 3.866,11.447 C 27.239,-4.187 9.346,-0.658 0,0" style="fill:#e3b28d;fill-opacity:1;fill-rule:nonzero;stroke:none" id="path613"></path></g><g id="g615" transform="translate(492.3877,291.1006)"><path d="m 0,0 c -2.686,-1.775 -9.912,-2.525 -10.848,-2.301 0,0 3.436,-1.045 6.766,-0.043 C -0.852,-1.369 0,0 0,0" style="fill:#000001;fill-opacity:1;fill-rule:nonzero;stroke:none" id="path617"></path></g><g id="g619" transform="translate(478.2217,294.1494)"><path d="m 0,0 c -0.018,-2.559 2.202,-4.762 3.965,-5.246 1.226,-0.328 5.844,-0.109 8.754,1.252 1.259,0.59 2.222,1.531 2.414,2.664 C 15.59,1.422 12.094,7.432 5.32,5.902 2.113,5.18 0.014,2.414 0,0" style="fill:#ffffff;fill-opacity:1;fill-rule:nonzero;stroke:none" id="path621"></path></g><g id="g623" transform="translate(492.4756,294.3779)"><path d="m 0,0 c 0.107,3.299 -2.173,6.051 -5.102,6.148 -2.927,0.098 -5.386,-2.5 -5.496,-5.798 -0.107,-3.299 2.172,-6.053 5.1,-6.151 C -2.568,-5.898 -0.109,-3.303 0,0" style="fill:#000001;fill-opacity:1;fill-rule:nonzero;stroke:none" id="path625"></path></g><g id="g627" transform="translate(490.1162,296.3545)"><path d="m 0,0 c -0.043,-1.293 -0.726,-2.314 -1.527,-2.291 -0.805,0.031 -1.418,1.094 -1.376,2.383 0.045,1.293 0.73,2.316 1.53,2.287 C -0.572,2.354 0.046,1.287 0,0" style="fill:#ffffff;fill-opacity:1;fill-rule:nonzero;stroke:none" id="path629"></path></g><g id="g631" transform="translate(472.8447,306.1943)"><path d="m 0,0 -0.631,-2.205 c 0,0 3.19,-4.525 4.125,-5.363 C 4.429,-8.41 6.418,-9.27 6.418,-9.27 l 12.756,6.149 7.287,-4.92 -0.024,5.896 c 0,0 -4.642,5.407 -6.316,6.42 C 19.056,4.924 6.435,-1.203 5.469,-1.371 4.498,-1.543 0,0 0,0" style="fill:#000001;fill-opacity:1;fill-rule:nonzero;stroke:none" id="path633"></path></g><g id="g635" transform="translate(474.0811,303.876)"><path d="m 0,0 c 0,0 2.389,-3.877 4.708,-4.504 1.734,0.33 11.715,5.463 13.531,5.299 1.819,-0.168 5.774,-4.385 5.774,-4.385 l -0.626,3.086 c 0,0 -2.513,4.088 -4.516,5.055 C 16.863,5.514 5.691,-0.811 4.475,-0.873 3.256,-0.936 0,0 0,0" style="fill:#f58345;fill-opacity:1;fill-rule:nonzero;stroke:none" id="path637"></path></g><g id="g639" transform="translate(494.2842,307.4502)"><path d="M 0,0 0.199,-3.861 C 1.822,-4.869 3.76,-7.111 3.76,-7.111 L 3.479,-4.25 C 3.479,-4.25 1.61,-1.779 0,0" style="fill:#cc7349;fill-opacity:1;fill-rule:nonzero;stroke:none" id="path641"></path></g><g id="g643" transform="translate(491.7041,296.8916)"><path d="m 0,0 c 1.813,-2.248 1.768,-3.559 1.768,-3.559 1.004,0.963 1.341,1.471 1.341,1.448 -1.075,2.447 -5.152,5.666 -5.152,5.666 l -2.213,0.437 -3.127,0.119 c 0,0 4.432,0.032 7.383,-4.111" style="fill:#000001;fill-opacity:1;fill-rule:nonzero;stroke:none" id="path645"></path></g><g id="g647" transform="translate(479.7471,297.4619)"><path d="m 0,0 c 0,0 -1.244,-0.941 -1.33,-2.025 0,0 2.809,2.767 5.372,3.666" style="fill:#000001;fill-opacity:1;fill-rule:nonzero;stroke:none" id="path649"></path></g><g id="g651" transform="translate(446.6445,295.4521)"><path d="m 0,0 c 0.143,3.086 2.523,6.594 5.796,5.383 0,0 4.024,-0.887 5.791,-3.854 0.86,-1.433 1.405,-3.617 1.043,-5.205 C 12.123,-5.857 5.984,-7.184 2.274,-4.734 0.615,-3.639 -0.073,-1.598 0,0" style="fill:#ffffff;fill-opacity:1;fill-rule:nonzero;stroke:none" id="path653"></path></g><g id="g655" transform="translate(458.7988,294.3193)"><path d="M 0,0 C 0.102,2.971 -2.159,5.537 -4.547,5.619 -6.941,5.699 -8.959,3.354 -9.055,0.383 -9.154,-2.588 -7.297,-5.061 -4.905,-5.139 -2.514,-5.217 -0.096,-2.969 0,0" style="fill:#000001;fill-opacity:1;fill-rule:nonzero;stroke:none" id="path657"></path></g><g id="g659" transform="translate(457.2754,290.0225)"><path d="m 0,0 c -4.65,-1.809 -8.982,1.291 -9.66,1.934 0,0 0.81,-1.963 3.998,-2.721 C -2.139,-1.625 0,0 0,0" style="fill:#000001;fill-opacity:1;fill-rule:nonzero;stroke:none" id="path661"></path></g><g id="g663" transform="translate(448.7383,308.1689)"><path d="m 0,0 -5.147,0.703 -3.285,-2.672 7.965,-4.433 10.185,-4.885 1.409,2.158 -0.82,4.037 z" style="fill:#000001;fill-opacity:1;fill-rule:nonzero;stroke:none" id="path665"></path></g><g id="g667" transform="translate(458.5859,299.4033)"><path d="m 0,0 -0.216,-1.285 -2.731,1.762 -10.356,5.156 -3.487,0.931 c 0,0 0.803,1.305 1.954,1.45 0.361,0.043 4.568,-0.926 4.568,-0.926 l 9.525,-4.422 z" style="fill:#f58345;fill-opacity:1;fill-rule:nonzero;stroke:none" id="path669"></path></g><g id="g671" transform="translate(450.4746,301.0732)"><path d="m 0,0 c 0,0 -3.511,-0.662 -4.082,-2.418 0,0 0.328,-1.426 0.284,-2.799 0,0 0.792,4.537 5.284,4.287 z" style="fill:#000001;fill-opacity:1;fill-rule:nonzero;stroke:none" id="path673"></path></g><g id="g675" transform="translate(456.5645,295.7373)"><path d="M 0,0 C -0.038,-1.221 -0.625,-2.184 -1.314,-2.162 -2,-2.141 -2.525,-1.137 -2.486,0.082 -2.447,1.299 -1.854,2.266 -1.167,2.242 -0.479,2.219 0.04,1.215 0,0" style="fill:#ffffff;fill-opacity:1;fill-rule:nonzero;stroke:none" id="path677"></path></g><g id="g679" transform="translate(513.4424,311.8115)"><path d="m 0,0 c -0.686,3.006 -15.484,16.801 -15.484,16.801 l 6.152,-9.36 0.589,-10.265 -1.202,-4.512 C -5.159,-9.594 -0.812,-12 0.415,-13.758 0.295,-13.629 1.514,-6.666 0,0" style="fill:#cc7349;fill-opacity:1;fill-rule:nonzero;stroke:none" id="path681"></path></g><g id="g683" transform="translate(487.7227,328.3311)"><path d="m 0,0 -9.448,5.154 -2.174,-0.427 5.757,-8.139 z" style="fill:#cc7349;fill-opacity:1;fill-rule:nonzero;stroke:none" id="path685"></path></g><g id="g687" transform="translate(513.666,296.0244)"><path d="M 0,0 C -2.034,1.705 -5.72,3.721 -9.581,5.6 -9.714,4.541 -9.959,2.674 -10.26,1.117 c 5.239,-1.98 9.672,-3.771 9.672,-3.771 0,0 0.554,1.636 0.588,2.654" style="fill:#005387;fill-opacity:1;fill-rule:nonzero;stroke:none" id="path689"></path></g><g id="g691" transform="translate(463.4258,311.6768)"><path d="M 0,0 C 0,0 -2.762,-0.24 -5.945,0.373 -2.544,-1.838 4.118,-2.762 4.118,-2.762 L 3.618,2.885 4.21,7.041 5.429,9.057 2.573,6.428 Z" style="fill:#cc7349;fill-opacity:1;fill-rule:nonzero;stroke:none" id="path693"></path></g><g id="g695" transform="translate(481.0771,333.9639)"><path d="m 0,0 c 0,0 0.598,7.332 3.873,9.621 3.273,2.291 12.818,3.494 12.818,3.494 0,0 15.681,-4.834 17.821,-4.437 2.134,0.394 7.114,4.115 7.176,5.97 0.065,1.864 -1.47,6.579 -1.47,6.579 l 7.991,-6.866 c 0,0 2.707,-9.799 1.826,-13.496 -1.096,-3.189 -9.889,-14.424 -9.889,-14.424 L 31.964,-16.541 17.361,-3.439 13.871,1.756 7.516,2.479 3.854,-1.729 Z" style="fill:#f58345;fill-opacity:1;fill-rule:nonzero;stroke:none" id="path697"></path></g><g id="g699" transform="translate(486.1338,331.3838)"><path d="M 0,0 2.789,3.6 7.717,2.795 8.965,1.459 8.063,-1.195 2.523,-1.187 Z" style="fill:#008dd0;fill-opacity:1;fill-rule:nonzero;stroke:none" id="path701"></path></g><g id="g703" transform="translate(529.2861,348.3252)"><path d="m 0,0 -7.991,6.865 c 0,0 1.535,-4.715 1.47,-6.578 0,-0.043 -0.02,-0.092 -0.023,-0.139 1.134,-3.423 1.958,-8.775 0.617,-11.019 -5.35,-4.514 -18.445,1.965 -21.01,1.687 -1.793,-0.843 -4.246,-3.666 -5.827,-5.771 l 1.916,-2.846 14.603,-13.101 8.182,2.982 c 0,0 8.793,11.234 9.889,14.424 C 2.707,-9.799 0,0 0,0" style="fill:#cc7349;fill-opacity:1;fill-rule:nonzero;stroke:none" id="path705"></path></g><g id="g707" transform="translate(453.5176,319.9834)"><path d="M 0,0 0.029,0.5 C 0.029,0.5 0.008,0.312 0,0" style="fill:#f58345;fill-opacity:1;fill-rule:nonzero;stroke:none" id="path709"></path></g><g id="g711" transform="translate(447.7461,312.6162)"><path d="M 0,0 C 0,0 5.327,1.139 5.337,1.176 3.372,4.248 5.801,7.867 5.801,7.867 5.801,7.867 -0.47,4.988 0,0" style="fill:#cc7349;fill-opacity:1;fill-rule:nonzero;stroke:none" id="path713"></path></g><g id="g715" transform="translate(552.125,263.3701)"><path d="m 0,0 c 5.044,-8.834 1.976,-20.084 -6.86,-25.135 -8.837,-5.045 -20.089,-1.972 -25.131,6.86 -5.05,8.837 -1.973,20.086 6.857,25.134 C -16.298,11.906 -5.05,8.834 0,0" style="fill:#000001;fill-opacity:1;fill-rule:nonzero;stroke:none" id="path717"></path></g><g id="g719" transform="translate(552.125,263.3701)"><path d="m 0,0 c 5.044,-8.834 1.976,-20.084 -6.86,-25.135 -8.837,-5.045 -20.089,-1.972 -25.131,6.86 -5.05,8.837 -1.973,20.086 6.857,25.134 C -16.298,11.906 -5.05,8.834 0,0" style="fill:#000001;fill-opacity:1;fill-rule:nonzero;stroke:none" id="path721"></path></g><g id="g723" transform="translate(544.0527,268.9014)"><path d="m 0,0 c -6.278,3.303 -13.712,2.215 -18.785,-2.158 3.524,1.402 9.688,2.814 16.151,-0.586 7.153,-3.768 10.213,-11.117 11.356,-14.881 0.15,0.916 0.232,1.842 0.232,2.756 C 8.954,-8.838 5.693,-3.002 0,0" style="fill:#ffffff;fill-opacity:1;fill-rule:nonzero;stroke:none" id="path725"></path></g><g id="g727" transform="translate(540.9912,265.3584)"><path d="m 0,0 c -7.869,4.143 -15.314,0.762 -17.553,-0.465 -0.642,-0.764 -1.23,-1.594 -1.742,-2.492 1.642,-0.344 6.666,-1.639 14.661,-5.846 8.183,-4.308 13.489,-8.56 14.966,-9.801 0.422,0.866 0.763,1.752 1.022,2.649 C 10.781,-13.49 8.16,-4.293 0,0" style="fill:#e28f38;fill-opacity:1;fill-rule:nonzero;stroke:none" id="path729"></path></g><g id="g731" transform="translate(530.1084,244.6807)"><path d="M 0,0 C -6.696,3.525 -9.396,8.877 -10.448,11.963 -10.834,9.469 -10.66,6.896 -9.889,4.414 -8.564,0.135 -5.646,-3.371 -1.683,-5.461 4.986,-8.969 12.96,-7.523 18.022,-2.445 14.639,-3.094 7.253,-3.824 0,0" style="fill:#e28f38;fill-opacity:1;fill-rule:nonzero;stroke:none" id="path733"></path></g><g id="g735" transform="translate(521.249,261.5693)"><path d="m 0,0 c -0.5,-0.994 -0.891,-2.018 -1.18,-3.061 0.485,-2.144 2.596,-8.882 10.461,-13.029 8.119,-4.277 16.42,-2.65 18.647,-2.09 0.642,0.782 1.218,1.627 1.721,2.539 -1.17,0.998 -6.507,5.375 -14.961,9.827 C 6.375,-1.439 1.221,-0.24 0,0" style="fill:#ffffff;fill-opacity:1;fill-rule:nonzero;stroke:none" id="path737"></path></g><g id="g739" transform="translate(552.7744,251.2764)"><path d="m 0,0 c 0.15,0.916 0.232,1.842 0.232,2.756 0,6.031 -3.26,11.867 -8.954,14.869 -3.005,1.58 -6.274,2.146 -9.423,1.832 1.912,-0.891 3.653,-2.166 5.104,-3.795 0.56,-0.224 1.117,-0.488 1.686,-0.781 C -4.203,11.113 -1.143,3.764 0,0" style="fill:#bcbec0;fill-opacity:1;fill-rule:nonzero;stroke:none" id="path741"></path></g><g id="g743" transform="translate(551.3232,246.7549)"><path d="m 0,0 c 0.422,0.865 0.763,1.752 1.021,2.648 -0.572,2.465 -3.193,11.663 -11.353,15.956 -0.002,0.003 -0.008,0.005 -0.016,0.007 0.246,-0.357 0.481,-0.724 0.698,-1.105 C -7.537,13.807 -7.084,9.619 -8.046,5.791 -3.789,3.088 -1.004,0.842 0,0" style="fill:#a86b27;fill-opacity:1;fill-rule:nonzero;stroke:none" id="path745"></path></g><g id="g747" transform="translate(549.1768,243.3896)"><path d="M 0,0 C 0.643,0.781 1.218,1.627 1.722,2.539 0.92,3.221 -1.818,5.475 -6.158,8.248 -7.212,4.908 -9.372,1.912 -12.469,-0.15 -6.67,-1.422 -1.656,-0.414 0,0" style="fill:#bcbec0;fill-opacity:1;fill-rule:nonzero;stroke:none" id="path749"></path></g><g id="g751" transform="translate(535.6104,242.5693)"><path d="m 0,0 c -2.992,-1.664 -6.303,-2.254 -9.475,-1.891 0.717,-0.545 1.48,-1.031 2.29,-1.459 6.669,-3.507 14.643,-2.062 19.706,3.016 C 9.995,-0.818 5.258,-1.344 0,0" style="fill:#a86b27;fill-opacity:1;fill-rule:nonzero;stroke:none" id="path753"></path></g><g id="g755" transform="translate(485.5576,257.5967)"><path d="m 0,0 1.396,-2.91 -0.74,-0.303 -0.558,1.172 -0.957,-0.387 -0.288,0.596 0.948,0.379 -0.552,1.148 z" style="fill:#ffffff;fill-opacity:1;fill-rule:nonzero;stroke:none" id="path757"></path></g><g id="g759" transform="translate(487.0049,253.0088)"><path d="M 0,0 C -0.201,0.416 -0.907,0.533 -1.578,0.262 -2.254,-0.006 -2.637,-0.564 -2.436,-0.979 -2.234,-1.4 -1.533,-1.516 -0.859,-1.248 -0.181,-0.98 0.201,-0.418 0,0 m -0.571,-1.838 c -1.081,-0.441 -2.248,-0.183 -2.61,0.561 -0.357,0.746 0.233,1.695 1.316,2.131 1.081,0.437 2.248,0.185 2.611,-0.561 0.356,-0.746 -0.23,-1.699 -1.317,-2.131" style="fill:#ffffff;fill-opacity:1;fill-rule:nonzero;stroke:none" id="path761"></path></g><g id="g763" transform="translate(479.7061,255.2275)"><path d="M 0,0 1.398,-2.855 2.153,-2.521 1.589,-1.379 2.23,-1.1 1.945,-0.512 1.305,-0.793 0.748,0.334 Z" style="fill:#ffffff;fill-opacity:1;fill-rule:nonzero;stroke:none" id="path765"></path></g><g id="g767" transform="translate(482.1162,250.3838)"><path d="m 0,0 -0.585,1.201 -2.101,-0.922 0.588,-1.193 z m -2.539,-1.801 -1.15,2.332 3.55,1.553 1.143,-2.332 z" style="fill:#ffffff;fill-opacity:1;fill-rule:nonzero;stroke:none" id="path769"></path></g><g id="g771" transform="translate(477.9756,254.3467)"><path d="M 0,0 C 0,0 0.658,-1.586 2.318,-1.639 L 2.172,-2.303 c 0,0 -1.28,0.168 -1.821,0.731 0.092,-0.754 -0.595,-1.791 -0.595,-1.791 l -0.629,0.326 c 1.029,1.232 0.176,2.728 0.176,2.728 z" style="fill:#ffffff;fill-opacity:1;fill-rule:nonzero;stroke:none" id="path773"></path></g><g id="g775" transform="translate(483.3291,254.8525)"><path d="m 0,0 c 0.103,-0.764 -0.529,-1.686 -0.529,-1.686 l -0.629,0.35 c 0.971,1.106 0.118,2.641 0.118,2.641 l 0.688,0.277 c 0,0 0.663,-1.611 2.212,-1.705 L 1.718,-0.785 C 1.718,-0.785 0.55,-0.58 0,0" style="fill:#ffffff;fill-opacity:1;fill-rule:nonzero;stroke:none" id="path777"></path></g><g id="g779" transform="translate(488.1533,257.0322)"><path d="m 0,0 c 0.533,-0.619 1.664,-0.904 1.664,-0.904 l 0.129,0.648 C 0.297,-0.055 -0.365,1.602 -0.365,1.602 L -1.027,1.371 c 0,0 0.849,-1.588 -0.068,-2.621 l 0.611,-0.395 c 0,0 0.588,0.877 0.484,1.645 M 2.384,0.592 2.57,0.652 3.123,-0.551 3.811,-0.312 2.413,2.689 1.713,2.439 2.265,1.26 2.109,1.205 1.562,2.391 0.886,2.158 2.287,-0.836 2.941,-0.615 Z M 2.992,-3.197 C 2.322,-3.428 1.617,-3.268 1.416,-2.838 1.217,-2.41 1.598,-1.875 2.271,-1.643 2.945,-1.414 3.648,-1.576 3.852,-2.002 4.047,-2.43 3.666,-2.967 2.992,-3.197 M 1.983,-1.031 C 0.902,-1.404 0.311,-2.33 0.672,-3.092 1.031,-3.859 2.197,-4.18 3.276,-3.811 4.36,-3.438 4.945,-2.508 4.59,-1.744 4.234,-0.982 3.063,-0.658 1.983,-1.031" style="fill:#ffffff;fill-opacity:1;fill-rule:nonzero;stroke:none" id="path781"></path></g><g id="g783" transform="translate(496.1436,255.5537)"><path d="m 0,0 c -0.673,-0.23 -1.382,-0.068 -1.578,0.361 -0.201,0.428 0.184,0.959 0.853,1.19 0.673,0.236 1.384,0.072 1.58,-0.354 C 1.055,0.768 0.672,0.232 0,0 m -1.008,2.162 c -1.086,-0.371 -1.67,-1.293 -1.313,-2.06 0.356,-0.764 1.524,-1.084 2.606,-0.713 1.079,0.373 1.665,1.295 1.307,2.062 -0.354,0.768 -1.517,1.084 -2.6,0.711 M 0.1,2.635 0.816,2.885 -0.584,5.883 -1.31,5.629 -1.049,5.064 -1.628,4.863 -1.36,4.287 -0.766,4.49 -0.549,4.02 -1.139,3.814 -0.871,3.234 -0.275,3.438 Z M -1.79,3.053 -2.992,2.637 -3.629,4.004 -2.423,4.42 Z m 0.702,0.242 v 0 L -1.727,4.658 -1.982,5.211 -4.58,4.312 -3.401,1.771 -0.795,2.668 Z" style="fill:#ffffff;fill-opacity:1;fill-rule:nonzero;stroke:none" id="path785"></path></g><g id="g787" transform="translate(381.9902,174.5732)"><path d="M 0,0 0.763,-0.375 C 1.014,-0.502 1.44,-0.494 1.689,0.064 1.88,0.488 1.746,0.934 1.359,1.119 L 0.656,1.471 Z m -1.127,-2.523 0.636,-0.313 c 0.242,-0.119 0.789,-0.381 1.149,0.426 0.228,0.514 0.186,0.912 -0.387,1.195 l -0.667,0.328 z M -2.668,-2.848 -0.087,2.916 1.937,1.918 C 2.807,1.49 3.409,0.875 2.858,-0.355 2.563,-1.014 2.038,-1.338 1.362,-1.166 L 1.354,-1.18 C 2.111,-1.695 2.074,-2.357 1.721,-3.148 1.067,-4.607 -0.161,-4.08 -0.646,-3.844 Z" style="fill:#ffffff;fill-opacity:1;fill-rule:nonzero;stroke:none" id="path789"></path></g><g id="g791" transform="translate(389.25,173.2627)"><path d="m 0,0 -0.015,0.002 -1.405,-2.398 1.136,-0.417 z m -3.901,-4.016 3.564,5.43 1.571,-0.574 -0.44,-6.576 -1.255,0.463 0.126,1.445 -1.629,0.596 -0.763,-1.215 z" style="fill:#ffffff;fill-opacity:1;fill-rule:nonzero;stroke:none" id="path793"></path></g><g id="g795" transform="translate(393.876,166.4248)"><path d="M 0,0 C -1.514,0.414 -1.566,1.432 -1.236,2.48 L -0.014,2.145 C -0.159,1.557 -0.259,1.053 0.414,0.869 0.827,0.754 1.1,0.979 1.201,1.398 1.477,2.506 -0.968,3.254 -0.515,5.086 -0.275,6.049 0.351,6.699 1.842,6.285 3.029,5.957 3.481,5.229 3.08,3.963 L 1.893,4.293 C 2.006,4.75 2.049,5.246 1.556,5.377 1.158,5.492 0.865,5.32 0.762,4.896 0.473,3.73 2.956,3.148 2.48,1.215 2.085,-0.381 0.929,-0.26 0,0" style="fill:#ffffff;fill-opacity:1;fill-rule:nonzero;stroke:none" id="path797"></path></g><g id="g799" transform="translate(402.2637,171.0693)"><path d="m 0,0 1.362,-0.283 -2.176,-2.457 1.02,-3.785 -1.394,0.287 -0.825,3.496 -0.016,0.006 -0.596,-3.2 -1.237,0.258 1.154,6.244 1.24,-0.259 -0.496,-2.668 0.02,-0.006 z" style="fill:#ffffff;fill-opacity:1;fill-rule:nonzero;stroke:none" id="path801"></path></g><g id="g803" transform="translate(404.6963,164.1709)"><path d="M 0,0 0.833,6.299 4.098,5.816 3.969,4.848 1.956,5.143 1.75,3.592 3.605,3.314 3.476,2.346 1.622,2.625 1.378,0.783 3.458,0.473 3.329,-0.496 Z" style="fill:#ffffff;fill-opacity:1;fill-rule:nonzero;stroke:none" id="path805"></path></g><g id="g807" transform="translate(414.5811,169.3877)"><path d="m 0,0 -0.084,-1.047 -1.401,0.125 -0.432,-5.285 -1.256,0.121 0.429,5.281 -1.401,0.131 0.088,1.053 z" style="fill:#ffffff;fill-opacity:1;fill-rule:nonzero;stroke:none" id="path809"></path></g><g id="g811" transform="translate(417.6514,163.8486)"><path d="M 0,0 0.702,-0.027 C 0.97,-0.035 1.57,-0.047 1.595,0.846 1.609,1.408 1.418,1.762 0.783,1.779 L 0.05,1.803 Z M 0.075,2.781 0.92,2.754 C 1.193,2.744 1.585,2.926 1.601,3.543 1.614,4.01 1.325,4.361 0.896,4.379 L 0.117,4.4 Z M -1.288,-0.937 -1.117,5.42 1.121,5.348 C 2.086,5.316 2.87,5.002 2.837,3.645 2.815,2.916 2.457,2.395 1.767,2.277 L 1.768,2.258 C 2.656,2.1 2.874,1.48 2.852,0.609 2.807,-1.002 1.474,-1.029 0.94,-1.014 Z" style="fill:#ffffff;fill-opacity:1;fill-rule:nonzero;stroke:none" id="path813"></path></g><g id="g815" transform="translate(424.9189,167.9775)"><path d="M 0,0 -0.016,-0.004 -0.508,-2.77 0.696,-2.729 Z M -2.271,-5.213 -0.797,1.197 0.866,1.25 2.702,-5.055 1.371,-5.098 0.996,-3.701 -0.729,-3.754 -1.027,-5.178 Z" style="fill:#ffffff;fill-opacity:1;fill-rule:nonzero;stroke:none" id="path817"></path></g><g id="g819" transform="translate(429.8984,163.0967)"><path d="M 0,0 -0.527,6.34 0.73,6.453 1.172,1.17 3.053,1.338 3.141,0.285 Z" style="fill:#ffffff;fill-opacity:1;fill-rule:nonzero;stroke:none" id="path821"></path></g><g id="g823" transform="translate(435.2539,163.6553)"><path d="M 0,0 -0.823,6.305 0.428,6.482 1.113,1.225 2.984,1.494 3.125,0.445 Z" style="fill:#ffffff;fill-opacity:1;fill-rule:nonzero;stroke:none" id="path825"></path></g><g id="g827" transform="translate(446.2373,172.2021)"><path d="m 0,0 0.222,-1.035 -1.374,-0.317 1.096,-5.183 -1.234,-0.287 -1.093,5.185 -1.374,-0.322 -0.22,1.033 z" style="fill:#ffffff;fill-opacity:1;fill-rule:nonzero;stroke:none" id="path829"></path></g><g id="g831" transform="translate(449.7559,166.5791)"><path d="M 0,0 -1.626,6.133 1.549,7.062 1.796,6.115 -0.161,5.545 0.239,4.033 2.045,4.561 2.293,3.619 0.491,3.094 0.965,1.297 2.986,1.889 3.238,0.945 Z" style="fill:#ffffff;fill-opacity:1;fill-rule:nonzero;stroke:none" id="path833"></path></g><g id="g835" transform="translate(455.7305,173.8799)"><path d="m 0,0 -0.02,-0.01 0.353,-2.795 1.133,0.43 z M -0.62,-5.707 -1.112,0.875 0.447,1.469 4.056,-3.938 2.808,-4.404 2.035,-3.201 0.415,-3.814 0.552,-5.26 Z" style="fill:#ffffff;fill-opacity:1;fill-rule:nonzero;stroke:none" id="path837"></path></g><g id="g839" transform="translate(461.8408,170.5928)"><path d="M 0,0 -2.49,5.811 -0.64,6.682 1.916,3.141 1.932,3.145 1.151,7.529 2.942,8.375 5.435,2.566 4.312,2.035 2.392,6.521 2.378,6.51 3.238,1.531 2.142,1.012 -0.785,5.02 -0.803,5.01 1.122,0.527 Z" style="fill:#ffffff;fill-opacity:1;fill-rule:nonzero;stroke:none" id="path841"></path></g><g id="g843" transform="translate(345.5371,305.251)"><path d="m 0,0 -5.106,0.859 0.875,1.434 3.224,-0.676 -2.045,2.612 0.821,1.347 3.03,-4.265 2.178,-1.325 -0.799,-1.312 z" style="fill:#ffffff;fill-opacity:1;fill-rule:nonzero;stroke:none" id="path845"></path></g><g id="g847" transform="translate(349.2031,312.5264)"><path d="M 0,0 C -1.506,1.137 -2.223,1.535 -2.742,0.848 -3.266,0.15 -2.684,-0.426 -1.176,-1.559 0.33,-2.691 1.043,-3.094 1.568,-2.398 2.088,-1.709 1.51,-1.129 0,0 m -2.111,-2.805 c -1.555,1.17 -3.038,2.285 -1.512,4.313 1.525,2.023 3.006,0.906 4.559,-0.26 1.543,-1.164 3.037,-2.285 1.513,-4.311 -1.527,-2.029 -3.021,-0.9 -4.56,0.258" style="fill:#ffffff;fill-opacity:1;fill-rule:nonzero;stroke:none" id="path849"></path></g><g id="g851" transform="translate(353.9473,312.9619)"><path d="M 0,0 -5.592,4.775 -4.248,6.357 0.895,4.537 0.91,4.555 -2.963,7.854 -2.029,8.949 3.564,4.174 2.246,2.635 -3.146,4.6 -3.16,4.582 0.934,1.094 Z" style="fill:#ffffff;fill-opacity:1;fill-rule:nonzero;stroke:none" id="path853"></path></g><g id="g855" transform="translate(357.0684,324.1494)"><path d="m 0,0 c -0.52,0.443 -1.053,0.738 -1.574,0.111 -0.608,-0.736 0.387,-1.562 1.486,-2.472 1.772,-1.471 2.227,-1.559 2.787,-0.881 0.162,0.199 0.291,0.447 0.381,0.681 L 1.824,-1.521 1.293,-2.164 0.422,-1.441 1.93,0.383 4.803,-2 C 4.6,-2.371 4.053,-3.285 3.668,-3.75 c -1.652,-1.992 -2.66,-1.539 -4.814,0.242 -1.43,1.182 -2.821,2.459 -1.217,4.393 0.965,1.162 2.213,1.344 3.34,0.289 z" style="fill:#ffffff;fill-opacity:1;fill-rule:nonzero;stroke:none" id="path857"></path></g><g id="g859" transform="translate(364.7637,324.21)"><path d="M 0,0 -4.842,5.537 -3.68,6.549 1.156,1.01 Z" style="fill:#ffffff;fill-opacity:1;fill-rule:nonzero;stroke:none" id="path861"></path></g><g id="g863" transform="translate(367.1484,326.2471)"><path d="M 0,0 -4.525,5.803 -2.889,7.074 1.785,4.262 1.801,4.279 -1.326,8.295 -0.193,9.178 4.332,3.377 2.73,2.131 -2.164,5.139 -2.178,5.127 1.133,0.883 Z" style="fill:#ffffff;fill-opacity:1;fill-rule:nonzero;stroke:none" id="path865"></path></g><g id="g867" transform="translate(376.1621,332.4014)"><path d="m 0,0 c -1.613,-1.018 -2.514,-0.264 -3.127,0.859 l 1.297,0.819 c 0.381,-0.592 0.719,-1.073 1.432,-0.623 0.439,0.279 0.476,0.697 0.212,1.119 -0.71,1.117 -3.367,-0.469 -4.541,1.377 -0.615,0.976 -0.64,2.041 0.94,3.045 1.266,0.806 2.254,0.633 2.992,-0.721 L -2.061,5.072 C -2.355,5.541 -2.732,5.961 -3.256,5.625 -3.678,5.359 -3.779,4.973 -3.51,4.543 -2.76,3.363 -0.215,5.121 1.025,3.166 2.043,1.566 0.986,0.627 0,0" style="fill:#ffffff;fill-opacity:1;fill-rule:nonzero;stroke:none" id="path869"></path></g><g id="g871" transform="translate(378.7441,340.9092)"><path d="m 0,0 -0.02,-0.01 0.879,-3.135 1.295,0.692 z M 0.18,-6.627 -1.48,0.818 0.307,1.771 5.525,-3.783 4.098,-4.545 2.969,-3.297 1.119,-4.279 1.52,-5.916 Z" style="fill:#ffffff;fill-opacity:1;fill-rule:nonzero;stroke:none" id="path873"></path></g><g id="g875" transform="translate(385.3379,337.6416)"><path d="M 0,0 -2.801,6.807 -0.51,7.75 2.463,3.564 2.479,3.568 1.705,8.662 3.918,9.574 6.719,2.768 5.334,2.199 3.174,7.447 3.154,7.437 4.008,1.652 2.648,1.094 -0.756,5.828 -0.773,5.822 1.387,0.57 Z" style="fill:#ffffff;fill-opacity:1;fill-rule:nonzero;stroke:none" id="path877"></path></g><g id="g879" transform="translate(395.498,341.3291)"><path d="m 0,0 c -1.777,-0.689 -2.516,0.225 -2.9,1.437 l 1.433,0.561 C -1.209,1.342 -0.969,0.805 -0.184,1.109 0.305,1.297 0.422,1.701 0.24,2.164 -0.24,3.402 -3.152,2.355 -3.943,4.4 -4.361,5.473 -4.184,6.523 -2.439,7.203 -1.041,7.746 -0.105,7.391 0.359,5.918 L -1.039,5.375 c -0.199,0.516 -0.486,1 -1.066,0.773 C -2.568,5.973 -2.744,5.607 -2.563,5.135 -2.055,3.83 0.785,5.068 1.623,2.908 2.311,1.137 1.09,0.418 0,0" style="fill:#ffffff;fill-opacity:1;fill-rule:nonzero;stroke:none" id="path881"></path></g><g id="g883" transform="translate(401.8789,350.8428)"><path d="M 0,0 1.258,-5.061 C 1.523,-6.129 1.199,-7.404 -0.619,-7.855 -2.26,-8.266 -3.264,-7.611 -3.596,-6.27 l -1.261,5.061 1.496,0.373 1.232,-4.963 c 0.219,-0.883 0.676,-1.131 1.227,-0.992 0.65,0.162 0.838,0.67 0.64,1.455 l -1.234,4.967 z" style="fill:#ffffff;fill-opacity:1;fill-rule:nonzero;stroke:none" id="path885"></path></g><g id="g887" transform="translate(404.9512,344.0127)"><path d="M 0,0 -1.318,7.242 0.725,7.613 3.561,2.953 3.582,2.955 2.666,7.969 4.082,8.225 5.402,0.99 3.406,0.623 0.463,5.557 0.447,5.555 1.412,0.26 Z" style="fill:#ffffff;fill-opacity:1;fill-rule:nonzero;stroke:none" id="path889"></path></g><g id="g891" transform="translate(414.418,350.3818)"><path d="m 0,0 c -0.027,0.684 -0.176,1.273 -0.988,1.225 -0.957,-0.053 -0.879,-1.352 -0.793,-2.772 0.138,-2.301 0.386,-2.693 1.261,-2.639 0.258,0.014 0.52,0.09 0.752,0.184 l -0.097,1.633 -0.834,-0.051 -0.069,1.127 2.37,0.141 0.224,-3.725 c -0.414,-0.102 -1.449,-0.328 -2.058,-0.361 -2.586,-0.157 -2.942,0.89 -3.112,3.679 -0.109,1.85 -0.133,3.735 2.381,3.889 1.506,0.092 2.488,-0.697 2.49,-2.24 z" style="fill:#ffffff;fill-opacity:1;fill-rule:nonzero;stroke:none" id="path893"></path></g><g id="g895" transform="translate(419.1914,345.6064)"><path d="M 0,0 -0.08,7.35 1.461,7.367 1.529,1.238 3.832,1.262 3.846,0.037 Z" style="fill:#ffffff;fill-opacity:1;fill-rule:nonzero;stroke:none" id="path897"></path></g><g id="g899" transform="translate(424.3516,345.6162)"><path d="M 0,0 0.15,7.359 1.686,7.326 1.537,-0.031 Z" style="fill:#ffffff;fill-opacity:1;fill-rule:nonzero;stroke:none" id="path901"></path></g><g id="g903" transform="translate(427.6992,345.4678)"><path d="M 0,0 0.66,7.326 4.469,6.982 4.367,5.854 2.092,6.059 1.92,4.184 4.094,3.986 3.996,2.863 1.818,3.061 1.531,-0.143 Z" style="fill:#ffffff;fill-opacity:1;fill-rule:nonzero;stroke:none" id="path905"></path></g><g id="g907" transform="translate(432.873,344.9463)"><path d="M 0,0 1.035,7.287 5.006,6.719 4.846,5.596 2.398,5.951 2.143,4.156 4.4,3.834 4.242,2.715 1.982,3.035 1.68,0.906 4.217,0.545 4.057,-0.578 Z" style="fill:#ffffff;fill-opacity:1;fill-rule:nonzero;stroke:none" id="path909"></path></g></g></g></g></g></svg>