
<svg xmlns="http://www.w3.org/2000/svg" version="1.1" x="0px" y="0px" width="230.343" height="316.07199" viewBox="-15 -12.782 230.343 316.07199" enable-background="new -15 -12.782 230 300" xml:space="preserve" id="svg441">
<defs id="defs267">
</defs>
<path fill="#ffcb05" d="m 100.17148,-12.782 c 32.13631,0 61.16067,18.0657997 82.0597,47.229524 20.43372,28.468088 33.1118,67.709316 33.1118,110.852556 0,43.04996 -12.67808,82.29234 -33.1118,110.76042 -20.89903,29.16373 -49.92339,47.22953 -82.0597,47.22953 -32.136291,0 -61.16181,-18.0658 -82.059677,-47.22953 C -2.3219226,227.59126 -15,188.35004 -15,145.30008 -15,102.15799 -2.3219226,62.915612 18.111803,34.447524 39.00967,5.2837997 68.035189,-12.782 100.17148,-12.782 Z" id="path269" style="stroke-width:1.15171"></path>
<path fill="#276fb8" d="m 20.479729,54.78796 c -14.0716527,24.892015 -22.5229365,56.33268 -22.5229365,90.51212 0,34.08731 8.4524356,65.52797 22.5240885,90.41884 v -63.57697 c 0.742855,0.18658 1.486864,0.27871 2.321857,0.372 2.321856,0.27872 5.109007,0.37085 8.313078,0.27872 -2.369078,0.92943 -4.504357,2.04314 -7.058861,3.25129 2.785999,1.30029 4.922429,1.90378 8.590641,1.16093 1.160929,-0.23265 2.369078,-0.37085 3.528855,-0.41808 -2.043143,1.0688 -3.946927,2.22972 -5.619217,3.80873 1.62507,0.88221 3.018644,1.43964 4.922429,1.53293 l -1.021571,0.46414 c 2.646641,1.06764 5.015719,1.81049 7.895006,1.85772 -0.742857,0.51136 -1.439643,1.06764 -2.136431,1.579 1.021571,0.27871 2.043142,0.55743 3.064713,0.79007 v 78.62297 c 7.012792,6.78015 14.675151,12.30723 22.755583,16.43958 v -72.7711 c 0.418072,0.88221 1.300286,1.48571 2.415146,1.71835 0.975502,0.23265 2.22972,0.18543 3.389497,-0.18543 0.650719,-0.23264 1.254217,-0.51136 1.765579,-0.83613 0.139358,-0.0933 0.278715,-0.18543 0.370852,-0.27872 1.62507,3.52885 3.946927,6.68686 6.780145,9.28742 -0.139357,0.0933 -0.278715,0.18543 -0.372003,0.27872 -0.51021,0.372 -0.975503,0.83615 -1.346355,1.39243 -0.742856,1.02272 -1.206997,2.18364 -1.253066,3.158 -0.139357,1.30028 0.278715,2.41514 1.206997,3.11193 0.928282,0.69679 2.136431,0.69679 3.343428,0.23265 0.929435,-0.41808 1.857717,-1.16093 2.600572,-2.18251 0.418073,-0.55742 0.696788,-1.16092 0.929435,-1.71835 0.04722,-0.13936 0.09329,-0.32478 0.139358,-0.46414 0.928282,0.51021 1.857715,0.9755 2.785997,1.39357 v 65.3414 c 3.761501,0.60349 7.570223,0.92943 11.377795,0.92943 3.80757,0 7.61628,-0.32479 11.37779,-0.92943 v -65.3414 c 0.92943,-0.41807 1.85771,-0.88336 2.78599,-1.39357 0.0461,0.13936 0.0933,0.32593 0.13936,0.46414 0.23265,0.55743 0.51137,1.16093 0.92943,1.71835 0.74287,1.02158 1.6723,1.76443 2.60058,2.18251 1.207,0.46414 2.41515,0.46414 3.34343,-0.23265 0.92828,-0.69679 1.34635,-1.81165 1.207,-3.11193 -0.0461,-1.02157 -0.51021,-2.13528 -1.25307,-3.158 -0.372,-0.55628 -0.83614,-1.02158 -1.34636,-1.39243 -0.0933,-0.0933 -0.23264,-0.18543 -0.372,-0.27872 2.83322,-2.60056 5.15507,-5.75857 6.78014,-9.28742 0.0933,0.0933 0.23266,0.18542 0.37202,0.27872 0.5102,0.32477 1.11485,0.60349 1.76441,0.83613 1.16094,0.37086 2.41515,0.41808 3.3895,0.18543 1.11487,-0.23264 1.99708,-0.83614 2.41515,-1.71835 v 72.7711 c 8.08043,-4.13235 15.74279,-9.65943 22.75558,-16.43958 V 186.8194 c 1.02158,-0.23264 2.04314,-0.51136 3.06472,-0.79007 -0.69564,-0.51136 -1.39243,-1.06764 -2.13643,-1.579 2.87928,-0.0473 5.24836,-0.79008 7.895,-1.85772 l -1.02157,-0.46414 c 1.90379,-0.0933 3.29736,-0.64957 4.92243,-1.53293 -1.67229,-1.57901 -3.57608,-2.73993 -5.61922,-3.80873 1.16094,0.0472 2.36793,0.18543 3.52886,0.41808 3.66936,0.744 5.80579,0.13936 8.59064,-1.16093 -2.55335,-1.207 -4.68978,-2.32186 -7.05886,-3.25129 3.20407,0.0933 5.99122,0 8.31307,-0.27872 0.83615,-0.0933 1.579,-0.18542 2.32186,-0.372 v 63.57697 c 14.07165,-24.89202 22.52409,-56.33153 22.52409,-90.41884 0,-34.17944 -8.45244,-65.620105 -22.52409,-90.51212 v 22.38473 c -0.83614,1.672293 -0.92943,4.318931 -0.41807,6.455363 0.13936,0.603499 0.27872,1.206997 0.41807,1.764429 v 7.058857 c -0.23264,0.883368 -0.6035,1.811649 -1.11486,2.739931 -2.87928,5.3405 -6.87343,10.21687 -11.33172,14.72122 -3.34343,3.3895 -6.82622,6.54865 -10.35622,9.65944 V 25.066806 C 150.0442,18.286661 142.38184,12.759581 134.30141,8.6272281 V 141.72516 c -1.20815,1.48572 -2.41515,3.06471 -3.57608,4.68979 -1.25422,-1.81166 -2.5545,-3.62215 -3.80871,-5.47986 -3.99415,2.69385 -8.63787,5.109 -13.32881,8.08042 l 4.31894,0.69564 c -0.51137,3.25129 -1.76559,6.08336 -3.76266,8.12765 -0.74285,0.79008 -1.62506,1.43964 -2.60057,1.99707 v -33.20509 h 19.27279 v -9.98421 h -19.27279 v -2.64665 c 1.25421,-2.04313 1.99708,-4.45828 1.99708,-7.01279 0,-2.60057 -0.74287,-5.01457 -1.99708,-7.058862 V 1.1502949 c -3.7615,-0.60349852 -7.57022,-0.92943383 -11.37779,-0.92943383 -3.808721,0 -7.616291,0.32478359 -11.377791,0.92943383 V 99.928268 c -1.253066,2.043152 -1.997074,4.458292 -1.997074,7.058862 0,2.55451 0.744008,4.96966 1.997074,7.01279 v 2.64665 H 69.520901 v 9.98421 h 19.272796 v 33.20509 c -0.975503,-0.55743 -1.857716,-1.20699 -2.600572,-1.99707 -1.997073,-2.04314 -3.251291,-4.87636 -3.761501,-8.12765 l 4.318931,-0.69564 c -4.690934,-2.97258 -9.334649,-5.38657 -13.328796,-8.08042 -1.253066,1.85771 -2.554504,3.6682 -3.80757,5.47986 -1.160929,-1.62508 -2.369078,-3.20407 -3.576075,-4.68979 V 8.6260763 C 57.957682,12.759581 50.295324,18.285509 43.282532,25.065655 v 94.506275 c -3.528855,-3.11194 -7.012792,-6.26994 -10.356221,-9.65944 -4.458288,-4.50435 -8.451284,-9.38072 -11.330571,-14.72122 -0.510209,-0.929433 -0.882213,-1.857717 -1.114859,-2.739931 v -7.058857 c 0.139357,-0.557432 0.278715,-1.16093 0.418072,-1.764429 0.511362,-2.135278 0.418072,-4.78307 -0.418072,-6.455363 V 54.78796 Z" id="path271" style="stroke-width:1.15171"></path>
<path fill="#ffcb05" d="m 100.17148,178.3186 c 2.13529,-1.94986 4.50437,-3.62215 6.96558,-5.15508 2.69271,-1.67229 5.47986,-3.11193 8.26585,-4.50436 3.71544,-1.85771 7.19823,-3.71543 9.89208,-6.36207 3.43673,-3.3895 4.55158,-7.38364 4.87637,-12.07458 l 1.99707,0.41807 c -1.94985,-2.46122 -3.80872,-5.01571 -5.61921,-7.61629 -2.8793,1.76443 -5.85187,3.48279 -8.87052,5.10901 l 1.90379,0.27872 c -0.46414,3.90085 -1.53293,7.57022 -4.31893,10.4495 -2.73993,2.87929 -6.03729,3.80873 -9.84486,4.04022 V 125.099 h 23.87044 v -6.9195 h -25.31008 c 4.69094,-1.579 8.03436,-6.03729 8.03436,-11.19237 0,-6.54749 -5.3405,-11.887998 -11.84194,-11.887998 v 6.640788 c 2.8793,0 5.20115,2.32301 5.20115,5.24837 0,2.87928 -2.32185,5.24836 -5.20115,5.24836 z M 71.053833,118.17835 v 6.9195 h 23.870442 v 37.80274 c -3.808721,-0.23265 -7.104929,-1.16093 -9.844859,-4.04022 -2.785997,-2.87928 -3.854789,-6.54864 -4.31893,-10.4495 l 1.903784,-0.27872 c -3.018644,-1.62622 -5.99122,-3.34343 -8.870508,-5.10901 -1.811646,2.60058 -3.669363,5.15508 -5.619217,7.61629 l 1.997074,-0.41807 c 0.324783,4.69093 1.439644,8.68508 4.876361,12.07458 2.693861,2.64664 6.176647,4.50435 9.892079,6.36207 2.785999,1.39243 5.573149,2.83207 8.265858,4.50436 2.461215,1.53293 4.830292,3.20407 6.966723,5.15508 v -66.08425 0 c -2.879287,0 -5.248365,-2.36908 -5.248365,-5.24837 0,-2.92536 2.367927,-5.24836 5.248365,-5.24836 v 0 -6.640793 c -6.502582,0 -11.843083,5.340503 -11.843083,11.888003 0,5.15508 3.343427,9.61336 8.034363,11.19236 H 71.053833 Z" id="path273" style="stroke-width:1.15171"></path>
<path fill="#ffcb05" d="m 112.57086,173.30403 c 0.83613,0.41807 1.67228,0.92828 2.50843,1.43964 l 0.55742,-0.78892 c 0,-0.83614 0.37201,-1.81165 1.02158,-2.69387 1.11485,-1.53293 2.83322,-2.27578 3.80872,-1.579 0.92943,0.64958 0.79007,2.50844 -0.37085,4.08745 -0.64957,0.88221 -1.48687,1.53292 -2.27579,1.76441 l -0.55743,0.83615 c 3.71543,2.97258 6.64193,6.96558 8.35915,11.51715 l 0.97549,-0.32478 c 0.46415,-0.64957 1.3003,-1.25422 2.36794,-1.579 1.85771,-0.6035 3.66936,-0.18543 4.0402,0.92943 0.37086,1.11487 -0.8822,2.50728 -2.73992,3.11079 -1.02157,0.372 -2.08922,0.372 -2.83322,0.0933 l -0.97551,0.32479 c 0.64958,2.27579 0.97551,4.68978 0.97551,7.15214 0,2.46122 -0.32478,4.82915 -0.97551,7.10494 l 0.97551,0.32478 c 0.744,-0.27871 1.81165,-0.23265 2.83322,0.0933 1.85772,0.60349 3.11194,1.99592 2.73992,3.158 -0.372,1.11486 -2.18249,1.53294 -4.0402,0.92943 -1.06764,-0.372 -1.90379,-0.9755 -2.36794,-1.62622 l -0.97549,-0.27872 c -1.71836,4.55158 -4.64372,8.49851 -8.35915,11.51715 l 0.55743,0.79008 c 0.79007,0.27872 1.62622,0.88222 2.27579,1.76443 1.16092,1.62507 1.30028,3.48279 0.37085,4.17958 -0.9755,0.64956 -2.69387,-0.0473 -3.80872,-1.6723 -0.64957,-0.88221 -1.02158,-1.85772 -1.02158,-2.64664 l -0.55742,-0.83615 c -0.83615,0.51022 -1.6723,1.02158 -2.50843,1.43965 v -9.474 l 1.76557,2.46121 c 2.92535,-2.36908 5.20114,-5.52592 6.64079,-9.05594 l -3.34343,-1.06879 c -0.23265,0.69679 -0.9755,0.46415 -0.74286,-0.23264 l -4.08628,-1.34636 c 0.0933,-0.32478 -0.0472,-0.55743 -0.23265,-0.6035 v -2.32185 l 0.32594,0.0933 c -0.23265,0.64956 0.51021,0.8822 0.74285,0.23264 l 4.08629,1.34635 c 0.23265,-0.69679 0.9755,-0.46413 0.74285,0.23265 l 3.34343,1.06764 c 0.46415,-1.76442 0.69679,-3.66936 0.69679,-5.572 0,-1.951 -0.23264,-3.85478 -0.69679,-5.61921 l -3.34343,1.06764 c 0.23265,0.69679 -0.5102,0.92943 -0.74285,0.23264 l -4.08629,1.34636 c -0.23264,-0.64957 -0.9755,-0.37085 -0.74285,0.23265 l -0.32594,0.0933 v -2.32186 c 0.18658,-0.0472 0.32594,-0.27872 0.23265,-0.55744 l 4.08628,-1.34634 c -0.23264,-0.69679 0.51021,-0.97551 0.74286,-0.23266 l 3.34343,-1.1137 c -1.43965,-3.53001 -3.71544,-6.64079 -6.64079,-9.05594 l -1.76557,2.46122 z m 0,38.40509 c 0.0472,-0.0933 0.0472,-0.18659 0,-0.27872 z m 0,-28.00281 c 0.0472,-0.0933 0.0472,-0.18657 0,-0.27871 z m -5.99123,2.69387 0.0933,-0.0933 c 0.51136,0.372 0.9755,-0.23149 0.46414,-0.64956 l 2.50729,-3.48279 c -0.55743,-0.41807 -0.0933,-1.06764 0.46413,-0.64957 l 2.04315,-2.786 c -1.71836,-1.1137 -3.57493,-1.99592 -5.572,-2.60057 v -0.83615 c 0.46414,-0.27871 0.92943,-0.55743 1.39242,-0.88336 1.02157,-0.6035 2.04315,-1.207 3.11194,-1.8105 0.51136,0.23265 1.02157,0.46415 1.48571,0.69679 v 9.47401 l -0.2315,0.372 c 0.0933,0.0933 0.18543,0.18543 0.2315,0.27871 v 0.27872 c -0.0921,0.18543 -0.37086,0.27872 -0.69563,0.0461 l -2.55451,3.52885 c -0.55743,-0.41806 -1.02157,0.23265 -0.46415,0.6035 l -1.71835,2.36908 c 0.6035,0.41807 0.18543,1.06764 -0.46414,0.6035 l -0.0933,0.13936 z m 5.99123,35.43366 c -1.90379,0.97435 -3.90086,1.71836 -5.99008,2.27579 v -5.10901 c 1.99707,-0.60349 3.85479,-1.48687 5.572,-2.60058 l -2.04314,-2.78599 c -0.55744,0.41807 -1.02157,-0.18658 -0.41808,-0.64957 l -2.5545,-3.48278 c 0.51021,-0.37085 0.0472,-1.02157 -0.46414,-0.64957 l -0.0933,-0.0933 v -4.59765 l 0.0933,0.13936 c 0.6035,-0.41807 1.06764,0.18543 0.46414,0.64957 l 1.71835,2.32186 c -0.55742,0.41807 -0.0933,1.02157 0.46415,0.64956 l 2.55451,3.48279 c 0.32477,-0.23264 0.60349,-0.13936 0.69563,0.0472 v 0.27872 c -0.046,0.0933 -0.13936,0.23264 -0.2315,0.32478 l 0.2315,0.32479 v 9.474 z m 0,-29.21094 v 2.32185 l -2.46122,0.79008 c 0.23149,0.69679 -0.51136,0.9755 -0.74285,0.27871 l -2.78601,0.88222 v -2.83322 l 1.94986,-0.64956 c -0.23265,-0.69679 0.51136,-0.9283 0.74285,-0.23266 l 2.786,-0.88221 c 0.0933,0.32479 0.32594,0.41692 0.51137,0.32479 z m 0,7.56907 v 2.32186 c -0.18543,-0.0473 -0.41808,0.046 -0.51022,0.372 l -2.786,-0.92944 c -0.18543,0.69564 -0.9755,0.46414 -0.74285,-0.23264 l -1.94986,-0.64957 v -2.83322 l 2.786,0.92944 c 0.2315,-0.74286 0.97435,-0.46415 0.74286,0.23264 z m -11.05302,-7.6163 c 0.13936,0.0472 0.32479,0.0933 0.46415,0.13936 l 2.50843,-3.43671 c -0.60349,-0.41808 -0.13936,-1.06764 0.46414,-0.64958 l 1.62507,-2.22856 v 4.59765 l -2.41514,3.34343 c 0.13936,0.13935 0.23149,0.27871 0.32478,0.41807 l 2.08921,-0.69679 v 2.83322 l -1.25422,0.41807 c 0,0.0933 0,0.18543 0,0.27871 0,0.0933 0,0.13936 0,0.2315 l 1.25422,0.41807 v 2.83322 l -2.08921,-0.65072 c -0.0933,0.14051 -0.18658,0.27872 -0.32478,0.41807 l 2.41514,3.29736 v 4.59765 l -1.62507,-2.22972 c -0.55743,0.41807 -1.06879,-0.18658 -0.46414,-0.64957 l -2.50843,-3.43672 c -0.13936,0.046 -0.32479,0.0933 -0.46415,0.13936 v 4.27286 c 0.74401,0 0.74401,0.79008 0,0.79008 v 2.92535 c -0.69564,0 -0.69564,0.74287 0,0.74287 v 4.36615 c 0.74401,0 0.74401,0.74285 0,0.74285 v 3.48278 c 1.71836,-0.0933 3.43672,-0.41807 5.06294,-0.88221 v 5.10901 c -1.62507,0.37201 -3.34343,0.64957 -5.06294,0.69678 v 1.02158 c 0.46415,0.64957 0.74401,1.62622 0.74401,2.73993 0,1.94986 -0.92943,3.57492 -2.08921,3.57492 -1.160928,0 -2.090362,-1.62506 -2.090362,-3.57492 0,-1.11486 0.278715,-2.09036 0.742856,-2.73993 v -1.02158 c -1.717207,-0.0472 -3.435565,-0.32477 -5.061787,-0.69678 v -5.10901 c 1.62507,0.46414 3.343428,0.79008 5.061787,0.88221 v -3.48278 c -0.695636,0 -0.695636,-0.74285 0,-0.74285 v -4.36615 c 0.696787,0 0.696787,-0.74287 0,-0.74287 v -2.92535 c -0.695636,0 -0.742856,-0.79008 0,-0.79008 v -4.27286 c -0.139357,-0.046 -0.324784,-0.0933 -0.464141,-0.13936 l -2.508436,3.43672 c 0.6035,0.46414 0.14051,1.06764 -0.46414,0.64957 l -1.62507,2.22972 v -4.59765 l 2.413994,-3.29736 c -0.139357,-0.13935 -0.231494,-0.27871 -0.324784,-0.41807 l -2.08921,0.65072 v -2.83322 l 1.253065,-0.41807 c 0,-0.0933 0,-0.13935 0,-0.2315 0,-0.0933 0,-0.18657 0,-0.27871 l -1.253065,-0.41807 v -2.83322 l 2.08921,0.69679 c 0.09329,-0.13936 0.186579,-0.27872 0.324784,-0.41807 l -2.413994,-3.29737 v -4.64371 l 1.62507,2.22856 c 0.55743,-0.41806 1.06764,0.23266 0.46414,0.64958 l 2.508436,3.43671 c 0.139357,-0.0461 0.324784,-0.0933 0.464141,-0.13936 v -4.2717 c -0.742856,0 -0.742856,-0.79008 0,-0.79008 v -2.87929 c 0.696787,0 0.696787,-0.78893 0,-0.78893 v -4.31892 c -0.556278,0 -0.695636,-0.46415 -0.370853,-0.69679 0.557431,0.51136 1.16093,1.06879 1.718359,1.579 v 0 0 0 c 0.55628,-0.51021 1.11486,-1.06764 1.71836,-1.579 0.32478,0.23264 0.18542,0.69679 -0.37201,0.69679 v 4.31892 c -0.69563,0 -0.69563,0.78893 0,0.78893 v 2.87929 c 0.69679,0 0.74402,0.79008 0,0.79008 v 4.2717 z m 5.06179,-16.43957 c -0.27871,-0.0461 -0.55743,-0.13936 -0.88221,-0.23265 0.32478,-0.18543 0.6035,-0.372 0.88221,-0.6035 z m -12.816283,-0.78893 c 0.278715,0.18543 0.556279,0.372 0.882213,0.55743 -0.324783,0.0933 -0.603498,0.18658 -0.882213,0.23265 z m 0,48.76246 c -3.065865,-0.79008 -5.897932,-2.04314 -8.498504,-3.71543 l -0.55743,0.83614 c 0,0.79007 -0.370852,1.76443 -0.975503,2.64664 -1.160928,1.62507 -2.879287,2.32186 -3.854789,1.67229 -0.929435,-0.69679 -0.790077,-2.5545 0.370852,-4.17957 0.649567,-0.88337 1.486864,-1.48687 2.275788,-1.76443 l 0.55743,-0.79008 c -3.715432,-3.01864 -6.640787,-6.96557 -8.359147,-11.51714 l -0.975501,0.27872 c -0.464142,0.64956 -1.300287,1.25421 -2.367926,1.62621 -1.857716,0.6035 -3.669364,0.18543 -4.040216,-0.92943 -0.370853,-1.11486 0.882213,-2.55451 2.73993,-3.158 1.02157,-0.32594 2.090362,-0.37201 2.833218,-0.0933 l 0.975503,-0.32479 c -0.649568,-2.27579 -0.975503,-4.64371 -0.975503,-7.10493 0,-2.46236 0.324783,-4.87635 0.928282,-7.15214 l -0.928282,-0.27872 c -0.742856,0.23149 -1.811648,0.23149 -2.833218,-0.14051 -1.857717,-0.60349 -3.110783,-1.99592 -2.73993,-3.11078 0.372004,-1.11486 2.1825,-1.53293 4.040216,-0.92944 1.067639,0.32479 1.903784,0.92944 2.367926,1.57901 l 0.975501,0.32478 c 1.71836,-4.55158 4.643715,-8.54457 8.359147,-11.51715 l -0.55743,-0.83614 c -0.790076,-0.2315 -1.626221,-0.88222 -2.275788,-1.76443 -1.160929,-1.579 -1.300287,-3.43672 -0.370852,-4.08743 0.975502,-0.69564 2.693861,0.0472 3.808721,1.579 0.649567,0.88221 1.021571,1.85771 1.021571,2.69386 l 0.55743,0.78892 c 1.254217,-0.83615 2.600572,-1.53294 3.994147,-2.13528 1.06764,0.6035 2.08921,1.207 3.111934,1.81049 0.464141,0.32479 0.929433,0.60351 1.393575,0.92944 v 0.79008 c -1.997074,0.6035 -3.85479,1.48686 -5.573148,2.60057 l 2.043142,2.786 c 0.55743,-0.41808 1.021571,0.23264 0.418073,0.64956 l 2.554503,3.48279 c -0.51021,0.41807 -0.04607,1.02157 0.46414,0.64957 l 0.09329,0.0933 v 4.64372 l -0.09329,-0.18543 c -0.603498,0.46415 -1.067639,-0.18543 -0.46414,-0.6035 l -1.718359,-2.36908 c 0.55743,-0.372 0.09329,-1.02156 -0.464141,-0.60349 l -2.554503,-3.52886 c -0.603499,0.46415 -1.021572,-0.18542 -0.464142,-0.60349 l -1.995921,-2.83322 c -2.926508,2.41515 -5.202297,5.52593 -6.641941,9.05593 l 3.343429,1.11371 c 0.232646,-0.69563 0.975503,-0.46414 0.744007,0.23265 l 4.086285,1.34635 c -0.186577,0.6035 0.55743,0.83615 0.742856,0.23265 l 2.785998,0.88222 c 0.185427,-0.69564 0.975503,-0.46415 0.742857,0.23264 l 1.951005,0.64956 v 2.83323 l -2.78715,-0.88222 c -0.231495,0.69563 -0.974351,0.46414 -0.742856,-0.23265 l -2.785999,-0.92943 c 0.231495,-0.6035 -0.511361,-0.88221 -0.744008,-0.23265 l -4.086283,-1.34635 c -0.232648,0.69679 -0.975503,0.46414 -0.742857,-0.23265 l -3.343428,-1.06764 c -0.464141,1.76443 -0.696788,3.66936 -0.696788,5.61922 0,1.90378 0.232647,3.80757 0.696788,5.61922 l 3.343428,-1.11486 c -0.232646,-0.69679 0.510209,-0.92944 0.742857,-0.23265 l 4.086283,-1.34635 c 0.232647,0.64956 0.975503,0.41807 0.744008,-0.23265 l 2.785999,-0.88222 c -0.231495,-0.69563 0.511361,-0.97549 0.742856,-0.23264 l 2.78715,-0.92944 v 2.83323 l -1.951005,0.64956 c 0.232646,0.69679 -0.51021,0.92828 -0.742857,0.23265 l -2.785998,0.92943 c -0.185426,-0.65072 -0.929433,-0.41807 -0.742856,0.23149 l -4.086285,1.34636 c 0.232647,0.69679 -0.511361,0.92943 -0.744007,0.23265 l -3.343429,1.06879 c 1.439644,3.57492 3.715433,6.68686 6.641941,9.05594 l 1.995921,-2.786 c -0.556278,-0.46415 -0.09329,-1.06765 0.464142,-0.64958 l 2.554503,-3.48278 c 0.55743,0.37201 1.021571,-0.23149 0.464141,-0.64957 l 1.718359,-2.32185 c -0.603499,-0.41807 -0.185427,-1.06764 0.46414,-0.64957 l 0.09329,-0.13936 v 4.59765 l -0.09329,0.0933 c -0.510209,-0.372 -0.975501,0.27872 -0.46414,0.64957 l -2.507284,3.48279 c 0.55743,0.46414 0.09329,1.06764 -0.46414,0.64957 l -2.043143,2.83206 c 1.718359,1.06765 3.574923,1.95101 5.573149,2.5545 v 5.11132 z" id="path275" style="stroke-width:1.15171"></path>
<path fill="#ffcb05" d="m 19.225512,146.089 c -6.083359,-1.67113 -11.377792,-5.66527 -15.882149,-9.93814 -0.9755025,-0.9755 -1.67229,-1.57901 -2.1836515,-1.85771 0.1865779,0.64956 0.650719,1.71835 1.3002862,2.83206 4.8291405,8.12765 12.9095723,12.30722 21.4552963,15.41801 0.55743,0.18543 0.742857,0.32479 1.254218,0.64956 3.436717,2.46122 6.826214,4.22565 10.124726,5.57315 2.972575,1.207 5.897932,2.04314 8.777218,2.69386 -0.418072,-0.88336 -0.55743,-1.99707 0.139358,-2.78599 -2.879287,-0.41808 -5.758574,-1.34636 -8.637861,-2.64664 -4.737003,-2.18366 -9.055935,-5.10901 -13.420934,-7.9883 -0.975503,-0.64842 -1.997074,-1.25307 -2.926507,-1.94986 z" id="path277" style="stroke-width:1.15171"></path>
<path fill="#ffcb05" d="m 46.02131,157.28137 c -0.139358,-0.64957 -0.09329,-1.207 0.186578,-1.62507 -5.340502,-1.81165 -10.867582,-3.80757 -15.371938,-7.19822 -1.486865,-1.11485 -2.461215,-2.786 -3.900859,-3.94807 -3.065865,-2.55451 -5.991221,-5.43264 -9.148072,-7.75565 -3.251291,-2.414 -6.130578,-5.24722 -8.4985038,-8.4985 -1.6250696,-2.27579 -2.9725761,-4.4583 -4.9224294,-6.36208 -1.3002861,-1.29913 -1.7644272,0.14051 -1.7644272,1.25422 0.046069,3.11078 2.8320669,6.59472 4.5976458,9.00872 1.67229,2.27578 3.4367176,4.50435 5.3405016,6.54864 3.064713,3.25014 6.734077,5.61922 10.449509,8.08043 4.271711,2.786 8.544573,5.71251 13.235508,7.84779 3.295057,1.48686 6.500279,2.46237 9.796487,2.64779 z" id="path279" style="stroke-width:1.15171"></path>
<path fill="#ffcb05" d="m 52.384534,148.41087 c 0.696788,-0.46415 1.67229,-0.46415 2.507284,-0.32479 -0.185427,-1.67229 0,-3.85479 1.997073,-4.27171 -4.133504,-5.66529 -8.73115,-11.05301 -13.746869,-15.97544 C 37.196871,121.98707 30.091941,117.52878 24.287299,111.58479 19.3188,106.47577 14.534576,100.20699 12.444214,93.333553 9.1940747,92.730054 7.6611421,95.051915 9.2862119,98.348122 11.840716,103.5032 14.81214,108.56498 18.248857,113.48856 c 3.390649,4.82914 7.245439,9.56615 11.749796,14.16379 0.278715,0.32479 0.418072,0.46415 0.649567,0.88222 0.836145,1.62507 1.67229,3.158 2.554503,4.59764 3.900858,6.31601 9.79879,9.65944 16.114795,13.3288 1.116012,0.60465 2.091515,1.25422 3.067016,1.94986 z" id="path281" style="stroke-width:1.15171"></path>
<path fill="#ffcb05" d="m 49.36589,151.19802 c 0.696787,-0.13936 1.486864,0.0472 2.136431,0.27871 -0.139357,-0.6035 -0.185426,-1.207 -0.04722,-1.81165 -0.882213,-0.64957 -1.857715,-1.30029 -2.879287,-1.90378 -6.594719,-3.7615 -12.584788,-7.29151 -16.672224,-13.83901 -0.975503,-1.53293 -1.857717,-3.20407 -2.73993,-4.92243 -8.544572,-8.68508 -15.510144,-18.62207 -20.9911555,-29.489658 -2.5545036,5.155068 3.1580025,13.327638 5.6652855,17.508368 3.85479,6.26879 7.941074,13.00286 13.420934,17.83315 1.62507,1.43964 2.879287,3.11194 4.132352,4.73701 3.111935,4.17957 5.851864,6.36207 10.588868,8.54457 2.32416,1.06764 4.877512,2.08921 7.385947,3.06472 z" id="path283" style="stroke-width:1.15171"></path>
<path fill="#ffcb05" d="m 48.344319,154.6808 c -0.278715,-0.69679 -0.511361,-1.579 -0.278715,-2.36907 -4.504357,-1.76443 -9.427939,-3.57609 -13.281576,-6.6408 -1.903785,-1.48686 -3.251292,-3.29736 -4.643714,-5.15507 -1.16093,-1.579 -2.369078,-3.20407 -3.900859,-4.55043 -0.742856,-0.65072 -1.486864,-1.34635 -2.1825,-2.0892 v 0 c -2.415146,-1.85773 -5.015718,-4.41222 -7.570222,-7.52416 -3.018644,-3.62215 -6.9195028,-8.31193 -8.4524353,-12.81744 -1.5790011,-4.78307 -4.4582883,-2.69271 -3.1119336,1.48687 2.0903625,6.45421 7.2915069,13.37487 11.8430839,18.25122 3.389497,3.66936 7.012792,6.64079 11.145145,10.03144 1.439643,1.16093 2.415146,2.83207 3.85479,3.94692 4.318931,3.25015 9.659433,5.20115 14.76844,6.87344 0.464141,0.18542 1.346354,0.60234 1.810496,0.55628 z" id="path285" style="stroke-width:1.15171"></path>
<path fill="#ffcb05" d="m 63.716257,174.04689 c -1.579001,1.30028 -4.597645,1.67228 -6.594719,1.99707 -1.392423,0.6035 -2.600572,0.9755 -3.715432,1.11486 -0.464142,1.02157 0.46414,1.25306 1.346354,1.39242 1.671139,0.18543 2.600573,-0.37085 4.086285,-1.20699 1.857716,-0.97551 3.994147,-1.30029 5.851863,-2.22972 -0.324784,-0.32479 -0.649567,-0.69679 -0.974351,-1.06764 z" id="path287" style="stroke-width:1.15171"></path>
<path fill="#ffcb05" d="m 52.337315,171.44516 c -1.113709,-0.32478 -2.135281,-0.83614 -3.018645,-1.48571 -0.836145,0 -1.579002,-0.0933 -2.275789,-0.27872 -0.649568,-0.18542 -1.206998,0.32479 -0.649568,0.88222 1.532933,1.62622 4.040217,1.34751 5.944002,0.88221 z" id="path289" style="stroke-width:1.15171"></path>
<path fill="#ffcb05" d="m 60.046894,171.6778 c -1.579001,0.23266 -3.111934,0.37202 -4.458288,0.27872 -1.903785,0.69679 -3.85479,1.25307 -5.619218,1.30029 -0.744007,0.0472 -1.11486,0.13936 -1.811647,0.51136 1.486863,1.207 2.646641,1.81049 3.808721,1.94985 1.300286,0.18543 2.646641,-0.18657 4.458289,-0.92943 0.324783,-0.13936 0.511361,-0.18542 0.883364,-0.23149 1.579002,-0.18659 3.528855,-0.51136 4.92243,-1.25423 -0.790076,-0.41807 -1.579001,-0.97434 -2.183651,-1.62507 z" id="path291" style="stroke-width:1.15171"></path>
<path fill="#ffcb05" d="m 58.746608,168.70639 c -3.576075,-0.18543 -6.640789,-0.83615 -9.055935,-1.90379 -1.997073,-0.88222 -3.574923,-2.08922 -4.689782,-3.66937 0,0.13936 0,0.37201 0.04607,0.65073 v 0 c 0,0.0933 0.04722,0.18542 0.09329,0.23149 0.139358,0.372 0.232646,0.69679 0,1.20815 -0.139357,0.32478 -0.324784,0.51021 -0.139357,0.97435 0.324783,0.83614 0.882213,1.39357 1.625069,1.76558 0.557431,0.32478 1.254217,0.46414 2.089211,0.55743 1.068791,0.0472 1.068791,0 1.903784,0.6035 1.068792,0.69678 2.321858,1.11485 3.761502,1.30028 1.439643,0.18542 3.018645,0.13936 4.783072,-0.0933 -0.186578,-0.41808 -0.278715,-0.92829 -0.278715,-1.39243 0.0012,-0.18658 0.0012,-0.23264 -0.138206,-0.23264 z" id="path293" style="stroke-width:1.15171"></path>
<path fill="#ffcb05" d="m 56.749534,165.77988 c -1.949853,-0.69564 -4.735852,-1.90379 -6.919503,-3.48279 -1.160928,-0.83614 -2.1825,-1.76443 -2.879288,-2.78599 -0.46414,-0.13936 -1.393575,-0.32479 -1.672289,0.13935 -0.232647,0.37201 0,1.06764 0.185426,1.39242 0.929433,1.951 2.600572,3.43672 4.830292,4.41222 1.949853,0.88336 4.318931,1.43964 7.10493,1.71836 -0.277564,-0.41807 -0.510211,-0.88221 -0.649568,-1.39357 z" id="path295" style="stroke-width:1.15171"></path>
<path fill="#ffcb05" d="m 66.966396,159.4178 c -0.511361,-0.79008 -0.975502,-1.62507 -1.486863,-2.41515 -2.461215,-4.04021 -4.876361,-8.03435 -7.66236,-11.88914 v 0.0933 c -0.649567,-0.046 -1.114859,0.13935 -1.300285,0.60349 -0.557431,1.207 -0.09329,2.97258 0.139357,4.22565 -0.928282,-0.27872 -1.995922,-0.69679 -2.972576,-0.55744 3.482786,2.83207 6.222715,6.22272 8.962645,10.03029 1.394727,-0.23035 2.880439,-0.18312 4.320082,-0.091 z" id="path297" style="stroke-width:1.15171"></path>
<path fill="#ffcb05" d="m 52.848676,150.73387 c 0.09329,0.97551 0.603499,2.08922 0.882213,3.01865 -1.254217,-0.27872 -2.693861,-1.16093 -3.854789,-1.16093 -0.324784,0 -0.418073,0.0461 -0.464142,0.37085 0,0.88221 0.51021,1.81165 0.882214,2.60057 3.576074,1.67114 6.919503,4.13351 9.892079,6.59472 -0.46414,-1.30028 -0.186578,-1.85771 0.882214,-2.22971 -2.553352,-3.48165 -5.061787,-6.59357 -8.219789,-9.19415 z" id="path299" style="stroke-width:1.15171"></path>
<path fill="#ffcb05" d="m 47.74082,156.16651 c -0.372004,0.13936 -0.464141,0.51137 -0.185426,1.39357 0.418073,1.30029 1.62507,2.50729 3.111934,3.57608 2.089211,1.48571 4.737003,2.60057 6.594719,3.29736 0.742856,-0.41807 1.579001,-0.64956 2.415146,-0.74286 -3.531157,-2.97257 -7.617442,-5.94515 -11.936373,-7.52415 z" id="path301" style="stroke-width:1.15171"></path>
<path fill="#ffcb05" d="m 70.867255,167.59152 c -0.696787,-2.22971 -1.811647,-4.45829 -3.018645,-6.64078 -1.857716,-0.18543 -3.900858,-0.32479 -5.711354,0.13936 -0.510209,0.13935 -0.742856,0.18542 -0.790076,0.18542 0,0.0472 0.139358,0.18658 0.324783,0.6035 1.254218,3.06471 6.316005,4.78422 9.195292,5.7125 z" id="path303" style="stroke-width:1.15171"></path>
<path fill="#ffcb05" d="m 71.424685,170.14603 c -0.04607,-0.27872 -0.09329,-0.60351 -0.139357,-0.88222 -2.972577,-0.92943 -6.316005,-2.08921 -8.77722,-4.08628 -1.393575,-0.27872 -2.972576,-0.18543 -4.31893,0.372 1.811647,4.36385 9.380717,4.55043 13.235507,4.5965 z" id="path305" style="stroke-width:1.15171"></path>
<path fill="#ffcb05" d="m 71.564043,172.79267 c 0.04607,-0.41808 0.04607,-0.79008 0,-1.207 -3.343429,0 -6.640789,-0.27872 -9.241361,-1.11486 -0.649567,-0.23265 -1.253065,-0.41807 -1.857716,-0.69563 0.232646,0.60349 0.742857,1.1137 1.300287,1.4857 3.018644,2.27465 6.316004,1.71837 9.79879,1.53179 z" id="path307" style="stroke-width:1.15171"></path>
<path fill="#ffcb05" d="m 70.309825,177.4836 c 0.51021,-1.06764 0.882213,-2.13643 1.068792,-3.25129 -1.764428,0.13936 -3.576075,0.32594 -5.341654,0.18543 1.208148,1.20815 2.647793,2.41515 4.272862,3.06586 z" id="path309" style="stroke-width:1.15171"></path>
<path fill="#ffcb05" d="m 68.035189,180.73375 c 0.603498,-0.64958 1.114859,-1.34636 1.532931,-1.99708 -1.393575,-0.6035 -2.64664,-1.53294 -3.7615,-2.5545 -1.11486,0.60349 -2.22972,0.92943 -3.29736,1.30028 -1.021571,0.32479 -2.043142,0.64957 -2.972576,1.16093 -0.883366,0.46414 -1.579002,0.6035 -1.021571,0.83614 2.507283,1.30029 6.778994,1.62623 9.520076,1.25423 z" id="path311" style="stroke-width:1.15171"></path>
<path fill="#ffcb05" d="m 46.997964,172.7466 c -0.882214,-0.37201 -1.62507,-1.02157 -2.22972,-1.95101 -3.390649,0.60351 -6.734077,1.39358 -9.984216,2.36908 -2.554504,0.79008 -5.061787,1.67229 -7.383644,2.69271 1.625069,0.32479 3.29736,0.18658 4.968497,-0.13936 2.089211,-0.46413 4.225642,-0.51021 6.362074,-0.55743 1.579001,0 3.390648,-0.64957 5.109007,-1.30028 0.928282,-0.32478 2.367926,-0.64957 3.158002,-1.11371 z" id="path313" style="stroke-width:1.15171"></path>
<path fill="#ffcb05" d="m 50.34024,176.78681 c -1.346354,-0.46413 -2.507282,-1.39241 -3.622143,-2.32185 -1.857715,0.51136 -3.669363,1.11486 -5.479859,1.76442 -2.73993,1.02158 -5.433791,2.27579 -7.801717,4.04022 3.251292,0.97551 6.640789,-0.27872 9.798791,-1.02157 2.228568,-0.51136 4.550425,-1.43964 6.780145,-2.32186 v 0 c 0.09329,-0.0472 0.186577,-0.0933 0.324783,-0.13936 z" id="path315" style="stroke-width:1.15171"></path>
<path fill="#ffcb05" d="m 53.963536,179.85153 c -0.55743,-0.13936 -1.068791,-0.32478 -1.486864,-0.64957 -0.418072,-0.372 -0.696788,-0.79008 -0.696788,-1.34635 -0.418072,0.18543 -0.836145,0.32478 -1.206997,0.5102 v 0 c -2.369077,0.88222 -4.737004,1.85772 -7.15215,2.41515 -1.718358,0.372 -3.390648,0.92943 -4.968497,1.62622 0.836145,0.2315 1.672289,0.37085 2.554503,0.46414 3.715433,0.32479 4.643715,-0.46414 7.893854,-1.207 1.71951,-0.37315 3.390649,-1.06993 5.062939,-1.81279 z" id="path317" style="stroke-width:1.15171"></path>
<path fill="#ffcb05" d="M 68.684756,147.62194 C 58.60725,133.08615 44.258034,123.38064 31.903589,110.93521 27.352011,106.33757 23.265727,101.36792 20.33922,95.889211 c -2.275789,-4.272864 -1.997074,-8.034365 -0.882214,-12.58594 0.55743,-2.275789 0.464141,-5.155079 -0.603499,-6.130581 -0.790076,-0.696787 -1.951004,-0.04607 -2.600571,0.557432 -1.021572,0.974352 -1.810497,2.461214 -2.229721,3.482784 -1.810496,4.225643 -1.346354,8.82444 0.372004,13.374866 2.1825,5.805788 6.50143,11.471078 10.91365,15.975438 5.804643,5.94516 12.909572,10.40229 18.854725,16.25415 8.963797,8.82329 16.022657,18.6693 22.570156,29.44359 4.92243,8.08043 9.984217,16.39351 2.73993,25.03137 -0.649567,0.74286 -0.882214,0.83615 -1.857716,0.92828 -1.671138,0.18658 -3.389497,0.0933 -5.107856,-0.18542 -1.951005,-0.32479 -3.948078,-0.88222 -5.945151,-1.71836 -2.367927,1.11486 -4.737005,2.22972 -7.291508,2.83322 -1.997073,0.46414 -3.85479,1.20699 -5.573148,2.22972 2.321857,0.6035 4.830293,1.02157 7.430865,1.30029 5.294433,0.60349 11.656506,1.25421 16.532866,-1.207 2.089212,-1.06879 3.946927,-2.55451 5.525929,-4.36615 1.114859,-1.30029 2.275788,-2.69386 3.900858,-3.62214 1.160928,-0.69679 2.367926,-1.02158 3.528854,-1.02158 0.04722,-0.046 0.09329,-0.0933 0.139358,-0.0933 -0.139358,-0.0933 -0.278715,-0.18657 -0.372004,-0.27871 -0.510209,-0.41808 -0.975503,-0.88221 -1.346354,-1.43964 -0.742857,-1.02157 -1.206998,-2.13528 -1.253066,-3.158 -0.139358,-1.3003 0.278715,-2.36908 1.206997,-3.06587 0.370852,-0.27872 0.788924,-0.41807 1.253066,-0.51021 -2.321858,-1.30029 -4.458289,-2.73993 -6.268785,-4.50436 -2.69386,-2.73993 -4.643714,-6.22271 -5.201144,-11.33172 l -3.715433,0.46414 c 1.209301,-1.62622 2.417451,-3.25129 3.624448,-4.92358 z" id="path319" style="stroke-width:1.15171"></path>
<path fill="#ffcb05" d="m 43.561247,162.90174 c -2.879288,-0.60349 -5.805795,-1.48687 -8.82444,-2.69386 -1.532932,-0.64957 -3.110781,-1.34636 -4.689783,-2.18365 -7.755648,-0.37086 -16.208084,-1.76443 -23.9176627,-0.55628 4.9224297,6.31601 32.3689467,6.64079 37.5700917,6.9195 0,-0.0933 -0.04607,-0.18543 -0.09329,-0.32479 v 0 c -0.09213,-0.41806 -0.09213,-0.83729 -0.04492,-1.16092 z" id="path321" style="stroke-width:1.15171"></path>
<path fill="#ffcb05" d="m 27.399232,156.49245 c -1.208149,-0.74286 -2.369078,-1.48687 -3.576075,-2.36793 -4.643714,-1.67229 -9.009866,-3.57607 -12.863504,-6.08336 -1.254217,-0.83614 -7.5702214,-5.38772 -8.1276514,-4.78307 -0.3708522,0.372 0.4180725,2.04314 0.6034986,2.36792 1.0676397,2.04315 2.8332186,3.8548 5.0157183,5.47986 2.0892105,1.57901 5.1078555,3.20407 7.9410745,4.55158 3.669364,0.18428 7.291507,0.60235 11.006939,0.835 z" id="path323" style="stroke-width:1.15171"></path>
<path fill="#ffcb05" d="m 11.795798,162.15773 c -0.790076,0.23265 -1.532932,0.51137 -2.2297195,0.88221 3.4367165,1.43965 7.9871425,2.55451 13.5142225,3.34343 5.990069,0.83615 13.09615,1.34636 21.222651,1.53294 -0.464142,-0.6035 -0.836146,-1.34635 -0.882215,-1.99707 -10.541645,-0.69564 -21.454144,-0.60351 -31.624939,-3.76151 z" id="path325" style="stroke-width:1.15171"></path>
<path fill="#ffcb05" d="m 44.025388,169.44924 c -5.990069,-0.13936 -11.42386,-0.46414 -16.254152,-0.92828 -1.300286,-0.13936 -1.485712,-0.13936 -2.785998,0.0933 -1.810496,0.32479 -3.715433,0.69679 -5.47986,0.55744 -0.790076,-0.0472 -1.439644,0.0933 -2.089211,0.27871 1.160929,0.74401 3.018645,1.25422 5.573148,1.53293 3.25014,0.41807 8.311927,0.41807 13.420934,0.0933 2.461215,-0.64957 4.968498,-1.16094 7.476933,-1.62623 0.04492,-0.001 0.09099,-0.001 0.138206,-0.001 z" id="path327" style="stroke-width:1.15171"></path>
<path d="m 111.54928,204.32547 v 4.04022 l 0.9755,1.39242 c 0.18543,0 0.37201,0.0473 0.51021,0.14051 v 0 c 0.32479,0.13935 0.55743,0.32478 0.74401,0.60235 0.18543,0.23264 0.27871,0.55743 0.32478,0.88336 0.046,0.13936 0.046,0.32479 0,0.51021 l 0.51021,0.64957 c 1.71836,-1.67229 3.20407,-3.66937 4.27171,-5.85187 l -0.83614,-0.27872 c -0.13936,0.0933 -0.27871,0.13936 -0.46414,0.18543 v 0 c -0.32593,0.0472 -0.65072,0.0472 -0.92944,-0.0461 -0.32478,-0.0933 -0.60349,-0.2787 -0.83615,-0.51136 -0.0933,-0.13936 -0.18541,-0.27871 -0.2787,-0.41807 z" id="path329" style="stroke-width:1.15171"></path>
<path d="m 111.54928,196.89576 v 1.34635 l 5.75857,1.90378 c 0.18543,-0.0933 0.32479,-0.13935 0.51021,-0.18542 v 0 c 0.32479,-0.0472 0.64958,-0.0472 0.92944,0.046 0.32478,0.0933 0.6035,0.27871 0.79007,0.51136 0.13936,0.13935 0.23266,0.27871 0.32479,0.41807 l 0.79008,0.27872 c 0.23264,-1.16093 0.32478,-2.414 0.32478,-3.62215 0,-1.25421 -0.0933,-2.46236 -0.32478,-3.66936 l -0.79008,0.27872 c -0.0933,0.13936 -0.18658,0.27871 -0.32479,0.41807 v 0 c -0.18657,0.23265 -0.46413,0.41807 -0.79007,0.51021 -0.27872,0.0933 -0.6035,0.13936 -0.92944,0.0472 -0.18542,0 -0.32478,-0.0933 -0.46413,-0.13935 z" id="path331" style="stroke-width:1.15171"></path>
<path d="m 111.54928,186.81825 v 4.04022 l 3.99414,-1.30029 c 0.0933,-0.18542 0.18543,-0.32478 0.27872,-0.41807 v 0 c 0.23265,-0.27871 0.51136,-0.41807 0.83615,-0.51137 0.27871,-0.13935 0.60349,-0.13935 0.92943,-0.0933 0.13936,0.0472 0.32478,0.0933 0.46414,0.18658 l 0.83615,-0.27872 c -1.06764,-2.18365 -2.55336,-4.17957 -4.27171,-5.85186 l -0.51021,0.69564 c 0.046,0.13936 0.046,0.32478 0,0.46413 v 0.0473 c -0.0472,0.32478 -0.13936,0.60349 -0.32479,0.88221 -0.18657,0.23264 -0.46413,0.46414 -0.744,0.6035 -0.13936,0.046 -0.32479,0.0933 -0.46415,0.13936 z" id="path333" style="stroke-width:1.15171"></path>
<path d="M 134.30487,141.72401 V 8.6260763 C 127.05942,4.9567126 119.39706,2.4033608 111.54928,1.1491433 V 99.92712 c 1.25422,2.04315 1.99707,4.45829 1.99707,7.05886 0,2.55451 -0.74285,4.96965 -1.99707,7.0128 v 2.64664 h 19.2728 v 9.98421 h -19.2728 v 33.20509 c 0.9755,-0.55743 1.85771,-1.207 2.60058,-1.99707 1.99707,-2.04314 3.25128,-4.87636 3.76264,-8.12765 l -4.31892,-0.69564 c 4.69093,-2.97257 9.33464,-5.38656 13.32879,-8.08043 1.25421,1.85772 2.55451,3.66821 3.80872,5.47986 1.15863,-1.62507 2.36562,-3.20407 3.57378,-4.68978 z" id="path335" style="stroke-width:1.15171"></path>
<path d="m 134.30487,206.55519 v -17.92645 c -0.14052,0.32479 -0.37201,0.69679 -0.69679,1.02158 -0.64957,0.79008 -1.67229,1.43964 -2.87929,1.81049 -0.6035,0.23266 -1.30029,0.32594 -1.90378,0.37201 -0.13936,0 -0.27872,0 -0.46415,0 0.41807,1.85772 0.6035,3.7615 0.6035,5.75857 0,1.94986 -0.18543,3.85364 -0.6035,5.71136 0.18543,0 0.32479,0 0.46415,0 0.60349,0.046 1.30028,0.13936 1.90378,0.37085 1.207,0.372 2.22972,1.06879 2.87929,1.81164 0.32478,0.32594 0.55743,0.69795 0.69679,1.06995 z" id="path337" style="stroke-width:1.15171"></path>
<path d="m 111.54928,289.35773 c 7.84778,-1.25422 15.5113,-3.80872 22.75559,-7.47693 v -72.77111 c -0.41808,0.88221 -1.3003,1.48572 -2.41515,1.71836 -0.97551,0.23265 -2.22972,0.18543 -3.3895,-0.18543 -0.64957,-0.23264 -1.25421,-0.51136 -1.76443,-0.83614 -0.13936,-0.0933 -0.27872,-0.18543 -0.372,-0.27871 -1.62507,3.52886 -3.94693,6.68685 -6.78015,9.28742 0.13936,0.0933 0.27872,0.18543 0.37201,0.27872 0.5102,0.372 0.9755,0.83614 1.34635,1.39242 0.74286,1.02272 1.207,2.13644 1.25307,3.158 0.13936,1.3003 -0.27872,2.41515 -1.207,3.11194 -0.92943,0.69679 -2.13643,0.69679 -3.34343,0.23264 -0.92943,-0.41807 -1.85771,-1.16092 -2.60057,-2.1825 -0.41808,-0.55742 -0.69678,-1.16092 -0.92944,-1.71836 -0.046,-0.13935 -0.0933,-0.32477 -0.13936,-0.46413 -0.92943,0.51021 -1.85771,0.97549 -2.78599,1.39357 z" id="path339" style="stroke-width:1.15171"></path>
<path d="m 88.793697,190.85732 v -4.04022 l -0.975503,-1.39357 c -0.186577,-0.0461 -0.370851,-0.0933 -0.510209,-0.13936 v 0 c -0.324784,-0.14051 -0.55743,-0.37201 -0.744008,-0.6035 -0.185426,-0.27872 -0.278714,-0.55743 -0.324783,-0.88221 -0.04607,-0.18658 -0.04607,-0.372 0,-0.51136 l -0.51021,-0.69564 c -1.718359,1.67229 -3.204071,3.66821 -4.271711,5.85186 l 0.836146,0.27872 c 0.139357,-0.0933 0.278715,-0.13936 0.46414,-0.13936 v 0 c 0.324784,-0.0933 0.649568,-0.0933 0.929435,0.046 0.324783,0.0933 0.603498,0.23265 0.836145,0.51136 0.09329,0.0933 0.185425,0.23265 0.278715,0.41807 z" id="path341" style="stroke-width:1.15171"></path>
<path d="m 88.793697,198.24211 v -1.34635 l -5.758575,-1.85772 c -0.185425,0.0461 -0.324783,0.13935 -0.510209,0.13935 v 0 c -0.324783,0.0933 -0.649567,0.0472 -0.929434,-0.0472 -0.324784,-0.0921 -0.603499,-0.27872 -0.790076,-0.51021 -0.139357,-0.13936 -0.232647,-0.27871 -0.324784,-0.41807 l -0.788924,-0.27872 c -0.232647,1.207 -0.325936,2.414 -0.325936,3.66936 0,1.207 0.09329,2.46122 0.325936,3.62215 l 0.788924,-0.27872 c 0.09329,-0.13936 0.186578,-0.27872 0.324784,-0.41807 v 0 c 0.186577,-0.23265 0.464141,-0.41807 0.790076,-0.51136 0.278715,-0.0933 0.603499,-0.0933 0.929434,-0.046 0.185426,0.046 0.324784,0.0933 0.464141,0.18542 z" id="path343" style="stroke-width:1.15171"></path>
<path d="m 88.793697,208.36569 v -4.04022 l -3.992996,1.30028 c -0.09329,0.13936 -0.186577,0.27872 -0.278714,0.41808 v 0 c -0.232647,0.23264 -0.51021,0.41807 -0.790077,0.51136 -0.324783,0.0933 -0.649567,0.0933 -0.975503,0.046 -0.139357,-0.046 -0.324783,-0.0933 -0.46414,-0.18543 l -0.836145,0.27872 c 1.067639,2.1825 2.554503,4.17957 4.271711,5.85186 l 0.510209,-0.64957 c -0.04607,-0.18543 -0.04607,-0.372 0,-0.5102 v 0 c 0.04722,-0.32479 0.139358,-0.64957 0.324783,-0.88337 0.186578,-0.27871 0.465293,-0.46414 0.744008,-0.60235 0.139358,-0.0933 0.324784,-0.14051 0.464142,-0.14051 z" id="path345" style="stroke-width:1.15171"></path>
<path d="m 66.036963,209.10969 v 72.77111 c 7.245438,3.66936 14.907798,6.22271 22.755582,7.47693 v -65.3414 c -0.928282,-0.41806 -1.857715,-0.88336 -2.785997,-1.39356 -0.04722,0.13935 -0.09329,0.32593 -0.139358,0.46413 -0.232647,0.55743 -0.511362,1.16094 -0.929435,1.71837 -0.742855,1.02157 -1.672289,1.76442 -2.600572,2.18249 -1.206997,0.46415 -2.415146,0.46415 -3.343428,-0.23264 -0.929433,-0.69679 -1.346354,-1.81165 -1.206997,-3.11194 0.04607,-0.9755 0.51021,-2.13528 1.253066,-3.158 0.372004,-0.55628 0.836145,-1.02157 1.346355,-1.39243 0.09329,-0.0933 0.232646,-0.18542 0.372003,-0.2787 -2.833218,-2.60058 -5.155075,-5.75858 -6.780145,-9.28744 -0.09329,0.0933 -0.232646,0.18543 -0.370852,0.27872 -0.511362,0.32479 -1.11486,0.60349 -1.765579,0.83615 -1.160929,0.37085 -2.415146,0.41806 -3.389497,0.18542 -1.113708,-0.23149 -1.995922,-0.83614 -2.415146,-1.71721 z" id="path347" style="stroke-width:1.15171"></path>
<path d="m 66.036963,188.62874 v 17.92645 c 0.140509,-0.372 0.372003,-0.74401 0.696787,-1.06879 0.650719,-0.74286 1.672291,-1.43965 2.879288,-1.81165 0.603498,-0.23264 1.300285,-0.32479 1.903784,-0.37085 0.139358,0 0.278715,0 0.464141,0 -0.418072,-1.85771 -0.603498,-3.7615 -0.603498,-5.71136 0,-1.99707 0.185426,-3.902 0.603498,-5.75857 -0.185426,0 -0.324783,0 -0.464141,0 -0.603499,-0.046 -1.300286,-0.13936 -1.903784,-0.32478 -1.208149,-0.41808 -2.229721,-1.06764 -2.879288,-1.85772 -0.324784,-0.32594 -0.556278,-0.65072 -0.696787,-1.02273 z" id="path349" style="stroke-width:1.15171"></path>
<path d="M 88.793697,1.1502949 C 80.945912,2.4033608 73.283553,4.9578644 66.038114,8.6272281 V 141.72516 c 1.208149,1.48572 2.415146,3.06471 3.576075,4.68979 1.253066,-1.81166 2.554504,-3.62215 3.80757,-5.47986 3.994147,2.69385 8.637862,5.109 13.328796,8.08042 l -4.318931,0.69564 c 0.51021,3.25129 1.764428,6.08336 3.761501,8.12765 0.742856,0.79008 1.625069,1.43964 2.600572,1.99707 V 126.63078 H 69.520901 v -9.98421 h 19.272796 v -2.64665 c -1.253066,-2.04313 -1.997073,-4.45828 -1.997073,-7.01279 0,-2.60057 0.744007,-5.01457 1.997073,-7.058862 z" id="path351" style="stroke-width:1.15171"></path>
<path d="m 20.479729,172.14195 v 63.57697 c 2.554504,4.50435 5.294433,8.77721 8.173721,12.81743 4.505508,6.22271 9.381869,11.93522 14.629082,16.90487 v -78.62297 c -1.021571,-0.23264 -2.043143,-0.51136 -3.064713,-0.79007 0.696787,-0.51136 1.393575,-1.06764 2.136431,-1.579 -2.879288,-0.0473 -5.248365,-0.79008 -7.895006,-1.85772 l 1.021571,-0.46414 c -1.903785,-0.0933 -3.297359,-0.64957 -4.922429,-1.53293 1.672289,-1.579 3.576074,-2.73994 5.619216,-3.80873 -1.160928,0.0472 -2.367925,0.18543 -3.528854,0.41807 -3.668212,0.74401 -5.804643,0.13936 -8.590641,-1.16092 2.554504,-1.207 4.689783,-2.32186 7.058861,-3.2513 -3.204071,0.0933 -5.991221,0 -8.313078,-0.27871 -0.837297,-0.0922 -1.581305,-0.18427 -2.324161,-0.37085 z" id="path353" style="stroke-width:1.15171"></path>
<path d="m 20.479729,167.54545 v 0.13936 c 0.232646,0 0.464141,-0.046 0.696787,-0.046 -0.232646,-0.0472 -0.464141,-0.0933 -0.696787,-0.0933 z" id="path355" style="stroke-width:1.15171"></path>
<path d="m 43.28138,25.066806 c -5.247213,4.968499 -10.123574,10.681003 -14.629082,16.904872 -2.879287,4.040217 -5.619217,8.311927 -8.17372,12.816282 v 22.38473 c 0.836144,1.672293 0.929433,4.318931 0.418071,6.455363 -0.139357,0.603499 -0.278715,1.206997 -0.418071,1.764429 v 7.058857 c 0.232646,0.883368 0.603498,1.811649 1.114859,2.739931 2.879287,5.3405 6.873435,10.21687 11.330571,14.72122 3.343429,3.3895 6.827366,6.54865 10.35622,9.65944 V 25.066806 Z" id="path357" style="stroke-width:1.15171"></path>
<path d="m 87.585548,171.6778 c -0.882214,-0.46413 -1.811647,-0.92828 -2.692709,-1.39241 0,0.046 0.04607,0.046 0.04607,0.0933 0.418073,0.51021 0.696788,1.11487 0.929435,1.71836 0.04721,0.13936 0.09329,0.27872 0.139357,0.41807 0.51021,-0.27987 1.021571,-0.55858 1.577849,-0.8373 z" id="path359" style="stroke-width:1.15171"></path>
<path d="m 115.45014,170.28539 c -0.88221,0.46413 -1.81165,0.92943 -2.69386,1.39241 0.55743,0.27872 1.06763,0.55743 1.57899,0.83615 0.0461,-0.13936 0.0933,-0.27872 0.13936,-0.46413 0.23266,-0.55744 0.51136,-1.16094 0.92944,-1.6723 0,-0.046 0.046,-0.046 0.046,-0.0921 z" id="path361" style="stroke-width:1.15171"></path>
<path d="m 71.842758,184.54246 c 0.650719,0.18543 1.254217,0.46415 1.765579,0.83615 0.139357,0.0933 0.278715,0.18542 0.370852,0.27872 1.206997,-2.69387 2.832067,-5.10901 4.783072,-7.29152 -0.324784,0.13936 -0.603499,0.27872 -0.929434,0.46415 -1.11486,0.65072 -2.22972,1.67228 -3.389498,3.158 h -0.04607 c -0.742856,0.92828 -1.626221,1.76443 -2.554504,2.5545 z" id="path363" style="stroke-width:1.15171"></path>
<path d="m 121.57956,178.36581 c 1.95101,2.18251 3.57608,4.59765 4.78307,7.29152 0.0933,-0.0933 0.23266,-0.18543 0.37202,-0.27872 0.5102,-0.372 1.11485,-0.65072 1.76441,-0.83615 -0.92943,-0.79007 -1.81164,-1.62507 -2.5545,-2.5545 h -0.0472 c -1.16092,-1.48572 -2.27578,-2.50728 -3.3895,-3.158 -0.32362,-0.18543 -0.60234,-0.32594 -0.92828,-0.46415 z" id="path365" style="stroke-width:1.15171"></path>
<path d="m 179.8621,92.451339 v -7.058857 c -0.13936,-0.557432 -0.27872,-1.16093 -0.41807,-1.764429 -0.51136,-2.135278 -0.41808,-4.78307 0.41807,-6.455363 V 54.78796 c -2.5545,-4.504355 -5.29444,-8.777219 -8.17372,-12.816282 -4.50436,-6.222715 -9.38072,-11.935221 -14.62909,-16.904872 v 94.506274 c 3.52886,-3.11194 7.0128,-6.26994 10.35622,-9.65944 4.4583,-4.50435 8.45244,-9.38072 11.33173,-14.721216 0.51136,-0.930587 0.88336,-1.858871 1.11486,-2.741085 z" id="path367" style="stroke-width:1.15171"></path>
<path d="m 179.8621,167.68366 v -0.13936 c -0.23265,0 -0.46414,0.0461 -0.69679,0.0933 0.2338,0 0.46529,0.046 0.69679,0.046 z" id="path369" style="stroke-width:1.15171"></path>
<path d="m 157.06044,265.44122 c 5.24837,-4.9685 10.12473,-10.681 14.62909,-16.90487 2.87928,-4.04022 5.61922,-8.31308 8.17371,-12.81743 v -63.57697 c -0.74285,0.18658 -1.4857,0.27871 -2.32185,0.372 -2.32186,0.27872 -5.10901,0.37085 -8.31308,0.27872 2.36908,0.92943 4.50551,2.04314 7.05886,3.25129 -2.786,1.30029 -4.92243,1.90378 -8.59063,1.16093 -1.16094,-0.23265 -2.36909,-0.37085 -3.52886,-0.41808 2.04314,1.0688 3.94692,2.22972 5.61922,3.80873 -1.62507,0.88221 -3.01865,1.43964 -4.92243,1.53293 l 1.02157,0.46414 c -2.64664,1.06764 -5.01457,1.81049 -7.89501,1.85772 0.74401,0.51136 1.43964,1.06764 2.13643,1.579 -1.02157,0.27871 -2.04314,0.55743 -3.06471,0.79007 v 78.62182 z" id="path371" style="stroke-width:1.15171"></path>
<path fill="#ffcb05" d="m 80.898692,57.667247 c 0.04722,2.646641 0.464141,3.574922 1.765578,4.225643 0.836146,0.418072 2.367927,0.418072 3.204072,0 1.300285,-0.649566 1.718358,-1.579002 1.718358,-4.225643 V 45.871386 c 0,-1.253068 -0.09329,-2.183655 -0.278715,-2.739931 -0.232646,-0.557432 -0.603499,-1.067642 -1.11486,-1.532934 h 9.659432 c -0.510209,0.464142 -0.882213,0.975502 -1.113707,1.486866 -0.186578,0.557428 -0.325936,1.485712 -0.325936,2.785999 v 11.981286 c 0,1.76443 -0.09329,3.111936 -0.372003,4.040218 -0.232647,0.929435 -0.649568,1.764427 -1.254218,2.461215 -1.718359,1.951004 -3.85479,2.183652 -6.176647,2.275787 -1.62507,0.04607 -3.111934,0.04607 -4.737003,0 -2.275789,-0.09329 -4.41222,-0.324783 -6.130579,-2.275787 -0.603499,-0.696788 -1.021571,-1.532934 -1.300286,-2.461215 -0.232646,-0.928282 -0.372004,-2.275788 -0.372004,-4.040218 V 45.871386 c 0,-1.300287 -0.09329,-2.229722 -0.324783,-2.785999 -0.185426,-0.511364 -0.55743,-1.021574 -1.067641,-1.486866 h 9.613365 c -0.510209,0.464142 -0.836145,0.975502 -1.067639,1.532934 -0.186579,0.556276 -0.325936,1.486863 -0.325936,2.739931 v 11.795861 z" id="path373" style="stroke-width:1.15171"></path>
<path fill="#ffcb05" d="m 106.57963,61.986178 c 0,2.135282 0.13935,2.879287 1.71836,4.364999 H 98.220484 c 1.579,-1.439641 1.718358,-2.229717 1.718358,-4.364999 V 45.917453 c 0,-1.299135 -0.09329,-2.275789 -0.324783,-2.785998 -0.185427,-0.557432 -0.556279,-1.067642 -1.021572,-1.532934 H 115.5895 v 5.155078 c -0.55628,-0.557431 -1.06764,-0.928284 -1.579,-1.114863 -0.46415,-0.232644 -1.0688,-0.324782 -1.81166,-0.324782 h -5.61921 v 6.176648 h 6.59472 v 4.737004 c -0.27872,-0.372006 -0.64957,-0.696788 -1.06764,-0.882215 -0.41807,-0.232648 -0.92943,-0.324783 -1.48687,-0.324783 h -4.04021 z" id="path375" style="stroke-width:1.15171"></path>
<path fill="#ffcb05" d="m 138.34508,65.516184 c -1.34635,0.370854 -2.60057,0.64957 -3.8548,0.836147 -1.20699,0.186577 -2.36907,0.278715 -3.48278,0.278715 -4.365,0 -7.895,-1.206997 -10.54165,-3.576077 -2.69385,-2.415144 -3.99299,-5.525928 -3.99299,-9.380718 0,-3.761499 1.29914,-6.873434 3.94693,-9.288578 2.60057,-2.413995 5.99122,-3.622144 10.12357,-3.622144 0.83615,0 1.71836,0.04722 2.64779,0.186576 0.92829,0.09329 1.90379,0.324784 2.92536,0.557432 l 0.51136,4.968497 c -1.16093,-0.603499 -2.22972,-1.068791 -3.20522,-1.346353 -0.9755,-0.278715 -1.90378,-0.418075 -2.83207,-0.418075 -2.08921,0 -3.71543,0.69679 -4.87636,2.136432 -1.207,1.439645 -1.81049,3.436717 -1.81049,5.945154 0,3.158002 0.74285,5.571995 2.18249,7.291506 1.43964,1.718356 3.48279,2.600571 6.12943,2.600571 1.207,0 2.41515,-0.185427 3.66937,-0.557431 1.25421,-0.370851 2.60056,-0.882211 4.08628,-1.625068 z" id="path377" style="stroke-width:1.15171"></path>
<path fill="#ffcb05" d="m 68.684756,61.89289 c 0,1.254218 0.09329,2.183652 0.324783,2.787151 0.232647,0.556277 0.603499,1.114859 1.11486,1.579001 h -9.752721 c 0.510209,-0.464142 0.882213,-1.021573 1.11486,-1.579001 0.185425,-0.603499 0.324783,-1.532933 0.324783,-2.787151 V 45.917453 c 0,-1.346354 -0.139358,-2.275789 -0.324783,-2.832066 -0.232647,-0.511364 -0.603499,-1.021574 -1.11486,-1.486866 h 9.752721 c -0.55743,0.464142 -0.882213,0.975502 -1.11486,1.532934 -0.232646,0.603498 -0.324783,1.486863 -0.324783,2.785998 z" id="path379" style="stroke-width:1.15171"></path>
<path fill="#ffcb05" d="m 74.443329,264.32636 c 2.832068,-4.55157 4.643715,-7.523 5.433792,-8.96264 0.742856,-1.48687 1.160928,-2.46122 1.160928,-2.97258 0,-0.51136 -0.185426,-0.92943 -0.464141,-1.207 -0.324783,-0.27871 -0.790077,-0.41807 -1.392423,-0.41807 -0.464141,0 -0.975503,0.13936 -1.532933,0.372 -0.603499,0.23265 -1.254217,0.6035 -2.043142,1.11486 l 0.929434,-3.11193 c 0.929434,-0.27872 1.764427,-0.51021 2.415146,-0.64957 0.696787,-0.0933 1.300286,-0.18543 1.811647,-0.18543 1.486864,0 2.693861,0.37086 3.576075,1.11487 0.882214,0.74285 1.346355,1.76443 1.346355,2.97258 0,0.83613 -0.278715,1.81049 -0.882213,2.97256 -0.603499,1.207 -1.951005,3.34343 -4.087437,6.45422 0.603499,0.0473 1.021571,0.13936 1.346355,0.13936 0.324783,0.0473 0.603498,0.0473 0.882214,0.0473 0.55743,0 1.11486,-0.0473 1.67229,-0.23265 0.55743,-0.13936 1.300285,-0.41807 2.1825,-0.83614 l -1.06764,3.38949 H 74.443329 Z" id="path381" style="stroke-width:1.15171"></path>
<path fill="#ffcb05" d="m 94.08813,261.67972 c 0.649567,0 1.160929,-0.41808 1.532933,-1.25422 0.372004,-0.88221 0.51021,-2.04314 0.51021,-3.57493 0,-1.71835 -0.185426,-3.06586 -0.603499,-4.08743 -0.372004,-0.92943 -0.883365,-1.39242 -1.532932,-1.43964 v -2.97258 c 0,0 0,0 0.04721,0 1.764428,0 3.25014,0.79008 4.458288,2.32186 1.160929,1.53293 1.71836,3.48279 1.71836,5.89794 0,2.36792 -0.557431,4.31892 -1.764429,5.80579 -1.206997,1.53293 -2.64664,2.27579 -4.458288,2.27579 v -2.97258 c 0.04492,0 0.04492,0 0.09213,0 z m -0.09329,-10.35737 c 0,0 -0.04607,0 -0.09329,0 -0.649568,0 -1.160929,0.372 -1.486864,1.20699 -0.370853,0.83615 -0.556278,2.04315 -0.556278,3.57608 0,1.71835 0.185425,3.06471 0.603498,4.08629 0.372004,0.92943 0.882214,1.43964 1.532933,1.48685 v 2.97258 c 0,0 -0.04607,0 -0.09329,0 -1.764427,0 -3.251292,-0.74285 -4.41222,-2.27579 -1.160928,-1.53292 -1.764427,-3.53 -1.764427,-5.89793 0,-2.36908 0.603499,-4.31892 1.810496,-5.85186 1.160928,-1.53293 2.647792,-2.27579 4.458288,-2.27579 v 2.97258 z" id="path383" style="stroke-width:1.15171"></path>
<path fill="#ffcb05" d="m 115.12421,251.46286 0.83614,-2.55451 c 0.88222,-0.13935 1.67229,-0.27871 2.22971,-0.372 0.55744,-0.0933 1.06765,-0.13936 1.53294,-0.13936 1.62623,0 2.87928,0.37201 3.85479,1.0688 0.92943,0.64956 1.43964,1.57899 1.43964,2.73992 0,0.69679 -0.23264,1.30029 -0.60349,1.81165 -0.41808,0.51021 -1.02158,0.9755 -1.85772,1.34636 1.06879,0.32478 1.90378,0.88221 2.50844,1.579 0.55743,0.69679 0.83614,1.53293 0.83614,2.46121 0,1.48686 -0.64957,2.73993 -1.94985,3.71544 -1.34636,1.02157 -3.01865,1.48685 -5.01572,1.48685 -0.41807,0 -0.92828,0 -1.53294,-0.0933 -0.55743,-0.0472 -1.30028,-0.18543 -2.22971,-0.372 l -0.60351,-2.786 c 0.74286,0.32478 1.39243,0.55743 1.99708,0.74285 0.55743,0.13936 1.06764,0.18543 1.53293,0.18543 0.97551,0 1.76443,-0.2315 2.36793,-0.79008 0.6035,-0.5102 0.92943,-1.20699 0.92943,-2.08921 0,-0.83614 -0.32478,-1.48572 -0.92943,-1.94985 -0.64957,-0.46415 -1.53293,-0.69679 -2.69387,-0.69679 -0.2787,0 -0.46413,0 -0.60349,0 -0.13936,0 -0.27872,0.0473 -0.41808,0.0473 v -2.09037 h 0.41808 c 1.11486,0 1.99707,-0.18542 2.5545,-0.55628 0.6035,-0.372 0.88221,-0.92942 0.88221,-1.62621 0,-0.6035 -0.18542,-1.06764 -0.60349,-1.39243 -0.41807,-0.32478 -0.97435,-0.46413 -1.71836,-0.46413 -0.41807,0 -0.83615,0.0472 -1.34635,0.18657 -0.51252,0.1359 -1.11717,0.32248 -1.81395,0.6012 z" id="path385" style="stroke-width:1.15171"></path>
<path fill="#ffcb05" d="m 107.18428,261.67972 c 0.64957,0 1.16093,-0.41808 1.53293,-1.25422 0.32479,-0.88221 0.51022,-2.04314 0.51022,-3.57493 0,-1.71835 -0.18543,-3.06586 -0.60351,-4.08743 -0.372,-0.92943 -0.88336,-1.39242 -1.53292,-1.43964 v -2.97258 0 c 1.81164,0 3.29735,0.79008 4.5055,2.32186 1.16093,1.53293 1.76443,3.48279 1.76443,5.89794 0,2.36792 -0.6035,4.31892 -1.8105,5.80579 -1.20815,1.53293 -2.69386,2.27579 -4.45829,2.27579 v -2.97258 c 0.045,0 0.045,0 0.0921,0 z m -0.0933,-10.35737 c -0.0473,0 -0.0473,0 -0.0933,0 -0.64957,0 -1.16093,0.372 -1.53293,1.20699 -0.32479,0.83615 -0.51021,2.04315 -0.51021,3.57608 0,1.71835 0.18542,3.06471 0.6035,4.08629 0.372,0.92943 0.88222,1.43964 1.53294,1.48685 v 2.97258 c -0.0473,0 -0.0473,0 -0.0933,0 -1.76442,0 -3.25129,-0.74285 -4.41222,-2.27579 -1.207,-1.53292 -1.76442,-3.53 -1.76442,-5.89793 0,-2.36908 0.60349,-4.31892 1.76442,-5.85186 1.207,-1.53293 2.69386,-2.27579 4.50436,-2.27579 v 2.97258 z" id="path387" style="stroke-width:1.15171"></path>
<path fill="#ffcb05" d="m 181.11631,146.089 c 6.08337,-1.67113 11.3778,-5.66527 15.88215,-9.93814 0.97551,-0.9755 1.6723,-1.57901 2.18366,-1.85771 -0.18659,0.64956 -0.65072,1.71835 -1.30029,2.83206 -4.82914,8.12765 -12.90958,12.30722 -21.4553,15.41801 -0.55743,0.18543 -0.74285,0.32479 -1.25421,0.64956 -3.43673,2.46122 -6.82622,4.22565 -10.12358,5.57315 -2.97257,1.207 -5.89793,2.04314 -8.77722,2.69386 0.41807,-0.88336 0.55743,-1.99707 -0.13936,-2.78599 2.87929,-0.41808 5.75858,-1.34636 8.63787,-2.64664 4.737,-2.18366 9.05593,-5.10901 13.42093,-7.9883 0.97435,-0.64842 1.99707,-1.25307 2.92535,-1.94986 z" id="path389" style="stroke-width:1.15171"></path>
<path fill="#ffcb05" d="m 154.32052,157.28137 c 0.13936,-0.64957 0.0933,-1.207 -0.18543,-1.62507 5.3405,-1.81165 10.86643,-3.80757 15.37078,-7.19822 1.48687,-1.11485 2.46238,-2.786 3.90202,-3.94807 3.06471,-2.55451 5.99122,-5.43264 9.14806,-7.75565 3.25015,-2.414 6.13058,-5.24722 8.49851,-8.4985 1.62508,-2.27579 2.97257,-4.4583 4.92243,-6.36208 1.30029,-1.29913 1.76558,0.14051 1.76558,1.25422 -0.0472,3.11078 -2.83322,6.59472 -4.59765,9.00872 -1.67228,2.27578 -3.43671,4.50435 -5.3405,6.54864 -3.06471,3.25014 -6.73408,5.61922 -10.44836,8.08043 -4.27171,2.786 -8.54457,5.71251 -13.23551,7.84779 -3.29851,1.48686 -6.50258,2.46237 -9.79993,2.64779 z" id="path391" style="stroke-width:1.15171"></path>
<path fill="#ffcb05" d="m 147.95844,148.41087 c -0.69678,-0.46415 -1.67229,-0.46415 -2.50728,-0.32479 0.18543,-1.67229 0,-3.85479 -1.99708,-4.27171 4.13236,-5.66529 8.73116,-11.05301 13.74687,-15.97544 5.94401,-5.85186 13.05008,-10.31015 18.85473,-16.25414 4.9685,-5.10902 9.75157,-11.3778 11.84193,-18.251237 3.25014,-0.603499 4.78307,1.718362 3.15801,5.014569 -2.55451,5.155078 -5.52593,10.216858 -8.96265,15.140438 -3.3895,4.82914 -7.24429,9.56615 -11.74979,14.16379 -0.27872,0.32479 -0.41808,0.46415 -0.64957,0.88222 -0.83615,1.62507 -1.6723,3.158 -2.5545,4.59764 -3.90087,6.31601 -9.7988,9.65944 -16.11481,13.3288 -1.11485,0.60465 -2.09151,1.25422 -3.06586,1.94986 z" id="path393" style="stroke-width:1.15171"></path>
<path fill="#ffcb05" d="m 150.97709,151.19802 c -0.69679,-0.13936 -1.48687,0.0472 -2.13643,0.27871 0.13936,-0.6035 0.18543,-1.207 0.0472,-1.81165 0.88222,-0.64957 1.85773,-1.30029 2.87929,-1.90378 6.59472,-3.7615 12.5848,-7.29151 16.67223,-13.83901 0.9755,-1.53293 1.85771,-3.20407 2.73992,-4.92243 8.54459,-8.68508 15.51015,-18.62207 20.99116,-29.489658 2.55451,5.155068 -3.158,13.327638 -5.66528,17.508368 -3.85479,6.26879 -7.94108,13.00286 -13.42094,17.83315 -1.62622,1.43964 -2.87928,3.11194 -4.1335,4.73701 -3.11194,4.17957 -5.85186,6.36207 -10.58887,8.54457 -2.32301,1.06764 -4.87751,2.08921 -7.38479,3.06472 z" id="path395" style="stroke-width:1.15171"></path>
<path fill="#ffcb05" d="m 151.99866,154.6808 c 0.27871,-0.69679 0.51136,-1.579 0.27871,-2.36907 4.50436,-1.76443 9.42794,-3.57609 13.28158,-6.6408 1.90378,-1.48686 3.25129,-3.29736 4.64371,-5.15507 1.16093,-1.579 2.36908,-3.20407 3.90086,-4.55043 0.74401,-0.65072 1.48687,-1.34635 2.1825,-2.0892 v 0 c 2.41515,-1.85773 5.01572,-4.41222 7.57023,-7.52416 3.01864,-3.62215 6.9195,-8.31193 8.45243,-12.81744 1.579,-4.78307 4.45829,-2.69271 3.11193,1.48687 -2.09036,6.45421 -7.2915,13.37487 -11.84193,18.25122 -3.39065,3.66936 -7.01279,6.64079 -11.1463,10.03144 -1.43964,1.16093 -2.41515,2.83207 -3.85479,3.94692 -4.31893,3.25015 -9.65943,5.20115 -14.76843,6.87344 -0.46415,0.18542 -1.34636,0.60234 -1.8105,0.55628 z" id="path397" style="stroke-width:1.15171"></path>
<path fill="#ffcb05" d="m 136.62672,174.04689 c 1.57901,1.30028 4.59765,1.67228 6.59472,1.99707 1.39243,0.6035 2.60058,0.9755 3.71543,1.11486 0.46415,1.02157 -0.46414,1.25306 -1.34635,1.39242 -1.67229,0.18543 -2.60057,-0.37085 -4.13351,-1.20699 -1.81164,-0.97551 -3.94807,-1.30029 -5.80579,-2.22972 0.32478,-0.32479 0.65072,-0.69679 0.9755,-1.06764 z" id="path399" style="stroke-width:1.15171"></path>
<path fill="#ffcb05" d="m 148.00451,171.44516 c 1.11486,-0.32478 2.13528,-0.83614 3.01865,-1.48571 0.83614,0 1.579,-0.0933 2.27578,-0.27872 0.64957,-0.18542 1.20701,0.32479 0.64957,0.88222 -1.53178,1.62622 -4.03906,1.34751 -5.944,0.88221 z" id="path401" style="stroke-width:1.15171"></path>
<path fill="#ffcb05" d="m 140.29609,171.6778 c 1.57899,0.23266 3.11078,0.37202 4.45828,0.27872 1.90378,0.69679 3.8548,1.25307 5.61922,1.30029 0.74286,0.0472 1.11371,0.13936 1.8105,0.51136 -1.48572,1.207 -2.64664,1.81049 -3.80873,1.94985 -1.30028,0.18543 -2.69385,-0.18657 -4.45828,-0.92943 -0.32479,-0.13936 -0.51136,-0.18542 -0.88222,-0.23149 -1.579,-0.18659 -3.52885,-0.51136 -4.92243,-1.25423 0.79008,-0.41807 1.579,-0.97434 2.18366,-1.62507 z" id="path403" style="stroke-width:1.15171"></path>
<path fill="#ffcb05" d="m 141.59522,168.70639 c 3.57607,-0.18543 6.64193,-0.83615 9.05593,-1.90379 1.99707,-0.88222 3.57493,-2.08922 4.68978,-3.66937 0,0.13936 0,0.37201 -0.046,0.65073 v 0 c 0,0.0933 -0.0473,0.18542 -0.0933,0.23149 -0.13935,0.372 -0.23264,0.69679 0,1.20815 0.13936,0.32478 0.32479,0.51021 0.13936,0.97435 -0.32478,0.83614 -0.88221,1.39357 -1.62507,1.76558 -0.55742,0.32478 -1.25421,0.46414 -2.08921,0.55743 -1.06879,0.0472 -1.06879,0 -1.90378,0.6035 -1.06764,0.69678 -2.32185,1.11485 -3.76151,1.30028 -1.43964,0.18542 -3.01864,0.13936 -4.78307,-0.0933 0.18659,-0.41808 0.27872,-0.92829 0.27872,-1.39243 0,-0.18658 0,-0.23264 0.13821,-0.23264 z" id="path405" style="stroke-width:1.15171"></path>
<path fill="#ffcb05" d="m 143.59344,165.77988 c 1.94986,-0.69564 4.73701,-1.90379 6.9195,-3.48279 1.16094,-0.83614 2.18251,-1.76443 2.8793,-2.78599 0.46413,-0.13936 1.39357,-0.32479 1.67228,0.13935 0.23265,0.37201 0,1.06764 -0.18542,1.39242 -0.92943,1.951 -2.60057,3.43672 -4.83029,4.41222 -1.94986,0.88336 -4.31894,1.43964 -7.10493,1.71836 0.27756,-0.41807 0.5102,-0.88221 0.64956,-1.39357 z" id="path407" style="stroke-width:1.15171"></path>
<path fill="#ffcb05" d="m 133.37658,159.4178 c 0.51021,-0.79008 0.9755,-1.62507 1.48572,-2.41515 2.46121,-4.04021 4.87635,-8.03435 7.6635,-11.88914 v 0.0933 c 0.64957,-0.046 1.11371,0.13935 1.29913,0.60349 0.55744,1.207 0.0933,2.97258 -0.13934,4.22565 0.92828,-0.27872 1.99592,-0.69679 2.97256,-0.55744 -3.48278,2.83207 -6.22271,6.22272 -8.96264,10.03029 -1.39357,-0.23035 -2.87928,-0.18312 -4.31893,-0.091 z" id="path409" style="stroke-width:1.15171"></path>
<path fill="#ffcb05" d="m 147.49315,150.73387 c -0.0933,0.97551 -0.60349,2.08922 -0.88221,3.01865 1.25421,-0.27872 2.69385,-1.16093 3.85479,-1.16093 0.32593,0 0.41807,0.0461 0.46413,0.37085 0,0.88221 -0.5102,1.81165 -0.88221,2.60057 -3.57607,1.67114 -6.9195,4.13351 -9.89208,6.59472 0.46529,-1.30028 0.18659,-1.85771 -0.88221,-2.22971 2.5545,-3.48165 5.06294,-6.59357 8.21979,-9.19415 z" id="path411" style="stroke-width:1.15171"></path>
<path fill="#ffcb05" d="m 152.60216,156.16651 c 0.372,0.13936 0.46414,0.51137 0.18542,1.39357 -0.41806,1.30029 -1.62506,2.50729 -3.11077,3.57608 -2.09037,1.48571 -4.73701,2.60057 -6.59473,3.29736 -0.74285,-0.41807 -1.579,-0.64956 -2.41515,-0.74286 3.53002,-2.97257 7.6163,-5.94515 11.93523,-7.52415 z" id="path413" style="stroke-width:1.15171"></path>
<path fill="#ffcb05" d="m 129.47457,167.59152 c 0.69679,-2.22971 1.81164,-4.45829 3.01864,-6.64078 1.85772,-0.18543 3.90086,-0.32479 5.71136,0.13936 0.51136,0.13935 0.74285,0.18542 0.79008,0.18542 0,0.0472 -0.13936,0.18658 -0.32479,0.6035 -1.25421,3.06471 -6.31601,4.78422 -9.19529,5.7125 z" id="path415" style="stroke-width:1.15171"></path>
<path fill="#ffcb05" d="m 128.91714,170.14603 c 0.0461,-0.27872 0.0933,-0.60351 0.13936,-0.88222 2.97258,-0.92943 6.316,-2.08921 8.77721,-4.08628 1.39358,-0.27872 2.97258,-0.18543 4.31894,0.372 -1.81049,4.36385 -9.38072,4.55043 -13.23551,4.5965 z" id="path417" style="stroke-width:1.15171"></path>
<path fill="#ffcb05" d="m 128.77778,172.79267 c -0.046,-0.41808 -0.046,-0.79008 0,-1.207 3.34343,0 6.6408,-0.27872 9.24136,-1.11486 0.64957,-0.23265 1.25422,-0.41807 1.85772,-0.69563 -0.23265,0.60349 -0.74285,1.1137 -1.30029,1.4857 -3.01749,2.27465 -6.31485,1.71837 -9.79879,1.53179 z" id="path419" style="stroke-width:1.15171"></path>
<path fill="#ffcb05" d="m 130.032,177.4836 c -0.5102,-1.06764 -0.88222,-2.13643 -1.06879,-3.25129 1.76558,0.13936 3.57607,0.32594 5.34166,0.18543 -1.20816,1.20815 -2.6478,2.41515 -4.27287,3.06586 z" id="path421" style="stroke-width:1.15171"></path>
<path fill="#ffcb05" d="m 132.30779,180.73375 c -0.6035,-0.64958 -1.11486,-1.34636 -1.53294,-1.99708 1.39358,-0.6035 2.64664,-1.53294 3.76151,-2.5545 1.11486,0.60349 2.22971,0.92943 3.29735,1.30028 1.02158,0.32479 2.04315,0.64957 2.97258,1.16093 0.88221,0.46414 1.579,0.6035 1.02157,0.83614 -2.50728,1.30029 -6.78014,1.62623 -9.52007,1.25423 z" id="path423" style="stroke-width:1.15171"></path>
<path fill="#ffcb05" d="m 153.34501,172.7466 c 0.88222,-0.37201 1.62507,-1.02157 2.22972,-1.95101 3.3895,0.60351 6.73408,1.39358 9.98422,2.36908 2.55451,0.79008 5.06179,1.67229 7.38479,2.69271 -1.62621,0.32479 -3.29735,0.18658 -4.96964,-0.13936 -2.08922,-0.46413 -4.22565,-0.51021 -6.36208,-0.55743 -1.579,0 -3.38949,-0.64957 -5.109,-1.30028 -0.92829,-0.32478 -2.36793,-0.64957 -3.15801,-1.11371 z" id="path425" style="stroke-width:1.15171"></path>
<path fill="#ffcb05" d="m 150.00158,176.78681 c 1.34636,-0.46413 2.50728,-1.39241 3.62215,-2.32185 1.85771,0.51136 3.66937,1.11486 5.47986,1.76442 2.73993,1.02158 5.43379,2.27579 7.80172,4.04022 -3.2513,0.97551 -6.6408,-0.27872 -9.7988,-1.02157 -2.22971,-0.51136 -4.55157,-1.43964 -6.78014,-2.32186 v 0 c -0.0921,-0.0472 -0.18543,-0.0933 -0.32479,-0.13936 z" id="path427" style="stroke-width:1.15171"></path>
<path fill="#ffcb05" d="m 146.37944,179.85153 c 0.55743,-0.13936 1.06879,-0.32478 1.48686,-0.64957 0.41808,-0.372 0.69679,-0.79008 0.69679,-1.34635 0.41808,0.18543 0.83615,0.32478 1.207,0.5102 v 0 c 2.36908,0.88222 4.737,1.85772 7.15099,2.41515 1.71837,0.372 3.39066,0.92943 4.96966,1.62622 -0.83615,0.2315 -1.67229,0.37085 -2.55451,0.46414 -3.71543,0.32479 -4.64486,-0.46414 -7.89501,-1.207 -1.71835,-0.37315 -3.39064,-1.06993 -5.06178,-1.81279 z" id="path429" style="stroke-width:1.15171"></path>
<path fill="#ffcb05" d="m 131.65707,147.62194 c 10.0775,-14.53579 24.42788,-24.2413 36.78117,-36.68673 4.55157,-4.59764 8.63785,-9.56729 11.56436,-15.045999 2.27579,-4.272864 1.99708,-8.034365 0.88222,-12.58594 -0.55743,-2.275789 -0.46414,-5.155079 0.60349,-6.130581 0.79008,-0.696787 1.95102,-0.04607 2.60058,0.557432 1.02157,0.974352 1.81049,2.461214 2.22972,3.482784 1.8105,4.225643 1.34635,8.82444 -0.372,13.374866 -2.18251,5.805788 -6.50143,11.471078 -10.91365,15.975438 -5.8058,5.94516 -12.91073,10.40229 -18.85473,16.25415 -8.96264,8.82329 -16.02266,18.6693 -22.57015,29.44359 -4.92243,8.08043 -9.98422,16.39351 -2.73993,25.03137 0.64957,0.74286 0.88336,0.83615 1.85772,0.92828 1.67228,0.18658 3.39064,0.0933 5.109,-0.18542 1.95101,-0.32479 3.94808,-0.88222 5.94515,-1.71836 2.36793,1.11486 4.737,2.22972 7.29151,2.83322 1.99707,0.46414 3.85479,1.20699 5.57314,2.22972 -2.32185,0.6035 -4.82914,1.02157 -7.43086,1.30029 -5.29443,0.60349 -11.65651,1.25421 -16.53286,-1.207 -2.08922,-1.06879 -3.94693,-2.55451 -5.52593,-4.36615 -1.11487,-1.30029 -2.27579,-2.69386 -3.90086,-3.62214 -1.16093,-0.69679 -2.36793,-1.02158 -3.52885,-1.02158 -0.0472,-0.046 -0.0933,-0.0933 -0.13936,-0.0933 0.13936,-0.0933 0.27872,-0.18657 0.372,-0.27871 0.51021,-0.41808 0.97551,-0.88221 1.34636,-1.43964 0.74285,-1.02157 1.20699,-2.13528 1.25307,-3.158 0.13935,-1.3003 -0.27872,-2.36908 -1.207,-3.06587 -0.37201,-0.27872 -0.79008,-0.41807 -1.25422,-0.51021 2.32186,-1.30029 4.45829,-2.73993 6.26878,-4.50436 2.69386,-2.73993 4.64371,-6.22271 5.20114,-11.33172 l 3.71543,0.46414 c -1.20929,-1.62622 -2.41629,-3.25129 -3.62444,-4.92358 z" id="path431" style="stroke-width:1.15171"></path>
<path fill="#ffcb05" d="m 156.78173,162.90174 c 2.87929,-0.60349 5.8058,-1.48687 8.82444,-2.69386 1.53294,-0.64957 3.11193,-1.34636 4.68978,-2.18365 7.75565,-0.37086 16.20809,-1.76443 23.91767,-0.55628 -4.92243,6.31601 -32.36896,6.64079 -37.5701,6.9195 0,-0.0933 0.0472,-0.18543 0.0933,-0.32479 v 0 c 0.091,-0.41806 0.091,-0.83729 0.0449,-1.16092 z" id="path433" style="stroke-width:1.15171"></path>
<path fill="#ffcb05" d="m 172.94374,156.49245 c 1.207,-0.74286 2.36794,-1.48687 3.57493,-2.36793 4.64371,-1.67229 9.00986,-3.57607 12.8635,-6.08336 1.25422,-0.83614 7.57023,-5.38772 8.12765,-4.78307 0.37086,0.372 -0.41806,2.04314 -0.60349,2.36792 -1.06764,2.04315 -2.83207,3.8548 -5.01573,5.47986 -2.0892,1.57901 -5.10785,3.20407 -7.94107,4.55158 -3.66937,0.18428 -7.2915,0.60235 -11.00579,0.835 z" id="path435" style="stroke-width:1.15171"></path>
<path fill="#ffcb05" d="m 188.54603,162.15773 c 0.79008,0.23265 1.53293,0.51137 2.22972,0.88221 -3.43557,1.43965 -7.98714,2.55451 -13.51307,3.34343 -5.99122,0.83615 -13.09615,1.34636 -21.22381,1.53294 0.46415,-0.6035 0.83615,-1.34635 0.88221,-1.99707 10.54165,-0.69564 21.45531,-0.60351 31.62495,-3.76151 z" id="path437" style="stroke-width:1.15171"></path>
<path fill="#ffcb05" d="m 156.31759,169.44924 c 5.99122,-0.13936 11.42386,-0.46414 16.25415,-0.92828 1.30028,-0.13936 1.48571,-0.13936 2.786,0.0933 1.81165,0.32479 3.71543,0.69679 5.47986,0.55744 0.79007,-0.0472 1.43964,0.0933 2.08921,0.27871 -1.16093,0.74401 -3.01865,1.25422 -5.572,1.53293 -3.25129,0.41807 -8.31307,0.41807 -13.42093,0.0933 -2.46122,-0.64957 -4.9685,-1.16094 -7.47693,-1.62623 -0.0461,-0.001 -0.0933,-0.001 -0.13936,-0.001 z" id="path439" style="stroke-width:1.15171"></path>
</svg>