


<svg width="209.77092mm" height="223.19739mm" viewBox="0 0 209.77092 223.19739" version="1.1" id="svg1881" xmlns="http://www.w3.org/2000/svg">
  <defs id="defs1878"></defs>
  <g id="layer1" transform="translate(0.1429985,-0.37926561)">
    <g transform="matrix(3.6297568,0,0,3.6297568,2.8570015,-38.715024)" id="g767">
      <g id="g765">
        <path fill="#d1d1d1" d="M 56.139,26.5 54.284,24.115 C 54.28,24.108 44.475,11.597 44.475,11.597 l -1.9,0.757 c 0,0 -0.833,0.333 -0.862,0.343 -0.056,0.027 -5.735,2.208 -13.653,2.253 -7.887,-0.045 -13.579,-2.229 -13.628,-2.253 0.01,0.005 -0.854,-0.341 -0.854,-0.341 L 11.684,11.598 0,26.491 1.808,28.925 c 0.016,0.028 3.189,4.521 5.445,14.15 L 7.227,42.931 C 9.8,57.442 22.07,67.163 25.768,69.797 l 2.305,1.638 2.301,-1.638 C 34.077,67.162 46.346,57.442 48.938,42.866 l -0.033,0.143 c 2.248,-9.564 5.414,-14.063 5.452,-14.104 L 56.139,26.5" id="path629"></path>
        <path fill="#ffffff" d="M 42.725,15.24 C 42.658,15.266 36.621,17.631 28.072,17.685 19.53,17.63 13.487,15.264 13.428,15.24 l -0.864,-0.344 -9.123,11.642 0.563,0.759 c 0.036,0.049 3.485,4.791 5.915,15.155 2.381,13.482 13.944,22.633 17.437,25.114 l 0.717,0.514 0.721,-0.514 C 32.282,65.088 43.838,55.941 46.247,42.384 48.656,32.087 52.105,27.345 52.15,27.297 l 0.563,-0.759 -0.588,-0.744 -8.536,-10.899 z" id="path631"></path>
        <path d="m 51.152,26.558 c 0,0 -3.597,4.804 -6.128,15.617 C 42.584,55.902 30.113,65.104 28.072,66.556 26.034,65.104 13.56,55.897 11.116,42.175 8.59,31.362 4.996,26.558 4.996,26.558 l 7.972,-10.167 c 0,0 6.185,2.481 15.103,2.535 8.915,-0.054 15.111,-2.535 15.111,-2.535 z" id="path633"></path>
        <g id="g639">
          <path fill="#fb342e" d="m 41.883,31.836 c -0.814,0.865 -2.081,2.384 -3.169,4.48 -1.096,2.25 -1.862,4.713 -1.988,7.859 -4.613,-4.53 -3.14,-9.535 -3.14,-9.535 0,0 -4.237,0.497 -6.961,0.109 0,0 -0.318,4.293 4.202,7.552 7.024,5.044 6.787,8.726 5.465,11.536 -1.079,2.318 -5.266,6.3 -8.21,8.744 0,0 -13.188,-9.878 -14.505,-22.243 0,0 2.01,4.48 7.687,6.571 0,0 6.532,2.392 5.584,7.466 5.482,-3.753 3.314,-9.089 -2.156,-12.406 -4.254,-2.585 -6.469,-6.07 -7.655,-8.934 0,0 -1.005,-2 -2.425,-2.39 0.76,0.052 1.968,0.565 2.559,0.709 0.906,0.259 1.86,0.464 1.86,0.464 11.083,1.982 19.536,0.299 22.536,-0.474 0.76,-0.197 1.408,-0.45 1.408,-0.45 0,0 -0.575,0.403 -1.092,0.942 z" id="path635"></path>
          <path fill="#faa74a" d="m 21.939,42.833 c -4.071,-2.673 -5.134,-4.346 -6.537,-7.535 -1.147,-2.592 -2.711,-4.81 -6.647,-6.644 2.261,1.847 2.731,3.008 3.829,5.859 0,0.013 1.021,2.958 2.267,4.614 1.099,1.512 2.676,2.853 4.834,3.816 1.399,0.625 4.278,1.774 5.971,2.809 0,0 -2.51,-2.231 -3.717,-2.919 z" id="path637"></path>
        </g>
        <g id="g653">
          <path fill="#ffffff" d="m 20.32,20.874 0.172,0.037 c 0.162,0.031 0.19,0.06 0.128,0.359 -0.055,0.232 -0.102,0.274 -0.258,0.239 L 20.19,21.473 Z m -0.211,0.986 0.159,0.031 c 0.656,0.142 0.897,0.078 0.97,-0.3 l 0.083,-0.402 c 0.083,-0.38 -0.105,-0.53 -0.764,-0.669 l -0.84,-0.174 -0.44,2.122 0.678,0.142 z" id="path641"></path>
          <path fill="#ffffff" d="m 23.255,21.465 c 0.015,-0.091 0.072,-0.118 0.213,-0.095 0.139,0.015 0.196,0.061 0.187,0.139 l -0.162,1.215 c -0.003,0.089 -0.071,0.111 -0.212,0.094 -0.135,-0.018 -0.196,-0.058 -0.18,-0.139 z m -0.844,1.127 c -0.045,0.401 0.216,0.539 0.821,0.621 0.6,0.074 0.886,0.005 0.948,-0.397 l 0.153,-1.219 c 0.06,-0.404 -0.216,-0.54 -0.814,-0.618 -0.601,-0.076 -0.9,-0.008 -0.947,0.392 z" id="path643"></path>
          <path fill="#ffffff" d="m 25.729,21.242 0.687,0.024 -0.04,0.838 0.404,0.01 0.025,-0.833 0.698,0.026 -0.073,2.158 -0.696,-0.019 0.032,-0.934 -0.39,-0.013 -0.035,0.926 -0.695,-0.016 z" id="path645"></path>
          <path fill="#ffffff" d="m 29.771,21.672 h 0.016 l 0.162,1.024 -0.336,0.004 z m -0.291,1.805 0.068,-0.383 0.476,-0.005 0.09,0.377 0.713,-0.01 -0.613,-2.154 -0.917,0.015 -0.523,2.176 z" id="path647"></path>
          <path fill="#ffffff" d="m 33.442,21.042 0.649,-0.082 0.245,2.157 -0.853,0.099 -0.771,-1.435 h -0.008 l 0.171,1.501 -0.65,0.073 -0.245,-2.148 0.869,-0.1 0.755,1.447 h 0.015 z" id="path649"></path>
          <path fill="#ffffff" d="m 37.584,22.519 -0.444,0.09 -0.125,-0.14 c -0.109,0.163 -0.213,0.25 -0.509,0.311 -0.391,0.076 -0.682,-0.02 -0.742,-0.29 L 35.51,21.207 c -0.073,-0.354 0.138,-0.55 0.748,-0.676 0.661,-0.13 0.923,-0.029 0.995,0.323 l 0.027,0.13 -0.677,0.135 -0.023,-0.128 c -0.016,-0.08 -0.083,-0.098 -0.221,-0.072 -0.14,0.023 -0.192,0.069 -0.176,0.151 l 0.247,1.202 c 0.014,0.084 0.077,0.105 0.22,0.078 0.139,-0.029 0.193,-0.075 0.174,-0.158 l -0.097,-0.45 -0.199,0.04 -0.075,-0.389 0.871,-0.175 z" id="path651"></path>
        </g>
        <path fill="#faa74a" d="m 47.245,29.201 c 0,0 -8.618,6.885 -8.584,18.928 0,0 2.255,-1.905 3.789,-9.032 -0.001,10e-4 1.668,-6.772 4.795,-9.896 z" id="path655"></path>
        <g id="g703">
          <g id="g675">
            <g id="g673">
              <path fill="#d1d1d1" d="m 20.159,24.214 -0.024,0.05 -0.051,0.215 0.075,0.024 c 0.408,0.116 0.524,0.15 0.516,0.326 -0.003,0.045 -0.01,0.098 -0.03,0.166 l -0.04,0.156 -0.039,0.164 -0.999,3.982 3.348,0.461 0.069,-0.536 -0.12,-0.011 -0.899,-0.086 -0.644,-0.083 c -0.156,-0.027 -0.27,-0.04 -0.306,-0.083 -0.004,-0.013 -0.004,-0.037 -0.004,-0.074 0,-0.046 0.004,-0.118 0.029,-0.193 0,0 0.345,-1.46 0.406,-1.713 0.089,0.014 0.583,0.076 0.583,0.076 l 0.929,0.13 0.106,-0.478 -0.943,-0.115 c 0,0 -0.409,-0.055 -0.563,-0.075 0.025,-0.11 0.321,-1.396 0.321,-1.396 0.059,-0.222 0.059,-0.232 0.392,-0.191 l 0.375,0.049 0.979,0.156 0.122,0.022 0.07,-0.484 -0.114,-0.014 z" id="path657"></path>
              <path fill="#d1d1d1" d="m 26.325,25.333 0.377,0.017 0.982,0.077 c 0.028,0 0.143,0.011 0.143,0.011 v -0.483 l -3.736,-0.172 -0.01,0.054 -0.03,0.223 0.076,0.014 c 0.541,0.104 0.595,0.12 0.586,0.463 0,-0.01 -0.021,0.153 -0.021,0.153 l -0.013,0.167 -0.334,4.054 3.433,0.233 0.003,-0.571 c 0,0 -0.145,0.016 -0.15,0.016 L 26.728,29.55 26.034,29.487 c -0.273,-0.02 -0.316,-0.026 -0.316,-0.19 0,-0.038 0.013,-0.081 0.013,-0.135 0,0 0.098,-1.467 0.111,-1.738 0.108,0 0.595,0.016 0.595,0.016 l 0.964,0.049 0.018,-0.492 -0.959,-0.026 c 0,0 -0.424,-0.012 -0.583,-0.014 0.014,-0.115 0.093,-1.405 0.093,-1.405 0.021,-0.228 0.021,-0.237 0.355,-0.219 z" id="path659"></path>
              <path fill="#d1d1d1" d="m 36.138,29.167 -0.883,0.143 -0.642,0.076 c -0.36,0.042 -0.367,0.042 -0.427,-0.269 0,0 -0.265,-1.509 -0.312,-1.795 0.103,-0.012 0.572,-0.05 0.572,-0.05 l 0.957,-0.08 -0.097,-0.481 -0.935,0.093 c 0,0 -0.436,0.037 -0.583,0.051 -0.019,-0.1 -0.244,-1.413 -0.244,-1.413 -0.018,-0.045 -0.018,-0.093 -0.021,-0.128 0,-0.03 0.003,-0.048 0.021,-0.069 0.021,-0.037 0.133,-0.051 0.285,-0.062 l 0.376,-0.03 0.994,-0.06 h 0.132 l -0.132,-0.476 -0.047,0.006 -3.65,0.311 0.041,0.274 0.072,0.003 c 0.565,0.038 0.625,0.039 0.68,0.38 l 0.036,0.16 c 0,0.011 0.031,0.172 0.031,0.172 l 0.672,4.148 3.337,-0.406 -0.124,-0.521 z" id="path661"></path>
              <path fill="#d1d1d1" d="m 31.629,29.637 -1.28,0.014 c -0.038,0 -0.061,-0.005 -0.074,-0.023 -0.019,-0.022 -0.018,-0.067 -0.018,-0.084 0,-0.012 -0.088,-4.491 -0.088,-4.491 v -0.058 h -0.055 -0.047 l -1.831,-0.024 -0.015,0.222 0.072,0.006 c 0.538,0.088 0.597,0.107 0.616,0.382 l 0.015,0.125 -0.034,4.494 3.564,-0.054 -0.008,-0.521 H 32.33 Z" id="path663"></path>
              <path fill="#d1d1d1" d="m 45.759,25.525 c -0.691,-1.004 -1.786,-1.14 -2.763,-1.261 h -0.02 C 42.232,24.171 41.52,24.086 41.24,23.6 c -0.109,-0.188 -0.141,-0.353 -0.09,-0.482 0.072,-0.191 0.294,-0.283 0.382,-0.305 0.198,-0.061 0.419,-0.097 0.668,-0.121 0.286,-0.011 0.609,0.014 0.947,0.292 -0.01,-0.017 0.087,0.07 0.087,0.07 l 0.021,0.026 0.03,-0.013 0.276,-0.083 -0.737,-1.015 h -0.031 l -0.075,0.011 c -0.239,0.027 -0.798,0.092 -1.339,0.248 -0.689,0.204 -1.148,0.533 -1.306,0.952 -0.133,0.312 -0.093,0.658 0.11,1.027 0.52,0.957 1.562,1.096 2.591,1.233 0.838,0.11 1.598,0.21 1.983,0.815 0.208,0.307 0.28,0.577 0.208,0.792 -0.068,0.214 -0.263,0.385 -0.575,0.498 -0.669,0.246 -1.557,0.139 -2.023,0.054 l -0.252,-0.047 0.611,1.124 0.181,-0.012 c 0.338,-0.035 1.093,-0.11 1.746,-0.346 0.576,-0.219 1.302,-0.618 1.487,-1.293 0.131,-0.445 0.003,-0.945 -0.381,-1.5 z" id="path665"></path>
              <path fill="#d1d1d1" d="m 19.83,24.366 0.094,-0.334 -3.711,-0.833 -0.014,0.037 -0.212,0.369 1.054,0.253 c 0,0 0.159,0.037 0.251,0.057 -0.043,0.118 -1.614,3.855 -1.614,3.855 l -0.589,1.441 0.25,-0.138 c 0.163,-0.071 0.505,-0.267 0.783,-0.455 0,0 -0.011,0 -0.016,0 0.031,-0.012 0.078,-0.042 0.208,-0.145 l 0.043,-0.027 c 0.166,-0.128 0.317,-0.27 0.437,-0.418 0.005,0 0.209,-0.283 0.209,-0.283 0.004,-0.017 0.024,-0.033 0.024,-0.033 l 0.191,-0.366 c 0,0 1.123,-2.781 1.271,-3.163 0.065,0.016 0.25,0.055 0.25,0.055 l 1.063,0.234 z" id="path667"></path>
              <path fill="#d1d1d1" d="m 39.635,26.431 c 0.446,-0.206 0.662,-0.501 0.642,-0.894 -0.004,-0.147 -0.044,-0.31 -0.109,-0.477 -0.49,-1.292 -2.038,-1.021 -2.55,-0.927 l -2.037,0.362 0.016,0.063 0.075,0.228 0.059,-0.003 c 0.488,-0.013 0.592,-0.009 0.682,0.183 0,0.005 0.026,0.068 0.026,0.068 0,0 0.004,0.01 1.836,5.533 l 0.037,0.124 0.134,-0.221 c 0,0 0.215,-0.383 0.343,-0.716 0.005,-0.009 0.061,-0.202 0.061,-0.202 l 0.021,-0.042 c 0.05,-0.185 0.078,-0.365 0.078,-0.55 l -0.016,-0.332 c 0,-0.014 -0.012,-0.034 -0.012,-0.034 L 38.84,28.192 c 0,-0.004 -0.013,-0.017 -0.507,-1.457 0.038,-0.014 0.075,-0.017 0.075,-0.017 0.048,0.039 2.245,2.067 2.245,2.067 l 1.278,-0.243 -0.15,-0.152 c 0,0 -2.028,-1.858 -2.146,-1.959 z m -1.474,-1.806 c 0.407,-0.073 0.7,0.149 0.899,0.69 0.035,0.101 0.057,0.201 0.065,0.291 0,0.12 -0.02,0.234 -0.073,0.327 -0.078,0.142 -0.212,0.229 -0.392,0.264 0,0 -0.398,0.074 -0.489,0.09 -0.027,-0.09 -0.436,-1.291 -0.436,-1.291 -0.011,-0.018 -0.019,-0.032 -0.019,-0.055 0,-0.154 0.08,-0.251 0.445,-0.316 z" id="path669"></path>
              <path fill="#d1d1d1" d="m 16.199,22.377 -0.113,-0.061 c -0.185,-0.104 -0.681,-0.38 -1.245,-0.558 -1.217,-0.388 -2.27,-0.09 -2.819,0.804 -0.595,0.956 -0.042,1.629 0.493,2.282 0.432,0.531 0.825,1.024 0.5,1.613 -0.441,0.77 -1.058,0.747 -1.501,0.59 -0.635,-0.221 -1.069,-0.755 -1.277,-1.062 l -0.112,-0.157 -0.605,0.995 0.13,0.094 c 0.203,0.148 0.728,0.523 1.353,0.748 0.879,0.309 2.484,0.58 3.39,-1.062 0.577,-1.066 -0.062,-1.833 -0.586,-2.438 l -0.009,-0.011 c -0.423,-0.497 -0.783,-0.928 -0.49,-1.424 0.36,-0.608 0.904,-0.489 1.057,-0.442 0.205,0.065 0.403,0.159 0.604,0.285 0.202,0.145 0.411,0.33 0.353,0.74 0.004,-0.017 -0.027,0.098 -0.027,0.098 l -0.003,0.048 0.042,0.013 0.256,0.085 z" id="path671"></path>
            </g>
          </g>
          <g id="g701">
            <path fill="#707070" d="m 20.768,28.926 c -0.025,-0.111 0.014,-0.212 0.014,-0.212 l 0.235,-1.004 0.465,-1.936 0.163,-0.683 c 0,0 0.014,-0.102 0.083,-0.187 0.056,-0.083 0.147,-0.124 0.147,-0.124 0,0 -0.188,-0.01 -0.281,0.083 -0.074,0.073 -0.095,0.211 -0.095,0.211 l -0.168,0.678 -0.465,1.934 -0.244,1.007 c 0,0 -0.049,0.147 -0.016,0.244 0.052,0.126 0.247,0.166 0.247,0.166 0,0 -0.072,-0.069 -0.085,-0.177 z" id="path677"></path>
            <path fill="#707070" d="m 25.495,29.408 c -0.039,-0.104 -0.012,-0.216 -0.012,-0.216 l 0.077,-1.021 0.156,-1.967 0.044,-0.68 c 0,0 0,-0.096 0.043,-0.189 0.051,-0.087 0.146,-0.139 0.146,-0.139 0,0 -0.198,0 -0.281,0.103 -0.062,0.077 -0.068,0.219 -0.068,0.219 l -0.04,0.68 -0.161,1.962 -0.082,1.026 c 0,0 -0.024,0.157 0.029,0.252 0.066,0.119 0.271,0.138 0.271,0.138 0,0 -0.083,-0.062 -0.122,-0.168 z" id="path679"></path>
            <path fill="#707070" d="m 34.019,29.418 c -0.064,-0.101 -0.077,-0.207 -0.077,-0.207 l -0.18,-1.1 -0.343,-1.952 -0.124,-0.69 c 0,0 -0.024,-0.099 0,-0.195 0.019,-0.097 0.101,-0.152 0.101,-0.152 0,0 -0.195,0.028 -0.248,0.134 -0.037,0.086 -0.004,0.224 -0.004,0.224 l 0.127,0.691 0.334,1.953 0.184,1.106 c 0,0 0.017,0.155 0.095,0.238 0.102,0.103 0.302,0.096 0.302,0.096 0,0 -0.1,-0.05 -0.167,-0.146 z" id="path681"></path>
            <g id="g687">
              <path fill="#707070" d="m 45.146,25.178 c 0.63,0.497 1.308,1.782 0.079,2.604 0.534,-0.749 0.761,-1.518 -0.079,-2.604 z" id="path683"></path>
              <path fill="#707070" d="m 41.428,24.118 c -0.415,-0.387 -0.984,-1.029 -0.051,-1.485 -0.647,0.096 -1.141,0.858 0.051,1.485 z" id="path685"></path>
            </g>
            <path fill="#707070" d="m 15.945,28.412 c 0.633,-0.424 0.841,-0.693 0.999,-1 0.166,-0.302 1.35,-3.341 1.35,-3.341 l -0.135,-0.032 -1.207,2.994 c -0.182,0.403 -0.53,0.988 -1.007,1.379 z" id="path689"></path>
            <path fill="#707070" d="m 37.279,24.821 c -0.027,0.092 0.041,0.223 0.041,0.223 l 0.002,0.034 v 0 l 1.028,2.973 c 0.136,0.422 0.24,1.074 0.115,1.61 0.233,-0.626 0.225,-0.946 0.161,-1.271 -0.075,-0.333 -1.161,-3.337 -1.161,-3.337 v 0 l -0.009,-0.03 c 0,0 -0.037,-0.096 -0.029,-0.2 0,-0.09 0.075,-0.154 0.075,-0.154 0,0 -0.182,0.042 -0.223,0.152 z" id="path691"></path>
            <path fill="#707070" d="m 14.341,26.004 c -0.084,0.683 -0.943,1.871 -2.514,1.653 1.058,-0.137 1.967,-0.478 2.514,-1.653 z" id="path693"></path>
            <path fill="#707070" d="m 12.924,23.19 c 0.104,-0.509 0.38,-1.293 1.503,-1.13 -0.559,-0.278 -1.67,0.024 -1.503,1.13 z" id="path695"></path>
            <path fill="#707070" d="m 39.264,26.385 c 0.748,-0.349 0.701,-0.84 0.701,-0.84 -0.098,0.442 -0.693,0.728 -0.929,0.817 l 2.213,2.092 0.179,-0.036 z" id="path697"></path>
            <path fill="#707070" d="m 29.749,25.375 0.058,4.108 c 0,0 -0.017,0.164 0.051,0.254 0.073,0.115 0.284,0.115 0.284,0.115 0,0 -0.088,-0.056 -0.136,-0.157 -0.047,-0.107 -0.039,-0.221 -0.039,-0.221 L 29.913,25.37 Z" id="path699"></path>
          </g>
        </g>
        <g id="g715">
          <path d="m 8.1780005,0 0.051,4.3000002 L 4.0599999,3.0309999 6.9000001,2.599 Z" fill="#ffe06a" id="path705" style="display:none"></path>
          <path d="M 12.354,3.0309999 8.198,4.289 8.1780005,0 9.4680004,2.619 Z" fill="#e9d44f" id="path707" style="display:none"></path>
          <path d="m 10.756,7.947 -2.558,-3.658 4.156,-1.2580001 -2.103,2.03 z" fill="#ffe293" id="path709" style="display:none"></path>
          <path d="m 5.5539999,7.9580002 2.6240006,-3.711 2.5579995,3.691 -2.5480003,-1.381 z" fill="#ead207" id="path711" style="display:none"></path>
          <path d="M 4.0110002,3.02 8.198,4.289 5.5539999,7.9580002 6.0970001,5.0609999 Z" fill="#ffde2f" id="path713" style="display:none"></path>
        </g>
        <g id="g727">
          <path d="m 18.287001,0 0.052,4.3000002 L 14.167,3.0309999 17.01,2.599 Z" fill="#ffe06a" id="path717" style="display:none"></path>
          <path d="M 22.462999,3.0309999 18.308001,4.289 18.287001,0 19.573999,2.619 Z" fill="#e9d44f" id="path719" style="display:none"></path>
          <path d="m 20.864,7.947 -2.555999,-3.658 4.154998,-1.2580001 -2.102998,2.03 z" fill="#ffe293" id="path721" style="display:none"></path>
          <path d="m 15.66,7.9580002 2.627001,-3.711 2.555999,3.691 -2.548999,-1.381 z" fill="#ead207" id="path723" style="display:none"></path>
          <path d="M 14.122,3.02 18.308001,4.289 15.66,7.9580002 16.204,5.0609999 Z" fill="#ffde2f" id="path725" style="display:none"></path>
        </g>
        <g id="g739">
          <path d="m 28.396999,0 0.05,4.3000002 L 24.275,3.0309999 27.118999,2.599 Z" fill="#ffe06a" id="path729" style="display:none"></path>
          <path d="M 32.571999,3.0309999 28.415001,4.289 28.396999,0 29.683001,2.619 Z" fill="#e9d44f" id="path731" style="display:none"></path>
          <path d="m 30.973,7.947 -2.557999,-3.658 4.156998,-1.2580001 -2.105999,2.03 z" fill="#ffe293" id="path733" style="display:none"></path>
          <path d="m 25.77,7.9580002 2.626999,-3.711 2.557001,3.691 -2.550001,-1.381 z" fill="#ead207" id="path735" style="display:none"></path>
          <path d="m 24.231001,3.02 4.184,1.269 L 25.77,7.9580002 26.313,5.0609999 Z" fill="#ffde2f" id="path737" style="display:none"></path>
        </g>
        <g id="g751">
          <path d="m 38.501999,0 0.055,4.3000002 -4.173,-1.2690003 2.84,-0.4319999 z" fill="#ffe06a" id="path741" style="display:none"></path>
          <path d="M 42.681999,3.0309999 38.521999,4.289 38.501999,0 39.791,2.619 Z" fill="#e9d44f" id="path743" style="display:none"></path>
          <path d="m 41.080002,7.947 -2.558003,-3.658 4.16,-1.2580001 -2.104999,2.03 z" fill="#ffe293" id="path745" style="display:none"></path>
          <path d="m 35.875999,7.9580002 2.626,-3.711 2.559002,3.691 -2.549,-1.381 z" fill="#ead207" id="path747" style="display:none"></path>
          <path d="m 34.338001,3.02 4.183998,1.269 -2.646,3.6690002 0.543,-2.8970003 z" fill="#ffde2f" id="path749" style="display:none"></path>
        </g>
        <g id="g763">
          <path d="m 48.582001,0 0.055,4.3000002 -4.173,-1.2690003 2.84,-0.4319999 z" fill="#ffe06a" id="path753" style="display:none"></path>
          <path d="M 52.762001,3.0309999 48.602001,4.289 48.582001,0 49.870998,2.619 Z" fill="#e9d44f" id="path755" style="display:none"></path>
          <path d="m 51.16,7.947 -2.557999,-3.658 4.16,-1.2580001 -2.105,2.03 z" fill="#ffe293" id="path757" style="display:none"></path>
          <path d="m 45.955002,7.9580002 2.626999,-3.711 2.556999,3.691 -2.549,-1.381 z" fill="#ead207" id="path759" style="display:none"></path>
          <path d="M 44.417,3.02 48.602001,4.289 45.955002,7.9580002 46.5,5.0609999 Z" fill="#ffde2f" id="path761" style="display:none"></path>
        </g>
      </g>
    </g>
  </g>
</svg>
