
<svg xmlns="http://www.w3.org/2000/svg" version="1.1" width="553.99518pt" height="525pt" viewBox="0 0 553.99518 524.99998" id="svg1082">
  
  <defs id="defs1086">
    <clipPath id="cp1">
      <path transform="matrix(1,0,0,-1,0,751.181)" d="m 1032.645,92.299 h 146.405 v 167.23 h -146.405 z" id="path65"></path>
    </clipPath>
    <clipPath id="cp3">
      <path transform="matrix(1,0,0,-1,0,751.181)" d="M 0,0 H 1247.244 V 751.181 H 0 Z" id="path77"></path>
    </clipPath>
    <clipPath id="cp4">
      <path transform="matrix(1,0,0,-1,0,751.181)" d="M 0,0 H 1247.244 V 751.181 H 0 Z" id="path96"></path>
    </clipPath>
    <clipPath id="cp5">
      <path transform="matrix(1,0,0,-1,0,751.181)" d="M 0,0 H 1247.244 V 751.181 H 0 Z" id="path177"></path>
    </clipPath>
    <clipPath id="cp6">
      <path transform="matrix(1,0,0,-1,0,751.181)" d="M 0,0 H 1247.244 V 751.181 H 0 Z" id="path206"></path>
    </clipPath>
    <clipPath id="cp7">
      <path transform="matrix(1,0,0,-1,0,751.181)" d="M 0,0 H 1247.244 V 751.181 H 0 Z" id="path407"></path>
    </clipPath>
    <clipPath id="cp8">
      <path transform="matrix(1,0,0,-1,0,751.181)" d="M 0,0 H 1247.244 V 751.181 H 0 Z" id="path586"></path>
    </clipPath>
    <clipPath id="cp9">
      <path transform="matrix(1,0,0,-1,0,751.181)" d="M 0,0 H 1247.244 V 751.181 H 0 Z" id="path869"></path>
    </clipPath>
  </defs>
  
  <g id="g2291" transform="matrix(4.9717321,0,0,4.9717321,-1951.5381,-2135.6753)">
    <g id="g2241">
      <path d="m 502.5428,448.51264 c -0.949,-0.533 -2.128,-0.46 -3.004,0.186 l -6.895,5.089 c -4.481,-6.947 -10.56,-12.788 -17.7,-16.982 -8.064,-4.738 -17.298,-7.242 -26.702,-7.242 -9.404,0 -18.638,2.504 -26.703,7.242 -7.139,4.194 -13.218,10.035 -17.699,16.982 l -6.895,-5.089 c -0.876,-0.647 -2.055,-0.72 -3.004,-0.186 -0.949,0.533 -1.5,1.579 -1.403,2.663 l 0.249,2.773 c 0.498,5.568 1.8,11.319 3.871,17.104 -0.806,3.696 -1.215,7.497 -1.215,11.309 0,14.103 5.492,27.362 15.465,37.335 9.972,9.972 23.231,15.464 37.334,15.464 14.103,0 27.362,-5.492 37.334,-15.464 9.972,-9.973 15.464,-23.232 15.464,-37.335 0,-3.813 -0.408,-7.614 -1.214,-11.309 2.07,-5.784 3.372,-11.535 3.871,-17.104 l 0.248,-2.773 c 0.097,-1.084 -0.453,-2.129 -1.402,-2.663" fill="#e60039" id="path169"></path>
      <path d="m 498.8949,482.36213 c 0,27.975 -22.678,50.654 -50.653,50.654 -27.976,0 -50.654,-22.679 -50.654,-50.654 0,-27.975 22.678,-50.653 50.654,-50.653 27.975,0 50.653,22.678 50.653,50.653" fill="#00125e" id="path171"></path>
      <path d="m 433.4064,518.1646 1.013,-1.041 -3.888,-1.882 -3.61,7.459 3.475,1.682 1.014,-1.041 -2.648,-1.281 0.943,-1.947 1.188,0.576 1.014,-1.041 -1.602,-0.776 0.866,-1.789 z" fill="#ffffff" id="path175"></path>
      <g clip-path="url(#cp5)" id="g202">
        <path transform="matrix(1,0,0,-1,441.3838,519.06137)" d="M 0,0 -3.012,0.692 C -3.341,0.768 -3.669,0.563 -3.745,0.233 l -1.582,-6.884 c -0.076,-0.329 0.129,-0.657 0.458,-0.732 l 3.013,-0.693 c 0.329,-0.076 0.657,0.13 0.732,0.459 l 0.853,3.707 -2.04,-0.18 -0.309,-1.344 0.596,0.053 -0.254,-1.105 -0.092,-0.057 -1.368,0.314 -0.057,0.092 1.205,5.24 0.091,0.057 1.368,-0.314 0.057,-0.092 -0.341,-1.487 1.446,0.138 0.428,1.862 C 0.535,-0.404 0.329,-0.076 0,0" fill="#ffffff" id="path180"></path>
        <path transform="matrix(1,0,0,-1,449.843,519.6649)" d="m 0,0 h -3.702 v -8.286 h 1.378 v 2.72 h 1.557 v -2.72 h 1.378 v 7.675 C 0.611,-0.274 0.338,0 0,0 m -0.767,-4.188 h -1.557 v 2.81 h 1.48 l 0.077,-0.077 z" fill="#ffffff" id="path182"></path>
        <path transform="matrix(1,0,0,-1,458.0127,518.3988)" d="M 0,0 -2.944,-0.662 C -3.273,-0.737 -3.48,-1.064 -3.406,-1.393 l 0.453,-2.014 c 0.355,-1.575 1.552,-1.62 2.135,-1.642 l 0.194,-0.011 c 0.101,-0.009 0.202,-0.013 0.299,-0.017 0.542,-0.021 0.687,-0.027 0.808,-0.565 l 0.268,-1.191 -0.057,-0.092 -1.298,-0.292 -0.091,0.058 -0.278,1.234 -1.244,-0.75 0.362,-1.61 c 0.074,-0.329 0.401,-0.536 0.731,-0.462 l 2.943,0.663 c 0.33,0.074 0.537,0.401 0.463,0.73 L 1.828,-5.34 c -0.353,1.571 -1.532,1.618 -2.107,1.641 -0.099,0.004 -0.191,0.008 -0.277,0.018 l -0.227,0.01 c -0.54,0.02 -0.703,0.026 -0.825,0.567 l -0.268,1.191 0.058,0.091 1.298,0.292 0.091,-0.058 0.258,-1.149 1.245,0.75 -0.343,1.525 C 0.657,-0.133 0.329,0.074 0,0" fill="#ffffff" id="path184"></path>
        <path transform="matrix(1,0,0,-1,425.1766,517.02658)" d="M 0,0 2.152,2.898 C 2.353,3.169 2.297,3.552 2.025,3.753 l -2.972,2.208 -4.94,-6.654 1.107,-0.821 2.059,2.773 1.866,-1.385 C -0.584,-0.328 -0.201,-0.271 0,0 M -0.604,1.499 -0.711,1.483 -1.899,2.366 -0.662,4.032 0.526,3.15 0.542,3.043 Z" fill="#ffffff" id="path186"></path>
        <path transform="matrix(1,0,0,-1,464.3205,516.08999)" d="M 0,0 2.802,-6.23 2.764,-6.331 1.484,-6.907 1.383,-6.869 -1.419,-0.638 -2.677,-1.204 0.471,-8.203 C 0.61,-8.511 0.972,-8.649 1.28,-8.51 l 2.819,1.267 c 0.308,0.139 0.445,0.501 0.306,0.809 L 1.257,0.565 Z" fill="#ffffff" id="path188"></path>
        <path transform="matrix(1,0,0,-1,471.7069,511.40504)" d="m 0,0 -2.427,-1.793 c -0.272,-0.2 -0.329,-0.583 -0.129,-0.855 l 1.227,-1.66 c 0.959,-1.299 2.073,-0.858 2.615,-0.643 l 0.182,0.069 c 0.096,0.032 0.19,0.069 0.281,0.105 0.504,0.198 0.639,0.252 0.967,-0.192 L 3.441,-5.951 3.425,-6.058 2.355,-6.848 2.248,-6.832 1.497,-5.815 0.661,-7.003 1.641,-8.33 c 0.2,-0.271 0.583,-0.329 0.855,-0.128 l 2.427,1.792 c 0.272,0.201 0.329,0.584 0.129,0.855 L 3.825,-4.15 C 2.868,-2.855 1.771,-3.287 1.235,-3.498 1.144,-3.534 1.057,-3.568 0.975,-3.593 L 0.763,-3.676 C 0.26,-3.875 0.108,-3.935 -0.22,-3.489 l -0.726,0.982 0.016,0.107 1.07,0.79 0.107,-0.016 0.7,-0.947 0.836,1.188 -0.928,1.256 C 0.654,0.143 0.272,0.201 0,0" fill="#ffffff" id="path190"></path>
        <path transform="matrix(1,0,0,-1,434.0815,443.81593)" d="M 0,0 2.348,0.924 2.287,1.081 H 2.288 L 1.56,2.93 1.565,2.933 C 1.428,3.281 1.039,3.453 0.69,3.325 l -0.005,0.008 -5.21,-2.051 0.376,-0.954 4.77,1.877 0.296,-0.751 -4.877,-1.919 0.373,-0.947 2.371,0.933 0.27,-0.684 -2.372,-0.933 0.376,-0.955 4.875,1.919 0.405,-1.027 1.06,0.417 -0.53,1.346 0.006,0.003 C 2.741,-0.056 2.372,0.114 2.031,0.008 L 2.03,0.009 2.02,0.005 1.983,-0.006 1.984,-0.01 0.269,-0.684 Z" fill="#ffffff" id="path192"></path>
        <path transform="matrix(1,0,0,-1,425.7948,445.28453)" d="M 0,0 0.002,0.001 -0.012,0.017 -0.016,0.024 -0.017,0.023 C -0.229,0.306 -0.619,0.38 -0.92,0.198 L -0.921,0.199 -0.94,0.187 -0.954,0.179 l 0.001,-0.001 -3.726,-2.556 -0.296,0.431 -0.929,-0.637 0.634,-0.924 10e-4,10e-4 0.242,-0.353 0.492,0.337 c -0.031,-0.383 0.052,-0.77 0.276,-1.096 0.54,-0.787 1.667,-0.951 2.519,-0.367 0.851,0.584 1.104,1.695 0.565,2.482 -0.224,0.326 -0.555,0.543 -0.923,0.653 l 1.352,0.927 2.096,-3.046 -3.346,-2.295 -0.446,0.649 -0.934,-0.64 0.614,-0.895 -10e-4,-0.001 0.006,-0.008 0.008,-0.01 h 10e-4 c 0.226,-0.308 0.652,-0.386 0.973,-0.179 l 0.004,-0.004 4.631,3.176 -0.423,0.615 0.01,0.007 -1.375,1.997 0.701,0.481 -0.58,0.845 -0.702,-0.481 z m -2.303,-4.166 c -0.334,-0.229 -0.791,-0.144 -1.02,0.19 -0.229,0.334 -0.144,0.791 0.19,1.02 0.335,0.23 0.791,0.145 1.021,-0.19 0.229,-0.334 0.144,-0.791 -0.191,-1.02" fill="#ffffff" id="path194"></path>
        <path transform="matrix(1,0,0,-1,467.1551,443.08226)" d="M 0,0 -0.014,0.005 C 0.094,0.331 -0.057,0.683 -0.362,0.833 V 0.839 L -5.6,2.875 -5.971,1.919 l 4.774,-1.856 -0.386,-0.994 -1.643,0.639 0.248,0.64 -1.217,0.474 -0.249,-0.641 -2.15,0.836 -0.369,-0.948 1.331,-0.517 c -0.333,-0.171 -0.596,-0.442 -0.74,-0.813 -0.38,-0.978 0.259,-2.14 1.429,-2.595 1.169,-0.454 2.425,-0.029 2.806,0.95 0.144,0.37 0.133,0.747 0.003,1.098 l 1.245,-0.484 0.368,0.948 -0.001,0.001 z m -4.585,-2.939 c -0.499,0.194 -0.746,0.756 -0.552,1.254 0.194,0.499 0.755,0.747 1.254,0.553 0.499,-0.194 0.746,-0.756 0.552,-1.255 -0.194,-0.499 -0.755,-0.746 -1.254,-0.552" fill="#ffffff" id="path196"></path>
        <path transform="matrix(1,0,0,-1,444.2056,439.26805)" d="M 0,0 -0.003,0.025 H -0.005 C -0.058,0.383 -0.38,0.641 -0.744,0.608 v 0.008 l -2.992,-0.313 0.106,-1.02 2.47,0.259 0.132,-1.2 C -0.879,-3.082 -1.741,-3.83 -2.889,-3.95 l -0.532,-0.06 0.107,-1.02 0.662,0.071 c 1.643,0.172 3.028,1.362 2.805,3.5 L 0,-0.004 H 0.001 L 0,0" fill="#ffffff" id="path198"></path>
        <path transform="matrix(1,0,0,-1,445.9388,438.40333)" d="m 0,0 c -0.359,-0.057 -0.615,-0.382 -0.577,-0.748 h 0.003 l 0.522,-4.991 1.133,0.118 -0.488,4.662 0.984,0.103 L 1.47,0.164 0,0.01 Z" fill="#ffffff" id="path200"></path>
      </g>
      <path d="m 450.5055,443.90934 6.318,0.878 0.14,-1.008 -6.318,-0.878 z" fill="#ffffff" id="path204"></path>
      <path d="m 454.2055,440.53385 c 0.443,0.575 1.25,1.018 2.235,1.198 l 0.7,0.112 0.14,-1.008 -0.764,-0.125 c -0.957,-0.194 -1.62,-0.682 -1.515,-1.44 l 0.052,-0.385 -0.087,-0.012 -1.041,-0.145 -0.087,-0.012 -0.055,0.385 c -0.105,0.758 -0.876,1.047 -1.85,0.972 l -0.804,-0.092 -0.14,1.007 0.739,0.089 c 0.997,0.095 1.894,-0.112 2.477,-0.544" fill="#ffffff" id="path209"></path>
      <path d="m 472.6017,446.55674 0.288,-0.385 0.04,-0.051 0.174,-0.232 -0.002,-10e-4 0.002,-0.003 -0.482,-0.359 -0.481,-0.361 -10e-4,0.003 -0.003,-0.002 -0.172,0.233 -0.038,0.053 -0.288,0.385 c -1.149,1.538 -2.265,1.894 -3.48,1.363 l -0.562,0.95 c 0.957,0.537 1.945,0.623 2.972,0.123 -0.189,1.126 0.174,2.05 0.959,2.815 l 0.753,-0.807 c -0.854,-1.016 -0.828,-2.186 0.321,-3.724" fill="#ffffff" id="path211"></path>
      <path d="m 476.4872,448.41065 -1.163,-0.869 -0.005,0.007 c -0.295,-0.211 -0.701,-0.154 -0.929,0.125 l -0.006,-0.004 -2.022,2.705 -0.079,-0.093 -0.741,0.817 0.16,0.16 -0.34,0.454 0.912,0.682 2.807,-3.755 0.792,0.592 z" fill="#ffffff" id="path213"></path>
      <path d="m 500.8121,450.42454 -23.528,17.366 c -5.342,-10.627 -16.337,-17.923 -29.043,-17.923 -12.705,0 -23.7,7.296 -29.042,17.923 l -23.528,-17.366 c -0.435,-0.321 -1.045,0.022 -0.997,0.56 l 0.249,2.773 c 0.977,10.92 5.202,22.651 11.896,33.033 5.996,9.302 13.568,16.733 21.665,21.363 5.151,3.952 11.516,6.394 18.442,6.67 0.438,0.02 0.876,0.034 1.315,0.034 h 10e-4 c 0.439,0 0.877,-0.014 1.314,-0.034 6.926,-0.276 13.292,-2.718 18.443,-6.669 8.096,-4.631 15.668,-12.062 21.665,-21.364 6.693,-10.382 10.918,-22.113 11.896,-33.033 l 0.248,-2.773 c 0.049,-0.538 -0.561,-0.881 -0.996,-0.56" fill="#ffffff" id="path215"></path>
      <path d="m 472.199,473.94535 c -2.522,-4.96 -6.54,-9.031 -11.459,-11.622 0.203,-1.336 0.238,-3.172 -0.29,-5.856 -0.945,-4.797 -3.381,-4.869 -3.381,-4.869 -0.062,0.574 -0.186,0.971 -0.689,2.045 -0.085,0.181 -1.605,3.364 -2.915,6.11 -1.69,-0.333 -3.436,-0.512 -5.224,-0.512 -1.791,0 -3.539,0.18 -5.232,0.514 -1.255,-2.632 -2.818,-5.911 -2.913,-6.112 -0.503,-1.074 -0.627,-1.471 -0.689,-2.045 0,0 -2.437,0.072 -3.381,4.869 -0.529,2.687 -0.493,4.523 -0.29,5.86 -4.915,2.591 -8.931,6.66 -11.452,11.618 l -27.314,-20.16 c 1.894,21.145 16.761,46.149 36.646,54.848 3.731,2.427 8.102,3.95 12.805,4.266 0.586,0.133 1.194,0.208 1.821,0.208 0.626,0 1.234,-0.075 1.82,-0.208 4.702,-0.316 9.074,-1.839 12.805,-4.266 19.885,-8.699 34.752,-33.703 36.646,-54.848 z" fill="#ffffff" id="path217"></path>
      <path d="m 463.4305,508.3792 c 5.963,-2.714 11.464,-6.889 16.285,-11.977 l -8.537,3.684 c -1.99,3.256 -4.654,6.055 -7.798,8.205 l 0.05,0.088" fill="#e60039" id="path219"></path>
      <path d="m 425.3046,500.08595 -8.537,-3.684 c 4.821,5.088 10.322,9.263 16.285,11.977 l 0.05,-0.088 c -3.144,-2.149 -5.808,-4.948 -7.798,-8.205" fill="#e60039" id="path221"></path>
      <path d="m 422.1853,492.64543 -13.672,-6.82 c 1.739,2.7 3.641,5.286 5.689,7.709 l 9.845,4.248 c -0.787,-1.627 -1.414,-3.347 -1.862,-5.137" fill="#e60039" id="path223"></path>
      <path d="m 472.4354,497.78294 9.845,-4.249 c 2.048,-2.423 3.951,-5.009 5.689,-7.708 l -13.672,6.819 c -0.448,1.791 -1.075,3.51 -1.862,5.138" fill="#e60039" id="path225"></path>
      <path d="m 475.0258,484.07023 19.724,-11.318 c 1.077,-2.659 1.993,-5.349 2.734,-8.032 l -23.113,15.137 c 0.325,1.367 0.547,2.774 0.655,4.213" fill="#e60039" id="path227"></path>
      <path d="m 422.1123,479.85765 -23.114,-15.138 c 0.742,2.683 1.658,5.373 2.735,8.033 l 19.724,11.318 c 0.107,-1.439 0.33,-2.846 0.655,-4.213" fill="#e60039" id="path229"></path>
      <path d="m 475.1019,486.10203 c 0,1.543 -0.132,3.054 -0.382,4.526 l 14.858,-7.411 c 1.53,-2.595 2.91,-5.275 4.124,-8 l -18.603,10.675 0.003,0.21" fill="#e60039" id="path231"></path>
      <path d="m 421.381,486.10203 0.003,-0.21 -18.603,-10.675 c 1.214,2.725 2.594,5.405 4.125,8 l 14.857,7.411 c -0.25,-1.472 -0.382,-2.983 -0.382,-4.526" fill="#e60039" id="path233"></path>
      <path d="m 424.284,473.94535 -27.314,-20.16 c 0.252,2.817 0.735,5.703 1.43,8.61 l 24.158,15.822 c 0.455,-1.483 1.034,-2.911 1.726,-4.272" fill="#e60039" id="path235"></path>
      <path d="m 472.199,473.94535 c 0.692,1.361 1.271,2.789 1.726,4.272 l 24.158,-15.822 c 0.694,-2.907 1.178,-5.793 1.43,-8.61 z" fill="#e60039" id="path237"></path>
      <path d="m 453.8833,499.83583 3.371,-4.523 c 0.306,-0.41 0.498,-0.894 0.557,-1.403 l 1.383,-11.926 -0.082,-0.016 c -1.116,4.138 -4.121,14.473 -5.302,17.83 l 0.073,0.038" fill="#00125e" id="path239"></path>
      <path d="m 442.5997,499.83583 -3.371,-4.523 c -0.306,-0.41 -0.498,-0.894 -0.557,-1.403 l -1.383,-11.926 0.081,-0.016 c 1.117,4.138 4.122,14.473 5.303,17.83 l -0.073,0.038" fill="#00125e" id="path241"></path>
      <path d="m 453.3291,482.12843 0.031,0.037 2.717,-0.984 0.138,-0.014 0.32,-0.033 1.388,-0.141 1.615,-1.916 0.238,-0.282 -0.238,-0.384 -0.501,-0.807 -0.677,-0.09 0.571,-1.299 -0.038,-0.031 c -0.536,0.39 -3.796,2.842 -5.564,5.944" fill="#00125e" id="path243"></path>
      <path d="m 443.1538,482.12843 -0.031,0.037 -2.717,-0.984 -0.138,-0.014 -0.32,-0.033 -1.388,-0.141 -1.615,-1.916 -0.238,-0.282 0.238,-0.384 0.501,-0.807 0.677,-0.09 -0.571,-1.299 0.038,-0.031 c 0.536,0.39 3.796,2.842 5.564,5.944" fill="#00125e" id="path245"></path>
      <path d="m 445.8659,494.58213 0.016,-8.962 c 0,-0.116 -0.039,-0.229 -0.112,-0.319 l -2.341,-2.89 -0.014,0.009 1.417,3.273 0.951,8.893 0.083,-0.004" fill="#00125e" id="path247"></path>
      <path d="m 453.0539,482.41133 -2.341,2.89 c -0.073,0.09 -0.113,0.203 -0.112,0.319 l 0.016,8.962 0.083,0.004 0.951,-8.894 1.417,-3.272 -0.014,-0.009" fill="#00125e" id="path249"></path>
      <path d="m 454.9943,505.79896 c -0.24,-1.748 -1.059,-3.521 -1.972,-4.828 l 1.3,-12.615 0.026,-0.089 1.803,-3.531 -0.071,-0.043 -2.614,3.595 -0.093,0.232 -1.591,12.306 c 1.153,1.075 2.156,3.264 2.09,5.2 0,3.11 -2.521,4.802 -5.631,4.802 -3.11,0 -5.63,-1.692 -5.63,-4.802 -0.067,-1.936 0.936,-4.125 2.089,-5.2 l -1.591,-12.306 -0.092,-0.232 -2.615,-3.595 -0.07,0.043 1.802,3.531 0.027,0.089 1.299,12.615 c -0.913,1.307 -1.731,3.08 -1.972,4.828 -0.239,1.74 0.096,3.454 1.48,4.656 0.373,0.621 0.87,1.157 1.455,1.574 0.477,0.34 1.01,0.604 1.583,0.769 l 0.106,0.028 c 0.679,0.184 1.392,0.281 2.129,0.281 0.737,0 1.451,-0.097 2.129,-0.281 l 0.107,-0.028 c 0.573,-0.165 1.106,-0.429 1.582,-0.769 0.586,-0.417 1.082,-0.953 1.455,-1.574 1.385,-1.202 1.719,-2.916 1.48,-4.656" fill="#00125e" id="path251"></path>
      <path d="m 443.5426,505.5916 c 0,1.665 1.295,2.796 2.932,2.887 v -2.209 c -0.454,-0.228 -0.871,-0.52 -1.239,-0.864 v -0.002 c -0.396,-0.357 -0.646,-0.872 -0.646,-1.447 0,-0.278 0.06,-0.541 0.165,-0.78 l -0.039,-0.031 c -0.714,0.576 -1.173,1.457 -1.173,2.446" fill="#00125e" id="path253"></path>
      <path d="m 450.0081,508.47843 c 1.637,-0.091 2.932,-1.222 2.932,-2.887 0,-0.989 -0.459,-1.869 -1.173,-2.446 l -0.039,0.031 c 0.105,0.239 0.165,0.503 0.165,0.78 0,0.575 -0.25,1.091 -0.646,1.447 l 0.001,0.002 c -0.369,0.344 -0.786,0.636 -1.24,0.865 z" fill="#00125e" id="path255"></path>
      <path d="m 466.2526,468.18635 c -0.446,1.766 -2.055,2.649 -2.31,2.779 l -0.003,0.041 c 6.872,5.371 9.003,14.807 5.782,25.157 l -0.048,0.004 -0.749,-1.517 -0.047,0.006 c -1.059,4.366 -3.171,8.454 -6.182,11.873 -0.312,0.356 -0.636,0.704 -0.968,1.044 l 0.031,0.04 c 7.156,-4.483 11.915,-12.437 11.915,-21.503 0,-6.999 -2.836,-13.336 -7.421,-17.924" fill="#00125e" id="path257"></path>
      <path d="m 459.9355,493.43785 c -0.005,-0.575 -0.046,-1.142 -0.12,-1.698 l -0.05,0.001 c -0.498,3.922 -2.648,7.286 -5.699,9.422 0.51,0.834 0.928,1.729 1.228,2.624 2.874,-2.519 4.676,-6.228 4.641,-10.349" fill="#00125e" id="path259"></path>
      <path d="m 440.4915,505.68885 c 0.178,-1.297 0.668,-2.696 1.375,-3.987 -4.444,-0.655 -7.854,-4.484 -7.854,-9.109 l 0.001,-0.064 c -1.681,1.395 -2.785,3.461 -2.895,5.789 l -0.031,0.024 c -2.994,-0.64 -5.55,-2.457 -7.163,-4.943 l -0.045,0.02 c 2.531,8.423 9.324,15 17.872,17.228 l 0.025,-0.041 c -1.115,-1.238 -1.559,-2.922 -1.285,-4.917" fill="#00125e" id="path261"></path>
      <path d="m 463.2957,482.63935 c -0.702,-1.747 -1.834,-2.907 -2.358,-3.53 l -0.929,8.315 c 0.808,-0.072 1.917,-0.456 2.416,-0.81 0.539,-0.382 1.963,-1.258 0.871,-3.975" fill="#00125e" id="path263"></path>
      <path d="m 460.1426,489.56724 -0.033,0.031 c 0.983,2.408 1.483,4.946 1.605,7.517 0.037,1.171 -0.019,2.358 -0.174,3.551 -0.228,1.192 -0.653,2.28 -1.33,3.263 l -0.045,-0.02 c 0.278,-1.22 0.132,-2.757 -0.057,-3.657 l -0.047,-0.002 c -0.162,0.426 -0.347,0.841 -0.555,1.242 -0.744,1.433 -1.769,2.696 -3.002,3.717 -0.106,0.087 -0.213,0.172 -0.321,0.256 -0.138,0.107 -0.28,0.209 -0.424,0.31 0.22,1.719 -0.096,3.205 -0.921,4.368 l 0.03,0.037 c 0.202,-0.093 0.403,-0.186 0.601,-0.285 0.107,-0.054 0.214,-0.108 0.321,-0.163 1.05,-0.547 2.053,-1.167 3.002,-1.853 1.389,-1.004 2.66,-2.149 3.789,-3.411 3.334,-3.729 5.425,-8.486 5.612,-13.668 0.032,-0.864 0.006,-1.715 -0.069,-2.552 l -0.043,-0.015 c -2.043,2.039 -5.229,2.623 -7.939,1.334" fill="#00125e" id="path265"></path>
      <path d="m 441.7509,462.39863 -10e-4,-0.043 -3.14,-6.694 c -0.611,1.356 -0.891,3.458 -0.961,4.581 -0.025,0.386 -0.047,0.875 -0.007,1.299 0.488,0.429 2.749,2.558 3.131,2.918 l 0.013,-0.009 0.015,-0.01 c 0.707,-0.498 0.971,-1.305 0.95,-2.042" fill="#00125e" id="path267"></path>
      <path d="m 469.835,487.31303 c -0.779,-1.998 -1.428,-3.501 -2.035,-4.691 l -0.045,0.017 c 0.574,3.211 -1.02,5.897 -4.283,6.197 -1.008,0.093 -2.192,-0.069 -3.536,-0.553 l 0.009,-0.052 c 4.023,-0.163 5.26,-1.945 5.119,-4.137 -0.144,-2.216 -2.758,-5.056 -5.557,-8.06 -2.492,-2.675 -4.433,-5.883 -4.829,-6.554 -0.51,5.36 -4.598,9.685 -9.858,10.544 l -0.02,-0.044 c 2.411,-2.089 3.663,-5.356 3.06,-8.672 -2.668,1.94 -7.986,3.363 -9.924,3.769 l -0.151,0.029 c -1.598,0.335 -3.24,1.406 -4.118,2.396 -3.375,3.971 0.899,9.189 1.447,9.826 l -0.027,0.041 c -6.439,-1.849 -6.451,-6.467 -6.306,-7.83 l -0.047,-0.016 c -2.333,3.556 -2.048,8.252 0.699,11.499 l -0.027,0.041 c -2.457,-0.751 -4.379,-2.726 -5.053,-5.216 l -0.046,-0.007 c -0.603,0.962 -1.041,2.033 -1.275,3.175 l -0.05,-0.002 c -0.11,-0.953 -0.173,-1.92 -0.173,-2.903 0,-6.999 2.836,-13.336 7.421,-17.924 0.378,1.497 1.591,2.359 2.108,2.666 l -0.001,0.041 c -1.443,0.943 -2.605,2.28 -3.331,3.859 l 0.044,0.025 c 1.571,-2.381 4.17,-4.023 7.165,-4.299 l 0.002,-0.048 c -2.437,-0.426 -4.412,-2.195 -5.134,-4.516 l 0.038,-0.028 c 1.703,1.19 3.773,1.891 6.008,1.891 2.599,0 4.978,-0.945 6.812,-2.509 l -0.03,-0.04 c -0.712,0.441 -1.553,0.713 -2.481,0.789 l -0.21,0.014 0.21,-0.139 c 1.655,-1.168 1.747,-3.425 1.105,-4.752 l -0.086,-0.176 -3.613,-7.491 c -0.738,0.575 -1.289,1.809 -1.66,3.075 -0.572,1.948 -0.721,4.144 -0.479,5.47 0.135,0.115 1.354,1.251 2.187,2.032 l 0.003,-10e-4 c 0.406,0.378 0.797,0.744 1.119,1.046 l -0.419,0.935 c -4.256,0.947 -6.037,-0.641 -6.037,-0.641 1.012,-0.716 2.082,-1.354 3.196,-1.917 -0.372,-0.346 -0.712,-0.66 -0.969,-0.898 -0.238,-1.355 -0.313,-3.251 0.249,-6.107 0.944,-4.797 3.381,-4.869 3.381,-4.869 0.062,0.575 0.186,0.971 0.689,2.045 0.105,0.224 2.024,4.248 3.318,6.962 1.564,-0.295 3.177,-0.45 4.827,-0.45 1.647,0 3.258,0.155 4.819,0.448 1.379,-2.891 3.226,-6.76 3.32,-6.96 0.503,-1.074 0.627,-1.47 0.689,-2.045 0,0 2.436,0.072 3.381,4.869 0.76,3.859 0.355,5.965 -0.04,7.353 0.869,0.473 1.707,0.996 2.511,1.563 0.81,0.572 1.585,1.191 2.321,1.851 -0.037,0.192 -0.088,0.378 -0.151,0.558 -0.324,0.919 -0.97,1.687 -1.795,2.204 -0.708,0.443 -1.551,0.682 -2.429,0.692 l -0.014,0.045 c 8.595,5.942 9.012,15.355 9.03,16.573 l -0.048,0.007 m -10.535,-30.765 c -0.371,-1.266 -0.922,-2.5 -1.66,-3.075 l -3.804,7.886 c 0.411,0.091 0.817,0.193 1.22,0.304 l 2.81,-6.001 c 0.611,1.356 0.891,3.458 0.961,4.58 0.025,0.386 0.047,0.875 0.007,1.299 -0.49,0.431 -1.905,1.761 -2.27,2.106 0.346,0.127 0.69,0.261 1.028,0.403 0.833,-0.781 2.052,-1.917 2.187,-2.032 0.242,-1.326 0.093,-3.522 -0.479,-5.47" fill="#00125e" id="path269"></path>
    </g>
  </g>
</svg>
