
<svg xmlns="http://www.w3.org/2000/svg" xmlns:xlink="http://www.w3.org/1999/xlink" width="517.40533mm" height="400mm" viewBox="0 0 517.40534 400" version="1.1" id="svg8">
  <defs id="defs2">
    <clipPath clipPathUnits="userSpaceOnUse" id="clipPath26">
      <path d="M 152.468,208.723 H 2647.376 V 689.958 H 152.468 Z" id="path24"></path>
    </clipPath>
    <clipPath clipPathUnits="userSpaceOnUse" id="clipPath1050">
      <path d="M 152.468,208.724 H 2647.376 V 689.959 H 152.468 Z" id="path1048"></path>
    </clipPath>
    <clipPath clipPathUnits="userSpaceOnUse" id="clipPath1058">
      <path d="m 1526,837 h 560 V 277 h -560 z" id="path1056"></path>
    </clipPath>
    <clipPath clipPathUnits="userSpaceOnUse" id="clipPath1062">
      <path d="m 1526,837 h 560 V 277 h -560 z" id="path1060"></path>
    </clipPath>
    <mask maskUnits="userSpaceOnUse" x="0" y="0" width="1" height="1" id="mask1064">
      <g id="g1074">
        <g clip-path="url(#clipPath1062)" id="g1072">
          <g id="g1070">
            <g transform="matrix(560,0,0,560,1526,277)" id="g1068">
              <image width="1" height="1" style="image-rendering:optimizeSpeed" preserveAspectRatio="none" transform="matrix(1,0,0,-1,0,1)" id="image1066"></image>
            </g>
          </g>
        </g>
      </g>
    </mask>
    <mask maskUnits="userSpaceOnUse" x="0" y="0" width="1" height="1" id="mask1076">
      <image width="1" height="1" style="image-rendering:optimizeSpeed" preserveAspectRatio="none" id="image1078"></image>
    </mask>
    <clipPath clipPathUnits="userSpaceOnUse" id="clipPath1100">
      <path d="M 21,721 H 582 V 161 H 21 Z" id="path1098"></path>
    </clipPath>
    <clipPath clipPathUnits="userSpaceOnUse" id="clipPath1104">
      <path d="M 21,721 H 582 V 161 H 21 Z" id="path1102"></path>
    </clipPath>
    <mask maskUnits="userSpaceOnUse" x="0" y="0" width="1" height="1" id="mask1106">
      <g id="g1116">
        <g clip-path="url(#clipPath1104)" id="g1114">
          <g id="g1112">
            <g transform="matrix(561,0,0,560,21,161)" id="g1110">
              <image width="1" height="1" style="image-rendering:optimizeSpeed" preserveAspectRatio="none" transform="matrix(1,0,0,-1,0,1)" id="image1108"></image>
            </g>
          </g>
        </g>
      </g>
    </mask>
    <mask maskUnits="userSpaceOnUse" x="0" y="0" width="1" height="1" id="mask1118">
      <image width="1" height="1" style="image-rendering:optimizeSpeed" preserveAspectRatio="none" id="image1120"></image>
    </mask>
    <clipPath clipPathUnits="userSpaceOnUse" id="clipPath1142">
      <path d="m 861,884 h 281 V 603 H 861 Z" id="path1140"></path>
    </clipPath>
    <clipPath clipPathUnits="userSpaceOnUse" id="clipPath1146">
      <path d="m 861,884 h 281 V 603 H 861 Z" id="path1144"></path>
    </clipPath>
    <mask maskUnits="userSpaceOnUse" x="0" y="0" width="1" height="1" id="mask1148">
      <g id="g1158">
        <g clip-path="url(#clipPath1146)" id="g1156">
          <g id="g1154">
            <g transform="matrix(281,0,0,281,861,603)" id="g1152">
              <image width="1" height="1" style="image-rendering:optimizeSpeed" preserveAspectRatio="none" transform="matrix(1,0,0,-1,0,1)" id="image1150"></image>
            </g>
          </g>
        </g>
      </g>
    </mask>
    <mask maskUnits="userSpaceOnUse" x="0" y="0" width="1" height="1" id="mask1160">
      <image width="1" height="1" style="image-rendering:optimizeSpeed" preserveAspectRatio="none" id="image1162"></image>
    </mask>
    <clipPath clipPathUnits="userSpaceOnUse" id="clipPath1184">
      <path d="m 2427,440 h 311 V 130 h -311 z" id="path1182"></path>
    </clipPath>
    <clipPath clipPathUnits="userSpaceOnUse" id="clipPath1188">
      <path d="m 2427,440 h 311 V 130 h -311 z" id="path1186"></path>
    </clipPath>
    <mask maskUnits="userSpaceOnUse" x="0" y="0" width="1" height="1" id="mask1190">
      <g id="g1200">
        <g clip-path="url(#clipPath1188)" id="g1198">
          <g id="g1196">
            <g transform="matrix(311,0,0,310,2427,130)" id="g1194">
              <image width="1" height="1" style="image-rendering:optimizeSpeed" preserveAspectRatio="none" transform="matrix(1,0,0,-1,0,1)" id="image1192"></image>
            </g>
          </g>
        </g>
      </g>
    </mask>
    <mask maskUnits="userSpaceOnUse" x="0" y="0" width="1" height="1" id="mask1202">
      <image width="1" height="1" style="image-rendering:optimizeSpeed" preserveAspectRatio="none" id="image1204"></image>
    </mask>
    <clipPath clipPathUnits="userSpaceOnUse" id="clipPath1226">
      <path d="m 1351,612 h 474 V 138 h -474 z" id="path1224"></path>
    </clipPath>
    <clipPath clipPathUnits="userSpaceOnUse" id="clipPath1230">
      <path d="m 1351,612 h 474 V 138 h -474 z" id="path1228"></path>
    </clipPath>
    <mask maskUnits="userSpaceOnUse" x="0" y="0" width="1" height="1" id="mask1232">
      <g id="g1242">
        <g clip-path="url(#clipPath1230)" id="g1240">
          <g id="g1238">
            <g transform="matrix(474,0,0,474,1351,138)" id="g1236">
              <image width="1" height="1" style="image-rendering:optimizeSpeed" preserveAspectRatio="none" transform="matrix(1,0,0,-1,0,1)" id="image1234"></image>
            </g>
          </g>
        </g>
      </g>
    </mask>
    <mask maskUnits="userSpaceOnUse" x="0" y="0" width="1" height="1" id="mask1244">
      <image width="1" height="1" style="image-rendering:optimizeSpeed" preserveAspectRatio="none" id="image1246"></image>
    </mask>
    <clipPath clipPathUnits="userSpaceOnUse" id="clipPath1268">
      <path d="m 1301,397 h 259 V 138 h -259 z" id="path1266"></path>
    </clipPath>
    <clipPath clipPathUnits="userSpaceOnUse" id="clipPath1272">
      <path d="m 1301,397 h 259 V 138 h -259 z" id="path1270"></path>
    </clipPath>
    <mask maskUnits="userSpaceOnUse" x="0" y="0" width="1" height="1" id="mask1274">
      <g id="g1284">
        <g clip-path="url(#clipPath1272)" id="g1282">
          <g id="g1280">
            <g transform="matrix(259,0,0,259,1301,138)" id="g1278">
              <image width="1" height="1" style="image-rendering:optimizeSpeed" preserveAspectRatio="none" transform="matrix(1,0,0,-1,0,1)" id="image1276"></image>
            </g>
          </g>
        </g>
      </g>
    </mask>
    <mask maskUnits="userSpaceOnUse" x="0" y="0" width="1" height="1" id="mask1286">
      <image width="1" height="1" style="image-rendering:optimizeSpeed" preserveAspectRatio="none" id="image1288"></image>
    </mask>
    <clipPath clipPathUnits="userSpaceOnUse" id="clipPath1310">
      <path d="m 1212,1092 h 542 V 550 h -542 z" id="path1308"></path>
    </clipPath>
    <clipPath clipPathUnits="userSpaceOnUse" id="clipPath1314">
      <path d="m 1212,1092 h 542 V 550 h -542 z" id="path1312"></path>
    </clipPath>
    <mask maskUnits="userSpaceOnUse" x="0" y="0" width="1" height="1" id="mask1316">
      <g id="g1326">
        <g clip-path="url(#clipPath1314)" id="g1324">
          <g id="g1322">
            <g transform="matrix(542,0,0,542,1212,550)" id="g1320">
              <image width="1" height="1" style="image-rendering:optimizeSpeed" preserveAspectRatio="none" transform="matrix(1,0,0,-1,0,1)" id="image1318"></image>
            </g>
          </g>
        </g>
      </g>
    </mask>
    <mask maskUnits="userSpaceOnUse" x="0" y="0" width="1" height="1" id="mask1328">
      <image width="1" height="1" style="image-rendering:optimizeSpeed" preserveAspectRatio="none" id="image1330"></image>
    </mask>
    <clipPath clipPathUnits="userSpaceOnUse" id="clipPath1352">
      <path d="M 115.533,718.586 H 2245.88 V 166.352 H 115.533 Z" id="path1350"></path>
    </clipPath>
    <clipPath clipPathUnits="userSpaceOnUse" id="clipPath1368">
      <path d="M 115.53,718.58 H 2245.88 V 166.376 H 115.53 Z" id="path1366"></path>
    </clipPath>
    <clipPath clipPathUnits="userSpaceOnUse" id="clipPath1372">
      <path d="m 2237.928,303.003 c -18.592,24.118 -37.156,46.995 -55.689,68.657 -35.456,41.469 -70.756,78.543 -105.807,111.58 -179.542,169.226 -352.32,232.304 -502.986,235.231 -52.601,1.03 -102.496,-5.291 -149.058,-16.973 -74.776,-18.771 -145.016,-45.797 -217.077,-77.102 -43.401,-18.848 -87.457,-39.251 -133.568,-60.335 -32.5,-14.863 -66.019,-30.07 -101.046,-45.3 10.203,-20.77 21.982,-41.621 29.999,-60.59 12.033,-28.404 19.476,-58.736 27.608,-88.4 52.562,30.763 108.813,65.718 169.444,105.403 8.334,5.458 16.759,11.01 25.26,16.647 228.897,151.744 433.638,156.06 598.588,104.396 227.203,-71.17 378.93,-248.577 414.332,-293.214" id="path1370"></path>
    </clipPath>
    <clipPath clipPathUnits="userSpaceOnUse" id="clipPath1376">
      <path d="m 921.911,309.502 c 34.347,18.001 70.388,38.022 108.393,60.269 -0.332,1.167 -0.649,2.359 -0.983,3.535 -8.288,30.286 -16.211,59.322 -25.509,82.172 -8.006,19.69 -20.438,41.529 -31.115,63.283 C 891.352,483.369 801.966,447.816 698.271,415.885 668.97,406.866 640.249,400.064 612.231,395.155 464.12,369.2 336.089,396.1 249.51,426.421 c -74.08,25.945 -117.818,54.406 -117.818,54.406 -2.969,-49.855 -5.955,-99.712 -8.933,-149.551 -2.415,-40.403 -4.816,-80.793 -7.229,-121.189 76.593,-15.298 145.365,-29.372 213.069,-37.229 87.465,-10.134 173.123,-9.877 271.462,11.577 92.156,20.104 195.459,58.837 321.85,125.067" id="path1374"></path>
    </clipPath>
    <clipPath clipPathUnits="userSpaceOnUse" id="clipPath2076">
      <path d="M 134.329,596.068 H 2108.99 V -131.368 H 134.329 Z" id="path2074"></path>
    </clipPath>
    <clipPath clipPathUnits="userSpaceOnUse" id="clipPath2092">
      <path d="M 134.321,596.073 H 2108.99 V -131.364 H 134.321 Z" id="path2090"></path>
    </clipPath>
    <clipPath clipPathUnits="userSpaceOnUse" id="clipPath2096">
      <path d="m 2108.987,438.982 v 0 C 1908.833,605.858 1720.93,621.87 1544.982,569.524 1456.156,543.096 1370.386,499.256 1287.625,448.601 1225.522,410.588 1165.118,368.742 1106.389,327.556 1041.428,281.997 978.528,237.233 917.662,199.354 c 9.712,-19.887 20.37,-39.554 31.492,-59.083 15.688,-27.547 32.31,-54.823 48.541,-82.049 64.384,48.261 128.614,107.191 205.312,178.417 37.359,34.693 77.675,72.307 122.403,113.026 94.567,86.097 186.741,137.595 272.692,165.789 291.144,95.495 510.874,-76.456 510.885,-76.472" id="path2094"></path>
    </clipPath>
    <clipPath clipPathUnits="userSpaceOnUse" id="clipPath2550">
      <path d="M 0,982 H 7062 V 0 H 0 Z" id="path2548"></path>
    </clipPath>
  </defs>
  
  
  <g id="layer1" transform="translate(264.09441,-38.673802)">
    <g id="g5465" transform="matrix(1.0159734,0,0,1.0159734,4.2184759,-0.61775069)">
      <g id="g5440">
        <path d="M 245.17617,180.61006 C 213.72172,152.38491 186.24708,135.24626 147.11464,118.56369 170.51825,93.748658 191.46388,74.924954 224.97465,54.824253 137.56597,32.025535 48.774667,32.755248 -38.310769,60.908391 l -8.337286,21.401702 c -33.930035,0 -78.074445,4.831146 -124.316785,18.519657 -7.39794,28.02833 -9.70869,51.80799 -9.70869,51.80799 0,0 -42.53137,7.56917 -83.42087,22.74751 10.21437,63.40979 41.58881,117.86779 70.6509,154.72308 3.84539,-1.48823 45.63104,-17.43469 45.63104,-17.43469 37.12572,61.76473 96.349262,105.0418 187.056057,119.71127 -3.933407,-41.01113 3.579752,-82.3119 67.261573,-149.11261 37.38177,5.88251 78.10966,16.1913 113.06225,26.60891 -3.51574,-6.22497 -18.28122,-32.3474 -20.47036,-36.70007 -2.38757,-4.72393 -2.33156,-7.99163 1.40022,-11.62099 9.32303,-9.22542 36.9561,-35.51108 41.64162,-39.94056 -18.96452,-8.13406 -38.8828,-15.5368 -38.8828,-15.5368 0,0 23.66445,-15.14154 41.92007,-25.47273" style="fill:#cbbfa7;fill-opacity:1;fill-rule:nonzero;stroke:none;stroke-width:1.60025" id="path2600"></path>
        <path d="m 198.60342,157.17989 c 10.41921,6.82505 20.20152,14.12378 29.22531,21.92498 -15.16554,8.87817 -31.04479,18.95173 -46.92564,29.97423 14.51744,4.86315 29.1421,10.27518 42.89782,16.00887 0,0 -31.14081,29.42534 -34.89339,34.09326 -3.2421,4.04862 -4.27426,8.22367 -2.05951,12.68836 2.58119,5.17359 12.3123,21.78736 12.3123,21.78736 -34.59574,-9.80632 -66.51587,-16.70018 -95.82119,-21.06085 -45.621437,44.94613 -78.647333,96.53809 -74.440283,147.55236 -83.643306,-16.04887 -140.960947,-61.26865 -172.380197,-119.72567 -13.5941,4.72233 -28.42359,10.29119 -46.60719,17.5067 -53.42744,-70.0044 -62.8689,-135.59052 -62.8689,-135.59052 26.87615,-8.67974 54.74285,-15.36237 81.52138,-20.33434 1.27059,-17.60911 4.16704,-35.30784 8.74055,-52.89616 38.47473,-11.312142 80.548423,-16.703374 123.087787,-16.632963 2.698016,-7.657182 5.618467,-15.394375 8.793356,-23.177976 C 33.632367,48.74556 118.60868,40.936355 199.45635,59.531224 175.7663,75.015213 152.05544,97.233041 129.88242,122.72497 c 6.82185,2.5924 13.52848,5.33523 20.0863,8.23647 8.03964,-7.58677 21.44651,-10.01754 33.24833,-4.37347 8.14205,3.9206 16.62176,14.21339 15.38637,30.59192" style="fill:#550709;fill-opacity:1;fill-rule:nonzero;stroke:none;stroke-width:1.60025" id="path2604"></path>
        <path d="m -44.217731,133.32469 c -27.581856,-5.212 -61.788729,-2.24995 -100.060239,10.384 28.58681,-18.98693 62.99052,-31.00958 97.54145,-37.65061 -36.263195,0.46888 -71.9599,5.00878 -104.72336,13.96056 -3.00686,13.52368 -5.01357,26.70012 -6.12414,39.51649 16.52415,-2.76202 32.48821,-4.86635 47.36251,-6.38978 17.762736,-8.35169 40.843097,-16.849 66.003779,-19.82066" style="fill:#ed1c24;fill-opacity:1;fill-rule:nonzero;stroke:none;stroke-width:1.60025" id="path2608"></path>
        <path d="m -20.140572,132.64955 h 11.0449041 v 16.46654 L 4.8760878,132.64955 H 18.604606 L 2.9045836,149.56896 20.558507,175.60178 H 6.8187875 l -11.3921577,-18.06039 -4.5222977,4.83115 v 13.22924 H -20.140572 Z" style="fill:#ffffff;fill-opacity:1;fill-rule:nonzero;stroke:none;stroke-width:1.60025" id="path2612"></path>
        <path d="m 23.759941,132.64955 h 33.814817 v 8.96938 H 34.812846 v 7.49716 h 20.793609 v 8.67814 H 34.812846 v 8.18686 h 23.352403 v 9.62069 H 23.759941 Z" style="fill:#ffffff;fill-opacity:1;fill-rule:nonzero;stroke:none;stroke-width:1.60025" id="path2616"></path>
        <path d="m 75.650853,152.61822 h 7.425146 c 3.434129,0 5.943317,-1.43382 5.943317,-5.35283 0,-4.02462 -2.555595,-5.64567 -5.943317,-5.64567 H 75.650853 Z M 64.593147,132.64874 h 20.137507 c 7.903619,0 15.335166,3.68857 15.335166,13.81813 0,10.67525 -5.997725,14.81349 -15.335166,14.81349 h -9.079801 v 14.32061 H 64.593147 Z" style="fill:#ffffff;fill-opacity:1;fill-rule:nonzero;stroke:none;stroke-width:1.60025" id="path2620"></path>
        <path d="m 133.47544,147.99095 c -0.59849,-4.35747 -3.92541,-6.61222 -8.57092,-6.61222 -7.1275,0 -9.86232,6.37858 -9.86232,12.75077 0,6.36738 2.73482,12.74116 9.86232,12.74116 5.1736,0 8.14205,-3.01486 8.57092,-7.91162 h 11.0465 c -0.60809,11.05451 -8.61412,17.54991 -19.36298,17.54991 -12.85159,0 -21.17287,-9.92953 -21.17287,-22.37945 0,-12.45312 8.32128,-22.38426 21.17287,-22.38426 9.13421,0 19.06054,5.89371 19.36298,16.24571 z" style="fill:#ffffff;fill-opacity:1;fill-rule:nonzero;stroke:none;stroke-width:1.60025" id="path2624"></path>
        <path d="m 169.72086,166.8705 c 7.1195,0 9.85432,-6.37218 9.85432,-12.74117 0,-6.37218 -2.73482,-12.75076 -9.85432,-12.75076 -7.1451,0 -9.87352,6.37858 -9.87352,12.75076 0,6.36899 2.72842,12.74117 9.87352,12.74117 m 0,-35.10622 c 13.36846,0 20.92003,9.91193 20.92003,22.36505 0,12.44993 -7.55157,22.37946 -20.92003,22.37946 -13.37966,0 -20.92803,-9.92953 -20.92803,-22.37946 0,-12.45312 7.54837,-22.36505 20.92803,-22.36505" style="fill:#ffffff;fill-opacity:1;fill-rule:nonzero;stroke:none;stroke-width:1.60025" id="path2628"></path>
        <path d="m -19.570108,384.45863 c 9.193418,-15.86645 21.9777909,-32.60503 44.065999,-40.91991 -5.676076,-1.23219 -38.980414,4.43108 -71.377413,26.79613 10.537626,-17.5019 26.487287,-31.73129 40.4766452,-39.46529 -12.7779712,2.12193 -40.6654742,7.88122 -67.2503762,21.07525 15.536797,-21.90898 37.578598,-36.43442 56.275883,-43.98598 -16.391329,2.64681 -47.338504,9.29583 -77.832809,24.56219 16.077681,-19.07655 36.458425,-35.49348 57.22803,-43.78436 -20.095901,2.95406 -47.999406,8.98539 -75.797291,21.31049 10.59843,-12.3251 24.064509,-22.12821 38.564346,-29.67978 -20.827213,5.33842 -37.444176,9.91033 -55.109306,15.64561 13.46768,24.11092 53.353835,85.39238 146.51861,107.50619 0,-11.63539 1.837083,-23.03395 5.11919,-34.16847 -8.124454,1.14898 -23.2851931,4.61671 -40.881508,15.10793" style="fill:#ed1c24;fill-opacity:1;fill-rule:nonzero;stroke:none;stroke-width:1.60025" id="path2632"></path>
        <path d="M -28.267599,124.431 H 84.749838 c 8.153258,0 14.96711,2.97006 19.031732,8.27488 21.29609,-26.59611 42.03369,-48.961157 63.94107,-65.789354 0,0 -88.027982,-17.717934 -189.309208,13.613301 -9.663891,18.806101 -19.18216,55.661383 -25.805582,97.451833 6.447395,-0.31045 12.822779,-0.52648 19.124551,-0.6545 z" style="fill:#fff200;fill-opacity:1;fill-rule:nonzero;stroke:none;stroke-width:1.60025" id="path2636"></path>
        <path d="m 2.1503935,253.91817 c -2.32195825,7.85881 -4.4726901,15.44238 -4.4726901,15.44238 -16.7257804,1.19859 -36.2455924,3.48854 -53.9683264,6.77545 -0.462472,30.37108 1.696261,58.03455 7.545164,78.00243 31.04479,-16.91461 51.4847434,-26.08722 51.4847434,-26.08722 -2.68841483,23.12997 2.1187269,56.4263 13.4516756,75.48364 0,-47.74336 30.756745,-91.4189 66.17661,-129.48717 0,0 -22.462666,-2.26595 -67.959285,10.56483 1.917096,-5.04718 4.069428,-10.30879 6.42019,-15.72243 -6.876261,-1.52344 -14.8150855,-5.8041 -18.6780815,-14.97191" style="fill:#fff200;fill-opacity:1;fill-rule:nonzero;stroke:none;stroke-width:1.60025" id="path2640"></path>
        <path d="m 162.52823,183.89969 c 3.37012,3.2325 6.43139,6.84106 8.77895,10.85287 -8.59812,-3.9366 -21.67374,-8.51331 -34.41491,-12.30749 -6.93867,2.89004 -14.57024,2.83243 -20.62398,0.96334 3.68057,3.03247 7.04909,6.33378 10.10716,9.83992 11.80822,2.84844 24.77662,6.40899 38.11788,10.54723 13.19084,-9.29583 26.5417,-17.99158 39.73253,-26.05362 -3.09167,-2.41157 -6.31297,-4.74953 -9.61268,-7.06029 -6.06173,10.96489 -18.66208,16.1961 -32.08495,13.21804" style="fill:#ed1c24;fill-opacity:1;fill-rule:nonzero;stroke:none;stroke-width:1.60025" id="path2644"></path>
        <path d="m 112.17439,256.51089 c 0.24004,-5.1896 0.77612,-9.55027 1.63065,-14.41182 4.91116,-0.94735 9.51187,-3.8518 14.2646,-8.51492 -6.23936,8.26048 -10.85767,14.8663 -15.89525,22.92674 m -3.99262,-31.85772 c -1.88029,-0.32645 -5.35922,-1.03375 -5.37843,-1.03375 0.97776,-1.38102 1.97951,-2.79884 2.98446,-4.21025 2.82444,0.54088 3.61336,0.6689 5.89851,1.15857 1.63386,0.34406 2.13793,1.45143 1.40982,2.69162 -0.6449,1.2866 -2.5812,1.79388 -4.91436,1.39381 m -52.483294,0.6001 c -5.8361,10.45601 -15.636012,19.09574 -20.838415,16.40733 -4.375075,-2.21634 -1.084967,-12.38111 3.813389,-20.19992 5.968921,-9.22702 15.159139,-14.21339 19.471804,-11.56818 3.122082,1.88829 2.13633,7.1563 -2.446778,15.36077 m -163.383606,43.4227 c 0.30244,-22.29464 3.46133,-46.69361 10.886478,-73.04967 0.339252,-1.23539 0.688106,-2.50599 1.046561,-3.77659 1.067365,3.37972 6.333778,19.58543 13.130026,37.50499 -7.978831,11.34735 -16.607362,24.68861 -25.063065,39.32127 M 181.5755,220.64296 c -11.87063,7.96923 -24.08372,17.78994 -24.08372,17.78994 0,0 6.02333,-11.83383 12.60515,-22.037 0,0 -10.90889,-3.79258 -21.79697,-7.1515 0,0 -6.78824,7.40434 -12.75076,14.77188 4.22305,-8.60453 3.80858,-17.53551 -7.80121,-20.63999 -7.21071,-1.9779 -15.13673,-3.887 -29.292517,-6.73544 -9.454258,12.3091 -18.905317,27.32262 -18.905317,27.32262 7.471553,-14.84709 6.581816,-27.13539 -3.138084,-32.44021 -9.775908,-5.30322 -25.85999,-5.70008 -41.255965,5.20881 1.720265,-2.92045 3.450132,-5.86491 5.194401,-8.78696 -28.983671,-2.43077 -58.215382,-2.95085 -89.301778,-1.39221 0,0 -5.624868,6.38498 -11.038503,12.88358 -1.184183,-4.41348 -3.067673,-11.98104 -3.067673,-11.98104 -17.868357,1.36341 -37.346564,3.55734 -56.875974,6.89706 12.22108,-13.27245 31.1216,-25.74157 51.683173,-33.77641 -44.395653,2.88364 -82.879983,9.82871 -82.879983,9.82871 -14.27581,22.31545 -24.43257,46.39116 -29.49736,71.16458 -3.46293,-9.63668 -10.34079,-33.48996 -5.41043,-48.34025 4.30626,-12.9636 18.45405,-20.18712 18.43804,-20.16792 -36.06636,7.31473 -71.02695,17.69874 -71.02695,17.69874 9.97753,44.22602 30.28147,80.93088 52.98417,112.40774 8.34049,-3.07088 16.67777,-6.10174 25.03426,-9.11341 6.25377,-37.25054 16.01527,-68.60418 33.75241,-91.47651 -5.99933,28.15794 -8.02524,55.17011 -5.73048,82.61915 19.29097,-5.72089 33.705997,-9.13581 49.310004,-12.52834 0,0 6.743441,-11.6898 10.940888,-17.89876 2.966858,6.57222 6.41539,14.43263 6.41539,14.43263 14.099775,-2.5956 27.844296,-4.5223 27.844296,-4.5223 0,0 -8.071645,-19.95028 -13.798929,-38.08108 10.30239,-13.23884 22.989147,-26.68891 22.989147,-26.68891 -1.379413,3.37492 -2.752425,6.74984 -4.095032,10.12636 -0.0192,0.0192 7.934024,-0.39526 18.164403,-0.57609 -7.692387,17.78674 -13.034011,36.19759 -16.999423,54.38279 0,0 12.366708,-1.39701 23.0179513,-2.41157 5.8649049,-20.66079 11.2961429,-36.2888 18.9709267,-52.04323 3.82139,0.072 7.71319,0.18083 11.516977,0.28484 -17.9723726,24.5846 -17.6491228,45.93349 0.06241,50.72303 17.714733,4.81194 36.2952,-3.63096 50.606208,-24.32695 -6.050534,11.20492 -12.040258,23.3876 -12.040258,23.3876 0,0 10.265584,0.25124 20.398347,1.06737 0,0 5.333623,-10.40481 10.483218,-18.90212 0.705709,0.056 1.42582,0.16963 2.117127,0.26084 -1.651455,9.83832 -1.622651,19.49581 -1.61465,19.49581 0,0 16.119289,1.37941 35.040609,4.31907 2.01631,-3.17329 4.08063,-6.38819 6.11614,-9.58228 -1.2754,3.30291 -2.54759,6.60902 -3.82139,9.94713 4.71593,0.79693 9.39825,1.62906 14.10458,2.46598 3.36372,-3.33971 6.14335,-5.35282 10.97769,-9.69429 -2.28675,3.99742 -3.64216,7.37554 -4.07263,11.07691 9.96154,2.03391 14.44543,3.08847 24.44377,5.26641 -0.37445,-0.6225 -7.03148,-8.68134 3.28051,-21.3569 5.31122,-6.47619 14.70787,-15.95446 24.21974,-24.90304 -10.3536,-4.31746 -20.44316,-8.27487 -20.41595,-8.27487" style="fill:#f89c0e;fill-opacity:1;fill-rule:nonzero;stroke:none;stroke-width:1.60025" id="path2648"></path>
        <path d="m -123.95964,196.91722 c -6.97708,30.31028 -8.62693,58.01535 -6.99468,82.90719 6.07134,-1.80028 12.06906,-3.43253 18.08759,-4.97517 -0.34885,-24.54938 2.77803,-51.77438 11.05451,-81.32934 -7.32593,1.01775 -14.73988,2.14113 -22.14742,3.39732" style="fill:#ffffff;fill-opacity:1;fill-rule:nonzero;stroke:none;stroke-width:1.60025" id="path2652"></path>
        <path d="m 57.241729,226.70629 c -5.70168,10.05755 -14.984712,19.09735 -23.021152,16.95622 -7.383539,-1.96831 -7.689186,-11.40496 -0.05121,-23.38601 7.836409,-12.2723 18.588468,-17.84275 25.127077,-14.75588 5.485646,2.594 3.346116,11.72341 -2.054717,21.18567 m 11.907437,6.55301 c 14.392621,-21.62093 16.292114,-37.5802 1.318604,-42.1185 -18.33723,-5.57046 -39.500495,5.57526 -51.657571,25.83279 -13.2340414,22.0594 -7.71319,35.69351 5.010373,38.99481 14.818287,3.8486 33.205124,-4.46948 45.328594,-22.7091" style="fill:#ffffff;fill-opacity:1;fill-rule:nonzero;stroke:none;stroke-width:1.60025" id="path2656"></path>
        <path d="m 116.44144,222.67127 c -2.29635,3.48374 -5.8025,4.10303 -9.66069,3.48374 -3.44213,-0.6305 -6.12895,-1.06737 -9.59188,-1.58905 2.222742,-3.37652 4.58151,-6.75624 7.02028,-10.14876 3.8902,0.73931 5.36243,1.03216 9.15502,1.83068 2.99406,0.58249 5.01357,3.46773 3.07727,6.42339 m 9.38865,-18.09719 c -5.34643,-1.44983 -16.41053,-4.02462 -26.389673,-6.00573 -14.661462,19.35019 -25.978408,38.44913 -34.667749,56.63594 4.66472,0.17923 9.289433,0.42086 13.837335,0.72651 3.218097,-6.26336 6.80425,-12.59874 10.742457,-19.09414 2.430776,0.30884 4.877553,0.61289 7.341933,0.95694 -1.387414,6.61222 -2.053117,13.16683 -2.40197,19.39019 4.850348,0.47368 9.620687,0.96495 14.365417,1.57945 0.35845,-6.67943 1.01136,-13.69011 2.42757,-20.80321 5.58967,-0.83373 13.07562,-4.44549 18.83171,-12.59714 6.78825,-9.58868 5.8553,-18.1004 -4.08703,-20.78881" style="fill:#ffffff;fill-opacity:1;fill-rule:nonzero;stroke:none;stroke-width:1.60025" id="path2660"></path>
        <path d="m -87.267266,164.04191 c -20.516764,1.65145 -41.758444,4.35107 -63.590614,8.14846 -26.83294,41.40479 -30.26387,82.52633 -30.34708,82.47032 0,0 -8.27648,-16.11769 -12.16668,-42.04008 -2.34916,-15.39758 0.57129,-27.05058 10.84968,-34.3301 -17.70033,3.77338 -35.6167,8.33408 -53.82751,13.6501 11.17453,43.02584 31.0768,81.13092 50.28456,106.2516 6.74344,-2.53959 13.45808,-4.97357 20.21112,-7.34994 8.4461,-45.73185 22.78751,-101.35323 78.586524,-126.80036" style="fill:#ffffff;fill-opacity:1;fill-rule:nonzero;stroke:none;stroke-width:1.60025" id="path2664"></path>
        <path d="m 182.26726,222.52741 c -12.00665,8.24447 -23.16357,16.8826 -33.43236,25.76077 4.66632,-10.25758 10.22398,-20.87522 16.89541,-31.74889 -5.37043,-1.86909 -10.82247,-3.65017 -16.44414,-5.37363 -14.65026,16.2281 -26.52409,32.4418 -36.19758,48.14342 4.13343,0.54569 8.15645,1.08657 12.16667,1.70747 6.23937,-9.51827 13.29646,-19.15336 21.3393,-28.93727 -5.37683,10.43841 -9.79191,20.51197 -13.42287,30.24147 3.02286,0.49288 6.12414,1.05136 9.1214,1.61625 8.92938,-8.48131 18.66688,-16.78819 29.20291,-24.81663 -9.97114,10.91208 -16.57856,21.16967 -17.40269,27.16099 3.79259,0.72491 9.54868,1.9219 16.1945,3.46774 -2.47558,-8.07965 -0.18243,-13.31086 5.99613,-20.20632 6.34978,-7.06189 13.22604,-14.12378 20.67839,-21.14566 -4.78794,-1.98271 -9.6831,-3.97982 -14.69507,-5.86971" style="fill:#ffffff;fill-opacity:1;fill-rule:nonzero;stroke:none;stroke-width:1.60025" id="path2668"></path>
        <path d="m 34.331989,189.21603 c -17.906763,-1.41462 -36.6552555,-1.9219 -55.587777,-1.63385 -2.821235,5.99452 -5.378429,11.60179 -7.64918,17.44589 6.120945,-0.29125 12.296297,-0.32485 18.305225,-0.40006 -8.242872,18.89731 -13.99896,37.23454 -17.810748,54.24357 5.424837,-0.57929 10.904082,-1.3042 16.301715,-1.74427 4.493493,-16.59136 10.7072517,-34.18128 19.5486158,-52.5153 5.9113122,0.072 12.0946662,0.18082 17.8443532,0.48807 2.795631,-5.30002 5.802495,-10.47201 9.047796,-15.88405" style="fill:#ffffff;fill-opacity:1;fill-rule:nonzero;stroke:none;stroke-width:1.60025" id="path2672"></path>
        <path d="m -23.83557,187.4548 c -8.070045,0.10882 -16.276111,0.40006 -24.603796,0.89454 0,0 -5.624868,6.18815 -14.232596,17.00422 -2.805233,-9.7119 -4.239054,-15.73843 -4.27746,-15.73843 -8.642933,0.71211 -16.714579,1.56344 -25.634355,2.70602 0,0 4.671121,15.19755 12.697959,36.12557 -9.066999,12.77798 -19.05734,28.15635 -28.631622,45.27579 7.32593,-1.85309 14.62146,-3.57655 21.851376,-5.11919 4.375075,-7.65878 9.13741,-15.14154 14.005361,-22.24023 2.440376,5.8665 5.003972,11.85463 7.791602,17.92116 7.138701,-1.25459 14.090174,-2.39717 21.081653,-3.43093 -5.12079,-12.83718 -9.433456,-25.3063 -12.937997,-36.10957 17.527505,-22.29144 32.915479,-37.28895 32.889875,-37.28895" style="fill:#ffffff;fill-opacity:1;fill-rule:nonzero;stroke:none;stroke-width:1.60025" id="path2676"></path>
        <path d="M -48.74579,354.13843 C -17.701,337.22382 2.7389535,328.05121 2.7389535,328.05121 c -2.68041354,23.12996 2.1187269,56.4263 13.4532755,75.48364 0,0 -11.1841254,-46.63279 -0.835329,-88.8201 0,0 -38.789985,14.75747 -53.891515,21.12646 -2.885245,-18.1516 -3.584553,-39.4989 -2.544392,-62.2272 -5.077584,0.74091 -10.187172,1.57944 -15.210347,2.52199 -0.462471,30.37108 1.694662,58.03455 7.543564,78.00243" style="fill:#f89c0e;fill-opacity:1;fill-rule:nonzero;stroke:none;stroke-width:1.60025" id="path2680"></path>
        <path d="m -47.391664,177.9815 c 6.445795,-0.31045 12.814777,-0.52648 19.124551,-0.6545 v -52.89616 h 13.658107 C -8.5120653,104.89182 -1.698214,87.30671 5.4948958,73.197333 -3.3928755,75.268052 -12.43107,77.700428 -21.586082,80.531265 -31.251574,99.335766 -40.777844,136.19105 -47.391664,177.9815" style="fill:#f89c0e;fill-opacity:1;fill-rule:nonzero;stroke:none;stroke-width:1.60025" id="path2684"></path>
      </g>
    </g>
  </g>
</svg>
