
<svg xmlns="http://www.w3.org/2000/svg" width="670.15546mm" height="400.00003mm" viewBox="0 0 670.15546 400.00003" version="1.1" id="svg8">
  <defs id="defs2">
    <clipPath clipPathUnits="userSpaceOnUse" id="clipPath26">
      <path d="M 0,1190.551 H 2525.669 V 0 H 0 Z" id="path24"></path>
    </clipPath>
    <clipPath clipPathUnits="userSpaceOnUse" id="clipPath34">
      <path d="M 770.44,672.553 H 85.94 v 48.418 h 684.5 z" id="path32"></path>
    </clipPath>
    <linearGradient x1="0" y1="0" x2="1" y2="0" gradientUnits="userSpaceOnUse" gradientTransform="matrix(710.94849,0,0,-355.92169,75.708496,696.7627)" spreadMethod="pad" id="linearGradient46">
      <stop style="stop-opacity:1;stop-color:#ffffff" offset="0" id="stop40"></stop>
      <stop style="stop-opacity:1;stop-color:#918f90" offset="0.5" id="stop42"></stop>
      <stop style="stop-opacity:1;stop-color:#231f20" offset="1" id="stop44"></stop>
    </linearGradient>
    <clipPath clipPathUnits="userSpaceOnUse" id="clipPath2040">
      <path d="M 770.44,620.187 H 85.94 v 48.418 h 684.5 z" id="path2038"></path>
    </clipPath>
    <linearGradient x1="0" y1="0" x2="1" y2="0" gradientUnits="userSpaceOnUse" gradientTransform="matrix(710.94849,0,0,-355.92169,75.708496,644.39648)" spreadMethod="pad" id="linearGradient2050">
      <stop style="stop-opacity:1;stop-color:#ffffff" offset="0" id="stop2046"></stop>
      <stop style="stop-opacity:1;stop-color:#00698b" offset="1" id="stop2048"></stop>
    </linearGradient>
  </defs>
  
  
  <g id="layer1" transform="translate(358.21789,8.8826402)">
    <g id="g8562" transform="matrix(1.1961562,0,0,1.1961562,70.266639,1.7423845)">
      <g id="g8525">
        <path d="M -78.080159,320.1074 C 187.49282,293.68521 196.42004,23.057237 196.42004,23.057237 65.783759,41.666209 -78.080159,-3.2272969 -78.080159,-3.2272969 c 0,0 -143.898311,44.8935059 -274.534561,26.2845339 0,0 8.94504,270.627973 274.534561,297.050163" style="fill:#00698b;fill-opacity:1;fill-rule:nonzero;stroke:none;stroke-width:1.27459" id="path50"></path>
        <path d="m -346.78987,29.328206 c 0.34287,4.215059 0.99419,10.418475 2.09034,18.094038 2.22796,15.422502 6.39205,36.875079 14.08543,61.018306 15.35371,48.30303 44.79156,107.10992 100.85683,149.80986 37.31864,28.40928 86.44377,49.82744 151.677111,56.4247 C -16.94331,308.48954 30.040539,289.26494 66.435075,263.49407 102.89721,237.65436 128.7025,205.14857 147.00301,172.37001 181.20529,111.16434 188.98408,48.998908 190.62829,29.293792 170.03352,31.881204 149.22971,32.960779 128.7726,32.960779 27.607327,32.944195 -64.886882,6.3677944 -78.080159,2.4102018 -91.2734,6.3677944 -183.78546,32.944209 -284.96601,32.960779 c -20.42528,0 -41.22779,-1.079575 -61.82386,-3.666987 z M -78.62948,325.47086 c -67.27017,-6.68393 -118.70994,-28.94077 -157.67408,-58.61953 -38.96414,-29.69406 -65.45514,-66.72208 -83.4638,-102.77378 C -355.73364,91.974159 -357.9616,23.674138 -357.99603,23.228032 l -0.22184,-6.425193 6.35636,0.90878 c 22.13831,3.152054 44.68702,4.454682 66.89543,4.454682 93.76118,0.01657 180.84094,-23.4409306 200.922082,-29.2492239 2.880575,-0.8399527 4.353994,-1.2847838 4.353994,-1.3026281 l 1.609773,-0.4970888 1.61111,0.4970888 c 0,0.017848 1.473419,0.4626754 4.351429,1.3026281 2.861426,0.8221088 7.093083,2.0049257 12.525377,3.4452088 10.846704,2.86017366 26.474422,6.6813855 45.459415,10.5191673 37.935518,7.6424238 89.357472,15.2848478 142.90542,15.2848478 22.20715,0 44.77371,-1.302628 66.89414,-4.454682 l 6.37294,-0.90878 -0.20522,6.425193 c -0.0361,0.344139 -1.30263,38.827747 -17.10114,88.484388 -15.78066,49.62222 -46.12605,110.5717 -104.624503,155.13891 -38.964103,29.67876 -90.369473,51.9356 -157.657495,58.61953 l -0.531509,0.051 z" style="fill:#bdbcbc;fill-opacity:1;fill-rule:nonzero;stroke:none;stroke-width:1.27459" id="path52"></path>
        <path d="m -165.98332,213.22053 -26.0602,-43.79736 22.29252,-32.72757 h -37.38999 l -18.36681,33.85813 V 136.6956 h -37.39002 v 76.52493 h 37.39002 v -40.02841 l 17.71676,40.02841 z" style="fill:#ffffff;fill-opacity:1;fill-rule:nonzero;stroke:none;stroke-width:1.27459" id="path54"></path>
        <path d="M 3.0358365,213.22053 -26.059133,171.85636 0.29421777,136.6956 H -34.335041 l -9.90483,16.33001 -9.097975,-16.33001 h -38.946291 l 25.649791,37.04459 -28.581345,39.48034 h 37.869255 l 9.836002,-18.26611 9.183386,18.26611 z" style="fill:#ffffff;fill-opacity:1;fill-rule:nonzero;stroke:none;stroke-width:1.27459" id="path56"></path>
        <path d="M 106.71969,213.22053 77.606841,171.83851 103.99336,136.6956 H 69.330933 L 59.443987,153.02561 50.328128,136.6956 H 11.397156 l 25.65232,37.02803 -28.6335893,39.4969 H 46.352705 l 9.767139,-18.26611 9.219082,18.26611 z" style="fill:#ffffff;fill-opacity:1;fill-rule:nonzero;stroke:none;stroke-width:1.27459" id="path58"></path>
        <path d="m -111.08302,213.22053 h -37.35433 V 136.6956 h 37.35433 z" style="fill:#ffffff;fill-opacity:1;fill-rule:nonzero;stroke:none;stroke-width:1.27459" id="path60"></path>
        <path d="m -111.08302,115.3794 -37.35433,13.39974 v -13.60495 l 37.35433,-13.43414 z" style="fill:#ffffff;fill-opacity:1;fill-rule:nonzero;stroke:none;stroke-width:1.27459" id="path62"></path>
        <path d="m -147.64712,86.113608 c -9.59635,0 -16.00499,-7.368387 -16.00499,-18.282676 0,-10.846736 6.5463,-18.385919 16.27904,-18.385919 3.97416,0 7.26513,1.199387 9.92138,3.015673 l -0.56591,3.59816 c -2.77731,-1.988356 -5.84399,-3.427365 -9.42556,-3.427365 -7.7788,0 -12.60949,6.134588 -12.60949,15.112779 0,9.048292 4.86509,15.148468 12.55851,15.148468 3.78805,0 7.21415,-1.491267 10.07561,-3.701402 l 0.53021,3.392953 c -2.67152,2.003648 -6.54499,3.529329 -10.7588,3.529329" style="fill:#ffffff;fill-opacity:1;fill-rule:nonzero;stroke:none;stroke-width:1.27459" id="path64"></path>
        <path d="m -116.73708,72.200216 c -9.86787,0.994179 -12.64519,3.391678 -12.64519,6.784627 0,2.707223 1.86727,4.096524 4.52352,4.096524 2.70592,0 5.67317,-1.491267 8.12167,-3.788075 z m 0.78897,13.313063 -0.58249,-3.341966 c -2.33122,2.159148 -5.26024,3.873467 -8.87625,3.873467 -4.35269,0 -7.47035,-2.398773 -7.47035,-6.853454 0,-5.894965 4.76313,-8.635326 16.14012,-9.767161 v -1.628922 c 0,-3.408247 -2.02025,-4.831957 -5.20797,-4.831957 -2.98127,0 -5.89371,0.908778 -8.63659,2.229251 l -0.49711,-3.136758 c 2.93029,-1.266939 5.77516,-2.192291 9.33889,-2.192291 5.58653,0 8.43014,2.603982 8.43014,7.744392 v 17.905399 z" style="fill:#ffffff;fill-opacity:1;fill-rule:nonzero;stroke:none;stroke-width:1.27459" id="path66"></path>
        <path d="M -106.11341,85.513279 V 48.416422 l 3.46176,-0.634745 v 37.731602 z" style="fill:#ffffff;fill-opacity:1;fill-rule:nonzero;stroke:none;stroke-width:1.27459" id="path68"></path>
        <path d="m -87.470028,85.941539 c -3.941027,0 -6.528443,-1.54225 -6.528443,-6.169 V 63.374976 h -3.855616 v -2.963417 h 3.855616 v -8.705428 l 3.443951,-0.582487 v 9.287915 h 5.791715 l 0.479265,2.963417 h -6.27098 v 15.81635 c 0,2.569568 1.028585,3.665713 3.71796,3.665713 0.804255,0 1.765313,-0.170787 2.347802,-0.272746 l 0.51366,2.929 c -0.718879,0.206483 -2.021511,0.42826 -3.49493,0.42826" style="fill:#ffffff;fill-opacity:1;fill-rule:nonzero;stroke:none;stroke-width:1.27459" id="path70"></path>
        <path d="m -70.678633,62.672677 c -3.923179,0 -6.492747,2.912431 -7.160611,7.778806 h 13.671206 c -0.376006,-4.522237 -2.49944,-7.778806 -6.510595,-7.778806 m 10.144444,10.521718 h -17.478406 c 0.103331,6.167725 2.982533,9.818144 8.020974,9.818144 3.324143,0 6.270981,-1.491267 8.840548,-3.719247 l 0.548057,3.18647 c -2.50074,2.12601 -5.722888,3.565018 -9.595088,3.565018 -6.615083,0 -11.309385,-4.45468 -11.309385,-13.125696 0,-8.052841 4.661135,-13.055596 10.828856,-13.055596 6.854733,0 10.144444,5.619654 10.144444,12.609488 z" style="fill:#ffffff;fill-opacity:1;fill-rule:nonzero;stroke:none;stroke-width:1.27459" id="path72"></path>
        <path d="m -41.050854,85.890556 -7.214155,-10.743495 -6.787171,10.366218 h -3.76894 l 8.756402,-12.902647 -8.242741,-11.942879 3.461763,-0.702299 6.646985,9.937958 6.375469,-9.491853 h 3.752392 l -8.275908,12.097106 8.738589,12.730578 z" style="fill:#ffffff;fill-opacity:1;fill-rule:nonzero;stroke:none;stroke-width:1.27459" id="path74"></path>
        <path d="m -218.69003,86.21685 c -11.65103,0 -18.05963,-7.642423 -18.05963,-18.986247 0,-11.376966 6.95796,-19.088218 18.26612,-19.088218 4.52478,0 8.29372,1.063006 11.24056,2.723793 l -1.23381,7.899891 c -2.74162,-1.747459 -5.9969,-3.118915 -9.76587,-3.118915 -6.34108,0 -9.42557,4.659892 -9.42557,11.531191 0,6.906984 3.18775,11.772084 9.52753,11.772084 2.02151,0 3.44395,-0.376002 4.93521,-1.181542 v -6.56285 h -6.3742 l -1.06302,-6.733644 h 15.35241 v 17.872261 c -3.83777,2.500739 -8.32689,3.872196 -13.39973,3.872196" style="fill:#ffffff;fill-opacity:1;fill-rule:nonzero;stroke:none;stroke-width:1.27459" id="path76"></path>
        <path d="m -187.84759,85.941539 c -4.93518,0 -9.08016,-1.061732 -12.81597,-2.758206 l 1.33833,-7.762237 c 3.76894,2.021497 7.98401,3.410798 11.65099,3.410798 2.604,0 4.42026,-1.131835 4.42026,-3.307556 0,-2.073752 -1.06172,-3.015673 -6.23782,-5.004027 -7.35054,-2.809189 -10.52045,-5.209238 -10.52045,-11.257153 0,-7.076508 5.51641,-10.846736 12.54196,-10.846736 4.7988,0 7.88332,0.890936 11.06978,2.449756 l -1.38675,7.660268 c -3.30882,-1.918253 -6.76805,-2.981259 -9.5798,-2.981259 -2.77479,0 -4.07742,1.164973 -4.07742,2.844878 0,1.883839 0.99419,2.792621 5.55084,4.556648 8.01971,2.895865 11.18961,5.671915 11.18961,11.514621 0,7.985289 -5.84143,11.480205 -13.14356,11.480205" style="fill:#ffffff;fill-opacity:1;fill-rule:nonzero;stroke:none;stroke-width:1.27459" id="path78"></path>
        <path d="m -15.332236,85.7529 c -3.940991,0 -7.094348,-0.976334 -9.355437,-2.210135 l 0.514925,-3.581588 c 2.156601,1.389301 5.414446,2.674085 9.010034,2.674085 4.14751,0 7.2664351,-2.347791 7.2664351,-6.357642 0,-3.478346 -1.7474649,-5.209238 -7.1287801,-7.573595 -6.751473,-2.963417 -9.183385,-5.209238 -9.183385,-10.229837 0,-5.329048 4.283901,-8.85838 10.110012,-8.85838 3.324143,0 5.9625388,0.78897 7.7788314,1.850701 l -0.497113,3.529331 c -2.0036269,-1.335767 -4.4712354,-2.244548 -7.4193734,-2.244548 -4.14621,0 -6.459579,2.449757 -6.459579,5.535532 0,3.22088 1.696449,4.76313 7.110895,7.161904 6.5628749,2.843603 9.2190823,5.414446 9.2190823,10.58927 0,6.031345 -4.7643945,9.714902 -10.9665473,9.714902" style="fill:#ffffff;fill-opacity:1;fill-rule:nonzero;stroke:none;stroke-width:1.27459" id="path80"></path>
        <path d="m 10.266575,63.323993 c -3.7855235,0 -6.2365485,2.827034 -6.9209957,7.504767 H 16.571951 C 16.194682,66.476046 14.156623,63.323993 10.266575,63.323993 M 20.03375,73.468431 H 3.2079239 c 0.1018866,5.962517 2.861462,9.491849 7.7099671,9.491849 3.238732,0 6.067027,-1.439008 8.566502,-3.59816 l 0.514925,3.066659 c -2.433177,2.057182 -5.532952,3.427363 -9.286609,3.427363 -6.3410731,0 -10.87990781,-4.301732 -10.87990781,-12.628608 0,-7.778806 4.50696801,-12.610764 10.43377381,-12.610764 6.615119,0 9.767175,5.431015 9.767175,12.131517 z" style="fill:#ffffff;fill-opacity:1;fill-rule:nonzero;stroke:none;stroke-width:1.27459" id="path82"></path>
        <path d="m 34.785821,63.494787 c -4.812845,0 -7.418109,4.044265 -7.418109,9.767161 0,5.585239 2.656244,9.732746 7.418109,9.732746 4.919898,0 7.523898,-3.993282 7.523898,-9.732746 0,-5.568671 -2.674092,-9.767161 -7.523898,-9.767161 m 0,22.361355 c -6.184305,0 -10.845476,-4.610181 -10.845476,-12.594194 0,-8.018428 4.76313,-12.645178 10.845476,-12.645178 6.288793,0 11.002244,4.62675 11.002244,12.645178 0,7.984013 -4.81541,12.594194 -11.002244,12.594194" style="fill:#ffffff;fill-opacity:1;fill-rule:nonzero;stroke:none;stroke-width:1.27459" id="path84"></path>
        <path d="m 67.429265,85.359054 -0.548056,-3.59816 c -2.674092,2.365635 -5.433595,4.095248 -8.706723,4.095248 -4.863824,0 -7.229438,-2.810465 -7.229438,-7.41937 V 61.130427 h 3.392935 V 77.81987 c 0,3.118914 1.421175,4.968341 4.489084,4.968341 2.569567,0 5.174831,-1.54225 7.847659,-4.144956 V 61.130427 h 3.359803 v 24.228627 z" style="fill:#ffffff;fill-opacity:1;fill-rule:nonzero;stroke:none;stroke-width:1.27459" id="path86"></path>
        <path d="M 77.265268,85.359054 V 49.205391 l 3.322842,-0.618175 v 36.771838 z" style="fill:#ffffff;fill-opacity:1;fill-rule:nonzero;stroke:none;stroke-width:1.27459" id="path88"></path>
        <path d="m -178.59281,267.4848 h -2.36562 l -10.07561,-25.73519 2.55428,-0.58248 8.75514,22.96041 8.5665,-22.70422 h 2.70849 z" style="fill:#ffffff;fill-opacity:1;fill-rule:nonzero;stroke:none;stroke-width:1.27459" id="path90"></path>
        <path d="m -161.01241,251.29372 c -3.56376,0 -5.45014,2.96469 -5.45014,7.17975 0,4.06083 1.95395,7.12749 5.45014,7.12749 3.59815,0 5.51767,-2.91371 5.51767,-7.12749 0,-4.11182 -1.95395,-7.17975 -5.51767,-7.17975 m 0,16.41541 c -4.54136,0 -7.96873,-3.4108 -7.96873,-9.23566 0,-5.89497 3.47835,-9.27007 7.96873,-9.27007 4.60889,0 8.05284,3.3751 8.05284,9.27007 0,5.82486 -3.52936,9.23566 -8.05284,9.23566" style="fill:#ffffff;fill-opacity:1;fill-rule:nonzero;stroke:none;stroke-width:1.27459" id="path92"></path>
        <path d="m -148.77893,267.33185 v -26.49102 l 2.46758,-0.46268 v 26.9537 z" style="fill:#ffffff;fill-opacity:1;fill-rule:nonzero;stroke:none;stroke-width:1.27459" id="path94"></path>
        <path d="m -140.75925,267.33185 v -26.49102 l 2.46761,-0.46268 v 26.9537 z" style="fill:#ffffff;fill-opacity:1;fill-rule:nonzero;stroke:none;stroke-width:1.27459" id="path96"></path>
        <path d="m -126.401,251.19048 c -2.77605,0 -4.59234,2.05718 -5.07287,5.48327 h 9.66518 c -0.25761,-3.1699 -1.74743,-5.48327 -4.59231,-5.48327 m 7.16318,7.43594 h -12.3546 c 0.0853,4.33614 2.10819,6.94013 5.65537,6.94013 2.38093,0 4.43684,-1.04517 6.27094,-2.63967 l 0.39385,2.24582 c -1.78186,1.50784 -4.06083,2.53643 -6.80245,2.53643 -4.67775,0 -8.00186,-3.15333 -8.00186,-9.28665 0,-5.70632 3.29097,-9.21908 7.67557,-9.21908 4.83196,0 7.16318,3.97416 7.16318,8.89279 z" style="fill:#ffffff;fill-opacity:1;fill-rule:nonzero;stroke:none;stroke-width:1.27459" id="path98"></path>
        <path d="m -109.19664,269.50757 c -1.2695,3.47962 -2.86146,4.55792 -5.50112,4.55792 -0.36058,0 -0.68445,-0.0688 -0.94318,-0.10322 l -0.34142,-2.17572 c 0.37727,0.0688 0.89093,0.15424 1.43902,0.15424 1.47342,0 2.34776,-0.65132 3.03225,-2.36436 l 0.84121,-2.12474 -6.73492,-17.63136 2.38093,-0.47924 5.51897,15.14591 5.25894,-14.891 h 2.55429 z" style="fill:#ffffff;fill-opacity:1;fill-rule:nonzero;stroke:none;stroke-width:1.27459" id="path100"></path>
        <path d="m -90.743155,251.39569 c -2.004928,0 -3.632586,1.25164 -5.227076,3.0845 v 10.22983 c 1.131809,0.42826 2.296786,0.68573 4.114343,0.68573 3.512778,0 5.996934,-2.27896 5.996934,-7.33397 0,-4.30046 -2.091603,-6.66609 -4.884201,-6.66609 m -1.250388,16.15921 c -2.467609,0 -4.455953,-0.48052 -6.444297,-1.16497 v -25.5491 l 2.467609,-0.46268 v 11.51463 c 1.269465,-1.37146 2.999081,-2.68938 5.484538,-2.68938 3.8722,0 7.127479,2.80919 7.127479,8.73856 0,6.47618 -3.71796,9.61294 -8.635329,9.61294" style="fill:#ffffff;fill-opacity:1;fill-rule:nonzero;stroke:none;stroke-width:1.27459" id="path102"></path>
        <path d="m -69.119803,257.90755 c -6.971976,0.71887 -8.927188,2.39877 -8.927188,4.81539 0,1.88384 1.337028,2.87802 3.186451,2.87802 1.920817,0 4.045552,-1.04516 5.740737,-2.67408 z m 0.583753,9.4243 -0.42825,-2.38221 c -1.645506,1.5601 -3.701413,2.75949 -6.254397,2.75949 -3.067945,0 -5.294638,-1.69648 -5.294638,-4.84981 0,-4.14623 3.375122,-6.10017 11.393532,-6.90443 v -1.14841 c 0,-2.43446 -1.404591,-3.44393 -3.665717,-3.44393 -2.106886,0 -4.164058,0.65004 -6.118006,1.59323 l -0.341429,-2.21013 c 2.07372,-0.89222 4.093966,-1.54225 6.613819,-1.54225 3.941027,0 5.963803,1.83285 5.963803,5.48327 v 12.64518 z" style="fill:#ffffff;fill-opacity:1;fill-rule:nonzero;stroke:none;stroke-width:1.27459" id="path104"></path>
        <path d="m -61.528343,267.33185 v -26.49102 l 2.433177,-0.46268 v 26.9537 z" style="fill:#ffffff;fill-opacity:1;fill-rule:nonzero;stroke:none;stroke-width:1.27459" id="path106"></path>
        <path d="m -53.509933,267.33185 v -26.49102 l 2.434477,-0.46268 v 26.9537 z" style="fill:#ffffff;fill-opacity:1;fill-rule:nonzero;stroke:none;stroke-width:1.27459" id="path108"></path>
        <path d="m -32.398941,243.77111 v 23.56074 h -2.536436 v -23.56074 h -8.394415 v -2.34779 h 19.034672 l 0.395118,2.34779 z" style="fill:#ffffff;fill-opacity:1;fill-rule:nonzero;stroke:none;stroke-width:1.27459" id="path110"></path>
        <path d="m -18.946937,251.19048 c -2.742919,0 -4.542628,2.05718 -5.056289,5.48327 h 9.681764 c -0.256162,-3.1699 -1.765314,-5.48327 -4.625475,-5.48327 m 7.195042,7.43594 h -12.354591 c 0.07009,4.33614 2.108188,6.94013 5.655361,6.94013 2.364349,0 4.420256,-1.04517 6.270945,-2.63967 l 0.395118,2.24582 c -1.765277,1.50784 -4.060835,2.53643 -6.803718,2.53643 -4.659906,0 -7.985314,-3.15333 -7.985314,-9.28665 0,-5.70632 3.291012,-9.21908 7.627157,-9.21908 4.848505,0 7.195042,3.97416 7.195042,8.89279 z" style="fill:#ffffff;fill-opacity:1;fill-rule:nonzero;stroke:none;stroke-width:1.27459" id="path112"></path>
        <path d="m 2.4533844,257.90755 c -6.9745406,0.71887 -8.9272241,2.39877 -8.9272241,4.81539 0,1.88384 1.302632,2.87802 3.1711687,2.87802 1.916987,0 4.00859044,-1.04516 5.7560554,-2.67408 z m 0.5480564,9.4243 -0.410401,-2.38221 c -1.64550601,1.5601 -3.7179967,2.75949 -6.2365848,2.75949 -3.1023409,0 -5.3124509,-1.69648 -5.3124509,-4.84981 0,-4.14623 3.3916703,-6.10017 11.4113803,-6.90443 v -1.14841 c 0,-2.43446 -1.4046271,-3.44393 -3.6835648,-3.44393 -2.1081871,0 -4.1640941,0.65004 -6.1167414,1.59323 l -0.3096343,-2.21013 c 2.0572076,-0.89222 4.0786827,-1.54225 6.5628389,-1.54225 3.9576109,0 5.9803867,1.83285 5.9803867,5.48327 v 12.64518 z" style="fill:#ffffff;fill-opacity:1;fill-rule:nonzero;stroke:none;stroke-width:1.27459" id="path114"></path>
        <path d="m 32.370456,267.33185 v -12.23476 c 0,-2.27896 -0.924061,-3.7014 -3.203035,-3.7014 -1.850688,0 -3.684829,1.13183 -5.637477,3.06793 v 12.86823 h -2.434477 v -12.23476 c 0,-2.27896 -0.958493,-3.7014 -3.254015,-3.7014 -1.835405,0 -3.701413,1.13183 -5.620929,2.9991 v 12.93706 H 9.7529145 v -17.73588 h 1.9195525 l 0.428249,2.53643 c 1.918252,-1.71305 3.890048,-2.929 6.254397,-2.929 2.740354,0 4.231621,1.11399 4.881672,3.0845 1.953948,-1.76658 4.01112,-3.0845 6.426448,-3.0845 3.54721,0 5.19268,2.02149 5.19268,5.41444 v 12.71401 z" style="fill:#ffffff;fill-opacity:1;fill-rule:nonzero;stroke:none;stroke-width:1.27459" id="path116"></path>
      </g>
    </g>
  </g>
</svg>
