
<svg id="master-artboard" viewBox="0 0 965.7241821289062 971.4994506835938" version="1.1" xmlns="http://www.w3.org/2000/svg" x="0px" y="0px" style="enable-background:new 0 0 1400 980" width="965.7241821289062px" height="971.4994506835938px"><defs><style id="ee-google-fonts">@import url(https://fonts.googleapis.com/css?family=Anton:400|Roboto+Slab:100,300,400,700);</style><path id="text-path-0" d="M 778.8464965820312 213.4612274169922 A 100 18 0 0 1 988.3533935546875 213.4612274169922 A 100 18 0 0 1 778.8464965820312 213.4612274169922 Z" style="fill:none;stroke:red;stroke-width:2"></path><path id="text-path-1" d="M 664.5464477539062 37.96122741699219 A 100 19 0 0 1 876.5812377929688 37.96122741699219 A 100 19 0 0 1 664.5464477539062 37.96122741699219" style="fill:none;stroke:red;stroke-width:2"></path><path id="text-path-2" d="M 765.3650512695312 211.70851135253906 A 100 17 0 0 1 991.5017700195312 211.70851135253906 A 100 17 0 0 1 765.3650512695312 211.70851135253906" style="fill:none;stroke:red;stroke-width:2"></path><path id="path-1" d="M 765.3650512695312 211.70851135253906 A 100 17 0 0 1 991.5017700195312 211.70851135253906 A 100 17 0 0 1 765.3650512695312 211.70851135253906" style="fill:none;stroke:red;stroke-width:2"></path><clipPath clipPathUnits="userSpaceOnUse" id="clipPath207"><path d="M 0,841.89 H 595.28 V 0 H 0 Z" id="path205"></path></clipPath><radialGradient fx="0" fy="0" cx="0" cy="0" r="1" gradientUnits="userSpaceOnUse" gradientTransform="matrix(101.36382,0,0,101.36382,287.89795,452.63721)" spreadMethod="pad" id="radialGradient235"><stop style="stop-opacity:1;stop-color:#009633" offset="0" id="stop229"></stop><stop style="stop-opacity:1;stop-color:#009633" offset="0.0513324" id="stop231"></stop><stop style="stop-opacity:1;stop-color:#005226" offset="1" id="stop233"></stop></radialGradient><clipPath clipPathUnits="userSpaceOnUse" id="clipPath245"><path d="M 0,841.89 H 595.28 V 0 H 0 Z" id="path243"></path></clipPath></defs><rect id="ee-background" x="0" y="0" width="965.7241821289062" height="971.4994506835938" style="fill:rgb(6, 75, 7);fill-opacity:0;pointer-events:none"></rect>


<path d="M 880.3870239257812 239.90606689453125" style="fill:rgb(63, 61, 61);fill-opacity:1;stroke:rgb(0, 0, 0);stroke-opacity:1;stroke-width:0"></path><path d="M 864.144775390625 229.48651123046875" style="fill:rgb(63, 61, 61);fill-opacity:1;stroke:rgb(0, 0, 0);stroke-opacity:1;stroke-width:0"></path><g transform="matrix(3.158525943756103, 0, 0, 3.158525943756103, -730.1365241137561, -1153.4598641829245)"><g id="g199" transform="matrix(1.3333333,0,0,-1.3333333,0,1122.52)"><g id="g201"><g id="g203" clip-path="url(#clipPath207)"><g id="g209" transform="translate(179.4688,452.7109)"><path d="m 0,0 c 0,59.858 48.524,108.382 108.382,108.382 59.857,0 108.383,-48.524 108.383,-108.382 0,-59.857 -48.526,-108.383 -108.383,-108.383 C 48.524,-108.383 0,-59.857 0,0" style="fill:#00205b;fill-opacity:1;fill-rule:nonzero;stroke:none" id="path211"></path></g><g id="g213" transform="translate(287.8501,565.2896)"><path d="m 0,0 c -30.071,0 -58.342,-11.71 -79.605,-32.972 -21.264,-21.265 -32.974,-49.536 -32.974,-79.607 0,-30.07 11.71,-58.341 32.974,-79.605 21.263,-21.264 49.534,-32.973 79.605,-32.973 30.072,0 58.341,11.709 79.606,32.973 21.263,21.264 32.974,49.535 32.974,79.605 0,30.071 -11.711,58.342 -32.974,79.607 C 58.341,-11.71 30.072,0 0,0 m 0,-4.196 c 59.858,0 108.382,-48.525 108.382,-108.383 0,-59.858 -48.524,-108.38 -108.382,-108.38 -59.857,0 -108.382,48.522 -108.382,108.38 0,59.858 48.525,108.383 108.382,108.383" style="fill:#b5b5b6;fill-opacity:1;fill-rule:nonzero;stroke:none" id="path215"></path></g></g></g><g id="g217"><g id="g219"><g id="g225"><g id="g227"><path d="m 186.478,452.711 c 0,-55.897 45.475,-101.374 101.372,-101.374 v 0 c 55.897,0 101.372,45.477 101.372,101.374 v 0 c 0,55.896 -45.475,101.372 -101.372,101.372 v 0 c -55.897,0 -101.372,-45.476 -101.372,-101.372" style="fill:url(#radialGradient235);stroke:none" id="path237"></path></g></g></g></g><g id="g239"><g id="g241" clip-path="url(#clipPath245)"><g id="g247" transform="translate(380.2842,456.4976)"><path d="m 0,0 c -6.398,6.004 -14.126,8.701 -22.818,7.912 -2.146,6.66 -4.861,13.142 -8.127,19.422 9.16,2.163 17.202,3.663 23.766,4.702 -0.819,1.951 -1.707,3.866 -2.652,5.747 -6.52,-1.079 -14.709,-2.656 -24.129,-4.934 -3.206,5.573 -6.606,10.642 -10.154,15.25 0.867,0.529 1.718,1.103 2.551,1.73 4.666,3.506 9.151,9.157 8.237,17.641 -2.57,2.158 -5.253,4.183 -8.048,6.058 3.707,-8.062 2.469,-14.068 -3.855,-18.824 -0.895,-0.672 -1.819,-1.27 -2.762,-1.811 -17.498,20.555 -37.977,30.867 -56.268,35.843 -5.225,-0.601 -10.32,-1.63 -15.247,-3.057 19.719,-2.863 44.74,-11.636 65.61,-35.313 -9.119,-2.756 -19.581,-1.383 -29.071,0.284 -1.606,0.284 -3.225,0.574 -4.853,0.865 -19.038,3.413 -38.724,6.943 -57.594,1.716 -12.464,-3.451 -24.67,-11.147 -34.362,-21.294 -2.224,-5.307 -3.97,-10.862 -5.19,-16.613 9.448,15.37 25.097,27.574 41.18,32.028 17.532,4.855 36.523,1.451 54.889,-1.842 1.635,-0.294 3.26,-0.585 4.875,-0.868 11.761,-2.065 23.85,-3.243 34.302,0.714 3.346,-4.249 6.561,-8.921 9.602,-14.056 -11.569,-3.018 -24.666,-7.042 -38.587,-12.407 -38.214,-14.724 -71.946,-35.194 -100.355,-60.878 0.86,-1.943 1.784,-3.852 2.768,-5.725 47.317,43.315 101.301,63.868 139.246,73.545 0.11,-0.208 0.223,-0.411 0.334,-0.62 3.166,-5.994 5.785,-12.15 7.871,-18.453 -14.552,-4.491 -24.308,-21.336 -35.48,-40.637 -13.315,-23 -28.383,-49.005 -55.063,-60.234 3.094,-0.891 6.255,-1.629 9.472,-2.199 24.133,13.207 38.261,37.593 50.87,59.377 10.511,18.156 19.682,33.995 31.971,37.854 6.17,-22.458 5.68,-46.737 -1.499,-72.51 3.063,2.949 5.928,6.105 8.567,9.449 2.461,11.841 3.543,23.486 3.206,34.767 -0.3,10.05 -1.73,19.837 -4.261,29.295 8.43,0.416 15.352,-3.238 21.024,-11.105 0.087,1.651 0.133,3.312 0.133,4.985 C 0.099,-2.79 0.063,-1.392 0,0" style="fill:#005226;fill-opacity:1;fill-rule:nonzero;stroke:none" id="path249"></path></g><g id="g251" transform="translate(238.5415,518.7505)"><path d="m 0,0 -3.044,-2.39 6.018,-7.664 3.044,2.39 z M 8.276,-9.181 2.427,-13.774 -6.788,-2.038 -0.938,2.555 1.681,2.24 8.59,-6.563 Z" style="fill:#ffffff;fill-opacity:1;fill-rule:nonzero;stroke:none" id="path253"></path></g><g id="g255" transform="translate(255.6626,521.9941)"><path d="m 0,0 -3.467,-1.723 1.648,-3.32 3.468,1.722 z M -2.687,5.409 -6.153,3.687 -4.608,0.576 -1.141,2.297 Z M 3.551,-5.267 -3.09,-8.563 -9.728,4.802 -3.086,8.1 -0.585,7.258 1.334,3.396 0.807,1.833 2.371,1.307 4.392,-2.766 Z" style="fill:#ffffff;fill-opacity:1;fill-rule:nonzero;stroke:none" id="path257"></path></g><g id="g259" transform="translate(279.1245,534.6675)"><path d="m 0,0 -3.839,-0.496 0.513,-3.956 3.838,0.497 z m 1.678,-6.412 -4.672,-0.606 0.741,-5.712 -2.684,-0.346 -1.917,14.799 7.353,0.952 2.09,-1.61 0.698,-5.389 z" style="fill:#ffffff;fill-opacity:1;fill-rule:nonzero;stroke:none" id="path261"></path></g><g id="g263" transform="translate(295.8965,534.751)"><path d="m 0,0 -3.861,0.273 -0.273,-3.859 3.861,-0.275 z m -0.707,-12.315 -1.827,5.902 -1.791,0.127 -0.406,-5.744 -2.7,0.191 L -6.375,3.046 1.021,2.522 2.75,0.53 2.366,-4.889 0.373,-6.618 2.291,-12.527 Z" style="fill:#ffffff;fill-opacity:1;fill-rule:nonzero;stroke:none" id="path265"></path></g><g id="g267" transform="translate(312.0391,531.5229)"><path d="m 0,0 -3.727,1.048 -2.635,-9.381 3.725,-1.047 z m -2.529,-12.099 -5.342,1.5 -1.29,2.302 3.027,10.771 2.3,1.292 5.341,-1.502 1.292,-2.299 -3.028,-10.774 z" style="fill:#ffffff;fill-opacity:1;fill-rule:nonzero;stroke:none" id="path269"></path></g><g id="g271" transform="translate(325.6406,511.9824)"><path d="m 0,0 -2.303,1.23 3.657,6.901 -4.407,-3.7 -1.193,0.636 0.621,5.721 -3.677,-6.89 -2.324,1.241 7.025,13.163 2.18,-1.163 -0.847,-7.926 6.114,5.115 2.179,-1.163 z" style="fill:#ffffff;fill-opacity:1;fill-rule:nonzero;stroke:none" id="path273"></path></g><g id="g275" transform="translate(338.1152,509.9766)"><path d="m 0,0 -3.943,-4.664 -2.047,1.73 3.926,4.68 2.432,9.483 L 2.771,9.198 0.868,3.083 6.51,6.037 8.859,4.05 Z" style="fill:#ffffff;fill-opacity:1;fill-rule:nonzero;stroke:none" id="path277"></path></g><g id="g279" transform="translate(218.3882,421.0122)"><path d="M 0,0 -1.098,2.527 -3.699,1.395 -2.601,-1.13 Z M -4.052,-2.413 -5.388,0.659 -9.145,-0.976 -9.913,0.79 -0.178,5.026 1.927,0.189 1.24,-1.558 -2.304,-3.101 Z" style="fill:#ffffff;fill-opacity:1;fill-rule:nonzero;stroke:none" id="path281"></path></g><g id="g283" transform="translate(223.4033,411.7803)"><path d="M 0,0 -1.433,2.352 -3.784,0.92 -2.352,-1.432 Z m -7.435,-4.663 2.672,3.491 -0.665,1.092 -3.499,-2.131 -1.001,1.644 9.068,5.521 2.744,-4.506 -0.444,-1.824 -3.302,-2.01 -1.823,0.444 -2.637,-3.548 z" style="fill:#ffffff;fill-opacity:1;fill-rule:nonzero;stroke:none" id="path285"></path></g><g id="g287" transform="translate(229.4819,403.5176)"><path d="m 0,0 -1.738,2.137 -5.38,-4.375 1.738,-2.139 z m -6.433,-6.001 -2.491,3.063 0.193,1.869 6.179,5.024 1.866,-0.193 2.492,-3.064 -0.193,-1.866 -6.178,-5.025 z" style="fill:#ffffff;fill-opacity:1;fill-rule:nonzero;stroke:none" id="path289"></path></g><g id="g291" transform="translate(241.7974,391.8223)"><path d="m 0,0 -2.165,1.704 -1.529,-1.942 2.164,-1.705 z m -2.658,-3.377 -2.164,1.705 -1.631,-2.074 2.164,-1.701 z m -2.3,-3.889 -4.146,3.264 6.566,8.343 4.146,-3.262 0.222,-1.864 -1.897,-2.412 -1.166,-0.139 0.139,-1.166 -2,-2.539 z" style="fill:#ffffff;fill-opacity:1;fill-rule:nonzero;stroke:none" id="path293"></path></g><g id="g295" transform="translate(248.585,385.7949)"><path d="m 0,0 -2.33,-2.324 1.415,-0.834 z m -2.032,-7.543 0.678,2.623 -2.288,1.346 -1.893,-1.906 -1.658,0.974 8.001,7.61 L 2.323,2.211 -0.43,-8.486 Z" style="fill:#ffffff;fill-opacity:1;fill-rule:nonzero;stroke:none" id="path297"></path></g><g id="g299" transform="translate(256.8706,373.3965)"><path d="m 0,0 -4.055,1.695 -0.454,1.108 0.428,1.025 4.208,-1.762 0.949,2.266 -3.015,1.262 -0.713,1.736 1.37,3.275 1.737,0.713 L 4.511,9.621 4.965,8.514 4.537,7.488 0.328,9.25 -0.556,7.137 2.458,5.875 3.165,4.125 1.737,0.711 Z" style="fill:#ffffff;fill-opacity:1;fill-rule:nonzero;stroke:none" id="path301"></path></g><g id="g303" transform="translate(269.1689,369.6191)"><path d="M 0,0 -0.758,6.055 -3.634,3.795 -4.323,1.109 -6.188,1.59 -3.547,11.877 -1.682,11.396 -2.924,6.559 1.998,10.451 4.185,9.893 1.037,7.377 1.929,-0.494 Z" style="fill:#ffffff;fill-opacity:1;fill-rule:nonzero;stroke:none" id="path305"></path></g><g id="g307" transform="translate(275.3784,368.4531)"><path d="M 0,0 1.156,10.553 7.735,9.832 7.535,8.002 2.885,8.512 2.612,6.021 5.762,5.678 5.552,3.766 2.402,4.109 2.129,1.619 6.78,1.109 6.578,-0.719 Z" style="fill:#ffffff;fill-opacity:1;fill-rule:nonzero;stroke:none" id="path309"></path></g><g id="g311" transform="translate(293.2822,376.4824)"><path d="m 0,0 -2.753,-0.061 0.191,-8.777 -1.924,-0.041 -0.192,8.775 -2.753,-0.078 -0.041,1.858 7.432,0.164 z" style="fill:#ffffff;fill-opacity:1;fill-rule:nonzero;stroke:none" id="path313"></path></g><g id="g315" transform="translate(301.8057,373.2695)"><path d="m 0,0 -2.72,-0.426 0.408,-2.605 2.719,0.424 z m -0.665,4.244 -2.72,-0.426 0.383,-2.441 2.72,0.426 z M 1.282,-4.332 -3.929,-5.148 -5.571,5.338 -0.36,6.154 1.155,5.051 1.631,2.018 0.94,1.07 1.888,0.381 2.389,-2.816 Z" style="fill:#ffffff;fill-opacity:1;fill-rule:nonzero;stroke:none" id="path317"></path></g><g id="g319" transform="translate(310.1855,378.3945)"><path d="m 0,0 0.121,-3.289 1.573,0.473 z M 4.152,-6.615 2.689,-4.336 0.146,-5.1 0.26,-7.785 -1.584,-8.34 -1.731,2.705 -0.047,3.211 5.932,-6.08 Z" style="fill:#ffffff;fill-opacity:1;fill-rule:nonzero;stroke:none" id="path321"></path></g><g id="g323" transform="translate(320.0625,373.8574)"><path d="m 0,0 -4.347,9.684 1.755,0.787 3.593,-8.004 3.89,1.744 0.753,-1.68 z" style="fill:#ffffff;fill-opacity:1;fill-rule:nonzero;stroke:none" id="path325"></path></g><g id="g327" transform="translate(329.7158,378.5391)"><path d="m 0,0 -5.535,9.061 1.643,1.003 4.575,-7.49 3.638,2.223 0.961,-1.572 z" style="fill:#ffffff;fill-opacity:1;fill-rule:nonzero;stroke:none" id="path329"></path></g><g id="g331" transform="translate(348.0039,392.4648)"><path d="m 0,0 -2.717,-2.586 -1.877,0.049 -5.489,5.77 0.047,1.876 2.718,2.585 1.876,-0.047 0.354,-0.373 -3.246,-3.086 4.78,-5.027 3.247,3.088 0.354,-0.373 z" style="fill:#ffffff;fill-opacity:1;fill-rule:nonzero;stroke:none" id="path333"></path></g><g id="g335" transform="translate(352.0879,396.8008)"><path d="M 0,0 -8.232,6.708 -7.018,8.2 -0.211,2.656 2.482,5.962 3.909,4.798 Z" style="fill:#ffffff;fill-opacity:1;fill-rule:nonzero;stroke:none" id="path337"></path></g><g id="g339" transform="translate(361.418,409.8408)"><path d="m 0,0 -2.068,-3.363 -1.828,-0.435 -7.913,4.867 1.008,1.641 7.477,-4.599 1.443,2.346 -7.476,4.6 1.009,1.637 7.912,-4.868 z" style="fill:#ffffff;fill-opacity:1;fill-rule:nonzero;stroke:none" id="path341"></path></g><g id="g343" transform="translate(362.2734,421.5981)"><path d="m 0,0 -1.105,-2.523 2.415,-1.059 1.106,2.52 z m -3.935,1.725 -1.106,-2.521 2.264,-0.995 1.106,2.524 z M 4.342,-1.253 2.223,-6.083 -7.5,-1.82 -5.381,3.012 -3.632,3.694 -0.822,2.461 -0.396,1.369 0.697,1.795 3.66,0.496 Z" style="fill:#ffffff;fill-opacity:1;fill-rule:nonzero;stroke:none" id="path345"></path></g><g id="g347" transform="translate(287.8501,548.9624)"><path d="m 0,0 c -53.073,0 -96.251,-43.178 -96.251,-96.251 0,-53.074 43.178,-96.252 96.251,-96.252 53.074,0 96.252,43.178 96.252,96.252 C 96.252,-43.178 53.074,0 0,0 m 0,-3.729 c 51.099,0 92.522,-41.424 92.522,-92.522 0,-51.098 -41.423,-92.522 -92.522,-92.522 -51.099,0 -92.521,41.424 -92.521,92.522 0,51.098 41.422,92.522 92.521,92.522" style="fill:#ffffff;fill-opacity:1;fill-rule:nonzero;stroke:none" id="path349"></path></g><path d="m 313.944,451.29 h -51.386 v 14.692 h 51.386 z m 2.476,25.636 h -63.274 c -1.119,0 -2.025,-0.906 -2.025,-2.024 v -25.235 l -2.863,-3.721 c -0.317,-0.316 -0.317,-0.829 0,-1.145 l 2.863,-3.719 v -23.265 c 0,-0.351 0.416,-0.536 0.676,-0.3 l 10.761,9.74 v 13.186 h 51.386 l 10.585,9.582 c 0.543,0.491 0.854,1.189 0.854,1.922 v 16.018 c 0,0.688 -0.274,1.347 -0.76,1.832 l -6.37,6.37 c -0.486,0.486 -1.145,0.759 -1.833,0.759" style="fill:#007f41;fill-opacity:1;fill-rule:nonzero;stroke:none" id="path351"></path><path d="m 263.663,452.395 h 49.177 v 12.483 h -49.177 z m 51.386,-2.21 h -53.596 v 16.901 h 53.596 z m -65.838,-4.811 3.015,-3.917 v -22.063 l 9.227,8.353 v 13.8 h 52.066 l 10.27,9.298 c 0.311,0.281 0.488,0.683 0.488,1.102 v 16.018 c 0,0.397 -0.154,0.771 -0.435,1.051 l -6.37,6.37 c -0.278,0.276 -0.659,0.436 -1.052,0.436 h -63.274 c -0.508,0 -0.92,-0.413 -0.92,-0.92 V 449.29 Z m 2.313,-29.066 c -0.207,0 -0.415,0.043 -0.611,0.13 -0.546,0.242 -0.898,0.784 -0.898,1.379 v 22.888 l -2.598,3.378 c -0.667,0.729 -0.667,1.852 0,2.582 l 2.598,3.377 v 24.86 c 0,1.725 1.405,3.129 3.131,3.129 h 63.274 c 0.988,0 1.916,-0.384 2.614,-1.083 l 6.37,-6.37 c 0.699,-0.698 1.082,-1.627 1.082,-2.613 v -16.018 c 0,-1.043 -0.442,-2.041 -1.215,-2.742 l -10.901,-9.867 h -50.707 v -12.571 l -11.124,-10.069 c -0.284,-0.257 -0.646,-0.39 -1.015,-0.39" style="fill:#001a54;fill-opacity:1;fill-rule:nonzero;stroke:none" id="path353"></path><g id="g355" transform="translate(262.5581,466.7915)"><path d="m 0,0 c -0.447,0 -0.81,-0.362 -0.81,-0.81 v -14.691 c 0,-0.448 0.363,-0.81 0.81,-0.81 h 51.386 c 0.447,0 0.81,0.362 0.81,0.81 V -0.81 c 0,0.448 -0.363,0.81 -0.81,0.81 z m -10.628,-25.71 c 0,0.215 -0.085,0.42 -0.238,0.572 l -2.862,3.72 2.862,3.72 c 0.153,0.152 0.238,0.358 0.238,0.572 V 8.109 c 0,0.671 0.546,1.216 1.214,1.216 h 63.277 c 0.475,0 0.923,-0.186 1.259,-0.522 l 6.37,-6.371 c 0.337,-0.335 0.522,-0.783 0.522,-1.26 v -16.017 c 0,-0.503 -0.213,-0.984 -0.586,-1.321 L 51.075,-25.539 H 0 c -0.447,0 -0.81,-0.361 -0.81,-0.808 v -12.827 l -9.818,-8.888 z" style="fill:#00205b;fill-opacity:1;fill-rule:nonzero;stroke:none" id="path357"></path></g><g id="g359" transform="translate(262.5581,466.3501)"><path d="M 0,0 C -0.204,0 -0.368,-0.166 -0.368,-0.368 V -15.06 c 0,-0.203 0.164,-0.368 0.368,-0.368 h 51.386 c 0.202,0 0.368,0.165 0.368,0.368 V -0.368 C 51.754,-0.166 51.588,0 51.386,0 Z M 51.386,-16.312 H 0 c -0.69,0 -1.252,0.562 -1.252,1.252 v 14.692 c 0,0.69 0.562,1.251 1.252,1.251 h 51.386 c 0.691,0 1.252,-0.561 1.252,-1.251 V -15.06 c 0,-0.69 -0.561,-1.252 -1.252,-1.252 m -61.917,-8.095 c 0.223,-0.233 0.345,-0.538 0.345,-0.862 v -21.356 l 8.934,8.088 v 12.631 c 0,0.69 0.562,1.252 1.252,1.252 h 50.903 l 10.228,9.258 c 0.282,0.253 0.442,0.615 0.442,0.993 V 1.615 c 0,0.357 -0.14,0.694 -0.395,0.947 l -6.369,6.37 c -0.253,0.253 -0.59,0.393 -0.947,0.393 H -9.413 c -0.425,0 -0.773,-0.348 -0.773,-0.774 v -25.236 c 0,-0.323 -0.122,-0.628 -0.344,-0.862 l -2.64,-3.43 z m -0.539,-24.21 v 23.348 c 0,0.098 -0.038,0.191 -0.108,0.26 l -0.037,0.043 -3.07,3.989 3.107,4.033 c 0.07,0.069 0.108,0.16 0.108,0.259 V 8.551 c 0,0.913 0.743,1.657 1.657,1.657 h 63.275 c 0.594,0 1.152,-0.23 1.572,-0.651 l 6.37,-6.37 c 0.421,-0.419 0.652,-0.979 0.652,-1.572 v -16.018 c 0,-0.628 -0.266,-1.228 -0.733,-1.649 L 51.245,-25.538 H 0 c -0.204,0 -0.368,-0.166 -0.368,-0.368 v -13.025 z" style="fill:#001a54;fill-opacity:1;fill-rule:nonzero;stroke:none" id="path361"></path></g><g id="g363" transform="translate(313.9443,436.502)"><path d="m 0,0 v -12.594 h -50.732 l -11.312,-10.238 c -0.275,-0.25 -0.1,-0.706 0.271,-0.706 H 2.476 c 0.687,0 1.346,0.272 1.833,0.759 l 6.37,6.369 c 0.486,0.487 0.759,1.145 0.759,1.835 V 2.503 c 0,0.688 -0.273,1.348 -0.759,1.833 L 8.153,6.861 C 8.001,7.014 7.755,7.021 7.596,6.875 Z" style="fill:#007f41;fill-opacity:1;fill-rule:nonzero;stroke:none" id="path365"></path></g><g id="g367" transform="translate(253.9878,414.0684)"><path d="m 0,0 h 62.432 c 0.398,0 0.772,0.154 1.052,0.436 l 6.37,6.37 c 0.281,0.28 0.436,0.654 0.436,1.05 v 17.081 c 0,0.397 -0.155,0.771 -0.436,1.053 l -2.055,2.053 -6.738,-6.1 V 8.736 H 9.65 Z M 62.432,-2.209 H -1.817 c -0.629,0 -1.183,0.379 -1.409,0.967 -0.226,0.588 -0.07,1.239 0.396,1.662 L 8.799,10.944 h 50.053 v 11.981 l 7.959,7.202 c 0.596,0.543 1.511,0.52 2.08,-0.05 l 2.526,-2.525 c 0.698,-0.699 1.082,-1.626 1.082,-2.615 V 7.856 c 0,-0.986 -0.384,-1.915 -1.082,-2.613 L 65.045,-1.128 C 64.348,-1.825 63.42,-2.209 62.432,-2.209" style="fill:#001a54;fill-opacity:1;fill-rule:nonzero;stroke:none" id="path369"></path></g><g id="g371" transform="translate(253.2222,413.7734)"><path d="m 0,0 10.302,9.325 h 50.42 c 0.447,0 0.81,0.362 0.81,0.81 V 22.37 l 7.043,6.375 2.253,-2.253 c 0.337,-0.337 0.522,-0.784 0.522,-1.26 V 8.151 c 0,-0.475 -0.185,-0.922 -0.522,-1.259 L 64.458,0.521 C 64.122,0.186 63.674,0 63.199,0 Z" style="fill:#00205b;fill-opacity:1;fill-rule:nonzero;stroke:none" id="path373"></path></g><g id="g375" transform="translate(254.3687,414.2158)"><path d="m 0,0 h 62.051 c 0.358,0 0.695,0.139 0.948,0.393 l 6.369,6.369 c 0.255,0.252 0.394,0.59 0.394,0.946 V 24.79 c 0,0.358 -0.139,0.694 -0.394,0.947 l -1.955,1.956 -6.584,-5.962 V 9.692 c 0,-0.69 -0.563,-1.251 -1.253,-1.251 H 9.326 Z M 62.051,-0.884 H -2.292 L 8.985,9.324 h 50.591 c 0.203,0 0.368,0.166 0.368,0.368 v 12.431 l 7.5,6.789 2.55,-2.55 c 0.421,-0.42 0.651,-0.978 0.651,-1.572 V 7.708 c 0,-0.592 -0.23,-1.151 -0.651,-1.572 l -6.37,-6.369 c -0.42,-0.42 -0.979,-0.651 -1.573,-0.651" style="fill:#001a54;fill-opacity:1;fill-rule:nonzero;stroke:none" id="path377"></path></g><path d="m 296.484,407.699 h -16.369 v 74.49 h 16.369 z m 4.309,84.677 c -0.485,0.485 -1.145,0.759 -1.832,0.759 h -6.419 l -3.675,2.907 c -0.316,0.316 -0.829,0.316 -1.145,0 l -3.675,-2.907 h -13.441 c -1.119,0 -2.026,-0.907 -2.026,-2.025 v -92.33 c 0,-1.119 0.907,-2.025 2.026,-2.025 h 13.441 l 3.675,-2.622 c 0.316,-0.316 0.829,-0.316 1.145,0 l 3.675,2.622 h 6.317 c 0.752,0 1.473,0.298 2.005,0.83 l 6.228,6.228 c 0.531,0.532 0.831,1.253 0.831,2.004 v 77.616 c 0,1.162 -0.462,2.275 -1.282,3.096 z" style="fill:#007f41;fill-opacity:1;fill-rule:nonzero;stroke:none" id="path379"></path><path d="m 281.221,408.805 h 14.158 v 72.28 h -14.158 z m 16.369,-2.209 h -18.579 v 76.699 h 18.579 z m -26.985,85.433 c -0.507,0 -0.92,-0.412 -0.92,-0.919 v -92.33 c 0,-0.509 0.413,-0.92 0.92,-0.92 H 284.4 l 3.894,-2.777 3.894,2.777 h 6.671 c 0.463,0 0.897,0.179 1.225,0.506 l 6.227,6.229 c 0.328,0.326 0.507,0.76 0.507,1.222 v 77.616 c 0,0.875 -0.341,1.697 -0.959,2.315 l -5.847,5.847 c -0.281,0.281 -0.655,0.434 -1.051,0.434 h -6.803 l -3.864,3.058 -3.863,-3.058 z m 17.689,-99.237 c -0.475,0 -0.922,0.172 -1.273,0.484 l -3.328,2.374 h -13.088 c -1.725,0 -3.13,1.405 -3.13,3.13 v 92.33 c 0,1.726 1.405,3.13 3.13,3.13 h 13.058 l 3.333,2.635 c 0.709,0.658 1.887,0.658 2.597,0 l 3.333,-2.635 h 6.035 c 0.986,0 1.915,-0.386 2.613,-1.083 l 5.848,-5.847 c 1.035,-1.035 1.605,-2.412 1.605,-3.877 v -77.616 c 0,-1.052 -0.41,-2.042 -1.154,-2.785 l -6.227,-6.227 c -0.744,-0.745 -1.734,-1.155 -2.787,-1.155 h -5.963 l -3.327,-2.374 c -0.352,-0.312 -0.799,-0.484 -1.275,-0.484" style="fill:#001a54;fill-opacity:1;fill-rule:nonzero;stroke:none" id="path381"></path><g id="g383" transform="translate(280.1162,483)"><path d="m 0,0 c -0.447,0 -0.81,-0.363 -0.81,-0.811 v -74.49 c 0,-0.446 0.363,-0.808 0.81,-0.808 h 16.368 c 0.447,0 0.811,0.362 0.811,0.808 v 74.49 C 17.179,-0.363 16.815,0 16.368,0 Z m 4.503,-85.673 c -0.151,0.153 -0.357,0.237 -0.572,0.237 H -9.511 c -0.67,0 -1.216,0.546 -1.216,1.216 V 8.11 c 0,0.67 0.546,1.214 1.216,1.214 H 3.931 c 0.218,0 0.426,0.089 0.579,0.245 l 3.676,2.907 3.661,-2.907 c 0.152,-0.156 0.361,-0.245 0.579,-0.245 h 6.419 c 0.475,0 0.923,-0.184 1.259,-0.521 l 5.848,-5.848 c 0.673,-0.673 1.045,-1.569 1.045,-2.522 v -77.616 c 0,-0.541 -0.211,-1.048 -0.594,-1.432 l -6.228,-6.228 c -0.383,-0.383 -0.891,-0.593 -1.432,-0.593 h -6.317 c -0.215,0 -0.421,-0.084 -0.572,-0.236 L 8.178,-88.49 Z" style="fill:#00205b;fill-opacity:1;fill-rule:nonzero;stroke:none" id="path385"></path></g><g id="g387" transform="translate(280.1162,482.5586)"><path d="m 0,0 c -0.203,0 -0.368,-0.166 -0.368,-0.368 v -74.49 c 0,-0.205 0.165,-0.369 0.368,-0.369 h 16.368 c 0.203,0 0.369,0.164 0.369,0.369 v 74.49 C 16.737,-0.166 16.571,0 16.368,0 Z M 16.368,-76.111 H 0 c -0.69,0 -1.251,0.562 -1.251,1.253 v 74.49 c 0,0.69 0.561,1.252 1.251,1.252 h 16.368 c 0.691,0 1.252,-0.562 1.252,-1.252 v -74.49 c 0,-0.691 -0.561,-1.253 -1.252,-1.253 M 4.792,-84.896 c 0.245,-0.188 2.585,-1.983 3.386,-2.595 l 3.387,2.596 c 0.233,0.221 0.538,0.343 0.861,0.343 h 6.317 c 0.423,0 0.821,0.165 1.119,0.465 l 6.229,6.226 c 0.299,0.299 0.465,0.696 0.465,1.12 V 0.874 c 0,0.835 -0.327,1.621 -0.917,2.211 l -5.847,5.846 c -0.254,0.254 -0.59,0.392 -0.947,0.392 h -6.419 c -0.325,0 -0.641,0.13 -0.873,0.357 L 8.185,12.353 4.803,9.678 C 4.572,9.453 4.255,9.323 3.931,9.323 H -9.511 c -0.427,0 -0.773,-0.346 -0.773,-0.772 v -92.329 c 0,-0.426 0.346,-0.774 0.773,-0.774 H 3.931 c 0.318,0 0.631,-0.125 0.861,-0.344 m 3.537,-3.595 H 8.178 c -0.15,0 -0.15,0 -3.944,2.91 l -0.044,0.038 c -0.068,0.069 -0.163,0.107 -0.259,0.107 H -9.511 c -0.914,0 -1.657,0.745 -1.657,1.658 V 8.551 c 0,0.914 0.743,1.656 1.657,1.656 H 3.931 c 0.097,0 0.194,0.041 0.263,0.112 l 0.041,0.038 3.951,3.123 3.977,-3.161 c 0.068,-0.071 0.165,-0.112 0.263,-0.112 h 6.419 c 0.593,0 1.152,-0.23 1.572,-0.651 l 5.848,-5.847 c 0.756,-0.756 1.173,-1.763 1.173,-2.835 v -77.615 c 0,-0.659 -0.256,-1.28 -0.722,-1.745 l -6.227,-6.228 c -0.467,-0.464 -1.087,-0.722 -1.746,-0.722 h -6.317 c -0.098,0 -0.191,-0.038 -0.261,-0.107 l -0.042,-0.038 z" style="fill:#001a54;fill-opacity:1;fill-rule:nonzero;stroke:none" id="path389"></path></g><path d="m 316.631,454.039 h -51.386 v 14.692 h 51.386 z m 2.476,25.636 h -63.274 c -1.12,0 -2.025,-0.906 -2.025,-2.026 v -25.234 l -2.863,-3.72 c -0.316,-0.317 -0.316,-0.828 0,-1.146 l 2.863,-3.72 v -23.263 c 0,-0.351 0.417,-0.536 0.676,-0.3 l 10.761,9.739 v 13.186 h 51.386 l 10.586,9.583 c 0.543,0.491 0.852,1.188 0.852,1.921 v 16.017 c 0,0.688 -0.273,1.347 -0.758,1.833 l -6.371,6.371 c -0.486,0.486 -1.145,0.759 -1.833,0.759" style="fill:#008f43;fill-opacity:1;fill-rule:nonzero;stroke:none" id="path391"></path><path d="m 265.96,454.753 h 49.958 v 13.262 H 265.96 Z m 51.386,-1.429 h -52.814 v 16.121 h 52.814 z m -61.513,25.636 c -0.723,0 -1.311,-0.588 -1.311,-1.311 v -25.478 l -3.072,-3.981 c -0.018,-0.019 -0.027,-0.041 -0.027,-0.067 0,-0.027 0.009,-0.05 0.027,-0.068 l 0.061,-0.07 3.011,-3.912 v -22.809 l 10.009,9.059 v 13.583 h 51.825 l 10.382,9.398 c 0.393,0.355 0.617,0.862 0.617,1.391 v 16.017 c 0,0.502 -0.195,0.974 -0.549,1.328 l -6.37,6.371 c -0.35,0.35 -0.834,0.549 -1.329,0.549 z m -1.622,-59.514 c -0.152,0 -0.307,0.033 -0.453,0.098 -0.404,0.178 -0.664,0.581 -0.664,1.022 v 23.02 l -2.691,3.496 c -0.264,0.284 -0.409,0.65 -0.409,1.041 0,0.388 0.145,0.755 0.409,1.039 l 2.691,3.496 v 24.991 c 0,1.512 1.228,2.74 2.739,2.74 h 63.274 c 0.883,0 1.713,-0.344 2.339,-0.968 l 6.368,-6.369 c 0.626,-0.626 0.97,-1.455 0.97,-2.34 v -16.017 c 0,-0.931 -0.396,-1.826 -1.087,-2.451 l -10.791,-9.765 H 265.96 v -12.79 l -10.997,-9.953 c -0.21,-0.19 -0.478,-0.29 -0.752,-0.29" style="fill:#001a54;fill-opacity:1;fill-rule:nonzero;stroke:none" id="path393"></path><g id="g395" transform="translate(265.2456,469.2539)"><path d="m 0,0 c -0.289,0 -0.524,-0.234 -0.524,-0.523 v -14.692 c 0,-0.289 0.235,-0.525 0.524,-0.525 h 51.385 c 0.29,0 0.526,0.236 0.526,0.525 V -0.523 C 51.911,-0.234 51.675,0 51.385,0 Z M 51.385,-16.312 H 0 c -0.604,0 -1.096,0.493 -1.096,1.097 v 14.692 c 0,0.604 0.492,1.095 1.096,1.095 h 51.385 c 0.606,0 1.098,-0.491 1.098,-1.095 v -14.692 c 0,-0.604 -0.492,-1.097 -1.098,-1.097 m -62.034,-8.351 c 0.198,-0.207 0.307,-0.476 0.307,-0.762 V -47.13 l 9.246,8.369 v 12.698 c 0,0.605 0.492,1.097 1.096,1.097 h 50.963 l 10.274,9.298 c 0.312,0.284 0.492,0.687 0.492,1.109 V 1.459 c 0,0.4 -0.156,0.775 -0.439,1.058 L 54.92,8.888 C 54.638,9.17 54.262,9.325 53.862,9.325 H -9.414 c -0.512,0 -0.928,-0.417 -0.928,-0.929 v -25.235 c 0,-0.286 -0.109,-0.555 -0.307,-0.76 l -2.718,-3.532 z m -0.265,-23.756 v 22.994 c 0,0.14 -0.054,0.273 -0.154,0.372 l -0.024,0.028 -2.997,3.894 3.021,3.921 c 0.1,0.1 0.154,0.231 0.154,0.371 V 8.396 c 0,0.827 0.673,1.501 1.5,1.501 h 63.276 c 0.553,0 1.072,-0.215 1.463,-0.606 l 6.369,-6.37 c 0.39,-0.39 0.605,-0.91 0.605,-1.462 v -16.018 c 0,-0.583 -0.247,-1.141 -0.679,-1.533 L 51.184,-25.537 H 0 c -0.289,0 -0.524,-0.235 -0.524,-0.526 v -12.953 z" style="fill:#ffffff;fill-opacity:1;fill-rule:nonzero;stroke:none" id="path397"></path></g><g id="g399" transform="translate(316.6309,439.252)"><path d="m 0,0 v -12.595 h -50.732 l -11.312,-10.24 c -0.275,-0.248 -0.099,-0.705 0.272,-0.705 H 2.477 c 0.687,0 1.346,0.273 1.833,0.76 l 6.37,6.369 c 0.486,0.486 0.758,1.146 0.758,1.832 V 2.502 c 0,0.688 -0.272,1.347 -0.758,1.834 L 8.154,6.859 C 8.001,7.013 7.756,7.019 7.596,6.874 Z" style="fill:#008f43;fill-opacity:1;fill-rule:nonzero;stroke:none" id="path401"></path></g><g id="g403" transform="translate(255.6611,416.4268)"><path d="m 0,0 h 63.446 c 0.502,0 0.973,0.195 1.328,0.55 l 6.371,6.369 c 0.354,0.355 0.549,0.825 0.549,1.328 v 17.08 c 0,0.501 -0.195,0.973 -0.549,1.328 l -2.318,2.317 -7.142,-6.465 V 9.517 H 10.514 Z M 63.446,-1.429 H -0.803 c -0.466,0 -0.877,0.281 -1.044,0.717 -0.168,0.436 -0.052,0.919 0.293,1.233 L 9.963,10.945 h 50.294 v 12.196 l 7.829,7.088 c 0.443,0.4 1.121,0.385 1.544,-0.038 l 2.525,-2.525 c 0.623,-0.624 0.968,-1.455 0.968,-2.339 V 8.247 c 0,-0.884 -0.345,-1.714 -0.968,-2.337 l -6.371,-6.369 c -0.624,-0.626 -1.455,-0.97 -2.338,-0.97" style="fill:#001a54;fill-opacity:1;fill-rule:nonzero;stroke:none" id="path405"></path></g><g id="g407" transform="translate(265.2456,469.54)"><path d="m 0,0 c -0.448,0 -0.811,-0.362 -0.811,-0.81 v -14.691 c 0,-0.448 0.363,-0.81 0.811,-0.81 h 51.385 c 0.448,0 0.811,0.362 0.811,0.81 V -0.81 c 0,0.448 -0.363,0.81 -0.811,0.81 z m -10.628,-25.709 c 0,0.214 -0.086,0.419 -0.238,0.571 l -2.862,3.721 2.862,3.719 c 0.152,0.152 0.238,0.358 0.238,0.573 V 8.11 c 0,0.67 0.545,1.215 1.214,1.215 h 63.276 c 0.476,0 0.924,-0.185 1.26,-0.522 l 6.37,-6.371 c 0.337,-0.335 0.522,-0.783 0.522,-1.259 v -16.018 c 0,-0.502 -0.213,-0.984 -0.586,-1.321 L 51.075,-25.537 H 0 c -0.448,0 -0.811,-0.363 -0.811,-0.81 v -12.827 l -9.817,-8.888 z" style="fill:#ffffff;fill-opacity:1;fill-rule:nonzero;stroke:none" id="path409"></path></g><g id="g411" transform="translate(255.9092,416.5225)"><path d="m 0,0 10.303,9.324 h 50.419 c 0.447,0 0.81,0.364 0.81,0.81 V 22.37 l 7.044,6.374 2.253,-2.252 c 0.336,-0.336 0.522,-0.784 0.522,-1.261 V 8.151 c 0,-0.476 -0.186,-0.923 -0.522,-1.26 L 64.458,0.521 C 64.122,0.185 63.675,0 63.198,0 Z" style="fill:#ffffff;fill-opacity:1;fill-rule:nonzero;stroke:none" id="path413"></path></g><g id="g415" transform="translate(256.6509,416.8076)"><path d="m 0,0 h 62.457 c 0.4,0 0.776,0.156 1.058,0.439 l 6.369,6.37 c 0.283,0.282 0.44,0.659 0.44,1.057 v 17.08 c 0,0.4 -0.157,0.777 -0.44,1.059 l -2.06,2.061 -6.747,-6.108 V 9.849 c 0,-0.603 -0.492,-1.096 -1.095,-1.096 l -50.311,0 z M 62.457,-0.571 H -1.483 L 9.451,9.325 h 50.531 c 0.288,0 0.523,0.236 0.523,0.524 v 12.362 l 7.339,6.643 2.445,-2.446 c 0.39,-0.389 0.605,-0.909 0.605,-1.462 V 7.866 c 0,-0.551 -0.215,-1.071 -0.605,-1.462 l -6.37,-6.37 c -0.39,-0.39 -0.911,-0.605 -1.462,-0.605" style="fill:#ffffff;fill-opacity:1;fill-rule:nonzero;stroke:none" id="path417"></path></g><g id="g419" transform="translate(264.1914,453.8608)"><path d="m 0,0 v 13.393 h -0.588 c -0.447,0 -0.81,-0.363 -0.81,-0.811 V -2.109 c 0,-0.447 0.363,-0.811 0.81,-0.811 h 51.387 c 0.447,0 0.809,0.364 0.809,0.811 V -0.81 H 0.811 C 0.363,-0.81 0,-0.446 0,0" style="fill:#007f41;fill-opacity:1;fill-rule:nonzero;stroke:none" id="path421"></path></g><g id="g423" transform="translate(326.7383,471.9722)"><path d="m 0,0 -6.371,6.371 c -0.336,0.336 -0.783,0.522 -1.26,0.522 h -63.275 c -0.67,0 -1.215,-0.545 -1.215,-1.215 V 4.783 h 63.092 c 0.476,0 0.924,-0.185 1.261,-0.522 l 6.37,-6.37 c 0.335,-0.336 0.522,-0.784 0.522,-1.26 v -15.964 l 0.812,0.735 c 0.371,0.337 0.585,0.819 0.585,1.321 V -1.259 C 0.521,-0.783 0.336,-0.335 0,0" style="fill:#007f41;fill-opacity:1;fill-rule:nonzero;stroke:none" id="path425"></path></g><g id="g427" transform="translate(262.7939,441.1646)"><path d="m 0,0 v -11.981 l 1.398,1.265 V 0.811 H 0.811 C 0.363,0.811 0,0.448 0,0" style="fill:#007f41;fill-opacity:1;fill-rule:nonzero;stroke:none" id="path429"></path></g><g id="g431" transform="translate(315.4795,423.7378)"><path d="m 0,0 c 0.446,0 0.81,0.362 0.81,0.81 v 1.299 h -49.833 l -10.302,-9.324 h 0.934 L -50.42,0 Z" style="fill:#007f41;fill-opacity:1;fill-rule:nonzero;stroke:none" id="path433"></path></g><g id="g435" transform="translate(252.0938,447.7231)"><path d="M 0,0 -0.292,0.381 2.663,4.135 V 3.687 C 2.663,3.432 2.564,3.192 2.384,3.013 Z" style="fill:#007f41;fill-opacity:1;fill-rule:nonzero;stroke:none" id="path437"></path></g><g id="g439" transform="translate(324.4844,444.9771)"><path d="M 0,0 -7.043,-6.376 V -7.22 l 5.646,5.109 2.252,-2.253 c 0.336,-0.335 0.522,-0.783 0.522,-1.259 v -17.08 c 0,-0.01 -0.001,-0.019 -0.001,-0.027 l 0.877,0.876 c 0.337,0.336 0.522,0.784 0.522,1.261 v 17.079 c 0,0.475 -0.185,0.925 -0.522,1.26 z" style="fill:#007f41;fill-opacity:1;fill-rule:nonzero;stroke:none" id="path441"></path></g><g id="g443" transform="translate(265.2456,469.2539)"><path d="m 0,0 c -0.289,0 -0.524,-0.234 -0.524,-0.523 v -14.692 c 0,-0.289 0.235,-0.525 0.524,-0.525 h 51.385 c 0.29,0 0.526,0.236 0.526,0.525 V -0.523 C 51.911,-0.234 51.675,0 51.385,0 Z M 51.385,-16.312 H 0 c -0.604,0 -1.096,0.493 -1.096,1.097 v 14.692 c 0,0.604 0.492,1.095 1.096,1.095 h 51.385 c 0.606,0 1.098,-0.491 1.098,-1.095 v -14.692 c 0,-0.604 -0.492,-1.097 -1.098,-1.097 m -62.034,-8.351 c 0.198,-0.207 0.307,-0.476 0.307,-0.762 V -47.13 l 9.246,8.369 v 12.698 c 0,0.605 0.492,1.097 1.096,1.097 h 50.963 l 10.274,9.298 c 0.312,0.284 0.492,0.687 0.492,1.109 V 1.459 c 0,0.4 -0.156,0.775 -0.439,1.058 L 54.92,8.888 C 54.638,9.17 54.262,9.325 53.862,9.325 H -9.414 c -0.512,0 -0.928,-0.417 -0.928,-0.929 v -25.235 c 0,-0.286 -0.109,-0.555 -0.307,-0.76 l -2.718,-3.532 z m -0.265,-23.756 v 22.994 c 0,0.14 -0.054,0.273 -0.154,0.372 l -0.024,0.028 -2.997,3.894 3.021,3.921 c 0.1,0.1 0.154,0.231 0.154,0.371 V 8.396 c 0,0.827 0.673,1.501 1.5,1.501 h 63.276 c 0.553,0 1.072,-0.215 1.463,-0.606 l 6.369,-6.37 c 0.39,-0.39 0.605,-0.91 0.605,-1.462 v -16.018 c 0,-0.583 -0.247,-1.141 -0.679,-1.533 L 51.184,-25.537 H 0 c -0.289,0 -0.524,-0.235 -0.524,-0.526 v -12.953 z" style="fill:#ffffff;fill-opacity:1;fill-rule:nonzero;stroke:none" id="path445"></path></g><g id="g447" transform="translate(256.6509,416.8076)"><path d="m 0,0 h 62.457 c 0.4,0 0.776,0.156 1.058,0.439 l 6.369,6.37 c 0.283,0.282 0.44,0.659 0.44,1.057 v 17.08 c 0,0.4 -0.157,0.777 -0.44,1.059 l -2.06,2.061 -6.747,-6.108 V 9.849 c 0,-0.603 -0.492,-1.096 -1.095,-1.096 l -50.311,0 z M 62.457,-0.571 H -1.483 L 9.451,9.325 h 50.531 c 0.288,0 0.523,0.236 0.523,0.524 v 12.362 l 7.339,6.643 2.445,-2.446 c 0.39,-0.389 0.605,-0.909 0.605,-1.462 V 7.866 c 0,-0.551 -0.215,-1.071 -0.605,-1.462 l -6.37,-6.37 c -0.39,-0.39 -0.911,-0.605 -1.462,-0.605" style="fill:#ffffff;fill-opacity:1;fill-rule:nonzero;stroke:none" id="path449"></path></g><g id="g451" transform="translate(281.7061,483.8262)"><path d="M 0,0 H -0.271 C -0.719,0 -1.082,-0.363 -1.082,-0.812 V -29.073 H 0 Z" style="fill:#007f41;fill-opacity:1;fill-rule:nonzero;stroke:none" id="path453"></path></g><g id="g455" transform="translate(309.0029,407.3359)"><path d="M 0,0 C 0.328,0.329 0.51,0.766 0.51,1.23 V 7.662 H -0.603 V -0.603 Z" style="fill:#007f41;fill-opacity:1;fill-rule:nonzero;stroke:none" id="path457"></path></g><g id="g459" transform="translate(281.7061,410.4502)"><path d="M 0,0 V 32.028 H -1.082 V -1.925 c 0,-0.447 0.363,-0.809 0.811,-0.809 h 16.368 c 0.447,0 0.81,0.362 0.81,0.809 v 0.826 H 1.095 C 0.492,-1.099 0,-0.605 0,0" style="fill:#007f41;fill-opacity:1;fill-rule:nonzero;stroke:none" id="path461"></path></g><g id="g463" transform="translate(308.5508,488.502)"><path d="M 0,0 -5.847,5.848 C -6.059,6.059 -6.322,6.2 -6.609,6.256 h -0.004 c -0.075,0.016 -0.154,0.02 -0.231,0.024 -0.021,0 -0.04,0.003 -0.061,0.003 h -6.417 c -0.061,0 -0.119,0.008 -0.176,0.02 -0.223,0.037 -0.433,0.138 -0.595,0.299 l -3.471,2.756 -3.484,-2.756 C -21.21,6.441 -21.42,6.339 -21.645,6.303 -21.702,6.291 -21.76,6.283 -21.819,6.283 h -13.442 c -0.069,0 -0.135,-0.01 -0.2,-0.02 -0.416,-0.093 -0.728,-0.464 -0.728,-0.907 V 3.951 c 0.196,0.139 0.434,0.221 0.693,0.221 h 12.279 c 0.219,0 0.427,0.089 0.58,0.245 l 3.675,2.907 3.661,-2.907 c 0.154,-0.156 0.363,-0.245 0.58,-0.245 h 6.418 c 0.477,0 0.923,-0.185 1.26,-0.521 l 5.848,-5.846 c 0.674,-0.674 1.045,-1.571 1.045,-2.523 v -3.395 h 1.112 v 5.794 C 0.962,-1.443 0.621,-0.62 0,0" style="fill:#007f41;fill-opacity:1;fill-rule:nonzero;stroke:none" id="path465"></path></g><g id="g467" transform="translate(309.7979,414.998)"><path d="m 0,0 h -0.286 v -6.432 c 0,-0.464 -0.181,-0.901 -0.509,-1.23 l -0.602,-0.603 -5.625,-5.624 c -0.329,-0.329 -0.766,-0.509 -1.231,-0.509 h -6.316 c -0.287,0 -0.556,-0.11 -0.761,-0.307 l -3.488,-2.675 c -0.697,0.536 -3.275,2.512 -3.487,2.675 -0.206,0.197 -0.475,0.307 -0.761,0.307 h -13.442 c -0.512,0 -0.929,0.416 -0.929,0.929 V 27.48 h -0.286 -0.095 -0.19 v -40.949 c 0,-0.829 0.673,-1.5 1.5,-1.5 h 13.442 c 0.141,0 0.272,-0.055 0.371,-0.155 l 0.028,-0.024 c 3.752,-2.876 3.752,-2.876 3.849,-2.876 h 0.097 l 3.751,2.876 0.03,0.024 c 0.099,0.1 0.229,0.155 0.371,0.155 h 6.316 c 0.617,0 1.197,0.24 1.635,0.675 l 6.226,6.229 c 0.438,0.436 0.678,1.016 0.678,1.633 l 0,6.432 h -0.19 z" style="fill:#ffffff;fill-opacity:1;fill-rule:nonzero;stroke:none" id="path469"></path></g><g id="g471" transform="translate(299.8848,480.3892)"><path d="m 0,0 h 0.096 0.285 v 4.55 c 0,0.603 -0.492,1.095 -1.096,1.095 h -16.368 c -0.604,0 -1.096,-0.492 -1.096,-1.095 V 3.437 -25.636 h 0.046 0.24 0.096 0.19 V 4.55 c 0,0.288 0.235,0.524 0.524,0.524 h 16.368 c 0.289,0 0.526,-0.236 0.526,-0.524 l 0,-4.55 z" style="fill:#ffffff;fill-opacity:1;fill-rule:nonzero;stroke:none" id="path473"></path></g><g id="g475" transform="translate(308.9551,488.9067)"><path d="m 0,0 -5.847,5.847 c -0.389,0.39 -0.91,0.605 -1.462,0.605 h -6.418 c -0.141,0 -0.278,0.058 -0.376,0.158 L -17.968,9.682 -21.82,6.635 -21.847,6.61 c -0.099,-0.1 -0.236,-0.158 -0.376,-0.158 h -13.441 c -0.828,0 -1.501,-0.672 -1.501,-1.5 v -39.105 h 0.19 0.095 0.286 V 3.546 4.952 c 0,0.443 0.312,0.813 0.728,0.906 0.067,0.011 0.133,0.019 0.202,0.019 h 13.441 c 0.059,0 0.117,0.009 0.174,0.021 0.224,0.036 0.435,0.14 0.596,0.299 l 3.484,2.756 3.472,-2.756 c 0.162,-0.159 0.372,-0.263 0.596,-0.299 0.056,-0.012 0.114,-0.021 0.174,-0.021 h 6.418 c 0.021,0 0.04,-10e-4 0.06,-0.002 0.078,-0.004 0.156,-0.007 0.229,-0.023 h 0.006 c 0.286,-0.058 0.551,-0.198 0.763,-0.409 l 5.847,-5.848 c 0.621,-0.618 0.961,-1.443 0.961,-2.321 v -5.792 h 0.572 v 5.792 C 1.129,-1.695 0.729,-0.728 0,0" style="fill:#ffffff;fill-opacity:1;fill-rule:nonzero;stroke:none" id="path477"></path></g><g id="g479" transform="translate(281.7061,410.4502)"><path d="m 0,0 c 0,-0.605 0.492,-1.099 1.095,-1.099 h 15.812 0.557 c 0.603,0 1.096,0.494 1.096,1.099 v 4.548 h -0.286 -0.095 -0.19 V 0 c 0,-0.29 -0.236,-0.525 -0.525,-0.525 H 1.095 C 0.807,-0.525 0.572,-0.29 0.572,0 V 32.028 H 0.382 0.286 0.046 0 Z" style="fill:#ffffff;fill-opacity:1;fill-rule:nonzero;stroke:none" id="path481"></path></g><g id="g483" transform="translate(299.1699,485.4629)"><path d="m 0,0 h -16.369 c -0.288,0 -0.523,-0.236 -0.523,-0.524 v -30.187 h 0.523 0.716 V -1.239 H -0.715 V -5.074 H 0 0.525 v 4.55 C 0.525,-0.236 0.289,0 0,0" style="fill:#001a54;fill-opacity:1;fill-rule:nonzero;stroke:none" id="path485"></path></g><g id="g487" transform="translate(299.1699,414.998)"><path d="M 0,0 H -0.715 V -3.835 H -15.654 V 27.48 h -0.715 -0.523 V -4.548 c 0,-0.29 0.235,-0.525 0.524,-0.525 H 0 c 0.289,0 0.523,0.235 0.523,0.525 V 0 Z" style="fill:#001a54;fill-opacity:1;fill-rule:nonzero;stroke:none" id="path489"></path></g><g id="g491" transform="translate(299.1699,468.0156)"><path d="M 0,0 H -0.715 V -40.644 H 0 0.523 V 0 Z" style="fill:#001a54;fill-opacity:1;fill-rule:nonzero;stroke:none" id="path493"></path></g><g id="g495" transform="translate(310.6074,414.998)"><path d="m 0,0 h -0.523 v -6.432 c 0,-0.617 -0.241,-1.197 -0.678,-1.633 l -6.227,-6.229 c -0.436,-0.435 -1.017,-0.675 -1.635,-0.675 h -6.316 c -0.141,0 -0.272,-0.055 -0.371,-0.155 l -0.028,-0.024 -3.753,-2.876 h -0.096 c -0.097,0 -0.097,0 -3.849,2.876 l -0.028,0.024 c -0.1,0.1 -0.231,0.155 -0.371,0.155 h -13.441 c -0.829,0 -1.501,0.671 -1.501,1.5 V 27.48 h -0.525 -0.714 v -40.949 c 0,-1.511 1.228,-2.739 2.74,-2.739 h 13.212 l 3.448,-2.46 c 0.29,-0.266 0.659,-0.398 1.029,-0.398 0.369,0 0.738,0.132 1.027,0.398 l 3.449,2.46 h 6.088 c 0.95,0 1.84,0.368 2.511,1.039 l 6.227,6.228 c 0.671,0.67 1.04,1.562 1.04,2.509 l 0,6.432 z" style="fill:#001a54;fill-opacity:1;fill-rule:nonzero;stroke:none" id="path497"></path></g><g id="g499" transform="translate(309.8311,489.7827)"><path d="m 0,0 -5.847,5.846 c -0.625,0.625 -1.455,0.969 -2.338,0.969 h -6.169 l -3.453,2.731 c -0.586,0.55 -1.502,0.55 -2.088,0 L -23.347,6.815 H -36.54 c -1.511,0 -2.74,-1.23 -2.74,-2.739 v -39.105 h 0.715 0.523 V 4.076 c 0,0.826 0.674,1.5 1.502,1.5 h 13.441 c 0.141,0 0.277,0.058 0.375,0.159 l 0.027,0.024 3.854,3.047 3.864,-3.071 c 0.099,-0.101 0.235,-0.159 0.375,-0.159 h 6.419 c 0.552,0 1.073,-0.214 1.462,-0.606 l 5.847,-5.846 C -0.148,-1.604 0.253,-2.572 0.253,-3.6 V -9.394 H 0.776 1.491 V -3.6 C 1.491,-2.241 0.962,-0.961 0,0" style="fill:#001a54;fill-opacity:1;fill-rule:nonzero;stroke:none" id="path501"></path></g><g id="g503" transform="translate(310.6074,468.0156)"><path d="M 0,0 H -0.523 V -40.644 H 0 0.715 V 0 Z" style="fill:#001a54;fill-opacity:1;fill-rule:nonzero;stroke:none" id="path505"></path></g><g id="g507" transform="translate(299.1699,409.3516)"><path d="m 0,0 h -0.557 v -0.826 c 0,-0.447 -0.363,-0.81 -0.81,-0.81 h -16.368 c -0.448,0 -0.81,0.363 -0.81,0.81 v 33.953 h -8.263 V -7.822 c 0,-0.514 0.416,-0.93 0.928,-0.93 h 13.442 c 0.287,0 0.555,-0.109 0.761,-0.307 0.212,-0.163 2.789,-2.139 3.487,-2.674 l 3.488,2.674 c 0.205,0.198 0.473,0.307 0.761,0.307 h 6.316 c 0.465,0 0.902,0.181 1.23,0.51 L 9.23,-2.618 V 5.646 H 1.096 V 1.099 C 1.096,0.493 0.604,0 0,0" style="fill:#ffffff;fill-opacity:1;fill-rule:nonzero;stroke:none" id="path509"></path></g><g id="g511" transform="translate(307.3555,486.3066)"><path d="m 0,0 -5.847,5.846 c -0.338,0.337 -0.784,0.523 -1.26,0.523 h -6.418 c -0.218,0 -0.428,0.088 -0.58,0.243 l -3.662,2.907 -3.675,-2.907 c -0.152,-0.155 -0.361,-0.243 -0.579,-0.243 h -12.28 c -0.259,0 -0.496,-0.083 -0.693,-0.223 v -37.699 h 8.263 v 28.262 c 0,0.447 0.363,0.809 0.81,0.809 h 0.272 v 1.114 c 0,0.604 0.491,1.096 1.095,1.096 h 16.368 c 0.604,0 1.096,-0.492 1.096,-1.096 v -4.549 h 8.135 v 3.394 C 1.045,-1.57 0.674,-0.675 0,0" style="fill:#ffffff;fill-opacity:1;fill-rule:nonzero;stroke:none" id="path513"></path></g><path d="m 300.267,427.372 h 8.134 v 40.644 h -8.134 z" style="fill:#ffffff;fill-opacity:1;fill-rule:nonzero;stroke:none" id="path515"></path><path d="m 308.4,427.372 h 1.112 v 40.644 H 308.4 Z" style="fill:#007f41;fill-opacity:1;fill-rule:nonzero;stroke:none" id="path517"></path><g id="g519" transform="translate(299.9805,468.0156)"><path d="M 0,0 H -0.096 -0.287 V -40.644 H -0.096 0 0.286 L 0.286,0 Z" style="fill:#ffffff;fill-opacity:1;fill-rule:nonzero;stroke:none" id="path521"></path></g><g id="g523" transform="translate(309.8936,468.0156)"><path d="M 0,0 H -0.096 -0.382 V -40.644 H -0.096 0 0.19 L 0.19,0 Z" style="fill:#ffffff;fill-opacity:1;fill-rule:nonzero;stroke:none" id="path525"></path></g><g id="g527" transform="translate(290.7974,505.3208)"><path d="m 0,0 -3.887,-2.745 c -0.184,-0.129 -0.426,0.051 -0.357,0.265 l 1.473,4.457 c 0.032,0.095 -10e-4,0.202 -0.083,0.261 l -3.833,2.843 c -0.18,0.133 -0.085,0.421 0.139,0.421 h 4.698 c 0.1,0 0.19,0.063 0.221,0.159 l 1.512,4.497 c 0.073,0.212 0.374,0.211 0.443,-0.003 L 1.792,5.664 C 1.823,5.567 1.914,5.502 2.014,5.502 h 4.84 C 7.08,5.502 7.173,5.211 6.99,5.079 L 3.033,2.238 C 2.948,2.177 2.915,2.069 2.948,1.971 L 4.522,-2.506 C 4.597,-2.721 4.351,-2.905 4.166,-2.774 L 0.271,-0.001 C 0.189,0.057 0.082,0.057 0,0" style="fill:#001a54;fill-opacity:1;fill-rule:nonzero;stroke:none" id="path529"></path></g><g id="g531" transform="translate(296.4785,510.2119)"><path d="M 0,0 H -4.279 L -5.582,3.993 -6.924,0 h -4.162 l 3.405,-2.525 -1.304,-3.953 3.442,2.431 3.413,-2.431 -1.389,3.953 z" style="fill:#e9470a;fill-opacity:1;fill-rule:nonzero;stroke:none" id="path533"></path></g><g id="g535" transform="translate(285.9795,510.0176)"><path d="M 0,0 3.046,-2.26 1.883,-5.786 4.955,-3.615 7.983,-5.77 6.749,-2.258 9.896,0 H 6.08 L 4.914,3.57 3.714,0 Z M 8.754,-6.794 4.954,-4.091 1.146,-6.78 2.59,-2.403 -1.173,0.389 H 3.435 L 4.92,4.803 6.361,0.389 h 4.74 l -3.89,-2.794 z" style="fill:#ffffff;fill-opacity:1;fill-rule:nonzero;stroke:none" id="path537"></path></g><g id="g539" transform="translate(220.7524,140.6113)"><path d="m 0,0 c 0,38.856 31.5,70.355 70.355,70.355 38.856,0 70.355,-31.499 70.355,-70.355 0,-38.855 -31.499,-70.355 -70.355,-70.355 C 31.5,-70.355 0,-38.855 0,0" style="fill:#00205b;fill-opacity:1;fill-rule:nonzero;stroke:none" id="path541"></path></g><g id="g543" transform="translate(291.1074,213.6914)"><path d="m 0,0 c -19.52,0 -37.871,-7.603 -51.674,-21.403 -13.804,-13.804 -21.405,-32.157 -21.405,-51.677 0,-19.52 7.601,-37.872 21.405,-51.675 13.803,-13.802 32.154,-21.404 51.674,-21.404 19.521,0 37.873,7.602 51.676,21.404 13.803,13.803 21.403,32.155 21.403,51.675 0,19.52 -7.6,37.873 -21.403,51.677 C 37.873,-7.603 19.521,0 0,0 m 0,-2.724 c 38.856,0 70.355,-31.5 70.355,-70.356 0,-38.857 -31.499,-70.355 -70.355,-70.355 -38.855,0 -70.355,31.498 -70.355,70.355 0,38.856 31.5,70.356 70.355,70.356" style="fill:#b5b5b6;fill-opacity:1;fill-rule:nonzero;stroke:none" id="path545"></path></g><g id="g547" transform="translate(291.1074,206.417)"><path d="m 0,0 c -36.285,0 -65.804,-29.521 -65.804,-65.806 0,-36.284 29.519,-65.804 65.804,-65.804 36.286,0 65.807,29.52 65.807,65.804 C 65.807,-29.521 36.286,0 0,0" style="fill:#ffffff;fill-opacity:1;fill-rule:nonzero;stroke:none" id="path549"></path></g><g id="g551" transform="translate(351.1113,143.0693)"><path d="m 0,0 c -4.155,3.897 -9.171,5.648 -14.813,5.137 -1.394,4.323 -3.155,8.53 -5.277,12.607 5.946,1.403 11.167,2.377 15.428,3.053 -0.53,1.266 -1.108,2.509 -1.721,3.729 -4.232,-0.7 -9.548,-1.723 -15.663,-3.203 -2.081,3.618 -4.288,6.909 -6.591,9.9 0.563,0.344 1.116,0.716 1.657,1.123 3.027,2.276 5.938,5.945 5.346,11.452 -1.667,1.401 -3.41,2.715 -5.224,3.932 2.406,-5.233 1.602,-9.132 -2.503,-12.219 -0.581,-0.437 -1.181,-0.824 -1.793,-1.175 -11.359,13.343 -24.653,20.037 -36.526,23.267 -3.391,-0.391 -6.699,-1.058 -9.898,-1.985 12.801,-1.858 29.045,-7.554 42.591,-22.924 -5.919,-1.789 -12.71,-0.896 -18.871,0.186 -1.043,0.183 -2.094,0.372 -3.151,0.56 -12.358,2.217 -25.137,4.507 -37.387,1.115 -8.09,-2.241 -16.013,-7.237 -22.305,-13.823 -1.444,-3.445 -2.577,-7.051 -3.37,-10.784 6.134,9.977 16.293,17.9 26.733,20.79 11.38,3.152 23.709,0.942 35.63,-1.196 1.062,-0.19 2.118,-0.379 3.165,-0.563 7.635,-1.341 15.482,-2.105 22.268,0.463 2.171,-2.757 4.258,-5.79 6.233,-9.124 -7.511,-1.959 -16.014,-4.571 -25.05,-8.053 -24.806,-9.559 -46.702,-22.846 -65.144,-39.519 0.558,-1.262 1.158,-2.501 1.798,-3.716 30.714,28.117 65.757,41.459 90.388,47.741 0.072,-0.135 0.146,-0.267 0.217,-0.403 2.057,-3.891 3.756,-7.887 5.111,-11.978 -9.446,-2.916 -15.781,-13.85 -23.034,-26.379 -8.64,-14.93 -18.423,-31.811 -35.742,-39.1 2.009,-0.579 4.06,-1.057 6.149,-1.428 15.665,8.573 24.835,24.403 33.022,38.544 6.822,11.785 12.776,22.068 20.754,24.573 4.004,-14.579 3.685,-30.339 -0.974,-47.07 1.989,1.915 3.848,3.964 5.561,6.133 1.598,7.688 2.3,15.246 2.082,22.569 -0.194,6.525 -1.123,12.877 -2.766,19.017 5.472,0.271 9.966,-2.102 13.648,-7.208 0.055,1.071 0.085,2.149 0.085,3.236 C 0.063,-1.811 0.04,-0.903 0,0" style="fill:#f4f4f4;fill-opacity:1;fill-rule:nonzero;stroke:none" id="path553"></path></g><g id="g555" transform="translate(291.1074,203.0928)"><path d="m 0,0 c -34.452,0 -62.48,-28.028 -62.48,-62.481 0,-34.453 28.028,-62.48 62.48,-62.48 34.453,0 62.48,28.027 62.48,62.48 C 62.48,-28.028 34.453,0 0,0 m 0,-2.421 c 33.171,0 60.06,-26.891 60.06,-60.06 0,-33.17 -26.889,-60.059 -60.06,-60.059 -33.17,0 -60.059,26.889 -60.059,60.059 0,33.169 26.889,60.06 60.059,60.06" style="fill:#007f41;fill-opacity:1;fill-rule:nonzero;stroke:none" id="path557"></path></g><g id="g559" transform="translate(259.3008,183.874)"><path d="m 0,0 -2.032,-1.572 3.96,-5.113 2.031,1.573 z m 5.45,-6.13 -3.902,-3.021 -6.061,7.828 3.902,3.022 1.736,-0.221 4.546,-5.872 z" style="fill:#007f41;fill-opacity:1;fill-rule:nonzero;stroke:none" id="path561"></path></g><g id="g563" transform="translate(270.3931,185.7871)"><path d="m 0,0 -2.305,-1.131 1.083,-2.208 2.307,1.132 z M -1.765,3.599 -4.07,2.467 -3.055,0.396 -0.75,1.528 Z M 2.341,-3.504 -2.076,-5.672 -6.438,3.218 -2.021,5.385 -0.365,4.82 0.896,2.25 0.542,1.214 1.578,0.86 2.907,-1.848 Z" style="fill:#007f41;fill-opacity:1;fill-rule:nonzero;stroke:none" id="path565"></path></g><g id="g567" transform="translate(285.3535,193.9951)"><path d="m 0,0 -2.547,-0.334 0.344,-2.623 2.546,0.334 z M 1.118,-4.253 -1.98,-4.658 -1.483,-8.447 -3.262,-8.681 -4.548,1.135 0.329,1.773 1.715,0.708 2.184,-2.865 Z" style="fill:#007f41;fill-opacity:1;fill-rule:nonzero;stroke:none" id="path569"></path></g><g id="g571" transform="translate(296.1533,194.0713)"><path d="m 0,0 -2.562,0.172 -0.172,-2.561 2.562,-0.172 z m -0.441,-8.171 -1.225,3.912 -1.188,0.08 L -3.11,-7.99 -4.9,-7.871 -4.237,2.006 0.67,1.676 1.822,0.358 1.58,-3.238 0.262,-4.389 1.549,-8.304 Z" style="fill:#007f41;fill-opacity:1;fill-rule:nonzero;stroke:none" id="path573"></path></g><g id="g575" transform="translate(306.5537,192.0449)"><path d="m 0,0 -2.476,0.68 -1.709,-6.237 2.477,-0.677 z m -1.625,-8.037 -3.55,0.973 -0.867,1.519 1.963,7.16 1.519,0.867 3.552,-0.972 0.866,-1.521 -1.962,-7.16 z" style="fill:#007f41;fill-opacity:1;fill-rule:nonzero;stroke:none" id="path577"></path></g><g id="g579" transform="translate(315.3701,179.2695)"><path d="m 0,0 -1.536,0.804 2.39,4.599 -2.905,-2.479 -0.794,0.415 0.381,3.799 -2.402,-4.592 -1.549,0.81 4.589,8.775 1.453,-0.762 L -0.892,6.105 3.137,9.533 4.59,8.772 Z" style="fill:#007f41;fill-opacity:1;fill-rule:nonzero;stroke:none" id="path581"></path></g><g id="g583" transform="translate(323.4053,178.1934)"><path d="m 0,0 -2.584,-3.122 -1.37,1.135 2.572,3.131 L 0.166,7.452 1.775,6.121 0.555,2.052 4.276,4.05 5.851,2.748 Z" style="fill:#007f41;fill-opacity:1;fill-rule:nonzero;stroke:none" id="path585"></path></g><g id="g587" transform="translate(246.0176,120.0352)"><path d="m 0,0 -0.714,1.64 -1.688,-0.736 0.713,-1.638 z m -2.63,-1.566 -0.868,1.994 -2.439,-1.062 -0.498,1.146 6.319,2.75 1.366,-3.14 -0.446,-1.134 -2.3,-1.002 z" style="fill:#007f41;fill-opacity:1;fill-rule:nonzero;stroke:none" id="path589"></path></g><g id="g591" transform="translate(249.2729,114.042)"><path d="m 0,0 -0.93,1.527 -1.527,-0.929 0.93,-1.527 z m -4.827,-3.026 1.735,2.265 -0.432,0.709 -2.271,-1.384 -0.65,1.068 5.886,3.584 1.782,-2.925 -0.288,-1.184 -2.144,-1.304 -1.183,0.288 -1.712,-2.304 z" style="fill:#007f41;fill-opacity:1;fill-rule:nonzero;stroke:none" id="path593"></path></g><g id="g595" transform="translate(253.2178,108.6777)"><path d="m 0,0 -1.127,1.388 -3.494,-2.841 1.129,-1.386 z m -4.175,-3.895 -1.617,1.989 0.125,1.213 4.01,3.261 1.213,-0.125 1.617,-1.988 -0.125,-1.213 -4.01,-3.262 z" style="fill:#007f41;fill-opacity:1;fill-rule:nonzero;stroke:none" id="path597"></path></g><g id="g599" transform="translate(261.2129,101.0869)"><path d="m 0,0 -1.405,1.105 -0.993,-1.26 1.404,-1.105 z m -1.725,-2.192 -1.404,1.107 -1.06,-1.347 1.405,-1.105 z M -3.219,-4.716 -5.91,-2.598 -1.647,2.817 1.044,0.7 1.188,-0.51 -0.043,-2.076 -0.801,-2.165 -0.71,-2.922 -2.009,-4.571 Z" style="fill:#007f41;fill-opacity:1;fill-rule:nonzero;stroke:none" id="path601"></path></g><g id="g603" transform="translate(265.6187,97.1738)"><path d="m 0,0 -1.512,-1.509 0.919,-0.541 z m -1.318,-4.896 0.438,1.703 -1.484,0.873 -1.228,-1.238 -1.077,0.633 5.193,4.941 0.984,-0.58 -1.787,-6.944 z" style="fill:#007f41;fill-opacity:1;fill-rule:nonzero;stroke:none" id="path605"></path></g><g id="g607" transform="translate(270.9971,89.125)"><path d="m 0,0 -2.632,1.102 -0.294,0.719 0.278,0.665 2.731,-1.143 0.615,1.47 -1.957,0.819 -0.462,1.127 0.89,2.127 1.127,0.461 2.633,-1.1 L 3.223,5.527 2.945,4.862 0.212,6.005 -0.361,4.634 1.597,3.814 2.055,2.679 1.128,0.463 Z" style="fill:#007f41;fill-opacity:1;fill-rule:nonzero;stroke:none" id="path609"></path></g><g id="g611" transform="translate(278.981,86.6748)"><path d="M 0,0 -0.492,3.929 -2.359,2.464 -2.807,0.72 -4.016,1.031 -2.302,7.709 -1.092,7.397 -1.898,4.257 1.297,6.784 2.716,6.42 0.673,4.787 1.252,-0.322 Z" style="fill:#007f41;fill-opacity:1;fill-rule:nonzero;stroke:none" id="path613"></path></g><g id="g615" transform="translate(283.0117,85.918)"><path d="M 0,0 0.75,6.85 5.021,6.382 4.891,5.193 1.873,5.524 1.696,3.908 3.74,3.685 3.604,2.443 1.559,2.666 1.382,1.05 4.4,0.72 4.271,-0.469 Z" style="fill:#007f41;fill-opacity:1;fill-rule:nonzero;stroke:none" id="path617"></path></g><g id="g619" transform="translate(294.6338,91.1279)"><path d="m 0,0 -1.787,-0.038 0.124,-5.697 -1.249,-0.028 -0.125,5.697 -1.787,-0.05 -0.026,1.205 4.824,0.106 z" style="fill:#007f41;fill-opacity:1;fill-rule:nonzero;stroke:none" id="path621"></path></g><g id="g623" transform="translate(300.167,89.0439)"><path d="m 0,0 -1.766,-0.277 0.265,-1.691 1.766,0.276 z m -0.433,2.755 -1.764,-0.277 0.248,-1.585 1.764,0.276 z m 1.266,-5.568 -3.382,-0.53 -1.067,6.808 3.383,0.53 L 0.749,3.277 1.059,1.31 0.61,0.695 1.226,0.246 1.55,-1.828 Z" style="fill:#007f41;fill-opacity:1;fill-rule:nonzero;stroke:none" id="path625"></path></g><g id="g627" transform="translate(305.6064,92.3711)"><path d="m 0,0 0.079,-2.136 1.022,0.308 z m 2.696,-4.295 -0.951,1.48 -1.65,-0.497 0.073,-1.743 -1.195,-0.36 -0.096,7.169 1.093,0.329 3.881,-6.031 z" style="fill:#007f41;fill-opacity:1;fill-rule:nonzero;stroke:none" id="path629"></path></g><g id="g631" transform="translate(312.0186,89.4248)"><path d="M 0,0 -2.822,6.285 -1.683,6.798 0.649,1.602 3.174,2.733 3.664,1.644 Z" style="fill:#007f41;fill-opacity:1;fill-rule:nonzero;stroke:none" id="path633"></path></g><g id="g635" transform="translate(318.2832,92.4639)"><path d="M 0,0 -3.592,5.882 -2.525,6.533 0.444,1.671 2.807,3.114 3.429,2.094 Z" style="fill:#007f41;fill-opacity:1;fill-rule:nonzero;stroke:none" id="path637"></path></g><g id="g639" transform="translate(330.1563,101.5039)"><path d="M 0,0 -1.765,-1.678 -2.982,-1.647 -6.546,2.1 -6.515,3.316 -4.752,4.995 -3.532,4.964 -3.304,4.722 -5.41,2.718 -2.308,-0.545 -0.2,1.46 0.029,1.217 Z" style="fill:#007f41;fill-opacity:1;fill-rule:nonzero;stroke:none" id="path641"></path></g><g id="g643" transform="translate(332.8076,104.3184)"><path d="M 0,0 -5.345,4.354 -4.556,5.323 -0.138,1.725 1.609,3.869 2.538,3.115 Z" style="fill:#007f41;fill-opacity:1;fill-rule:nonzero;stroke:none" id="path645"></path></g><g id="g647" transform="translate(338.8633,112.7842)"><path d="m 0,0 -1.343,-2.185 -1.185,-0.282 -5.137,3.161 0.654,1.064 4.853,-2.986 0.937,1.524 -4.853,2.985 0.655,1.065 5.137,-3.161 z" style="fill:#007f41;fill-opacity:1;fill-rule:nonzero;stroke:none" id="path649"></path></g><g id="g651" transform="translate(339.4189,120.415)"><path d="m 0,0 -0.719,-1.638 1.569,-0.687 0.717,1.637 z m -2.554,1.12 -0.717,-1.638 1.468,-0.644 0.717,1.638 z m 5.372,-1.933 -1.376,-3.137 -6.31,2.769 1.376,3.136 1.134,0.442 1.824,-0.799 0.277,-0.71 0.709,0.277 1.923,-0.843 z" style="fill:#007f41;fill-opacity:1;fill-rule:nonzero;stroke:none" id="path653"></path></g><g id="g655" transform="translate(293.0308,174.7627)"><path d="m 0,0 -2.523,-1.782 c -0.119,-0.084 -0.278,0.033 -0.231,0.172 l 0.955,2.894 c 0.022,0.062 0,0.13 -0.054,0.169 L -4.34,3.299 c -0.117,0.086 -0.056,0.272 0.09,0.272 h 3.049 c 0.065,0 0.123,0.042 0.145,0.104 l 0.981,2.919 C -0.028,6.731 0.167,6.73 0.212,6.592 L 1.165,3.677 C 1.185,3.614 1.243,3.571 1.309,3.571 h 3.14 c 0.147,0 0.208,-0.188 0.088,-0.273 L 1.969,1.453 C 1.914,1.413 1.892,1.343 1.914,1.279 l 1.021,-2.906 c 0.05,-0.14 -0.11,-0.259 -0.23,-0.174 L 0.175,0 C 0.124,0.036 0.053,0.036 0,0" style="fill:#001a54;fill-opacity:1;fill-rule:nonzero;stroke:none" id="path657"></path></g><g id="g659" transform="translate(296.7188,177.9375)"><path d="M 0,0 H -2.777 L -3.624,2.593 -4.495,0 h -2.701 l 2.21,-1.639 -0.847,-2.565 2.234,1.577 2.216,-1.577 -0.901,2.565 z" style="fill:#e9470a;fill-opacity:1;fill-rule:nonzero;stroke:none" id="path661"></path></g><g id="g663" transform="translate(289.9033,177.8115)"><path d="M 0,0 1.978,-1.467 1.222,-3.756 3.216,-2.347 5.182,-3.745 4.381,-1.466 6.425,0 H 3.947 L 3.19,2.317 2.411,0 Z M 5.683,-4.411 3.216,-2.655 0.744,-4.401 1.683,-1.56 -0.762,0.252 H 2.23 L 3.195,3.118 4.129,0.252 H 7.207 L 4.681,-1.561 Z" style="fill:#ffffff;fill-opacity:1;fill-rule:nonzero;stroke:none" id="path665"></path></g><path d="M 308.057,139.707 H 274.72 v 9.531 h 33.337 z m 1.606,16.632 h -41.05 c -0.726,0 -1.314,-0.588 -1.314,-1.313 v -16.373 l -1.857,-2.412 c -0.205,-0.206 -0.205,-0.538 0,-0.744 l 1.857,-2.412 v -15.093 c 0,-0.228 0.27,-0.348 0.439,-0.195 l 6.981,6.318 v 8.556 h 33.338 l 6.867,6.216 c 0.352,0.319 0.553,0.771 0.553,1.246 v 10.392 c 0,0.447 -0.177,0.874 -0.493,1.189 l -4.131,4.133 c -0.316,0.315 -0.744,0.492 -1.19,0.492" style="fill:#001a54;fill-opacity:1;fill-rule:nonzero;stroke:none" id="path667"></path><path d="M 275.476,140.464 H 307.3 v 8.019 h -31.824 z m 33.338,-1.514 h -34.852 v 11.045 h 34.852 z m -42.703,-3.082 1.946,-2.527 v -14.236 l 5.905,5.347 v 8.976 h 33.803 l 6.65,6.019 c 0.195,0.175 0.305,0.426 0.305,0.686 v 10.392 c 0,0.244 -0.099,0.483 -0.27,0.654 l -4.133,4.133 c -0.174,0.174 -0.407,0.27 -0.654,0.27 h -41.05 c -0.307,0 -0.556,-0.249 -0.556,-0.556 v -16.63 z m 1.451,-18.895 c -0.141,0 -0.281,0.028 -0.414,0.087 -0.369,0.163 -0.607,0.529 -0.607,0.932 v 14.835 l -1.675,2.179 c -0.216,0.236 -0.334,0.539 -0.334,0.862 0,0.324 0.118,0.628 0.334,0.865 l 1.675,2.178 v 16.115 c 0,1.142 0.93,2.071 2.072,2.071 h 41.05 c 0.651,0 1.263,-0.253 1.724,-0.714 l 4.134,-4.133 c 0.46,-0.461 0.714,-1.072 0.714,-1.725 v -10.392 c 0,-0.688 -0.293,-1.347 -0.802,-1.807 l -7.083,-6.413 h -32.874 v -8.134 l -7.23,-6.544 c -0.191,-0.172 -0.436,-0.262 -0.684,-0.262" style="fill:#001a54;fill-opacity:1;fill-rule:nonzero;stroke:none" id="path669"></path><g id="g671" transform="translate(274.7192,149.7646)"><path d="m 0,0 c -0.29,0 -0.526,-0.235 -0.526,-0.526 v -9.532 c 0,-0.29 0.236,-0.525 0.526,-0.525 h 33.337 c 0.291,0 0.526,0.235 0.526,0.525 v 9.532 C 33.863,-0.235 33.628,0 33.337,0 Z m -6.895,-16.68 c 0,0.139 -0.055,0.272 -0.154,0.371 l -1.857,2.413 1.857,2.414 c 0.099,0.098 0.154,0.232 0.154,0.371 V 5.261 c 0,0.435 0.354,0.788 0.789,0.788 h 41.05 c 0.309,0 0.599,-0.12 0.817,-0.337 L 39.894,1.577 C 40.112,1.359 40.233,1.069 40.233,0.761 V -9.632 c 0,-0.325 -0.139,-0.639 -0.38,-0.856 l -6.718,-6.079 H 0 c -0.29,0 -0.526,-0.238 -0.526,-0.527 v -8.322 l -6.369,-5.765 z" style="fill:#001a54;fill-opacity:1;fill-rule:nonzero;stroke:none" id="path673"></path></g><g id="g675" transform="translate(274.7192,149.4619)"><path d="m 0,0 c -0.123,0 -0.222,-0.101 -0.222,-0.224 v -9.531 c 0,-0.122 0.099,-0.223 0.222,-0.223 h 33.337 c 0.124,0 0.222,0.101 0.222,0.223 v 9.531 C 33.559,-0.101 33.461,0 33.337,0 Z M 33.337,-10.583 H 0 c -0.457,0 -0.828,0.372 -0.828,0.828 v 9.531 c 0,0.457 0.371,0.83 0.828,0.83 h 33.337 c 0.458,0 0.83,-0.373 0.83,-0.83 v -9.531 c 0,-0.456 -0.372,-0.828 -0.83,-0.828 m -40.156,-5.225 c 0.146,-0.155 0.227,-0.356 0.227,-0.569 v -13.818 l 5.764,5.216 v 8.188 c 0,0.457 0.371,0.828 0.828,0.828 h 33.019 l 6.63,6.002 c 0.179,0.162 0.281,0.391 0.281,0.633 V 1.063 c 0,0.228 -0.09,0.442 -0.25,0.604 L 35.546,5.799 C 35.385,5.961 35.171,6.05 34.944,6.05 h -41.05 c -0.268,0 -0.486,-0.219 -0.486,-0.487 v -16.372 c 0,-0.212 -0.08,-0.415 -0.227,-0.57 l -1.704,-2.215 z m -0.378,-15.753 v 15.184 c 0,0.06 -0.024,0.114 -0.066,0.157 l -0.025,0.03 -2,2.596 2.025,2.627 c 0.042,0.043 0.066,0.1 0.066,0.158 V 5.563 c 0,0.602 0.489,1.09 1.091,1.09 h 41.05 c 0.389,0 0.756,-0.15 1.031,-0.425 L 40.108,2.095 C 40.384,1.818 40.536,1.452 40.536,1.063 V -9.328 c 0,-0.411 -0.175,-0.806 -0.48,-1.082 l -6.804,-6.157 H 0 c -0.123,0 -0.222,-0.101 -0.222,-0.224 v -8.455 z" style="fill:#001a54;fill-opacity:1;fill-rule:nonzero;stroke:none" id="path677"></path></g><g id="g679" transform="translate(308.0566,130.1143)"><path d="m 0,0 v -8.172 h -32.913 l -7.339,-6.641 c -0.178,-0.163 -0.064,-0.458 0.177,-0.458 H 1.606 c 0.447,0 0.874,0.176 1.19,0.492 l 4.132,4.133 c 0.317,0.315 0.492,0.742 0.492,1.188 V 1.624 c 0,0.444 -0.175,0.873 -0.492,1.189 L 5.291,4.45 c -0.1,0.1 -0.259,0.104 -0.362,0.01 z" style="fill:#001a54;fill-opacity:1;fill-rule:nonzero;stroke:none" id="path681"></path></g><g id="g683" transform="translate(269.2632,115.5996)"><path d="m 0,0 h 40.4 c 0.247,0 0.479,0.096 0.655,0.271 l 4.131,4.131 c 0.175,0.175 0.271,0.409 0.271,0.655 v 11.082 c 0,0.246 -0.096,0.478 -0.271,0.653 L 43.88,18.098 39.552,14.179 V 5.587 H 6.172 Z M 40.4,-1.514 H -1.282 c -0.426,0 -0.799,0.255 -0.951,0.653 -0.154,0.395 -0.048,0.838 0.266,1.123 L 5.589,7.1 h 32.448 v 7.75 l 5.175,4.685 c 0.405,0.365 1.022,0.351 1.407,-0.035 l 1.638,-1.637 c 0.461,-0.461 0.715,-1.074 0.715,-1.724 V 5.057 c 0,-0.652 -0.254,-1.263 -0.715,-1.724 L 42.124,-0.799 C 41.663,-1.26 41.051,-1.514 40.4,-1.514" style="fill:#001a54;fill-opacity:1;fill-rule:nonzero;stroke:none" id="path685"></path></g><g id="g687" transform="translate(268.6631,115.3682)"><path d="m 0,0 6.683,6.049 h 32.711 c 0.291,0 0.526,0.235 0.526,0.525 v 7.939 l 4.568,4.136 1.462,-1.462 c 0.219,-0.218 0.339,-0.509 0.339,-0.817 V 5.288 c 0,-0.308 -0.12,-0.599 -0.339,-0.817 L 41.817,0.338 C 41.6,0.12 41.31,0 41,0 Z" style="fill:#001a54;fill-opacity:1;fill-rule:nonzero;stroke:none" id="path689"></path></g><g id="g691" transform="translate(269.4482,115.6719)"><path d="m 0,0 h 40.215 c 0.228,0 0.442,0.088 0.602,0.249 l 4.134,4.132 c 0.16,0.162 0.25,0.377 0.25,0.603 v 11.082 c 0,0.228 -0.09,0.442 -0.25,0.603 l -1.258,1.258 -4.255,-3.853 V 6.271 c 0,-0.456 -0.372,-0.829 -0.83,-0.829 H 6.015 Z M 40.215,-0.606 H -1.571 l 7.352,6.655 h 32.827 c 0.124,0 0.224,0.099 0.224,0.222 v 8.072 l 4.882,4.419 1.665,-1.664 c 0.276,-0.276 0.428,-0.642 0.428,-1.032 V 4.984 c 0,-0.388 -0.152,-0.755 -0.428,-1.031 L 41.246,-0.18 c -0.275,-0.275 -0.642,-0.426 -1.031,-0.426" style="fill:#001a54;fill-opacity:1;fill-rule:nonzero;stroke:none" id="path693"></path></g><path d="M 296.729,111.428 H 286.11 v 48.326 h 10.619 z m 2.796,54.933 c -0.316,0.317 -0.743,0.493 -1.19,0.493 h -4.163 l -2.384,1.886 c -0.205,0.206 -0.538,0.206 -0.743,0 l -2.385,-1.886 h -8.72 c -0.725,0 -1.315,-0.588 -1.315,-1.313 v -59.9 c 0,-0.726 0.59,-1.313 1.315,-1.313 h 8.72 l 2.385,-1.702 c 0.205,-0.205 0.538,-0.205 0.743,0 l 2.384,1.702 h 4.099 c 0.487,0 0.956,0.193 1.299,0.538 l 4.041,4.039 c 0.346,0.345 0.539,0.814 0.539,1.301 v 50.356 c 0,0.752 -0.298,1.475 -0.832,2.007 z" style="fill:#001a54;fill-opacity:1;fill-rule:nonzero;stroke:none" id="path695"></path><path d="m 286.867,112.185 h 9.106 v 46.813 h -9.106 z m 10.621,-1.514 h -12.134 v 49.841 h 12.134 z m -17.548,55.427 c -0.307,0 -0.556,-0.249 -0.556,-0.557 v -59.9 c 0,-0.307 0.249,-0.557 0.556,-0.557 h 8.963 l 2.514,-1.793 2.513,1.793 h 4.341 c 0.288,0 0.561,0.112 0.764,0.317 l 4.041,4.039 c 0.205,0.206 0.317,0.477 0.317,0.766 v 50.356 c 0,0.555 -0.217,1.079 -0.61,1.471 l -3.793,3.794 c -0.175,0.175 -0.407,0.271 -0.655,0.271 h -4.426 l -2.492,1.971 -2.494,-1.971 z m 11.477,-64.382 c -0.317,0 -0.617,0.113 -0.852,0.322 l -2.147,1.532 h -8.478 c -1.142,0 -2.07,0.929 -2.07,2.071 v 59.9 c 0,1.142 0.928,2.07 2.07,2.07 h 8.457 l 2.151,1.702 c 0.489,0.451 1.247,0.451 1.737,0 l 2.15,-1.702 h 3.9 c 0.652,0 1.265,-0.254 1.726,-0.714 l 3.793,-3.793 c 0.679,-0.678 1.053,-1.583 1.053,-2.542 v -50.356 c 0,-0.693 -0.269,-1.345 -0.76,-1.836 l -4.042,-4.039 c -0.49,-0.49 -1.142,-0.761 -1.834,-0.761 h -3.856 l -2.147,-1.532 c -0.235,-0.209 -0.535,-0.322 -0.851,-0.322" style="fill:#001a54;fill-opacity:1;fill-rule:nonzero;stroke:none" id="path697"></path><g id="g699" transform="translate(286.1099,160.2803)"><path d="m 0,0 c -0.29,0 -0.525,-0.235 -0.525,-0.526 v -48.327 c 0,-0.291 0.235,-0.525 0.525,-0.525 h 10.619 c 0.292,0 0.526,0.234 0.526,0.525 V -0.526 C 11.145,-0.235 10.911,0 10.619,0 Z m 2.922,-55.582 c -0.098,0.1 -0.233,0.155 -0.372,0.155 h -8.72 c -0.434,0 -0.788,0.353 -0.788,0.787 V 5.261 c 0,0.434 0.354,0.788 0.788,0.788 h 8.72 c 0.143,0 0.278,0.057 0.376,0.159 L 5.312,8.093 7.687,6.208 C 7.786,6.106 7.92,6.049 8.063,6.049 h 4.163 c 0.309,0 0.6,-0.12 0.817,-0.338 L 16.837,1.917 C 17.275,1.479 17.515,0.899 17.515,0.28 v -50.354 c 0,-0.351 -0.137,-0.681 -0.386,-0.929 l -4.04,-4.041 c -0.248,-0.248 -0.577,-0.383 -0.928,-0.383 H 8.063 c -0.141,0 -0.274,-0.055 -0.373,-0.155 l -2.383,-1.827 z" style="fill:#001a54;fill-opacity:1;fill-rule:nonzero;stroke:none" id="path701"></path></g><g id="g703" transform="translate(286.1099,159.9766)"><path d="m 0,0 c -0.122,0 -0.222,-0.1 -0.222,-0.223 v -48.326 c 0,-0.122 0.1,-0.222 0.222,-0.222 h 10.619 c 0.124,0 0.223,0.1 0.223,0.222 V -0.223 C 10.842,-0.1 10.743,0 10.619,0 Z M 10.619,-49.378 H 0 c -0.456,0 -0.827,0.373 -0.827,0.829 v 48.326 c 0,0.457 0.371,0.829 0.827,0.829 h 10.619 c 0.458,0 0.829,-0.372 0.829,-0.829 v -48.326 c 0,-0.456 -0.371,-0.829 -0.829,-0.829 m -7.498,-5.671 c 0.161,-0.124 1.658,-1.271 2.186,-1.675 l 2.186,1.676 c 0.154,0.147 0.356,0.228 0.57,0.228 h 4.098 c 0.27,0 0.524,0.104 0.715,0.295 l 4.04,4.04 c 0.191,0.191 0.296,0.445 0.296,0.714 V 0.585 c 0,0.535 -0.21,1.042 -0.589,1.422 L 12.829,5.8 C 12.667,5.962 12.455,6.05 12.226,6.05 H 8.063 C 7.847,6.05 7.639,6.135 7.485,6.285 L 5.311,8.011 3.128,6.285 C 2.974,6.135 2.765,6.05 2.55,6.05 h -8.72 c -0.268,0 -0.485,-0.218 -0.485,-0.486 v -59.9 c 0,-0.268 0.217,-0.484 0.485,-0.484 h 8.72 c 0.215,0 0.417,-0.082 0.571,-0.229 m 2.288,-2.36 H 5.307 c -0.104,0 -0.104,0 -2.569,1.891 l -0.03,0.026 c -0.042,0.043 -0.098,0.065 -0.158,0.065 h -8.72 c -0.601,0 -1.091,0.489 -1.091,1.091 v 59.9 c 0,0.602 0.49,1.09 1.091,1.09 h 8.72 c 0.06,0 0.118,0.027 0.16,0.069 L 2.739,6.748 5.312,8.783 7.903,6.723 C 7.945,6.681 8.002,6.654 8.063,6.654 h 4.163 c 0.39,0 0.756,-0.15 1.031,-0.426 L 17.05,2.435 c 0.496,-0.495 0.768,-1.152 0.768,-1.85 v -50.356 c 0,-0.431 -0.168,-0.836 -0.473,-1.143 l -4.041,-4.039 c -0.306,-0.305 -0.712,-0.474 -1.143,-0.474 H 8.063 c -0.06,0 -0.116,-0.023 -0.158,-0.065 l -0.03,-0.026 z" style="fill:#001a54;fill-opacity:1;fill-rule:nonzero;stroke:none" id="path705"></path></g><path d="m 309.8,141.491 h -33.337 v 9.531 H 309.8 Z m 1.607,16.632 h -41.052 c -0.724,0 -1.313,-0.589 -1.313,-1.313 v -16.373 l -1.856,-2.413 c -0.206,-0.206 -0.206,-0.539 0,-0.744 l 1.856,-2.412 v -15.093 c 0,-0.228 0.271,-0.348 0.439,-0.195 l 6.982,6.319 v 8.555 H 309.8 l 6.867,6.215 c 0.354,0.319 0.554,0.772 0.554,1.248 v 10.392 c 0,0.445 -0.177,0.873 -0.492,1.188 l -4.132,4.133 c -0.318,0.315 -0.744,0.493 -1.19,0.493" style="fill:#008f43;fill-opacity:1;fill-rule:nonzero;stroke:none" id="path707"></path><path d="m 276.927,141.953 h 32.41 v 8.605 h -32.41 z m 33.337,-0.926 h -34.265 v 10.457 h 34.265 z m -39.909,16.632 c -0.467,0 -0.849,-0.382 -0.849,-0.849 v -16.53 l -1.993,-2.584 c -0.011,-0.011 -0.018,-0.026 -0.018,-0.044 0,-0.017 0.007,-0.031 0.018,-0.045 l 0.04,-0.044 1.953,-2.539 v -14.796 l 6.493,5.877 v 8.812 h 33.623 l 6.734,6.097 c 0.255,0.23 0.402,0.558 0.402,0.903 v 10.392 c 0,0.325 -0.127,0.63 -0.357,0.861 l -4.132,4.133 c -0.227,0.225 -0.541,0.356 -0.862,0.356 z m -1.05,-38.61 c -0.1,0 -0.2,0.019 -0.294,0.062 -0.262,0.117 -0.432,0.377 -0.432,0.664 v 14.935 l -1.745,2.268 c -0.172,0.184 -0.266,0.422 -0.266,0.674 0,0.253 0.094,0.492 0.266,0.674 l 1.745,2.269 v 16.215 c 0,0.979 0.797,1.776 1.776,1.776 h 41.052 c 0.572,0 1.111,-0.223 1.517,-0.629 l 4.133,-4.131 c 0.403,-0.406 0.628,-0.945 0.628,-1.517 v -10.392 c 0,-0.604 -0.258,-1.186 -0.706,-1.591 l -7,-6.336 h -33.052 v -8.297 l -7.134,-6.457 c -0.136,-0.123 -0.312,-0.187 -0.488,-0.187" style="fill:#001a54;fill-opacity:1;fill-rule:nonzero;stroke:none" id="path709"></path><g id="g711" transform="translate(276.4629,151.3623)"><path d="m 0,0 c -0.187,0 -0.34,-0.152 -0.34,-0.34 v -9.532 c 0,-0.188 0.153,-0.341 0.34,-0.341 h 33.337 c 0.189,0 0.341,0.153 0.341,0.341 V -0.34 C 33.678,-0.152 33.526,0 33.337,0 Z M 33.337,-10.583 H 0 c -0.392,0 -0.71,0.318 -0.71,0.711 v 9.532 c 0,0.392 0.318,0.711 0.71,0.711 h 33.337 c 0.392,0 0.713,-0.319 0.713,-0.711 v -9.532 c 0,-0.393 -0.321,-0.711 -0.713,-0.711 m -40.246,-5.419 c 0.129,-0.133 0.2,-0.308 0.2,-0.493 v -14.082 l 5.999,5.43 v 8.239 c 0,0.391 0.318,0.711 0.71,0.711 h 33.063 l 6.666,6.032 c 0.202,0.184 0.318,0.445 0.318,0.72 V 0.946 c 0,0.26 -0.101,0.503 -0.284,0.686 L 35.631,5.766 C 35.446,5.949 35.203,6.05 34.944,6.05 h -41.05 c -0.333,0 -0.603,-0.271 -0.603,-0.603 v -16.372 c 0,-0.185 -0.071,-0.361 -0.2,-0.494 l -1.763,-2.29 z m -0.172,-15.41 v 14.917 c 0,0.091 -0.035,0.176 -0.099,0.24 l -0.016,0.019 -1.944,2.527 1.96,2.544 c 0.064,0.064 0.099,0.149 0.099,0.24 V 5.447 c 0,0.536 0.438,0.973 0.975,0.973 h 41.05 c 0.358,0 0.695,-0.139 0.948,-0.393 l 4.133,-4.132 c 0.254,-0.253 0.393,-0.59 0.393,-0.949 V -9.445 c 0,-0.378 -0.16,-0.742 -0.44,-0.995 l -6.772,-6.127 H 0 c -0.187,0 -0.34,-0.155 -0.34,-0.341 v -8.404 z" style="fill:#ffffff;fill-opacity:1;fill-rule:nonzero;stroke:none" id="path713"></path></g><g id="g715" transform="translate(309.7998,131.8975)"><path d="m 0,0 v -8.171 h -32.913 l -7.338,-6.642 c -0.179,-0.163 -0.065,-0.459 0.175,-0.459 H 1.607 c 0.446,0 0.872,0.177 1.19,0.493 l 4.133,4.133 c 0.314,0.316 0.491,0.743 0.491,1.188 V 1.623 c 0,0.446 -0.177,0.873 -0.491,1.19 L 5.29,4.451 C 5.191,4.55 5.032,4.554 4.928,4.46 Z" style="fill:#008f43;fill-opacity:1;fill-rule:nonzero;stroke:none" id="path717"></path></g><g id="g719" transform="translate(270.2451,117.0889)"><path d="m 0,0 h 41.162 c 0.324,0 0.63,0.127 0.86,0.357 l 4.134,4.132 c 0.23,0.231 0.357,0.536 0.357,0.862 v 11.081 c 0,0.326 -0.127,0.631 -0.357,0.862 l -1.505,1.502 -4.632,-4.193 V 6.175 H 6.821 Z M 41.162,-0.926 H -0.521 c -0.302,0 -0.569,0.182 -0.678,0.465 -0.109,0.282 -0.033,0.597 0.19,0.8 l 7.473,6.762 h 32.628 v 7.914 l 5.08,4.597 c 0.287,0.26 0.727,0.249 1,-0.024 l 1.64,-1.64 c 0.403,-0.404 0.627,-0.943 0.627,-1.516 V 5.351 c 0,-0.573 -0.224,-1.112 -0.627,-1.517 l -4.133,-4.132 c -0.406,-0.404 -0.945,-0.628 -1.517,-0.628" style="fill:#001a54;fill-opacity:1;fill-rule:nonzero;stroke:none" id="path721"></path></g><g id="g723" transform="translate(276.4629,151.5479)"><path d="m 0,0 c -0.29,0 -0.525,-0.236 -0.525,-0.525 v -9.533 c 0,-0.29 0.235,-0.525 0.525,-0.525 h 33.337 c 0.291,0 0.526,0.235 0.526,0.525 v 9.533 C 33.863,-0.236 33.628,0 33.337,0 Z m -6.896,-16.681 c 0,0.139 -0.055,0.274 -0.153,0.372 l -1.857,2.413 1.857,2.414 c 0.098,0.098 0.153,0.232 0.153,0.372 V 5.262 c 0,0.433 0.354,0.787 0.79,0.787 h 41.05 c 0.309,0 0.598,-0.12 0.819,-0.339 l 4.131,-4.132 c 0.218,-0.219 0.339,-0.51 0.339,-0.817 V -9.631 c 0,-0.327 -0.139,-0.639 -0.38,-0.857 l -6.717,-6.08 H 0 c -0.29,0 -0.525,-0.236 -0.525,-0.526 v -8.322 l -6.371,-5.765 z" style="fill:#007f41;fill-opacity:1;fill-rule:nonzero;stroke:none" id="path725"></path></g><g id="g727" transform="translate(270.4058,117.1514)"><path d="m 0,0 6.684,6.05 h 32.71 c 0.291,0 0.525,0.235 0.525,0.525 v 7.938 l 4.571,4.134 1.461,-1.459 c 0.218,-0.219 0.34,-0.509 0.34,-0.819 V 5.288 c 0,-0.309 -0.122,-0.598 -0.34,-0.817 L 41.819,0.339 C 41.599,0.121 41.31,0 41.001,0 Z" style="fill:#007f41;fill-opacity:1;fill-rule:nonzero;stroke:none" id="path729"></path></g><g id="g731" transform="translate(270.8867,117.3379)"><path d="m 0,0 h 40.521 c 0.258,0 0.501,0.101 0.686,0.284 l 4.132,4.131 c 0.183,0.185 0.284,0.428 0.284,0.687 v 11.081 c 0,0.259 -0.101,0.503 -0.284,0.687 l -1.336,1.337 -4.377,-3.963 V 6.389 c 0,-0.393 -0.32,-0.711 -0.713,-0.711 l -32.638,0 z M 40.521,-0.372 H -0.962 l 7.094,6.42 h 32.781 c 0.189,0 0.341,0.153 0.341,0.341 v 8.019 l 4.762,4.31 1.586,-1.586 c 0.253,-0.254 0.392,-0.591 0.392,-0.949 V 5.102 c 0,-0.359 -0.139,-0.695 -0.392,-0.948 L 41.468,0.021 c -0.253,-0.253 -0.59,-0.393 -0.947,-0.393" style="fill:#007f41;fill-opacity:1;fill-rule:nonzero;stroke:none" id="path733"></path></g><g id="g735" transform="translate(275.7793,141.376)"><path d="m 0,0 v 8.688 h -0.382 c -0.29,0 -0.525,-0.235 -0.525,-0.525 v -9.532 c 0,-0.29 0.235,-0.527 0.525,-0.527 h 33.338 c 0.291,0 0.525,0.237 0.525,0.527 v 0.844 H 0.525 C 0.235,-0.525 0,-0.29 0,0" style="fill:#004b21;fill-opacity:1;fill-rule:nonzero;stroke:none" id="path737"></path></g><g id="g739" transform="translate(316.3564,153.126)"><path d="m 0,0 -4.132,4.132 c -0.22,0.22 -0.509,0.339 -0.818,0.339 H -46 c -0.435,0 -0.789,-0.354 -0.789,-0.787 V 3.102 h 40.932 c 0.309,0 0.599,-0.121 0.818,-0.337 l 4.133,-4.134 c 0.218,-0.218 0.339,-0.509 0.339,-0.817 v -10.356 l 0.526,0.476 c 0.241,0.218 0.381,0.53 0.381,0.857 V -0.817 C 0.34,-0.509 0.219,-0.219 0,0" style="fill:#004b21;fill-opacity:1;fill-rule:nonzero;stroke:none" id="path741"></path></g><g id="g743" transform="translate(274.8721,133.1387)"><path d="m 0,0 v -7.774 l 0.907,0.822 V 0.525 H 0.526 C 0.236,0.525 0,0.291 0,0" style="fill:#004b21;fill-opacity:1;fill-rule:nonzero;stroke:none" id="path745"></path></g><g id="g747" transform="translate(309.0537,121.832)"><path d="m 0,0 c 0.289,0 0.524,0.235 0.524,0.525 v 0.844 h -32.33 l -6.682,-6.05 h 0.605 L -32.712,0 Z" style="fill:#004b21;fill-opacity:1;fill-rule:nonzero;stroke:none" id="path749"></path></g><g id="g751" transform="translate(267.9307,137.3936)"><path d="M 0,0 -0.19,0.246 1.728,2.683 V 2.392 C 1.728,2.228 1.663,2.07 1.547,1.955 Z" style="fill:#004b21;fill-opacity:1;fill-rule:nonzero;stroke:none" id="path753"></path></g><g id="g755" transform="translate(314.8955,135.6104)"><path d="m 0,0 -4.569,-4.135 v -0.547 l 3.661,3.315 1.463,-1.462 c 0.217,-0.219 0.339,-0.509 0.339,-0.817 v -11.082 c 0,-0.006 -0.001,-0.011 -0.001,-0.018 l 0.568,0.569 c 0.219,0.219 0.338,0.509 0.338,0.818 v 11.081 c 0,0.308 -0.119,0.599 -0.338,0.817 z" style="fill:#004b21;fill-opacity:1;fill-rule:nonzero;stroke:none" id="path757"></path></g><g id="g759" transform="translate(276.4629,151.3623)"><path d="m 0,0 c -0.187,0 -0.34,-0.152 -0.34,-0.34 v -9.532 c 0,-0.188 0.153,-0.341 0.34,-0.341 h 33.337 c 0.189,0 0.341,0.153 0.341,0.341 V -0.34 C 33.678,-0.152 33.526,0 33.337,0 Z M 33.337,-10.583 H 0 c -0.392,0 -0.71,0.318 -0.71,0.711 v 9.532 c 0,0.392 0.318,0.711 0.71,0.711 h 33.337 c 0.392,0 0.713,-0.319 0.713,-0.711 v -9.532 c 0,-0.393 -0.321,-0.711 -0.713,-0.711 m -40.246,-5.419 c 0.129,-0.133 0.2,-0.308 0.2,-0.493 v -14.082 l 5.999,5.43 v 8.239 c 0,0.391 0.318,0.711 0.71,0.711 h 33.063 l 6.666,6.032 c 0.202,0.184 0.318,0.445 0.318,0.72 V 0.946 c 0,0.26 -0.101,0.503 -0.284,0.686 L 35.631,5.766 C 35.446,5.949 35.203,6.05 34.944,6.05 h -41.05 c -0.333,0 -0.603,-0.271 -0.603,-0.603 v -16.372 c 0,-0.185 -0.071,-0.361 -0.2,-0.494 l -1.763,-2.29 z m -0.172,-15.41 v 14.917 c 0,0.091 -0.035,0.176 -0.099,0.24 l -0.016,0.019 -1.944,2.527 1.96,2.544 c 0.064,0.064 0.099,0.149 0.099,0.24 V 5.447 c 0,0.536 0.438,0.973 0.975,0.973 h 41.05 c 0.358,0 0.695,-0.139 0.948,-0.393 l 4.133,-4.132 c 0.254,-0.253 0.393,-0.59 0.393,-0.949 V -9.445 c 0,-0.378 -0.16,-0.742 -0.44,-0.995 l -6.772,-6.127 H 0 c -0.187,0 -0.34,-0.155 -0.34,-0.341 v -8.404 z" style="fill:#ffffff;fill-opacity:1;fill-rule:nonzero;stroke:none" id="path761"></path></g><g id="g763" transform="translate(270.8867,117.3379)"><path d="m 0,0 h 40.521 c 0.258,0 0.501,0.101 0.686,0.284 l 4.132,4.131 c 0.183,0.185 0.284,0.428 0.284,0.687 v 11.081 c 0,0.259 -0.101,0.503 -0.284,0.687 l -1.336,1.337 -4.377,-3.963 V 6.389 c 0,-0.393 -0.32,-0.711 -0.713,-0.711 l -32.638,0 z M 40.521,-0.372 H -0.962 l 7.094,6.42 h 32.781 c 0.189,0 0.341,0.153 0.341,0.341 v 8.019 l 4.762,4.31 1.586,-1.586 c 0.253,-0.254 0.392,-0.591 0.392,-0.949 V 5.102 c 0,-0.359 -0.139,-0.695 -0.392,-0.948 L 41.468,0.021 c -0.253,-0.253 -0.59,-0.393 -0.947,-0.393" style="fill:#ffffff;fill-opacity:1;fill-rule:nonzero;stroke:none" id="path765"></path></g><g id="g767" transform="translate(287.1421,160.8154)"><path d="M 0,0 H -0.177 C -0.466,0 -0.701,-0.235 -0.701,-0.526 V -18.862 H 0 Z" style="fill:#004b21;fill-opacity:1;fill-rule:nonzero;stroke:none" id="path769"></path></g><g id="g771" transform="translate(304.8516,111.1914)"><path d="M 0,0 C 0.213,0.214 0.331,0.497 0.331,0.799 V 4.972 H -0.392 V -0.391 Z" style="fill:#004b21;fill-opacity:1;fill-rule:nonzero;stroke:none" id="path773"></path></g><g id="g775" transform="translate(287.1421,113.2109)"><path d="M 0,0 V 20.779 H -0.701 V -1.248 c 0,-0.29 0.235,-0.525 0.524,-0.525 h 10.619 c 0.291,0 0.526,0.235 0.526,0.525 v 0.537 H 0.711 C 0.319,-0.711 0,-0.393 0,0" style="fill:#004b21;fill-opacity:1;fill-rule:nonzero;stroke:none" id="path777"></path></g><g id="g779" transform="translate(304.5586,163.8506)"><path d="m 0,0 -3.794,3.792 c -0.137,0.137 -0.31,0.229 -0.495,0.266 0,0 -0.002,0 -0.002,0.001 -0.049,0.008 -0.1,0.012 -0.15,0.014 -0.013,0 -0.026,0.002 -0.039,0.002 h -4.165 c -0.038,0 -0.075,0.004 -0.112,0.013 -0.145,0.023 -0.282,0.09 -0.388,0.194 l -2.251,1.787 -2.26,-1.787 C -13.761,4.178 -13.897,4.111 -14.043,4.088 -14.08,4.079 -14.117,4.075 -14.156,4.075 h -8.719 c -0.046,0 -0.088,-0.007 -0.131,-0.013 -0.271,-0.06 -0.473,-0.301 -0.473,-0.588 V 2.562 c 0.127,0.09 0.282,0.144 0.45,0.144 h 7.966 c 0.142,0 0.277,0.057 0.376,0.158 l 2.385,1.886 2.375,-1.886 c 0.098,-0.101 0.234,-0.158 0.376,-0.158 h 4.164 c 0.309,0 0.6,-0.12 0.817,-0.339 l 3.794,-3.793 c 0.437,-0.436 0.677,-1.018 0.677,-1.637 v -2.202 h 0.723 v 3.758 C 0.624,-0.938 0.401,-0.403 0,0" style="fill:#004b21;fill-opacity:1;fill-rule:nonzero;stroke:none" id="path781"></path></g><g id="g783" transform="translate(305.3672,116.1631)"><path d="m 0,0 h -0.185 v -4.173 c 0,-0.302 -0.118,-0.584 -0.331,-0.798 l -0.39,-0.391 -3.651,-3.65 C -4.77,-9.225 -5.053,-9.341 -5.355,-9.341 h -4.098 c -0.185,0 -0.36,-0.071 -0.493,-0.2 l -2.262,-1.733 c -0.453,0.345 -2.125,1.628 -2.263,1.733 -0.133,0.129 -0.308,0.2 -0.494,0.2 h -8.719 c -0.334,0 -0.604,0.27 -0.604,0.603 v 26.565 h -0.186 -0.061 -0.124 V -8.738 c 0,-0.538 0.437,-0.975 0.975,-0.975 h 8.719 c 0.091,0 0.176,-0.035 0.241,-0.099 l 0.018,-0.016 c 2.434,-1.866 2.434,-1.866 2.498,-1.866 h 0.062 l 2.435,1.866 0.018,0.016 c 0.065,0.064 0.149,0.099 0.24,0.099 h 4.098 c 0.402,0 0.779,0.156 1.06,0.44 l 4.041,4.04 c 0.283,0.283 0.44,0.66 0.44,1.06 L 0.186,0 H 0.062 Z" style="fill:#ffffff;fill-opacity:1;fill-rule:nonzero;stroke:none" id="path785"></path></g><g id="g787" transform="translate(298.9355,158.5859)"><path d="m 0,0 h 0.062 0.186 v 2.951 c 0,0.393 -0.319,0.712 -0.712,0.712 h -10.619 c -0.392,0 -0.71,-0.319 -0.71,-0.712 V 2.229 -16.633 h 0.029 0.156 0.062 0.123 V 2.951 c 0,0.189 0.152,0.341 0.34,0.341 h 10.619 c 0.189,0 0.34,-0.152 0.34,-0.341 l 0,-2.951 z" style="fill:#ffffff;fill-opacity:1;fill-rule:nonzero;stroke:none" id="path789"></path></g><g id="g791" transform="translate(304.8203,164.1113)"><path d="m 0,0 -3.793,3.794 c -0.254,0.253 -0.59,0.393 -0.949,0.393 h -4.164 c -0.091,0 -0.179,0.037 -0.243,0.102 l -2.507,1.993 -2.5,-1.976 -0.018,-0.017 c -0.064,-0.065 -0.153,-0.102 -0.244,-0.102 h -8.719 c -0.538,0 -0.975,-0.437 -0.975,-0.974 v -25.371 h 0.124 0.061 0.186 V 2.301 3.213 c 0,0.287 0.202,0.528 0.473,0.588 0.043,0.007 0.085,0.013 0.131,0.013 h 8.719 c 0.039,0 0.077,0.004 0.113,0.013 0.146,0.024 0.282,0.09 0.387,0.194 l 2.261,1.788 2.251,-1.788 C -9.3,3.917 -9.164,3.851 -9.019,3.827 -8.982,3.818 -8.944,3.814 -8.906,3.814 h 4.164 c 0.013,0 0.026,-10e-4 0.039,-10e-4 0.051,-0.002 0.101,-0.006 0.15,-0.015 0,-10e-4 0.002,-10e-4 0.002,-10e-4 0.186,-0.037 0.359,-0.128 0.495,-0.266 l 3.793,-3.792 C 0.14,-0.664 0.362,-1.198 0.362,-1.768 v -3.757 h 0.37 v 3.757 C 0.732,-1.1 0.472,-0.472 0,0" style="fill:#ffffff;fill-opacity:1;fill-rule:nonzero;stroke:none" id="path793"></path></g><g id="g795" transform="translate(287.1421,113.2109)"><path d="m 0,0 c 0,-0.393 0.319,-0.711 0.711,-0.711 h 10.257 0.362 c 0.392,0 0.712,0.318 0.712,0.711 V 2.952 H 11.855 11.793 11.67 V 0 c 0,-0.188 -0.152,-0.341 -0.34,-0.341 H 0.711 c -0.189,0 -0.34,0.153 -0.34,0.341 V 20.779 H 0.248 0.186 0.03 0 Z" style="fill:#ffffff;fill-opacity:1;fill-rule:nonzero;stroke:none" id="path797"></path></g><g id="g799" transform="translate(298.4717,161.8779)"><path d="m 0,0 h -10.619 c -0.188,0 -0.34,-0.152 -0.34,-0.341 v -19.584 h 0.34 0.464 v 19.121 h 9.691 V -3.292 H 0 0.34 v 2.951 C 0.34,-0.152 0.188,0 0,0" style="fill:#001a54;fill-opacity:1;fill-rule:nonzero;stroke:none" id="path801"></path></g><g id="g803" transform="translate(298.4717,116.1631)"><path d="m 0,0 h -0.464 v -2.489 h -9.691 v 20.316 h -0.464 -0.34 V -2.952 c 0,-0.188 0.152,-0.341 0.34,-0.341 H 0 c 0.188,0 0.34,0.153 0.34,0.341 L 0.34,0 Z" style="fill:#001a54;fill-opacity:1;fill-rule:nonzero;stroke:none" id="path805"></path></g><g id="g807" transform="translate(298.4717,150.5586)"><path d="M 0,0 H -0.464 V -26.369 H 0 0.34 V 0 Z" style="fill:#001a54;fill-opacity:1;fill-rule:nonzero;stroke:none" id="path809"></path></g><g id="g811" transform="translate(305.8926,116.1631)"><path d="m 0,0 h -0.341 v -4.173 c 0,-0.4 -0.155,-0.777 -0.438,-1.06 l -4.041,-4.04 c -0.282,-0.284 -0.659,-0.44 -1.059,-0.44 h -4.099 c -0.091,0 -0.176,-0.035 -0.24,-0.099 l -0.019,-0.016 -2.434,-1.866 h -0.063 c -0.064,0 -0.064,0 -2.497,1.866 l -0.019,0.016 c -0.063,0.064 -0.149,0.099 -0.24,0.099 h -8.719 c -0.539,0 -0.975,0.437 -0.975,0.975 v 26.565 h -0.34 -0.463 V -8.738 c 0,-0.982 0.797,-1.779 1.778,-1.779 h 8.57 l 2.238,-1.595 c 0.188,-0.172 0.428,-0.257 0.667,-0.257 0.239,0 0.479,0.085 0.667,0.257 l 2.237,1.595 h 3.951 c 0.614,0 1.193,0.241 1.628,0.675 l 4.04,4.04 c 0.435,0.436 0.675,1.014 0.675,1.629 l 0,4.173 z" style="fill:#001a54;fill-opacity:1;fill-rule:nonzero;stroke:none" id="path813"></path></g><g id="g815" transform="translate(305.3887,164.6797)"><path d="m 0,0 -3.793,3.794 c -0.406,0.405 -0.944,0.628 -1.518,0.628 h -4.002 l -2.24,1.772 c -0.381,0.357 -0.974,0.357 -1.354,0 l -2.241,-1.772 h -8.558 c -0.981,0 -1.777,-0.797 -1.777,-1.777 v -25.372 h 0.462 0.341 V 2.645 c 0,0.537 0.436,0.972 0.974,0.972 h 8.72 c 0.091,0 0.18,0.038 0.242,0.104 l 0.019,0.016 2.499,1.977 2.509,-1.993 c 0.063,-0.066 0.152,-0.104 0.242,-0.104 h 4.164 c 0.36,0 0.696,-0.138 0.95,-0.391 l 3.793,-3.794 c 0.472,-0.472 0.731,-1.1 0.731,-1.768 v -3.758 h 0.341 0.464 v 3.758 C 0.968,-1.453 0.624,-0.623 0,0" style="fill:#001a54;fill-opacity:1;fill-rule:nonzero;stroke:none" id="path817"></path></g><g id="g819" transform="translate(305.8926,150.5586)"><path d="M 0,0 H -0.341 V -26.369 H 0 0.464 V 0 Z" style="fill:#001a54;fill-opacity:1;fill-rule:nonzero;stroke:none" id="path821"></path></g><g id="g823" transform="translate(298.4717,112.5)"><path d="m 0,0 h -0.361 v -0.538 c 0,-0.289 -0.236,-0.525 -0.526,-0.525 h -10.619 c -0.29,0 -0.525,0.236 -0.525,0.525 V 21.49 h -5.361 V -5.075 c 0,-0.333 0.269,-0.603 0.603,-0.603 h 8.72 c 0.186,0 0.361,-0.072 0.494,-0.2 0.137,-0.105 1.809,-1.388 2.262,-1.733 l 2.263,1.733 c 0.133,0.128 0.307,0.2 0.493,0.2 h 4.099 c 0.301,0 0.584,0.116 0.797,0.33 l 3.65,3.649 V 3.663 H 0.712 V 0.711 C 0.712,0.318 0.393,0 0,0" style="fill:#007f41;fill-opacity:1;fill-rule:nonzero;stroke:none" id="path825"></path></g><g id="g827" transform="translate(303.7822,162.4248)"><path d="M 0,0 -3.794,3.793 C -4.011,4.011 -4.302,4.132 -4.61,4.132 h -4.165 c -0.142,0 -0.277,0.057 -0.375,0.158 L -11.526,6.176 -13.911,4.29 C -14.01,4.189 -14.145,4.132 -14.287,4.132 h -7.966 c -0.167,0 -0.323,-0.054 -0.45,-0.144 v -24.46 h 5.362 v 18.337 c 0,0.29 0.235,0.526 0.524,0.526 h 0.177 v 0.721 c 0,0.393 0.319,0.712 0.711,0.712 h 10.618 c 0.393,0 0.712,-0.319 0.712,-0.712 v -2.951 h 5.277 v 2.202 C 0.678,-1.019 0.438,-0.438 0,0" style="fill:#007f41;fill-opacity:1;fill-rule:nonzero;stroke:none" id="path829"></path></g><path d="m 299.184,124.189 h 5.277 v 26.369 h -5.277 z" style="fill:#007f41;fill-opacity:1;fill-rule:nonzero;stroke:none" id="path831"></path><path d="m 304.46,124.189 h 0.722 v 26.369 h -0.722 z" style="fill:#00411d;fill-opacity:1;fill-rule:nonzero;stroke:none" id="path833"></path><g id="g835" transform="translate(298.9976,150.5586)"><path d="M 0,0 H -0.062 -0.186 V -26.369 H -0.062 0 0.186 V 0 Z" style="fill:#ffffff;fill-opacity:1;fill-rule:nonzero;stroke:none" id="path837"></path></g><g id="g839" transform="translate(305.4287,150.5586)"><path d="M 0,0 H -0.062 -0.246 V -26.369 H -0.062 0 0.124 V 0 Z" style="fill:#ffffff;fill-opacity:1;fill-rule:nonzero;stroke:none" id="path841"></path></g></g></g></g></g></svg>