
<svg xmlns="http://www.w3.org/2000/svg" width="225.94211mm" height="300mm" viewBox="0 0 225.94211 300" version="1.1" id="svg8">
  <defs id="defs2">
    <clipPath clipPathUnits="userSpaceOnUse" id="clipPath26">
      <path d="m 295.608,571.685 c -0.276,-2.232 0.184,-4.645 1.391,-7.227 v 0 c 1.181,-2.579 1.66,-4.762 1.434,-6.58 v 0 c -0.195,-1.618 -0.984,-4.082 -2.369,-7.396 v 0 c -1.378,-3.324 -1.966,-5.752 -1.707,-7.258 v 0 c -1.197,0.879 -3.071,4.206 -5.639,10.008 v 0 c -2.08,4.673 -4.927,7.648 -8.596,8.936 v 0 c -4.984,1.809 -9.037,8.02 -12.111,18.704 v 0 c -2.671,-10.168 -2.141,-17.204 1.553,-21.067 v 0 c 2.676,-2.536 3.815,-6.31 3.41,-11.347 v 0 c -0.524,-6.069 -0.524,-9.786 -0.01,-11.167 v 0 c -1.291,0.68 -4.028,3.587 -8.236,8.751 v 0 c -3.691,4.233 -7.405,6.55 -11.158,6.932 v 0 c -5.48,0.524 -11.422,5.791 -17.843,15.91 v 0 c 0.337,-11.244 3.074,-18.261 8.126,-21.086 v 0 c 3.403,-2.025 5.599,-5.654 6.635,-10.87 v 0 c 1.125,-6.314 2.103,-9.97 2.93,-10.988 v 0 c -1.639,0.3 -4.473,1.967 -8.555,5.023 v 0 c -4.141,3.084 -7.525,4.898 -10.19,5.41 v 0 c -1.229,0.239 -2.769,0.253 -4.678,0.065 v 0 c -1.909,-0.195 -3.5,-0.169 -4.732,0.07 v 0 c -4.236,0.796 -10.085,4.633 -17.605,11.584 v 0 c 3.837,-11.474 8.621,-17.907 14.35,-19.393 v 0 c 3.911,-1.159 7.179,-4.302 9.799,-9.42 v 0 c 2.989,-5.797 5.04,-9.11 6.165,-9.944 v 0 c -1.989,-0.137 -4.978,0.635 -8.992,2.284 v 0 c -4.076,1.664 -7.117,2.658 -9.101,2.99 v 0 c -2.268,0.367 -4.959,0.019 -8.051,-1.048 v 0 c -3.141,-1.088 -6.001,-1.418 -8.592,-1.006 v 0 c -3.905,0.624 -9.381,3.102 -16.472,7.493 v 0 c 7.127,-10.532 13.722,-15.721 19.801,-15.707 v 0 c 4.157,-0.175 8.139,-2.485 11.94,-6.903 v 0 c 4.709,-4.968 7.744,-7.758 9.164,-8.391 v 0 c -1.313,-0.486 -5.567,-0.363 -12.839,0.387 v 0 c -6.123,0.6 -10.701,-0.394 -13.658,-2.991 v 0 c -3.895,-3.67 -12.389,-4.003 -25.766,-0.933 v 0 c 7.761,-6.596 13.972,-10.131 18.746,-10.677 v 0 c 1.049,-0.123 2.666,-0.03 4.834,0.283 v 0 c 2.134,0.318 3.733,0.413 4.754,0.291 v 0 c 2.838,-0.337 6.455,-1.933 10.86,-4.781 v 0 c 4.338,-2.82 7.479,-4.328 9.455,-4.548 v 0 c -1.345,-0.727 -5.603,-1.704 -12.884,-2.931 v 0 c -6.072,-0.93 -10.102,-2.995 -12.076,-6.185 v 0 c -2.678,-4.483 -10.706,-6.945 -24.397,-7.355 v 0 c 7.295,-3.155 12.907,-4.868 16.863,-5.196 v 0 c 2.633,-0.213 5.535,0.272 8.706,1.476 v 0 c 3.154,1.186 5.867,1.682 8.165,1.48 v 0 c 2.037,-0.177 5.125,-0.945 9.258,-2.29 v 0 c 4.095,-1.339 7.136,-1.868 9.149,-1.597 v 0 c -0.907,-1.23 -4.62,-3.226 -11.232,-6 v 0 c -5.351,-2.252 -8.534,-5.238 -9.521,-8.94 v 0 c -1.368,-4.8 -8.249,-9.091 -20.898,-12.925 v 0 c 12.963,-1.994 21.335,-1.068 25.371,2.694 v 0 c 2.621,2.72 6.937,3.994 12.882,3.859 v 0 c 7.079,-0.207 11.329,-0.033 12.843,0.524 v 0 c -0.644,-1.248 -3.643,-3.972 -9.006,-8.21 v 0 c -4.393,-3.687 -6.566,-7.275 -6.499,-10.746 v 0 c 0.148,-4.774 -5.015,-10.384 -15.657,-16.909 v 0 c 12.467,1.272 19.956,4.124 22.707,8.568 v 0 c 1.836,3.162 5.595,5.384 11.243,6.673 v 0 c 6.767,1.438 10.624,2.646 11.681,3.655 v 0 c -0.207,-1.677 -1.756,-4.4 -4.67,-8.175 v 0 c -2.928,-3.82 -4.533,-6.881 -4.821,-9.204 v 0 c -0.113,-0.84 0.029,-2.104 0.404,-3.794 v 0 c 0.369,-1.698 0.511,-2.966 0.402,-3.802 v 0 c -0.469,-3.779 -3.934,-9.03 -10.457,-15.799 v 0 c 11.353,4.253 17.577,8.723 18.847,13.503 v 0 c 0.875,3.316 3.76,6.292 8.606,8.893 v 0 c 5.952,2.956 9.297,4.914 10.086,5.915 v 0 c 0.259,-1.434 -0.253,-3.778 -1.537,-7.018 v 0 c -1.581,-3.857 -2.474,-6.615 -2.677,-8.236 v 0 c -0.231,-1.844 0.222,-3.895 1.393,-6.14 v 0 c 1.136,-2.252 1.572,-4.487 1.294,-6.719 v 0 c -0.352,-2.849 1.337,-3.923 -2.264,-9.892 v 0 c 9.694,6.447 10.662,8.627 10.365,13.259 v 0 c -0.05,3.223 1.908,6.646 5.832,10.222 v 0 c 4.784,3.938 7.45,6.494 8.026,7.674 v 0 c 0.507,-1.008 0.499,-4.39 0.006,-10.142 v 0 c -0.388,-4.761 0.673,-8.134 3.163,-10.099 v 0 c 3.437,-2.528 3.921,-8.693 1.45,-18.54 v 0 c 5.72,6.193 8.77,11.007 9.207,14.513 v 0 c 0.093,0.784 -0.023,1.935 -0.317,3.493 v 0 c -0.314,1.548 -0.421,2.722 -0.325,3.494 v 0 c 0.272,2.154 1.676,5.014 4.226,8.605 v 0 c 2.535,3.561 3.9,6.108 4.096,7.648 v 0 c 0.658,-0.981 1.554,-4.09 2.681,-9.304 v 0 c 0.622,-4.433 2.416,-7.217 5.373,-8.352 v 0 c 3.828,-1.71 5.798,-7.279 5.959,-16.7 v 0 c 2.756,5.506 4.29,9.571 4.612,12.21 v 0 c 0.259,2.069 -0.093,4.134 -1.053,6.2 v 0 c -0.972,2.083 -1.353,3.969 -1.139,5.671 v 0 c 0.187,1.518 0.974,4.06 2.364,7.637 v 0 c 1.122,2.993 1.586,5.163 1.375,6.5 v 0 c 1.051,-0.6 2.685,-3.28 4.889,-8.016 v 0 c 1.755,-3.763 4.155,-5.835 7.216,-6.232 v 0 c 3.894,-0.578 7.091,-5.091 9.595,-13.481 v 0 c 2.186,9.122 1.862,14.95 -1.01,17.55 v 0 c -2.11,1.678 -2.986,4.745 -2.607,9.155 v 0 c 0.485,5.351 0.52,8.586 0.13,9.713 v 0 c 1.028,-0.416 3.175,-2.515 6.44,-6.294 v 0 c 2.616,-3.004 5.411,-4.349 8.402,-4.051 v 0 c 3.822,0.445 7.909,-2.876 12.226,-9.893 v 0 c -0.06,8.88 -1.752,14.101 -5.103,15.638 v 0 c -2.407,1.159 -3.967,3.824 -4.644,8.019 v 0 c -0.74,5.12 -1.504,8.063 -2.268,8.841 v 0 c 1.371,-0.075 3.521,-1.145 6.446,-3.203 v 0 c 2.884,-2.031 5.24,-3.085 7.071,-3.174 v 0 c 0.659,-0.028 1.688,0.14 3.06,0.521 v 0 c 1.369,0.377 2.382,0.557 3.037,0.518 v 0 c 2.93,-0.141 5.002,0.456 9.419,-3.928 v 0 c -1.991,8.291 -3.224,9.874 -6.885,10.431 v 0 c -2.568,0.507 -4.769,2.826 -6.573,6.96 v 0 c -1.838,4.164 -3.139,6.558 -3.908,7.153 v 0 c 1.217,0.265 3.234,-0.113 6.027,-1.142 v 0 c 2.768,-1.006 4.806,-1.552 6.107,-1.652 v 0 c 1.452,-0.107 3.128,0.382 5.049,1.473 v 0 c 1.903,1.078 3.713,1.553 5.453,1.414 v 0 c 2.195,-0.171 5.391,-1.636 9.557,-4.379 v 0 c -3.902,7.336 -7.713,10.946 -11.392,10.739 v 0 c -2.616,-0.303 -5.177,1.175 -7.707,4.471 v 0 c -2.989,3.727 -4.965,5.829 -5.907,6.295 v 0 c 1.055,0.44 3.957,0.505 8.673,0.198 v 0 c 3.866,-0.217 6.715,0.735 8.569,2.862 v 0 c 2.433,2.937 7.44,3.44 14.93,1.533 v 0 c -4.191,4.701 -7.683,7.239 -10.467,7.576 v 0 c -0.626,0.079 -1.587,-0.024 -2.89,-0.303 v 0 c -1.308,-0.285 -2.284,-0.385 -2.91,-0.31 v 0 c -1.742,0.21 -3.974,1.416 -6.705,3.615 v 0 c -2.777,2.226 -4.815,3.427 -6.116,3.598 v 0 c 0.904,0.596 3.652,1.407 8.2,2.417 v 0 c 3.816,0.735 6.353,2.332 7.621,4.811 v 0 c 1.864,3.441 6.735,5.175 14.508,5.227 v 0 c -4.15,2.731 -7.393,4.277 -9.707,4.64 v 0 c -1.553,0.244 -3.278,-0.104 -5.143,-1.056 v 0 c -1.89,-0.959 -3.554,-1.323 -4.989,-1.106 v 0 c -1.282,0.197 -3.27,0.899 -5.997,2.127 v 0 c -2.76,1.237 -4.749,1.767 -5.941,1.591 v 0 c 0.628,0.984 3.158,2.493 7.553,4.498 v 0 c 3.485,1.585 5.556,3.836 6.248,6.757 v 0 c 0.964,3.768 5.278,6.739 12.855,8.868 v 0 c -7.64,2.517 -12.828,2.426 -15.462,-0.317 v 0 c -1.895,-2.004 -4.808,-2.75 -8.754,-2.221 v 0 c -4.651,0.654 -7.55,0.803 -8.621,0.448 v 0 c 0.467,1.021 2.613,3.118 6.414,6.266 v 0 c 3.041,2.708 4.569,5.512 4.589,8.419 v 0 c -0.143,4.233 2.467,7.946 8.494,11.732 v 0 c -8.211,0.548 -11.283,-0.253 -13.095,-3.908 v 0 c -1.338,-2.479 -4.008,-3.967 -8.045,-4.44 v 0 c -4.968,-0.498 -7.868,-1.048 -8.653,-1.63 v 0 c 0.161,1.282 1.365,3.43 3.593,6.438 v 0 c 2.229,2.994 3.452,5.493 3.701,7.491 v 0 c 0.094,0.729 0.016,1.867 -0.223,3.418 v 0 c -0.25,1.552 -0.324,2.781 -0.207,3.694 v 0 c 0.385,3.094 2.988,7.072 7.757,11.88 v 0 c -8.431,-1.672 -13.152,-4.599 -14.02,-8.75 v 0 c -0.714,-2.859 -3.059,-5.085 -7.062,-6.659 v 0 c -4.616,-1.854 -7.378,-3.188 -8.214,-3.965 v 0 c -0.017,1.346 0.588,3.572 1.8,6.672 v 0 c 1.225,3.079 1.928,5.374 2.108,6.873 v 0 c 0.207,1.676 -0.189,3.691 -1.193,6.05 v 0 c -1.007,2.364 -1.387,4.577 -1.126,6.64 v 0 c 0.346,2.821 2.105,6.528 5.28,11.109 v 0 c -8.061,-3.905 -12.147,-8.135 -12.129,-12.632 v 0 c 0.181,-3.163 -1.519,-5.974 -5.125,-8.456 v 0 c -4.119,-3.174 -6.454,-5.311 -6.979,-6.382 v 0 c -0.453,1.086 -0.435,4.432 0.059,10.054 v 0 c 0.388,4.651 -0.563,8.246 -2.844,10.799 v 0 c -3.219,3.382 -3.623,9.801 -1.245,19.198 v 0 c -5.484,-4.772 -8.476,-8.937 -8.914,-12.463 v 0 c -0.092,-0.784 0.011,-2.019 0.309,-3.708 v 0 c 0.298,-1.689 0.389,-2.919 0.292,-3.695 v 0 c -0.265,-2.161 -1.657,-4.796 -4.174,-7.932 v 0 c -2.542,-3.163 -3.913,-5.53 -4.115,-7.102 v 0 c -0.88,1.201 -1.775,4.753 -2.704,10.661 v 0 c -0.876,4.697 -2.75,8.113 -5.636,10.251 v 0 c -4.12,2.662 -6.307,9.223 -6.513,19.691 v 0 c -3.224,-4.995 -5.035,-9.032 -5.407,-12.072 m 14.623,-54.994 c 1.199,2.002 1.866,3.585 2.011,4.768 v 0 c 0.15,1.188 -0.035,2.226 -0.539,3.139 v 0 c -1.12,2.652 0.173,6.341 3.848,11.044 v 0 c -0.764,-6.105 0.072,-10.107 2.492,-11.983 v 0 c 1.461,-1.294 2.322,-3.358 2.571,-6.204 v 0 c 0.177,-3.43 0.411,-5.565 0.702,-6.405 v 0 c 0.097,0.776 1.402,2.323 3.881,4.652 v 0 c 1.843,2.025 2.614,4.199 2.304,6.541 v 0 c -0.305,2.341 1.844,5.227 6.398,8.63 v 0 c -2.038,-5.299 -2.209,-9.109 -0.539,-11.409 v 0 c 1.16,-1.598 1.373,-3.798 0.643,-6.599 v 0 c -0.79,-3.193 -1.035,-5.205 -0.757,-6.034 v 0 c 0.478,0.687 2.012,1.786 4.612,3.268 v 0 c 2.582,1.465 3.896,3.164 3.947,5.099 v 0 c 0.328,2.651 3.193,5.006 8.531,7.025 v 0 c -3.384,-4.542 -4.581,-8.068 -3.568,-10.577 v 0 c 0.426,-1.049 0.59,-2.046 0.471,-2.98 v 0 c -0.138,-1.135 -0.891,-2.634 -2.253,-4.509 v 0 c -1.369,-1.886 -2.015,-3.316 -1.953,-4.291 v 0 c 0.455,0.509 2.188,1.14 5.174,1.897 v 0 c 2.973,0.754 4.749,2.04 5.369,3.887 v 0 c 1.072,2.52 4.378,4.042 9.858,4.555 v 0 c -4.34,-3.405 -6.378,-6.254 -6.095,-8.517 v 0 c 0.286,-2.257 -0.452,-4.387 -2.206,-6.399 v 0 c -2.375,-2.302 -3.604,-3.829 -3.701,-4.589 v 0 c 0.589,0.287 2.378,0.427 5.338,0.416 v 0 c 2.951,-0.011 5.021,0.874 6.244,2.646 v 0 c 1.217,1.767 4.574,2.265 10.002,1.521 v 0 c -4.84,-2.161 -7.44,-4.526 -7.757,-7.092 v 0 c -0.228,-1.836 -1.407,-3.422 -3.54,-4.773 v 0 c -2.755,-1.841 -4.341,-3.01 -4.767,-3.514 v 0 c 0.732,0.078 2.674,-0.303 5.79,-1.139 v 0 c 2.429,-0.546 4.476,-0.105 6.152,1.318 v 0 c 1.663,1.416 4.973,1.089 9.896,-0.943 v 0 c -5.28,-0.892 -8.337,-2.36 -9.113,-4.411 v 0 c -0.783,-2.057 -2.375,-3.487 -4.759,-4.29 v 0 c -2.966,-0.925 -4.752,-1.64 -5.341,-2.122 v 0 c 0.875,-0.124 2.226,-0.724 4.052,-1.817 v 0 c 1.811,-1.094 3.228,-1.695 4.269,-1.828 v 0 c 0.861,-0.118 1.75,0.048 2.678,0.481 v 0 c 2.21,0.99 5.422,-0.161 9.628,-3.439 v 0 c -5.223,0.664 -8.598,-0.099 -10.08,-2.3 v 0 c -1.036,-1.354 -2.801,-2.154 -5.287,-2.415 v 0 c -3.218,-0.172 -5.116,-0.415 -5.681,-0.726 v 0 c 0.695,-0.076 2.084,-1.121 4.142,-3.12 v 0 c 2.038,-1.988 4.088,-2.808 6.14,-2.485 v 0 c 2.025,0.329 4.67,-1.611 7.899,-5.772 v 0 c -4.903,1.786 -8.165,1.986 -9.723,0.59 v 0 c -1.579,-1.397 -3.649,-1.793 -6.211,-1.163 v 0 c -2.971,0.486 -4.824,0.669 -5.558,0.565 v 0 c 0.495,-0.425 1.65,-1.939 3.461,-4.527 v 0 c 1.31,-2.338 2.84,-3.595 4.575,-3.752 v 0 c 2.441,-0.035 4.732,-2.613 6.858,-7.718 v 0 c -4.291,3.091 -7.567,4.101 -9.817,3.007 v 0 c -0.948,-0.479 -1.862,-0.678 -2.741,-0.601 v 0 c -1.056,0.087 -2.49,0.757 -4.31,2.031 v 0 c -1.83,1.277 -3.208,1.858 -4.124,1.754 v 0 c 0.502,-0.434 1.168,-2.122 1.996,-5.085 v 0 c 0.842,-2.937 2.141,-4.665 3.908,-5.183 v 0 c 2.426,-0.94 4.01,-4.183 4.762,-9.717 v 0 c -3.43,4.199 -6.444,6.023 -9.078,5.434 v 0 c -1.682,-0.268 -3.599,0.577 -5.76,2.563 v 0 c -2.178,1.992 -3.649,3.024 -4.39,3.082 v 0 c 0.29,-0.599 0.485,-2.428 0.562,-5.488 v 0 c 0.084,-3.067 1.023,-5.208 2.801,-6.463 v 0 c 1.76,-1.238 2.289,-4.68 1.593,-10.305 v 0 c -2.122,4.952 -4.471,7.521 -7.052,7.67 v 0 c -1.851,0.096 -3.605,1.373 -5.281,3.853 v 0 c -1.667,2.485 -2.794,3.839 -3.325,4.06 v 0 c 0.114,-0.586 -0.232,-2.563 -1.024,-5.955 v 0 c -0.53,-2.647 -0.075,-4.681 1.374,-6.079 v 0 c 1.733,-1.987 1.5,-5.772 -0.705,-11.375 v 0 c -0.855,5.733 -2.388,8.949 -4.581,9.619 v 0 c -2.206,0.679 -3.797,2.442 -4.749,5.281 v 0 c -0.971,2.852 -1.708,4.588 -2.238,5.209 v 0 c -0.125,-0.971 -0.773,-2.478 -1.946,-4.548 v 0 c -1.176,-2.084 -1.843,-3.698 -1.981,-4.85 v 0 c -0.124,-0.966 0.05,-1.95 0.525,-2.933 v 0 c 1.08,-2.374 -0.17,-6.102 -3.771,-11.216 v 0 c 0.547,6.001 -0.145,9.623 -2.085,10.88 v 0 c -1.949,1.267 -2.96,3.26 -3.018,6.015 v 0 c -0.172,3.546 -0.415,5.638 -0.738,6.238 v 0 c -0.306,-0.769 -1.576,-2.382 -3.808,-4.819 v 0 c -2.265,-2.462 -3.205,-4.698 -2.834,-6.704 v 0 c 0.498,-2.581 -1.775,-5.966 -6.845,-10.157 v 0 c 2.362,5.687 2.634,9.546 0.813,11.619 v 0 c -1.272,1.463 -1.634,3.678 -1.059,6.646 v 0 c 0.849,3.358 1.197,5.439 1.094,6.256 v 0 c -0.493,-0.783 -2.122,-2.091 -4.887,-3.934 v 0 c -2.799,-1.863 -4.314,-3.817 -4.566,-5.817 v 0 c -0.148,-2.822 -3.182,-5.726 -9.18,-8.739 v 0 c 3.488,5.351 4.62,9.264 3.425,11.76 v 0 c -0.527,1.048 -0.724,2.078 -0.597,3.086 v 0 c 0.152,1.211 0.951,2.896 2.413,5.06 v 0 c 1.461,2.148 2.244,3.721 2.361,4.735 v 0 c -0.725,-0.581 -2.782,-1.428 -6.173,-2.567 v 0 c -3.416,-1.146 -5.499,-2.75 -6.204,-4.807 v 0 c -1.267,-2.882 -5.435,-4.982 -12.577,-6.325 v 0 c 5.662,4.338 8.195,7.981 7.641,10.964 v 0 c -0.453,1.921 0.58,4.162 3.085,6.715 v 0 c 2.492,2.549 3.886,4.222 4.222,5.034 v 0 c -0.721,-0.357 -3.121,-0.693 -7.236,-1.003 v 0 c -3.247,-0.176 -5.551,-1.151 -6.935,-2.937 v 0 c -1.909,-2.382 -6.473,-3.335 -13.755,-2.85 v 0 c 6.67,2.72 10.144,5.521 10.5,8.453 v 0 c 0.259,2.08 1.954,4.104 5.062,6.054 v 0 c 3.091,1.935 4.765,3.19 5.073,3.789 v 0 c -0.916,-0.126 -3.279,0.185 -7.061,0.958 v 0 c -3.167,0.495 -5.684,-0.074 -7.511,-1.707 v 0 c -2.595,-2.011 -7.305,-1.885 -14.202,0.435 v 0 c 7.324,1.132 11.474,3.08 12.526,5.855 v 0 c 0.964,2.123 3.208,3.714 6.715,4.794 v 0 c 3.488,1.065 5.473,1.893 6.016,2.492 v 0 c -0.905,0.089 -2.549,0.76 -4.926,1.992 v 0 c -2.416,1.248 -4.305,1.954 -5.683,2.099 v 0 c -1.399,0.153 -2.607,-0.032 -3.61,-0.572 v 0 c -3.002,-1.178 -7.502,0.161 -13.568,4.076 v 0 c 7.44,-0.615 12.086,0.272 14.033,2.627 v 0 c 1.407,1.765 3.933,2.694 7.576,2.795 v 0 c 3.61,0.093 5.88,0.297 6.839,0.608 v 0 c -0.88,0.314 -2.895,1.726 -6.056,4.246 v 0 c -2.329,1.996 -4.67,2.934 -7.052,2.812 v 0 c -3.384,-0.426 -7.395,2.031 -12.056,7.427 v 0 c 6.935,-2.665 11.642,-3.072 14.239,-1.264 v 0 c 1.816,1.252 4.429,1.53 7.832,0.847 v 0 c 3.808,-0.949 6.159,-1.369 7.085,-1.291 v 0 c -0.851,0.525 -2.252,2.188 -4.186,5.019 v 0 c -1.961,2.829 -4.096,4.433 -6.379,4.77 v 0 c -3.274,0.266 -6.435,3.436 -9.498,9.536 v 0 c 5.975,-3.736 10.403,-5.059 13.328,-4.011 v 0 c 1.225,0.451 2.393,0.585 3.528,0.408 v 0 c 1.357,-0.201 3.194,-1.081 5.523,-2.601 v 0 c 2.309,-1.513 4.001,-2.35 5.114,-2.518 v 0 c -0.624,0.526 -1.614,2.731 -2.979,6.639 v 0 c -1.023,2.989 -2.529,4.868 -4.536,5.639 v 0 c -3.124,1.394 -5.228,5.378 -6.315,11.972 v 0 c 4.498,-5.421 8.276,-7.922 11.316,-7.569 v 0 c 2.298,0.038 4.769,-1.14 7.425,-3.534 v 0 c 2.636,-2.379 4.373,-3.739 5.211,-4.088 v 0 c -0.346,0.68 -0.595,2.727 -0.718,6.127 v 0 c -0.132,3.406 -1.106,5.797 -2.941,7.188 v 0 c -2.436,1.921 -3.386,6.048 -2.817,12.354 v 0 c 2.831,-6.021 5.758,-9.288 8.779,-9.844 v 0 c 2.142,-0.391 4.031,-1.877 5.658,-4.452 v 0 c 1.983,-3.244 3.361,-5.026 4.183,-5.369 v 0 c -0.136,0.635 0.129,2.75 0.786,6.327 v 0 c 0.77,2.73 0.447,4.956 -0.98,6.664 v 0 c -1.935,2.433 -1.783,6.548 0.433,12.306 v 0 c 1.177,-6.428 3.099,-10.203 5.778,-11.338 v 0 c 2.019,-0.999 3.487,-2.922 4.418,-5.736 v 0 c 1.054,-3.443 1.865,-5.519 2.417,-6.22 v 0 c 0.121,0.986 0.772,2.479 1.968,4.492" id="path24"></path>
    </clipPath>
    <linearGradient x1="0" y1="0" x2="1" y2="0" gradientUnits="userSpaceOnUse" gradientTransform="matrix(176.02707,0,0,-176.02707,174.1416,465.69336)" spreadMethod="pad" id="linearGradient46">
      <stop style="stop-opacity:1;stop-color:#005bab" offset="0" id="stop32"></stop>
      <stop style="stop-opacity:1;stop-color:#005bab" offset="0.123596" id="stop34"></stop>
      <stop style="stop-opacity:1;stop-color:#0079c1" offset="0.365173" id="stop36"></stop>
      <stop style="stop-opacity:1;stop-color:#0079c1" offset="0.4748806" id="stop38"></stop>
      <stop style="stop-opacity:1;stop-color:#e31837" offset="0.640442" id="stop40"></stop>
      <stop style="stop-opacity:1;stop-color:#f5821f" offset="0.859543" id="stop42"></stop>
      <stop style="stop-opacity:1;stop-color:#ffcb04" offset="1" id="stop44"></stop>
    </linearGradient>
    <clipPath clipPathUnits="userSpaceOnUse" id="clipPath56">
      <path d="M 0,841.89 H 595.28 V 0 H 0 Z" id="path54"></path>
    </clipPath>
    <clipPath clipPathUnits="userSpaceOnUse" id="clipPath68">
      <path d="m 311.23,404.022 c -1.113,0.161 -2.21,0.368 -3.304,0.593 v 0 c -4.621,-1.63 -9.306,-2.436 -13.776,-2.127 v 0 c -4.374,0.29 -9.316,1.262 -13.953,4.156 v 0 c 14.767,-15.491 37.399,-22.071 49.045,-17.905 v 0 c 10.44,3.746 19.806,11.523 26.533,22.611 v 0 c 2.37,3.934 4.328,8.18 5.832,12.604 v 0 c -11.611,-14.7 -29.953,-23.036 -50.377,-19.932" id="path66"></path>
    </clipPath>
    <radialGradient fx="0" fy="0" cx="0" cy="0" r="1" gradientUnits="userSpaceOnUse" gradientTransform="matrix(89.27449,-11.109833,-11.109833,-89.27449,345.64355,484.70996)" spreadMethod="pad" id="radialGradient80">
      <stop style="stop-opacity:1;stop-color:#ffd457" offset="0" id="stop74"></stop>
      <stop style="stop-opacity:1;stop-color:#f9a351" offset="0.47879" id="stop76"></stop>
      <stop style="stop-opacity:1;stop-color:#f5821f" offset="1" id="stop78"></stop>
    </radialGradient>
    <clipPath clipPathUnits="userSpaceOnUse" id="clipPath90">
      <path d="m 261.956,438.861 c 2.639,-9.56 9.061,-21.512 13.781,-25.741 v 0 c 4.651,-4.164 11.606,-7.327 18.489,-7.74 v 0 c 2.854,-0.172 5.64,0.077 8.34,0.646 v 0 c -16.42,5.091 -30.563,17.125 -39.634,33.027 v 0 z" id="path88"></path>
    </clipPath>
    <radialGradient fx="0" fy="0" cx="0" cy="0" r="1" gradientUnits="userSpaceOnUse" gradientTransform="matrix(89.249283,-11.10669,-11.10669,-89.249268,345.65039,484.68115)" spreadMethod="pad" id="radialGradient102">
      <stop style="stop-opacity:1;stop-color:#ffd457" offset="0" id="stop96"></stop>
      <stop style="stop-opacity:1;stop-color:#f9a351" offset="0.47879" id="stop98"></stop>
      <stop style="stop-opacity:1;stop-color:#f5821f" offset="1" id="stop100"></stop>
    </radialGradient>
    <clipPath clipPathUnits="userSpaceOnUse" id="clipPath112">
      <path d="m 375.064,461.864 c -0.092,-1.977 -0.253,-3.964 -0.504,-5.946 v 0 c -0.357,-2.902 -0.891,-5.698 -1.568,-8.414 v 0 c 0.99,-0.776 1.912,-1.709 2.75,-2.78 v 0 c 1.346,-1.724 2.414,-3.748 3.193,-6 v 0 c 1.185,7.809 1.086,15.806 -0.317,23.864 v 0 z" id="path110"></path>
    </clipPath>
    <radialGradient fx="0" fy="0" cx="0" cy="0" r="1" gradientUnits="userSpaceOnUse" gradientTransform="matrix(89.282669,-11.110855,-11.110855,-89.282669,345.62695,484.70947)" spreadMethod="pad" id="radialGradient124">
      <stop style="stop-opacity:1;stop-color:#ffd457" offset="0" id="stop118"></stop>
      <stop style="stop-opacity:1;stop-color:#f9a351" offset="0.47879" id="stop120"></stop>
      <stop style="stop-opacity:1;stop-color:#f5821f" offset="1" id="stop122"></stop>
    </radialGradient>
    <clipPath clipPathUnits="userSpaceOnUse" id="clipPath134">
      <path d="m 365.71,429.9 c -1.324,-5.835 -3.382,-11.452 -6.161,-16.706 v 0 c -6.933,-13.127 -15.347,-20.133 -24.146,-24.767 v 0 c 0.715,0.191 2.845,0.839 3.544,1.051 v 0 c 19.567,5.874 34.19,22.766 39.056,44.254 v 0 c -0.567,3.608 -1.875,6.797 -3.791,9.249 v 0 c -0.594,0.752 -1.231,1.41 -1.908,1.987 v 0 c -1.598,-5.453 -3.824,-10.511 -6.594,-15.068" id="path132"></path>
    </clipPath>
    <radialGradient fx="0" fy="0" cx="0" cy="0" r="1" gradientUnits="userSpaceOnUse" gradientTransform="matrix(89.280746,-11.110611,-11.110611,-89.280746,345.6416,484.71533)" spreadMethod="pad" id="radialGradient146">
      <stop style="stop-opacity:1;stop-color:#ffd457" offset="0" id="stop140"></stop>
      <stop style="stop-opacity:1;stop-color:#f9a351" offset="0.47879" id="stop142"></stop>
      <stop style="stop-opacity:1;stop-color:#f5821f" offset="1" id="stop144"></stop>
    </radialGradient>
    <clipPath clipPathUnits="userSpaceOnUse" id="clipPath156">
      <path d="m 261.15,442.032 0.15,0.038 c -0.089,0.161 -0.172,0.329 -0.263,0.498 v 0 c 0.042,-0.176 0.078,-0.36 0.113,-0.536" id="path154"></path>
    </clipPath>
    <radialGradient fx="0" fy="0" cx="0" cy="0" r="1" gradientUnits="userSpaceOnUse" gradientTransform="matrix(89.319626,-11.115448,-11.115448,-89.319611,345.56055,484.95215)" spreadMethod="pad" id="radialGradient168">
      <stop style="stop-opacity:1;stop-color:#ffd457" offset="0" id="stop162"></stop>
      <stop style="stop-opacity:1;stop-color:#f9a351" offset="0.47879" id="stop164"></stop>
      <stop style="stop-opacity:1;stop-color:#f5821f" offset="1" id="stop166"></stop>
    </radialGradient>
    <clipPath clipPathUnits="userSpaceOnUse" id="clipPath178">
      <path d="m 375.118,464.6 3.002,0.592 c -1.008,4.84 -2.469,9.508 -4.345,13.993 v 0 c 0.91,-4.772 1.369,-9.657 1.343,-14.585" id="path176"></path>
    </clipPath>
    <radialGradient fx="0" fy="0" cx="0" cy="0" r="1" gradientUnits="userSpaceOnUse" gradientTransform="matrix(89.332489,-11.11705,-11.11705,-89.332489,345.61035,484.7124)" spreadMethod="pad" id="radialGradient190">
      <stop style="stop-opacity:1;stop-color:#ffd457" offset="0" id="stop184"></stop>
      <stop style="stop-opacity:1;stop-color:#f9a351" offset="0.47879" id="stop186"></stop>
      <stop style="stop-opacity:1;stop-color:#f5821f" offset="1" id="stop188"></stop>
    </radialGradient>
    <clipPath clipPathUnits="userSpaceOnUse" id="clipPath200">
      <path d="m 321.73,484.221 -0.033,0.031 c -0.002,0.007 -0.013,0.007 -0.013,0.012 v 0 h -0.006 l -0.029,0.014 z" id="path198"></path>
    </clipPath>
    <radialGradient fx="0" fy="0" cx="0" cy="0" r="1" gradientUnits="userSpaceOnUse" gradientTransform="matrix(87.449661,-10.882736,-10.882736,-87.449646,345.15137,484.58984)" spreadMethod="pad" id="radialGradient212">
      <stop style="stop-opacity:1;stop-color:#ffd457" offset="0" id="stop206"></stop>
      <stop style="stop-opacity:1;stop-color:#f9a351" offset="0.47879" id="stop208"></stop>
      <stop style="stop-opacity:1;stop-color:#f5821f" offset="1" id="stop210"></stop>
    </radialGradient>
    <clipPath clipPathUnits="userSpaceOnUse" id="clipPath222">
      <path d="m 364.747,447.743 c -10.134,-0.4 -21.271,-12.408 -30.041,-23.41 v 0 c -6.94,-8.705 -16.73,-16.169 -26.78,-19.718 v 0 c 1.094,-0.225 2.191,-0.432 3.304,-0.593 v 0 c 20.424,-3.104 38.766,5.232 50.377,19.932 v 0 c 2.556,7.519 3.82,15.619 3.667,23.787 v 0 c -0.13,0 -0.264,0.004 -0.388,0.004 v 0 c -0.048,0 -0.095,0 -0.139,-0.002" id="path220"></path>
    </clipPath>
    <radialGradient fx="0" fy="0" cx="0" cy="0" r="1" gradientUnits="userSpaceOnUse" gradientTransform="matrix(89.26828,-11.109055,-11.109055,-89.26828,345.6416,484.7085)" spreadMethod="pad" id="radialGradient234">
      <stop style="stop-opacity:1;stop-color:#ffd457" offset="0" id="stop228"></stop>
      <stop style="stop-opacity:1;stop-color:#f9a351" offset="0.47879" id="stop230"></stop>
      <stop style="stop-opacity:1;stop-color:#f5821f" offset="1" id="stop232"></stop>
    </radialGradient>
    <clipPath clipPathUnits="userSpaceOnUse" id="clipPath244">
      <path d="m 262.932,439.053 c 9.071,-15.902 23.214,-27.936 39.634,-33.027 v 0 c 14.01,2.976 25.736,14.755 31.701,21.803 v 0 c 7.008,8.262 18.931,22.476 30.292,22.566 v 0 h 0.625 c -0.175,3.056 -0.534,6.161 -1.103,9.239 v 0 z" id="path242"></path>
    </clipPath>
    <radialGradient fx="0" fy="0" cx="0" cy="0" r="1" gradientUnits="userSpaceOnUse" gradientTransform="matrix(89.278427,-11.110321,-11.110321,-89.278412,345.63574,484.71436)" spreadMethod="pad" id="radialGradient256">
      <stop style="stop-opacity:1;stop-color:#ffd457" offset="0" id="stop250"></stop>
      <stop style="stop-opacity:1;stop-color:#f9a351" offset="0.47879" id="stop252"></stop>
      <stop style="stop-opacity:1;stop-color:#f5821f" offset="1" id="stop254"></stop>
    </radialGradient>
    <clipPath clipPathUnits="userSpaceOnUse" id="clipPath266">
      <path d="m 366.254,460.075 c 0.603,-3.307 0.99,-6.639 1.166,-9.932 v 0 c 1.998,-0.4 3.889,-1.3 5.572,-2.639 v 0 c 0.677,2.716 1.211,5.512 1.568,8.414 v 0 c 0.251,1.982 0.412,3.969 0.504,5.946 v 0 z" id="path264"></path>
    </clipPath>
    <radialGradient fx="0" fy="0" cx="0" cy="0" r="1" gradientUnits="userSpaceOnUse" gradientTransform="matrix(89.280441,-11.11058,-11.11058,-89.280426,345.63672,484.71143)" spreadMethod="pad" id="radialGradient278">
      <stop style="stop-opacity:1;stop-color:#ffd457" offset="0" id="stop272"></stop>
      <stop style="stop-opacity:1;stop-color:#f9a351" offset="0.47879" id="stop274"></stop>
      <stop style="stop-opacity:1;stop-color:#f5821f" offset="1" id="stop276"></stop>
    </radialGradient>
    <clipPath clipPathUnits="userSpaceOnUse" id="clipPath288">
      <path d="m 365.71,429.9 c 2.77,4.557 4.996,9.615 6.594,15.068 v 0 c -1.443,1.243 -3.075,2.096 -4.8,2.49 v 0 c 0.106,-5.988 -0.505,-11.889 -1.794,-17.558" id="path286"></path>
    </clipPath>
    <radialGradient fx="0" fy="0" cx="0" cy="0" r="1" gradientUnits="userSpaceOnUse" gradientTransform="matrix(89.248657,-11.106613,-11.106613,-89.248657,345.64648,484.69531)" spreadMethod="pad" id="radialGradient300">
      <stop style="stop-opacity:1;stop-color:#ffd457" offset="0" id="stop294"></stop>
      <stop style="stop-opacity:1;stop-color:#f9a351" offset="0.47879" id="stop296"></stop>
      <stop style="stop-opacity:1;stop-color:#f5821f" offset="1" id="stop298"></stop>
    </radialGradient>
    <clipPath clipPathUnits="userSpaceOnUse" id="clipPath310">
      <path d="m 300.16,518.005 c -13.348,-0.566 -31.903,-16.872 -38.101,-38.404 v 0 c 2.905,4.736 7.091,7.706 11.077,9.776 v 0 c 13.02,6.787 33.264,3.312 48.51,-5.093 v 0 c 0.012,-0.006 0.025,-0.016 0.038,-0.02 v 0 l 0.013,-0.005 v -0.007 c 12.96,-7.143 28.255,-14.156 37.867,-10.562 v 0 c 0.157,0.061 0.329,0.14 0.494,0.203 v 0 c -4.918,12.55 -13.323,23.867 -23.951,31.897 v 0 c -10.731,8.113 -22.641,12.256 -33.977,12.257 v 0 c -0.659,0 -1.315,-0.014 -1.97,-0.042" id="path308"></path>
    </clipPath>
    <radialGradient fx="0" fy="0" cx="0" cy="0" r="1" gradientUnits="userSpaceOnUse" gradientTransform="matrix(89.275085,-11.109909,-11.109909,-89.27507,345.6377,484.70117)" spreadMethod="pad" id="radialGradient322">
      <stop style="stop-opacity:1;stop-color:#ffd457" offset="0" id="stop316"></stop>
      <stop style="stop-opacity:1;stop-color:#f9a351" offset="0.47879" id="stop318"></stop>
      <stop style="stop-opacity:1;stop-color:#f5821f" offset="1" id="stop320"></stop>
    </radialGradient>
    <clipPath clipPathUnits="userSpaceOnUse" id="clipPath332">
      <path d="m 321.697,484.252 v 0.007 l -0.013,0.005 c 0,-0.005 0.011,-0.005 0.013,-0.012" id="path330"></path>
    </clipPath>
    <radialGradient fx="0" fy="0" cx="0" cy="0" r="1" gradientUnits="userSpaceOnUse" gradientTransform="matrix(92.876755,-11.558121,-11.558121,-92.876739,346.58496,485.26562)" spreadMethod="pad" id="radialGradient344">
      <stop style="stop-opacity:1;stop-color:#ffd457" offset="0" id="stop338"></stop>
      <stop style="stop-opacity:1;stop-color:#f9a351" offset="0.47879" id="stop340"></stop>
      <stop style="stop-opacity:1;stop-color:#f5821f" offset="1" id="stop342"></stop>
    </radialGradient>
    <clipPath clipPathUnits="userSpaceOnUse" id="clipPath354">
      <path d="m 274.63,486.543 c -6.292,-3.205 -11.239,-9.107 -13.509,-15.003 v 0 c -2.225,-5.817 -2.232,-19.248 -0.084,-28.972 v 0 c 0.091,-0.169 0.174,-0.337 0.263,-0.498 v 0 l 102.25,20.237 c -0.66,3.079 -1.516,6.104 -2.543,9.05 v 0 c -0.206,-0.089 -0.4,-0.174 -0.589,-0.252 v 0 c -10.599,-4.334 -27.547,4.424 -37.659,9.602 v 0 c -7.327,3.754 -20.187,9.236 -32.82,9.237 v 0 c -5.283,0 -10.524,-0.958 -15.309,-3.401" id="path352"></path>
    </clipPath>
    <radialGradient fx="0" fy="0" cx="0" cy="0" r="1" gradientUnits="userSpaceOnUse" gradientTransform="matrix(89.270828,-11.109375,-11.109375,-89.270828,345.63574,484.70654)" spreadMethod="pad" id="radialGradient366">
      <stop style="stop-opacity:1;stop-color:#ffd457" offset="0" id="stop360"></stop>
      <stop style="stop-opacity:1;stop-color:#f9a351" offset="0.47879" id="stop362"></stop>
      <stop style="stop-opacity:1;stop-color:#f5821f" offset="1" id="stop364"></stop>
    </radialGradient>
    <clipPath clipPathUnits="userSpaceOnUse" id="clipPath376">
      <path d="m 368.708,480.913 c -1.024,-3.693 -2.993,-6.592 -5.71,-8.455 v 0 c 1.114,-3.164 2.025,-6.418 2.727,-9.718 v 0 l 9.393,1.86 c 0.026,4.928 -0.433,9.813 -1.343,14.585 v 0 c -1.253,3.013 -2.702,5.954 -4.359,8.799 v 0 c 0.119,-2.496 -0.102,-4.876 -0.708,-7.071" id="path374"></path>
    </clipPath>
    <radialGradient fx="0" fy="0" cx="0" cy="0" r="1" gradientUnits="userSpaceOnUse" gradientTransform="matrix(89.283783,-11.110992,-11.110992,-89.283768,345.6377,484.71143)" spreadMethod="pad" id="radialGradient388">
      <stop style="stop-opacity:1;stop-color:#ffd457" offset="0" id="stop382"></stop>
      <stop style="stop-opacity:1;stop-color:#f9a351" offset="0.47879" id="stop384"></stop>
      <stop style="stop-opacity:1;stop-color:#f5821f" offset="1" id="stop386"></stop>
    </radialGradient>
    <clipPath clipPathUnits="userSpaceOnUse" id="clipPath398">
      <path d="m 309.974,521.356 c -0.771,-0.084 -3.158,-0.298 -3.934,-0.413 v 0 c 10.728,-1.125 22.082,-4.885 34.491,-15.454 v 0 c 9.573,-8.149 16.911,-18.694 21.512,-30.454 v 0 c 2.148,1.564 3.721,3.954 4.544,6.94 v 0 c 0.864,3.125 0.864,6.76 -0.003,10.533 v 0 c -12.255,18.015 -31.435,29.099 -51.414,29.099 v 0 c -1.727,0 -3.46,-0.083 -5.196,-0.251" id="path396"></path>
    </clipPath>
    <radialGradient fx="0" fy="0" cx="0" cy="0" r="1" gradientUnits="userSpaceOnUse" gradientTransform="matrix(89.263214,-11.108429,-11.108429,-89.263214,345.63965,484.71191)" spreadMethod="pad" id="radialGradient410">
      <stop style="stop-opacity:1;stop-color:#ffd457" offset="0" id="stop404"></stop>
      <stop style="stop-opacity:1;stop-color:#f9a351" offset="0.47879" id="stop406"></stop>
      <stop style="stop-opacity:1;stop-color:#f5821f" offset="1" id="stop408"></stop>
    </radialGradient>
    <clipPath clipPathUnits="userSpaceOnUse" id="clipPath420">
      <path d="M 0,841.89 H 595.28 V 0 H 0 Z" id="path418"></path>
    </clipPath>
  </defs>
  
  
  <g id="layer1" transform="translate(-45.240395,-88.530978)">
    <g id="g18" transform="matrix(0.92240995,0,0,-0.92240995,-115.90278,626.99423)">
      <g id="g414">
        <g id="g1296">
          <g id="g1123">
            <g id="g20" transform="translate(1.4311426e-6,-1.4257417e-5)">
              <g id="g22" clip-path="url(#clipPath26)">
                <g id="g28">
                  <g id="g30">
                    <path d="m 295.608,571.685 c -0.276,-2.232 0.184,-4.645 1.391,-7.227 v 0 c 1.181,-2.579 1.66,-4.762 1.434,-6.58 v 0 c -0.195,-1.618 -0.984,-4.082 -2.369,-7.396 v 0 c -1.378,-3.324 -1.966,-5.752 -1.707,-7.258 v 0 c -1.197,0.879 -3.071,4.206 -5.639,10.008 v 0 c -2.08,4.673 -4.927,7.648 -8.596,8.936 v 0 c -4.984,1.809 -9.037,8.02 -12.111,18.704 v 0 c -2.671,-10.168 -2.141,-17.204 1.553,-21.067 v 0 c 2.676,-2.536 3.815,-6.31 3.41,-11.347 v 0 c -0.524,-6.069 -0.524,-9.786 -0.01,-11.167 v 0 c -1.291,0.68 -4.028,3.587 -8.236,8.751 v 0 c -3.691,4.233 -7.405,6.55 -11.158,6.932 v 0 c -5.48,0.524 -11.422,5.791 -17.843,15.91 v 0 c 0.337,-11.244 3.074,-18.261 8.126,-21.086 v 0 c 3.403,-2.025 5.599,-5.654 6.635,-10.87 v 0 c 1.125,-6.314 2.103,-9.97 2.93,-10.988 v 0 c -1.639,0.3 -4.473,1.967 -8.555,5.023 v 0 c -4.141,3.084 -7.525,4.898 -10.19,5.41 v 0 c -1.229,0.239 -2.769,0.253 -4.678,0.065 v 0 c -1.909,-0.195 -3.5,-0.169 -4.732,0.07 v 0 c -4.236,0.796 -10.085,4.633 -17.605,11.584 v 0 c 3.837,-11.474 8.621,-17.907 14.35,-19.393 v 0 c 3.911,-1.159 7.179,-4.302 9.799,-9.42 v 0 c 2.989,-5.797 5.04,-9.11 6.165,-9.944 v 0 c -1.989,-0.137 -4.978,0.635 -8.992,2.284 v 0 c -4.076,1.664 -7.117,2.658 -9.101,2.99 v 0 c -2.268,0.367 -4.959,0.019 -8.051,-1.048 v 0 c -3.141,-1.088 -6.001,-1.418 -8.592,-1.006 v 0 c -3.905,0.624 -9.381,3.102 -16.472,7.493 v 0 c 7.127,-10.532 13.722,-15.721 19.801,-15.707 v 0 c 4.157,-0.175 8.139,-2.485 11.94,-6.903 v 0 c 4.709,-4.968 7.744,-7.758 9.164,-8.391 v 0 c -1.313,-0.486 -5.567,-0.363 -12.839,0.387 v 0 c -6.123,0.6 -10.701,-0.394 -13.658,-2.991 v 0 c -3.895,-3.67 -12.389,-4.003 -25.766,-0.933 v 0 c 7.761,-6.596 13.972,-10.131 18.746,-10.677 v 0 c 1.049,-0.123 2.666,-0.03 4.834,0.283 v 0 c 2.134,0.318 3.733,0.413 4.754,0.291 v 0 c 2.838,-0.337 6.455,-1.933 10.86,-4.781 v 0 c 4.338,-2.82 7.479,-4.328 9.455,-4.548 v 0 c -1.345,-0.727 -5.603,-1.704 -12.884,-2.931 v 0 c -6.072,-0.93 -10.102,-2.995 -12.076,-6.185 v 0 c -2.678,-4.483 -10.706,-6.945 -24.397,-7.355 v 0 c 7.295,-3.155 12.907,-4.868 16.863,-5.196 v 0 c 2.633,-0.213 5.535,0.272 8.706,1.476 v 0 c 3.154,1.186 5.867,1.682 8.165,1.48 v 0 c 2.037,-0.177 5.125,-0.945 9.258,-2.29 v 0 c 4.095,-1.339 7.136,-1.868 9.149,-1.597 v 0 c -0.907,-1.23 -4.62,-3.226 -11.232,-6 v 0 c -5.351,-2.252 -8.534,-5.238 -9.521,-8.94 v 0 c -1.368,-4.8 -8.249,-9.091 -20.898,-12.925 v 0 c 12.963,-1.994 21.335,-1.068 25.371,2.694 v 0 c 2.621,2.72 6.937,3.994 12.882,3.859 v 0 c 7.079,-0.207 11.329,-0.033 12.843,0.524 v 0 c -0.644,-1.248 -3.643,-3.972 -9.006,-8.21 v 0 c -4.393,-3.687 -6.566,-7.275 -6.499,-10.746 v 0 c 0.148,-4.774 -5.015,-10.384 -15.657,-16.909 v 0 c 12.467,1.272 19.956,4.124 22.707,8.568 v 0 c 1.836,3.162 5.595,5.384 11.243,6.673 v 0 c 6.767,1.438 10.624,2.646 11.681,3.655 v 0 c -0.207,-1.677 -1.756,-4.4 -4.67,-8.175 v 0 c -2.928,-3.82 -4.533,-6.881 -4.821,-9.204 v 0 c -0.113,-0.84 0.029,-2.104 0.404,-3.794 v 0 c 0.369,-1.698 0.511,-2.966 0.402,-3.802 v 0 c -0.469,-3.779 -3.934,-9.03 -10.457,-15.799 v 0 c 11.353,4.253 17.577,8.723 18.847,13.503 v 0 c 0.875,3.316 3.76,6.292 8.606,8.893 v 0 c 5.952,2.956 9.297,4.914 10.086,5.915 v 0 c 0.259,-1.434 -0.253,-3.778 -1.537,-7.018 v 0 c -1.581,-3.857 -2.474,-6.615 -2.677,-8.236 v 0 c -0.231,-1.844 0.222,-3.895 1.393,-6.14 v 0 c 1.136,-2.252 1.572,-4.487 1.294,-6.719 v 0 c -0.352,-2.849 1.337,-3.923 -2.264,-9.892 v 0 c 9.694,6.447 10.662,8.627 10.365,13.259 v 0 c -0.05,3.223 1.908,6.646 5.832,10.222 v 0 c 4.784,3.938 7.45,6.494 8.026,7.674 v 0 c 0.507,-1.008 0.499,-4.39 0.006,-10.142 v 0 c -0.388,-4.761 0.673,-8.134 3.163,-10.099 v 0 c 3.437,-2.528 3.921,-8.693 1.45,-18.54 v 0 c 5.72,6.193 8.77,11.007 9.207,14.513 v 0 c 0.093,0.784 -0.023,1.935 -0.317,3.493 v 0 c -0.314,1.548 -0.421,2.722 -0.325,3.494 v 0 c 0.272,2.154 1.676,5.014 4.226,8.605 v 0 c 2.535,3.561 3.9,6.108 4.096,7.648 v 0 c 0.658,-0.981 1.554,-4.09 2.681,-9.304 v 0 c 0.622,-4.433 2.416,-7.217 5.373,-8.352 v 0 c 3.828,-1.71 5.798,-7.279 5.959,-16.7 v 0 c 2.756,5.506 4.29,9.571 4.612,12.21 v 0 c 0.259,2.069 -0.093,4.134 -1.053,6.2 v 0 c -0.972,2.083 -1.353,3.969 -1.139,5.671 v 0 c 0.187,1.518 0.974,4.06 2.364,7.637 v 0 c 1.122,2.993 1.586,5.163 1.375,6.5 v 0 c 1.051,-0.6 2.685,-3.28 4.889,-8.016 v 0 c 1.755,-3.763 4.155,-5.835 7.216,-6.232 v 0 c 3.894,-0.578 7.091,-5.091 9.595,-13.481 v 0 c 2.186,9.122 1.862,14.95 -1.01,17.55 v 0 c -2.11,1.678 -2.986,4.745 -2.607,9.155 v 0 c 0.485,5.351 0.52,8.586 0.13,9.713 v 0 c 1.028,-0.416 3.175,-2.515 6.44,-6.294 v 0 c 2.616,-3.004 5.411,-4.349 8.402,-4.051 v 0 c 3.822,0.445 7.909,-2.876 12.226,-9.893 v 0 c -0.06,8.88 -1.752,14.101 -5.103,15.638 v 0 c -2.407,1.159 -3.967,3.824 -4.644,8.019 v 0 c -0.74,5.12 -1.504,8.063 -2.268,8.841 v 0 c 1.371,-0.075 3.521,-1.145 6.446,-3.203 v 0 c 2.884,-2.031 5.24,-3.085 7.071,-3.174 v 0 c 0.659,-0.028 1.688,0.14 3.06,0.521 v 0 c 1.369,0.377 2.382,0.557 3.037,0.518 v 0 c 2.93,-0.141 5.002,0.456 9.419,-3.928 v 0 c -1.991,8.291 -3.224,9.874 -6.885,10.431 v 0 c -2.568,0.507 -4.769,2.826 -6.573,6.96 v 0 c -1.838,4.164 -3.139,6.558 -3.908,7.153 v 0 c 1.217,0.265 3.234,-0.113 6.027,-1.142 v 0 c 2.768,-1.006 4.806,-1.552 6.107,-1.652 v 0 c 1.452,-0.107 3.128,0.382 5.049,1.473 v 0 c 1.903,1.078 3.713,1.553 5.453,1.414 v 0 c 2.195,-0.171 5.391,-1.636 9.557,-4.379 v 0 c -3.902,7.336 -7.713,10.946 -11.392,10.739 v 0 c -2.616,-0.303 -5.177,1.175 -7.707,4.471 v 0 c -2.989,3.727 -4.965,5.829 -5.907,6.295 v 0 c 1.055,0.44 3.957,0.505 8.673,0.198 v 0 c 3.866,-0.217 6.715,0.735 8.569,2.862 v 0 c 2.433,2.937 7.44,3.44 14.93,1.533 v 0 c -4.191,4.701 -7.683,7.239 -10.467,7.576 v 0 c -0.626,0.079 -1.587,-0.024 -2.89,-0.303 v 0 c -1.308,-0.285 -2.284,-0.385 -2.91,-0.31 v 0 c -1.742,0.21 -3.974,1.416 -6.705,3.615 v 0 c -2.777,2.226 -4.815,3.427 -6.116,3.598 v 0 c 0.904,0.596 3.652,1.407 8.2,2.417 v 0 c 3.816,0.735 6.353,2.332 7.621,4.811 v 0 c 1.864,3.441 6.735,5.175 14.508,5.227 v 0 c -4.15,2.731 -7.393,4.277 -9.707,4.64 v 0 c -1.553,0.244 -3.278,-0.104 -5.143,-1.056 v 0 c -1.89,-0.959 -3.554,-1.323 -4.989,-1.106 v 0 c -1.282,0.197 -3.27,0.899 -5.997,2.127 v 0 c -2.76,1.237 -4.749,1.767 -5.941,1.591 v 0 c 0.628,0.984 3.158,2.493 7.553,4.498 v 0 c 3.485,1.585 5.556,3.836 6.248,6.757 v 0 c 0.964,3.768 5.278,6.739 12.855,8.868 v 0 c -7.64,2.517 -12.828,2.426 -15.462,-0.317 v 0 c -1.895,-2.004 -4.808,-2.75 -8.754,-2.221 v 0 c -4.651,0.654 -7.55,0.803 -8.621,0.448 v 0 c 0.467,1.021 2.613,3.118 6.414,6.266 v 0 c 3.041,2.708 4.569,5.512 4.589,8.419 v 0 c -0.143,4.233 2.467,7.946 8.494,11.732 v 0 c -8.211,0.548 -11.283,-0.253 -13.095,-3.908 v 0 c -1.338,-2.479 -4.008,-3.967 -8.045,-4.44 v 0 c -4.968,-0.498 -7.868,-1.048 -8.653,-1.63 v 0 c 0.161,1.282 1.365,3.43 3.593,6.438 v 0 c 2.229,2.994 3.452,5.493 3.701,7.491 v 0 c 0.094,0.729 0.016,1.867 -0.223,3.418 v 0 c -0.25,1.552 -0.324,2.781 -0.207,3.694 v 0 c 0.385,3.094 2.988,7.072 7.757,11.88 v 0 c -8.431,-1.672 -13.152,-4.599 -14.02,-8.75 v 0 c -0.714,-2.859 -3.059,-5.085 -7.062,-6.659 v 0 c -4.616,-1.854 -7.378,-3.188 -8.214,-3.965 v 0 c -0.017,1.346 0.588,3.572 1.8,6.672 v 0 c 1.225,3.079 1.928,5.374 2.108,6.873 v 0 c 0.207,1.676 -0.189,3.691 -1.193,6.05 v 0 c -1.007,2.364 -1.387,4.577 -1.126,6.64 v 0 c 0.346,2.821 2.105,6.528 5.28,11.109 v 0 c -8.061,-3.905 -12.147,-8.135 -12.129,-12.632 v 0 c 0.181,-3.163 -1.519,-5.974 -5.125,-8.456 v 0 c -4.119,-3.174 -6.454,-5.311 -6.979,-6.382 v 0 c -0.453,1.086 -0.435,4.432 0.059,10.054 v 0 c 0.388,4.651 -0.563,8.246 -2.844,10.799 v 0 c -3.219,3.382 -3.623,9.801 -1.245,19.198 v 0 c -5.484,-4.772 -8.476,-8.937 -8.914,-12.463 v 0 c -0.092,-0.784 0.011,-2.019 0.309,-3.708 v 0 c 0.298,-1.689 0.389,-2.919 0.292,-3.695 v 0 c -0.265,-2.161 -1.657,-4.796 -4.174,-7.932 v 0 c -2.542,-3.163 -3.913,-5.53 -4.115,-7.102 v 0 c -0.88,1.201 -1.775,4.753 -2.704,10.661 v 0 c -0.876,4.697 -2.75,8.113 -5.636,10.251 v 0 c -4.12,2.662 -6.307,9.223 -6.513,19.691 v 0 c -3.224,-4.995 -5.035,-9.032 -5.407,-12.072 m 14.623,-54.994 c 1.199,2.002 1.866,3.585 2.011,4.768 v 0 c 0.15,1.188 -0.035,2.226 -0.539,3.139 v 0 c -1.12,2.652 0.173,6.341 3.848,11.044 v 0 c -0.764,-6.105 0.072,-10.107 2.492,-11.983 v 0 c 1.461,-1.294 2.322,-3.358 2.571,-6.204 v 0 c 0.177,-3.43 0.411,-5.565 0.702,-6.405 v 0 c 0.097,0.776 1.402,2.323 3.881,4.652 v 0 c 1.843,2.025 2.614,4.199 2.304,6.541 v 0 c -0.305,2.341 1.844,5.227 6.398,8.63 v 0 c -2.038,-5.299 -2.209,-9.109 -0.539,-11.409 v 0 c 1.16,-1.598 1.373,-3.798 0.643,-6.599 v 0 c -0.79,-3.193 -1.035,-5.205 -0.757,-6.034 v 0 c 0.478,0.687 2.012,1.786 4.612,3.268 v 0 c 2.582,1.465 3.896,3.164 3.947,5.099 v 0 c 0.328,2.651 3.193,5.006 8.531,7.025 v 0 c -3.384,-4.542 -4.581,-8.068 -3.568,-10.577 v 0 c 0.426,-1.049 0.59,-2.046 0.471,-2.98 v 0 c -0.138,-1.135 -0.891,-2.634 -2.253,-4.509 v 0 c -1.369,-1.886 -2.015,-3.316 -1.953,-4.291 v 0 c 0.455,0.509 2.188,1.14 5.174,1.897 v 0 c 2.973,0.754 4.749,2.04 5.369,3.887 v 0 c 1.072,2.52 4.378,4.042 9.858,4.555 v 0 c -4.34,-3.405 -6.378,-6.254 -6.095,-8.517 v 0 c 0.286,-2.257 -0.452,-4.387 -2.206,-6.399 v 0 c -2.375,-2.302 -3.604,-3.829 -3.701,-4.589 v 0 c 0.589,0.287 2.378,0.427 5.338,0.416 v 0 c 2.951,-0.011 5.021,0.874 6.244,2.646 v 0 c 1.217,1.767 4.574,2.265 10.002,1.521 v 0 c -4.84,-2.161 -7.44,-4.526 -7.757,-7.092 v 0 c -0.228,-1.836 -1.407,-3.422 -3.54,-4.773 v 0 c -2.755,-1.841 -4.341,-3.01 -4.767,-3.514 v 0 c 0.732,0.078 2.674,-0.303 5.79,-1.139 v 0 c 2.429,-0.546 4.476,-0.105 6.152,1.318 v 0 c 1.663,1.416 4.973,1.089 9.896,-0.943 v 0 c -5.28,-0.892 -8.337,-2.36 -9.113,-4.411 v 0 c -0.783,-2.057 -2.375,-3.487 -4.759,-4.29 v 0 c -2.966,-0.925 -4.752,-1.64 -5.341,-2.122 v 0 c 0.875,-0.124 2.226,-0.724 4.052,-1.817 v 0 c 1.811,-1.094 3.228,-1.695 4.269,-1.828 v 0 c 0.861,-0.118 1.75,0.048 2.678,0.481 v 0 c 2.21,0.99 5.422,-0.161 9.628,-3.439 v 0 c -5.223,0.664 -8.598,-0.099 -10.08,-2.3 v 0 c -1.036,-1.354 -2.801,-2.154 -5.287,-2.415 v 0 c -3.218,-0.172 -5.116,-0.415 -5.681,-0.726 v 0 c 0.695,-0.076 2.084,-1.121 4.142,-3.12 v 0 c 2.038,-1.988 4.088,-2.808 6.14,-2.485 v 0 c 2.025,0.329 4.67,-1.611 7.899,-5.772 v 0 c -4.903,1.786 -8.165,1.986 -9.723,0.59 v 0 c -1.579,-1.397 -3.649,-1.793 -6.211,-1.163 v 0 c -2.971,0.486 -4.824,0.669 -5.558,0.565 v 0 c 0.495,-0.425 1.65,-1.939 3.461,-4.527 v 0 c 1.31,-2.338 2.84,-3.595 4.575,-3.752 v 0 c 2.441,-0.035 4.732,-2.613 6.858,-7.718 v 0 c -4.291,3.091 -7.567,4.101 -9.817,3.007 v 0 c -0.948,-0.479 -1.862,-0.678 -2.741,-0.601 v 0 c -1.056,0.087 -2.49,0.757 -4.31,2.031 v 0 c -1.83,1.277 -3.208,1.858 -4.124,1.754 v 0 c 0.502,-0.434 1.168,-2.122 1.996,-5.085 v 0 c 0.842,-2.937 2.141,-4.665 3.908,-5.183 v 0 c 2.426,-0.94 4.01,-4.183 4.762,-9.717 v 0 c -3.43,4.199 -6.444,6.023 -9.078,5.434 v 0 c -1.682,-0.268 -3.599,0.577 -5.76,2.563 v 0 c -2.178,1.992 -3.649,3.024 -4.39,3.082 v 0 c 0.29,-0.599 0.485,-2.428 0.562,-5.488 v 0 c 0.084,-3.067 1.023,-5.208 2.801,-6.463 v 0 c 1.76,-1.238 2.289,-4.68 1.593,-10.305 v 0 c -2.122,4.952 -4.471,7.521 -7.052,7.67 v 0 c -1.851,0.096 -3.605,1.373 -5.281,3.853 v 0 c -1.667,2.485 -2.794,3.839 -3.325,4.06 v 0 c 0.114,-0.586 -0.232,-2.563 -1.024,-5.955 v 0 c -0.53,-2.647 -0.075,-4.681 1.374,-6.079 v 0 c 1.733,-1.987 1.5,-5.772 -0.705,-11.375 v 0 c -0.855,5.733 -2.388,8.949 -4.581,9.619 v 0 c -2.206,0.679 -3.797,2.442 -4.749,5.281 v 0 c -0.971,2.852 -1.708,4.588 -2.238,5.209 v 0 c -0.125,-0.971 -0.773,-2.478 -1.946,-4.548 v 0 c -1.176,-2.084 -1.843,-3.698 -1.981,-4.85 v 0 c -0.124,-0.966 0.05,-1.95 0.525,-2.933 v 0 c 1.08,-2.374 -0.17,-6.102 -3.771,-11.216 v 0 c 0.547,6.001 -0.145,9.623 -2.085,10.88 v 0 c -1.949,1.267 -2.96,3.26 -3.018,6.015 v 0 c -0.172,3.546 -0.415,5.638 -0.738,6.238 v 0 c -0.306,-0.769 -1.576,-2.382 -3.808,-4.819 v 0 c -2.265,-2.462 -3.205,-4.698 -2.834,-6.704 v 0 c 0.498,-2.581 -1.775,-5.966 -6.845,-10.157 v 0 c 2.362,5.687 2.634,9.546 0.813,11.619 v 0 c -1.272,1.463 -1.634,3.678 -1.059,6.646 v 0 c 0.849,3.358 1.197,5.439 1.094,6.256 v 0 c -0.493,-0.783 -2.122,-2.091 -4.887,-3.934 v 0 c -2.799,-1.863 -4.314,-3.817 -4.566,-5.817 v 0 c -0.148,-2.822 -3.182,-5.726 -9.18,-8.739 v 0 c 3.488,5.351 4.62,9.264 3.425,11.76 v 0 c -0.527,1.048 -0.724,2.078 -0.597,3.086 v 0 c 0.152,1.211 0.951,2.896 2.413,5.06 v 0 c 1.461,2.148 2.244,3.721 2.361,4.735 v 0 c -0.725,-0.581 -2.782,-1.428 -6.173,-2.567 v 0 c -3.416,-1.146 -5.499,-2.75 -6.204,-4.807 v 0 c -1.267,-2.882 -5.435,-4.982 -12.577,-6.325 v 0 c 5.662,4.338 8.195,7.981 7.641,10.964 v 0 c -0.453,1.921 0.58,4.162 3.085,6.715 v 0 c 2.492,2.549 3.886,4.222 4.222,5.034 v 0 c -0.721,-0.357 -3.121,-0.693 -7.236,-1.003 v 0 c -3.247,-0.176 -5.551,-1.151 -6.935,-2.937 v 0 c -1.909,-2.382 -6.473,-3.335 -13.755,-2.85 v 0 c 6.67,2.72 10.144,5.521 10.5,8.453 v 0 c 0.259,2.08 1.954,4.104 5.062,6.054 v 0 c 3.091,1.935 4.765,3.19 5.073,3.789 v 0 c -0.916,-0.126 -3.279,0.185 -7.061,0.958 v 0 c -3.167,0.495 -5.684,-0.074 -7.511,-1.707 v 0 c -2.595,-2.011 -7.305,-1.885 -14.202,0.435 v 0 c 7.324,1.132 11.474,3.08 12.526,5.855 v 0 c 0.964,2.123 3.208,3.714 6.715,4.794 v 0 c 3.488,1.065 5.473,1.893 6.016,2.492 v 0 c -0.905,0.089 -2.549,0.76 -4.926,1.992 v 0 c -2.416,1.248 -4.305,1.954 -5.683,2.099 v 0 c -1.399,0.153 -2.607,-0.032 -3.61,-0.572 v 0 c -3.002,-1.178 -7.502,0.161 -13.568,4.076 v 0 c 7.44,-0.615 12.086,0.272 14.033,2.627 v 0 c 1.407,1.765 3.933,2.694 7.576,2.795 v 0 c 3.61,0.093 5.88,0.297 6.839,0.608 v 0 c -0.88,0.314 -2.895,1.726 -6.056,4.246 v 0 c -2.329,1.996 -4.67,2.934 -7.052,2.812 v 0 c -3.384,-0.426 -7.395,2.031 -12.056,7.427 v 0 c 6.935,-2.665 11.642,-3.072 14.239,-1.264 v 0 c 1.816,1.252 4.429,1.53 7.832,0.847 v 0 c 3.808,-0.949 6.159,-1.369 7.085,-1.291 v 0 c -0.851,0.525 -2.252,2.188 -4.186,5.019 v 0 c -1.961,2.829 -4.096,4.433 -6.379,4.77 v 0 c -3.274,0.266 -6.435,3.436 -9.498,9.536 v 0 c 5.975,-3.736 10.403,-5.059 13.328,-4.011 v 0 c 1.225,0.451 2.393,0.585 3.528,0.408 v 0 c 1.357,-0.201 3.194,-1.081 5.523,-2.601 v 0 c 2.309,-1.513 4.001,-2.35 5.114,-2.518 v 0 c -0.624,0.526 -1.614,2.731 -2.979,6.639 v 0 c -1.023,2.989 -2.529,4.868 -4.536,5.639 v 0 c -3.124,1.394 -5.228,5.378 -6.315,11.972 v 0 c 4.498,-5.421 8.276,-7.922 11.316,-7.569 v 0 c 2.298,0.038 4.769,-1.14 7.425,-3.534 v 0 c 2.636,-2.379 4.373,-3.739 5.211,-4.088 v 0 c -0.346,0.68 -0.595,2.727 -0.718,6.127 v 0 c -0.132,3.406 -1.106,5.797 -2.941,7.188 v 0 c -2.436,1.921 -3.386,6.048 -2.817,12.354 v 0 c 2.831,-6.021 5.758,-9.288 8.779,-9.844 v 0 c 2.142,-0.391 4.031,-1.877 5.658,-4.452 v 0 c 1.983,-3.244 3.361,-5.026 4.183,-5.369 v 0 c -0.136,0.635 0.129,2.75 0.786,6.327 v 0 c 0.77,2.73 0.447,4.956 -0.98,6.664 v 0 c -1.935,2.433 -1.783,6.548 0.433,12.306 v 0 c 1.177,-6.428 3.099,-10.203 5.778,-11.338 v 0 c 2.019,-0.999 3.487,-2.922 4.418,-5.736 v 0 c 1.054,-3.443 1.865,-5.519 2.417,-6.22 v 0 c 0.121,0.986 0.772,2.479 1.968,4.492" style="fill:url(#linearGradient46);stroke:none" id="path48"></path>
                  </g>
                </g>
              </g>
            </g>
            <g id="g50" transform="translate(1.4311426e-6,-1.4257417e-5)">
              <g id="g52" clip-path="url(#clipPath56)">
                <g id="g58" transform="translate(384.0908,448.7905)">
                  <path d="m 0,0 c -0.517,-34.945 -25.612,-62.93 -58.957,-62.491 -37.053,0.505 -69.745,35.254 -69.114,77.566 0.63,42.316 34.241,69.262 71.174,61.05 C -23.651,68.74 0.526,34.95 0,0" style="fill:#ffffff;fill-opacity:1;fill-rule:nonzero;stroke:none" id="path60"></path>
                </g>
              </g>
            </g>
            <g id="g62" transform="translate(1.4311426e-6,-1.4257417e-5)">
              <g id="g64" clip-path="url(#clipPath68)">
                <g id="g70">
                  <g id="g72">
                    <path d="m 311.23,404.022 c -1.113,0.161 -2.21,0.368 -3.304,0.593 v 0 c -4.621,-1.63 -9.306,-2.436 -13.776,-2.127 v 0 c -4.374,0.29 -9.316,1.262 -13.953,4.156 v 0 c 14.767,-15.491 37.399,-22.071 49.045,-17.905 v 0 c 10.44,3.746 19.806,11.523 26.533,22.611 v 0 c 2.37,3.934 4.328,8.18 5.832,12.604 v 0 c -11.611,-14.7 -29.953,-23.036 -50.377,-19.932" style="fill:url(#radialGradient80);stroke:none" id="path82"></path>
                  </g>
                </g>
              </g>
            </g>
            <g id="g84" transform="translate(1.4311426e-6,-1.4257417e-5)">
              <g id="g86" clip-path="url(#clipPath90)">
                <g id="g92">
                  <g id="g94">
                    <path d="m 261.956,438.861 c 2.639,-9.56 9.061,-21.512 13.781,-25.741 v 0 c 4.651,-4.164 11.606,-7.327 18.489,-7.74 v 0 c 2.854,-0.172 5.64,0.077 8.34,0.646 v 0 c -16.42,5.091 -30.563,17.125 -39.634,33.027 v 0 z" style="fill:url(#radialGradient102);stroke:none" id="path104"></path>
                  </g>
                </g>
              </g>
            </g>
            <g id="g106" transform="translate(1.4311426e-6,-1.4257417e-5)">
              <g id="g108" clip-path="url(#clipPath112)">
                <g id="g114">
                  <g id="g116">
                    <path d="m 375.064,461.864 c -0.092,-1.977 -0.253,-3.964 -0.504,-5.946 v 0 c -0.357,-2.902 -0.891,-5.698 -1.568,-8.414 v 0 c 0.99,-0.776 1.912,-1.709 2.75,-2.78 v 0 c 1.346,-1.724 2.414,-3.748 3.193,-6 v 0 c 1.185,7.809 1.086,15.806 -0.317,23.864 v 0 z" style="fill:url(#radialGradient124);stroke:none" id="path126"></path>
                  </g>
                </g>
              </g>
            </g>
            <g id="g128" transform="translate(1.4311426e-6,-1.4257417e-5)">
              <g id="g130" clip-path="url(#clipPath134)">
                <g id="g136">
                  <g id="g138">
                    <path d="m 365.71,429.9 c -1.324,-5.835 -3.382,-11.452 -6.161,-16.706 v 0 c -6.933,-13.127 -15.347,-20.133 -24.146,-24.767 v 0 c 0.715,0.191 2.845,0.839 3.544,1.051 v 0 c 19.567,5.874 34.19,22.766 39.056,44.254 v 0 c -0.567,3.608 -1.875,6.797 -3.791,9.249 v 0 c -0.594,0.752 -1.231,1.41 -1.908,1.987 v 0 c -1.598,-5.453 -3.824,-10.511 -6.594,-15.068" style="fill:url(#radialGradient146);stroke:none" id="path148"></path>
                  </g>
                </g>
              </g>
            </g>
            <g id="g150" transform="translate(1.4311426e-6,-1.4257417e-5)">
              <g id="g152" clip-path="url(#clipPath156)">
                <g id="g158">
                  <g id="g160">
                    <path d="m 261.15,442.032 0.15,0.038 c -0.089,0.161 -0.172,0.329 -0.263,0.498 v 0 c 0.042,-0.176 0.078,-0.36 0.113,-0.536" style="fill:url(#radialGradient168);stroke:none" id="path170"></path>
                  </g>
                </g>
              </g>
            </g>
            <g id="g172" transform="translate(1.4311426e-6,-1.4257417e-5)">
              <g id="g174" clip-path="url(#clipPath178)">
                <g id="g180">
                  <g id="g182">
                    <path d="m 375.118,464.6 3.002,0.592 c -1.008,4.84 -2.469,9.508 -4.345,13.993 v 0 c 0.91,-4.772 1.369,-9.657 1.343,-14.585" style="fill:url(#radialGradient190);stroke:none" id="path192"></path>
                  </g>
                </g>
              </g>
            </g>
            <g id="g194" transform="translate(1.4311426e-6,-1.4257417e-5)">
              <g id="g196" clip-path="url(#clipPath200)">
                <g id="g202">
                  <g id="g204">
                    <path d="m 321.73,484.221 -0.033,0.031 c -0.002,0.007 -0.013,0.007 -0.013,0.012 v 0 h -0.006 l -0.029,0.014 z" style="fill:url(#radialGradient212);stroke:none" id="path214"></path>
                  </g>
                </g>
              </g>
            </g>
            <g id="g216" transform="translate(1.4311426e-6,-1.4257417e-5)">
              <g id="g218" clip-path="url(#clipPath222)">
                <g id="g224">
                  <g id="g226">
                    <path d="m 364.747,447.743 c -10.134,-0.4 -21.271,-12.408 -30.041,-23.41 v 0 c -6.94,-8.705 -16.73,-16.169 -26.78,-19.718 v 0 c 1.094,-0.225 2.191,-0.432 3.304,-0.593 v 0 c 20.424,-3.104 38.766,5.232 50.377,19.932 v 0 c 2.556,7.519 3.82,15.619 3.667,23.787 v 0 c -0.13,0 -0.264,0.004 -0.388,0.004 v 0 c -0.048,0 -0.095,0 -0.139,-0.002" style="fill:url(#radialGradient234);stroke:none" id="path236"></path>
                  </g>
                </g>
              </g>
            </g>
            <g id="g238" transform="translate(1.4311426e-6,-1.4257417e-5)">
              <g id="g240" clip-path="url(#clipPath244)">
                <g id="g246">
                  <g id="g248">
                    <path d="m 262.932,439.053 c 9.071,-15.902 23.214,-27.936 39.634,-33.027 v 0 c 14.01,2.976 25.736,14.755 31.701,21.803 v 0 c 7.008,8.262 18.931,22.476 30.292,22.566 v 0 h 0.625 c -0.175,3.056 -0.534,6.161 -1.103,9.239 v 0 z" style="fill:url(#radialGradient256);stroke:none" id="path258"></path>
                  </g>
                </g>
              </g>
            </g>
            <g id="g260" transform="translate(1.4311426e-6,-1.4257417e-5)">
              <g id="g262" clip-path="url(#clipPath266)">
                <g id="g268">
                  <g id="g270">
                    <path d="m 366.254,460.075 c 0.603,-3.307 0.99,-6.639 1.166,-9.932 v 0 c 1.998,-0.4 3.889,-1.3 5.572,-2.639 v 0 c 0.677,2.716 1.211,5.512 1.568,8.414 v 0 c 0.251,1.982 0.412,3.969 0.504,5.946 v 0 z" style="fill:url(#radialGradient278);stroke:none" id="path280"></path>
                  </g>
                </g>
              </g>
            </g>
            <g id="g282" transform="translate(1.4311426e-6,-1.4257417e-5)">
              <g id="g284" clip-path="url(#clipPath288)">
                <g id="g290">
                  <g id="g292">
                    <path d="m 365.71,429.9 c 2.77,4.557 4.996,9.615 6.594,15.068 v 0 c -1.443,1.243 -3.075,2.096 -4.8,2.49 v 0 c 0.106,-5.988 -0.505,-11.889 -1.794,-17.558" style="fill:url(#radialGradient300);stroke:none" id="path302"></path>
                  </g>
                </g>
              </g>
            </g>
            <g id="g304" transform="translate(1.4311426e-6,-1.4257417e-5)">
              <g id="g306" clip-path="url(#clipPath310)">
                <g id="g312">
                  <g id="g314">
                    <path d="m 300.16,518.005 c -13.348,-0.566 -31.903,-16.872 -38.101,-38.404 v 0 c 2.905,4.736 7.091,7.706 11.077,9.776 v 0 c 13.02,6.787 33.264,3.312 48.51,-5.093 v 0 c 0.012,-0.006 0.025,-0.016 0.038,-0.02 v 0 l 0.013,-0.005 v -0.007 c 12.96,-7.143 28.255,-14.156 37.867,-10.562 v 0 c 0.157,0.061 0.329,0.14 0.494,0.203 v 0 c -4.918,12.55 -13.323,23.867 -23.951,31.897 v 0 c -10.731,8.113 -22.641,12.256 -33.977,12.257 v 0 c -0.659,0 -1.315,-0.014 -1.97,-0.042" style="fill:url(#radialGradient322);stroke:none" id="path324"></path>
                  </g>
                </g>
              </g>
            </g>
            <g id="g326" transform="translate(1.4311426e-6,-1.4257417e-5)">
              <g id="g328" clip-path="url(#clipPath332)">
                <g id="g334">
                  <g id="g336">
                    <path d="m 321.697,484.252 v 0.007 l -0.013,0.005 c 0,-0.005 0.011,-0.005 0.013,-0.012" style="fill:url(#radialGradient344);stroke:none" id="path346"></path>
                  </g>
                </g>
              </g>
            </g>
            <g id="g348" transform="translate(1.4311426e-6,-1.4257417e-5)">
              <g id="g350" clip-path="url(#clipPath354)">
                <g id="g356">
                  <g id="g358">
                    <path d="m 274.63,486.543 c -6.292,-3.205 -11.239,-9.107 -13.509,-15.003 v 0 c -2.225,-5.817 -2.232,-19.248 -0.084,-28.972 v 0 c 0.091,-0.169 0.174,-0.337 0.263,-0.498 v 0 l 102.25,20.237 c -0.66,3.079 -1.516,6.104 -2.543,9.05 v 0 c -0.206,-0.089 -0.4,-0.174 -0.589,-0.252 v 0 c -10.599,-4.334 -27.547,4.424 -37.659,9.602 v 0 c -7.327,3.754 -20.187,9.236 -32.82,9.237 v 0 c -5.283,0 -10.524,-0.958 -15.309,-3.401" style="fill:url(#radialGradient366);stroke:none" id="path368"></path>
                  </g>
                </g>
              </g>
            </g>
            <g id="g370" transform="translate(1.4311426e-6,-1.4257417e-5)">
              <g id="g372" clip-path="url(#clipPath376)">
                <g id="g378">
                  <g id="g380">
                    <path d="m 368.708,480.913 c -1.024,-3.693 -2.993,-6.592 -5.71,-8.455 v 0 c 1.114,-3.164 2.025,-6.418 2.727,-9.718 v 0 l 9.393,1.86 c 0.026,4.928 -0.433,9.813 -1.343,14.585 v 0 c -1.253,3.013 -2.702,5.954 -4.359,8.799 v 0 c 0.119,-2.496 -0.102,-4.876 -0.708,-7.071" style="fill:url(#radialGradient388);stroke:none" id="path390"></path>
                  </g>
                </g>
              </g>
            </g>
            <g id="g392" transform="translate(1.4311426e-6,-1.4257417e-5)">
              <g id="g394" clip-path="url(#clipPath398)">
                <g id="g400">
                  <g id="g402">
                    <path d="m 309.974,521.356 c -0.771,-0.084 -3.158,-0.298 -3.934,-0.413 v 0 c 10.728,-1.125 22.082,-4.885 34.491,-15.454 v 0 c 9.573,-8.149 16.911,-18.694 21.512,-30.454 v 0 c 2.148,1.564 3.721,3.954 4.544,6.94 v 0 c 0.864,3.125 0.864,6.76 -0.003,10.533 v 0 c -12.255,18.015 -31.435,29.099 -51.414,29.099 v 0 c -1.727,0 -3.46,-0.083 -5.196,-0.251" style="fill:url(#radialGradient410);stroke:none" id="path412"></path>
                  </g>
                </g>
              </g>
            </g>
            <g id="g416" clip-path="url(#clipPath420)">
              <g id="g422" transform="translate(417.4951,394.6836)">
                <path d="m 0,0 v 18.724 h -23.155 c 0,0 -9.711,0.186 -17.553,-6.999 0,0 -8.87,-7.596 -11.041,-20.433 0,0 -0.48,-7.18 -0.48,-10.804 0,0 -3.457,-29.454 14.239,-37.906 0,0 7.508,-3.335 15.664,-1.346 l 22.074,5.571 v 18.096 l -18.394,-3.383 c 0,0 -11.733,-2.88 -11.937,11.244 v 11.234 c 0,0 -0.795,13.619 10.34,14.515 z" style="fill:#ffffff;fill-opacity:1;fill-rule:nonzero;stroke:none" id="path424"></path>
              </g>
              <g id="g426" transform="translate(417.4951,394.6836)">
                <path d="m 0,0 v 18.724 h -23.155 c 0,0 -9.711,0.186 -17.553,-6.999 0,0 -8.87,-7.596 -11.041,-20.433 0,0 -0.48,-7.18 -0.48,-10.804 0,0 -3.457,-29.454 14.239,-37.906 0,0 7.508,-3.335 15.664,-1.346 l 22.074,5.571 v 18.096 l -18.394,-3.383 c 0,0 -11.733,-2.88 -11.937,11.244 v 11.234 c 0,0 -0.795,13.619 10.34,14.515 z" style="fill:none;stroke:#231f20;stroke-width:4.301;stroke-linecap:butt;stroke-linejoin:miter;stroke-miterlimit:4;stroke-dasharray:none;stroke-opacity:1" id="path428"></path>
              </g>
              <g id="g430" transform="translate(344.9297,347.9541)">
                <path d="M 0,0 -6.785,-1.618 C -22.449,-4.296 -22.521,9.725 -22.521,9.725 v 13.792 c 0,9.841 3.773,12.887 3.773,12.887 4.832,5.617 14.104,5.281 14.104,5.281 l 29.431,2.076 v 22.391 h -36.122 c 0,0 -7.978,0.318 -14.912,-2.742 0,0 -17.087,-6.334 -24.941,-23.64 0,0 -2.88,-5.761 -3.274,-12.824 l 0.139,-27.761 c 0,0 2.144,-21.461 18.849,-27.322 0,0 9.443,-2.821 18.994,-0.437 l 41.082,10.322 V 35.791 L -20.534,31.922 V 6.604 L 0,9.853 Z" style="fill:#ffffff;fill-opacity:1;fill-rule:nonzero;stroke:none" id="path432"></path>
              </g>
              <g id="g434" transform="translate(344.9297,347.9541)">
                <path d="M 0,0 -6.785,-1.618 C -22.449,-4.296 -22.521,9.725 -22.521,9.725 v 13.792 c 0,9.841 3.773,12.887 3.773,12.887 4.832,5.617 14.104,5.281 14.104,5.281 l 29.431,2.076 v 22.391 h -36.122 c 0,0 -7.978,0.318 -14.912,-2.742 0,0 -17.087,-6.334 -24.941,-23.64 0,0 -2.88,-5.761 -3.274,-12.824 l 0.139,-27.761 c 0,0 2.144,-21.461 18.849,-27.322 0,0 9.443,-2.821 18.994,-0.437 l 41.082,10.322 V 35.791 L -20.534,31.922 V 6.604 L 0,9.853 Z" style="fill:none;stroke:#231f20;stroke-width:4.301;stroke-linecap:butt;stroke-linejoin:miter;stroke-miterlimit:4;stroke-dasharray:none;stroke-opacity:1" id="path436"></path>
              </g>
              <g id="g438" transform="translate(200.8945,411.7656)">
                <path d="M 0,0 H 44.476 V -30.9 L 79.454,0.86 h 41.89 l -50.158,-52.208 51.053,-41.888 -41.775,-10.462 -35.289,23.583 v -32.488 L 0,-123.854 Z" style="fill:#ffffff;fill-opacity:1;fill-rule:nonzero;stroke:none" id="path440"></path>
              </g>
              <g id="g442" transform="translate(200.8945,411.7656)">
                <path d="M 0,0 H 44.476 V -30.9 L 79.454,0.86 h 41.89 l -50.158,-52.208 51.053,-41.888 -41.775,-10.462 -35.289,23.583 v -32.488 L 0,-123.854 Z" style="fill:none;stroke:#231f20;stroke-width:4.301;stroke-linecap:butt;stroke-linejoin:miter;stroke-miterlimit:4;stroke-dasharray:none;stroke-opacity:1" id="path444"></path>
              </g>
              <g id="g446" transform="translate(344.9297,347.9541)">
                <path d="M 0,0 -6.785,-1.618 C -22.449,-4.296 -22.521,9.725 -22.521,9.725 v 13.792 c 0,9.841 3.773,12.887 3.773,12.887 4.832,5.617 14.104,5.281 14.104,5.281 l 29.431,2.076 v 22.391 h -36.122 c 0,0 -7.978,0.318 -14.912,-2.742 0,0 -17.087,-6.334 -24.941,-23.64 0,0 -2.88,-5.761 -3.274,-12.824 l 0.139,-27.761 c 0,0 2.144,-21.461 18.849,-27.322 0,0 9.443,-2.821 18.994,-0.437 l 41.082,10.322 V 35.791 L -20.534,31.922 V 6.604 L 0,9.853 Z" style="fill:#ffffff;fill-opacity:1;fill-rule:nonzero;stroke:none" id="path448"></path>
              </g>
              <g id="g450" transform="translate(200.8945,411.7656)">
                <path d="M 0,0 H 44.476 V -30.9 L 79.454,0.86 h 41.89 l -50.158,-52.208 51.053,-41.888 -41.775,-10.462 -35.289,23.583 v -32.488 L 0,-123.854 Z" style="fill:#ffffff;fill-opacity:1;fill-rule:nonzero;stroke:none" id="path452"></path>
              </g>
              <g id="g454" transform="translate(200.8945,411.7656)">
                <path d="M 0,0 H 44.476 V -30.9 L 79.454,0.86 h 41.89 l -50.158,-52.208 51.053,-41.888 -41.775,-10.462 -35.289,23.583 v -32.488 L 0,-123.854 Z" style="fill:#ffffff;fill-opacity:1;fill-rule:nonzero;stroke:none" id="path456"></path>
              </g>
              <g id="g458" transform="translate(417.4951,394.6836)">
                <path d="m 0,0 v 18.724 h -23.155 c 0,0 -9.711,0.186 -17.553,-6.999 0,0 -8.87,-7.596 -11.041,-20.433 0,0 -0.48,-7.18 -0.48,-10.804 0,0 -3.457,-29.454 14.239,-37.906 0,0 7.508,-3.335 15.664,-1.346 l 22.074,5.571 v 18.096 l -18.394,-3.383 c 0,0 -11.733,-2.88 -11.937,11.244 v 11.234 c 0,0 -0.795,13.619 10.34,14.515 z" style="fill:#ffffff;fill-opacity:1;fill-rule:nonzero;stroke:none" id="path460"></path>
              </g>
              <g id="g462" transform="translate(344.9297,347.9541)">
                <path d="M 0,0 -6.785,-1.618 C -22.449,-4.296 -22.521,9.725 -22.521,9.725 v 13.792 c 0,9.841 3.773,12.887 3.773,12.887 4.832,5.617 14.104,5.281 14.104,5.281 l 29.431,2.076 v 22.391 h -36.122 c 0,0 -7.978,0.318 -14.912,-2.742 0,0 -17.087,-6.334 -24.941,-23.64 0,0 -2.88,-5.761 -3.274,-12.824 l 0.139,-27.761 c 0,0 2.144,-21.461 18.849,-27.322 0,0 9.443,-2.821 18.994,-0.437 l 41.082,10.322 V 35.791 L -20.534,31.922 V 6.604 L 0,9.853 Z" style="fill:#ffffff;fill-opacity:1;fill-rule:nonzero;stroke:none" id="path464"></path>
              </g>
              <g id="g466" transform="translate(200.8945,411.7656)">
                <path d="M 0,0 H 44.476 V -30.9 L 79.454,0.86 h 41.89 l -50.158,-52.208 51.053,-41.888 -41.775,-10.462 -35.289,23.583 v -32.488 L 0,-123.854 Z" style="fill:#ffffff;fill-opacity:1;fill-rule:nonzero;stroke:none" id="path468"></path>
              </g>
              <g id="g470" transform="translate(308.2393,406.5576)">
                <path d="m 0,0 -24.833,-0.674 -47.336,-43.972 v 42.684 l -23.955,-0.646 v -105.496 l 23.955,5.538 v 44.984 l 48.844,-33.669 23.795,5.51 -48.255,37.845 z" style="fill:#e31837;fill-opacity:1;fill-rule:nonzero;stroke:none" id="path472"></path>
              </g>
              <g id="g474" transform="translate(297.106,371.7822)">
                <path d="M 0,0 -0.003,-17.369 0,-17.518 c 2.005,-26.794 17.222,-29.577 27.452,-28.867 4.409,0.311 7.591,0.838 7.667,0.869 l 33.125,7.664 V 6.881 L 32.388,3.118 v -13.522 l 20.637,2.847 v -21.227 l -13.014,-2.685 c -0.02,0 -1.795,-0.401 -4.276,-0.401 -7.145,0 -15.86,3.02 -16.876,17.391 V 0.95 c 1.528,22.043 20.756,22.813 21.615,22.835 l 27.77,1.376 V 37.317 L 34.698,36.501 C 33.41,36.501 1.411,35.338 0,0" style="fill:#e31837;fill-opacity:1;fill-rule:nonzero;stroke:none" id="path476"></path>
              </g>
              <g id="g478" transform="translate(397.6729,398.5654)">
                <path d="M 0,0 17.506,0.868 V 11.802 L -4.083,11.274 c -0.915,0 -22.404,-0.345 -24.521,-30.331 l -0.007,-14.403 0.007,-0.121 c 1.618,-22.504 14.806,-24.924 20.395,-24.931 2.677,0 4.546,0.512 4.557,0.516 l 21.158,4.894 v 10.989 L -0.47,-45.824 c 0,0 -0.935,-0.201 -2.287,-0.201 -5.027,0 -11.167,2.549 -11.847,14.631 v 12.769 C -13.606,-0.587 -0.596,-0.019 0,0" style="fill:#e31837;fill-opacity:1;fill-rule:nonzero;stroke:none" id="path480"></path>
              </g>
              <g id="g482" transform="translate(207.5186,407.0938)">
                <path d="m 0,0 -6.624,4.672 v -123.854 l 44.906,11.251 -6.346,3.186 -32.216,-7.74 z" style="fill:#d1d3d4;fill-opacity:1;fill-rule:nonzero;stroke:none" id="path484"></path>
              </g>
              <g id="g486" transform="translate(241.2139,340.6563)">
                <path d="m 0,0 4.855,-9.006 35.29,-23.583 41.878,10.482 -8.804,2.027 -30.784,-7.599 z" style="fill:#d1d3d4;fill-opacity:1;fill-rule:nonzero;stroke:none" id="path488"></path>
              </g>
              <g id="g490" transform="translate(266.0259,359.5117)">
                <path d="M 0,0 6.055,0.906 56.212,53.114 47.694,49.93 Z" style="fill:#d1d3d4;fill-opacity:1;fill-rule:nonzero;stroke:none" id="path492"></path>
              </g>
              <g id="g494" transform="translate(366.2646,332.6602)">
                <path d="M 0,0 3.267,-2.958 -38.98,-13.595 c 0,0 -31.34,-8.441 -36.675,27.937 0,0 -0.077,19.423 -0.167,28.583 0,0 0.989,13.496 11.093,19.856 l 2.848,1.449 c 0,0 -9.84,-9.636 -9.205,-25.929 l -0.103,-17.947 c 0,0 -0.189,-37.333 37.05,-28.623 z" style="fill:#d1d3d4;fill-opacity:1;fill-rule:nonzero;stroke:none" id="path496"></path>
              </g>
              <g id="g498" transform="translate(415.9229,343.8779)">
                <path d="M 0,0 1.32,-2.388 -21.648,-8.2 c 0,0 -24.894,-5.84 -28.499,24.247 0,0 -1.285,19.517 0.133,27.469 0,0 2.449,13.224 13.547,21.213 l 1.253,-1.603 c 0,0 -12.656,-7.57 -12.656,-27.116 V 19.726 c 0,0 0.213,-29.272 26.611,-24.947 z" style="fill:#d1d3d4;fill-opacity:1;fill-rule:nonzero;stroke:none" id="path500"></path>
              </g>
              <g id="g502" transform="translate(328.251,376.0391)">
                <path d="M 0,0 -3.855,3.837 V -21.48 l 20.534,3.248 v -9.853 l 3.319,-2.847 v 17.085 L 0,-16.792 Z" style="fill:#d1d3d4;fill-opacity:1;fill-rule:nonzero;stroke:none" id="path504"></path>
              </g>
              <g id="g506" transform="translate(415.5254,397.7578)">
                <path d="m 0,0 1.97,-3.074 -20.574,-1.519 c 0,0 -7.622,-0.391 -9.504,-9.362 l -2.164,1.045 c 0,0 1.717,11.364 13.033,11.836 z" style="fill:#d1d3d4;fill-opacity:1;fill-rule:nonzero;stroke:none" id="path508"></path>
              </g>
              <g id="g510" transform="translate(366.0615,395.2568)">
                <path d="M 0,0 3.263,-3.542 -30.15,-5.896 c 0,0 -11.095,-1.175 -12.958,-11.743 l -3.812,1.584 c 0,0 1.599,13.367 18.714,14.387 z" style="fill:#d1d3d4;fill-opacity:1;fill-rule:nonzero;stroke:none" id="path512"></path>
              </g>
              <g id="g514" transform="translate(243.0767,280.085)">
                <path d="M 0,0 -3.37,-0.757 V -7.336 L 0,-6.526 c 1.637,0.394 2.679,1.94 2.679,3.868 C 2.679,-0.73 1.637,0.37 0,0 m 0.188,-10.662 -3.558,-0.885 v -9.043 l -3.617,-0.973 V 2.65 l 7.175,1.54 c 3.816,0.823 6.101,-2.015 6.101,-6.01 0,-3.994 -2.285,-7.898 -6.101,-8.842" style="fill:#231f20;fill-opacity:1;fill-rule:nonzero;stroke:none" id="path516"></path>
              </g>
              <g id="g518" transform="translate(258.562,277.0215)">
                <path d="M 0,0 C -0.468,0.522 -0.873,0.768 -1.623,0.573 -2.565,0.333 -3.6,-0.915 -3.6,-3.06 v -10.211 l -3.074,-0.907 V 2.898 L -3.68,3.652 V 2.029 c 0.591,1.122 1.771,2.265 3.091,2.598 1.197,0.298 2.051,0.095 2.902,-0.845 z" style="fill:#231f20;fill-opacity:1;fill-rule:nonzero;stroke:none" id="path520"></path>
              </g>
              <g id="g522" transform="translate(267.5908,279.749)">
                <path d="m 0,0 c -0.356,0.382 -0.822,0.512 -1.439,0.35 -0.612,-0.16 -1.059,-0.524 -1.421,-1.093 -0.628,-1.026 -0.705,-2.472 -0.705,-4.184 0,-1.714 0.077,-3.151 0.705,-3.829 0.362,-0.373 0.809,-0.496 1.421,-0.32 0.617,0.175 1.083,0.558 1.439,1.132 0.634,1.021 0.703,2.486 0.703,4.186 C 0.703,-2.07 0.634,-0.679 0,0 m 2.381,-9.639 c -0.756,-1.281 -2.006,-2.592 -3.82,-3.125 -1.815,-0.542 -3.038,0.051 -3.795,0.911 -1.113,1.243 -1.391,3.051 -1.391,6.085 0,3.009 0.278,4.967 1.391,6.818 0.757,1.273 1.98,2.541 3.795,2.994 C 0.375,4.496 1.625,3.869 2.381,2.996 3.487,1.761 3.772,0 3.772,-2.924 c 0,-2.951 -0.285,-4.875 -1.391,-6.715" style="fill:#231f20;fill-opacity:1;fill-rule:nonzero;stroke:none" id="path524"></path>
              </g>
              <g id="g526" transform="translate(285.522,281.4482)">
                <path d="M 0,0 -2.772,-0.854 V -5.858 L 0,-4.952 c 1.209,0.388 1.783,1.7 1.783,3.049 C 1.783,-0.547 1.209,0.365 0,0 M -0.171,8.136 -2.772,7.404 V 2.72 l 2.601,0.769 c 1.131,0.331 1.759,1.443 1.759,2.829 0,1.377 -0.628,2.127 -1.759,1.818 m 0.439,-16.511 -5.706,-1.93 V 10.238 L 0.042,11.7 C 2.701,12.411 4.248,10.648 4.248,7.249 4.248,5.042 3.254,3.328 2.565,2.643 3.393,2.329 4.441,1.394 4.441,-1.253 c 0,-3.706 -1.74,-6.307 -4.173,-7.122" style="fill:#231f20;fill-opacity:1;fill-rule:nonzero;stroke:none" id="path528"></path>
              </g>
              <g id="g530" transform="translate(297.5459,283.0098)">
                <path d="m 0,0 -1.97,-0.627 c -0.902,-0.278 -1.401,-1.041 -1.401,-2.058 0,-0.99 0.46,-1.5 1.436,-1.177 0.689,0.226 1.126,0.456 1.576,1.19 C -0.097,-2.232 0,-1.63 0,-0.757 Z m 0.058,-5.946 v 1.217 c -0.666,-1.176 -1.304,-1.795 -2.452,-2.184 -1.128,-0.384 -1.947,-0.246 -2.543,0.412 -0.536,0.62 -0.828,1.688 -0.828,2.967 0,2.295 1.1,4.513 3.413,5.221 L 0,2.413 V 3.12 C 0,4.665 -0.537,5.183 -1.856,4.788 -2.811,4.504 -3.254,4.047 -3.771,3.037 l -1.586,1.771 c 0.971,1.824 1.927,2.535 3.598,3.013 2.794,0.8 4.249,-0.448 4.249,-3.728 v -9.217 z" style="fill:#231f20;fill-opacity:1;fill-rule:nonzero;stroke:none" id="path532"></path>
              </g>
              <g id="g534" transform="translate(305.9893,279.7324)">
                <path d="m 0,0 c -1.57,-0.527 -2.986,-0.766 -4.248,0.566 l 1.627,2.795 C -1.8,2.492 -0.726,2.684 0.039,2.935 0.904,3.216 1.802,3.901 1.802,4.922 1.802,5.595 1.532,5.981 0.75,5.84 L -0.821,5.556 c -1.8,-0.335 -2.909,0.406 -2.909,2.965 0,2.883 1.815,4.944 3.846,5.529 1.545,0.44 2.853,0.447 3.81,-0.492 L 2.397,10.995 c -0.58,0.535 -1.459,0.486 -2.32,0.231 -0.993,-0.3 -1.416,-1.058 -1.416,-1.743 0,-0.503 0.154,-1.032 1.034,-0.875 L 1.262,8.88 C 3.239,9.224 4.23,8.111 4.23,5.833 4.23,2.857 2.355,0.8 0,0" style="fill:#231f20;fill-opacity:1;fill-rule:nonzero;stroke:none" id="path536"></path>
              </g>
              <g id="g538" transform="translate(318.3008,284.0527)">
                <path d="M 0,0 -2.448,4.663 -3.5,2.755 v -3.94 L -5.992,-2.026 V 16.245 L -3.5,16.911 V 6.641 l 3.306,6.363 3.008,0.86 -3.559,-6.299 3.828,-6.531 z" style="fill:#231f20;fill-opacity:1;fill-rule:nonzero;stroke:none" id="path540"></path>
              </g>
              <g id="g542" transform="translate(328.3936,296.2451)">
                <path d="m 0,0 c -0.269,0.669 -0.827,1.057 -1.669,0.804 -0.845,-0.252 -1.398,-0.973 -1.67,-1.805 -0.148,-0.514 -0.207,-0.873 -0.219,-1.442 l 3.786,1.162 C 0.207,-0.734 0.155,-0.412 0,0 m -3.558,-4.614 c 0,-1.641 0.777,-2.578 2.173,-2.124 1.094,0.357 1.63,0.925 2.265,1.92 l 1.514,-1.349 c -1.018,-1.607 -1.997,-2.629 -3.798,-3.237 -2.352,-0.796 -4.613,-0.182 -4.613,5.022 0,4.196 1.767,7.069 4.348,7.804 2.776,0.793 4.345,-1.279 4.345,-4.688 v -1.379 z" style="fill:#231f20;fill-opacity:1;fill-rule:nonzero;stroke:none" id="path544"></path>
              </g>
              <g id="g546" transform="translate(336.4863,290.1914)">
                <path d="m 0,0 c -2.024,-0.685 -2.888,0.789 -2.888,2.536 v 6.076 l -1.051,-0.31 v 2.342 l 1.051,0.3 v 3.626 l 2.489,0.679 v -3.59 L 1.36,12.166 V 9.879 L -0.399,9.352 V 3.526 c 0,-0.703 0.271,-1.009 0.86,-0.814 L 1.36,3.002 V 0.46 Z" style="fill:#231f20;fill-opacity:1;fill-rule:nonzero;stroke:none" id="path548"></path>
              </g>
              <g id="g550" transform="translate(344.2832,302.0508)">
                <path d="m 0,0 c -1.495,-0.447 -1.688,-1.954 -1.688,-3.878 0,-1.932 0.193,-3.342 1.688,-2.851 1.495,0.485 1.683,2 1.683,3.902 C 1.683,-0.933 1.495,0.44 0,0 M 3.158,-7.25 C 2.601,-8.081 1.705,-8.785 0.728,-9.116 -0.329,-9.472 -1.074,-9.388 -1.767,-8.712 v -1.109 l -2.406,-0.815 V 5.68 l 2.485,0.661 v -5.37 c 0.656,1.053 1.397,1.577 2.416,1.863 0.977,0.284 1.873,0.142 2.43,-0.344 0.995,-0.86 1.015,-2.819 1.015,-4.544 0,-1.724 -0.02,-3.717 -1.015,-5.196" style="fill:#231f20;fill-opacity:1;fill-rule:nonzero;stroke:none" id="path552"></path>
              </g>
              <g id="g554" transform="translate(355.8896,301.4395)">
                <path d="m 0,0 -1.977,-0.62 c -0.899,-0.29 -1.4,-0.917 -1.4,-1.722 0,-0.783 0.459,-1.151 1.436,-0.836 0.69,0.228 1.133,0.439 1.573,1.052 C -0.104,-1.764 0,-1.285 0,-0.598 Z m 0.053,-4.678 v 0.96 c -0.673,-0.97 -1.304,-1.507 -2.453,-1.897 -1.125,-0.382 -1.948,-0.335 -2.545,0.141 -0.534,0.46 -0.826,1.286 -0.826,2.294 0,1.818 1.094,3.646 3.411,4.361 L 0,1.901 V 2.455 C 0,3.671 -0.543,4.046 -1.857,3.659 -2.817,3.37 -3.26,2.982 -3.778,2.153 l -1.584,1.299 c 0.97,1.507 1.934,2.128 3.595,2.605 2.796,0.797 4.252,-0.102 4.252,-2.673 v -7.243 z" style="fill:#231f20;fill-opacity:1;fill-rule:nonzero;stroke:none" id="path556"></path>
              </g>
              <g id="g558" transform="translate(363.8672,299.4365)">
                <path d="m 0,0 c -2.051,-0.686 -2.911,0.583 -2.911,2.129 v 11.743 l 2.49,0.659 V 3.093 c 0,-0.64 0.253,-0.887 0.887,-0.679 L 1.42,2.725 V 0.479 Z" style="fill:#231f20;fill-opacity:1;fill-rule:nonzero;stroke:none" id="path560"></path>
              </g>
              <g id="g562" transform="translate(370.0918,301.5391)">
                <path d="m 0,0 c -2.045,-0.695 -2.912,0.534 -2.912,2.034 v 11.394 l 2.492,0.668 V 2.999 c 0,-0.621 0.252,-0.862 0.883,-0.656 L 1.42,2.66 V 0.48 Z" style="fill:#231f20;fill-opacity:1;fill-rule:nonzero;stroke:none" id="path564"></path>
              </g>
              <g id="g566" transform="translate(381.0449,305.2705)">
                <path d="m 0,0 c -1.288,-0.496 -2.343,-0.37 -3.165,0.268 -1.189,0.937 -1.156,2.662 -1.156,5.022 0,2.362 -0.033,4.061 1.156,5.809 0.822,1.205 1.877,2.056 3.165,2.444 1.5,0.454 2.426,0.142 3.267,-0.521 L 1.753,10.846 C 1.241,11.26 0.827,11.485 0,11.228 -0.627,11.026 -1.119,10.605 -1.449,10.066 -1.896,9.358 -2.025,8.671 -2.025,6.074 -2.025,3.48 -1.896,2.888 -1.449,2.479 -1.119,2.169 -0.627,2.085 0,2.318 0.827,2.625 1.241,3.128 1.753,3.891 L 3.267,2.758 C 2.426,1.52 1.5,0.571 0,0" style="fill:#231f20;fill-opacity:1;fill-rule:nonzero;stroke:none" id="path568"></path>
              </g>
              <g id="g570" transform="translate(388.29,308.1162)">
                <path d="m 0,0 c -1.769,-0.677 -2.51,0.397 -2.51,1.736 v 10.207 l 2.142,0.643 V 2.669 c 0,-0.558 0.221,-0.761 0.761,-0.563 L 1.216,2.417 V 0.466 Z" style="fill:#231f20;fill-opacity:1;fill-rule:nonzero;stroke:none" id="path572"></path>
              </g>
              <g id="g574" transform="translate(395.4404,310.7783)">
                <path d="m 0,0 v 0.814 c -0.562,-0.827 -1.354,-1.434 -2.146,-1.74 -0.856,-0.329 -1.548,-0.301 -2.029,0.02 -0.697,0.473 -0.873,1.261 -0.873,2.259 v 5.835 l 2.15,0.693 V 2.443 c 0,-1.227 0.737,-1.369 1.41,-1.117 0.678,0.253 1.435,0.945 1.435,2.142 V 8.807 L 2.096,9.498 V 0.803 Z" style="fill:#231f20;fill-opacity:1;fill-rule:nonzero;stroke:none" id="path576"></path>
              </g>
              <g id="g578" transform="translate(402.4395,319.9014)">
                <path d="m 0,0 c -1.286,-0.435 -1.451,-1.521 -1.451,-2.896 0,-1.375 0.165,-2.365 1.451,-1.89 1.288,0.477 1.449,1.567 1.449,2.913 C 1.449,-0.53 1.288,0.43 0,0 M 2.724,-4.871 C 2.252,-5.513 1.469,-6.092 0.628,-6.416 -0.276,-6.761 -0.922,-6.768 -1.52,-6.348 V -7.143 L -3.596,-7.938 V 3.745 l 2.145,0.648 v -3.83 c 0.562,0.799 1.206,1.228 2.079,1.51 0.841,0.276 1.624,0.242 2.096,-0.059 0.862,-0.526 0.874,-1.91 0.874,-3.128 0,-1.216 -0.012,-2.622 -0.874,-3.757" style="fill:#231f20;fill-opacity:1;fill-rule:nonzero;stroke:none" id="path580"></path>
              </g>
            </g>
          </g>
        </g>
      </g>
    </g>
  </g>
</svg>
