
<svg id="master-artboard" viewBox="0 0 1284.936767578125 419.3720397949219" version="1.1" xmlns="http://www.w3.org/2000/svg" x="0px" y="0px" style="enable-background:new 0 0 1400 980" width="1284.936767578125px" height="419.3720397949219px"><defs><style id="ee-google-fonts">@import url(https://fonts.googleapis.com/css?family=Anton:400|Roboto+Slab:100,300,400,700);</style><path id="text-path-0" d="M 778.8464965820312 213.4612274169922 A 100 18 0 0 1 988.3533935546875 213.4612274169922 A 100 18 0 0 1 778.8464965820312 213.4612274169922 Z" style="fill:none;stroke:red;stroke-width:2"></path><path id="text-path-1" d="M 664.5464477539062 37.96122741699219 A 100 19 0 0 1 876.5812377929688 37.96122741699219 A 100 19 0 0 1 664.5464477539062 37.96122741699219" style="fill:none;stroke:red;stroke-width:2"></path><path id="text-path-2" d="M 765.3650512695312 211.70851135253906 A 100 17 0 0 1 991.5017700195312 211.70851135253906 A 100 17 0 0 1 765.3650512695312 211.70851135253906" style="fill:none;stroke:red;stroke-width:2"></path><path id="path-1" d="M 765.3650512695312 211.70851135253906 A 100 17 0 0 1 991.5017700195312 211.70851135253906 A 100 17 0 0 1 765.3650512695312 211.70851135253906" style="fill:none;stroke:red;stroke-width:2"></path><clipPath clipPathUnits="userSpaceOnUse" id="clipPath23"><path d="M 0,841.89 H 595.28 V 0 H 0 Z" id="path21"></path></clipPath></defs><rect id="ee-background" x="0" y="0" width="1284.936767578125" height="419.3720397949219" style="fill:rgb(0, 43, 255);fill-opacity:0;pointer-events:none"></rect>


<path d="M 880.3870239257812 239.90606689453125" style="fill:rgb(63, 61, 61);fill-opacity:1;stroke:rgb(0, 0, 0);stroke-opacity:1;stroke-width:0" transform="matrix(1, 0, 0, 1, 0, 51.411295890808105)"></path><path d="M 864.144775390625 229.48651123046875" style="fill:rgb(63, 61, 61);fill-opacity:1;stroke:rgb(0, 0, 0);stroke-opacity:1;stroke-width:0" transform="matrix(1, 0, 0, 1, 0, 51.411295890808105)"></path><g transform="matrix(2.0636444091796875, 0, 0, 2.0636444091796875, -166.0178985595703, -770.2263307571411)"><g id="g15" transform="matrix(1.3333333,0,0,-1.3333333,0,1122.52)"><g id="g17"><g id="g19" clip-path="url(#clipPath23)"><g id="g25" transform="translate(159.1143,420.6904)"><path d="m 0,0 v -1.427 c 0,-0.609 0.104,-1.094 0.313,-1.46 0.211,-0.355 0.602,-0.535 1.181,-0.535 0.485,0 0.86,0.143 1.136,0.424 0.272,0.285 0.407,0.637 0.407,1.066 0,0.712 -0.256,1.334 -0.774,1.867 C 1.755,0.477 0.96,1.126 -0.099,1.883 -0.18,1.945 -0.31,2.044 -0.484,2.172 c -0.255,0.21 -0.45,0.374 -0.581,0.475 -0.515,0.405 -0.932,0.755 -1.254,1.05 -0.323,0.283 -0.612,0.616 -0.882,0.987 -0.261,0.368 -0.469,0.795 -0.626,1.28 -0.149,0.498 -0.228,1.051 -0.228,1.68 0,1.856 0.488,3.216 1.459,4.096 0.973,0.869 2.377,1.306 4.214,1.306 1.876,0 3.273,-0.417 4.184,-1.271 C 6.705,10.916 7.16,9.728 7.16,8.207 V 6.462 H 3.013 V 7.5 C 3.013,8.129 2.919,8.641 2.736,9.039 2.551,9.432 2.175,9.63 1.618,9.63 1.152,9.63 0.778,9.5 0.504,9.236 0.231,8.982 0.091,8.627 0.091,8.182 0.091,7.699 0.377,7.188 0.937,6.644 1.499,6.106 2.348,5.423 3.471,4.584 L 3.786,4.344 C 3.962,4.2 4.22,3.98 4.555,3.697 5.057,3.306 5.454,2.966 5.753,2.681 6.047,2.388 6.333,2.034 6.594,1.618 6.859,1.2 7.074,0.701 7.235,0.123 7.395,-0.454 7.478,-1.139 7.478,-1.932 7.478,-2.441 7.372,-2.984 7.16,-3.54 6.955,-4.111 6.613,-4.644 6.148,-5.15 5.684,-5.648 5.057,-6.061 4.268,-6.376 3.478,-6.695 2.539,-6.851 1.447,-6.851 c -1.05,0 -1.939,0.144 -2.678,0.434 -0.739,0.295 -1.338,0.679 -1.789,1.16 -0.448,0.483 -0.773,0.997 -0.976,1.541 -0.197,0.547 -0.3,1.103 -0.3,1.643 l 0,2.073 z" style="fill:#231916;fill-opacity:1;fill-rule:nonzero;stroke:none" id="path27"></path></g><g id="g29" transform="translate(178.0459,433.4316)"><path d="M 0,0 H 9.87 V -3.72 H 4.442 v -3.835 h 4.745 v -3.712 H 4.442 v -4.299 h 5.643 v -3.709 H 0 Z" style="fill:#231916;fill-opacity:1;fill-rule:nonzero;stroke:none" id="path31"></path></g><g id="g33" transform="translate(204.1968,419.0225)"><path d="m 0,0 c 0,-0.192 0.007,-0.374 0.023,-0.554 0.015,-0.175 0.059,-0.361 0.147,-0.553 0.078,-0.189 0.205,-0.35 0.388,-0.467 0.172,-0.124 0.413,-0.18 0.721,-0.18 0.304,0 0.542,0.056 0.721,0.18 0.177,0.117 0.307,0.278 0.388,0.467 0.08,0.192 0.125,0.378 0.143,0.553 0.016,0.18 0.022,0.362 0.022,0.554 V 9.531 C 2.553,9.78 2.547,9.985 2.531,10.165 2.513,10.337 2.468,10.516 2.388,10.689 2.307,10.871 2.177,11.013 2,11.126 1.821,11.236 1.583,11.298 1.279,11.298 0.971,11.298 0.73,11.236 0.558,11.126 0.375,11.013 0.248,10.871 0.17,10.689 0.082,10.516 0.038,10.337 0.023,10.165 0.007,9.985 0,9.78 0,9.531 Z m -4.438,9.139 c 0,1.823 0.522,3.211 1.562,4.157 1.05,0.945 2.43,1.418 4.155,1.418 1.717,0 3.101,-0.473 4.148,-1.418 C 6.474,12.35 6.998,10.962 6.998,9.139 V 0.39 c 0,-1.713 -0.519,-3.084 -1.544,-4.075 -1.035,-1.002 -2.425,-1.498 -4.175,-1.498 -1.754,0 -3.144,0.496 -4.174,1.498 -1.031,0.991 -1.543,2.362 -1.543,4.075 z" style="fill:#231916;fill-opacity:1;fill-rule:nonzero;stroke:none" id="path35"></path></g><g id="g37" transform="translate(222.8198,433.4316)"><path d="m 0,0 h 4.436 v -14.068 c 0,-0.675 0.067,-1.169 0.205,-1.479 0.138,-0.319 0.498,-0.474 1.074,-0.474 0.583,0 0.936,0.155 1.073,0.474 0.135,0.31 0.203,0.804 0.203,1.479 V 0 h 4.446 v -14.02 c 0,-1.712 -0.521,-3.084 -1.554,-4.074 -1.029,-1.002 -2.416,-1.498 -4.168,-1.498 -1.752,0 -3.142,0.496 -4.174,1.498 C 0.518,-17.104 0,-15.732 0,-14.02 Z" style="fill:#231916;fill-opacity:1;fill-rule:nonzero;stroke:none" id="path39"></path></g><g id="g41" transform="translate(245.8755,433.4316)"><path d="m 0,0 h 4.444 v -15.566 h 4.819 v -3.709 H 0 Z" style="fill:#231916;fill-opacity:1;fill-rule:nonzero;stroke:none" id="path43"></path></g><g id="g45" transform="translate(282.6602,420.6904)"><path d="m 0,0 v -1.427 c 0,-0.609 0.108,-1.094 0.32,-1.46 0.205,-0.355 0.598,-0.535 1.181,-0.535 0.479,0 0.857,0.143 1.134,0.424 0.267,0.285 0.404,0.637 0.404,1.066 0,0.712 -0.255,1.334 -0.768,1.867 -0.513,0.542 -1.3,1.191 -2.362,1.948 -0.081,0.062 -0.215,0.161 -0.384,0.289 -0.264,0.21 -0.456,0.374 -0.583,0.475 -0.511,0.405 -0.934,0.755 -1.251,1.05 -0.328,0.283 -0.622,0.616 -0.884,0.987 -0.265,0.368 -0.477,0.795 -0.623,1.28 -0.16,0.498 -0.231,1.051 -0.231,1.68 0,1.856 0.485,3.216 1.456,4.096 0.97,0.869 2.38,1.306 4.21,1.306 1.885,0 3.279,-0.417 4.188,-1.271 C 6.711,10.916 7.171,9.728 7.171,8.207 V 6.462 H 3.02 V 7.5 C 3.02,8.129 2.928,8.641 2.739,9.039 2.557,9.432 2.185,9.63 1.619,9.63 1.153,9.63 0.785,9.5 0.511,9.236 0.238,8.982 0.101,8.627 0.101,8.182 0.101,7.699 0.381,7.188 0.944,6.644 1.501,6.106 2.355,5.423 3.472,4.584 L 3.791,4.344 C 3.974,4.2 4.221,3.98 4.566,3.697 5.062,3.306 5.459,2.966 5.758,2.681 6.051,2.388 6.338,2.034 6.601,1.618 6.865,1.2 7.08,0.701 7.239,0.123 7.398,-0.454 7.48,-1.139 7.48,-1.932 7.48,-2.441 7.376,-2.984 7.171,-3.54 6.959,-4.111 6.62,-4.644 6.155,-5.15 5.69,-5.648 5.062,-6.061 4.27,-6.376 3.485,-6.695 2.541,-6.851 1.45,-6.851 c -1.046,0 -1.941,0.144 -2.678,0.434 -0.739,0.295 -1.334,0.679 -1.787,1.16 -0.443,0.483 -0.778,0.997 -0.97,1.541 -0.204,0.547 -0.303,1.103 -0.303,1.643 l 0,2.073 z" style="fill:#231916;fill-opacity:1;fill-rule:nonzero;stroke:none" id="path47"></path></g><g id="g49" transform="translate(306.1348,421.0088)"><path d="M 0,0 H 2.219 L 1.183,9.429 H 1.137 Z m -1.783,12.423 h 5.89 L 7.721,-6.853 H 3.062 l -0.41,3.431 h -3.111 l -0.455,-3.431 h -4.439 z" style="fill:#231916;fill-opacity:1;fill-rule:nonzero;stroke:none" id="path51"></path></g><g id="g53" transform="translate(324.7813,433.4316)"><path d="m 0,0 h 6.998 l 1.25,-9.559 H 8.3 L 9.551,0 h 6.998 V -19.275 H 12.254 V -4.3 H 12.201 L 9.721,-19.275 H 6.828 L 4.341,-4.3 H 4.292 V -19.275 H 0 Z" style="fill:#231916;fill-opacity:1;fill-rule:nonzero;stroke:none" id="path55"></path></g><g id="g57" transform="translate(357.2012,420.6904)"><path d="m 0,0 v -1.427 c 0,-0.609 0.107,-1.094 0.316,-1.46 0.205,-0.355 0.598,-0.535 1.181,-0.535 0.483,0 0.86,0.143 1.131,0.424 0.272,0.285 0.413,0.637 0.413,1.066 0,0.712 -0.257,1.334 -0.778,1.867 -0.511,0.542 -1.296,1.191 -2.359,1.948 -0.077,0.062 -0.211,0.161 -0.383,0.289 -0.264,0.21 -0.457,0.374 -0.586,0.475 -0.511,0.405 -0.928,0.755 -1.25,1.05 -0.324,0.283 -0.62,0.616 -0.88,0.987 -0.27,0.368 -0.479,0.795 -0.628,1.28 -0.154,0.498 -0.229,1.051 -0.229,1.68 0,1.856 0.486,3.216 1.464,4.096 0.963,0.869 2.369,1.306 4.203,1.306 1.885,0 3.28,-0.417 4.188,-1.271 C 6.715,10.916 7.164,9.728 7.164,8.207 V 6.462 H 3.016 V 7.5 C 3.016,8.129 2.92,8.641 2.738,9.039 2.553,9.432 2.182,9.63 1.615,9.63 1.149,9.63 0.781,9.5 0.512,9.236 0.234,8.982 0.098,8.627 0.098,8.182 0.098,7.699 0.375,7.188 0.94,6.644 1.504,6.106 2.352,5.423 3.471,4.584 L 3.787,4.344 C 3.965,4.2 4.221,3.98 4.559,3.697 5.057,3.306 5.453,2.966 5.754,2.681 6.051,2.388 6.33,2.034 6.6,1.618 6.86,1.2 7.078,0.701 7.235,0.123 7.395,-0.454 7.473,-1.139 7.473,-1.932 7.473,-2.441 7.375,-2.984 7.164,-3.54 6.951,-4.111 6.616,-4.644 6.151,-5.15 5.689,-5.648 5.057,-6.061 4.269,-6.376 3.484,-6.695 2.537,-6.851 1.448,-6.851 c -1.048,0 -1.94,0.144 -2.682,0.434 -0.737,0.295 -1.332,0.679 -1.782,1.16 -0.449,0.483 -0.779,0.997 -0.973,1.541 -0.205,0.547 -0.304,1.103 -0.304,1.643 V 0 Z" style="fill:#231916;fill-opacity:1;fill-rule:nonzero;stroke:none" id="path59"></path></g><g id="g61" transform="translate(376.1328,433.4316)"><path d="m 0,0 h 4.439 v -14.068 c 0,-0.675 0.067,-1.169 0.207,-1.479 0.137,-0.319 0.497,-0.474 1.076,-0.474 0.573,0 0.93,0.155 1.067,0.474 0.141,0.31 0.209,0.804 0.209,1.479 V 0 h 4.439 v -14.02 c 0,-1.712 -0.515,-3.084 -1.548,-4.074 -1.026,-1.002 -2.412,-1.498 -4.167,-1.498 -1.755,0 -3.146,0.496 -4.175,1.498 C 0.518,-17.104 0,-15.732 0,-14.02 Z" style="fill:#231916;fill-opacity:1;fill-rule:nonzero;stroke:none" id="path63"></path></g><g id="g65" transform="translate(399.1943,433.4316)"><path d="M 0,0 H 4.853 L 8.421,-11.367 H 8.47 V 0 h 4.295 V -19.275 H 7.938 L 4.345,-7.362 H 4.302 V -19.275 H 0 Z" style="fill:#231916;fill-opacity:1;fill-rule:nonzero;stroke:none" id="path67"></path></g><g id="g69" transform="translate(423.5781,428.1611)"><path d="m 0,0 c 0,1.823 0.523,3.211 1.575,4.157 1.045,0.946 2.427,1.418 4.152,1.418 0.794,0 1.541,-0.074 2.214,-0.236 0.674,-0.157 1.28,-0.425 1.811,-0.799 0.527,-0.371 0.941,-0.863 1.236,-1.466 0.301,-0.619 0.45,-1.358 0.45,-2.22 V -1.294 H 7.219 v 1.936 c 0,0.49 -0.117,0.87 -0.342,1.124 C 6.658,2.029 6.3,2.159 5.812,2.159 5.545,2.159 5.314,2.091 5.131,1.979 4.945,1.854 4.803,1.703 4.711,1.531 4.613,1.349 4.545,1.156 4.503,0.958 4.461,0.761 4.447,0.565 4.447,0.393 v -9.532 c 0,-0.192 0.003,-0.374 0.017,-0.553 0.019,-0.176 0.068,-0.362 0.149,-0.554 0.078,-0.189 0.205,-0.35 0.385,-0.467 0.182,-0.124 0.416,-0.18 0.729,-0.18 0.948,0 1.419,0.48 1.419,1.442 v 2.484 H 5.577 v 3.576 h 5.861 V -14.005 H 7.557 v 1.563 H 7.506 c -0.404,-0.642 -0.877,-1.12 -1.428,-1.416 -0.544,-0.308 -1.204,-0.463 -2.002,-0.463 -0.765,0 -1.42,0.15 -1.947,0.45 -0.531,0.296 -0.951,0.698 -1.26,1.213 -0.301,0.512 -0.521,1.1 -0.662,1.765 C 0.077,-10.239 0,-9.52 0,-8.749 Z" style="fill:#231916;fill-opacity:1;fill-rule:nonzero;stroke:none" id="path71"></path></g><g id="g73" transform="translate(435.4863,457.8154)"><path d="m 0,0 -2.902,-1.822 -2.647,2.175 c -3.24,2.696 -8.226,5.28 -13.189,8.261 -4.92,3.022 -10.09,6.482 -13.227,12.236 l -0.053,0.089 -0.025,0.062 c -2.253,4.634 -4.152,10.473 -4.197,10.583 l -1.41,4.249 h -9.776 c 0.936,-3.126 1.645,-5.452 1.857,-6.043 l 2.409,-6.923 V 12.433 H -73.746 C -76.781,10.118 -79.881,9.088 -82,8.087 -83.531,7.403 -84.508,6.771 -84.805,6.423 l -3.933,-4.119 -3.752,4.295 c -1.426,1.634 -3.177,2.693 -5.526,3.965 -0.989,0.551 -2.113,1.154 -3.265,1.869 h -23.815 c -0.106,-0.101 -0.204,-0.195 -0.314,-0.292 -2.395,-2.165 -5.559,-3.038 -8.36,-3.005 -1.839,0 -3.614,0.305 -5.376,0.766 l -0.16,0.044 -0.159,0.055 c -1.69,0.534 -3.172,1.395 -4.468,2.432 h -28.475 -19.786 c -3.78,-3.916 -10.029,-8.807 -20.155,-13.371 l -6.514,-2.949 c 1.1,5.103 -2.601,9.854 -2.601,9.854 -0.304,0.511 -1.691,1.818 -3.432,3.295 -0.347,0.309 -0.718,0.634 -1.091,0.977 h -28.637 c -0.782,-0.897 -1.644,-1.657 -2.507,-2.32 -1.875,-1.43 -3.869,-2.472 -5.712,-3.285 -3.128,-1.377 -5.864,-2.105 -6.728,-2.33 L -269.586,2.3 c -0.122,-0.039 -0.31,-0.111 -0.558,-0.203 0,0 -8.143,-3.668 -7.916,-10.164 l -5.633,4.385 c -17.963,18.763 -13.956,37.243 -11.555,42.245 0.008,0.012 0.81,2.184 2.676,5.35 -27.598,-5.936 -78.419,29.612 -78.419,29.612 v 10.44 c 52.065,-11.902 90.665,-9.01 90.665,-9.01 h 0.507 c 1.889,4.754 4.505,11.342 4.516,11.35 l 1.308,3.287 h 25.301 l -0.01,-0.015 c 0,0 18.071,3.067 27.905,11.979 l -5.757,-13.527 c -0.972,-2.284 -1.929,-4.666 -2.858,-7.053 0.542,0.052 1.1,0.073 1.678,0.073 0.935,0.024 1.86,-0.073 2.758,-0.275 l 61.369,-0.26 c 2.158,0.752 4.378,1.113 6.557,1.123 l 0.046,0.007 h 0.084 c 4.236,0.065 8.187,-1.925 10.44,-4.908 0.471,-0.602 0.882,-1.224 1.237,-1.869 0.144,0.196 0.296,0.374 0.453,0.567 1.736,2.054 4.37,3.653 7.235,4.168 1.039,0.203 2.059,0.309 3.051,0.302 1.795,0.017 3.475,-0.337 4.992,-0.893 -0.004,0.688 -0.006,1.363 -0.006,2.004 0,1.423 0.01,2.698 0.045,3.728 l 0.141,4.175 4.109,0.771 c 1.491,0.281 2.207,0.424 3.676,1.033 1.455,0.612 3.651,1.778 7.226,4.045 l 8.287,5.273 -0.29,-9.823 c -0.058,-1.863 -0.084,-6.721 -0.087,-12.753 1.565,1.135 3.399,2.017 5.405,2.527 1.772,0.613 3.537,0.808 5.65,0.828 3.661,-0.014 8.284,-0.807 12.768,-3.214 l -0.834,2.999 h 23.27 l 0.22,-0.908 c 1.655,0.537 3.401,0.786 5.192,0.801 1.465,0 2.963,-0.185 4.471,-0.53 l 0.241,-0.063 0.241,-0.078 c 2.571,-0.905 4.695,-2.306 6.473,-3.992 0.345,0.703 0.753,1.391 1.244,2.048 1.941,2.635 5.129,4.384 8.561,4.868 1.814,0.275 3.747,0.437 5.761,0.437 6.268,0 13.471,-1.526 20.342,-5.757 1.096,-0.661 2.095,-1.393 2.969,-2.114 1.248,-0.016 2.537,-0.024 3.861,-0.018 0,0 58.855,-0.343 89.911,8.872 V 73.737 c 0,0 -37.715,-25.819 -79.301,-29.372 0,0 4.874,-9.86 6.467,-13.999 C 18.098,26.229 22.709,15.446 0,0" style="fill:#231916;fill-opacity:1;fill-rule:nonzero;stroke:none" id="path75"></path></g><g id="g77" transform="translate(436.3223,505.2871)"><path d="m 0,0 c -3.79,3.08 -7.899,5.246 -15.057,8.912 -4.389,2.633 -11.189,4.863 -12.162,10.017 -0.548,2.862 2.125,3.393 4.852,2.901 5.239,-1.879 5.669,-6.102 6.926,-8.902 4.08,-1.613 9.928,-3.313 11.84,-0.197 0.74,0.98 0.951,2.625 0.13,4.677 0,0 -0.121,0.29 -0.355,0.739 6.701,-0.316 7.252,-4.189 8.717,-5.9 19.805,1.779 39.835,5.383 58.461,15.614 C 45.78,24.41 13.373,22.205 -7.291,22.685 c -0.865,0.822 -2.402,2.095 -3.688,2.835 -7.859,4.845 -16.191,5.586 -22.568,4.614 -6.535,-1.003 -7.853,-6.852 -6.057,-13.188 3.465,-12.114 20.353,-16.338 29.474,-23.534 2.491,-1.504 5.047,-7.237 2.122,-8.399 -1.664,-1.176 -4.086,-0.184 -6.078,1.678 -3.059,3.082 -3.234,6.22 -4.91,9.363 l -13.137,0.12 c 0,0 1.914,-5.793 3.93,-9.916 4.517,-8.473 17.314,-12.485 25.133,-18.919 6.959,3.569 13.572,8.291 12.943,13.592 C 9.578,-16.431 5.455,-3.826 0,0 m -151.458,-14.263 2.059,32.01 c 0.589,5.722 -2.11,11.211 -8.359,11.211 -4.257,-0.104 -7.702,-1.354 -11.39,-5.029 0,0 0.47,2.063 0.824,3.906 h -28.491 l -6,-24.526 c -1.781,-6.489 -3.983,-18.77 -8.451,-20.832 -2.198,2.062 -2.448,3.673 -1.591,7.108 0,0 7.427,30.015 9.527,38.504 h -17.02 c 0,0 3.246,-2.328 2.599,-7.82 -0.342,-2.871 -8.142,-24.639 -10.141,-34.076 -1.387,-6.477 7.096,-10.164 9.911,-14.362 1.176,-1.75 2.431,-3.173 2.652,-5.061 19.276,8.743 22.72,17.996 22.72,17.996 0,0 3.554,22.443 7.581,37.439 1.158,2.595 2.422,4.549 4.643,5.347 -2.134,-13.618 -8.27,-46.949 -8.27,-46.949 h 14.121 c 1.86,12.181 2.98,18.831 4.986,32.678 0.364,1.692 1.387,3.149 3.777,2.87 1.931,-0.241 3.11,-1.83 2.843,-3.672 -1.688,-10.359 -3.141,-21.17 -4.437,-31.876 h 19.588 c -3.852,1.293 -3.681,5.134 -3.681,5.134 m 99.163,41.685 c -5.511,1.296 -10.555,-0.724 -11.492,-4.683 -0.43,1.671 -0.879,3.376 -1.31,5.194 h -12.309 c 3.224,-11.583 8.125,-36.183 11.326,-47.33 h 14.758 c -0.981,2.798 -7.535,25.251 -9.815,33.598 -0.287,4.761 3.95,4.728 5.516,2.149 2.238,-6.272 3.025,-7.014 4.836,-12.35 h 12.94 c -2.442,7.898 -6.072,20.582 -14.45,23.422 m -42.594,-6.045 c 1.105,0.597 3.641,0.311 4.119,-2.253 0.493,-3.217 0.727,-5.665 0.822,-8.697 h -6.406 c -0.387,3.589 -0.772,9.508 1.465,10.95 m 6.295,-22.278 c 0.162,-2.457 0.934,-8.259 0.339,-10.861 -0.499,-2.13 -0.987,-2.752 -2.808,-2.86 -4.61,0.73 -4.747,18.646 -4.747,18.646 7.003,0.024 12.492,-0.064 19.734,0 -0.607,6.562 -1.603,14.628 -5.192,18.152 -6.652,6.508 -16.04,6.565 -19.062,5.359 -5.91,-1.491 -7.945,-6.066 -8.477,-11.511 -0.787,-8.118 0.219,-17.828 3.026,-27.952 2.65,-9.446 10.746,-8.645 16.38,-15.084 5.525,5.79 21.202,3.177 14.223,26.111 -5.593,-0.18 -9.762,0.064 -13.416,0 m -184.787,-23.013 c 0,0 -8.097,1.592 -4.61,10.476 l 11.252,26.44 h 9.314 z m 44.809,52.283 c -4.048,0 -6.438,-2.149 -7.65,-3.212 -1.749,-1.424 -1.999,-1.424 -4.655,-4.528 2.483,5.842 5.463,14.371 8.696,21.972 -6.498,-3.451 -9.267,-3.929 -14.751,-5.238 l -4.761,-11.729 c -4.161,0 -5.273,0 -9.953,-0.114 1.938,4.748 4.52,11.389 4.52,11.389 h -14.172 c 0,0 -3.716,-9.33 -5.5,-13.808 l -0.333,-0.821 c -3.959,-0.013 -25.414,-0.055 -34.903,0.482 -14.835,0.84 -36.859,4.165 -36.859,4.165 10.274,-4.559 20.941,-9.535 37.081,-13.042 18.502,-5.117 26.404,2.298 26.404,2.298 0,0 3.745,3.821 5.426,2.635 0.429,-0.297 0.966,-0.485 0.833,-1.505 l -0.566,-1.393 c -4.561,-9.681 -11.545,-26.803 -11.545,-26.803 0,0 -5.59,-13.624 9.932,-25.721 1.613,4.39 9.463,6.877 9.463,6.877 0,0 11.615,2.715 13.839,8.532 0,0 9.877,22.866 13.648,33.399 1.716,3.456 4.654,3.352 4.654,3.352 0,0 2.669,0.12 1.464,-3.917 -3.114,-7.693 -7.964,-23.329 -12.091,-33.232 h 14.242 c 4.128,11.32 9.934,28.916 13.494,38.342 1.514,4.015 0.894,11.62 -5.957,11.62 m 102.459,-18.298 -0.366,-15.086 c -0.337,-5.861 -4.193,-4.953 -4.193,-4.953 -3.035,0.583 -2.605,4.927 -2.605,4.927 l 0.403,15.236 c 0.108,6.696 3.241,6.179 3.241,6.179 3.771,0 3.52,-6.303 3.52,-6.303 m 14.22,-24.281 c -0.513,2.214 -0.68,49.534 -0.468,57.112 -7.399,-4.696 -9.688,-5.233 -12.743,-5.809 -0.125,-3.667 0.071,-12.25 -0.016,-16.175 -1.862,2.742 -3.588,3.925 -4.5,4.458 -2.368,1.495 -4.699,2.247 -7.75,1.644 -7.337,-1.38 -7.751,-11.11 -8.252,-20.257 -0.648,-11.709 -2.588,-25.669 6.973,-28.868 5.903,-1.554 10.234,-0.328 11.965,6.871 0.343,-2.037 0.957,-3.141 2.254,-4.163 h 16.04 c 0,0 -2.413,0.553 -3.503,5.187" style="fill:#fac10b;fill-opacity:1;fill-rule:nonzero;stroke:none" id="path79"></path></g><g id="g81" transform="translate(251.5625,182.0137)"><path d="M 0,0 V 6.236 H -1.984 V 7.848 H 0 v 3.489 H 1.522 V 0 Z M -1.869,2.01 C -2.711,2.541 -3.81,3.585 -4.367,4.819 -4.82,3.585 -5.989,2.395 -6.76,1.897 l -1.124,1.121 c 1.159,0.707 2.689,2.224 2.689,5.038 v 2.678 h 1.612 V 8.056 c 0,-2.814 1.609,-4.202 2.62,-4.832 z" style="fill:#231916;fill-opacity:1;fill-rule:nonzero;stroke:none" id="path83"></path></g><g id="g85" transform="translate(261.2974,191.4463)"><path d="m 0,0 c 0,0.436 -0.933,0.787 -2.306,0.787 -1.382,0 -2.305,-0.337 -2.305,-0.762 0,-0.425 0.875,-0.734 2.305,-0.734 C -0.9,-0.709 0,-0.415 0,0 m 1.701,0.054 c 0,-1.292 -1.509,-2 -4.007,-2 -2.483,0 -4.002,0.723 -4.002,1.984 0,1.159 1.519,1.985 4.002,1.985 2.498,0 4.007,-0.801 4.007,-1.969 M 2.686,-3.801 H -1.453 V -4.534 H 1.496 V -7.498 H -4.37 v -0.545 h 6.102 v -1.26 h -7.838 v 2.975 h 5.868 v 0.557 h -5.868 v 1.237 h 2.986 v 0.733 h -4.176 v 1.338 h 9.982 z" style="fill:#231916;fill-opacity:1;fill-rule:nonzero;stroke:none" id="path87"></path></g><g id="g89" transform="translate(273.2524,189.3828)"><path d="M 0,0 V -2.408 H -1.522 V 3.968 H 0 V 1.483 H 1.314 V 0 Z M -1.51,-4.431 H -5.66 V -5.76 h 4.15 z m -5.672,1.483 H 0 v -4.291 h -7.182 z m 3.951,0.772 c -0.852,0.412 -1.83,1.149 -2.441,2.151 -0.489,-1.002 -1.383,-1.844 -2.327,-2.407 l -1.088,1.171 c 1.327,0.645 2.608,2.176 2.608,3.582 v 1.378 h 1.621 V 2.321 c 0,-1.406 1.35,-2.806 2.543,-3.234 z" style="fill:#231916;fill-opacity:1;fill-rule:nonzero;stroke:none" id="path91"></path></g><g id="g93" transform="translate(282.2358,186.7412)"><path d="M 0,0 V 3.157 H -1.953 V 4.668 H 0 V 6.609 H 1.522 V 0 Z m -2.178,-1.47 c -1.257,0 -2.259,-0.372 -2.259,-0.989 0,-0.592 1.002,-1.07 2.259,-1.07 1.306,0 2.279,0.426 2.279,1.019 0,0.632 -0.973,1.04 -2.279,1.04 m -0.011,-3.401 c -2.416,0 -3.938,0.971 -3.938,2.372 0,1.393 1.522,2.387 3.938,2.387 2.418,0 3.946,-0.98 3.946,-2.387 0,-1.391 -1.507,-2.372 -3.946,-2.372 m 0.205,5.312 C -2.835,0.854 -3.813,1.587 -4.425,2.592 -4.91,1.587 -5.808,0.751 -6.752,0.182 L -7.84,1.354 c 1.328,0.644 2.611,2.178 2.611,3.584 v 1.445 h 1.623 V 4.938 c 0,-1.406 1.349,-2.811 2.54,-3.235 z" style="fill:#231916;fill-opacity:1;fill-rule:nonzero;stroke:none" id="path95"></path></g><g id="g97" transform="translate(292.606,185.1582)"><path d="M 0,0 V 4.598 H -1.35 V 6.097 H 0 V 8.192 H 1.414 V 0 Z m -5.981,-2.888 v 3.625 h 1.531 v -2.14 h 6.106 v -1.485 z m 4.564,4.399 C -1.795,1.775 -2.428,2.423 -2.805,3.26 -3.099,2.472 -3.759,1.775 -4.256,1.442 -4.622,1.675 -5.253,2.343 -5.72,3.26 -5.981,2.589 -6.614,1.869 -7.184,1.442 l -0.964,1.211 c 0.85,0.593 1.681,1.701 1.681,3.739 v 1.546 h 1.484 V 6.392 c 0,-2.038 0.637,-2.643 0.727,-2.771 0.091,0.128 0.716,0.632 0.716,2.771 v 1.546 h 1.486 V 6.392 c 0,-1.857 0.688,-3.004 1.45,-3.544 z" style="fill:#231916;fill-opacity:1;fill-rule:nonzero;stroke:none" id="path99"></path></g><g id="g101" transform="translate(303.9492,182.0137)"><path d="m 0,0 h -1.509 v 5.93 h -2.565 v 1.479 h 2.565 v 3.928 H 0 Z m -2.621,2.81 c -0.057,0 -2.201,-0.363 -3.905,-0.363 h -1.722 v 7.709 h 4.82 V 8.687 H -6.73 V 3.955 h 1 c 0.943,0.014 3.052,0.301 3.109,0.312 z" style="fill:#231916;fill-opacity:1;fill-rule:nonzero;stroke:none" id="path103"></path></g><g id="g105" transform="translate(313.624,186.2695)"><path d="M 0,0 C -1.066,0.344 -2.813,1.568 -3.585,2.882 -4.277,1.608 -5.958,0.409 -7.182,0.011 l -0.985,1.233 c 1.938,0.695 3.742,2.193 3.742,4.216 v 1.096 h 1.68 V 5.46 c 0,-2.023 1.689,-3.416 3.686,-4.216 z M -8.575,-1.512 H 1.407 V -2.98 h -9.982 z" style="fill:#231916;fill-opacity:1;fill-rule:nonzero;stroke:none" id="path107"></path></g><g id="g109" transform="translate(322.5762,184.2314)"><path d="m 0,0 c 0,0.632 -0.955,0.938 -2.329,0.938 -1.37,0 -2.312,-0.306 -2.312,-0.938 0,-0.736 0.93,-1.008 2.312,-1.008 C -0.979,-1.008 0,-0.736 0,0 m 1.745,-0.026 c 0,-1.365 -1.476,-2.346 -4.074,-2.346 -2.585,0 -4.062,0.981 -4.062,2.346 0,1.366 1.465,2.32 4.062,2.32 2.586,0 4.074,-0.954 4.074,-2.32 m 0.919,2.834 h -9.982 v 1.483 h 4.14 v 1.211 h -2.939 v 3.542 h 1.533 V 6.906 H 1.574 V 5.502 H -1.544 V 4.291 h 4.208 z" style="fill:#231916;fill-opacity:1;fill-rule:nonzero;stroke:none" id="path111"></path></g><g id="g113" transform="translate(330.9922,186.6787)"><path d="M 0,0 V -4.665 H -1.565 V 0 H -5.527 V 1.48 H 1.27 C 1.42,2.203 1.68,3.661 1.723,4.667 H -4.481 V 6.146 H 3.427 C 3.427,4.178 2.904,1.934 2.824,1.48 H 4.459 V 0 Z" style="fill:#231916;fill-opacity:1;fill-rule:nonzero;stroke:none" id="path115"></path></g><g id="g117" transform="translate(345.75,188.5596)"><path d="M 0,0 H -1.36 V -3.401 H -2.869 V 4.791 H -1.36 V 1.51 L 0,1.51 Z M -1.069,-6.289 H -8.51 v 3.853 h 1.53 v -2.369 h 5.911 z m -2.495,5.272 c -0.704,-0.142 -2.62,-0.376 -4.092,-0.398 H -9.59 v 5.592 h 5.201 V 2.684 h -3.69 v -2.58 h 1.181 c 0.794,0 2.7,0.218 3.334,0.347 z" style="fill:#231916;fill-opacity:1;fill-rule:nonzero;stroke:none" id="path119"></path></g><g id="g121" transform="translate(345.3271,202.2334)"><path d="m 0,0 -1.044,-0.654 -0.951,0.781 c -1.168,0.972 -2.961,1.901 -4.746,2.974 -1.771,1.086 -3.631,2.331 -4.758,4.4 l -0.02,0.033 -0.007,0.024 c -0.813,1.667 -1.496,3.767 -1.512,3.806 l -0.509,1.529 h -3.516 c 0.337,-1.124 0.591,-1.96 0.667,-2.173 l 0.87,-2.491 V 4.475 H -26.533 C -27.625,3.643 -28.74,3.27 -29.504,2.91 -30.054,2.664 -30.403,2.437 -30.511,2.313 l -1.418,-1.482 -1.347,1.544 c -0.514,0.588 -1.145,0.969 -1.991,1.429 -0.353,0.195 -0.757,0.412 -1.172,0.671 h -8.569 c -0.04,-0.037 -0.075,-0.071 -0.113,-0.106 -0.862,-0.778 -2.001,-1.092 -3.007,-1.082 -0.662,0 -1.302,0.109 -1.934,0.276 l -0.059,0.016 -0.058,0.022 c -0.609,0.19 -1.14,0.501 -1.607,0.874 h -10.245 -7.12 c -1.357,-1.41 -3.608,-3.17 -7.251,-4.811 l -2.344,-1.06 c 0.395,1.834 -0.936,3.543 -0.936,3.543 -0.109,0.185 -0.608,0.656 -1.235,1.186 -0.125,0.112 -0.258,0.228 -0.393,0.352 H -91.613 C -91.894,3.361 -92.203,3.09 -92.514,2.85 -93.188,2.335 -93.907,1.96 -94.567,1.667 -95.694,1.173 -96.679,0.91 -96.991,0.831 L -96.996,0.83 c -0.044,-0.016 -0.111,-0.041 -0.2,-0.074 0,0 -2.93,-1.319 -2.848,-3.656 l -2.025,1.577 c -6.466,6.75 -5.024,13.399 -4.16,15.198 0.003,0.004 0.291,0.787 0.963,1.925 -9.929,-2.136 -28.214,10.655 -28.214,10.655 v 3.757 c 18.734,-4.284 32.622,-3.243 32.622,-3.243 h 0.18 c 0.682,1.712 1.622,4.08 1.625,4.084 l 0.47,1.183 h 9.104 l -0.002,-0.006 c 0,0 6.5,1.104 10.04,4.309 l -2.071,-4.865 c -0.352,-0.822 -0.695,-1.68 -1.03,-2.538 0.195,0.019 0.397,0.027 0.604,0.024 0.336,0.011 0.669,-0.024 0.992,-0.098 l 22.079,-0.091 c 0.778,0.268 1.577,0.4 2.361,0.404 h 0.015 0.033 c 1.522,0.023 2.943,-0.691 3.755,-1.766 0.169,-0.216 0.317,-0.439 0.444,-0.671 0.053,0.069 0.106,0.134 0.165,0.205 0.623,0.738 1.57,1.312 2.601,1.498 0.375,0.074 0.742,0.111 1.099,0.11 0.646,0.004 1.249,-0.123 1.795,-0.322 0,0.248 -0.002,0.491 -0.002,0.72 0,0.513 0.004,0.972 0.016,1.342 l 0.05,1.501 1.481,0.279 c 0.535,0.101 0.793,0.153 1.321,0.371 0.525,0.221 1.316,0.639 2.601,1.456 l 2.982,1.896 -0.103,-3.534 c -0.022,-0.669 -0.032,-2.417 -0.035,-4.587 0.566,0.407 1.225,0.725 1.947,0.907 0.638,0.223 1.273,0.292 2.031,0.299 1.317,-0.006 2.982,-0.289 4.595,-1.156 l -0.3,1.08 h 8.373 l 0.077,-0.328 c 0.595,0.192 1.226,0.284 1.869,0.289 0.527,0 1.068,-0.068 1.608,-0.192 l 0.087,-0.021 0.088,-0.028 c 0.925,-0.327 1.689,-0.831 2.33,-1.437 0.122,0.253 0.27,0.499 0.445,0.737 0.7,0.948 1.847,1.576 3.08,1.751 0.655,0.1 1.351,0.158 2.074,0.158 2.255,0 4.846,-0.549 7.319,-2.072 0.394,-0.238 0.755,-0.501 1.068,-0.76 0.449,-0.006 0.912,-0.008 1.389,-0.007 0,0 21.176,-0.124 32.35,3.191 V 26.53 c 0,0 -13.569,-9.289 -28.533,-10.565 0,0 1.755,-3.55 2.328,-5.037 C 6.513,9.438 8.169,5.558 0,0" style="fill:#231916;fill-opacity:1;fill-rule:nonzero;stroke:none" id="path123"></path></g><g id="g125" transform="translate(345.6279,219.3145)"><path d="m 0,0 c -1.364,1.108 -2.841,1.888 -5.417,3.206 -1.579,0.948 -4.027,1.75 -4.377,3.605 -0.193,1.029 0.767,1.22 1.746,1.044 1.887,-0.676 2.039,-2.197 2.494,-3.205 1.467,-0.579 3.572,-1.19 4.258,-0.069 0.267,0.353 0.342,0.944 0.049,1.682 0,0 -0.043,0.105 -0.131,0.267 C 1.034,6.415 1.233,5.022 1.761,4.405 8.884,5.046 16.091,6.344 22.793,10.024 16.474,8.782 4.813,7.99 -2.622,8.162 c -0.312,0.296 -0.865,0.753 -1.326,1.02 -2.828,1.744 -5.828,2.009 -8.122,1.659 -2.351,-0.361 -2.825,-2.463 -2.181,-4.744 1.248,-4.358 7.324,-5.878 10.606,-8.468 0.898,-0.541 1.817,-2.604 0.764,-3.023 -0.598,-0.421 -1.47,-0.065 -2.186,0.606 -1.102,1.107 -1.165,2.236 -1.768,3.367 l -4.727,0.044 c 0,0 0.69,-2.084 1.416,-3.568 1.624,-3.047 6.229,-4.49 9.041,-6.807 2.504,1.284 4.883,2.984 4.657,4.892 C 3.446,-5.912 1.962,-1.377 0,0 m -54.494,-5.133 0.741,11.519 c 0.212,2.057 -0.757,4.034 -3.005,4.034 -1.533,-0.039 -2.774,-0.489 -4.099,-1.81 0,0 0.168,0.741 0.294,1.405 h -10.25 l -2.159,-8.826 c -0.64,-2.333 -1.43,-6.751 -3.039,-7.495 -0.792,0.744 -0.881,1.323 -0.573,2.559 0,0 2.673,10.799 3.427,13.852 h -6.123 c 0,0 1.167,-0.836 0.934,-2.813 -0.123,-1.033 -2.928,-8.865 -3.649,-12.26 -0.499,-2.329 2.555,-3.657 3.568,-5.167 0.421,-0.629 0.873,-1.141 0.952,-1.821 6.937,3.144 8.176,6.476 8.176,6.476 0,0 1.279,8.074 2.726,13.47 0.418,0.934 0.872,1.636 1.672,1.922 -0.768,-4.898 -2.974,-16.892 -2.974,-16.892 h 5.08 c 0.669,4.383 1.072,6.776 1.792,11.758 0.132,0.61 0.501,1.133 1.359,1.034 0.695,-0.088 1.12,-0.661 1.024,-1.323 -0.607,-3.726 -1.13,-7.615 -1.597,-11.469 h 7.047 c -1.386,0.465 -1.324,1.847 -1.324,1.847 m 35.679,14.998 c -1.983,0.467 -3.797,-0.259 -4.135,-1.683 -0.154,0.6 -0.317,1.214 -0.471,1.868 h -4.43 c 1.163,-4.168 2.922,-13.019 4.078,-17.03 h 5.309 c -0.353,1.008 -2.713,9.086 -3.533,12.088 -0.103,1.714 1.421,1.703 1.984,0.774 0.805,-2.257 1.089,-2.524 1.741,-4.443 h 4.655 c -0.876,2.841 -2.184,7.405 -5.198,8.426 M -34.141,7.692 c 0.398,0.213 1.312,0.112 1.482,-0.812 0.18,-1.157 0.263,-2.038 0.296,-3.128 h -2.302 c -0.143,1.291 -0.28,3.421 0.524,3.94 m 2.267,-8.017 c 0.057,-0.884 0.334,-2.97 0.12,-3.906 -0.181,-0.768 -0.352,-0.991 -1.009,-1.03 -1.66,0.262 -1.709,6.708 -1.709,6.708 2.52,0.008 4.494,-0.022 7.1,0 -0.217,2.363 -0.575,5.263 -1.867,6.53 -2.394,2.342 -5.772,2.364 -6.856,1.929 -2.129,-0.535 -2.86,-2.182 -3.051,-4.14 -0.283,-2.921 0.079,-6.415 1.088,-10.058 0.952,-3.397 3.865,-3.111 5.891,-5.427 1.99,2.083 7.631,1.144 5.118,9.394 -2.013,-0.064 -3.511,0.023 -4.825,0 m -66.487,-8.279 c 0,0 -2.912,0.574 -1.66,3.77 l 4.051,9.513 h 3.35 z m 16.122,18.811 c -1.457,0 -2.314,-0.773 -2.75,-1.155 -0.632,-0.513 -0.722,-0.513 -1.678,-1.629 0.894,2.1 1.966,5.17 3.129,7.904 -2.338,-1.24 -3.334,-1.413 -5.306,-1.884 l -1.715,-4.221 c -1.495,0 -1.896,0 -3.579,-0.04 0.697,1.707 1.626,4.097 1.626,4.097 h -5.1 c 0,0 -1.337,-3.356 -1.979,-4.968 l -0.118,-0.294 c -1.426,-0.006 -9.145,-0.02 -12.559,0.173 -5.337,0.301 -13.262,1.497 -13.262,1.497 3.697,-1.639 7.535,-3.429 13.343,-4.691 6.657,-1.841 9.5,0.826 9.5,0.826 0,0 1.346,1.374 1.95,0.949 0.155,-0.108 0.35,-0.175 0.3,-0.542 l -0.204,-0.5 c -1.64,-3.485 -4.153,-9.643 -4.153,-9.643 0,0 -2.01,-4.904 3.573,-9.256 0.58,1.58 3.405,2.474 3.405,2.474 0,0 4.179,0.977 4.981,3.07 0,0 3.552,8.227 4.909,12.018 0.617,1.242 1.675,1.204 1.675,1.204 0,0 0.959,0.044 0.528,-1.408 -1.122,-2.768 -2.866,-8.394 -4.352,-11.956 h 5.124 c 1.485,4.072 3.575,10.403 4.855,13.794 0.547,1.446 0.322,4.181 -2.143,4.181 m 36.865,-6.583 -0.133,-5.429 c -0.122,-2.108 -1.509,-1.782 -1.509,-1.782 -1.092,0.211 -0.936,1.774 -0.936,1.774 l 0.145,5.482 c 0.039,2.407 1.166,2.222 1.166,2.222 1.357,0 1.267,-2.267 1.267,-2.267 m 5.117,-8.736 c -0.186,0.796 -0.247,17.822 -0.171,20.549 -2.659,-1.691 -3.485,-1.884 -4.584,-2.09 -0.044,-1.321 0.027,-4.409 -0.005,-5.822 -0.67,0.987 -1.291,1.413 -1.62,1.606 -0.851,0.536 -1.69,0.807 -2.786,0.591 -2.642,-0.497 -2.79,-3.998 -2.972,-7.289 -0.232,-4.212 -0.93,-9.237 2.51,-10.385 2.125,-0.562 3.684,-0.12 4.306,2.472 0.122,-0.735 0.345,-1.132 0.81,-1.5 h 5.771 c 0,0 -0.866,0.199 -1.259,1.868" style="fill:#fac10b;fill-opacity:1;fill-rule:nonzero;stroke:none" id="path127"></path></g><g id="g129" transform="translate(489.9805,114.3477)"><path d="m 0,0 c -11.139,-2.775 -37.826,-3.06 -37.826,-3.06 l -9.975,2.912 c -0.031,0.091 -0.061,0.193 -0.095,0.291 -0.181,0.565 -0.383,1.318 -0.377,1.339 l -0.195,1.455 h -7.495 c -0.237,1.429 -0.411,2.479 -0.488,2.921 l -0.457,2.627 -2.394,-1.533 c -2.337,-1.46 -2.542,-1.398 -3.515,-1.592 l -1.597,-0.269 0.383,-4.889 h -15.7 c 0.657,2.287 1.213,4.154 1.452,4.828 l 1.381,3.922 -3.982,-1.96 C -83.951,5.501 -84.368,5.481 -85.383,5.301 L -86.5,5.12 -88.498,-1.208 c -0.088,0.155 -0.191,0.311 -0.309,0.463 -0.648,0.876 -1.892,1.522 -3.261,1.575 -0.198,0.013 -0.405,0.023 -0.618,0.023 h -0.068 l 3.214,8.165 -4.201,-2.091 c -1.797,-0.885 -2.791,-1.015 -4.527,-1.384 h -8.237 l -4.397,-8.524 c -18.258,-0.357 -38.157,2.52 -38.157,2.52 v -3.046 c 21.057,-9.331 29.655,-10.012 32.971,-9.525 l -1.51,-2.927 v -3.049 h 8.91 c -0.027,-0.099 -0.748,-2.808 0.628,-4.666 0.004,-0.006 0.011,-0.014 0.016,-0.02 0.084,-0.116 0.176,-0.224 0.278,-0.329 0.07,-0.078 0.143,-0.144 0.219,-0.212 0.041,-0.036 0.076,-0.076 0.119,-0.113 0.248,-0.205 0.504,-0.371 0.746,-0.477 0.924,-0.458 1.671,-0.512 1.809,-0.535 l 0.089,-0.006 h 15.016 l 0.372,0.16 c 0.923,0.395 1.529,1.044 1.893,1.554 0.372,0.518 0.595,0.923 0.799,1.166 -0.012,0.023 0.602,0.496 1.138,0.787 0.394,0.222 1.218,0.611 1.66,0.819 v -0.01 c -0.014,-1.08 0.514,-2.056 1.196,-2.674 2.073,-1.79 4.726,-1.728 4.88,-1.799 l 0.057,-0.003 h 12.855 l 0.314,0.109 c 1.097,0.337 1.911,1.23 2.162,1.896 0.044,0.103 0.079,0.198 0.114,0.286 0.404,-1.079 1.403,-1.768 2.148,-2.088 l 0.395,-0.187 h 9.161 l 0.003,-0.016 h 21.205 l 0.446,0.26 c 0.529,0.295 0.874,0.716 1.094,1.129 0.169,0.292 0.345,0.713 0.443,1.324 0.13,0.793 0.704,1.369 1.158,1.721 l 4.441,2.893 v 3.047 c -0.027,0.006 -0.07,0.006 -0.123,0 h -3.986 c -1.581,0.222 -2.705,1.327 -3.125,1.806 C -10.74,-11.636 0,-3.046 0,-3.046 Z" style="fill:#231916;fill-opacity:1;fill-rule:nonzero;stroke:none" id="path131"></path></g><g id="g133" transform="translate(436.0264,95.3662)"><path d="M 0,0 C -0.391,0.711 -3.875,22.146 -4.294,24.58 -6.648,23.072 -7.449,22.898 -8.529,22.715 L -7.54,10.191 h -7.022 l -0.275,-3.668 h 7.582 l 0.332,-4.188 h -11.874 c -2.79,0.069 -2.434,1.634 -2.434,1.634 l 1.099,9.36 10.026,-0.036 -0.088,2.492 c 0.021,1.444 1.665,1.741 1.665,1.741 h -16.394 l 0.004,-0.028 h -0.004 L -28.061,1.715 c -0.703,-3.111 4.302,-3.398 4.302,-3.398 H -11.3 c 1.323,0.461 1.149,1.404 1.588,2.204 0.381,0.707 2.351,1.586 2.791,1.774 l 0.201,-2.519 c 0.114,-0.705 0.64,-1.117 1.333,-1.441 h 7.47 C 2.083,-1.665 0.831,-1.49 0,0 m -36.03,4.621 h 5.498 c 0,0 -0.739,0.176 -0.629,1.667 0.055,0.709 4.244,15.796 5.101,18.228 -3.071,-1.506 -3.923,-1.68 -5.046,-1.864 l -2.777,-8.783 H -36.2 c 0.071,0.233 0.147,0.467 0.221,0.688 0.414,1.247 0.173,3.464 -2.25,3.605 -1.148,0.064 -2.159,-0.062 -3.473,-0.79 l 2.79,7.083 c -2.151,-1.067 -3.511,-1.216 -5.339,-1.622 l -2.182,-5.535 h -2.604 c 1.354,3.112 2.423,5.57 2.423,5.57 h -4.78 l -4.394,-8.522 c -1.441,-0.004 -10.691,-0.023 -14.56,0.174 -5.952,0.299 -14.981,1.496 -14.981,1.496 4.486,-1.643 9.166,-3.43 15.885,-4.692 7.798,-1.841 10.244,0.825 10.244,0.825 0,0 1.133,1.374 1.907,0.949 0.23,-0.127 0.509,-0.195 0.468,-0.764 l -3.951,-7.658 h 6.216 c 0.323,0.69 2.102,4.762 3.893,8.876 h 2.756 l -2.791,-7.073 -1.916,-4.764 c -1.312,-3.111 1.879,-3.398 1.879,-3.398 h 14.513 c 1.065,0.461 1.362,1.404 2.007,2.204 0.645,0.798 2.792,1.814 2.792,1.814 h -14.196 c -1.901,0.069 -0.925,2.275 -0.925,2.275 l 3.508,9.325 c 0.443,0.417 0.894,0.417 0.894,0.417 0,0 1.63,0.048 1.129,-1.376 -0.812,-2.388 -1.83,-5.29 -2.869,-8.366 h 4.849 c 0.733,2.455 1.465,4.899 2.166,7.151 h 2.321 L -36.351,6.063 C -36.54,5.359 -36.354,4.95 -36.03,4.621 M 4.749,-1.683 h 19.258 c 0.797,0.461 0.543,1.404 0.721,2.204 0.177,0.802 1.729,1.814 1.729,1.814 H 3.623 Z m 0.768,15.921 7.464,-2.141 c 1.094,-0.448 1.428,-1.128 1.639,-1.701 l 3.324,-6.657 h 6.799 C 23.812,4.152 22.991,5.39 22.991,5.39 l -4.304,6.699 c -0.055,0.099 -0.119,0.182 -0.178,0.274 -0.026,0.05 -0.063,0.123 -0.113,0.207 2.843,-0.123 3.078,-1.617 3.703,-2.275 8.404,0.685 16.909,2.076 24.817,6.021 C 39.62,15.018 24.694,14.137 15.83,14.27 L 4.682,17.522 c 0,0 -0.728,2.148 -0.806,2.744 H -0.546 C 0.274,15.949 3.362,3.739 3.362,3.739 h 5.555 z" style="fill:#fac10b;fill-opacity:1;fill-rule:nonzero;stroke:none" id="path135"></path></g><g id="g137" transform="translate(379.3672,71.0254)"><path d="M 0,0 V 5.614 H -1.787 V 7.063 H 0 v 3.144 H 1.369 V 0 Z M -1.684,1.808 C -2.44,2.286 -3.428,3.222 -3.931,4.335 -4.338,3.222 -5.391,2.156 -6.084,1.705 l -1.014,1.011 c 1.045,0.635 2.422,2.002 2.422,4.533 V 9.66 h 1.449 V 7.249 c 0,-2.531 1.45,-3.783 2.362,-4.351 z" style="fill:#231916;fill-opacity:1;fill-rule:nonzero;stroke:none" id="path139"></path></g><g id="g141" transform="translate(388.1299,79.5156)"><path d="m 0,0 c 0,0.393 -0.841,0.705 -2.075,0.705 -1.244,0 -2.074,-0.301 -2.074,-0.684 0,-0.383 0.785,-0.658 2.074,-0.658 C -0.808,-0.637 0,-0.375 0,0 m 1.53,0.045 c 0,-1.16 -1.357,-1.8 -3.605,-1.8 -2.237,0 -3.605,0.651 -3.605,1.788 0,1.045 1.368,1.787 3.605,1.787 2.248,0 3.605,-0.722 3.605,-1.775 M 2.415,-3.424 H -1.311 V -4.085 H 1.347 V -6.75 h -5.282 v -0.49 h 5.497 v -1.136 h -7.057 v 2.68 h 5.281 v 0.499 h -5.281 v 1.112 h 2.685 v 0.661 h -3.757 v 1.206 h 8.982 z" style="fill:#231916;fill-opacity:1;fill-rule:nonzero;stroke:none" id="path143"></path></g><g id="g145" transform="translate(398.8887,77.6572)"><path d="M 0,0 V -2.169 H -1.367 V 3.575 H 0 V 1.335 H 1.188 V 0 Z m -1.355,-3.987 h -3.738 v -1.198 h 3.738 z m -5.108,1.334 H 0 v -3.864 h -6.463 z m 3.557,0.695 c -0.766,0.37 -1.645,1.031 -2.198,1.937 -0.439,-0.906 -1.245,-1.663 -2.091,-2.169 l -0.984,1.055 c 1.197,0.578 2.349,1.957 2.349,3.225 v 1.24 h 1.459 V 2.09 c 0,-1.268 1.215,-2.527 2.29,-2.914 z" style="fill:#231916;fill-opacity:1;fill-rule:nonzero;stroke:none" id="path147"></path></g><g id="g149" transform="translate(406.9785,75.2803)"><path d="M 0,0 V 2.842 H -1.758 V 4.198 H 0 V 5.952 H 1.369 V 0 Z m -1.962,-1.323 c -1.132,0 -2.032,-0.336 -2.032,-0.893 0,-0.531 0.9,-0.965 2.032,-0.965 1.177,0 2.052,0.385 2.052,0.919 0,0.569 -0.875,0.939 -2.052,0.939 m -0.009,-3.062 c -2.174,0 -3.545,0.871 -3.545,2.133 0,1.256 1.371,2.15 3.545,2.15 2.176,0 3.551,-0.884 3.551,-2.15 0,-1.25 -1.357,-2.133 -3.551,-2.133 m 0.182,4.781 C -2.553,0.767 -3.432,1.426 -3.985,2.331 -4.422,1.426 -5.229,0.675 -6.078,0.163 l -0.98,1.055 c 1.197,0.581 2.35,1.961 2.35,3.223 V 5.742 H -3.25 V 4.441 c 0,-1.262 1.217,-2.527 2.287,-2.908 z" style="fill:#231916;fill-opacity:1;fill-rule:nonzero;stroke:none" id="path151"></path></g><g id="g153" transform="translate(416.3105,73.8535)"><path d="M 0,0 V 4.14 H -1.215 V 5.487 H 0 V 7.379 H 1.276 V 0 Z m -5.382,-2.598 v 3.26 h 1.377 v -1.923 h 5.496 v -1.337 z m 4.107,3.957 C -1.613,1.599 -2.184,2.182 -2.524,2.934 -2.79,2.227 -3.381,1.599 -3.828,1.3 -4.158,1.507 -4.729,2.111 -5.146,2.934 -5.382,2.331 -5.953,1.684 -6.466,1.3 l -0.866,1.089 c 0.766,0.534 1.512,1.532 1.512,3.365 v 1.391 h 1.334 V 5.754 c 0,-1.833 0.576,-2.379 0.658,-2.493 0.078,0.114 0.643,0.566 0.643,2.493 v 1.391 h 1.338 V 5.754 c 0,-1.669 0.618,-2.704 1.304,-3.191 z" style="fill:#231916;fill-opacity:1;fill-rule:nonzero;stroke:none" id="path155"></path></g><g id="g157" transform="translate(426.5234,71.0254)"><path d="M 0,0 H -1.361 V 5.333 H -3.67 v 1.334 h 2.309 v 3.54 H 0 Z m -2.359,2.526 c -0.053,0 -1.983,-0.325 -3.514,-0.325 h -1.554 v 6.938 h 4.34 V 7.817 h -2.97 V 3.559 h 0.901 c 0.845,0.013 2.744,0.27 2.797,0.28 z" style="fill:#231916;fill-opacity:1;fill-rule:nonzero;stroke:none" id="path159"></path></g><g id="g161" transform="translate(435.2324,74.8545)"><path d="M 0,0 C -0.963,0.31 -2.534,1.413 -3.228,2.595 -3.852,1.449 -5.365,0.369 -6.467,0.01 l -0.887,1.109 c 1.747,0.629 3.369,1.977 3.369,3.798 V 5.9 h 1.514 V 4.917 c 0,-1.821 1.518,-3.077 3.317,-3.798 z m -7.721,-1.361 h 8.986 v -1.321 h -8.986 z" style="fill:#231916;fill-opacity:1;fill-rule:nonzero;stroke:none" id="path163"></path></g><g id="g165" transform="translate(443.291,73.0186)"><path d="M 0,0 C 0,0.568 -0.862,0.847 -2.099,0.847 -3.334,0.847 -4.18,0.568 -4.18,0 c 0,-0.66 0.838,-0.904 2.081,-0.904 C -0.883,-0.904 0,-0.66 0,0 m 1.569,-0.023 c 0,-1.229 -1.329,-2.111 -3.668,-2.111 -2.328,0 -3.655,0.882 -3.655,2.111 0,1.231 1.318,2.089 3.655,2.089 2.329,0 3.668,-0.858 3.668,-2.089 m 0.827,2.552 h -8.987 v 1.335 h 3.729 v 1.09 h -2.646 v 3.19 h 1.377 V 6.219 H 1.416 V 4.954 h -2.809 v -1.09 h 3.789 z" style="fill:#231916;fill-opacity:1;fill-rule:nonzero;stroke:none" id="path167"></path></g><g id="g169" transform="translate(450.8633,75.2236)"><path d="M 0,0 V -4.198 H -1.407 V 0 H -4.974 V 1.331 H 1.143 C 1.278,1.984 1.514,3.295 1.551,4.199 H -4.034 V 5.531 H 3.084 C 3.084,3.757 2.615,1.74 2.543,1.331 H 4.014 L 4.014,0 Z" style="fill:#231916;fill-opacity:1;fill-rule:nonzero;stroke:none" id="path171"></path></g><g id="g173" transform="translate(464.1475,76.915)"><path d="m 0,0 h -1.224 v -3.062 h -1.358 v 7.379 h 1.358 V 1.359 H 0 Z m -0.959,-5.659 h -6.698 v 3.468 h 1.375 v -2.131 h 5.323 z m -2.246,4.745 c -0.633,-0.129 -2.36,-0.336 -3.687,-0.359 h -1.735 v 5.034 h 4.675 V 2.417 h -3.32 v -2.32 h 1.062 c 0.717,0 2.434,0.196 3.005,0.31 z" style="fill:#231916;fill-opacity:1;fill-rule:nonzero;stroke:none" id="path175"></path></g><g id="g177" transform="translate(132.6841,73.1094)"><path d="m 0,0 v -0.462 c 0,-0.199 0.034,-0.357 0.101,-0.475 0.07,-0.116 0.195,-0.176 0.385,-0.176 0.156,0 0.28,0.046 0.368,0.135 0.089,0.094 0.133,0.211 0.133,0.351 0,0.229 -0.084,0.431 -0.253,0.606 -0.165,0.175 -0.421,0.386 -0.767,0.631 -0.026,0.022 -0.066,0.053 -0.123,0.091 -0.083,0.07 -0.147,0.123 -0.19,0.157 -0.166,0.133 -0.303,0.245 -0.406,0.34 -0.104,0.091 -0.198,0.2 -0.286,0.322 -0.086,0.119 -0.154,0.255 -0.202,0.415 -0.05,0.162 -0.074,0.34 -0.074,0.544 0,0.601 0.157,1.042 0.473,1.327 0.315,0.288 0.771,0.429 1.366,0.429 0.61,0 1.062,-0.14 1.359,-0.414 C 2.178,3.546 2.324,3.155 2.324,2.66 V 2.097 H 0.979 v 0.338 c 0,0.204 -0.03,0.369 -0.091,0.499 C 0.83,3.058 0.706,3.122 0.525,3.122 0.373,3.122 0.252,3.08 0.165,2.996 0.077,2.915 0.031,2.798 0.031,2.652 0.031,2.496 0.122,2.331 0.305,2.158 0.489,1.979 0.763,1.757 1.127,1.488 L 1.229,1.408 C 1.286,1.359 1.371,1.289 1.479,1.198 1.642,1.07 1.772,0.962 1.868,0.869 1.964,0.772 2.056,0.659 2.141,0.522 2.227,0.389 2.297,0.228 2.349,0.037 2.401,-0.149 2.426,-0.37 2.426,-0.627 2.426,-0.795 2.394,-0.971 2.324,-1.152 2.256,-1.336 2.146,-1.508 1.996,-1.672 1.845,-1.837 1.642,-1.971 1.386,-2.073 1.131,-2.173 0.824,-2.225 0.47,-2.225 c -0.34,0 -0.629,0.049 -0.869,0.141 -0.239,0.096 -0.435,0.219 -0.58,0.375 -0.147,0.159 -0.251,0.327 -0.317,0.502 -0.064,0.178 -0.098,0.356 -0.098,0.535 l 0,0.672 z" style="fill:#231916;fill-opacity:1;fill-rule:nonzero;stroke:none" id="path179"></path></g><g id="g181" transform="translate(138.8301,77.2422)"><path d="M 0,0 H 3.203 V -1.206 H 1.44 V -2.451 H 2.983 V -3.655 H 1.44 V -5.05 h 1.833 v -1.207 l -3.273,0 z" style="fill:#231916;fill-opacity:1;fill-rule:nonzero;stroke:none" id="path183"></path></g><g id="g185" transform="translate(147.3174,72.5693)"><path d="M 0,0 C 0,-0.063 0.002,-0.123 0.009,-0.182 0.013,-0.239 0.028,-0.3 0.054,-0.361 0.081,-0.422 0.122,-0.476 0.18,-0.513 c 0.057,-0.04 0.135,-0.06 0.235,-0.06 0.098,0 0.176,0.02 0.236,0.06 0.057,0.037 0.099,0.091 0.125,0.152 0.025,0.061 0.04,0.122 0.046,0.179 C 0.828,-0.123 0.83,-0.063 0.83,0 V 3.089 C 0.83,3.169 0.828,3.236 0.822,3.296 0.816,3.352 0.801,3.41 0.776,3.467 0.75,3.525 0.708,3.57 0.651,3.606 0.591,3.645 0.513,3.662 0.415,3.662 0.315,3.662 0.237,3.645 0.18,3.606 0.122,3.57 0.081,3.525 0.054,3.467 0.028,3.41 0.013,3.352 0.009,3.296 0.002,3.236 0,3.169 0,3.089 Z m -1.441,2.967 c 0,0.588 0.171,1.037 0.508,1.346 0.34,0.306 0.79,0.462 1.348,0.462 0.557,0 1.007,-0.156 1.346,-0.462 C 2.1,4.004 2.269,3.555 2.269,2.967 V 0.123 c 0,-0.559 -0.167,-0.998 -0.5,-1.323 -0.334,-0.323 -0.786,-0.485 -1.354,-0.485 -0.57,0 -1.02,0.162 -1.356,0.485 -0.333,0.325 -0.5,0.764 -0.5,1.323 z" style="fill:#231916;fill-opacity:1;fill-rule:nonzero;stroke:none" id="path187"></path></g><g id="g189" transform="translate(153.3613,77.2422)"><path d="m 0,0 h 1.441 v -4.564 c 0,-0.22 0.022,-0.382 0.066,-0.482 0.044,-0.102 0.161,-0.154 0.348,-0.154 0.189,0 0.305,0.052 0.349,0.154 0.045,0.1 0.066,0.262 0.066,0.482 V 0 H 3.712 V -4.55 C 3.712,-5.108 3.543,-5.548 3.21,-5.873 2.875,-6.196 2.425,-6.357 1.855,-6.357 1.287,-6.357 0.835,-6.196 0.5,-5.873 0.168,-5.548 0,-5.108 0,-4.55 Z" style="fill:#231916;fill-opacity:1;fill-rule:nonzero;stroke:none" id="path191"></path></g><g id="g193" transform="translate(160.8472,77.2422)"><path d="M 0,0 H 1.439 V -5.05 H 3.004 V -6.257 H 0 Z" style="fill:#231916;fill-opacity:1;fill-rule:nonzero;stroke:none" id="path195"></path></g><g id="g197" transform="translate(172.7847,73.1094)"><path d="m 0,0 v -0.462 c 0,-0.199 0.035,-0.357 0.103,-0.475 0.068,-0.116 0.196,-0.176 0.384,-0.176 0.156,0 0.279,0.046 0.367,0.135 0.089,0.094 0.134,0.211 0.134,0.351 0,0.229 -0.084,0.431 -0.252,0.606 C 0.569,0.154 0.315,0.365 -0.03,0.61 -0.054,0.632 -0.098,0.663 -0.155,0.701 -0.239,0.771 -0.3,0.824 -0.343,0.858 c -0.166,0.133 -0.303,0.245 -0.406,0.34 -0.107,0.091 -0.201,0.2 -0.287,0.322 -0.086,0.119 -0.153,0.255 -0.202,0.415 -0.052,0.162 -0.076,0.34 -0.076,0.544 0,0.601 0.157,1.042 0.475,1.327 0.315,0.288 0.77,0.429 1.364,0.429 0.612,0 1.063,-0.14 1.36,-0.414 C 2.179,3.546 2.327,3.155 2.327,2.66 V 2.097 H 0.979 v 0.338 c 0,0.204 -0.028,0.369 -0.09,0.499 C 0.831,3.058 0.709,3.122 0.525,3.122 0.374,3.122 0.255,3.08 0.167,2.996 0.077,2.915 0.033,2.798 0.033,2.652 0.033,2.496 0.124,2.331 0.307,2.158 0.489,1.979 0.763,1.757 1.128,1.488 L 1.231,1.408 C 1.289,1.359 1.371,1.289 1.483,1.198 1.645,1.07 1.771,0.962 1.868,0.869 1.964,0.772 2.057,0.659 2.144,0.522 2.229,0.389 2.298,0.228 2.35,0.037 2.401,-0.149 2.429,-0.37 2.429,-0.627 2.429,-0.795 2.395,-0.971 2.327,-1.152 2.257,-1.336 2.151,-1.508 1.998,-1.672 1.848,-1.837 1.645,-1.971 1.387,-2.073 1.131,-2.173 0.825,-2.225 0.471,-2.225 c -0.34,0 -0.629,0.049 -0.869,0.141 -0.24,0.096 -0.434,0.219 -0.58,0.375 -0.144,0.159 -0.251,0.327 -0.316,0.502 -0.067,0.178 -0.097,0.356 -0.097,0.535 V 0 Z" style="fill:#231916;fill-opacity:1;fill-rule:nonzero;stroke:none" id="path199"></path></g><g id="g201" transform="translate(180.4043,73.208)"><path d="M 0,0 H 0.72 L 0.385,3.063 H 0.368 Z M -0.581,4.034 H 1.333 L 2.506,-2.223 H 0.995 l -0.134,1.114 h -1.009 l -0.147,-1.114 h -1.442 z" style="fill:#231916;fill-opacity:1;fill-rule:nonzero;stroke:none" id="path203"></path></g><g id="g205" transform="translate(186.458,77.2422)"><path d="M 0,0 H 2.27 L 2.677,-3.099 H 2.691 L 3.099,0 H 5.368 V -6.257 H 3.977 v 4.863 H 3.958 L 3.154,-6.257 H 2.215 L 1.408,-1.394 H 1.392 V -6.257 H 0 Z" style="fill:#231916;fill-opacity:1;fill-rule:nonzero;stroke:none" id="path207"></path></g><g id="g209" transform="translate(196.9795,73.1094)"><path d="m 0,0 v -0.462 c 0,-0.199 0.033,-0.357 0.103,-0.475 0.067,-0.116 0.194,-0.176 0.382,-0.176 0.155,0 0.279,0.046 0.368,0.135 0.088,0.094 0.133,0.211 0.133,0.351 0,0.229 -0.083,0.431 -0.251,0.606 C 0.568,0.154 0.314,0.365 -0.032,0.61 -0.057,0.632 -0.1,0.663 -0.157,0.701 -0.24,0.771 -0.304,0.824 -0.345,0.858 -0.51,0.991 -0.647,1.103 -0.75,1.198 c -0.107,0.091 -0.203,0.2 -0.288,0.322 -0.087,0.119 -0.154,0.255 -0.201,0.415 -0.052,0.162 -0.077,0.34 -0.077,0.544 0,0.601 0.158,1.042 0.475,1.327 0.315,0.288 0.77,0.429 1.364,0.429 0.612,0 1.064,-0.14 1.361,-0.414 C 2.178,3.546 2.326,3.155 2.326,2.66 V 2.097 H 0.978 V 2.435 C 0.978,2.639 0.95,2.804 0.888,2.934 0.83,3.058 0.707,3.122 0.523,3.122 0.372,3.122 0.252,3.08 0.166,2.996 0.076,2.915 0.033,2.798 0.033,2.652 0.033,2.496 0.121,2.331 0.306,2.158 0.489,1.979 0.763,1.757 1.126,1.488 L 1.23,1.408 C 1.287,1.359 1.37,1.289 1.481,1.198 1.643,1.07 1.77,0.962 1.867,0.869 1.963,0.772 2.055,0.659 2.143,0.522 2.229,0.389 2.297,0.228 2.348,0.037 2.4,-0.149 2.428,-0.37 2.428,-0.627 2.428,-0.795 2.394,-0.971 2.326,-1.152 2.257,-1.336 2.148,-1.508 1.997,-1.672 1.847,-1.837 1.643,-1.971 1.386,-2.073 1.129,-2.173 0.825,-2.225 0.468,-2.225 c -0.338,0 -0.627,0.049 -0.866,0.141 -0.242,0.096 -0.435,0.219 -0.581,0.375 -0.146,0.159 -0.254,0.327 -0.316,0.502 -0.067,0.178 -0.098,0.356 -0.098,0.535 V 0 Z" style="fill:#231916;fill-opacity:1;fill-rule:nonzero;stroke:none" id="path211"></path></g><g id="g213" transform="translate(203.1245,77.2422)"><path d="m 0,0 h 1.44 v -4.564 c 0,-0.22 0.023,-0.382 0.068,-0.482 0.044,-0.102 0.16,-0.154 0.348,-0.154 0.187,0 0.305,0.052 0.347,0.154 0.045,0.1 0.069,0.262 0.069,0.482 V 0 h 1.44 v -4.55 c 0,-0.558 -0.169,-0.998 -0.503,-1.323 -0.334,-0.323 -0.784,-0.484 -1.353,-0.484 -0.568,0 -1.02,0.161 -1.354,0.484 C 0.167,-5.548 0,-5.108 0,-4.55 Z" style="fill:#231916;fill-opacity:1;fill-rule:nonzero;stroke:none" id="path215"></path></g><g id="g217" transform="translate(210.6113,77.2422)"><path d="M 0,0 H 1.572 L 2.73,-3.688 H 2.748 V 0 H 4.142 V -6.257 H 2.576 L 1.408,-2.39 H 1.395 V -6.257 H 0 Z" style="fill:#231916;fill-opacity:1;fill-rule:nonzero;stroke:none" id="path219"></path></g><g id="g221" transform="translate(218.5264,75.5361)"><path d="m 0,0 c 0,0.588 0.17,1.037 0.508,1.347 0.34,0.305 0.788,0.462 1.347,0.462 0.26,0 0.499,-0.027 0.721,-0.079 C 2.793,1.678 2.99,1.592 3.163,1.472 3.334,1.35 3.469,1.19 3.566,0.995 3.661,0.795 3.71,0.554 3.71,0.273 V -0.424 H 2.339 V 0.202 C 2.339,0.365 2.303,0.488 2.23,0.569 2.157,0.653 2.042,0.695 1.886,0.695 1.797,0.695 1.722,0.676 1.663,0.637 1.603,0.598 1.557,0.551 1.526,0.492 1.495,0.435 1.473,0.373 1.46,0.308 1.445,0.243 1.439,0.182 1.439,0.122 v -3.089 c 0,-0.062 0.003,-0.123 0.007,-0.181 0.008,-0.058 0.023,-0.119 0.049,-0.18 0.024,-0.061 0.068,-0.114 0.124,-0.151 0.059,-0.041 0.138,-0.061 0.236,-0.061 0.306,0 0.462,0.158 0.462,0.47 v 0.808 H 1.808 v 1.157 H 3.71 V -4.551 H 2.451 v 0.512 H 2.434 C 2.303,-4.25 2.149,-4.405 1.97,-4.503 1.795,-4.6 1.577,-4.651 1.321,-4.651 1.073,-4.651 0.859,-4.603 0.688,-4.506 0.517,-4.41 0.38,-4.279 0.28,-4.109 0.183,-3.944 0.109,-3.752 0.067,-3.54 0.022,-3.324 0,-3.093 0,-2.844 Z" style="fill:#231916;fill-opacity:1;fill-rule:nonzero;stroke:none" id="path223"></path></g><g id="g225" transform="translate(248.7227,110.4658)"><path d="m 0,0 c -11.165,-2.783 -37.911,-3.066 -37.911,-3.066 l -9.997,2.917 c -0.03,0.091 -0.061,0.192 -0.092,0.292 -0.185,0.564 -0.387,1.32 -0.378,1.341 l -0.199,1.46 h -7.51 c -0.237,1.431 -0.413,2.482 -0.489,2.925 l -0.46,2.633 -2.397,-1.535 C -61.776,5.504 -61.981,5.564 -62.955,5.37 l -1.602,-0.268 0.386,-4.901 h -15.736 c 0.659,2.294 1.214,4.164 1.455,4.841 l 1.383,3.929 -3.991,-1.965 c -3.076,-1.494 -3.495,-1.513 -4.512,-1.694 l -1.117,-0.181 -2.004,-6.342 c -0.091,0.156 -0.193,0.313 -0.309,0.463 -0.652,0.878 -1.896,1.527 -3.27,1.578 -0.198,0.016 -0.404,0.024 -0.62,0.024 h -0.067 l 3.22,8.184 -4.211,-2.097 c -1.799,-0.886 -2.795,-1.017 -4.535,-1.386 h -8.255 l -4.406,-8.545 c -18.299,-0.357 -38.242,2.528 -38.242,2.528 v -3.052 c 21.101,-9.354 29.72,-10.033 33.043,-9.549 l -1.512,-2.933 v -3.055 h 8.928 c -0.026,-0.1 -0.747,-2.814 0.631,-4.677 0.003,-0.006 0.009,-0.013 0.015,-0.019 0.084,-0.114 0.175,-0.225 0.277,-0.329 0.072,-0.08 0.147,-0.143 0.219,-0.214 0.043,-0.035 0.078,-0.076 0.122,-0.112 0.249,-0.205 0.507,-0.371 0.748,-0.478 0.925,-0.46 1.673,-0.514 1.813,-0.536 l 0.089,-0.006 h 15.049 l 0.372,0.159 c 0.926,0.397 1.531,1.047 1.898,1.558 0.372,0.519 0.593,0.926 0.8,1.17 -0.013,0.021 0.604,0.496 1.142,0.786 0.393,0.225 1.218,0.614 1.663,0.823 v -0.01 c -0.014,-1.083 0.514,-2.063 1.195,-2.68 2.08,-1.795 4.739,-1.733 4.895,-1.803 l 0.053,-0.003 h 12.887 l 0.316,0.109 c 1.098,0.338 1.913,1.232 2.166,1.898 0.041,0.106 0.079,0.201 0.112,0.29 0.405,-1.083 1.407,-1.774 2.154,-2.095 l 0.396,-0.186 h 9.18 l 0.003,-0.016 h 21.255 l 0.445,0.259 c 0.529,0.297 0.875,0.719 1.095,1.132 0.17,0.293 0.347,0.717 0.445,1.327 0.128,0.794 0.707,1.373 1.16,1.725 l 4.451,2.9 v 3.053 c -0.027,0.005 -0.069,0.005 -0.124,0 h -3.992 c -1.587,0.222 -2.712,1.331 -3.135,1.811 C -10.764,-11.662 0,-3.053 0,-3.053 Z" style="fill:#231916;fill-opacity:1;fill-rule:nonzero;stroke:none" id="path227"></path></g><g id="g229" transform="translate(194.6479,91.4424)"><path d="m 0,0 c -0.391,0.711 -3.88,22.195 -4.305,24.635 -2.355,-1.512 -3.158,-1.688 -4.241,-1.87 l 0.989,-12.552 h -7.036 l -0.275,-3.675 h 7.6 l 0.33,-4.198 h -11.898 c -2.797,0.067 -2.443,1.638 -2.443,1.638 l 1.103,9.378 10.049,-0.034 -0.087,2.497 c 0.018,1.447 1.668,1.745 1.668,1.745 h -16.431 l 0.003,-0.028 h -0.003 L -28.123,1.718 c -0.703,-3.116 4.314,-3.405 4.314,-3.405 h 12.486 c 1.325,0.462 1.153,1.407 1.591,2.208 0.38,0.708 2.354,1.59 2.797,1.778 l 0.201,-2.525 c 0.113,-0.706 0.641,-1.119 1.336,-1.443 h 7.487 c 0,0 -1.254,0.176 -2.089,1.669 m -36.108,4.631 h 5.509 c 0,0 -0.74,0.176 -0.628,1.67 0.053,0.711 4.252,15.832 5.112,18.269 -3.079,-1.51 -3.934,-1.684 -5.059,-1.868 l -2.782,-8.804 h -2.324 c 0.074,0.234 0.15,0.468 0.223,0.69 0.412,1.251 0.173,3.474 -2.256,3.612 -1.149,0.066 -2.162,-0.061 -3.48,-0.79 l 2.795,7.099 c -2.154,-1.07 -3.518,-1.22 -5.35,-1.625 l -2.189,-5.549 h -2.608 c 1.358,3.12 2.428,5.583 2.428,5.583 h -4.787 l -4.406,-8.543 c -1.444,-0.003 -10.715,-0.021 -14.592,0.178 -5.965,0.299 -15.014,1.498 -15.014,1.498 4.496,-1.646 9.187,-3.438 15.918,-4.701 7.817,-1.846 10.269,0.825 10.269,0.825 0,0 1.133,1.379 1.911,0.952 0.229,-0.128 0.509,-0.196 0.467,-0.767 l -3.96,-7.677 h 6.233 c 0.321,0.695 2.105,4.774 3.901,8.898 h 2.759 l -2.794,-7.088 -1.92,-4.775 c -1.316,-3.116 1.883,-3.405 1.883,-3.405 h 14.545 c 1.066,0.462 1.365,1.407 2.012,2.208 0.646,0.8 2.798,1.819 2.798,1.819 h -14.227 c -1.908,0.067 -0.931,2.281 -0.931,2.281 l 3.52,9.343 c 0.444,0.419 0.894,0.419 0.894,0.419 0,0 1.633,0.048 1.132,-1.379 -0.815,-2.393 -1.835,-5.3 -2.875,-8.383 h 4.858 c 0.733,2.46 1.467,4.908 2.172,7.164 h 2.326 L -36.43,6.074 C -36.622,5.37 -36.435,4.959 -36.108,4.631 M 4.761,-1.687 h 19.301 c 0.796,0.462 0.543,1.407 0.72,2.208 0.178,0.804 1.736,1.819 1.736,1.819 H 3.633 Z m 0.77,15.958 7.48,-2.148 c 1.096,-0.449 1.431,-1.131 1.643,-1.706 l 3.33,-6.67 H 24.8 C 23.867,4.16 23.044,5.401 23.044,5.401 l -4.315,6.714 c -0.053,0.099 -0.117,0.184 -0.178,0.275 -0.025,0.05 -0.062,0.124 -0.112,0.208 2.85,-0.123 3.085,-1.619 3.707,-2.281 8.425,0.687 16.949,2.081 24.876,6.034 C 39.709,15.05 24.75,14.167 15.868,14.301 l -11.176,3.26 c 0,0 -0.728,2.152 -0.808,2.748 H -0.545 C 0.275,15.984 3.372,3.747 3.372,3.747 h 5.567 z" style="fill:#fac10b;fill-opacity:1;fill-rule:nonzero;stroke:none" id="path231"></path></g></g></g></g></g></svg>