
<svg xmlns="http://www.w3.org/2000/svg" version="1.1" id="svg10" xml:space="preserve" width="1000.15" height="948.67798" viewBox="0 0 1000.15 948.67794"><defs id="defs14"><clipPath clipPathUnits="userSpaceOnUse" id="clipPath26"><path d="M 0,858.897 H 612.288 V 0 H 0 Z" id="path24"></path></clipPath></defs><g id="g18" transform="matrix(1.3333333,0,0,-1.3333333,0,1145.196)"><g id="g20" transform="matrix(2.5978527,0,0,2.5978527,-418.24979,-597.85148)"><g id="g22" clip-path="url(#clipPath26)"><g id="g28" transform="translate(311.6426,529.4277)"><path d="M 0,0 C 0,0 5.382,12.654 8.789,13.458 8.789,13.458 7.271,3.321 0,0 m -18.131,0 c 0,0 5.397,12.654 8.794,13.458 0,0 -1.519,-10.137 -8.794,-13.458 m -7.539,3.139 -1.441,1.35 -3.042,-2.964 c -0.091,0.451 -1.614,0.806 -1.614,0.806 1.523,0.453 6.552,3.415 6.552,3.415 C -25.568,4.4 -25.67,3.139 -25.67,3.139 m 49.805,15.616 c 0,0 -5.643,-0.266 -9.229,-5.115 0,0 -0.553,4.036 -4.591,4.94 0,0 -5.564,1.707 -13.456,-6.467 0,0 0.362,6.467 -6.556,6.642 0,0 -5.108,0.182 -12.292,-7.444 0,0 0.182,6.998 -7.267,7.358 0,0 -7.004,0.806 -11.582,-6.914 0,0 -1.965,-5.019 2.784,-6.367 0,0 -6.463,-3.59 -7,-7.899 0,0 0,-2.333 1.803,-2.78 0,0 1.789,-0.725 3.487,2.147 0,0 4.492,-2.599 7.189,-2.242 0,0 3.77,0.271 7.535,5.115 0,0 1.532,-4.844 6.463,-5.115 0,0 5.119,-0.267 11.214,7.546 0,0 0.086,-5.304 5.481,-7.368 0,0 7.537,-2.329 15.794,12.299 0,0 1.165,-1.523 2.607,-1.616 0,0 -6.377,-3.677 -7.012,-8.077 0,0 -0.265,-2.513 2.336,-2.689 0,0 1.351,-0.543 2.966,2.243 0,0 6.011,-3.772 9.064,-1.708 0,0 6.105,2.337 6.105,7.178 L 27.452,4.578 24.585,1.616 22.798,2.422 c 0,0 10.232,3.496 9.691,9.249 0,0 0.349,7.084 -8.354,7.084" style="fill:#ffffff;fill-opacity:1;fill-rule:nonzero;stroke:none" id="path30"></path></g><g id="g32" transform="translate(328.6846,559.3389)"><path d="m 0,0 c 0,0 55.997,11.014 56.472,-28.478 0,0 17.954,-20.098 23.219,-33.984 0,0 0.243,1.918 0.953,5.026 0,0 -2.148,3.834 -9.094,6.703 0,0 -4.534,6.464 -2.87,15.079 0,0 0,14.596 -10.535,21.78 0,0 22.978,-1.196 32.786,-21.78 0,0 4.322,-11.971 -4.302,-22.018 0,0 1.439,-7.893 -1.908,-18.191 0,0 5.748,-19.383 5.016,-29.671 0,0 0.483,1.907 2.157,3.591 0,0 -4.547,4.064 -5.739,10.047 0,0 -1.434,9.576 3.109,16.752 0,0 5.989,11.253 7.891,23.699 0,0 30.87,-38.298 0.724,-51.938 0,0 -5.267,-14.594 -8.375,-20.106 0,0 0,-13.399 -5.024,-31.825 0,0 4.784,5.026 5.989,5.502 0,0 -5.511,12.924 5.492,26.564 0,0 15.794,16.513 23.694,21.305 0,0 10.292,-59.831 -24.895,-52.175 0,0 -11.239,-13.403 -15.544,-16.99 0,0 -4.79,-12.931 -14.125,-27.764 0,0 5.026,-0.232 8.144,3.589 0,0 -3.839,16.752 16.985,24.175 0,0 15.318,5.266 25.137,15.314 0,0 -2.643,-59.112 -37.58,-45.23 0,0 -4.542,-4.072 -18.673,-6.698 0,0 -7.416,-11.153 -16.992,-20.007 0,0 3.235,-0.81 7.422,1.35 0,0 11.065,32.785 48.978,10.116 0,0 -8.508,-2.153 -21.324,-14.436 0,0 -13.354,-10.519 -26.304,-1.614 0,0 -10.388,-2.432 -17.139,-2.161 0,0 -14.361,-12.978 -16.275,-13.937 l -6.948,10.296 c 0,0 7.425,2.386 20.583,14.592 0,0 -0.475,0.718 0.482,2.876 0,0 -1.432,0 -3.834,5.022 0,0 -4.069,0 -11.973,-7.898 0,0 -16.022,-14.117 -29.667,-6.702 0,0 8.144,-1.432 17.718,17.705 0,0 13.639,18.914 28,3.597 0,0 0,-3.114 1.426,-4.781 0,0 0.968,4.061 1.682,5.02 0,0 -12.69,11.955 -4.065,24.171 0,0 7.886,5.266 6.454,21.301 0,0 10.295,-3.829 16.031,-22.977 0,0 3.113,-16.747 -12.439,-23.454 l -0.717,-3.827 c 0,0 11.241,13.163 17.226,22.496 0,0 -0.233,14.127 0.248,16.997 0,0 -18.428,11.478 -6.946,26.796 0,0 5.507,9.578 2.395,25.612 0,0 31.354,-23.453 11.487,-51.452 0,0 0.478,-5.51 0.719,-6.226 0,0 7.903,16.273 9.569,27.524 0,0 -1.666,9.325 -7.655,25.847 0,0 -19.382,9.81 -7.896,29.436 0,0 3.827,12.683 -0.246,24.407 0,0 35.185,-23.213 14.595,-53.606 l 5.037,-10.052 c 0,0 10.285,35.652 -6.704,71.56 0,0 -21.301,16.506 -33.023,14.355 0,0 -19.142,-1.909 -29.436,11.486 0,0 7.651,-3.83 19.388,2.877 0,0 18.193,10.768 27.99,-11.486 0,0 8.863,-5.745 10.534,-5.745 0,0 -10.056,16.51 -15.797,21.299 0,0 -13.636,-1.912 -24.888,13.165 0,0 -13.169,13.4 -26.8,18.18" style="fill:#ffffff;fill-opacity:1;fill-rule:nonzero;stroke:none" id="path34"></path></g><g id="g36" transform="translate(282.0625,559.3389)"><path d="m 0,0 c 0,0 -56.008,11.014 -56.477,-28.478 0,0 -17.951,-20.098 -23.217,-33.984 0,0 -0.238,1.918 -0.959,5.026 0,0 2.155,3.834 9.096,6.703 0,0 4.535,6.464 2.859,15.079 0,0 0,14.596 10.543,21.78 0,0 -22.978,-1.196 -32.784,-21.78 0,0 -4.32,-11.971 4.305,-22.018 0,0 -1.443,-7.893 1.907,-18.191 0,0 -5.743,-19.383 -5.02,-29.671 0,0 -0.483,1.907 -2.149,3.591 0,0 4.543,4.064 5.742,10.047 0,0 1.427,9.576 -3.113,16.752 0,0 -5.992,11.253 -7.899,23.699 0,0 -30.868,-38.298 -0.722,-51.938 0,0 5.273,-14.594 8.376,-20.106 0,0 0,-13.399 5.027,-31.825 0,0 -4.782,5.026 -5.985,5.502 0,0 5.507,12.924 -5.499,26.564 0,0 -15.794,16.513 -23.693,21.305 0,0 -10.292,-59.831 24.89,-52.175 0,0 11.24,-13.403 15.546,-16.99 0,0 4.798,-12.931 14.128,-27.764 0,0 -5.021,-0.232 -8.14,3.589 0,0 3.831,16.752 -16.992,24.175 0,0 -15.312,5.266 -25.137,15.314 0,0 2.647,-59.112 37.587,-45.23 0,0 4.542,-4.072 18.664,-6.698 0,0 7.422,-11.153 16.995,-20.007 0,0 -3.233,-0.81 -7.426,1.35 0,0 -11.057,32.785 -48.969,10.116 0,0 8.505,-2.153 21.317,-14.436 0,0 13.359,-10.519 26.31,-1.614 0,0 10.39,-2.432 17.133,-2.161 0,0 14.359,-12.978 16.282,-13.937 l 6.945,10.296 c 0,0 -7.425,2.386 -20.59,14.592 0,0 0.489,0.718 -0.47,2.876 0,0 1.429,0 3.825,5.022 0,0 4.076,0 11.975,-7.898 0,0 16.029,-14.117 29.667,-6.702 0,0 -8.141,-1.432 -17.717,17.705 0,0 -13.635,18.914 -28.004,3.597 0,0 0,-3.114 -1.427,-4.781 0,0 -0.964,4.061 -1.674,5.02 0,0 12.685,11.955 4.069,24.171 0,0 -7.892,5.266 -6.462,21.301 0,0 -10.297,-3.829 -16.031,-22.977 0,0 -3.109,-16.747 12.443,-23.454 l 0.717,-3.827 c 0,0 -11.247,13.163 -17.232,22.496 0,0 0.235,14.127 -0.24,16.997 0,0 18.425,11.478 6.94,26.796 0,0 -5.501,9.578 -2.393,25.612 0,0 -31.352,-23.453 -11.484,-51.452 0,0 -0.481,-5.51 -0.722,-6.226 0,0 -7.899,16.273 -9.564,27.524 0,0 1.665,9.325 7.65,25.847 0,0 19.379,9.81 7.897,29.436 0,0 -3.832,12.683 0.24,24.407 0,0 -35.177,-23.213 -14.593,-53.606 l -5.037,-10.052 c 0,0 -10.283,35.652 6.703,71.56 0,0 21.303,16.506 33.025,14.355 0,0 19.15,-1.909 29.441,11.486 0,0 -7.651,-3.83 -19.391,2.877 0,0 -18.191,10.768 -27.986,-11.486 0,0 -8.867,-5.745 -10.534,-5.745 0,0 10.048,16.51 15.796,21.299 0,0 13.637,-1.912 24.882,13.165 0,0 13.172,13.4 26.81,18.18" style="fill:#ffffff;fill-opacity:1;fill-rule:nonzero;stroke:none" id="path38"></path></g><g id="g40" transform="translate(198.4014,527.752)"><path d="m 0,0 c 0,0 7.656,-30.629 28.718,-39.966 0,0 -0.248,7.422 -0.476,9.813 l 1.674,0.242 c 0,0 2.624,8.129 7.177,12.443 0,0 0.238,-9.81 1.432,-11.724 0,0 16.755,2.63 33.508,9.803 0,0 20.351,8.139 35.66,7.662 0,0 12.203,1.194 35.178,-7.897 0,0 22.012,-7.654 24.172,-8.133 0,0 1.921,5.975 1.192,9.812 0,0 6.703,-6.945 6.94,-11.247 0,0 7.903,-0.961 10.781,-0.719 l -0.249,-4.07 c 0,0 11.487,6.94 19.39,33.981 0,0 11.243,-41.643 -20.58,-59.589 l -0.251,-0.96 c 0,0 15.797,0.485 34.467,-11.481 0,0 -19.626,3.347 -35.172,-2.634 0,0 4.726,-65.737 -76.593,-125.648 0,0 -50.494,39.727 -65.926,78.862 0,0 -10.77,26.553 -11.126,57.795 0,0 -39.729,8.492 -29.916,63.655" style="fill:#ffffff;fill-opacity:1;fill-rule:nonzero;stroke:none" id="path42"></path></g><g id="g44" transform="translate(358.2266,346.8574)"><path d="m 0,0 c 0,0 0.46,-6.59 5.218,-7.65 l 0.739,1.123 c 0,0 -4.651,2.793 -5.021,7.089 z" style="fill:#0068b7;fill-opacity:1;fill-rule:nonzero;stroke:none" id="path46"></path></g><g id="g48" transform="translate(344.3447,338.459)"><path d="m 0,0 c 0,0 5.548,6.545 15.001,8.398 0,0 -0.102,7.879 -11.751,7.331 0,0 -9.431,0.369 -14.626,-10.839 0,0 -6.554,-12.703 -11.562,-14.039 0,0 10.202,-1.887 22.938,9.149" style="fill:#0068b7;fill-opacity:1;fill-rule:nonzero;stroke:none" id="path50"></path></g><g id="g52" transform="translate(427.0986,502.4517)"><path d="m 0,0 c 0,0 -1.103,-7.165 -9.249,-23.696 0,0 -4.438,-12.316 5.016,-20.443 0,0 -7.366,-17.746 -8.96,-17.357 0,0 -1.293,-10.011 0.149,-8.756 0,0 6.072,10.665 10.699,25.535 0,0 27.882,7.351 2.345,44.717" style="fill:#0068b7;fill-opacity:1;fill-rule:nonzero;stroke:none" id="path54"></path></g><g id="g56" transform="translate(429.2383,488.2134)"><path d="m 0,0 c 0,0 1.304,-18.319 -3.751,-25.304 -1.166,-1.608 -0.78,0.701 -0.78,0.701 0,0 3.485,6.465 4.531,24.603" style="fill:#ffffff;fill-opacity:1;fill-rule:nonzero;stroke:none" id="path58"></path></g><g id="g60" transform="translate(389.9766,385.8418)"><path d="m 0,0 c 0,0 20.959,20.149 -4.986,46.184 0,0 1.543,-11.127 -5.009,-23.299 0,0 -8.428,-12.184 9.995,-22.885" style="fill:#0068b7;fill-opacity:1;fill-rule:nonzero;stroke:none" id="path62"></path></g><g id="g64" transform="translate(389.3926,410.5068)"><path d="m 0,0 c 0,0 -3.388,-19.701 -0.992,-20.529 2.056,-0.731 0.444,1.092 0.444,1.092 0,0 -0.611,2.466 0.548,19.437" style="fill:#ffffff;fill-opacity:1;fill-rule:nonzero;stroke:none" id="path66"></path></g><g id="g68" transform="translate(390.9463,389.8379)"><path d="m 0,0 1.911,-22.671 -4.691,-6.67 0.342,31.534 z" style="fill:#0068b7;fill-opacity:1;fill-rule:nonzero;stroke:none" id="path70"></path></g><g id="g72" transform="translate(400.1846,434.0664)"><path d="m 0,0 c 0,0 20.09,22.353 -8.714,47.39 0,0 2.437,-11.399 -3.377,-24.456 0,0 -7.753,-13.192 12.091,-22.934" style="fill:#0068b7;fill-opacity:1;fill-rule:nonzero;stroke:none" id="path74"></path></g><g id="g76" transform="translate(397.6865,459.5186)"><path d="m 0,0 c 0,0 -1.982,-20.597 0.553,-21.287 2.191,-0.606 0.38,1.163 0.38,1.163 0,0 -0.846,2.508 -0.933,20.124" style="fill:#ffffff;fill-opacity:1;fill-rule:nonzero;stroke:none" id="path78"></path></g><g id="g80" transform="translate(398.2393,438.2314)"><path d="m 0,0 11.356,-24.689 -1.668,-9.616 -10.612,32.8 z" style="fill:#0068b7;fill-opacity:1;fill-rule:nonzero;stroke:none" id="path82"></path></g><g id="g84" transform="translate(380.292,510.0107)"><path d="m 0,0 c 0,0 14.031,-5.895 24.058,-15.27 l -2.115,6.537 c 0,0 -19.498,8.888 -21.321,12.214 z" style="fill:#0068b7;fill-opacity:1;fill-rule:nonzero;stroke:none" id="path86"></path></g><g id="g88" transform="translate(366.9502,511.7959)"><path d="m 0,0 c 0,0 7.783,0.964 16.479,-3.141 0,0 2.553,6.906 -7.457,13.287 0,0 -7.777,5.794 -16.626,0.252 0,0 -10.582,-5.909 -15.317,-4.004 0,0 7.809,-7.409 22.921,-6.394" style="fill:#0068b7;fill-opacity:1;fill-rule:nonzero;stroke:none" id="path90"></path></g><g id="g92" transform="translate(368.5547,392.4824)"><path d="m 0,0 c 0,0 1.007,-11.987 -7.404,-19.46 0,0 -4.78,-5.266 -0.318,-14.928 0,0 3.944,-5.417 5.746,-7.836 0,0 18.498,7.12 12.637,25.154 0,0 -4.905,13.863 -10.661,17.07" style="fill:#0068b7;fill-opacity:1;fill-rule:nonzero;stroke:none" id="path94"></path></g><g id="g96" transform="translate(371.0527,376.1172)"><path d="m 0,0 c 0,0 1.032,-16.102 -2.217,-22.036 -0.954,-1.741 -1.446,0.91 -1.446,0.91 0,0 2.215,-1.341 3.663,21.126" style="fill:#ffffff;fill-opacity:1;fill-rule:nonzero;stroke:none" id="path98"></path></g><g id="g100" transform="translate(366.6152,352.9492)"><path d="m 0,0 c 0,0 -6.356,-17.312 -4.674,-23.835 l 3.92,5.049 c 0,0 0.145,14.326 2.967,18.466 z" style="fill:#0068b7;fill-opacity:1;fill-rule:nonzero;stroke:none" id="path102"></path></g><g id="g104" transform="translate(394.0127,541.8472)"><path d="m 0,0 c 0,0 4.771,-4.474 5.418,-18.261 0,0 -2.066,-9.988 5.589,-14.889 0,0 4.629,-2.429 7.379,-6.679 0,0 9.837,7.38 5.144,20.9 0,0 -6.156,14.908 -23.53,18.929" style="fill:#0068b7;fill-opacity:1;fill-rule:nonzero;stroke:none" id="path106"></path></g><g id="g108" transform="translate(408.0449,523.2954)"><path d="m 0,0 c 0,0 5.382,-15.335 4.33,-16.787 -0.919,-1.257 -1.066,0.279 -1.066,0.279 0,0 -0.38,7.166 -3.264,16.508" style="fill:#ffffff;fill-opacity:1;fill-rule:nonzero;stroke:none" id="path110"></path></g><g id="g112" transform="translate(408.4141,488.6396)"><path d="m 0,0 c 0,0 4.446,13.316 2.997,15.613 l 0.987,0.67 c 0,0 3.474,-7.141 -1.376,-22.424 z" style="fill:#0068b7;fill-opacity:1;fill-rule:nonzero;stroke:none" id="path114"></path></g><g id="g116" transform="translate(336.1377,558.0449)"><path d="m 0,0 c 0,0 17.154,-9.116 22.422,-17.259 0,0 9.657,-13.21 24.523,-10.213 0,0 4.809,31.985 -46.945,27.472" style="fill:#0068b7;fill-opacity:1;fill-rule:nonzero;stroke:none" id="path118"></path></g><g id="g120" transform="translate(359.8584,548.6045)"><path d="m 0,0 c 0,0 19.629,-12.095 19.703,-14.235 0.068,-1.851 -1.459,-0.4 -1.459,-0.4 0,0 -6.739,7.014 -18.244,14.635" style="fill:#ffffff;fill-opacity:1;fill-rule:nonzero;stroke:none" id="path122"></path></g><g id="g124" transform="translate(423.2891,343.499)"><path d="m 0,0 c 0,0 -7.229,-2.297 -19.058,-13.386 0,0 -12.767,-8.711 -24.394,-0.895 0,0 -12.069,-2.802 -18.347,-2.193 0,0 0.98,1.388 1.747,3.103 0,0 11.608,-1.685 16.056,1.388 0,0 9.376,29.272 43.996,11.983" style="fill:#0068b7;fill-opacity:1;fill-rule:nonzero;stroke:none" id="path126"></path></g><g id="g128" transform="translate(406.7617,341.0566)"><path d="m 0,0 c 0,0 -20.166,-4.15 -22.713,-8.23 -1.011,-1.622 1.223,-0.804 1.223,-0.804 0,0 4.846,3.793 21.49,9.034" style="fill:#ffffff;fill-opacity:1;fill-rule:nonzero;stroke:none" id="path130"></path></g><g id="g132" transform="translate(441.3984,397.9727)"><path d="m 0,0 c 0,0 -5.943,-6.075 -23.866,-12.628 0,0 -16.456,-6.44 -13.197,-21.452 0,0 -1.445,-7.186 -18.675,-5.741 0,0 -1.601,-2.45 -2.87,-5.274 0,0 18.182,2.395 23.386,7.973 0,0 28.785,-17.541 35.222,37.122" style="fill:#0068b7;fill-opacity:1;fill-rule:nonzero;stroke:none" id="path134"></path></g><g id="g136" transform="translate(430.4082,383.9316)"><path d="m 0,0 c 0,0 -18.082,-20.508 -20.793,-20.056 -2.35,0.401 1.137,1.95 1.137,1.95 0,0 10.15,8.148 19.656,18.106" style="fill:#ffffff;fill-opacity:1;fill-rule:nonzero;stroke:none" id="path138"></path></g><g id="g140" transform="translate(446.6191,453.4072)"><path d="m 0,0 c 0,0 -8.777,-6.358 -18.551,-17.095 0,0 -12.209,-10.677 -6.465,-26.944 0,0 -13.924,-14.845 -15.047,-12.456 0,0 -4.609,-9.94 -2.6,-9.672 0,0 10.426,9.676 18.842,20.392 0,0 30.828,-12.63 23.821,45.775" style="fill:#0068b7;fill-opacity:1;fill-rule:nonzero;stroke:none" id="path142"></path></g><g id="g144" transform="translate(439.5879,436.7139)"><path d="m 0,0 c 0,0 -11.005,-22.757 -13.147,-24.676 -1.495,-1.348 -0.583,1.712 -0.583,1.712 0,0 5.874,10.651 13.73,22.964" style="fill:#ffffff;fill-opacity:1;fill-rule:nonzero;stroke:none" id="path146"></path></g><g id="g148" transform="translate(378.1025,533.9697)"><path d="m 0,0 c 0,0 22.359,-23.173 24.021,-37.064 0,0 16.022,-26.872 8.913,-66.61 0,0 -7.916,-43.664 -18.042,-55.55 0,0 -26.982,-43.696 -50.453,-54.386 l 4.334,-6.528 c 0,0 32.71,23.568 50.408,56.448 0,0 16.681,27.497 18.779,62.728 0,0 5.257,32.59 -10.879,65.949 0,0 -2.366,8.645 -25.622,35.413 z" style="fill:#0068b7;fill-opacity:1;fill-rule:nonzero;stroke:none" id="path150"></path></g><g id="g152" transform="translate(252.5244,346.8574)"><path d="m 0,0 c 0,0 -0.464,-6.59 -5.226,-7.65 l -0.741,1.123 c 0,0 4.651,2.793 5.021,7.089 z" style="fill:#0068b7;fill-opacity:1;fill-rule:nonzero;stroke:none" id="path154"></path></g><g id="g156" transform="translate(266.3999,338.459)"><path d="m 0,0 c 0,0 -5.546,6.545 -15.003,8.398 0,0 0.106,7.879 11.748,7.331 0,0 9.436,0.369 14.624,-10.839 0,0 6.556,-12.703 11.558,-14.039 0,0 -10.201,-1.887 -22.927,9.149" style="fill:#0068b7;fill-opacity:1;fill-rule:nonzero;stroke:none" id="path158"></path></g><g id="g160" transform="translate(183.6401,502.4517)"><path d="m 0,0 c 0,0 1.103,-7.165 9.253,-23.696 0,0 4.435,-12.316 -5.016,-20.443 0,0 7.363,-17.746 8.958,-17.357 0,0 1.293,-10.011 -0.155,-8.756 0,0 -6.067,10.665 -10.687,25.535 0,0 -27.889,7.351 -2.353,44.717" style="fill:#0068b7;fill-opacity:1;fill-rule:nonzero;stroke:none" id="path162"></path></g><g id="g164" transform="translate(181.502,488.2134)"><path d="m 0,0 c 0,0 -1.301,-18.319 3.748,-25.304 1.163,-1.608 0.781,0.701 0.781,0.701 0,0 -3.488,6.465 -4.529,24.603" style="fill:#ffffff;fill-opacity:1;fill-rule:nonzero;stroke:none" id="path166"></path></g><g id="g168" transform="translate(220.7661,385.8418)"><path d="m 0,0 c 0,0 -20.958,20.149 4.993,46.184 0,0 -1.545,-11.127 5.002,-23.299 0,0 8.432,-12.184 -9.995,-22.885" style="fill:#0068b7;fill-opacity:1;fill-rule:nonzero;stroke:none" id="path170"></path></g><g id="g172" transform="translate(221.3369,410.5068)"><path d="m 0,0 c 0,0 3.395,-19.701 1.001,-20.529 -2.055,-0.731 -0.446,1.092 -0.446,1.092 0,0 0.615,2.466 -0.555,19.437" style="fill:#ffffff;fill-opacity:1;fill-rule:nonzero;stroke:none" id="path174"></path></g><g id="g176" transform="translate(219.7935,389.8379)"><path d="M 0,0 -1.907,-22.671 2.78,-29.341 2.436,2.193 Z" style="fill:#0068b7;fill-opacity:1;fill-rule:nonzero;stroke:none" id="path178"></path></g><g id="g180" transform="translate(210.5493,434.0664)"><path d="m 0,0 c 0,0 -20.076,22.353 8.723,47.39 0,0 -2.445,-11.399 3.379,-24.456 C 12.102,22.934 19.856,9.742 0,0" style="fill:#0068b7;fill-opacity:1;fill-rule:nonzero;stroke:none" id="path182"></path></g><g id="g184" transform="translate(213.0605,459.5186)"><path d="m 0,0 c 0,0 1.974,-20.597 -0.555,-21.287 -2.196,-0.606 -0.387,1.163 -0.387,1.163 0,0 0.849,2.508 0.942,20.124" style="fill:#ffffff;fill-opacity:1;fill-rule:nonzero;stroke:none" id="path186"></path></g><g id="g188" transform="translate(212.5054,438.2314)"><path d="m 0,0 -11.36,-24.689 1.669,-9.616 10.603,32.8 z" style="fill:#0068b7;fill-opacity:1;fill-rule:nonzero;stroke:none" id="path190"></path></g><g id="g192" transform="translate(230.4482,510.0107)"><path d="m 0,0 c 0,0 -14.029,-5.895 -24.058,-15.27 l 2.112,6.537 c 0,0 19.502,8.888 21.329,12.214 z" style="fill:#0068b7;fill-opacity:1;fill-rule:nonzero;stroke:none" id="path194"></path></g><g id="g196" transform="translate(243.7886,511.7959)"><path d="m 0,0 c 0,0 -7.782,0.964 -16.479,-3.141 0,0 -2.55,6.906 7.461,13.287 0,0 7.774,5.794 16.623,0.252 0,0 10.578,-5.909 15.317,-4.004 0,0 -7.813,-7.409 -22.922,-6.394" style="fill:#0068b7;fill-opacity:1;fill-rule:nonzero;stroke:none" id="path198"></path></g><g id="g200" transform="translate(242.1812,392.4824)"><path d="m 0,0 c 0,0 -1.001,-11.987 7.406,-19.46 0,0 4.782,-5.266 0.32,-14.928 0,0 -3.943,-5.417 -5.743,-7.836 0,0 -18.501,7.12 -12.637,25.154 0,0 4.899,13.863 10.654,17.07" style="fill:#0068b7;fill-opacity:1;fill-rule:nonzero;stroke:none" id="path202"></path></g><g id="g204" transform="translate(239.6899,376.1172)"><path d="m 0,0 c 0,0 -1.039,-16.102 2.215,-22.036 0.947,-1.741 1.446,0.91 1.446,0.91 0,0 -2.214,-1.341 -3.661,21.126" style="fill:#ffffff;fill-opacity:1;fill-rule:nonzero;stroke:none" id="path206"></path></g><g id="g208" transform="translate(244.1235,352.9492)"><path d="m 0,0 c 0,0 6.363,-17.312 4.669,-23.835 l -3.914,5.049 c 0,0 -0.143,14.326 -2.966,18.466 z" style="fill:#0068b7;fill-opacity:1;fill-rule:nonzero;stroke:none" id="path210"></path></g><g id="g212" transform="translate(216.728,541.8472)"><path d="m 0,0 c 0,0 -4.771,-4.474 -5.422,-18.261 0,0 2.058,-9.988 -5.587,-14.889 0,0 -4.612,-2.429 -7.373,-6.679 0,0 -9.842,7.38 -5.151,20.9 0,0 6.158,14.908 23.533,18.929" style="fill:#0068b7;fill-opacity:1;fill-rule:nonzero;stroke:none" id="path214"></path></g><g id="g216" transform="translate(202.688,523.2954)"><path d="m 0,0 c 0,0 -5.37,-15.335 -4.318,-16.787 0.904,-1.257 1.063,0.279 1.063,0.279 0,0 0.382,7.166 3.255,16.508" style="fill:#ffffff;fill-opacity:1;fill-rule:nonzero;stroke:none" id="path218"></path></g><g id="g220" transform="translate(202.3262,488.6396)"><path d="m 0,0 c 0,0 -4.446,13.316 -3.004,15.613 l -0.976,0.67 c 0,0 -3.479,-7.141 1.367,-22.424 z" style="fill:#0068b7;fill-opacity:1;fill-rule:nonzero;stroke:none" id="path222"></path></g><g id="g224" transform="translate(274.6035,558.0449)"><path d="m 0,0 c 0,0 -17.146,-9.116 -22.428,-17.259 0,0 -9.655,-13.21 -24.514,-10.213 0,0 -4.815,31.985 46.942,27.472" style="fill:#0068b7;fill-opacity:1;fill-rule:nonzero;stroke:none" id="path226"></path></g><g id="g228" transform="translate(250.8818,548.6045)"><path d="m 0,0 c 0,0 -19.626,-12.095 -19.708,-14.235 -0.066,-1.851 1.458,-0.4 1.458,-0.4 0,0 6.739,7.014 18.25,14.635" style="fill:#ffffff;fill-opacity:1;fill-rule:nonzero;stroke:none" id="path230"></path></g><g id="g232" transform="translate(187.4541,343.499)"><path d="m 0,0 c 0,0 7.23,-2.297 19.055,-13.386 0,0 12.763,-8.711 24.39,-0.895 0,0 12.079,-2.802 18.353,-2.193 0,0 -0.984,1.388 -1.754,3.103 0,0 -11.602,-1.685 -16.051,1.388 0,0 -9.373,29.272 -43.993,11.983" style="fill:#0068b7;fill-opacity:1;fill-rule:nonzero;stroke:none" id="path234"></path></g><g id="g236" transform="translate(203.9756,341.0566)"><path d="m 0,0 c 0,0 20.165,-4.15 22.718,-8.23 1.006,-1.622 -1.23,-0.804 -1.23,-0.804 0,0 -4.833,3.793 -21.488,9.034" style="fill:#ffffff;fill-opacity:1;fill-rule:nonzero;stroke:none" id="path238"></path></g><g id="g240" transform="translate(169.3447,397.9727)"><path d="m 0,0 c 0,0 5.938,-6.075 23.863,-12.628 0,0 16.458,-6.44 13.195,-21.452 0,0 1.445,-7.186 18.686,-5.741 0,0 1.589,-2.45 2.866,-5.274 0,0 -18.187,2.395 -23.39,7.973 0,0 -28.791,-17.541 -35.22,37.122" style="fill:#0068b7;fill-opacity:1;fill-rule:nonzero;stroke:none" id="path242"></path></g><g id="g244" transform="translate(180.3296,383.9316)"><path d="m 0,0 c 0,0 18.084,-20.508 20.795,-20.056 2.347,0.401 -1.138,1.95 -1.138,1.95 0,0 -10.146,8.148 -19.657,18.106" style="fill:#ffffff;fill-opacity:1;fill-rule:nonzero;stroke:none" id="path246"></path></g><g id="g248" transform="translate(164.1187,453.4072)"><path d="m 0,0 c 0,0 8.782,-6.358 18.553,-17.095 0,0 12.202,-10.677 6.463,-26.944 0,0 13.928,-14.845 15.046,-12.456 0,0 4.615,-9.94 2.608,-9.672 0,0 -10.428,9.676 -18.846,20.392 0,0 -30.831,-12.63 -23.824,45.775" style="fill:#0068b7;fill-opacity:1;fill-rule:nonzero;stroke:none" id="path250"></path></g><g id="g252" transform="translate(171.1543,436.7139)"><path d="m 0,0 c 0,0 11.004,-22.757 13.145,-24.676 1.494,-1.348 0.58,1.712 0.58,1.712 0,0 -5.867,10.651 -13.725,22.964" style="fill:#ffffff;fill-opacity:1;fill-rule:nonzero;stroke:none" id="path254"></path></g><g id="g256" transform="translate(232.6323,533.9697)"><path d="m 0,0 c 0,0 -22.345,-23.173 -24.017,-37.064 0,0 -16.015,-26.872 -8.913,-66.61 0,0 7.914,-43.664 18.043,-55.55 0,0 26.98,-43.696 50.45,-54.386 l -4.324,-6.528 c 0,0 -32.718,23.568 -50.412,56.448 0,0 -16.69,27.497 -18.775,62.728 0,0 -5.261,32.59 10.874,65.949 0,0 2.365,8.645 25.616,35.413 z" style="fill:#0068b7;fill-opacity:1;fill-rule:nonzero;stroke:none" id="path258"></path></g><g id="g260" transform="translate(287.4863,541.292)"><path d="m 0,0 c 0,-2.54 -1.825,-4.601 -5.484,-6.179 -1.785,-0.748 -3.558,-1.505 -5.31,-2.248 -1.954,-0.897 -3.525,-1.817 -4.698,-2.767 0.939,0.462 1.903,0.689 2.879,0.689 1.066,0 2.156,-0.209 3.266,-0.647 1.115,-0.428 2.243,-0.877 3.43,-1.334 0.524,0 1.03,0.247 1.532,0.737 0.513,0.497 1.033,1.017 1.583,1.55 l 0.213,-0.169 c 0,-0.604 -0.675,-1.483 -2.025,-2.655 -1.586,-1.377 -3.174,-2.056 -4.753,-2.056 -0.978,0 -2.377,0.519 -4.191,1.567 -0.89,0.513 -1.588,0.764 -2.078,0.764 -0.657,0 -1.268,-0.39 -1.834,-1.163 -0.562,-0.777 -0.881,-1.168 -0.966,-1.168 -0.122,0 -0.204,0.036 -0.266,0.106 -0.051,0.074 -0.08,0.125 -0.08,0.154 0.049,0.286 0.111,0.522 0.173,0.691 0.173,0.492 0.424,1.025 0.777,1.6 0.346,0.582 0.884,1.165 1.597,1.776 0.457,0.406 1.791,1.357 4.013,2.862 2.716,1.816 4.665,3.441 5.881,4.89 1.35,1.588 2.023,3.197 2.023,4.851 0,1.35 -0.702,2.025 -2.116,2.025 -1.354,0 -2.831,-0.602 -4.445,-1.812 -0.978,-0.714 -1.74,-1.491 -2.27,-2.313 -0.531,-0.817 -0.795,-1.499 -0.795,-2.054 0,-0.772 0.306,-1.163 0.952,-1.163 0.77,0 1.505,0.36 2.198,1.089 0.659,0.805 1.346,1.622 2.031,2.453 0.196,0 0.3,-0.14 0.3,-0.427 0,-0.404 -0.471,-1.106 -1.378,-2.116 -1.093,-1.212 -2.185,-1.813 -3.246,-1.813 -1.197,0 -1.808,0.601 -1.808,1.813 0,1.496 0.877,3.022 2.636,4.58 1.956,1.719 4.124,2.589 6.52,2.589 1.725,0 3.122,-0.442 4.163,-1.319 C -0.521,2.504 0,1.372 0,0" style="fill:#0068b7;fill-opacity:1;fill-rule:nonzero;stroke:none" id="path262"></path></g><g id="g264" transform="translate(304.4722,542.5034)"><path d="m 0,0 c 0,1.728 -0.728,2.58 -2.175,2.58 -0.833,0 -1.713,-0.369 -2.636,-1.119 -0.912,-0.748 -1.807,-1.829 -2.67,-3.226 -1.837,-3.021 -3.236,-5.543 -4.165,-7.568 -0.941,-2.024 -1.401,-3.41 -1.401,-4.156 0,-1.294 0.641,-1.944 1.933,-1.944 1.67,0 3.588,1.385 5.741,4.138 1.772,2.245 3.133,4.538 4.15,6.899 C -0.417,-2.501 0,-1.039 0,0 m 1.887,-1.079 c 0,-1.523 -0.495,-3.216 -1.481,-5.083 -0.999,-1.867 -2.477,-3.81 -4.431,-5.824 -2.795,-2.87 -5.286,-4.304 -7.475,-4.304 -1.261,0 -2.365,0.585 -3.306,1.765 -0.934,1.178 -1.399,2.586 -1.399,4.22 0,3.51 2.136,6.969 6.43,10.388 2.815,2.273 5.339,3.408 7.522,3.408 1.267,0 2.275,-0.407 3.023,-1.206 0.738,-0.806 1.117,-1.923 1.117,-3.364" style="fill:#0068b7;fill-opacity:1;fill-rule:nonzero;stroke:none" id="path266"></path></g><g id="g268" transform="translate(322.6436,542.5034)"><path d="m 0,0 c 0,1.728 -0.72,2.58 -2.165,2.58 -0.83,0 -1.707,-0.369 -2.633,-1.119 -0.919,-0.748 -1.799,-1.829 -2.681,-3.226 -1.836,-3.021 -3.229,-5.543 -4.153,-7.568 -0.942,-2.024 -1.406,-3.41 -1.406,-4.156 0,-1.294 0.645,-1.944 1.937,-1.944 1.677,0 3.584,1.385 5.744,4.138 1.754,2.245 3.139,4.538 4.144,6.899 C -0.402,-2.501 0,-1.039 0,0 m 1.9,-1.079 c 0,-1.523 -0.498,-3.216 -1.494,-5.083 -0.992,-1.867 -2.467,-3.81 -4.418,-5.824 -2.797,-2.87 -5.283,-4.304 -7.484,-4.304 -1.263,0 -2.353,0.585 -3.294,1.765 -0.941,1.178 -1.41,2.586 -1.41,4.22 0,3.51 2.147,6.969 6.436,10.388 2.822,2.273 5.333,3.408 7.52,3.408 1.274,0 2.273,-0.407 3.023,-1.206 C 1.522,1.479 1.9,0.362 1.9,-1.079" style="fill:#0068b7;fill-opacity:1;fill-rule:nonzero;stroke:none" id="path270"></path></g><g id="g272" transform="translate(342.0361,541.292)"><path d="m 0,0 c 0,-2.54 -1.836,-4.601 -5.486,-6.179 -1.791,-0.748 -3.559,-1.505 -5.315,-2.248 -1.956,-0.897 -3.521,-1.817 -4.697,-2.767 0.942,0.462 1.913,0.689 2.876,0.689 1.08,0 2.163,-0.209 3.27,-0.647 1.113,-0.428 2.251,-0.877 3.435,-1.334 0.516,0 1.023,0.247 1.539,0.737 0.497,0.497 1.019,1.017 1.567,1.55 l 0.229,-0.169 c 0,-0.604 -0.69,-1.483 -2.043,-2.655 -1.585,-1.377 -3.166,-2.056 -4.746,-2.056 -0.978,0 -2.373,0.519 -4.183,1.567 -0.901,0.513 -1.585,0.764 -2.08,0.764 -0.657,0 -1.274,-0.39 -1.836,-1.163 -0.564,-0.777 -0.888,-1.168 -0.972,-1.168 -0.109,0 -0.203,0.036 -0.262,0.106 -0.056,0.074 -0.076,0.125 -0.076,0.154 0.055,0.286 0.113,0.522 0.167,0.691 0.171,0.492 0.432,1.025 0.781,1.6 0.34,0.582 0.871,1.165 1.594,1.776 0.464,0.406 1.799,1.357 4.012,2.862 2.719,1.816 4.673,3.441 5.881,4.89 1.347,1.588 2.025,3.197 2.025,4.851 0,1.35 -0.7,2.025 -2.118,2.025 -1.353,0 -2.833,-0.602 -4.441,-1.812 -0.981,-0.714 -1.743,-1.491 -2.273,-2.313 -0.529,-0.817 -0.793,-1.499 -0.793,-2.054 0,-0.772 0.311,-1.163 0.939,-1.163 0.78,0 1.512,0.36 2.205,1.089 0.666,0.805 1.337,1.622 2.031,2.453 0.203,0 0.309,-0.14 0.309,-0.427 0,-0.404 -0.466,-1.106 -1.39,-2.116 -1.087,-1.212 -2.175,-1.813 -3.234,-1.813 -1.213,0 -1.819,0.601 -1.819,1.813 0,1.496 0.886,3.022 2.647,4.58 1.946,1.719 4.12,2.589 6.514,2.589 1.722,0 3.114,-0.442 4.166,-1.319 C -0.526,2.504 0,1.372 0,0" style="fill:#0068b7;fill-opacity:1;fill-rule:nonzero;stroke:none" id="path274"></path></g><g id="g276" transform="translate(279.5474,303.3887)"><path d="m 0,0 -5.961,-16.387 h 9.697 c 0,0 0.744,2.042 1.043,2.862 H 23.652 L 28.73,0 Z" style="fill:#ffffff;fill-opacity:1;fill-rule:nonzero;stroke:none" id="path278"></path></g><g id="g280" transform="translate(332.3516,303.5508)"><path d="m 0,0 h -16.703 c -5.125,0 -10.362,-3.401 -11.949,-7.743 -0.784,-2.171 -0.569,-4.29 0.604,-5.985 1.323,-1.878 3.712,-2.955 6.54,-2.955 h 20.652 l 2.807,7.722 h -20.573 c -0.801,0 -0.077,1.403 1.33,1.403 H 2.456 L 5.211,0 Z" style="fill:#ffffff;fill-opacity:1;fill-rule:nonzero;stroke:none" id="path282"></path></g><g id="g284" transform="translate(282.0693,288.7402)"><path d="m 0,0 h -5.992 l 4.7,12.915 h 25.02 L 22.223,8.791 H 3.195 L 2.5,6.887 H 21.364 L 19.907,2.87 H 1.043 Z" style="fill:#0068b7;fill-opacity:1;fill-rule:nonzero;stroke:none" id="path286"></path></g><g id="g288" transform="translate(310.8437,288.6094)"><path d="m 0,0 c -4.365,0 -6.84,2.946 -5.51,6.604 1.33,3.636 5.943,6.592 10.315,6.592 H 24.232 L 22.749,9.125 H 4.216 C 2.588,9.125 0.884,8.033 0.396,6.683 -0.093,5.334 0.828,4.233 2.438,4.233 H 20.976 L 19.428,0 Z" style="fill:#0068b7;fill-opacity:1;fill-rule:nonzero;stroke:none" id="path290"></path></g><g id="g292" transform="translate(252.4268,316.9082)"><path d="m 0,0 c -0.648,-1.761 -1.452,-3.992 -1.507,-4.147 -0.12,-0.149 -0.487,-0.332 -0.775,-0.332 h -8.204 c 0.771,2.125 1.128,3.102 1.63,4.479 z m -18.049,7.082 -5.519,-15.167 4.411,-5.772 h 17.203 c 4.738,0 9.34,2.801 10.692,6.504 l 2.86,7.839 C 12.29,2.42 12.055,4.449 10.934,6.047 9.569,7.996 7.109,9.104 4.174,9.104 h -15.967 l -5.517,0.007 z" style="fill:#ffffff;fill-opacity:1;fill-rule:nonzero;stroke:none" id="path294"></path></g><g id="g296" transform="translate(347.3506,325.7393)"><path d="m 0,0 h -18.491 c -4.736,0 -9.33,-2.81 -10.667,-6.514 l -2.699,-7.377 c -0.718,-1.973 -0.469,-4.069 0.694,-5.716 1.367,-1.958 3.809,-3.081 6.667,-3.081 h 16.293 l 6.358,4.017 4.411,12.073 H 2.017 C 2.249,-5.928 4.394,0 4.394,0 Z" style="fill:#ffffff;fill-opacity:1;fill-rule:nonzero;stroke:none" id="path298"></path></g><g id="g300" transform="translate(377.4814,325.7393)"><path d="m 0,0 h -7.855 c 0,0 -4.735,-13.024 -4.822,-13.249 -0.127,-0.142 -0.474,-0.337 -0.761,-0.337 h -7.373 c 0.957,2.635 4.94,13.586 4.94,13.586 h -12.06 l -5.162,-14.212 c -0.708,-1.963 -0.464,-4.036 0.694,-5.684 1.365,-1.958 3.8,-3.072 6.679,-3.072 h 13.445 c 4.663,0 9.386,2.916 10.735,6.652 L 4.398,0 Z" style="fill:#ffffff;fill-opacity:1;fill-rule:nonzero;stroke:none" id="path302"></path></g><g id="g304" transform="translate(318.9141,325.7393)"><path d="m 0,0 h -25.402 l -6.33,-17.401 4.918,-5.014 h 23.319 l 3.293,9.007 h -0.282 c 0.16,0.439 2.531,6.96 2.531,6.96 H 2.04 C 2.271,-5.81 4.394,0 4.394,0 Z" style="fill:#ffffff;fill-opacity:1;fill-rule:nonzero;stroke:none" id="path306"></path></g><g id="g308" transform="translate(272.9756,326.1592)"><path d="m 0,0 c -4.662,0 -9.384,-2.924 -10.749,-6.653 l -5.932,-16.314 h 11.77 c 0,0 1.803,4.951 2.547,7.005 h 7.277 c -0.502,-1.397 -2.546,-7.005 -2.546,-7.005 h 12.157 l 5.173,14.202 c 0.71,1.972 0.46,4.04 -0.687,5.686 C 17.641,-1.121 15.206,0 12.331,0 Z" style="fill:#ffffff;fill-opacity:1;fill-rule:nonzero;stroke:none" id="path310"></path></g><g id="g312" transform="translate(253.7676,311.583)"><path d="m 0,0 c -0.444,-1.233 -2.073,-2.237 -3.623,-2.237 h -12.594 l 3.863,10.646 H 0.249 c 1.554,0 2.444,-1.006 1.993,-2.249 z m 2.833,11.347 h -15.967 -3.361 l -4.953,-13.578 2.473,-3.22 h 15.681 c 3.403,0 6.884,2.005 7.803,4.475 l 2.853,7.849 c 0.901,2.471 -1.13,4.474 -4.529,4.474" style="fill:#0068b7;fill-opacity:1;fill-rule:nonzero;stroke:none" id="path314"></path></g><g id="g316" transform="translate(345.5059,316.0693)"><path d="m 0,0 h -15.569 l -1.104,-3.041 h 10.431 l -1.426,-3.916 h -12.033 c -1.558,0 -2.451,0.965 -2.007,2.206 l 2.242,6.154 c 0.46,1.239 2.067,2.246 3.619,2.246 H 0.777 l 1.068,2.94 h -18.491 c -3.395,0 -6.886,-2.012 -7.791,-4.493 l -2.692,-7.371 c -0.897,-2.468 1.071,-4.663 4.478,-4.663 h 15.403 l 4.722,2.981 z" style="fill:#0068b7;fill-opacity:1;fill-rule:nonzero;stroke:none" id="path318"></path></g><g id="g320" transform="translate(373.0518,310.4766)"><path d="M 0,0 C -0.895,-2.48 -4.434,-4.624 -7.846,-4.624 H -21.29 c -3.412,0 -5.386,2.144 -4.482,4.624 l 4.44,12.182 h 5.492 l -4.12,-11.34 c -0.45,-1.241 0.439,-2.247 1.987,-2.247 h 8.964 c 1.536,0 3.16,1.006 3.615,2.247 l 4.123,11.34 H 4.43 Z" style="fill:#0068b7;fill-opacity:1;fill-rule:nonzero;stroke:none" id="path322"></path></g><g id="g324" transform="translate(295.6631,322.6582)"><path d="M 0,0 H 3.356 23.251 L 22.228,-2.792 H 4.48 L 3.155,-6.451 H 20.897 L 19.765,-9.528 H 2.029 l -1.403,-3.876 h 18.019 l -1.032,-2.842 H -2.269 l -2.651,2.7 z" style="fill:#0068b7;fill-opacity:1;fill-rule:nonzero;stroke:none" id="path326"></path></g><g id="g328" transform="translate(269.4751,316.0693)"><path d="M 0,0 0.566,1.545 C 1.017,2.783 2.75,4.076 4.287,4.076 h 8.234 c 1.547,0 2.329,-1.293 1.867,-2.531 L 13.831,0 Z M 15.831,7.011 H 3.5 c -3.412,0 -6.953,-2.154 -7.847,-4.624 L -8.774,-9.795 h 5.211 l 2.544,6.988 h 13.828 l -2.546,-6.988 h 5.606 L 20.3,2.387 c 0.901,2.47 -1.072,4.624 -4.469,4.624" style="fill:#0068b7;fill-opacity:1;fill-rule:nonzero;stroke:none" id="path330"></path></g><g id="g332" transform="translate(305.8179,514.0732)"><path d="M 0,0 C 25.495,0 50.979,-18.364 76.468,-18.364 73.102,-82.463 79.154,-118.401 0,-183.866 -79.14,-118.401 -73.103,-82.463 -76.466,-18.364 -50.984,-18.364 -25.487,0 0,0" style="fill:#d5d8dd;fill-opacity:1;fill-rule:nonzero;stroke:none" id="path334"></path></g><g id="g336" transform="translate(305.8179,508.6016)"><path d="M 0,0 C 23.554,0 47.121,-16.98 70.684,-16.98 67.582,-76.235 73.165,-109.459 0,-169.979 -73.159,-109.459 -67.586,-76.235 -70.686,-16.98 -47.126,-16.98 -23.564,0 0,0" style="fill:#ffffff;fill-opacity:1;fill-rule:nonzero;stroke:none" id="path338"></path></g><g id="g340" transform="translate(305.8179,505.9482)"><path d="M 0,0 C 22.823,0 45.652,-16.445 68.485,-16.445 65.474,-73.858 70.88,-106.043 0,-164.681 -70.885,-106.043 -65.469,-73.858 -68.483,-16.445 -45.654,-16.445 -22.827,0 0,0" style="fill:#a0d2f2;fill-opacity:1;fill-rule:nonzero;stroke:none" id="path342"></path></g><g id="g344" transform="translate(332.9687,422.3369)"><path d="m 0,0 c -13.831,-13.804 -34.801,-7.917 -42.494,4.588 -5.162,8.376 -4.851,16.933 -1.299,22.564 3.536,5.627 8.37,8.791 17.348,9.567 11.231,0.98 20.838,-9.956 15.893,-21.718 C -15.48,3.238 -30.111,3.542 -37.925,11.517 -36.052,-1.355 -18.664,-12.006 0,0 m -79.916,11.517 c 1.086,-21.492 14.817,-33.364 29.261,-46.121 12.623,-11.162 15.638,-23.084 18.557,-35.369 3.282,12.103 4.199,24.87 -0.717,33.682 15.345,-9.288 34.125,-6.939 49.075,1.987 -7.688,-0.407 -18.415,-0.397 -24.8,2.622 30.408,6.257 32.422,28.569 42.321,49.791 8.906,19.138 28.285,18.339 41.675,17.979 C 54.283,46.796 29.831,45.222 16.573,25.765 23.273,39.691 34.444,42.46 47.858,47.109 64.201,52.774 73.313,78.455 70.215,97.207 62.634,75.996 53.879,67.695 34.972,60.151 c 4.634,3.81 6.67,14.243 0.821,21.818 C 35.413,75.259 32.1,69.225 26.229,64.483 14.047,54.688 11.496,50.856 10.47,34.403 5.835,61.455 -28.075,70.035 -50.142,58.929 c 1.334,6.012 -4.651,14.758 -10.291,18.482 1.12,-9.099 -0.262,-17.685 -7.006,-26.895 C -76.031,38.792 -80.64,26.219 -79.916,11.517" style="fill:#231916;fill-opacity:1;fill-rule:nonzero;stroke:none" id="path346"></path></g><g id="g348" transform="translate(253.1592,437.8662)"><path d="m 0,0 c -0.928,23.649 -17.567,25.647 -31.11,31.144 -17.372,7.064 -25.682,31.781 -22.567,50.533 7.575,-21.211 16.326,-29.511 35.226,-37.055 -4.632,3.81 -6.649,14.243 -0.804,21.817 0.371,-6.71 3.674,-12.744 9.567,-17.485 C 2.467,39.159 10.448,30.731 0,0" style="fill:#231916;fill-opacity:1;fill-rule:nonzero;stroke:none" id="path350"></path></g><g id="g352" transform="translate(379.2686,472.6797)"><path d="m 0,0 c 11.367,4.761 19.795,21.725 21.6,35.282 0,0 -6.352,-17.572 -24.288,-24.596 C -20.617,3.661 -25.811,-5.53 -30.45,-21.48 -24.092,-6.82 -11.378,-4.752 0,0" style="fill:#f39700;fill-opacity:1;fill-rule:nonzero;stroke:none" id="path354"></path></g><g id="g356" transform="translate(223.4077,472.6797)"><path d="m 0,0 c -11.389,4.761 -19.814,21.725 -21.617,35.282 0,0 6.357,-17.572 24.282,-24.596 C 20.6,3.661 25.793,-5.53 30.427,-21.48 24.062,-6.82 11.36,-4.752 0,0" style="fill:#f39700;fill-opacity:1;fill-rule:nonzero;stroke:none" id="path358"></path></g><g id="g360" transform="translate(361.3887,479.415)"><path d="m 0,0 c 5.701,4.293 9.048,12.494 8.04,18.317 0,0 -0.959,-8.399 -10.041,-14.965 C -11.074,-3.225 -12.637,-8.012 -12.874,-15.374 -11.465,-8.163 -5.73,-4.279 0,0" style="fill:#f39700;fill-opacity:1;fill-rule:nonzero;stroke:none" id="path362"></path></g><g id="g364" transform="translate(241.2773,479.415)"><path d="m 0,0 c -5.721,4.293 -9.049,12.494 -8.067,18.317 0,0 0.979,-8.399 10.048,-14.965 9.086,-6.577 10.654,-11.364 10.88,-18.726 C 11.447,-8.163 5.701,-4.279 0,0" style="fill:#f39700;fill-opacity:1;fill-rule:nonzero;stroke:none" id="path366"></path></g><g id="g368" transform="translate(341.4629,449.4893)"><path d="m 0,0 c -1.529,28.966 -36.611,40.768 -62.167,26.436 0,0 2.984,9.221 -3.929,17.67 1.325,-9.383 -1.057,-14.839 -8.934,-25.873 -7.548,-10.548 -12.294,-25.908 -8.305,-42.056 3.994,-16.146 17.606,-27.168 23.704,-32.24 6.118,-5.076 15.183,-12.797 18.682,-28.827 0.621,16.924 -3.259,23.765 -11.965,32.849 24.031,-21.353 49.324,-11.849 49.324,-11.849 -16.42,-0.499 -25.69,5.393 -28.558,8.357 8.165,-2.917 22.2,1.336 29.429,6.487 13.142,9.815 18.602,27.801 23.257,39.04 4.083,9.833 15.27,23.246 34.972,20.869 C 33.968,17.388 14.315,7.828 5.1,-11.596 c -8.661,-18.214 -16.338,-24.26 -28.069,-26.417 -11.718,-2.15 -25.233,4.275 -31.749,13.856 1.285,-7.695 12.403,-22.587 32.169,-22.272 -21.319,-4.213 -34.893,12.883 -38.434,23.082 -5.615,19.534 4.588,38.134 25.682,41.025 -4.764,-1.505 -11.908,-5.763 -14.14,-10.585 3.25,3.261 11.233,6.758 19.132,5.288 7.917,-1.465 15.639,-7.537 15.659,-19.323 0.027,-11.776 -13.959,-22.329 -26.67,-14.353 3.179,-5.947 14.535,-9.673 23.507,-6.782 C -8.845,-25.2 0.835,-15.636 0,0" style="fill:#f39700;fill-opacity:1;fill-rule:nonzero;stroke:none" id="path370"></path></g></g></g></g></svg>