
<svg xmlns="http://www.w3.org/2000/svg" width="84.763mm" height="115.419mm" viewBox="0 0 84.763 115.419" version="1.1" id="svg228">
  <defs id="defs222"></defs>
  <g id="layer1">
    <path id="path78" style="fill:#c70026;fill-opacity:1;fill-rule:nonzero;stroke:none;stroke-width:0.516036" d="m 20.129221,83.103621 c 0,0 -6.735757,3.3585 -7.61405,6.43304 -0.714194,2.50329 0.858105,7.43098 2.945472,10.17113 5.302272,6.957209 13.979332,7.918549 13.979332,7.918549 0,0 -1.359714,-4.83338 1.585821,-9.062299 0,0 -6.418898,0 -9.816481,-5.73987 -3.39913,-5.73884 -1.080094,-9.72055 -1.080094,-9.72055 z m -3.609018,6.14175 c 0.631283,0.002 1.066383,0.30698 1.282796,0.73014 0.123333,0.24202 0.159459,0.44924 0.154299,0.57876 l -0.685253,0.21121 c 0.0036,-0.11559 -0.02276,-0.2508 -0.103257,-0.40716 -0.214671,-0.42109 -0.726644,-0.58475 -1.708145,-0.0842 -0.903064,0.46133 -1.073968,0.92474 -0.926382,1.21269 0.02941,0.0573 0.05789,0.0976 0.08008,0.11616 l 0.908781,-0.46407 -0.145498,-0.28484 0.597542,-0.3039 0.437084,0.85774 -2.00677,1.02377 c -0.13675,-0.10321 -0.354042,-0.36166 -0.471698,-0.59491 -0.186805,-0.36483 -0.204979,-0.70188 -0.06307,-1.04401 0.17184,-0.43347 0.653993,-0.86443 1.306263,-1.1854 0.515133,-0.25602 0.964455,-0.36336 1.343224,-0.36199 z m 1.549446,1.8205 0.312119,0.65269 -1.437975,0.88355 c -0.418506,0.25389 -0.840764,0.48985 -1.284556,0.75096 l 0.0067,0.0144 c 0.489202,-0.18113 0.936452,-0.30649 1.425654,-0.45821 l 1.623075,-0.49458 0.243183,0.50837 -1.39808,0.93459 c -0.401992,0.26267 -0.79739,0.52329 -1.275755,0.79937 l 0.0041,0.01 c 0.517584,-0.19351 0.942388,-0.35085 1.40424,-0.51805 l 1.583767,-0.56557 0.293052,0.61632 -4.079249,1.25024 -0.310065,-0.64712 1.150203,-0.78705 c 0.330779,-0.22292 0.743163,-0.47867 1.185406,-0.74392 l -0.0053,-0.009 c -0.484558,0.16151 -0.933595,0.31205 -1.337652,0.423 l -1.346744,0.37783 -0.297745,-0.62336 z m 1.807882,3.74014 0.500446,0.66853 -2.955446,3.08804 -0.405109,-0.53976 0.679386,-0.70226 -0.387214,-0.51512 -0.866247,0.45058 -0.405109,-0.53917 z m -0.388095,0.77589 c -0.247181,0.14037 -0.630737,0.36029 -0.847472,0.4764 l -0.780589,0.42007 0.306545,0.40804 0.634503,-0.62365 c 0.184225,-0.18371 0.490431,-0.47317 0.695814,-0.66824 z m 1.430642,0.53947 0.459084,0.44324 -0.748322,1.57262 c -0.149651,0.30859 -0.396749,0.81837 -0.579942,1.15431 l 0.0073,0.008 c 0.292592,-0.33543 0.766641,-0.89524 1.305383,-1.45411 l 0.647704,-0.67147 0.440311,0.42535 -2.928165,3.035819 -0.459085,-0.44236 0.717228,-1.534189 c 0.163583,-0.33749 0.414959,-0.83549 0.621891,-1.16575 l -0.0079,-0.008 c -0.283304,0.3184 -0.716575,0.8052 -1.307436,1.41774 l -0.655625,0.68055 -0.440604,-0.42476 z m 2.088319,2.20595 c 0.03517,-0.001 0.06999,-0.001 0.104431,3e-4 0.250479,0.0106 0.480623,0.0923 0.677039,0.22646 0.22396,0.15326 0.355456,0.31849 0.412736,0.43356 l -0.500152,0.51482 c -0.05212,-0.10321 -0.140712,-0.20937 -0.285718,-0.30948 -0.39064,-0.26576 -0.916991,-0.16372 -1.538299,0.74656 -0.570736,0.837019 -0.499494,1.325709 -0.231155,1.508379 0.05264,0.0366 0.09548,0.0583 0.124378,0.0619 l 0.574662,-0.84102 -0.26313,-0.1807 0.377241,-0.552659 0.79467,0.543569 -1.269888,1.86068 c -0.16926,-0.0253 -0.484147,-0.14914 -0.699334,-0.29569 -0.338004,-0.23119 -0.515425,-0.51959 -0.554127,-0.88649 -0.0578,-0.4634 0.15998,-1.07437 0.576421,-1.666779 0.56642,-0.81122 1.17261,-1.14416 1.700225,-1.16341 z m 1.927861,0.94398 0.627463,0.31534 -1.288955,2.567649 c -0.545967,1.08367 -1.074496,1.02137 -1.530672,0.79173 -0.128493,-0.0645 -0.231088,-0.14359 -0.286304,-0.21326 l 0.361693,-0.58815 c 0.05315,0.0475 0.109879,0.0897 0.190381,0.12995 0.181645,0.0913 0.375236,0.0831 0.619837,-0.40247 z m 1.109135,0.54738 0.656798,0.228509 -0.901447,2.5876 c -0.204351,0.58415 -0.11566,0.81475 0.05515,0.87358 0.190418,0.0676 0.381943,-0.0459 0.59197,-0.64712 l 0.903207,-2.58789 0.657385,0.22969 -0.855099,2.45119 c -0.357097,1.02124 -0.876196,1.46284 -1.529498,1.23527 -0.70697,-0.24718 -0.783425,-0.91642 -0.435616,-1.91495 z"></path>
    <path id="path114" style="fill:#c70026;fill-opacity:1;fill-rule:nonzero;stroke:none;stroke-width:0.516036" d="m 5.3760462,69.21669 c -1.024848,0.45102 -1.854047,1.35772 -2.495482,2.33561 -1.642543,2.70042 -1.580834,4.50665 -1.580834,4.50665 0.350905,5.725941 10.6453158,4.710211 21.8453658,4.122961 9.575052,-0.50262 10.150014,1.96042 10.150014,1.96042 0,0 0.370075,-0.66141 0.7184,-3.116201 0.165647,-1.17347 0.122324,-3.08393 0.122324,-3.08393 C 34.019211,70.56665 19.178522,71.73538 12.050513,71.96914 6.9856182,72.13479 5.6975362,70.29572 5.3760462,69.21669 Z m 1.936074,4.41308 c 0.052,6.1e-4 0.10517,0.005 0.159579,0.0129 0.952087,0.14294 1.06305,1.22817 0.927849,2.12762 -0.223444,1.48361 -0.839551,2.00494 -1.587287,1.89296 -0.893259,-0.13469 -1.100667,-1.13329 -0.938116,-2.21387 0.151909,-1.00724 0.657988,-1.82884 1.437975,-1.81962 z m 1.563819,0.2555 0.77091,0.0634 -0.212089,2.57762 c -0.04799,0.58364 0.11476,0.77353 0.314466,0.79056 0.223443,0.0181 0.3956858,-0.12734 0.4447098,-0.72749 l 0.212968,-2.57762 0.771203,0.0625 -0.201821,2.44327 c -0.08308,1.01814 -0.51187,1.53943 -1.2766348,1.47699 -0.830303,-0.0686 -1.106996,-0.66613 -1.024946,-1.66209 z m 14.0975508,0.0522 c 0.50107,0.002 0.849389,0.12227 1.101215,0.35964 0.3411,0.30859 0.515063,0.83553 0.51042,1.60959 -0.0036,0.80088 -0.212024,1.37376 -0.562929,1.67822 -0.265758,0.25905 -0.662124,0.38056 -1.217379,0.37695 -0.242537,-4.5e-4 -0.48455,-0.0257 -0.636265,-0.0437 l 0.01848,-3.90852 c 0.195577,-0.0464 0.478383,-0.0737 0.786456,-0.0722 z m -1.602835,0.0337 0.106191,3.97863 -0.77355,0.0202 -0.106777,-3.97863 z m 3.901189,0.0208 1.726626,0.0895 -0.03403,0.67175 -0.955716,-0.0496 -0.04664,0.91406 0.907902,0.0463 -0.03373,0.6436 -0.907608,-0.0469 -0.05515,1.07335 1.025826,0.0519 -0.0352,0.67235 -1.797615,-0.0945 z m -6.519288,0.0634 c 0.361789,-10e-4 0.682897,0.0548 0.919048,0.25169 0.251825,0.20744 0.333235,0.46903 0.3482,0.81168 0.02013,0.42418 -0.168655,0.81684 -0.567035,1.02377 v 0.012 c 0.276079,0.0944 0.423307,0.34087 0.519806,0.76299 0.09598,0.43915 0.22474,0.92387 0.302145,1.06836 l -0.808457,0.037 c -0.05212,-0.11043 -0.159395,-0.50809 -0.237316,-0.94104 -0.0934,-0.4923 -0.223572,-0.62914 -0.483139,-0.61779 l -0.111471,0.006 0.07128,1.58582 -0.772963,0.0346 -0.176007,-3.91586 c 0.238925,-0.0583 0.544238,-0.10164 0.838378,-0.11558 0.05322,-0.002 0.105842,-0.004 0.157527,-0.004 z m -6.484087,0.0469 c 0.07423,-0.001 0.148726,-4.5e-4 0.222648,0.002 0.424182,0.0139 0.799885,0.084 1.052227,0.32855 0.235313,0.22654 0.297727,0.49507 0.286891,0.83721 -0.01445,0.42418 -0.2326,0.80226 -0.645945,0.97771 v 0.0114 c 0.268339,0.11456 0.39458,0.37355 0.459084,0.80083 0.06192,0.44482 0.152783,0.93859 0.218835,1.08772 l -0.808457,-0.0252 c -0.04386,-0.11353 -0.119965,-0.51855 -0.16486,-0.95718 -0.05522,-0.49798 -0.173774,-0.64304 -0.433857,-0.65181 l -0.112644,-0.003 -0.04987,1.58728 -0.77355,-0.0243 0.124965,-3.91997 c 0.183064,-0.0294 0.401844,-0.048 0.624531,-0.0513 z m 3.706408,0.0364 c 0.460303,-0.008 0.821679,0.0513 1.085374,0.28923 0.239441,0.20281 0.350808,0.53097 0.357,0.86742 0.0072,0.43141 -0.117601,0.7349 -0.320919,0.96247 -0.243053,0.26369 -0.642379,0.38851 -0.96129,0.39366 -0.05367,0.002 -0.105721,0.003 -0.153712,0.004 l 0.02464,1.4811 -0.772376,0.0129 -0.06571,-3.92025 c 0.216219,-0.0495 0.511818,-0.0859 0.806991,-0.0901 z m -8.6888648,0.16251 c -0.277416,0.0172 -0.500445,0.48538 -0.620424,1.27927 -0.133653,0.8943 -0.03365,1.37481 0.275451,1.42126 0.32149,0.049 0.531716,-0.51668 0.652985,-1.31653 0.103723,-0.68839 0.09273,-1.32976 -0.251983,-1.38136 -0.01897,-0.003 -0.03754,-0.004 -0.05603,-0.003 z m 15.8253488,0.25697 c -0.05263,-4.5e-4 -0.106682,-6.2e-4 -0.153125,0.017 l -0.01467,2.74424 c 0.03561,0.0119 0.09498,0.0119 0.135232,0.0129 0.373094,0.002 0.69923,-0.36273 0.704906,-1.46086 0.0041,-0.81379 -0.205848,-1.3102 -0.672345,-1.3133 z m -4.37582,0.0983 c -0.06554,0.003 -0.141916,0.0118 -0.182167,0.032 l 0.0531,1.18541 0.135819,-0.006 c 0.336455,-0.0155 0.519082,-0.29447 0.503085,-0.64331 -0.01548,-0.33542 -0.162024,-0.57123 -0.509833,-0.56762 z m -6.151434,0.0537 c -0.06502,-0.002 -0.142421,0.001 -0.18422,0.017 l -0.03784,1.18746 0.135232,0.004 c 0.336455,0.0103 0.540873,-0.25508 0.551194,-0.60341 0.01135,-0.33645 -0.116556,-0.58195 -0.464364,-0.60517 z m 3.555042,0.0522 c -0.07121,0.001 -0.141438,0.0137 -0.188914,0.0323 l 0.02053,1.22824 c 0.03509,0.0108 0.07705,0.01 0.123499,0.01 0.389607,-0.007 0.562889,-0.28767 0.55618,-0.65973 -0.0057,-0.34832 -0.151106,-0.61642 -0.511299,-0.61074 z"></path>
    <path id="path122" style="fill:#c70026;fill-opacity:1;fill-rule:nonzero;stroke:none;stroke-width:0.516036" d="m 25.578974,80.910581 c -0.614599,0 -1.269067,0.016 -1.948687,0.0469 -0.576929,0.49075 -1.143007,1.01834 -1.666784,1.59785 -0.979436,1.08574 -1.388648,2.33705 -1.467602,3.58173 0.396832,-0.61666 1.034897,-1.41706 1.885325,-1.88562 0,0 -1.151285,1.35212 -1.831936,3.40749 0.03561,0.28124 0.08235,0.55661 0.139632,0.82753 0.33852,-0.61047 1.072286,-1.73388 2.150802,-2.32681 0,0 -1.171172,1.37477 -1.849244,3.46058 0.06038,0.18991 0.122649,0.37361 0.187154,0.55061 0.31633,-0.58673 1.068731,-1.78889 2.19627,-2.40865 0,0 -1.128616,1.32751 -1.810816,3.34882 0.409217,0.91184 0.778243,1.48902 0.778243,1.48902 0.226024,-4.38063 5.192917,-6.99705 9.313982,-9.2867 0.568672,-0.31478 1.567094,-1.12338 -0.924329,-1.86802 -1.042909,1.5316 -2.123814,1.45264 -2.123814,1.45264 0.628532,-0.4603 1.086542,-1.06472 1.41216,-1.62307 -0.346776,-0.0712 -0.739478,-0.13613 -1.184818,-0.1898 -1.008851,1.37524 -2.017037,1.30187 -2.017037,1.30187 0.537194,-0.39374 0.949473,-0.89276 1.261675,-1.3799 -0.403024,-0.033 -0.843586,-0.0592 -1.322984,-0.0763 -0.903579,1.00679 -1.729852,0.94545 -1.729852,0.94545 0.384447,-0.28124 0.704989,-0.6162 0.971263,-0.96246 -0.137781,-0.001 -0.276176,-0.003 -0.418603,-0.003 z"></path>
    <path id="path130" style="fill:#c70026;fill-opacity:1;fill-rule:nonzero;stroke:none;stroke-width:0.516036" d="m 9.8269612,60.15 c 0,0 -1.521669,1.45149 -4.663297,3.22356 -1.636351,0.92113 -3.167943,2.20984 -4.13293,4.01442 0.381865,-0.28433 0.832136,-0.50739 1.341464,-0.55383 0,0 -1.055618,0.59292 -1.92668801,1.93255 -0.110431,0.34058 -0.202994,0.69623 -0.273689,1.06777 0.438631,-0.58208 1.11368401,-1.23948 2.00178201,-1.3752 0,0 -1.36541101,0.87768 -2.16165601,2.75656 -0.01703,0.35917 -0.01602,0.73187 0.0041,1.11735 0.267821,-0.65433 0.917595,-1.9028 2.08538501,-2.25112 0,0 -1.54251701,1.32052 -1.91612601,3.76859 0.06399,0.37671 0.14455,0.76319 0.242595,1.16312 0,0 2.73792001,-9.93252 9.31222201,-5.95285 0,0 0.5327598,-3.80415 -3.100651,-3.89033 0,0 3.4470468,-1.99301 3.187481,-5.02059 z"></path>
    <path id="path138" style="fill:#c70026;fill-opacity:1;fill-rule:nonzero;stroke:none;stroke-width:0.516036" d="m 59.856868,93.319341 c -3.463635,5.24396 -9.507002,5.245 -9.507002,5.245 2.94605,4.228909 1.587287,9.061699 1.587287,9.061699 0,0 8.675523,-0.96082 13.977279,-7.918539 0.548546,-0.71935 0.991462,-1.53997 1.338238,-2.40278 h -0.0018 c -0.300849,-0.0862 -0.599587,-0.18173 -0.897341,-0.28132 -0.05573,-0.0201 -0.112871,-0.0391 -0.168086,-0.0572 -0.03922,-0.0155 -0.0801,-0.0293 -0.118806,-0.0423 -1.29783,1.38453 -2.882696,1.75303 -2.882696,1.75303 0.930413,-0.60892 1.537847,-1.3909 1.935194,-2.12264 -0.235312,-0.0981 -0.467936,-0.20221 -0.697573,-0.31006 -0.04386,-0.0201 -0.08771,-0.0419 -0.130538,-0.0631 -0.07018,-0.032 -0.139268,-0.0649 -0.209448,-0.0994 -1.265321,1.25603 -2.729278,1.59609 -2.729278,1.59609 0.891195,-0.58519 1.489667,-1.33046 1.886499,-2.0364 -0.2317,-0.12901 -0.463897,-0.26402 -0.694054,-0.40335 -0.02683,-0.0155 -0.05567,-0.0338 -0.08302,-0.0493 -0.06554,-0.0408 -0.131591,-0.0814 -0.197127,-0.1232 -1.267902,1.26996 -2.743945,1.61163 -2.743945,1.61163 0.935058,-0.61408 1.545039,-1.40211 1.941354,-2.13643 -0.242022,-0.16822 -0.482996,-0.34373 -0.721921,-0.52538 -0.01496,-0.009 -0.02948,-0.0212 -0.04341,-0.0326 -0.282272,-0.21157 -0.560176,-0.4323 -0.83574,-0.6609 -4.5e-4,-0.002 -0.0025,-0.003 -0.0041,-0.003 z m -2.136428,5.18252 c 0.03339,-0.002 0.06191,-3e-4 0.08448,0.004 l 0.216489,0.68878 c -0.09392,-0.003 -0.195073,0.005 -0.336467,0.0786 -0.361225,0.18629 -0.499491,0.7214 -0.0062,1.681749 0.4763,0.92576 0.959837,1.13467 1.352024,0.93342 0.105788,-0.0557 0.213809,-0.14646 0.277797,-0.21561 l 0.388975,0.59901 c -0.06605,0.10011 -0.227134,0.23319 -0.450578,0.34879 -0.841654,0.43295 -1.66194,-0.17741 -2.226483,-1.27605 -0.750833,-1.460899 -0.353652,-2.383999 0.285717,-2.711679 0.168744,-0.0875 0.314034,-0.12566 0.414202,-0.13142 z m -2.143468,1.0402 0.234088,0.699029 -0.845712,0.28191 0.353481,1.06132 0.793203,-0.26372 0.224409,0.66854 -0.792618,0.26401 0.568209,1.7055 -0.681733,0.2291 -1.380186,-4.13498 z"></path>
    <path id="path146" style="fill:#c70026;fill-opacity:1;fill-rule:nonzero;stroke:none;stroke-width:0.516036" d="m 55.031054,88.035921 c -1.521274,0.0361 -3.684016,0.514 -4.210373,2.84338 0,0 3.09272,-1.25039 5.055206,-0.12027 0,0 -1.12966,3.21217 -0.891768,4.40164 0,0 1.001109,-2.10288 4.330059,-2.30774 -1.538304,-1.35873 -2.97652,-2.9696 -4.283124,-4.81701 z"></path>
    <path id="path194" style="fill:#c70026;fill-opacity:1;fill-rule:nonzero;stroke:none;stroke-width:0.516036" d="m 50.85647,106.4556 c -0.285883,1.17398 -1.327688,3.58269 -2.778266,4.04815 -0.847331,0.27092 -1.992467,-0.39935 -2.430066,-0.70226 0.30085,0.43811 0.972823,1.58309 0.701388,2.43094 -0.464432,1.45162 -2.874395,2.49216 -4.047861,2.77857 0.967052,-0.0908 1.923936,-0.32516 2.833707,-0.71166 0.08979,-0.0402 0.18784,-0.0846 0.295691,-0.13055 0.688909,-0.29826 1.663126,-0.67043 2.394864,-0.69932 1.06768,-0.0459 2.785577,1.47326 3.438879,1.94957 -0.476817,-0.65382 -1.994017,-2.37062 -1.950155,-3.4383 0.03045,-0.73432 0.402976,-1.70771 0.700213,-2.39662 0.04593,-0.10682 0.08933,-0.20642 0.131126,-0.29569 0.386511,-0.90823 0.621206,-1.86578 0.71048,-2.83283 z"></path>
    <path id="path202" style="fill:#c70026;fill-opacity:1;fill-rule:nonzero;stroke:none;stroke-width:0.516036" d="m 30.111733,94.264491 c 0.476817,0.65537 1.995555,2.37105 1.952208,3.43976 -0.03096,0.73277 -0.402531,1.70926 -0.7008,2.396629 -0.04696,0.10681 -0.0894,0.2059 -0.131712,0.29569 -0.385995,0.90822 -0.621206,1.86503 -0.71048,2.83312 0.285368,-1.17347 1.326737,-3.581879 2.776799,-4.047859 0.849395,-0.27195 1.995926,0.3995 2.430945,0.70138 -0.30188,-0.4376 -0.972163,-1.58191 -0.700213,-2.43182 0.464432,-1.45006 2.873949,-2.49136 4.048448,-2.77621 -0.967568,0.0893 -1.924381,0.3247 -2.833122,0.71018 -0.09134,0.0408 -0.190044,0.085 -0.296864,0.13142 -0.688908,0.29827 -1.663044,0.66947 -2.396331,0.69992 -1.067679,0.0428 -2.784544,-1.47384 -3.438878,-1.95221 z"></path>
    <path id="path210" style="fill:#c70026;fill-opacity:1;fill-rule:nonzero;stroke:none;stroke-width:0.516036" d="m 30.520949,106.4556 c 0.08927,0.96705 0.324485,1.92321 0.71048,2.83195 0.04232,0.0903 0.08475,0.19004 0.131712,0.29686 0.298269,0.68891 0.669838,1.66356 0.7008,2.39634 0.04335,1.06767 -1.475391,2.78447 -1.952208,3.43829 0.654334,-0.4763 2.371199,-1.99535 3.438878,-1.95045 0.733287,0.0299 1.707423,0.40194 2.396331,0.7002 0.10682,0.0459 0.205526,0.0903 0.296864,0.13055 0.908741,0.38651 1.865554,0.62084 2.833122,0.71166 -1.174499,-0.2864 -3.584016,-1.32667 -4.048448,-2.77827 -0.27195,-0.84837 0.398474,-1.99313 0.701388,-2.43124 -0.436051,0.30291 -1.582725,0.97238 -2.43212,0.70197 -1.450062,-0.46495 -2.491431,-2.87388 -2.776799,-4.04786 z"></path>
    <path id="path218" style="fill:#c70026;fill-opacity:1;fill-rule:nonzero;stroke:none;stroke-width:0.516036" d="m 51.264806,94.265671 c -0.653303,0.47734 -2.371199,1.99387 -3.438879,1.95104 -0.731739,-0.0305 -1.705956,-0.40136 -2.394864,-0.69963 -0.107335,-0.0464 -0.20589,-0.0909 -0.297744,-0.13171 -0.907708,-0.38548 -1.864603,-0.62091 -2.831654,-0.71019 1.173465,0.28485 3.583357,1.32644 4.047273,2.77651 0.271952,0.84991 -0.39995,1.99393 -0.700801,2.43153 0.437599,-0.30188 1.58222,-0.9732 2.430067,-0.70021 1.450577,0.46494 2.492382,2.873219 2.778266,4.046679 -0.08927,-0.96808 -0.32397,-1.92489 -0.710481,-2.83312 -0.0418,-0.0898 -0.0852,-0.18887 -0.131125,-0.29569 -0.297237,-0.687359 -0.669767,-1.663559 -0.700213,-2.396329 -0.04386,-1.06871 1.473337,-2.78454 1.950155,-3.43888 z"></path>
    <path id="path226" style="fill:#c70026;fill-opacity:1;fill-rule:nonzero;stroke:none;stroke-width:0.516036" d="m 36.383439,100.53709 c 0.97118,1.17553 2.224046,3.00168 2.227658,4.30571 -0.0026,1.30402 -1.254778,3.13032 -2.228538,4.30688 1.174498,-0.97118 2.998024,-2.22219 4.301017,-2.22942 h 0.0047 c 1.304023,0.004 3.131939,1.25618 4.307471,2.22942 -0.974277,-1.17656 -2.225806,-3.00286 -2.22942,-4.30688 0.0041,-1.30557 1.255143,-3.13018 2.22942,-4.30571 -1.175532,0.97273 -3.003448,2.22596 -4.307471,2.22854 h -0.0035 c -1.304023,-0.006 -3.127844,-1.25633 -4.30131,-2.22854 z"></path>
    <path id="path234" style="fill:#c70026;fill-opacity:1;fill-rule:nonzero;stroke:none;stroke-width:0.516036" d="m 42.480312,0 c -4.433783,1.494441 -8.284529,7.574843 -8.911514,9.840241 -0.467012,1.691051 -0.615701,2.043893 0.168674,4.311872 1.040845,3.011587 -0.365214,6.718469 -0.365214,6.718469 0,0 0.239206,-1.928184 0.143739,-4.193067 -0.0965,-2.265915 -0.982998,-3.645098 -0.982998,-3.645098 -1.064582,0.727094 -1.825016,1.856667 -2.267259,3.108572 -1.245712,3.525042 -1.209166,7.955796 -1.209166,7.955796 -1.004207,-1.6926 -0.05926,-5.474689 -0.05926,-5.474689 -0.280723,-1.231262 -2.351156,-2.799973 -2.351156,-2.799973 -0.638337,0.550094 -1.288549,1.601085 -1.634809,2.543883 -1.503213,4.082879 -0.418602,8.330984 -0.418602,8.330984 -1.319505,-0.76631 -0.910835,-5.034378 -0.910835,-5.034378 -0.45308,-1.818511 -2.393398,-2.6225 -2.393398,-2.6225 -0.749801,0.757025 -1.158789,1.829686 -1.440028,2.826667 -1.232811,4.372371 0.03491,8.872201 0.03491,8.872201 -1.288542,-0.94899 -1.23586,-4.65508 -1.23586,-4.65508 -0.928865,-2.315971 -3.015581,-2.606366 -3.015581,-2.606366 -0.867973,2.021316 -0.900012,4.301616 -0.527434,6.133536 0.58983,2.91561 2.184243,4.90707 2.184243,4.90707 -2.061048,-0.76218 -2.832534,-4.36995 -2.832534,-4.36995 -0.821014,-1.65235 -3.597284,-1.09858 -3.597284,-1.09858 0,0 -0.287747,2.25195 1.117936,5.23826 1.406199,2.98733 3.971298,4.04228 3.971298,4.04228 -2.752537,-0.0712 -4.37758,-3.35498 -4.37758,-3.35498 -1.7576188,-0.49178 -3.4538378,0.47082 -3.4538378,0.47082 -0.104756,0.70336 0.508324,2.5729 2.0677848,3.97394 2.145163,1.92533 5.342684,2.84603 5.342684,2.84603 -2.094075,0.39115 -3.990072,-1.03052 -3.990072,-1.03052 -3.3521718,-0.47424 -4.1282368,1.20623 -4.1282368,1.20623 0.211058,1.65235 1.651676,2.56527 3.7952908,3.16284 2.143614,0.59757 4.81349,0.42154 4.81349,0.42154 -1.710144,0.94176 -4.46001,0.35817 -4.46001,0.35817 -2.0424718,0.45772 -2.7360238,2.39076 -2.7360238,2.39076 1.02846,1.38401 2.2901978,1.74419 3.7175548,1.67969 2.377895,-0.10837 4.885359,-1.37051 4.885359,-1.37051 -1.019688,1.58114 -3.670033,1.95954 -3.670033,1.95954 -0.9139,1.44129 -1.271062,3.2752 -1.271062,3.2752 3.515755,1.593 7.59821,-2.61312 7.59821,-2.61312 -0.07224,1.58733 -3.410424,3.06369 -3.410424,3.06369 -0.351936,1.61623 0.229396,2.96513 0.229396,2.96513 5.025677,0.16513 7.106564,-4.58087 7.106564,-4.58087 0.290012,1.79065 -2.69789,4.03994 -2.69789,4.03994 -0.219315,0.85198 0.34116,2.23646 0.34116,2.23646 2.072918,0.19351 3.274605,-0.90966 3.274605,-0.90966 0.751349,-2.54354 2.366089,-4.026 3.640699,-5.02969 1.643059,-1.29525 4.069861,-2.08919 4.069861,-2.08919 0,0 -5.828408,2.95286 -6.952851,8.20249 -1.091417,5.09844 0.817876,6.78288 2.673542,8.24533 1.449029,1.14147 3.101238,2.78032 3.101238,2.78032 -0.107336,-0.48249 -0.566576,-1.61115 -0.6832,-3.04315 -0.160487,-1.96094 0.143979,-4.49503 1.268422,-6.74546 1.947521,-3.89453 4.233177,-6.13683 6.5187,-9.14326 2.28604,-3.00488 3.048592,-6.22175 2.201261,-8.04233 -0.8463,-1.82006 -2.920832,-1.98931 -3.597873,-3.25876 -0.677555,-1.26945 2.836642,-1.69319 2.836642,-1.69319 -0.168744,-1.77826 2.030747,-2.878 3.343543,-3.25935 1.31228,-0.38135 2.66591,-1.86186 2.66591,-1.86186 -1.141988,0 -3.089576,0.25352 -4.739859,1.2696 -1.6508,1.01504 -3.936825,2.0317 -5.587626,2.0317 -1.650284,0 -3.386662,0.29599 -3.386662,0.29599 -0.338004,-1.35408 0.762475,-2.83561 2.243499,-3.68294 1.482056,-0.84579 4.740808,-2.20023 7.153794,-5.4172 2.412985,-3.21748 1.990047,-7.195151 1.990047,-7.195151 0,0 -0.634936,1.819025 -2.202138,3.046675 -1.322601,1.036716 -2.877707,0.889716 -2.877707,0.889716 -0.846299,4.61336 -4.86834,6.30581 -7.15438,7.27905 -2.283977,0.97376 -1.988803,2.45595 -1.692598,2.92142 0.296721,0.46495 0.762109,1.81954 0.762109,2.07394 0,0.25389 -0.253743,0.50778 -0.253743,0.50778 -0.592925,0.25492 -1.354589,0.88854 -1.608995,1.43915 -0.253889,0.54958 -0.462001,0.76956 -1.057506,1.10034 -0.857137,0.47423 -2.566681,0.5866 -3.048143,2.22501 -0.48301,1.63945 0.385454,2.21798 0.385454,2.21798 0.140362,-0.58673 0.51193,-1.10424 1.110016,-1.50984 -0.07431,0.1481 -0.119391,0.31252 -0.119391,0.489 0,0.59861 0.477336,1.08215 1.071294,1.09711 -0.444307,0.51294 -0.580529,1.02553 -0.580529,1.02553 0,0 1.214705,-0.66317 2.208591,-1.27106 0.995434,-0.60737 2.321821,-0.77296 2.321821,-0.77296 -0.02528,-0.55268 -0.280709,-0.99402 -0.55266,-1.31448 1.028976,0.29466 1.484544,1.00996 1.385465,1.67823 -0.145521,0.96292 0.337054,1.83076 0.337054,1.83076 0.674975,-0.91493 2.121467,-1.73425 2.121467,-1.73425 0.04747,-1.20598 -1.109136,-2.50693 -1.109136,-2.50693 1.590424,0.33749 1.879459,2.02496 1.879459,2.02496 0,0 0.916394,0.048 1.398372,1.20447 0.722451,1.73543 -2.506376,4.81977 -5.206277,5.78476 -2.699386,0.96344 -5.976503,0.81839 -8.435415,-0.38604 -2.091495,-1.02537 -5.012805,-5.97575 -2.843388,-11.71149 2.169416,-5.73626 10.025582,-8.62856 12.53197,-9.93 2.506905,-1.30093 2.60315,-2.55449 2.939606,-9.301666 C 35.732355,12.53178 39.97532,6.845153 41.662758,4.145252 43.349165,1.446899 42.480309,0 42.480309,0 Z m -9.250619,3.047555 c 0,0 -2.171537,0.703014 -3.797052,4.226509 -1.62603,3.522463 -2.504868,7.97369 -2.504868,7.97369 1.13786,0.432955 2.244965,2.321529 2.244965,2.321529 0.504168,-3.612254 3.192762,-5.321856 3.192762,-5.321856 0.140362,-2.659135 1.959834,-5.319802 1.959834,-5.319802 0.108883,-2.438788 -1.095641,-3.88007 -1.095641,-3.88007 z m 27.513662,0.743629 c -2.203474,0.733804 -3.316668,3.960983 -4.663006,8.243567 -1.333954,4.24543 -7.220038,12.970079 -7.892434,13.888099 -0.672911,0.91803 -2.507275,2.69189 -0.183048,3.91645 2.325259,1.22352 3.977736,4.46661 4.037596,8.07577 0.06141,3.61019 -2.875446,7.28074 -6.117702,8.38144 -3.241739,1.10071 -3.977163,0.36756 -3.977163,0.36756 -0.103207,3.12563 -3.361476,6.53457 -5.356471,9.05437 -1.99448,2.52084 -4.349698,5.31191 -4.733113,10.38352 -0.384963,5.07005 3.417123,8.333 6.105671,11.33014 2.688548,2.996101 2.804362,8.296211 2.919954,9.947011 0.114561,1.65184 -0.268947,3.07319 -1.421256,3.68676 -1.152825,0.6146 -3.918098,0.96068 -5.108594,1.45968 -1.190496,0.49901 -0.806698,1.22941 -0.806698,1.22941 -1.498569,1.07542 -0.422122,2.72722 -0.422122,2.72722 0.152747,-1.42168 1.15167,-1.95836 1.15167,-1.95836 0.883454,0.80553 4.378658,-0.88354 5.031444,-1.26901 0.652786,-0.38342 2.380965,-0.92107 2.727225,-0.99796 0.345745,-0.0764 1.651512,0.46192 2.459109,0.96041 0.804501,0.49849 1.381914,1.22865 1.880921,1.7674 0.499523,0.53667 0.960705,0.38194 0.960705,0.38194 1.229198,0.7307 1.11823,1.26871 1.11823,1.26871 0.499007,-0.0377 0.423841,-0.89051 0.220007,-1.30128 -0.217252,-0.43501 -0.456151,-0.61837 -0.456151,-0.61837 0,0 0.307372,-0.30694 0.07774,-0.92257 -0.365354,-0.97737 -3.07233,-2.34331 -3.878895,-3.18806 -0.80708,-0.84476 -1.229956,-0.69093 -1.574674,-4.07045 -0.346776,-3.38159 -0.4613,-5.07053 -1.190975,-6.9907 -0.317363,-0.835461 -0.53706,-1.497141 -0.307424,-2.304221 0.230669,-0.80656 4.725194,-1.26842 4.725194,-1.26842 -7.065052,-4.82184 -7.648529,-10.90707 -6.124158,-14.8403 0.232217,0.25234 0.45516,0.55697 0.660026,0.92697 1.232811,2.23289 2.985074,2.32124 2.985074,2.32124 0.699745,-1.21888 -0.409506,-3.48803 -0.748026,-5.02323 -0.340068,-1.53315 0.207395,-2.22062 0.207395,-2.22062 0,0 0.134273,1.80509 1.262844,3.94871 1.454195,2.76131 3.474374,2.72986 3.474374,2.72986 1.331373,-0.78953 -0.722012,-4.01577 -1.127617,-5.39255 -0.406636,-1.37524 -0.04577,-1.96306 -0.04577,-1.96306 0,0 0.992312,3.11392 3.136437,5.14555 1.578039,1.49341 3.136442,0.94692 3.136442,0.94692 1.060455,-1.75917 -1.151307,-3.79073 -2.052828,-4.96368 -0.903058,-1.17295 -0.812267,-2.16694 -0.812267,-2.16694 0,0 0.902517,1.39884 3.136438,3.45267 2.232888,2.05382 4.737806,1.82783 4.737806,1.82783 0.496432,-1.94133 -1.82891,-3.83614 -3.002382,-4.85222 -1.172434,-1.01504 -1.330904,-2.00794 -1.330904,-2.00794 0,0 1.672582,1.64326 3.971007,2.97979 3.340819,1.93979 5.438904,1.03668 5.438904,1.03668 0.360704,-1.98519 -3.249868,-3.60991 -4.693221,-4.46705 -1.444901,-0.85816 -1.563528,-1.60254 -1.563528,-1.60254 0,0 3.294654,1.87579 6.941998,2.3139 3.649924,0.4376 4.898856,-1.14609 4.898856,-1.14609 -0.750317,-1.75195 -3.753266,-2.29384 -5.983058,-2.6272 -2.229793,-0.33439 -2.795276,-1.34938 -2.795276,-1.34938 0.584664,0.0836 5.882287,0.59858 9.112158,-0.19302 3.231935,-0.79263 4.108288,-3.04433 4.108288,-3.04433 -0.104755,-0.31323 -0.729314,-1.27149 -3.877135,-0.62541 -3.148848,0.64659 -8.141483,0.52538 -8.141483,0.52538 0,0 0.411792,0.74614 0.199185,1.47581 0,0 -0.738912,1.25654 -2.47847,1.4547 0,0 0.241546,0.98059 -0.205342,1.72575 0,0 -0.605723,0.97944 -2.643034,0.9299 0,0 0.09266,0.74731 -0.239663,1.40629 0,0 -1.363672,0.75072 -2.706393,0.60107 0,0 -0.473257,1.03933 -0.921692,1.48725 0,0 -1.476013,0.35606 -2.270193,0.0578 0,0 -0.802772,0.99172 -1.444721,1.274 0,0 -0.95379,0.27456 -1.98741,-0.20329 0,0 -1.007318,0.85871 -1.703451,1.10796 0,0 -0.576908,0.0728 -1.441785,-0.57789 l -0.0144,-0.004 c 1.930486,-2.76337 2.907921,-4.94813 2.907921,-4.94813 1.99706,0.23066 2.841713,-0.11514 2.726637,-0.38399 -0.11456,-0.26937 0.269288,-0.692 0.269288,-0.692 2.380992,0.0779 2.956434,-0.65177 2.88006,-0.99855 -0.07637,-0.34522 0.153712,-0.72954 0.153712,-0.72954 3.07248,-0.34471 3.072624,-1.49746 2.919362,-1.80554 -0.153258,-0.30652 -0.01847,-0.89705 -0.01847,-0.89705 2.343326,-0.15377 2.975403,-2.13681 2.437694,-2.71167 -0.340068,-0.3669 -0.537406,-1.15343 -0.537406,-1.15343 0,0 1.191709,0.57634 3.956631,-0.26841 2.764922,-0.84475 3.6231,-3.63953 3.6231,-3.63953 -1.479481,-0.53564 -3.035402,0.0806 -4.8792,0.15753 -1.842249,0.0758 -2.27782,-0.0135 -2.27782,-0.0135 0,0 2.534275,-0.15377 4.763035,-1.49753 2.226697,-1.34375 2.478171,-3.40807 2.478171,-3.40807 -1.102253,-0.73432 -2.665032,-0.6832 -2.665032,-0.6832 -3.61019,2.44704 -4.798528,1.96834 -4.798528,1.96834 6.912821,-2.75357 6.628996,-6.85517 6.628996,-6.85517 -1.375237,-0.73896 -2.995632,-0.6521 -2.995632,-0.6521 0,0 -0.217194,0.61048 -2.296304,2.14053 -2.080653,1.52953 -2.665916,1.27048 -2.665916,1.27048 0,0 3.0905,-1.86518 4.507536,-3.92055 1.306603,-1.89334 1.398958,-4.274326 1.398958,-4.274326 -1.856698,-0.377732 -3.588485,0.314766 -3.588485,0.314766 -2.508452,3.67108 -4.416005,4.08394 -4.416005,4.08394 0,0 2.692166,-2.69216 3.792355,-4.527184 1.101737,-1.835025 1.346746,-4.588496 1.346746,-4.588496 0,0 -1.408438,-0.18334 -2.998862,1.100042 -1.590424,1.284931 -3.426264,4.283711 -3.426264,4.283711 0.122301,-1.591457 1.24886,-3.132958 2.839283,-4.663005 1.590424,-1.529531 3.555335,-1.57438 3.555335,-1.57438 0,0 1.436031,-2.512106 2.415984,-6.550089 C 62.312857,5.501027 60.743332,3.791008 60.743332,3.791008 Z M 25.872612,6.445659 c -3.911554,3.274766 -4.440062,11.894532 -4.440062,11.894532 1.201332,0.280208 2.402785,2.019385 2.402785,2.019385 0.546482,-3.45641 2.478468,-5.16345 2.478468,-5.16345 0.09495,-1.058906 0.946329,-3.680007 0.946329,-3.680007 0.591378,-3.910523 -1.38752,-5.07046 -1.38752,-5.07046 z m 40.480955,2.80408 c -3.291795,0.06657 -4.904424,3.963379 -4.904424,3.963379 -0.536677,1.881467 -2.077175,3.944308 -2.077175,3.944308 0.160488,1.730786 -0.975076,4.752769 -0.975076,4.752769 1.197204,-0.504684 3.306286,-0.252276 3.306286,-0.252276 0,0 1.089615,-1.25707 3.038168,-5.287828 2.514644,-5.202161 1.612221,-7.120352 1.612221,-7.120352 z m -47.348443,1.295409 c -0.908739,0.681684 -1.716236,1.906276 -2.092426,2.813469 -1.549657,3.739713 -1.280742,9.326594 -1.280742,9.326594 1.728205,0.181128 3.091851,2.095359 3.091851,2.095359 0.318394,-4.470421 2.122054,-6.312774 2.122054,-6.312774 0.409217,-5.91171 -1.840737,-7.922648 -1.840737,-7.922648 z m 50.941913,4.236775 c -0.809269,0.01 -1.99416,0.367759 -2.973339,1.743639 -1.043425,1.467608 -2.851018,3.386663 -2.851018,3.386663 -0.564022,0.801404 -1.886494,2.122935 -1.886494,2.122935 0.158423,2.486262 -1.100334,4.5002 -1.100334,4.5002 1.730265,0.095 2.517772,0.56733 2.517772,0.56733 0,0 3.331582,-3.266126 5.33535,-6.533666 2.002737,-3.268574 1.114711,-5.784755 1.114711,-5.784755 -0.05042,-0.0022 -0.102697,-0.003 -0.156648,-0.0023 z m -58.673594,2.168696 c -2.1358738,3.09312 -0.497512,11.356831 -0.497512,11.356831 1.809739,-0.31272 3.449731,0.46055 3.449731,0.46055 -0.227056,-4.320768 0.715761,-5.520741 0.715761,-5.520741 -0.637305,-4.956528 -3.66798,-6.29664 -3.66798,-6.29664 z m 61.74726,4.58028 c -2.003252,-0.03406 -3.47795,1.687597 -4.849574,2.988009 -1.370592,1.299382 -3.919961,3.275772 -3.919961,3.275772 -0.136749,2.85782 -2.014982,4.40575 -2.014982,4.40575 1.046006,-0.13727 2.173096,0.50367 2.173096,0.50367 0,0 4.36338,-2.579 6.685027,-5.38727 2.818074,-3.408938 1.926394,-5.785931 1.926394,-5.785931 z M 5.0891542,24.90906 c -1.137344,4.5019 2.621913,9.82733 2.621913,9.82733 1.320021,-0.74516 3.4869858,-0.54034 3.4869858,-0.54034 C 10.080319,31.69121 10.24967,29.76068 10.24967,29.76068 8.3403362,24.84905 5.0891542,24.90906 5.0891542,24.90906 Z M 73.795423,28.9443 c -0.957768,-0.0145 -2.189005,0.46981 -3.589656,1.41803 -1.869599,1.26377 -5.072218,2.93931 -5.072218,2.93931 -0.314782,2.86452 -3.479065,4.30601 -3.479065,4.30601 0,0 4.649642,-0.67818 8.770707,-3.06897 4.122097,-2.38977 4.232962,-5.41221 4.232962,-5.41221 -0.254669,-0.11701 -0.543474,-0.17732 -0.86273,-0.18217 z M 2.4936422,33.4932 c -0.770952,-0.008 -1.225007,0.19302 -1.225007,0.19302 -0.135202,4.45597 6.205117,7.58266 6.205117,7.58266 0.914416,-0.91442 3.0138208,-0.77883 3.0138208,-0.77883 -2.6070148,-1.72666 -3.0138208,-4.33358 -3.0138208,-4.33358 -2.0501,-2.19135 -3.853333,-2.65119 -4.98011,-2.66327 z m 70.9682518,1.77033 c -0.888811,0.0205 -2.052607,0.29637 -3.444454,0.91465 -2.471814,1.09967 -5.918518,1.41275 -5.918518,1.41275 0.48301,0.11456 0.848936,0.32326 0.848936,0.32326 -0.483009,1.9661 -2.175438,3.38197 -2.175438,3.38197 0,0 3.345375,0.078 7.378198,-1.20594 4.315095,-1.3742 4.86424,-4.4518 4.86424,-4.4518 -0.336615,-0.25218 -0.861667,-0.39081 -1.552964,-0.37489 z m -39.994299,3.53862 c 0,0 -0.385371,0.62602 -1.205353,0.81901 0,0 -0.09672,1.54184 -1.156657,1.73484 -1.060454,0.193 -1.349197,-0.77085 -1.300689,-1.20535 0,0 -0.434185,0.14546 -0.723681,0.43444 0,0 -0.288914,-0.91544 1.397493,-1.15695 1.687954,-0.24099 2.120914,-0.24103 2.988887,-0.62599 z M 3.5828302,41.59772 c -2.21978,-0.0391 -3.13321301,1.00206 -3.13321301,1.00206 1.91139901,3.68347 8.18636501,4.91118 8.18636501,4.91118 0.318911,-0.59138 1.8375098,-1.39691 1.8375098,-1.39691 -4.0472718,-1.50167 -3.6612318,-3.84721 -3.6612318,-3.84721 -1.292139,-0.47314 -2.36082,-0.65383 -3.22943,-0.66912 z m 25.6887648,0.59109 c 0.181645,-10e-4 0.353336,0.007 0.515113,0.0243 -0.08102,0.66775 -0.933465,1.17984 -1.700811,1.62983 0.02271,-0.0898 0.0396,-0.18137 0.0396,-0.27839 0,-0.51449 -0.356058,-0.94262 -0.833391,-1.06337 0.415409,-0.12591 0.882598,-0.22207 1.404826,-0.2778 0.201512,-0.0222 0.393018,-0.0333 0.574662,-0.0346 z M 7.7480292,48.86298 c -3.870308,0.0461 -4.932883,2.10416 -4.932883,2.10416 0,0 0.851515,1.65665 3.501361,1.95544 2.650878,0.29878 5.9264398,-0.22676 5.9264398,-0.22676 0.09031,-0.50055 0.702853,-1.58142 0.702853,-1.58142 -3.8310528,0.10579 -4.8146638,-2.24936 -4.8146638,-2.24936 -0.13075,-0.003 -0.258259,-0.004 -0.383107,-0.002 z m 4.3309378,4.6369 c -4.3192228,0.86384 -4.6251628,4.152 -4.6251628,4.152 0,0 0.818336,0.95536 3.5022398,0.50074 2.682356,-0.45515 5.011791,-1.6618 5.011791,-1.6618 -0.09134,-0.42676 0.03491,-1.44062 0.03491,-1.44062 -3.056998,0.66724 -4.181919,-0.24611 -4.181919,-0.24611 0,-0.63215 0.258143,-1.30421 0.258143,-1.30421 z m 3.994179,3.58907 c 0,0 -0.933669,0.6991 -2.071012,1.74511 -1.136828,1.04652 -0.8639,2.77445 -0.8639,2.77445 4.366698,0.6822 7.644265,-2.79763 7.644265,-2.79763 -0.09082,-0.45514 -0.105311,-1.3004 -0.105311,-1.3004 -2.038343,1.08936 -4.181626,0.73689 -4.181626,0.73689 -0.182161,-0.36329 -0.422416,-1.15842 -0.422416,-1.15842 z m 8.751933,2.14376 c -1.512502,1.22971 -3.445038,0.87769 -3.445038,0.87769 -0.307557,-0.35865 -0.351427,-0.70227 -0.351427,-0.70227 -0.565059,0.66775 -1.530671,1.60518 -1.530671,1.60518 -1.488764,1.33602 0.566742,2.46527 0.566742,2.46527 1.077999,0.0516 2.46542,-0.56555 3.338554,-1.07746 0.873133,-0.51448 1.181885,0.35847 1.181885,0.35847 -0.310654,-1.22713 0.239955,-3.52688 0.239955,-3.52688 z m 29.982157,3.07601 c 0,0 0.929985,1.92481 -0.933422,2.48316 -1.861859,0.55887 -4.222404,-1.42624 -4.222404,-1.42624 0,0 0.806631,2.23441 -1.239963,2.23441 -2.050728,0 -3.272552,-1.39016 -3.272552,-1.39016 -0.41799,1.52282 -1.697894,1.42359 -2.739255,0.91787 -1.123927,-0.54803 -1.997086,-1.57438 -1.997086,-1.57438 -0.853007,6.02627 4.539158,10.57731 6.651294,11.88133 2.111105,1.30454 3.629273,3.56574 6.757484,9.167311 4.160284,7.45208 10.743431,12.9157 18.940666,12.54312 6.465934,-0.29414 6.271708,-5.58762 6.271708,-5.58762 -1.615193,1.48979 -8.38388,1.73913 -14.966438,-1.73895 -6.58359,-3.47809 -7.265264,-7.45271 -7.265264,-7.45271 3.725782,6.45871 17.946181,10.93065 23.287156,7.76219 5.340976,-3.16692 5.092836,-7.2016 4.159326,-8.75487 -0.92989,-1.55275 -2.42097,-0.99356 -2.42097,-0.99356 2.50897,1.72511 0.37785,4.91381 -3.476423,6.39638 -3.494597,1.34221 -8.426324,1.19104 -12.233639,-0.99385 C 58.095475,81.187361 55.177327,74.3561 55.240799,72.49218 c 0.06193,-1.86238 5.588476,-2.54473 9.500547,-2.60872 3.913619,-0.0619 6.955203,1.55348 6.644549,3.54126 -0.311169,1.98725 -2.545937,1.86215 -2.545937,1.86215 3.788222,2.04918 6.334598,-0.49527 7.016798,-2.7328 0.683748,-2.23495 -0.2481,-6.76796 -4.09773,-8.01006 -3.849631,-1.24159 -7.885452,0.74533 -11.301095,0.55852 -3.492534,-0.1899 -5.650695,-2.79381 -5.650695,-2.79381 z"></path>
    <path d="m 30.235468,39.97291 c 0,0 0.398896,-0.21157 1.622418,-0.32974 0,0 -0.200222,1.14199 -0.858685,1.23487 -0.658462,0.0949 -0.822561,-0.56454 -0.763733,-0.90513" style="fill:#c70026;fill-opacity:1;fill-rule:nonzero;stroke:none;stroke-width:0.516036" id="path246"></path>
    <path d="m 54.091823,111.29779 h -0.19403 V 110.693 c 0.03406,-0.007 0.102691,-0.017 0.223444,-0.017 0.226024,0.003 0.363289,0.10476 0.363289,0.30549 0,0.19197 -0.146554,0.31633 -0.392703,0.31633 m 0.497459,0.19145 v -0.009 c 0.188869,-0.0681 0.386511,-0.26008 0.386511,-0.5408 0,-0.20074 -0.07276,-0.354 -0.201254,-0.45721 -0.155843,-0.12385 -0.384447,-0.17287 -0.70955,-0.17287 -0.263179,0 -0.500555,0.0186 -0.659494,0.0449 v 2.16271 h 0.492298 v -0.86178 h 0.147586 c 0.202287,0.004 0.296205,0.0779 0.355033,0.35142 0.0645,0.26989 0.116109,0.44483 0.153779,0.51036 h 0.504684 c -0.04077,-0.0846 -0.1094,-0.36948 -0.177001,-0.61718 -0.05573,-0.2028 -0.139846,-0.34884 -0.292592,-0.41025 m -0.422118,1.48722 c -0.82927,0 -1.499601,-0.67291 -1.499601,-1.50167 0,-0.82927 0.670331,-1.4996 1.499601,-1.4996 0.828754,0 1.500633,0.67033 1.500633,1.4996 0,0.82876 -0.671879,1.50167 -1.500633,1.50167 m 0,-3.34804 c -1.019688,0 -1.846378,0.82669 -1.846378,1.84637 0,1.01969 0.82669,1.84793 1.846378,1.84793 1.019172,0 1.84741,-0.82824 1.84741,-1.84793 0,-1.01968 -0.828238,-1.84637 -1.84741,-1.84637" style="fill:#c70026;fill-opacity:1;fill-rule:nonzero;stroke:none;stroke-width:0.516036" id="path250"></path>
  </g>
</svg>