
<svg id="master-artboard" viewBox="0 0 916.35302734375 817.8096313476562" xmlns="http://www.w3.org/2000/svg" width="916.35302734375px" height="817.8096313476562px" version="1.1" style="shape-rendering:geometricPrecision;text-rendering:geometricPrecision;image-rendering:optimizeQuality;fill-rule:evenodd;clip-rule:evenodd"><rect id="ee-background" x="0" y="0" width="916.35302734375" height="817.8096313476562" style="fill:rgb(12, 31, 59);fill-opacity:0;pointer-events:none"></rect><defs><clipPath clipPathUnits="userSpaceOnUse" id="clipPath234"><path d="M 0,841.89 H 595.28 V 0 H 0 Z" id="path232"></path></clipPath><clipPath clipPathUnits="userSpaceOnUse" id="clipPath362"><path d="M 0,841.89 H 595.28 V 0 H 0 Z" id="path360"></path></clipPath></defs><g transform="matrix(4.792250156402588, 0, 0, 4.792250156402588, -1464.6427865028381, -3676.8251953125)"><g id="g224" transform="matrix(1.3333333,0,0,-1.3333333,0,1122.52)"><g id="g228"><g id="g230" clip-path="url(#clipPath234)"><g id="g236" transform="translate(317.7456,611.145)"><path d="m 0,0 c -1.954,0.002 -3.91,0.002 -5.867,0.002 -0.591,0 -1.089,-0.212 -1.498,-0.649 -2.571,-2.922 -5.156,-5.804 -7.747,-8.693 -0.004,3.115 -0.01,6.228 -0.013,9.346 h -5.698 c -0.008,-7.506 -0.014,-15.013 -0.022,-22.525 1.917,0.019 3.835,0.016 5.752,-0.007 -0.004,3.322 -0.01,6.643 -0.015,9.968 2.573,-3.125 5.155,-6.271 7.748,-9.501 0.332,-0.45 0.854,-0.698 1.554,-0.731 2.007,-0.087 4.017,-0.2 6.022,-0.328 -3.383,4.22 -6.751,8.272 -10.106,12.243 C -6.579,-7.298 -3.28,-3.702 0,0" style="fill:#1d1d1b;fill-opacity:1;fill-rule:nonzero;stroke:none" id="path238"></path></g><g id="g240" transform="translate(249.5498,611.0986)"><path d="m 0,0 c -1.386,-6.907 -2.768,-13.992 -4.148,-21.266 -1.141,6.905 -2.289,13.977 -3.437,21.243 -2.861,-0.008 -5.72,-0.016 -8.58,-0.023 -1.281,-7.84 -2.554,-15.897 -3.814,-24.2 -1.258,7.809 -2.53,15.862 -3.813,24.177 -2.014,-0.006 -4.026,-0.015 -6.037,-0.02 1.941,-11.186 3.848,-21.829 5.725,-31.995 2.72,0.72 5.445,1.4 8.179,2.042 1.323,8.027 2.657,15.814 4,23.385 1.196,-7.443 2.385,-14.674 3.57,-21.717 2.767,0.569 5.541,1.1 8.319,1.585 C 1.969,-17.525 3.98,-8.612 5.99,0.01 3.993,0.006 1.996,0.001 0,0" style="fill:#1d1d1b;fill-opacity:1;fill-rule:nonzero;stroke:none" id="path242"></path></g><g id="g244" transform="translate(261.2383,597.0078)"><path d="M 0,0 C 0.852,3.064 1.705,6.089 2.554,9.076 3.345,6.132 4.137,3.224 4.93,0.347 3.288,0.239 1.643,0.123 0,0 M -1.048,14.109 C -3.581,5.719 -6.121,-2.999 -8.66,-12.15 c 0.05,0.001 0.087,-0.014 0.14,-0.006 1.909,0.317 3.824,0.608 5.737,0.881 0.587,2.097 1.175,4.168 1.761,6.221 2.515,0.267 5.033,0.503 7.551,0.717 0.007,0 0.046,-0.028 0.089,-0.103 0.517,-1.836 1.034,-3.662 1.552,-5.48 1.969,0.205 3.936,0.387 5.908,0.556 C 11.7,-1.735 9.344,6.058 7.002,14.122 4.317,14.116 1.634,14.111 -1.048,14.109" style="fill:#1d1d1b;fill-opacity:1;fill-rule:nonzero;stroke:none" id="path246"></path></g><g id="g248" transform="translate(276.373,592.7383)"><path d="m 0,0 c -0.019,-1.954 1.365,-4.895 5.161,-4.646 2.013,0.125 4.024,0.228 6.039,0.31 0.988,0.038 1.827,0.26 2.65,0.702 1.57,0.873 3.137,1.723 4.703,2.559 -0.007,0.458 -0.014,0.914 -0.023,1.372 -4.053,-0.05 -8.105,-0.166 -12.154,-0.35 -0.002,-0.002 -0.002,0 -0.005,0 C 6.051,-0.07 5.801,0.166 5.796,0.461 L 5.803,18.409 C 3.882,18.403 1.965,18.401 0.044,18.401 Z" style="fill:#1d1d1b;fill-opacity:1;fill-rule:nonzero;stroke:none" id="path250"></path></g><g id="g252" transform="translate(334.873,601.3311)"><path d="m 0,0 c -3.567,0.182 -7.139,0.336 -10.714,0.465 -0.291,0.025 -0.52,0.253 -0.545,0.533 -0.012,1.206 -0.021,2.412 -0.031,3.617 0.038,0.277 0.268,0.49 0.562,0.488 C -6.959,5.03 -3.189,4.95 0.579,4.843 l -0.055,4.92 c -3.01,0.004 -6.015,0.01 -9.023,0.015 -0.886,0 -1.752,-0.233 -2.489,-0.666 -1.195,-0.658 -2.393,-1.311 -3.59,-1.948 -1.714,-0.986 -2.576,-2.458 -2.562,-4.396 0.028,-3.769 0.056,-7.539 0.084,-11.304 0.018,-2.448 2.009,-5.102 5.306,-5.386 2.329,-0.194 4.656,-0.424 6.979,-0.674 0.983,-0.112 1.835,0.009 2.6,0.368 1.193,0.529 2.389,1.062 3.581,1.601 -0.01,0.742 -0.02,1.48 -0.03,2.215 -3.99,0.427 -7.986,0.78 -11.986,1.066 -0.3,0.024 -0.538,0.274 -0.562,0.564 -0.015,1.343 -0.029,2.682 -0.04,4.021 0.025,0.277 0.243,0.478 0.523,0.482 3.585,-0.19 7.169,-0.416 10.742,-0.687 z" style="fill:#1d1d1b;fill-opacity:1;fill-rule:nonzero;stroke:none" id="path254"></path></g><g id="g256" transform="translate(344.2529,599.8115)"><path d="m 0,0 c -0.002,0 -0.002,0.002 -0.002,0.002 -0.322,0.025 -0.584,0.322 -0.59,0.67 0,0.003 0,0.002 -0.002,0.01 -0.016,1.636 -0.035,3.273 -0.053,4.909 0.008,0.33 0.241,0.577 0.539,0.589 C 2.111,6.104 4.331,6.027 6.55,5.941 6.84,5.911 7.066,5.643 7.09,5.312 7.111,3.566 7.127,1.815 7.147,0.068 7.127,-0.269 6.887,-0.521 6.582,-0.495 H 6.579 C 4.388,-0.32 2.194,-0.153 0,0 m 10.298,-3.175 c 1.774,0.995 2.66,2.714 2.638,5.065 -0.013,1.472 -0.028,2.949 -0.043,4.425 -0.035,3.651 -2.748,5.328 -4.57,5.314 -0.307,-0.003 -0.665,-0.062 -1.045,-0.13 -2.551,-0.602 -5.104,-1.17 -7.657,-1.715 -0.18,0.011 -0.306,0.144 -0.325,0.358 -0.004,0.387 -0.009,0.771 -0.013,1.155 -1.908,0.003 -3.818,0.006 -5.728,0.01 0.098,-8.374 0.195,-16.746 0.294,-25.12 1.914,-0.262 3.826,-0.542 5.736,-0.841 -0.033,2.981 -0.066,5.965 -0.099,8.947 -0.002,0.335 0.234,0.575 0.537,0.561 1.094,-0.11 2.183,-0.225 3.275,-0.343 0.136,-0.017 0.205,-0.067 0.274,-0.214 1.534,-3.052 3.067,-6.19 4.598,-9.431 0.26,-0.682 0.792,-1.154 1.455,-1.279 1.877,-0.364 3.753,-0.745 5.625,-1.149 -2.122,4.721 -4.258,9.221 -6.394,13.536 0.482,0.281 0.962,0.565 1.442,0.851" style="fill:#1d1d1b;fill-opacity:1;fill-rule:nonzero;stroke:none" id="path258"></path></g><g id="g260" transform="translate(380.6108,611.4404)"><path d="m 0,0 c -3.417,0.01 -8.589,0.02 -12.004,0.031 -0.92,0.004 -1.808,-0.298 -2.553,-0.85 -1.225,-0.844 -2.448,-1.667 -3.667,-2.468 -1.694,-1.192 -2.538,-3.005 -2.518,-5.455 0.006,-0.774 0.014,-1.551 0.019,-2.329 0.037,-3.601 2.315,-6.622 5.296,-7.071 2.435,-0.342 5.516,-0.751 7.942,-1.136 0.316,-0.058 0.565,-0.442 0.569,-0.864 -0.004,-0.01 0.002,-0.01 0.002,-0.02 0.006,-1.721 0.012,-3.443 0.016,-5.166 0,-0.011 -0.004,-0.007 -0.004,-0.014 0.002,-0.404 -0.23,-0.683 -0.53,-0.655 -3.966,0.839 -8.6,1.657 -12.592,2.359 0.015,-1.933 0.031,-3.862 0.049,-5.794 3.169,-0.692 6.985,-1.485 10.139,-2.289 0.942,-0.24 1.801,-0.179 2.548,0.202 1.205,0.59 2.413,1.199 3.621,1.828 1.67,0.943 2.556,2.975 2.556,5.805 v 3.094 c 10e-4,4.676 -2.728,7.842 -5.258,8.08 -2.432,0.26 -5.51,0.547 -7.945,0.78 -0.303,0.037 -0.547,0.369 -0.563,0.757 -0.009,1.498 -0.019,2.989 -0.03,4.491 0.011,0.377 0.248,0.674 0.556,0.674 3.733,-0.186 8.651,-0.386 12.384,-0.6 z" style="fill:#1d1d1b;fill-opacity:1;fill-rule:nonzero;stroke:none" id="path262"></path></g><g id="g264" transform="translate(326.4761,639.4946)"><path d="m 0,0 c -0.758,0 -1.157,-0.491 -1.418,-0.908 l -4.881,-8.792 -4.87,8.831 C -11.519,-0.315 -12.062,0 -12.659,0 h -8.318 c -0.601,0 -1.109,-0.228 -1.526,-0.702 l -7.902,-9.428 V 0 h -5.801 v -24.428 h 5.801 v 10.807 l 7.803,-10.091 c 0.332,-0.477 0.857,-0.716 1.563,-0.716 h 6.081 l -10.155,12.693 8.199,9.521 7.508,-12.485 c 0.138,-0.233 0.207,-0.443 0.207,-0.654 v -9.075 h 5.803 v 9.075 c 0,0.209 0.067,0.421 0.206,0.654 L 5.816,0 Z" style="fill:#1d1d1b;fill-opacity:1;fill-rule:nonzero;stroke:none" id="path266"></path></g><g id="g268" transform="translate(275.3428,634.6973)"><path d="m 0,0 h 11.292 l 1.405,4.797 H 2.398 C 1.477,4.797 0.577,4.561 -0.171,4.115 L -3.88,2.075 C -5.589,1.058 -6.456,-0.486 -6.456,-2.524 v -1.94 c 0,-3.016 2.275,-5.289 5.29,-5.289 H 6.22 c 0.317,-0.011 0.572,-0.268 0.572,-0.584 0,-0.008 0.005,-0.008 0.005,-0.016 v -3.888 c 0,-0.008 -0.005,-0.008 -0.005,-0.013 0,-0.306 -0.238,-0.549 -0.539,-0.576 H -5.862 v -4.801 h 9.635 c 0.962,0 1.84,0.224 2.604,0.654 l 3.703,2.037 c 1.71,0.999 2.611,2.603 2.611,4.63 v 2.223 c 0,3.327 -2.761,5.385 -5.322,5.385 l -7.364,0.004 c -0.31,0.01 -0.553,0.254 -0.567,0.563 v 3.574 C -0.548,-0.256 -0.305,-0.017 0,0" style="fill:#1d1d1b;fill-opacity:1;fill-rule:nonzero;stroke:none" id="path270"></path></g><g id="g272" transform="translate(275.0771,644.9194)"><path d="m 0,0 c 0,-0.083 -0.058,-0.118 -0.145,-0.118 h -0.8 c -0.094,0 -0.128,0.035 -0.128,0.123 v 2.178 c 0,0.105 -0.069,0.157 -0.17,0.157 h -2.098 c -0.091,0 -0.148,-0.052 -0.148,-0.157 V 0.005 c 0,-0.088 -0.05,-0.123 -0.136,-0.123 h -0.817 c -0.075,0 -0.109,0.035 -0.109,0.118 v 5.41 c 0,0.084 0.034,0.131 0.109,0.131 h 0.817 c 0.086,0 0.136,-0.047 0.136,-0.131 V 3.316 c 0,-0.1 0.057,-0.149 0.148,-0.149 h 2.098 c 0.101,0 0.17,0.049 0.17,0.149 V 5.41 c 0,0.084 0.034,0.131 0.128,0.131 h 0.8 C -0.058,5.541 0,5.494 0,5.41 Z" style="fill:#1d1d1b;fill-opacity:1;fill-rule:nonzero;stroke:none" id="path274"></path></g><g id="g276" transform="translate(277.0078,644.7241)"><path d="m 0,0 c -0.592,0 -0.903,0.48 -0.903,0.891 v 3.358 c 0,0.102 0.041,0.148 0.133,0.148 H 0 c 0.077,0 0.132,-0.046 0.132,-0.148 V 1.002 C 0.132,0.91 0.17,0.861 0.276,0.861 h 1.409 c 0.095,0 0.155,0.049 0.155,0.141 v 3.247 c 0,0.102 0.039,0.148 0.128,0.148 H 2.74 c 0.086,0 0.14,-0.046 0.14,-0.148 V -0.653 C 2.88,-0.776 2.841,-0.89 2.786,-1.005 L 2.262,-1.859 C 2.217,-1.938 2.149,-1.982 2.07,-1.982 H 1.968 c -0.089,0 -0.128,0.051 -0.128,0.139 V 0.326 C 1.84,0.417 1.787,0.458 1.7,0.431 L 0.226,0.017 C 0.156,0 0.069,0 0,0" style="fill:#1d1d1b;fill-opacity:1;fill-rule:nonzero;stroke:none" id="path278"></path></g><g id="g280" transform="translate(281.8032,644.7354)"><path d="m 0,0 c -0.47,0 -0.884,0.383 -0.884,0.884 v 3.354 c 0,0.102 0.034,0.148 0.128,0.148 H 0.021 C 0.09,4.386 0.145,4.34 0.145,4.238 V 0.991 c 0,-0.093 0.048,-0.13 0.157,-0.13 H 1.71 c 0.089,0 0.155,0.037 0.155,0.13 v 3.247 c 0,0.102 0.027,0.148 0.119,0.148 h 0.771 c 0.083,0 0.136,-0.046 0.136,-0.148 V 0.184 C 2.891,0.101 2.838,0.066 2.755,0.066 H 1.984 c -0.092,0 -0.119,0.035 -0.119,0.123 v 0.126 c 0,0.099 -0.066,0.139 -0.152,0.104 L 0.236,0.022 C 0.16,0 0.075,0 0,0" style="fill:#1d1d1b;fill-opacity:1;fill-rule:nonzero;stroke:none" id="path282"></path></g><g id="g284" transform="translate(289.5059,648.292)"><path d="M 0,0 V -3.373 C 0,-3.456 -0.054,-3.49 -0.138,-3.49 h -0.769 c -0.095,0 -0.124,0.034 -0.124,0.123 v 3.248 c 0,0.102 -0.062,0.156 -0.151,0.156 h -1.413 c -0.104,0 -0.154,-0.054 -0.154,-0.156 v -3.248 c 0,-0.089 -0.05,-0.123 -0.123,-0.123 h -0.775 c -0.093,0 -0.134,0.034 -0.134,0.117 v 4.054 c 0,0.102 0.041,0.148 0.134,0.148 h 0.775 c 0.073,0 0.123,-0.046 0.123,-0.148 V 0.554 c 0,-0.089 0.04,-0.121 0.154,-0.095 l 1.471,0.404 C -1.047,0.873 -0.975,0.899 -0.9,0.899 -0.39,0.899 0,0.474 0,0" style="fill:#1d1d1b;fill-opacity:1;fill-rule:nonzero;stroke:none" id="path286"></path></g><g id="g288" transform="translate(293.1367,645.7266)"><path d="m 0,0 v 2.44 c 0,0.108 -0.049,0.162 -0.154,0.162 h -1.423 c -0.108,0 -0.144,-0.054 -0.144,-0.162 V 0 c 0,-0.093 0.036,-0.13 0.144,-0.13 h 1.423 C -0.049,-0.13 0,-0.093 0,0 m -2.753,-0.106 v 1.939 c 0,0.417 0.172,0.732 0.546,0.932 l 0.813,0.474 c 0.173,0.11 0.339,0.156 0.539,0.156 h 0.714 C -0.049,3.395 0,3.434 0,3.523 V 5.118 C 0,5.202 0.041,5.267 0.114,5.267 H 0.9 c 0.095,0 0.133,-0.065 0.133,-0.149 V -0.807 C 1.033,-0.891 0.995,-0.925 0.9,-0.925 H 0.114 C 0.041,-0.925 0,-0.891 0,-0.802 v 0.126 c 0,0.098 -0.049,0.138 -0.141,0.104 L -1.632,-0.97 c -0.082,-0.021 -0.154,-0.021 -0.23,-0.021 -0.401,-0.017 -0.891,0.352 -0.891,0.885" style="fill:#1d1d1b;fill-opacity:1;fill-rule:nonzero;stroke:none" id="path290"></path></g><g id="g292" transform="translate(297.8018,645.7266)"><path d="m 0,0 v 2.44 c 0,0.108 -0.055,0.162 -0.154,0.162 h -1.422 c -0.11,0 -0.147,-0.054 -0.147,-0.162 V 0 c 0,-0.093 0.037,-0.13 0.147,-0.13 h 1.422 C -0.055,-0.13 0,-0.093 0,0 m -1.864,-0.991 c -0.484,0 -0.892,0.394 -0.892,0.885 v 1.939 c 0,0.417 0.175,0.732 0.538,0.932 l 0.824,0.474 c 0.17,0.11 0.335,0.156 0.532,0.156 h 1.76 c 0.086,0 0.131,-0.046 0.131,-0.148 v -4.054 c 0,-0.084 -0.045,-0.118 -0.131,-0.118 H 0.114 C 0.029,-0.925 0,-0.891 0,-0.802 v 0.126 c 0,0.098 -0.055,0.138 -0.154,0.104 L -1.633,-0.97 c -0.084,-0.021 -0.152,-0.021 -0.231,-0.021" style="fill:#1d1d1b;fill-opacity:1;fill-rule:nonzero;stroke:none" id="path294"></path></g><g id="g296" transform="translate(300.8926,644.9194)"><path d="m 0,0 c 0,-0.083 -0.053,-0.118 -0.129,-0.118 h -0.768 c -0.104,0 -0.13,0.035 -0.13,0.118 v 4.054 c 0,0.102 0.026,0.148 0.13,0.148 h 0.768 C -0.053,4.202 0,4.156 0,4.054 Z M 0,5.294 C 0,5.199 -0.053,5.169 -0.129,5.169 h -0.768 c -0.104,0 -0.13,0.03 -0.13,0.125 v 0.633 c 0,0.082 0.026,0.147 0.13,0.147 h 0.768 C -0.053,6.074 0,6.009 0,5.927 Z" style="fill:#1d1d1b;fill-opacity:1;fill-rule:nonzero;stroke:none" id="path298"></path></g><g id="g300" transform="translate(303.0508,645.9116)"><path d="m 0,0 v 2.919 c 0,0.429 0.186,0.759 0.565,0.982 l 0.899,0.5 c 0.164,0.1 0.353,0.147 0.534,0.147 h 1.908 c 0.089,0 0.138,-0.047 0.138,-0.138 V 3.85 C 4.044,3.765 3.995,3.721 3.906,3.721 H 1.231 C 1.14,3.721 1.104,3.672 1.104,3.573 v -3.71 c 0,-0.102 0.036,-0.146 0.127,-0.146 h 2.751 c 0.082,0 0.136,-0.044 0.136,-0.116 0,-0.083 -0.04,-0.155 -0.123,-0.203 L 3.333,-0.969 C 3.157,-1.068 2.973,-1.11 2.788,-1.11 H 1.125 C 0.579,-1.11 0,-0.714 0,0" style="fill:#1d1d1b;fill-opacity:1;fill-rule:nonzero;stroke:none" id="path302"></path></g><g id="g304" transform="translate(310.5659,645.7266)"><path d="m 0,0 v 2.44 c 0,0.108 -0.055,0.162 -0.156,0.162 h -1.421 c -0.108,0 -0.149,-0.054 -0.149,-0.162 V 0 c 0,-0.093 0.041,-0.13 0.149,-0.13 h 1.421 C -0.055,-0.13 0,-0.093 0,0 m -1.862,-0.991 c -0.486,0 -0.894,0.394 -0.894,0.885 v 1.939 c 0,0.417 0.176,0.732 0.535,0.932 l 0.825,0.474 c 0.169,0.11 0.337,0.156 0.531,0.156 h 1.764 c 0.083,0 0.131,-0.046 0.131,-0.148 v -4.054 c 0,-0.084 -0.048,-0.118 -0.131,-0.118 H 0.116 C 0.03,-0.925 0,-0.891 0,-0.802 v 0.126 c 0,0.098 -0.055,0.138 -0.156,0.104 L -1.629,-0.97 c -0.087,-0.021 -0.156,-0.021 -0.233,-0.021" style="fill:#1d1d1b;fill-opacity:1;fill-rule:nonzero;stroke:none" id="path306"></path></g><g id="g308" transform="translate(315.3823,645.7266)"><path d="m 0,0 v 2.44 c 0,0.108 -0.051,0.162 -0.15,0.162 h -1.419 c -0.108,0 -0.148,-0.054 -0.148,-0.162 V 0 c 0,-0.093 0.04,-0.13 0.148,-0.13 H -0.15 C -0.051,-0.13 0,-0.093 0,0 M 1.032,2.565 V 0.617 c 0,-0.411 -0.178,-0.714 -0.53,-0.931 L -0.336,-0.793 C -0.501,-0.891 -0.685,-0.925 -0.86,-0.925 h -0.709 c -0.108,0 -0.148,-0.06 -0.148,-0.163 v -1.554 c 0,-0.098 -0.053,-0.151 -0.129,-0.151 h -0.78 c -0.091,0 -0.128,0.053 -0.128,0.151 v 5.889 c 0,0.102 0.037,0.148 0.128,0.148 h 0.78 c 0.076,0 0.129,-0.046 0.129,-0.148 V 3.119 c 0,-0.089 0.04,-0.121 0.148,-0.095 l 1.468,0.405 c 0.088,0.009 0.171,0.035 0.241,0.035 0.436,0 0.892,-0.356 0.892,-0.899" style="fill:#1d1d1b;fill-opacity:1;fill-rule:nonzero;stroke:none" id="path310"></path></g><g id="g312" transform="translate(318.3223,644.9194)"><path d="M 0,0 C 0,-0.083 -0.054,-0.118 -0.133,-0.118 H -0.899 C -1,-0.118 -1.034,-0.083 -1.034,0 v 4.054 c 0,0.102 0.034,0.148 0.135,0.148 h 0.766 C -0.054,4.202 0,4.156 0,4.054 Z M 0,5.294 C 0,5.199 -0.054,5.169 -0.133,5.169 h -0.766 c -0.101,0 -0.135,0.03 -0.135,0.125 v 0.633 c 0,0.082 0.034,0.147 0.135,0.147 h 0.766 C -0.054,6.074 0,6.009 0,5.927 Z" style="fill:#1d1d1b;fill-opacity:1;fill-rule:nonzero;stroke:none" id="path314"></path></g><g id="g316" transform="translate(320.4219,644.7959)"><path d="m 0,0 c -0.645,0 -1.068,0.531 -1.068,1.06 v 3.89 c 0,0.092 0.028,0.144 0.122,0.185 l 0.791,0.197 c 0.073,0.019 0.131,-0.017 0.131,-0.089 V 4.432 c 0,-0.073 0.035,-0.107 0.101,-0.107 h 1.404 c 0.095,0 0.144,-0.046 0.144,-0.148 V 3.649 C 1.625,3.571 1.576,3.532 1.481,3.532 H 0.115 c -0.098,0 -0.139,-0.053 -0.139,-0.161 v -2.44 c 0,-0.093 0.041,-0.13 0.139,-0.13 H 1.641 C 1.738,0.801 1.785,0.757 1.785,0.67 1.785,0.594 1.747,0.541 1.663,0.491 L 1.057,0.129 C 0.886,0.029 0.711,0 0.514,0 Z" style="fill:#1d1d1b;fill-opacity:1;fill-rule:nonzero;stroke:none" id="path318"></path></g><g id="g320" transform="translate(325.6021,645.7266)"><path d="m 0,0 v 2.44 c 0,0.108 -0.051,0.162 -0.154,0.162 h -1.418 c -0.113,0 -0.152,-0.054 -0.152,-0.162 V 0 c 0,-0.093 0.039,-0.13 0.152,-0.13 h 1.418 C -0.051,-0.13 0,-0.093 0,0 m -1.861,-0.991 c -0.487,0 -0.893,0.394 -0.893,0.885 v 1.939 c 0,0.417 0.174,0.732 0.539,0.932 l 0.823,0.474 c 0.167,0.11 0.339,0.156 0.531,0.156 h 1.764 c 0.083,0 0.131,-0.046 0.131,-0.148 v -4.054 c 0,-0.084 -0.048,-0.118 -0.131,-0.118 H 0.116 C 0.033,-0.925 0,-0.891 0,-0.802 v 0.126 c 0,0.098 -0.051,0.138 -0.154,0.104 L -1.635,-0.97 c -0.079,-0.021 -0.15,-0.021 -0.226,-0.021" style="fill:#1d1d1b;fill-opacity:1;fill-rule:nonzero;stroke:none" id="path322"></path></g><g id="g324" transform="translate(328.6973,644.9194)"><path d="m 0,0 c 0,-0.083 -0.055,-0.118 -0.119,-0.118 h -0.774 c -0.101,0 -0.139,0.035 -0.139,0.118 v 5.927 c 0,0.082 0.038,0.147 0.139,0.147 h 0.774 C -0.055,6.074 0,6.009 0,5.927 Z" style="fill:#1d1d1b;fill-opacity:1;fill-rule:nonzero;stroke:none" id="path326"></path></g><g id="g328" transform="translate(349.9717,615.0615)"><path d="M 0,0 H -6.664 V 39.632 H -94.057 V 0.002 h -6.664 V 46.297 H 0 Z" style="fill:#1d1d1b;fill-opacity:1;fill-rule:nonzero;stroke:none" id="path330"></path></g><g id="g332" transform="translate(299.605,518.0332)"><path d="m 0,0 -50.354,26.009 v 35.955 l 0.797,0.131 c 1.604,0.264 3.199,0.511 4.779,0.742 l 1.088,0.158 V 30.068 L 0,7.5 43.703,30.068 V 63.11 l 1.117,-0.199 c 1.661,-0.292 3.25,-0.586 4.775,-0.875 l 0.772,-0.147 V 26.007 Z" style="fill:#1d1d1b;fill-opacity:1;fill-rule:nonzero;stroke:none" id="path334"></path></g><g id="g336" transform="translate(286.75,583.8096)"><path d="M 0,0 C -8.16,-0.283 -16.82,-0.946 -25.891,-2.149 L -25.9,-32.378 0,-45.856 Z" style="fill:#1d1d1b;fill-opacity:1;fill-rule:nonzero;stroke:none" id="path338"></path></g><g id="g340" transform="translate(312.5312,583.8096)"><path d="M 0,0 C 8.16,-0.283 16.823,-0.946 25.895,-2.149 L 25.901,-32.378 0,-45.856 Z" style="fill:#0082ca;fill-opacity:1;fill-rule:nonzero;stroke:none" id="path342"></path></g><g id="g344" transform="translate(286.0146,583.8008)"><path d="M 0,0 H -0.002 Z" style="fill:#1d1d1b;fill-opacity:1;fill-rule:nonzero;stroke:none" id="path346"></path></g><g id="g348" transform="translate(312.5312,583.8096)"><path d="M 0,0 C -7.933,0.5 -16.502,0.327 -25.781,0 V -45.856 L -12.922,-51.901 0,-45.856 Z" style="fill:#ffffff;fill-opacity:1;fill-rule:nonzero;stroke:none" id="path350"></path></g></g></g><text transform="matrix(1,0,0,-1,35.1016,781.9224)" style="font-variant:normal;font-weight:bold;font-stretch:normal;font-size:18px;font-family:'YouandiModern TextBold';writing-mode:lr-tb;fill:rgb(87, 87, 86);fill-opacity:1;fill-rule:nonzero;stroke:none" id="text354"><tspan x="0" y="0" id="tspan352">엠블럼</tspan></text><g id="g356"><g id="g358" clip-path="url(#clipPath362)"><g id="g364" transform="translate(367.4756,211.6475)"><path d="m 0,0 3.667,12.329 h -26.276 v 40.933 h -89.372 V 12.329 h -24.852 c 0,0 3.842,-22.194 5.39,-30.58 l 0.667,-3.594 c 0,0 6.984,2.191 18.795,4.336 V -48.39 l 44.681,-23.083 44.691,23.078 v 30.875 c 2.742,-0.528 5.503,-1.113 8.28,-1.763 1.562,-0.342 3.162,-0.699 4.555,-1.057 0.579,-0.147 1.153,-0.221 1.718,-0.221 0.965,0 1.879,0.216 2.721,0.641 1.028,0.501 2.049,1.015 3.023,1.524 l 0.05,0.028 0.051,0.027 c 1.425,0.803 3.819,2.877 3.819,7.711 v 2.534 c 0,3.357 -1.341,6.371 -3.401,8.199 z" style="fill:#ffffff;fill-opacity:1;fill-rule:nonzero;stroke:none" id="path366"></path></g><g id="g368" transform="translate(315.0508,220.3584)"><path d="m 0,0 c -1.6,0.003 -3.202,0.003 -4.811,0.003 -0.483,0 -0.892,-0.17 -1.227,-0.529 -2.108,-2.398 -4.229,-4.763 -6.351,-7.127 -0.005,2.549 -0.009,5.104 -0.013,7.659 h -4.669 c -0.01,-6.155 -0.014,-12.311 -0.019,-18.469 1.572,0.012 3.143,0.012 4.714,-0.008 -0.004,2.725 -0.008,5.45 -0.008,8.173 2.109,-2.561 4.223,-5.141 6.351,-7.788 0.27,-0.372 0.698,-0.575 1.272,-0.601 1.651,-0.069 3.295,-0.161 4.941,-0.269 -2.772,3.462 -5.538,6.784 -8.286,10.041 C -5.391,-5.98 -2.688,-3.032 0,0" style="fill:#1d1d1b;fill-opacity:1;fill-rule:nonzero;stroke:none" id="path370"></path></g><g id="g372" transform="translate(259.1299,220.3232)"><path d="m 0,0 c -1.136,-5.666 -2.27,-11.475 -3.401,-17.441 -0.938,5.662 -1.88,11.462 -2.822,17.421 -2.343,-0.007 -4.688,-0.015 -7.036,-0.019 -1.048,-6.429 -2.09,-13.034 -3.124,-19.846 -1.034,6.406 -2.077,13.009 -3.13,19.825 -1.648,0 -3.299,-0.009 -4.949,-0.014 1.59,-9.171 3.157,-17.902 4.696,-26.238 2.229,0.59 4.463,1.153 6.705,1.674 1.085,6.582 2.178,12.971 3.282,19.177 0.977,-6.102 1.957,-12.035 2.927,-17.806 2.27,0.465 4.544,0.9 6.82,1.296 1.645,7.597 3.294,14.909 4.944,21.979 C 3.275,0.006 1.635,0 0,0" style="fill:#1d1d1b;fill-opacity:1;fill-rule:nonzero;stroke:none" id="path374"></path></g><g id="g376" transform="translate(268.7158,208.7686)"><path d="M 0,0 C 0.698,2.514 1.397,4.991 2.095,7.44 2.743,5.028 3.392,2.646 4.043,0.28 2.697,0.194 1.346,0.1 0,0 M -0.86,11.568 C -2.937,4.688 -5.02,-2.459 -7.1,-9.966 c 0.037,0.003 0.069,-0.01 0.111,-0.005 1.566,0.26 3.138,0.5 4.705,0.72 0.481,1.725 0.965,3.419 1.443,5.105 2.063,0.222 4.126,0.412 6.194,0.584 0.005,0 0.038,-0.017 0.075,-0.08 0.421,-1.506 0.844,-3.004 1.272,-4.496 1.613,0.172 3.225,0.319 4.843,0.457 C 9.596,-1.422 7.66,4.969 5.739,11.583 3.538,11.575 1.337,11.572 -0.86,11.568" style="fill:#1d1d1b;fill-opacity:1;fill-rule:nonzero;stroke:none" id="path378"></path></g><g id="g380" transform="translate(281.1279,205.2666)"><path d="m 0,0 c -0.019,-1.602 1.117,-4.017 4.232,-3.812 1.649,0.105 3.299,0.188 4.95,0.256 0.808,0.032 1.498,0.212 2.173,0.577 1.288,0.714 2.574,1.412 3.856,2.099 -0.005,0.375 -0.01,0.748 -0.019,1.123 C 11.869,0.202 8.547,0.107 5.225,-0.042 4.958,-0.06 4.756,0.136 4.752,0.377 L 4.756,15.095 C 3.18,15.092 1.607,15.087 0.031,15.087 Z" style="fill:#1d1d1b;fill-opacity:1;fill-rule:nonzero;stroke:none" id="path382"></path></g><g id="g384" transform="translate(329.0996,212.3135)"><path d="m 0,0 c -2.928,0.149 -5.854,0.274 -8.786,0.382 -0.24,0.017 -0.428,0.205 -0.451,0.434 -0.004,0.991 -0.014,1.981 -0.018,2.97 0.026,0.225 0.215,0.4 0.459,0.398 3.088,-0.058 6.182,-0.128 9.269,-0.216 L 0.428,8.006 c -2.469,0.004 -4.933,0.01 -7.4,0.012 -0.725,0 -1.437,-0.193 -2.041,-0.544 -0.977,-0.544 -1.962,-1.078 -2.945,-1.603 -1.401,-0.808 -2.109,-2.013 -2.1,-3.599 0.023,-3.095 0.046,-6.182 0.07,-9.272 0.013,-2.006 1.649,-4.186 4.351,-4.419 1.911,-0.157 3.819,-0.345 5.721,-0.552 0.809,-0.092 1.508,0.008 2.133,0.303 0.977,0.433 1.962,0.872 2.936,1.314 -0.005,0.606 -0.014,1.213 -0.022,1.816 -3.273,0.351 -6.549,0.639 -9.831,0.872 -0.243,0.021 -0.441,0.225 -0.459,0.464 -0.014,1.099 -0.024,2.2 -0.032,3.295 0.018,0.23 0.197,0.395 0.428,0.395 2.94,-0.153 5.876,-0.338 8.809,-0.557 z" style="fill:#1d1d1b;fill-opacity:1;fill-rule:nonzero;stroke:none" id="path386"></path></g><g id="g388" transform="translate(336.791,211.0684)"><path d="m 0,0 h -0.004 c -0.262,0.021 -0.477,0.262 -0.482,0.55 v 0.008 c -0.014,1.339 -0.032,2.683 -0.041,4.026 0,0.27 0.192,0.472 0.436,0.481 C 1.733,5.004 3.549,4.939 5.373,4.869 5.607,4.846 5.795,4.626 5.814,4.354 5.832,2.922 5.842,1.487 5.859,0.055 5.842,-0.22 5.648,-0.428 5.396,-0.408 3.599,-0.265 1.798,-0.125 0,0 M 8.442,-2.604 C 9.899,-1.79 10.626,-0.381 10.606,1.55 10.598,2.756 10.585,3.966 10.575,5.179 10.543,8.171 8.318,9.548 6.825,9.535 6.572,9.532 6.279,9.482 5.97,9.43 3.876,8.936 1.783,8.468 -0.312,8.02 -0.459,8.031 -0.56,8.138 -0.577,8.315 c -0.006,0.318 -0.011,0.63 -0.011,0.948 -1.566,0 -3.129,0.006 -4.695,0.009 0.078,-6.87 0.155,-13.734 0.238,-20.599 1.572,-0.218 3.139,-0.446 4.706,-0.692 -0.028,2.444 -0.056,4.891 -0.083,7.336 0,0.276 0.193,0.471 0.443,0.46 0.894,-0.089 1.791,-0.181 2.682,-0.281 0.11,-0.016 0.17,-0.056 0.225,-0.175 1.259,-2.502 2.513,-5.077 3.768,-7.734 0.216,-0.56 0.653,-0.944 1.196,-1.047 1.539,-0.301 3.078,-0.612 4.614,-0.942 -1.742,3.869 -3.493,7.558 -5.244,11.098 0.395,0.235 0.79,0.464 1.18,0.7" style="fill:#1d1d1b;fill-opacity:1;fill-rule:nonzero;stroke:none" id="path390"></path></g><g id="g392" transform="translate(366.6074,220.6035)"><path d="m 0,0 c -2.805,0.008 -7.045,0.015 -9.849,0.024 -0.754,0.004 -1.479,-0.244 -2.09,-0.697 -1.006,-0.691 -2.008,-1.363 -3.01,-2.021 -1.389,-0.978 -2.076,-2.467 -2.064,-4.474 0.009,-0.635 0.015,-1.275 0.019,-1.912 0.027,-2.952 1.897,-5.43 4.343,-5.8 1.994,-0.276 4.521,-0.612 6.511,-0.929 0.258,-0.05 0.464,-0.363 0.464,-0.708 0,-0.01 0.004,-0.01 0.004,-0.017 0.005,-1.412 0.011,-2.824 0.015,-4.235 0,-0.011 -0.004,-0.006 -0.004,-0.014 0,-0.33 -0.19,-0.561 -0.438,-0.537 -3.248,0.687 -7.048,1.362 -10.326,1.937 0.015,-1.588 0.029,-3.167 0.042,-4.752 2.596,-0.569 5.731,-1.218 8.313,-1.878 0.777,-0.196 1.481,-0.149 2.091,0.169 0.988,0.482 1.981,0.977 2.973,1.493 1.364,0.776 2.092,2.444 2.092,4.765 v 2.537 c 0.004,3.831 -2.239,6.429 -4.311,6.624 -1.995,0.214 -4.517,0.447 -6.512,0.64 -0.248,0.03 -0.451,0.303 -0.464,0.623 -0.009,1.224 -0.019,2.449 -0.024,3.679 0.01,0.312 0.203,0.551 0.455,0.551 3.062,-0.152 7.096,-0.312 10.157,-0.492 z" style="fill:#1d1d1b;fill-opacity:1;fill-rule:nonzero;stroke:none" id="path394"></path></g><g id="g396" transform="translate(322.2148,243.6113)"><path d="m 0,0 c -0.624,0 -0.95,-0.404 -1.167,-0.747 l -3.998,-7.211 -3.998,7.243 C -9.447,-0.26 -9.893,0 -10.385,0 h -6.82 c -0.491,0 -0.909,-0.189 -1.25,-0.58 l -6.481,-7.731 V 0 h -4.759 v -20.035 h 4.759 v 8.865 l 6.399,-8.278 c 0.27,-0.391 0.702,-0.587 1.281,-0.587 h 4.986 l -8.327,10.407 6.724,7.812 6.157,-10.242 c 0.115,-0.187 0.171,-0.362 0.171,-0.534 v -7.443 h 4.761 v 7.443 c 0,0.172 0.05,0.347 0.165,0.534 L 4.766,0 Z" style="fill:#1d1d1b;fill-opacity:1;fill-rule:nonzero;stroke:none" id="path398"></path></g><g id="g400" transform="translate(280.2822,239.6748)"><path d="m 0,0 h 9.259 l 1.15,3.937 H 1.967 c -0.758,0 -1.494,-0.196 -2.11,-0.563 L -3.185,1.7 C -4.586,0.867 -5.299,-0.397 -5.299,-2.071 v -1.591 c 0,-2.475 1.87,-4.333 4.344,-4.333 h 6.056 c 0.257,-0.012 0.468,-0.222 0.468,-0.484 0,-0.004 0.005,-0.004 0.005,-0.009 v -3.19 c 0,-0.006 -0.005,-0.006 -0.005,-0.011 0,-0.249 -0.197,-0.451 -0.44,-0.471 h -9.936 v -3.939 h 7.899 c 0.791,0 1.508,0.185 2.134,0.54 l 3.041,1.667 c 1.397,0.82 2.136,2.132 2.136,3.799 v 1.82 c 0,2.729 -2.265,4.417 -4.36,4.417 L 0,-3.853 c -0.253,0.006 -0.45,0.208 -0.465,0.461 V -0.46 C -0.45,-0.211 -0.253,-0.015 0,0" style="fill:#1d1d1b;fill-opacity:1;fill-rule:nonzero;stroke:none" id="path402"></path></g><g id="g404" transform="translate(280.0615,248.043)"><path d="m 0,0 c 0,-0.07 -0.046,-0.098 -0.115,-0.098 h -0.662 c -0.074,0 -0.1,0.028 -0.1,0.1 v 1.785 c 0,0.087 -0.06,0.128 -0.144,0.128 h -1.717 c -0.075,0 -0.125,-0.041 -0.125,-0.128 V 0.002 c 0,-0.072 -0.037,-0.1 -0.111,-0.1 H -3.64 c -0.064,0 -0.091,0.028 -0.091,0.098 v 4.434 c 0,0.068 0.027,0.107 0.091,0.107 h 0.666 c 0.074,0 0.111,-0.039 0.111,-0.107 V 2.717 c 0,-0.08 0.05,-0.122 0.125,-0.122 h 1.717 c 0.084,0 0.144,0.042 0.144,0.122 v 1.717 c 0,0.068 0.026,0.107 0.1,0.107 h 0.662 C -0.046,4.541 0,4.502 0,4.434 Z" style="fill:#1d1d1b;fill-opacity:1;fill-rule:nonzero;stroke:none" id="path406"></path></g><g id="g408" transform="translate(281.6484,247.8809)"><path d="m 0,0 c -0.489,0 -0.741,0.395 -0.741,0.729 v 2.754 c 0,0.085 0.032,0.126 0.105,0.126 H 0 c 0.059,0 0.104,-0.041 0.104,-0.126 V 0.824 c 0,-0.08 0.033,-0.12 0.12,-0.12 h 1.153 c 0.078,0 0.128,0.04 0.128,0.12 v 2.659 c 0,0.085 0.033,0.126 0.107,0.126 H 2.246 C 2.314,3.609 2.36,3.568 2.36,3.483 V -0.535 C 2.36,-0.633 2.328,-0.729 2.283,-0.82 L 1.85,-1.525 C 1.814,-1.59 1.758,-1.623 1.694,-1.623 H 1.612 c -0.074,0 -0.107,0.043 -0.107,0.113 v 1.777 c 0,0.078 -0.045,0.11 -0.114,0.087 L 0.183,0.015 C 0.127,0 0.054,0 0,0" style="fill:#1d1d1b;fill-opacity:1;fill-rule:nonzero;stroke:none" id="path410"></path></g><g id="g412" transform="translate(285.5762,247.8906)"><path d="m 0,0 c -0.382,0 -0.722,0.312 -0.722,0.728 v 2.746 c 0,0.085 0.028,0.118 0.102,0.118 h 0.639 c 0.059,0 0.1,-0.033 0.1,-0.118 v -2.66 c 0,-0.08 0.037,-0.107 0.129,-0.107 h 1.153 c 0.074,0 0.129,0.027 0.129,0.107 v 2.66 c 0,0.085 0.023,0.118 0.096,0.118 h 0.636 c 0.068,0 0.109,-0.033 0.109,-0.118 V 0.152 C 2.371,0.082 2.33,0.055 2.262,0.055 H 1.626 C 1.553,0.055 1.53,0.082 1.53,0.154 V 0.257 C 1.53,0.34 1.475,0.372 1.406,0.345 L 0.197,0.02 C 0.134,0 0.064,0 0,0" style="fill:#1d1d1b;fill-opacity:1;fill-rule:nonzero;stroke:none" id="path414"></path></g><g id="g416" transform="translate(291.8955,250.8105)"><path d="m 0,0 v -2.768 c 0,-0.07 -0.047,-0.097 -0.115,-0.097 h -0.63 c -0.078,0 -0.102,0.027 -0.102,0.099 v 2.662 c 0,0.086 -0.05,0.131 -0.124,0.131 h -1.158 c -0.086,0 -0.128,-0.045 -0.128,-0.131 v -2.662 c 0,-0.072 -0.037,-0.099 -0.1,-0.099 h -0.636 c -0.073,0 -0.11,0.027 -0.11,0.097 v 3.322 c 0,0.085 0.037,0.126 0.11,0.126 h 0.636 c 0.063,0 0.1,-0.041 0.1,-0.126 V 0.452 c 0,-0.073 0.036,-0.1 0.128,-0.077 l 1.205,0.332 C -0.859,0.715 -0.8,0.734 -0.736,0.734 -0.323,0.734 0,0.387 0,0" style="fill:#1d1d1b;fill-opacity:1;fill-rule:nonzero;stroke:none" id="path418"></path></g><g id="g420" transform="translate(294.873,248.7051)"><path d="m 0,0 v 1.997 c 0,0.091 -0.042,0.136 -0.129,0.136 h -1.163 c -0.092,0 -0.12,-0.045 -0.12,-0.136 V 0 c 0,-0.08 0.028,-0.107 0.12,-0.107 h 1.163 C -0.042,-0.107 0,-0.08 0,0 m -2.257,-0.087 v 1.589 c 0,0.341 0.139,0.603 0.445,0.763 l 0.666,0.39 c 0.144,0.089 0.282,0.122 0.443,0.122 h 0.587 C -0.042,2.777 0,2.814 0,2.888 V 4.197 C 0,4.265 0.031,4.319 0.092,4.319 H 0.74 c 0.072,0 0.106,-0.054 0.106,-0.122 V -0.662 C 0.846,-0.732 0.812,-0.76 0.74,-0.76 H 0.092 C 0.031,-0.76 0,-0.732 0,-0.66 v 0.102 c 0,0.083 -0.042,0.116 -0.116,0.088 l -1.221,-0.325 c -0.07,-0.019 -0.13,-0.019 -0.189,-0.019 -0.331,-0.013 -0.731,0.29 -0.731,0.727" style="fill:#1d1d1b;fill-opacity:1;fill-rule:nonzero;stroke:none" id="path422"></path></g><g id="g424" transform="translate(298.7002,248.7051)"><path d="m 0,0 v 1.997 c 0,0.091 -0.05,0.136 -0.128,0.136 h -1.168 c -0.092,0 -0.119,-0.045 -0.119,-0.136 V 0 c 0,-0.08 0.027,-0.107 0.119,-0.107 h 1.168 C -0.05,-0.107 0,-0.08 0,0 m -1.53,-0.814 c -0.395,0 -0.736,0.322 -0.736,0.727 v 1.589 c 0,0.341 0.148,0.603 0.447,0.763 l 0.675,0.39 c 0.137,0.089 0.276,0.122 0.432,0.122 h 1.447 c 0.07,0 0.106,-0.033 0.106,-0.118 v -3.321 c 0,-0.07 -0.036,-0.098 -0.106,-0.098 H 0.092 C 0.02,-0.76 0,-0.732 0,-0.66 v 0.102 c 0,0.083 -0.05,0.116 -0.128,0.088 L -1.341,-0.795 C -1.41,-0.814 -1.466,-0.814 -1.53,-0.814" style="fill:#1d1d1b;fill-opacity:1;fill-rule:nonzero;stroke:none" id="path426"></path></g><g id="g428" transform="translate(301.2324,248.043)"><path d="m 0,0 c 0,-0.07 -0.041,-0.098 -0.105,-0.098 h -0.63 c -0.087,0 -0.106,0.028 -0.106,0.098 v 3.321 c 0,0.085 0.019,0.118 0.106,0.118 h 0.63 C -0.041,3.439 0,3.406 0,3.321 Z M 0,4.337 C 0,4.265 -0.041,4.239 -0.105,4.239 h -0.63 c -0.087,0 -0.106,0.026 -0.106,0.098 v 0.522 c 0,0.068 0.019,0.122 0.106,0.122 h 0.63 C -0.041,4.981 0,4.927 0,4.859 Z" style="fill:#1d1d1b;fill-opacity:1;fill-rule:nonzero;stroke:none" id="path430"></path></g><g id="g432" transform="translate(303.002,248.8555)"><path d="m 0,0 v 2.395 c 0,0.349 0.152,0.619 0.464,0.804 l 0.741,0.41 c 0.133,0.08 0.284,0.12 0.436,0.12 h 1.562 c 0.073,0 0.115,-0.04 0.115,-0.113 V 3.157 C 3.318,3.087 3.276,3.052 3.203,3.052 H 1.011 C 0.933,3.052 0.905,3.012 0.905,2.93 v -3.039 c 0,-0.088 0.028,-0.121 0.106,-0.121 h 2.257 c 0.068,0 0.11,-0.035 0.11,-0.097 0,-0.069 -0.032,-0.128 -0.102,-0.165 L 2.735,-0.795 C 2.587,-0.875 2.44,-0.91 2.289,-0.91 H 0.924 C 0.474,-0.91 0,-0.588 0,0" style="fill:#1d1d1b;fill-opacity:1;fill-rule:nonzero;stroke:none" id="path434"></path></g><g id="g436" transform="translate(309.1641,248.7051)"><path d="m 0,0 v 1.997 c 0,0.091 -0.046,0.136 -0.129,0.136 h -1.162 c -0.088,0 -0.124,-0.045 -0.124,-0.136 V 0 c 0,-0.08 0.036,-0.107 0.124,-0.107 h 1.162 C -0.046,-0.107 0,-0.08 0,0 m -1.525,-0.814 c -0.4,0 -0.735,0.322 -0.735,0.727 v 1.589 c 0,0.341 0.146,0.603 0.441,0.763 l 0.674,0.39 c 0.139,0.089 0.277,0.122 0.438,0.122 h 1.443 c 0.069,0 0.111,-0.033 0.111,-0.118 v -3.321 c 0,-0.07 -0.042,-0.098 -0.111,-0.098 H 0.097 C 0.027,-0.76 0,-0.732 0,-0.66 v 0.102 c 0,0.083 -0.046,0.116 -0.129,0.088 l -1.204,-0.325 c -0.073,-0.019 -0.128,-0.019 -0.192,-0.019" style="fill:#1d1d1b;fill-opacity:1;fill-rule:nonzero;stroke:none" id="path438"></path></g><g id="g440" transform="translate(313.1162,248.7051)"><path d="M 0,0 V 1.997 C 0,2.088 -0.046,2.133 -0.125,2.133 H -1.286 C -1.378,2.133 -1.41,2.088 -1.41,1.997 V 0 c 0,-0.08 0.032,-0.107 0.124,-0.107 h 1.161 C -0.046,-0.107 0,-0.08 0,0 m 0.846,2.105 v -1.6 C 0.846,0.165 0.698,-0.08 0.409,-0.26 L -0.275,-0.654 C -0.413,-0.732 -0.561,-0.76 -0.707,-0.76 h -0.579 c -0.092,0 -0.124,-0.05 -0.124,-0.132 v -1.275 c 0,-0.08 -0.042,-0.127 -0.107,-0.127 h -0.638 c -0.074,0 -0.106,0.047 -0.106,0.127 v 4.826 c 0,0.085 0.032,0.118 0.106,0.118 h 0.638 c 0.065,0 0.107,-0.033 0.107,-0.118 V 2.558 c 0,-0.074 0.032,-0.101 0.124,-0.078 l 1.204,0.333 C -0.014,2.82 0.056,2.84 0.115,2.84 0.474,2.84 0.846,2.547 0.846,2.105" style="fill:#1d1d1b;fill-opacity:1;fill-rule:nonzero;stroke:none" id="path442"></path></g><g id="g444" transform="translate(315.5244,248.043)"><path d="m 0,0 c 0,-0.07 -0.042,-0.098 -0.11,-0.098 h -0.625 c -0.082,0 -0.111,0.028 -0.111,0.098 v 3.321 c 0,0.085 0.029,0.118 0.111,0.118 H -0.11 C -0.042,3.439 0,3.406 0,3.321 Z M 0,4.337 C 0,4.265 -0.042,4.239 -0.11,4.239 h -0.625 c -0.082,0 -0.111,0.026 -0.111,0.098 v 0.522 c 0,0.068 0.029,0.122 0.111,0.122 H -0.11 C -0.042,4.981 0,4.927 0,4.859 Z" style="fill:#1d1d1b;fill-opacity:1;fill-rule:nonzero;stroke:none" id="path446"></path></g><g id="g448" transform="translate(317.248,247.9404)"><path d="m 0,0 c -0.528,0 -0.878,0.433 -0.878,0.87 v 3.189 c 0,0.078 0.028,0.12 0.101,0.151 l 0.648,0.161 c 0.061,0.018 0.106,-0.015 0.106,-0.069 V 3.635 c 0,-0.058 0.032,-0.093 0.086,-0.093 h 1.15 c 0.078,0 0.119,-0.033 0.119,-0.118 V 2.994 C 1.332,2.93 1.291,2.897 1.213,2.897 H 0.096 c -0.083,0 -0.119,-0.044 -0.119,-0.135 V 0.765 c 0,-0.08 0.036,-0.108 0.119,-0.108 h 1.251 c 0.076,0 0.119,-0.034 0.119,-0.106 0,-0.064 -0.033,-0.107 -0.102,-0.15 L 0.863,0.104 C 0.726,0.024 0.582,0 0.422,0 Z" style="fill:#1d1d1b;fill-opacity:1;fill-rule:nonzero;stroke:none" id="path450"></path></g><g id="g452" transform="translate(321.4941,248.7051)"><path d="m 0,0 v 1.997 c 0,0.091 -0.042,0.136 -0.124,0.136 h -1.163 c -0.092,0 -0.124,-0.045 -0.124,-0.136 V 0 c 0,-0.08 0.032,-0.107 0.124,-0.107 h 1.163 C -0.042,-0.107 0,-0.08 0,0 m -1.526,-0.814 c -0.4,0 -0.731,0.322 -0.731,0.727 v 1.589 c 0,0.341 0.143,0.603 0.442,0.763 l 0.674,0.39 c 0.138,0.089 0.282,0.122 0.437,0.122 h 1.447 c 0.065,0 0.108,-0.033 0.108,-0.118 v -3.321 c 0,-0.07 -0.043,-0.098 -0.108,-0.098 H 0.097 C 0.027,-0.76 0,-0.732 0,-0.66 v 0.102 c 0,0.083 -0.042,0.116 -0.124,0.088 l -1.214,-0.325 c -0.069,-0.019 -0.124,-0.019 -0.188,-0.019" style="fill:#1d1d1b;fill-opacity:1;fill-rule:nonzero;stroke:none" id="path454"></path></g><g id="g456" transform="translate(324.0352,248.043)"><path d="m 0,0 c 0,-0.07 -0.046,-0.098 -0.101,-0.098 h -0.634 c -0.078,0 -0.116,0.028 -0.116,0.098 v 4.859 c 0,0.068 0.038,0.122 0.116,0.122 h 0.634 C -0.046,4.981 0,4.927 0,4.859 Z" style="fill:#1d1d1b;fill-opacity:1;fill-rule:nonzero;stroke:none" id="path458"></path></g><g id="g460" transform="translate(289.6338,197.9307)"><path d="M 0,0 C -6.69,-0.234 -13.791,-0.776 -21.23,-1.767 L -21.235,-26.554 0,-37.604 Z" style="fill:#1d1d1b;fill-opacity:1;fill-rule:nonzero;stroke:none" id="path462"></path></g><g id="g464" transform="translate(310.7773,197.9307)"><path d="M 0,0 C 6.69,-0.234 13.796,-0.776 21.235,-1.767 L 21.24,-26.554 0,-37.604 Z" style="fill:#0082ca;fill-opacity:1;fill-rule:nonzero;stroke:none" id="path466"></path></g><g id="g468" transform="translate(289.0322,197.9238)"><path d="M 0,0 Z" style="fill:#1d1d1b;fill-opacity:1;fill-rule:nonzero;stroke:none" id="path470"></path></g><g id="g472" transform="translate(341.4795,223.5586)"><path d="M 0,0 H -5.464 V 32.5 H -77.13 V 0 h -5.465 V 37.961 H 0 Z" style="fill:#1d1d1b;fill-opacity:1;fill-rule:nonzero;stroke:none" id="path474"></path></g><g id="g476" transform="translate(300.1758,143.9893)"><path d="m 0,0 -41.291,21.328 v 29.486 l 0.653,0.106 c 1.316,0.218 2.624,0.417 3.92,0.609 l 0.892,0.13 V 24.657 L 0,6.149 35.84,24.657 v 27.098 l 0.918,-0.165 c 1.356,-0.24 2.661,-0.48 3.911,-0.717 L 41.304,50.75 V 21.326 Z" style="fill:#1d1d1b;fill-opacity:1;fill-rule:nonzero;stroke:none" id="path478"></path></g><g id="g480" transform="translate(310.7773,197.9307)"><path d="M 0,0 C -6.507,0.408 -13.533,0.265 -21.144,0 V -37.604 L -10.598,-42.563 0,-37.604 Z" style="fill:#ffffff;fill-opacity:1;fill-rule:nonzero;stroke:none" id="path482"></path></g><g id="g484" transform="translate(31.8491,769.3027)"><path d="M 0,0 H 531.583" style="fill:none;stroke:#9d9c9c;stroke-width:0.5;stroke-linecap:butt;stroke-linejoin:miter;stroke-miterlimit:10;stroke-dasharray:none;stroke-opacity:1" id="path486"></path></g></g></g></g></g></svg>