


<svg width="648.41547mm" height="536.61969mm" viewBox="0 0 648.41546 536.61969" version="1.1" id="svg5" xmlns="http://www.w3.org/2000/svg">
  
  <defs id="defs2"></defs>
  <g id="layer1" transform="translate(261.60565,92.789642)">
    <g id="g13206" style="display:inline;opacity:1">
      <path style="display:inline;opacity:1;fill:#ffffff;fill-opacity:1;stroke-width:0.894366" d="M 55.447156,440.68566 C -59.128618,404.09228 -143.38698,310.67433 -157.53992,204.54512 l -1.45708,-10.92618 -3.23214,0.87133 c -4.68926,1.26415 -41.61467,12.57026 -54.43461,16.6672 l -10.95599,3.50128 -0.002,-64.51117 -0.002,-64.511175 -16.99114,-19.825459 c -9.34513,-10.904005 -16.99115,-20.060078 -16.99115,-20.34683 0,-0.286752 24.55035,-0.521371 54.55634,-0.521371 h 54.55633 V 9.6985656 -25.545617 l 4.24824,-3.517989 c 37.16647,-30.777746 97.503443,-53.09888 166.5757,-61.623217 30.975352,-3.822727 82.96337,-2.14468 118.34087,3.819756 55.18235,9.303418 112.56527,33.319985 142.58211,59.675114 l 2.91504,2.559437 v 34.787629 34.787632 h 52.32042 c 28.77623,0 52.32042,0.247203 52.32042,0.549347 0,0.302134 -9.65366,13.63818 -21.45259,29.635654 l -21.45259,29.086314 3.819,3.36162 c 9.6922,8.53141 11.36083,15.62086 11.36083,48.26847 0,33.52635 -1.54265,39.61632 -12.04613,47.55486 -10.29946,7.78434 -18.6636,7.78553 -42.50016,0.006 -9.09465,-2.9682 -16.6801,-5.25235 -16.85656,-5.0759 -0.17646,0.17645 -1.12104,5.07763 -2.09909,10.8915 C 267.5689,316.30092 191.5106,399.89535 76.017577,439.55003 l -11.62676,3.99207 z" id="path1596"></path>
      <path style="display:inline;opacity:1;fill:#e40119;stroke-width:0.894366" d="m 54.55279,422.01129 c -77.969725,-28.5536 -140.547005,-81.95228 -172.21414,-146.95445 -12.15652,-24.95332 -22.08526,-59.39314 -23.38841,-81.12744 l -0.26364,-4.39714 4.51322,-1.1623 c 2.48227,-0.63926 12.07621,-2.72648 21.31986,-4.63826 18.438563,-3.8135 18.229326,-3.8395 17.258188,2.14491 -0.737772,4.5464 0.969493,23.58951 3.020426,33.69026 9.302965,45.81668 40.039074,86.69998 89.8835226,119.5576 19.5307394,12.87472 45.0231444,24.94086 62.6332134,29.64574 l 7.234063,1.93271 8.417345,-2.41644 c 18.71472,-5.3726 42.113802,-16.57697 62.007552,-29.69158 60.41584,-39.82805 92.63865,-92.50583 92.63865,-151.44541 v -6.96288 l 16.32219,3.40722 c 8.9772,1.87397 18.53573,3.97686 21.24119,4.67309 l 4.91902,1.26588 -0.25415,6.09961 c -0.8237,19.76969 -12.15716,57.59018 -24.80324,82.77003 -31.66872,63.05619 -99.08758,119.25556 -173.373972,144.52199 -7.74463,2.63412 -7.369989,2.65411 -17.110888,-0.91314 z M 52.764057,345.33908 C 37.949794,340.05155 5.6374712,323.74642 3.6724593,320.56697 1.4526425,316.97523 10.458633,298.22352 24.304995,277.6072 37.441168,258.0483 38.609496,255.9365 41.19959,247.06949 l 1.959368,-6.70774 7.721394,-0.80769 c 4.246764,-0.44422 7.858805,-0.64545 8.02674,-0.44718 0.417865,0.49333 4.389969,109.0798 4.003648,109.4488 -0.16976,0.16215 -4.735768,-1.28532 -10.146683,-3.2166 z m 13.288215,-5.02168 c 0.303486,-4.80167 1.174679,-27.44492 1.935981,-50.31833 0.761312,-22.87341 1.606407,-43.74988 1.878008,-46.39213 l 0.493807,-4.80412 7.300585,0.6247 c 8.593285,0.7353 8.281616,0.51584 9.977111,7.02527 1.932493,7.41937 5.272119,13.50787 16.899236,30.80916 13.20052,19.64252 18.80138,30.63069 20.6583,40.52896 l 0.58972,3.14344 -11.91542,6.76155 c -14.150443,8.02985 -26.399807,13.70935 -39.085917,18.12246 l -9.28319,3.22933 z M -9.3943913,311.60063 C -14.559356,307.71368 -22.362486,301.15689 -26.734676,297.02997 l -7.949439,-7.50347 1.486812,-7.58943 c 1.382089,-7.05487 1.768055,-7.85096 5.479853,-11.303 11.392928,-10.5956 38.708105,-23.92771 56.474,-27.56406 l 2.823488,-0.57792 -0.828353,3.68672 c -1.167273,5.19517 -5.997146,14.44616 -13.409939,25.68502 C 6.9095998,287.68045 2.7120979,298.09307 0.7374805,313.05351 l -0.74102709,5.61431 z M 128.338,315.67004 c 0,-12.33847 -5.46524,-26.65688 -16.93522,-44.36864 -9.62788,-14.86722 -16.011782,-28.70374 -13.243353,-28.70374 1.266664,0 17.139613,4.8011 21.949683,6.63913 12.98144,4.96048 29.51866,14.65557 37.57963,22.03139 2.55537,2.33816 3.17177,3.7772 4.44342,10.37362 l 1.47647,7.65886 -8.02088,7.75866 c -7.20199,6.96654 -18.1097,15.84191 -24.79024,20.17129 l -2.45951,1.5939 z M -42.13525,281.03831 c -16.805784,-20.58355 -27.367864,-42.20008 -32.547952,-66.61318 -2.119612,-9.98946 -3.626073,-38.01056 -2.04351,-38.01056 0.48954,0 7.890894,-0.98171 16.447465,-2.18158 77.743056,-10.90175 172.981647,-10.90286 249.857817,-0.003 8.99401,1.27523 16.39903,2.75082 16.8105,3.34982 1.11896,1.62895 -0.18622,22.16118 -2.1292,33.49508 -4.23377,24.69639 -15.59983,48.93855 -32.49618,69.30943 -5.88356,7.09345 -6.75668,7.36625 -6.75668,2.11113 0,-20.5023 -12.59933,-47.24993 -30.25548,-64.23058 C 74.154827,159.9868 -27.843412,197.22231 -35.976251,280.59113 l -0.696308,7.13782 z M 152.0387,260.86559 c -11.13619,-10.01721 -30.11927,-20.73615 -45.83626,-25.88175 -3.96238,-1.29725 -7.97454,-2.54098 -7.97454,-2.54098 0,0 1.074074,-2.62096 2.70904,-4.38513 3.6892,-3.98073 7.42303,-5.74791 15.24471,-6.419 l 8.21631,0.18705 7.33063,6.89614 c 8.10675,7.62626 14.74257,15.99216 19.16437,24.16095 2.86942,5.30091 6.1464,12.10625 5.79744,12.03959 -0.0989,-0.0189 -2.19219,-1.84449 -4.6517,-4.05687 z m -177.946364,-0.15701 c 4.415387,-10.59235 13.698944,-23.41765 23.4637052,-32.41526 l 6.8003221,-6.26608 6.7637067,0.009 c 8.383118,0.0108 15.15558,2.77718 17.917481,7.31876 l 1.796013,2.9533 -8.654066,2.90136 c -16.095747,5.39625 -31.8344719,14.23006 -43.24027,24.26986 -6.220138,5.4752 -6.663672,5.58769 -4.846892,1.22931 z M 39.838311,227.4962 c -2.321122,-5.60368 -8.197805,-9.69952 -19.718619,-13.74317 -3.798427,-1.33319 20.225841,-9.43959 32.281986,-10.89274 l 5.003809,-0.60313 0.585979,9.57699 c 0.322285,5.26734 0.585971,11.07786 0.585971,12.91227 v 3.33528 l -5.142605,0.58594 c -2.828433,0.32226 -6.789286,0.80723 -8.801896,1.07771 -3.427596,0.46063 -3.731179,0.31822 -4.794625,-2.24915 z m 37.182253,1.44041 -7.046299,-0.88687 0.562145,-5.37836 c 0.309182,-2.95809 0.562154,-8.78664 0.562154,-12.95232 v -7.57398 l 5.142605,0.60383 c 7.746007,0.9095 21.384474,4.69415 28.162051,7.81489 l 6.02648,2.77492 -5.68711,1.91389 c -6.970495,2.34578 -11.675871,5.82347 -14.758242,10.90767 -2.576651,4.25004 -2.087361,4.14526 -12.963784,2.77633 z M -134.88027,41.686904 c -0.34086,-0.340861 -0.61975,-13.196489 -0.61975,-28.568068 v -27.948317 l 3.35387,-2.642814 c 7.78438,-6.134 24.97969,-16.699163 38.712347,-23.785688 48.021739,-24.780868 95.5589373,-35.582924 150.909497,-34.291733 19.273269,0.449598 41.290275,2.547569 32.851742,3.1304 -53.347564,3.684598 -102.871061,16.684655 -147.799393,38.797759 -15.245187,7.503473 -37.370732,21.603401 -45.830883,29.2066169 l -4.91901,4.42076778 -0.44719,20.90331332 -0.44718,20.903323 -12.57215,0.247095 c -6.91468,0.135899 -12.85104,-0.03184 -13.1919,-0.372655 z M 238.34504,22.203933 V 2.0991006 l -3.80106,-2.59029902 C 197.24585,-25.908736 153.84109,-41.654963 101.62773,-48.710092 c -15.105455,-2.041064 -58.354481,-2.044912 -73.458742,-0.0065 -5.656866,0.763416 -10.398018,1.275798 -10.535893,1.138628 -1.394818,-1.387663 36.696336,-9.143917 55.762058,-11.354466 15.173637,-1.759285 55.446857,-1.520129 70.096087,0.416255 41.95125,5.545255 78.80322,18.117721 112.52429,38.388934 l 7.81894,4.700308 v 28.619717 28.619717 l -12.74472,0.24815 -12.74471,0.248142 z" id="path1594"></path>
      <path style="display:inline;opacity:1;fill:#00326f;stroke-width:0.894366" d="m 325.54574,190.97784 c -6.42775,-1.55762 -37.23432,-12.50937 -39.7993,-14.14866 -8.8111,-5.63123 -10.73239,-10.44877 -10.73239,-26.91086 0,-6.57882 0.30185,-11.95883 0.67077,-11.95557 0.36893,0.004 5.29912,0.80552 10.95599,1.78281 5.65687,0.97728 10.58706,1.77954 10.95598,1.7828 0.36893,0.004 0.67671,3.72873 0.68396,8.27882 0.0176,11.03454 0.70944,12.23607 8.50776,14.77516 3.42986,1.11674 7.24226,1.92167 8.47202,1.78873 l 2.23591,-0.24171 0.24261,-16.57243 c 0.18052,-12.33146 -0.0484,-16.96092 -0.89437,-18.09053 -0.62533,-0.83495 -8.55751,-5.51156 -17.62705,-10.39244 -25.56331,-13.75723 -25.09538,-13.15137 -25.10294,-32.502138 -0.005,-14.539711 -0.76212,-18.25539 -4.60827,-22.635915 l -2.72696,-3.105839 h 43.13173 c 34.37297,0 42.95514,0.227026 42.26207,1.117958 -0.47831,0.614877 -3.60939,4.88315 -6.95795,9.485048 l -6.08829,8.36709 -19.08845,-0.650669 c -23.02867,-0.784985 -21.771,-1.328348 -21.771,9.405924 0,9.292849 -1.91062,7.382876 18.33451,18.328321 17.34256,9.37618 21.98854,12.97869 23.57746,18.28203 2.02005,6.74232 1.35178,54.03123 -0.82381,58.29574 -2.54778,4.99405 -7.6141,7.01776 -13.80999,5.51633 z m -536.17261,-56.2792 -9e-5,-56.217164 -6.26047,-7.351484 c -3.44326,-4.043322 -6.26047,-7.564889 -6.26047,-7.825704 0,-0.260824 16.21454,-0.47422 36.03232,-0.47422 51.22483,0 48.03809,-2.384344 48.03809,35.942537 0,36.869005 0.17087,36.631445 -30.40844,42.274955 l -15.65141,2.8885 -0.2402,19.62644 -0.24019,19.62644 -11.26621,3.38824 c -6.19642,1.86354 -11.82345,3.60209 -12.50453,3.86344 -1.04674,0.40167 -1.23832,-8.22163 -1.2384,-55.74198 z m 46.18029,-16.87838 c 1.64061,-2.24367 1.77187,-32.616997 0.14797,-34.240897 -1.1246,-1.124594 -17.20428,-1.553774 -19.87122,-0.530368 -1.22999,0.471993 -1.4147,3.081422 -1.4147,19.985665 v 19.4428 l 9.95837,-1.49355 c 7.5264,-1.1288 10.25661,-1.9014 11.17958,-3.16365 z m 36.99585,3.56206 c 0,-51.491365 -0.006,-51.562548 -4.67041,-56.52772 l -1.90195,-2.024532 h 15.36013 15.36012 V 82.99383 103.1576 l 2.90669,-0.45304 c 1.598681,-0.24918 6.428258,-0.706 10.732395,-1.01519 l 7.825704,-0.56213 V 81.978653 62.830068 h 12.073944 12.073943 v 47.401402 c 0,31.21135 -0.307483,47.40141 -0.900251,47.40141 -1.327302,0 -18.890024,2.60097 -21.235312,3.14487 l -2.012324,0.46667 v -20.70298 -20.70298 l -5.366197,0.5627 c -2.951408,0.30949 -7.780985,0.81592 -10.732394,1.12542 l -5.366198,0.5627 v 21.19327 21.19329 l -11.40317,2.39554 c -6.27174,1.31755 -11.70501,2.39391 -12.07394,2.39191 -0.36893,-0.002 -0.67078,-21.54844 -0.67078,-47.88097 z m 359.5352,44.22681 c -6.14876,-1.42397 -14.58588,-3.1923 -18.74915,-3.92962 -10.61606,-1.8801 -16.39393,-4.88968 -19.48619,-10.14996 l -2.45832,-4.18188 -0.23216,-37.1162 c -0.25996,-41.562398 -0.11788,-39.949337 -3.89806,-44.254718 l -2.76282,-3.146684 h 15.74406 15.74405 v 40.712832 40.71284 l 2.01233,0.8503 c 4.58989,1.93945 16.04161,3.66392 17.31468,2.60736 1.02928,-0.85422 1.24341,-8.25218 1.24341,-42.95763 V 62.830068 h 12.07395 12.07394 v 47.877312 c 0,52.83815 0.0387,52.44743 -5.53596,55.84624 -4.0187,2.45011 -9.37148,2.23111 -23.08376,-0.94449 z m -71.62382,-11.00465 c -0.20496,-0.18992 -9.02565,-1.00891 -19.60153,-1.81999 -10.57588,-0.81107 -21.34181,-1.6908 -23.92429,-1.95496 l -4.69542,-0.48029 v -38.78235 c 0,-40.982247 -0.0863,-41.914123 -4.28956,-46.319779 l -2.38704,-2.501981 32.6288,0.266065 c 43.39965,0.353883 42.29581,-0.226534 42.72156,22.463723 0.33091,17.635372 -2.09385,21.920712 -12.52356,22.133292 -2.84072,0.0579 -2.80558,0.10021 1.08923,1.31177 10.33805,3.21586 11.62676,5.874 11.62676,23.98174 0,15.48898 -0.89296,18.70827 -5.75246,20.7387 -2.76562,1.15555 -13.90745,1.8768 -14.89249,0.96406 z m -5.23287,-16.67912 c 1.55424,-0.8318 1.72994,-1.9561 1.72994,-11.07007 0,-12.63062 0.1266,-12.49169 -11.76176,-12.90657 l -8.80867,-0.30739 v 11.69352 c 0,13.32056 -0.68867,12.32759 8.94367,12.89546 2.70545,0.1595 5.64978,0.36445 6.54295,0.45544 0.89316,0.091 2.40241,-0.25118 3.35387,-0.76039 z m 0,-38.457744 c 2.1252,-1.137374 2.65434,-18.69625 0.61198,-20.307594 -0.61488,-0.485113 -5.24322,-1.140102 -10.28521,-1.455545 l -9.16726,-0.57353 v 11.139438 11.139429 l 5.14261,0.322705 c 10.60591,0.665531 12.01008,0.638381 13.69788,-0.264903 z M -35.827473,153.09998 c -7.972129,-2.31693 -8.400093,-4.71305 -8.425859,-47.17554 -0.02209,-36.45195 -0.06556,-36.910036 -3.896548,-41.114066 l -1.862956,-2.044343 33.05394,0.25561 c 36.291564,0.280643 37.568468,0.463872 41.274453,5.922448 1.95987,2.886719 2.985117,64.956241 1.183444,71.647131 -2.083731,7.7384 -6.801959,9.37863 -33.6189384,11.68722 -22.5294956,1.93949 -23.7376316,1.97531 -27.7075356,0.82154 z M 0.22004496,135.59945 2.2323688,134.33812 2.218685,107.30417 C 2.2106357,91.72347 1.8437488,79.701847 1.3523304,78.928659 0.21339087,77.136662 -16.562915,77.084306 -18.709778,78.866053 c -2.269616,1.883616 -2.12971,56.790757 0.148142,58.140827 2.125989,1.26006 16.2097164,0.20469 18.7816899,-1.40742 z M 38.007015,110.73688 c 0,-40.643781 -0.07495,-41.486417 -4.04147,-45.447305 l -2.463013,-2.459507 h 33.213513 33.213504 v 8.049295 8.049296 H 80.042225 62.154902 v 9.390844 9.390845 H 77.80631 93.457718 v 8.943662 8.94366 H 77.80631 62.154902 v 8.94366 8.94366 h 17.887323 17.887324 v 8.0493 8.04929 H 67.968282 38.007015 Z" id="path1592"></path>
      <g id="g3606" transform="matrix(0.57694923,0,0,0.57694923,-80.946765,11.780951)" style="display:inline;opacity:1">
        <polygon fill="#003c83" points="9.164,16.318 9.164,0 0,0 0,41.797 9.164,41.797 9.164,24.488 28.682,24.488 28.682,41.797 37.842,41.797 37.842,0 28.682,0 28.682,16.318 " id="polygon3592" style="opacity:1"></polygon>
        <path fill="#003c83" d="m 227.44536,2.384 c -1.923,1.967 -2,4.837 -2.05,6.51 v 32.903 h 9.149 V 28.461 h 19.438 v 13.336 h 9.189 V 0 h -28.561 c -2.715,0.025 -5.254,0.419 -7.165,2.384 z m 9.435,5.783 h 17.103 V 20.3 h -19.438 v -9.746 c 0.038,-0.48 -0.054,-1.35 0.351,-1.865 0.433,-0.543 1.123,-0.499 1.984,-0.522 z" id="path3594" style="opacity:1"></path>
        <path fill="#003c83" d="M 162.864,0 H 134.25 v 41.797 h 9.164 V 8.167 h 17.182 c 0.854,0.023 1.554,-0.021 1.978,0.521 0.41,0.515 0.329,1.385 0.358,1.865 v 31.243 h 9.155 V 8.894 C 172.036,7.221 171.964,4.351 170.05,2.384 168.129,0.419 165.593,0.025 162.864,0 Z" id="path3596" style="opacity:1"></path>
        <path fill="#003c83" d="m 116.98,31.239 c -0.033,0.49 0.05,1.341 -0.354,1.86 -0.434,0.548 -1.131,0.5 -1.981,0.523 H 97.467 V 0 h -9.168 v 41.797 h 28.62 c 2.722,-0.021 5.26,-0.426 7.175,-2.391 1.923,-1.964 1.996,-4.83 2.048,-6.509 V 0 h -9.16 v 31.239 z" id="path3598" style="opacity:1"></path>
        <path fill="#003c83" d="M 218.03,8.894 C 217.985,7.221 217.909,4.351 215.995,2.384 214.08,0.419 211.538,0.025 208.82,0 h -19.453 -9.155 v 41.797 h 28.608 c 2.718,-0.021 5.26,-0.426 7.175,-2.391 1.914,-1.964 1.99,-4.83 2.035,-6.509 z m -9.127,22.345 c -0.033,0.49 0.051,1.341 -0.35,1.86 -0.43,0.548 -1.135,0.5 -1.986,0.523 h -17.2 V 8.167 h 17.2 c 0.852,0.023 1.557,-0.021 1.986,0.521 0.4,0.515 0.316,1.385 0.35,1.865 z" id="path3600" style="opacity:1"></path>
        <polygon fill="#003c83" points="58.184,41.797 67.968,41.797 67.968,26.351 85.07,0 74.181,0 63.079,18.287 51.964,0 41.079,0 58.184,26.351 " id="polygon3602" style="opacity:1"></polygon>
        <rect x="271.88608" fill="#003c83" width="9.7709999" height="41.797001" id="rect3604" y="0" style="opacity:1"></rect>
        <rect x="449.77362" fill="#003c83" width="9.7709999" height="41.797001" id="rect3604-3" y="0.47712103" style="opacity:1"></rect>
        <path fill="#003c83" d="m 393.23423,2.5232392 c -1.8908,-1.94451536 -4.42833,-2.35275615 -7.12917,-2.37853978 h -19.40003 c -2.70728,0.0257836 -5.23408,0.43402442 -7.12918,2.37853978 -1.91443,1.9638531 -1.99393,4.8043496 -2.04765,6.4716909 V 33.094029 c 0.0537,1.663044 0.13537,4.518581 2.04765,6.471691 1.8951,1.944515 4.42405,2.352756 7.12918,2.372094 h 19.40003 c 2.70298,-0.01719 5.23837,-0.42543 7.12917,-2.372094 1.92733,-1.95311 1.99823,-4.808647 2.04336,-6.471691 V 8.9927815 c -0.0451,-1.6673414 -0.11603,-4.5078378 -2.04336,-6.4695423 z m -7.11628,28.5317348 c -0.0129,0.42543 -0.058,0.891684 -0.32229,1.209682 -0.42114,0.537159 -1.11944,0.507078 -1.96815,0.519969 h -14.84278 c -0.84656,-0.01289 -1.54702,0.01719 -1.95741,-0.519969 -0.25998,-0.317998 -0.32229,-0.784252 -0.34593,-1.209682 V 11.018945 c 0.0236,-0.416835 0.0859,-0.878792 0.34593,-1.2075333 0.41039,-0.5371589 1.11085,-0.4963349 1.95741,-0.5285644 h 14.84278 c 0.84656,0.032229 1.54701,-0.00859 1.96815,0.5285644 0.26428,0.3265923 0.3094,0.7885493 0.32229,1.2075333 z" id="path3628" style="opacity:1;stroke-width:2.14864"></path>
        <polygon fill="#003c83" points="47.908,90.301 52.164,90.301 52.164,70.85 46.519,70.85 41.861,84.548 37.204,70.85 31.558,70.85 31.558,90.301 35.815,90.301 35.815,77.995 39.982,90.301 43.745,90.301 47.908,77.995 " id="polygon3616" transform="matrix(2.1486358,0,0,2.1486358,237.66011,-152.08829)" style="opacity:1"></polygon>
        <g id="g14900" transform="translate(-0.70090259)" style="opacity:1">
          <path style="font-size:29.9384px;font-family:Hyundai;fill:#003c83;fill-opacity:1;stroke-width:1.2276" d="m 441.61175,31.929357 c 0,6.217788 -3.23286,9.326682 -9.69858,9.326682 H 405.32484 V 0.48365692 h 26.58833 c 6.46572,0 9.69858,3.10889398 9.69858,9.32668188 v 5.7081342 c 0,3.440424 -3.47379,5.381148 -3.47379,5.381148 0,0 3.47379,1.490443 3.47379,4.964843 z" id="path11256"></path>
          <path style="font-size:29.9384px;font-family:Hyundai;fill:#ffffff;fill-opacity:1;stroke-width:1.70565" d="m 434.46567,29.470716 c 0,-1.84 -0.30695,-3.113844 -0.92086,-3.821536 -0.61388,-0.754869 -1.75397,-1.132306 -3.42025,-1.132306 H 412.2997 v 9.97845 h 17.82486 c 1.53473,0 2.63096,-0.377436 3.2887,-1.132305 0.70161,-0.754873 1.05241,-2.052307 1.05241,-3.892303 z" id="path14247"></path>
          <path style="font-size:29.9384px;font-family:Hyundai;opacity:1;fill:#ffffff;fill-opacity:1;stroke-width:1.82016" d="m 433.19936,13.076954 c 0,-2.182573 -0.28711,-3.6471962 -0.86139,-4.393867 -0.53322,-0.8041072 -1.59968,-1.2061611 -3.19937,-1.2061611 H 412.4649 V 18.073906 h 16.6737 c 1.55867,0 2.58412,-0.258464 3.07632,-0.77539 0.65629,-0.631799 0.98444,-2.038984 0.98444,-4.221562 z" id="path14245"></path>
        </g>
        <path d="m 501.90356,8.325369 h -24.31933 c -0.85574,0 -1.55745,0.3594114 -2.10512,1.0782344 -0.51344,0.6845916 -0.77016,1.4889876 -0.77016,2.4131876 v 0.846114 c 0,2.327614 0.79622,4.482648 2.88421,4.482648 h 16.93711 c 4.48407,0 5.74749,0.630993 7.45898,2.719 1.16379,1.403413 1.74569,3.49142 1.74569,6.26402 v 4.723688 c 0,3.45719 -1.1638,6.127099 -3.49141,8.009728 -2.01955,1.643022 -2.70107,2.464533 -5.71326,2.464533 h -25.84732 v -7.202255 h 23.63248 c 2.08801,0 3.13202,-2.981053 3.13202,-5.274437 v -0.102695 c 0,-1.985317 -0.95843,-4.066305 -2.87529,-4.408601 h -15.55035 c -3.01221,0 -5.52809,0.09567 -7.54763,-1.547353 -2.32761,-1.882629 -2.50019,-4.552539 -2.50019,-8.009731 V 9.6470076 c 0,-2.7725979 0.4993,-4.8606043 1.6631,-6.2640194 1.71148,-2.0880055 3.90064,-3.13200829 8.38472,-3.13200829 h 24.88175 z" style="font-family:hyundai;opacity:1;fill:#003c83;fill-opacity:1;stroke-width:2.79904" id="path12481"></path>
      </g>
    </g>
  </g>
</svg>
